<!DOCTYPE svg PUBLIC "-//W3C//DTD SVG 20010904//EN" "http://www.w3.org/TR/2001/REC-SVG-20010904/DTD/svg10.dtd">
<svg version="1.0" xmlns="http://www.w3.org/2000/svg" viewBox="1122 1637 8778 8338">
    <g id="layer101" fill="#181818" stroke="none">
        <path
            d="M1122 9958 c4 -10 89 -14 371 -16 l366 -2 -35 -83 c-279 -648 -484 -1317 -499 -1631 l-4 -91 9 85 c41 373 222 967 480 1575 l62 145 58 0 c46 0 80 -9 166 -45 60 -25 114 -45 121 -45 6 0 32 9 57 20 37 16 46 24 46 45 l0 25 335 0 335 0 0 -23 c0 -35 86 -74 128 -59 17 6 33 7 37 4 3 -4 9 -1 13 5 5 7 41 26 81 43 l74 30 1878 0 1879 0 115 -47 114 -47 51 24 c39 18 50 29 50 47 l0 23 340 0 340 0 0 -23 c0 -18 11 -29 50 -47 l50 -23 108 44 107 44 748 5 c488 3 747 8 747 15 0 7 -1472 11 -4391 13 -3511 2 -4390 0 -4387 -10z" />
        <path d="M6792 9765 c0 -16 3 -50 7 -75 l8 -45 1 50 c0 28 -4 61 -8 75 -8 24 -8 24 -8 -5z" />
        <path
            d="M6296 9693 c42 -77 132 -213 140 -213 6 0 4 3 -55 95 -26 39 -59 96 -76 127 -16 32 -34 58 -38 58 -5 0 8 -30 29 -67z" />
        <path
            d="M7170 9673 c0 -38 14 -268 30 -513 16 -245 30 -453 30 -462 0 -15 -9 -18 -53 -18 -52 0 -55 1 -114 63 -84 87 -141 196 -157 297 -1 9 -5 20 -8 25 -3 6 -18 80 -32 164 -15 85 -28 157 -31 159 -9 9 -5 -19 20 -163 13 -76 22 -141 20 -144 -3 -2 0 -10 5 -17 6 -6 10 -16 9 -20 -1 -5 1 -17 6 -27 10 -25 0 -137 -20 -215 -9 -34 -40 -108 -69 -165 -49 -94 -56 -103 -95 -117 -22 -8 -41 -18 -41 -23 0 -5 8 -6 18 -2 57 24 57 21 8 -69 -26 -49 -45 -90 -42 -93 3 -3 17 20 33 51 15 31 31 56 35 56 4 0 8 -20 8 -44 0 -25 4 -47 9 -50 4 -3 6 25 3 62 -5 70 7 107 57 182 30 45 91 189 104 247 l13 56 44 -134 c24 -74 44 -142 44 -151 0 -10 4 -18 9 -18 5 0 7 -7 3 -15 -3 -8 -1 -15 4 -15 18 0 23 -93 7 -170 -15 -76 -106 -330 -118 -330 -14 0 -100 -42 -96 -47 3 -2 19 3 36 11 57 30 62 23 35 -46 -13 -34 -23 -67 -21 -72 2 -5 20 36 41 92 21 56 42 102 47 102 5 0 9 -4 9 -9 0 -16 31 -83 36 -78 3 3 -4 27 -15 52 -12 26 -21 55 -21 64 0 9 16 58 35 109 19 51 40 123 47 161 l12 69 17 -37 c63 -134 91 -259 96 -426 6 -179 -12 -285 -69 -406 l-40 -86 -60 -19 c-34 -10 -56 -20 -50 -22 7 -2 28 2 48 8 43 14 52 8 32 -22 -44 -70 -59 -98 -51 -98 4 0 31 40 58 90 28 49 53 90 56 90 4 0 10 -24 14 -52 4 -29 9 -48 12 -41 2 6 0 37 -6 67 -9 49 -8 61 13 108 56 128 75 387 41 578 l-6 35 21 -33 c11 -18 20 -35 20 -37 0 -3 18 -34 39 -68 l40 -62 28 -437 c16 -241 32 -440 35 -443 3 -3 42 4 88 14 196 47 434 52 595 12 44 -11 82 -18 84 -15 13 13 200 1612 276 2364 8 85 17 167 20 183 l5 27 -175 0 c-173 0 -175 0 -179 -22 -15 -70 -286 -2065 -286 -2102 0 -17 -5 -38 -10 -46 -7 -11 -10 -5 -11 25 0 22 -3 58 -5 80 -3 22 -52 441 -109 930 -57 490 -106 908 -110 930 -3 22 -11 77 -17 123 l-10 82 -164 0 -164 0 0 -67z m-36 -1013 c37 -28 49 -45 62 -90 9 -30 24 -62 34 -71 14 -14 18 -43 24 -150 3 -74 9 -163 12 -199 l6 -65 -38 60 c-30 49 -135 256 -139 275 0 3 -6 15 -13 28 -7 12 -10 22 -6 22 3 0 1 6 -5 13 -6 8 -8 17 -4 20 3 4 1 7 -6 7 -8 0 -11 7 -7 15 3 8 2 15 -3 15 -8 0 -76 203 -85 257 -5 32 -3 31 59 -35 35 -37 84 -83 109 -102z m106 -25 c0 -19 -3 -35 -7 -35 -5 0 -26 16 -48 35 l-40 34 48 1 47 0 0 -35z m-12 -48 c6 -6 14 -25 18 -41 10 -43 -16 -29 -32 17 -13 37 -6 49 14 24z" />
        <path
            d="M5996 9630 c33 -111 102 -283 104 -258 0 4 -13 40 -29 80 -15 40 -38 105 -51 143 -27 83 -47 113 -24 35z" />
        <path d="M4604 9588 c-33 -40 -65 -81 -73 -93 l-15 -20 23 20 c22 19 110 126 125 153 18 30 -6 6 -60 -60z" />
        <path
            d="M5784 9598 c27 -123 60 -250 85 -330 l31 -96 14 -496 c7 -274 17 -500 21 -504 4 -4 5 54 2 128 -4 74 -9 286 -12 470 l-6 335 49 -115 c56 -133 101 -224 108 -218 2 3 -20 56 -50 119 -30 63 -75 173 -101 244 -45 125 -125 415 -125 455 0 10 -5 22 -10 25 -7 4 -9 -2 -6 -17z" />
        <path d="M5676 9579 c-7 -23 -39 -600 -33 -605 5 -5 10 58 32 396 12 196 13 247 1 209z" />
        <path
            d="M8935 9563 c4 -12 35 -82 70 -155 199 -418 354 -844 401 -1105 10 -57 21 -103 25 -103 9 0 -14 126 -46 250 -55 218 -170 527 -314 843 -82 181 -146 307 -136 270z" />
        <path d="M4897 9478 c-26 -50 -45 -93 -43 -95 6 -6 98 166 94 177 -2 5 -24 -32 -51 -82z" />
        <path d="M5406 9473 c-14 -154 -27 -385 -23 -390 6 -6 14 74 28 280 6 93 9 171 6 173 -3 3 -8 -25 -11 -63z" />
        <path
            d="M5144 9493 c-113 -275 -216 -475 -359 -698 -16 -25 -17 -28 -3 -17 18 15 143 219 174 285 16 34 39 53 29 25 -2 -7 -38 -206 -80 -443 -42 -236 -78 -441 -81 -455 -4 -22 -3 -23 5 -5 6 11 49 235 96 498 l85 477 50 110 c44 97 67 150 101 238 15 38 -1 24 -17 -15z" />
        <path
            d="M5280 9511 c0 -10 -9 -120 -21 -245 -11 -125 -19 -244 -17 -264 2 -20 14 90 28 246 14 155 22 282 18 282 -5 0 -8 -8 -8 -19z" />
        <path d="M2415 9095 c-16 -8 -64 -28 -105 -44 l-75 -30 117 0 117 -1 -6 38 c-7 49 -13 54 -48 37z" />
        <path d="M2975 9055 l-90 -34 98 0 97 -1 0 35 c0 19 -3 35 -7 34 -5 0 -48 -16 -98 -34z" />
        <path
            d="M4839 7156 c-52 -36 -69 -79 -69 -178 l0 -83 -46 -19 c-64 -26 -99 -80 -99 -155 0 -45 3 -56 18 -59 14 -3 17 4 17 45 0 30 7 60 20 80 39 65 23 63 618 63 532 0 540 0 566 -21 49 -38 56 -66 56 -214 0 -128 1 -135 20 -135 19 0 20 7 20 138 0 123 -2 143 -22 182 -18 36 -34 50 -75 70 l-52 25 -1 86 c0 97 -17 134 -79 176 -34 23 -34 23 -445 23 l-411 0 -36 -24z m870 -20 c49 -26 64 -62 69 -158 l4 -88 -486 0 -486 0 0 89 c0 99 15 131 74 157 47 20 785 20 825 0z" />
        <path d="M4620 6475 c0 -138 1 -145 20 -145 19 0 20 7 20 145 0 138 -1 145 -20 145 -19 0 -20 -7 -20 -145z" />
        <path d="M5920 6295 c0 -138 1 -145 20 -145 19 0 20 7 20 145 0 138 -1 145 -20 145 -19 0 -20 -7 -20 -145z" />
        <path d="M8304 6416 c9 -26 88 -137 94 -132 4 5 -43 78 -81 126 -14 17 -18 19 -13 6z" />
        <path
            d="M8116 6379 c-3 -19 -8 -72 -11 -119 -3 -47 -8 -114 -11 -150 -4 -36 -3 -62 0 -59 8 8 38 350 32 357 -3 2 -7 -11 -10 -29z" />
        <path d="M3211 6258 c-6 -62 -15 -131 -18 -153 -3 -22 -2 -37 2 -33 10 9 44 298 35 298 -4 0 -12 -51 -19 -112z" />
        <path
            d="M2181 6283 c-21 -79 -30 -129 -30 -158 0 -16 9 10 19 59 10 48 20 90 23 92 2 2 17 -47 34 -109 31 -110 61 -193 68 -186 1 2 -12 49 -31 104 -18 55 -39 130 -46 168 -7 37 -16 67 -20 67 -4 0 -12 -17 -17 -37z" />
        <path
            d="M4620 6101 l0 -188 -47 -18 c-25 -10 -65 -37 -89 -60 -37 -37 -47 -59 -84 -174 -75 -234 -158 -376 -340 -581 -185 -209 -301 -400 -374 -620 -59 -177 -77 -283 -83 -490 -5 -160 -2 -202 16 -313 130 -760 738 -1330 1502 -1408 130 -13 335 -6 455 16 236 42 498 152 691 288 121 86 290 252 384 377 352 467 426 1115 190 1659 -80 183 -171 317 -375 548 -136 155 -224 313 -290 525 -43 136 -83 191 -166 227 l-50 22 0 99 c0 93 -1 100 -20 100 -19 0 -20 -7 -20 -100 l0 -100 -517 0 c-285 0 -569 3 -630 7 l-113 6 0 184 c0 176 -1 183 -20 183 -19 0 -20 -7 -20 -189z m1379 -241 c76 -35 106 -76 146 -207 73 -232 168 -395 349 -598 59 -66 139 -167 177 -223 85 -127 163 -284 154 -313 -4 -12 -2 -19 5 -17 15 4 53 -104 79 -225 58 -271 51 -528 -23 -801 -156 -571 -651 -1037 -1228 -1155 -386 -80 -738 -40 -1078 121 -468 221 -800 643 -912 1161 -19 88 -22 133 -22 322 0 191 3 233 22 322 64 292 191 546 380 759 232 260 308 385 388 639 47 151 90 201 189 226 17 4 323 7 680 8 629 1 651 0 694 -19z" />
        <path
            d="M7260 6170 c-35 -69 -33 -79 4 -18 l25 42 4 -69 c3 -69 3 -68 5 18 1 48 0 87 -3 87 -3 0 -18 -27 -35 -60z" />
        <path
            d="M6943 6127 c3 -8 8 -44 12 -80 4 -37 12 -70 17 -73 6 -4 8 1 5 12 -3 11 -9 49 -13 87 -3 37 -11 67 -16 67 -6 0 -8 -6 -5 -13z" />
        <path
            d="M2535 5878 c-93 -11 -95 -12 -95 -53 0 -47 13 -71 72 -126 l48 -45 0 33 c0 28 5 35 43 54 23 12 43 22 44 23 1 1 -8 29 -20 61 l-22 60 -70 -7z" />
        <path
            d="M2880 5855 c-5 -13 -12 -48 -16 -77 -4 -29 -10 -62 -14 -73 -5 -13 0 -34 12 -58 24 -48 21 -91 -8 -95 -14 -2 -25 6 -34 25 l-14 28 -4 -25 c-2 -13 -17 -39 -33 -58 -16 -18 -29 -39 -29 -46 0 -8 -10 -11 -29 -8 -20 3 -40 -3 -61 -18 -20 -14 -35 -19 -41 -13 -5 5 -18 47 -28 94 l-19 84 -1 -52 c-1 -46 -4 -53 -28 -65 -36 -17 -53 -52 -53 -110 0 -89 30 -118 122 -118 78 0 220 37 272 71 68 45 90 99 93 227 2 89 6 111 33 171 16 38 30 85 30 105 l0 36 -70 0 c-66 0 -71 -2 -80 -25z" />
        <path d="M7588 5863 c-129 -5 -109 -23 25 -23 128 0 217 9 217 21 0 9 -50 9 -242 2z" />
        <path
            d="M7505 5620 c-58 -115 -59 -225 -2 -277 22 -21 102 -57 206 -95 66 -23 108 -18 144 18 48 48 48 164 -1 212 l-26 27 -12 -46 c-17 -69 -20 -71 -62 -43 -22 15 -46 24 -60 21 -17 -3 -26 2 -36 22 -8 14 -23 35 -35 45 -12 11 -21 31 -21 45 l-1 26 -15 -28 c-11 -20 -22 -27 -37 -25 -31 4 -33 33 -7 88 17 36 20 52 12 66 -8 15 -16 6 -47 -56z" />
        <path d="M7179 4962 c-120 -64 -144 -81 -131 -94 10 -10 254 121 260 140 7 22 -22 12 -129 -46z" />
        <path d="M3240 4947 c0 -15 247 -140 261 -132 18 12 -2 26 -122 85 -125 63 -139 68 -139 47z" />
        <path d="M6938 4831 c-44 -24 -63 -51 -36 -51 17 0 98 49 98 60 0 19 -17 17 -62 -9z" />
        <path d="M3556 4803 c-14 -14 -3 -24 54 -53 66 -33 80 -36 80 -17 0 14 -124 79 -134 70z" />
        <path d="M7085 3860 c-11 -18 2 -23 65 -28 113 -8 121 21 8 32 -44 4 -69 3 -73 -4z" />
        <path d="M7280 3845 c0 -17 45 -23 184 -27 79 -2 110 0 113 9 6 17 -21 21 -169 27 -103 4 -128 2 -128 -9z" />
        <path d="M3343 3803 c-21 -3 -33 -10 -33 -19 0 -13 14 -14 93 -8 98 7 111 10 102 25 -6 9 -97 10 -162 2z" />
        <path d="M3061 3781 c-65 -7 -83 -31 -23 -31 97 0 192 13 192 26 0 15 -62 17 -169 5z" />
        <path d="M3698 2889 c-47 -31 -56 -43 -40 -53 12 -7 102 54 102 70 0 20 -9 18 -62 -17z" />
        <path d="M6950 2887 c0 -12 261 -177 280 -177 6 0 10 6 10 13 0 13 -261 177 -280 177 -6 0 -10 -6 -10 -13z" />
        <path d="M3475 2745 c-89 -58 -127 -96 -85 -87 28 6 200 125 200 138 0 8 -3 14 -7 14 -5 0 -53 -29 -108 -65z" />
        <path d="M6166 2322 c-2 -4 9 -30 25 -56 22 -34 34 -45 41 -38 8 8 3 24 -16 56 -26 44 -39 55 -50 38z" />
        <path d="M4404 2264 c-17 -39 -22 -60 -15 -67 6 -6 12 -9 14 -6 13 14 54 118 49 123 -13 14 -25 2 -48 -50z" />
        <path d="M5300 2055 c0 -104 2 -125 15 -125 13 0 15 21 15 125 0 104 -2 125 -15 125 -13 0 -15 -21 -15 -125z" />
        <path d="M6250 2168 c1 -21 134 -251 148 -256 23 -7 12 21 -55 145 -60 109 -94 149 -93 111z" />
        <path
            d="M4353 2138 c-6 -7 -38 -65 -72 -129 -55 -105 -63 -129 -40 -129 14 0 141 252 131 262 -5 5 -13 4 -19 -4z" />
        <path d="M5305 1879 c-10 -25 -1 -239 10 -242 14 -3 19 233 6 246 -7 7 -12 5 -16 -4z" />
    </g>
    <g id="layer102" fill="#424140" stroke="none">
        <path d="M7303 6170 c0 -36 2 -50 4 -32 2 17 2 47 0 65 -2 17 -4 3 -4 -33z" />
        <path d="M5088 5913 c156 -2 408 -2 560 0 152 1 25 2 -283 2 -308 0 -433 -1 -277 -2z" />
        <path d="M7588 5863 c18 -2 45 -2 60 0 15 2 0 4 -33 4 -33 0 -45 -2 -27 -4z" />
    </g>
    <g id="layer103" fill="#5c5a58" stroke="none">
    </g>
    <g id="layer104" fill="#8b796d" stroke="none">
        <path d="M5773 6970 c0 -41 2 -58 4 -37 2 20 2 54 0 75 -2 20 -4 3 -4 -38z" />
    </g>
    <g id="layer105" fill="#a48b75" stroke="none">
        <path d="M7348 9743 c17 -2 47 -2 65 0 17 2 3 4 -33 4 -36 0 -50 -2 -32 -4z" />
        <path d="M8088 9743 c17 -2 47 -2 65 0 17 2 3 4 -33 4 -36 0 -50 -2 -32 -4z" />
        <path d="M4718 5873 c34 -2 90 -2 125 0 34 2 6 3 -63 3 -69 0 -97 -1 -62 -3z" />
        <path d="M5118 5873 c94 -2 250 -2 345 0 94 1 17 3 -173 3 -190 0 -267 -2 -172 -3z" />
        <path d="M5813 5873 c20 -2 54 -2 75 0 20 2 3 4 -38 4 -41 0 -58 -2 -37 -4z" />
        <path d="M7558 5833 c18 -2 45 -2 60 0 15 2 0 4 -33 4 -33 0 -45 -2 -27 -4z" />
    </g>
    <g id="layer106" fill="#a4a2a0" stroke="none">
        <path d="M1422 9973 c164 -2 432 -2 595 0 164 1 30 2 -297 2 -327 0 -461 -1 -298 -2z" />
        <path d="M1318 9933 c101 -2 263 -2 360 0 97 1 15 2 -183 2 -198 0 -278 -1 -177 -2z" />
        <path d="M1908 9933 c18 -2 45 -2 60 0 15 2 0 4 -33 4 -33 0 -45 -2 -27 -4z" />
        <path d="M9483 9933 c75 -2 199 -2 275 0 75 1 13 3 -138 3 -151 0 -213 -2 -137 -3z" />
        <path d="M3593 3935 c0 -38 2 -53 4 -32 2 20 2 52 0 70 -2 17 -4 1 -4 -38z" />
        <path
            d="M5297 2183 c-10 -9 -9 -251 1 -256 4 -3 6 53 4 123 -3 117 -1 129 15 133 14 4 14 5 2 6 -9 0 -19 -2 -22 -6z" />
        <path d="M5334 2055 c0 -66 1 -92 3 -57 2 34 2 88 0 120 -2 31 -3 3 -3 -63z" />
        <path d="M5294 1760 c0 -69 1 -97 3 -62 2 34 2 90 0 125 -2 34 -3 6 -3 -63z" />
        <path d="M5334 1760 c0 -69 1 -97 3 -62 2 34 2 90 0 125 -2 34 -3 6 -3 -63z" />
    </g>
    <g id="layer107" fill="#f89b5f" stroke="none">
        <path
            d="M2268 9861 l-48 -26 0 -402 c0 -222 3 -403 8 -403 8 0 215 80 220 85 6 5 -120 759 -127 766 -3 3 -27 -6 -53 -20z" />
        <path
            d="M2987 9858 c-8 -29 0 -40 24 -33 15 5 19 1 19 -17 0 -17 -3 -19 -9 -9 -17 27 -38 3 -50 -56 -15 -78 -92 -706 -86 -711 2 -2 47 13 99 33 l96 37 0 294 0 294 -25 0 c-14 0 -25 5 -25 10 0 6 11 8 25 4 21 -5 25 -3 25 16 0 19 -2 20 -15 10 -9 -7 -19 -10 -23 -6 -4 4 2 15 13 24 12 10 21 32 23 54 3 34 1 38 -37 57 -49 26 -47 26 -54 -1z" />
        <path d="M7358 9859 c-35 -18 -38 -23 -38 -64 l0 -45 60 0 61 0 -7 38 c-18 97 -21 100 -76 71z" />
        <path d="M8074 9815 l-10 -65 58 0 58 0 0 45 c0 42 -2 46 -40 65 -21 11 -43 20 -48 20 -5 0 -13 -29 -18 -65z" />
        <path d="M1804 9683 c7 -87 30 -142 65 -160 56 -27 79 28 42 100 -24 48 -92 137 -105 137 -5 0 -6 -31 -2 -77z" />
        <path
            d="M6118 9723 c-65 -20 -118 -39 -118 -44 0 -4 21 -66 46 -136 64 -178 65 -183 49 -177 -13 6 -71 147 -101 250 l-18 60 -81 -24 c-44 -13 -83 -27 -87 -31 -11 -9 35 -204 83 -356 48 -150 99 -283 159 -410 25 -52 38 -91 32 -93 -7 -2 -3 -16 9 -37 14 -23 25 -32 36 -28 12 5 14 1 9 -15 -5 -15 6 -34 51 -82 31 -34 59 -57 61 -51 2 6 13 11 25 11 22 -1 22 -1 2 -16 -20 -15 -20 -16 9 -39 l29 -23 18 21 c14 17 20 19 30 10 10 -10 9 -14 -4 -19 -31 -12 -18 -41 16 -35 4 1 16 -6 25 -16 16 -16 17 -16 20 0 2 10 8 15 13 11 5 -3 7 -10 4 -15 -9 -14 25 -23 38 -10 8 8 7 11 -7 11 -9 0 -14 5 -11 10 13 21 35 10 36 -17 1 -18 3 -21 6 -10 2 9 9 15 14 11 5 -3 7 -10 4 -15 -4 -5 -1 -9 5 -9 6 0 10 6 8 13 -2 6 2 12 7 12 5 0 9 -6 7 -12 -2 -7 4 -13 13 -13 8 0 15 5 15 10 0 6 4 10 8 10 5 0 9 -16 10 -36 2 -47 40 -113 69 -120 99 -25 203 156 175 306 l-8 45 -39 -75 c-36 -69 -38 -80 -36 -149 3 -79 -14 -92 -25 -20 l-7 41 -26 -48 c-25 -45 -51 -68 -51 -45 0 6 20 47 45 92 32 58 40 79 27 74 -28 -11 -34 -11 -39 1 -2 6 15 19 37 29 28 13 48 31 61 56 10 21 19 41 19 44 0 10 -79 -35 -113 -65 l-34 -29 -28 29 c-15 16 -33 26 -39 23 -6 -3 -8 -3 -4 1 4 5 -25 45 -64 89 -126 147 -269 382 -339 559 l-20 51 53 -54 c117 -119 220 -162 385 -160 109 0 173 17 173 46 0 9 -51 69 -112 134 -62 65 -146 154 -186 197 -68 73 -145 187 -188 277 -10 20 -22 37 -28 36 -6 0 -64 -17 -128 -36z m72 -1058 c0 -28 -15 -33 -24 -8 -4 9 -1 20 6 25 18 11 18 11 18 -17z m224 -137 c-5 -7 0 -9 14 -6 17 5 19 3 13 -16 -5 -11 -16 -23 -26 -25 -12 -2 -16 2 -12 11 3 8 1 21 -3 28 -10 17 -3 33 11 24 5 -3 6 -10 3 -16z m190 -53 c-4 -10 0 -15 15 -15 12 0 21 -4 21 -9 0 -20 -19 -20 -41 -1 -21 17 -22 21 -9 30 20 13 20 13 14 -5z" />
        <path
            d="M1682 9705 c-82 -25 -131 -70 -132 -118 0 -59 65 -46 133 26 27 28 55 63 63 79 13 26 13 28 -3 27 -10 0 -37 -6 -61 -14z" />
        <path d="M9022 9634 l-44 -26 29 -19 c15 -10 33 -19 38 -19 31 0 52 47 33 73 -12 16 -16 15 -56 -9z" />
        <path
            d="M4630 9593 c-46 -61 -231 -242 -387 -382 -56 -49 -93 -90 -93 -101 0 -26 55 -40 160 -40 162 0 286 51 413 170 65 60 77 68 60 40 -11 -19 -33 -57 -49 -85 -15 -27 -49 -82 -76 -122 -26 -40 -48 -82 -48 -93 0 -13 -5 -20 -12 -18 -18 6 -89 -88 -82 -107 4 -10 0 -15 -13 -15 -24 0 -87 -76 -77 -92 5 -7 2 -9 -8 -5 -10 3 -29 -9 -54 -34 -21 -21 -33 -39 -26 -39 7 0 12 -5 12 -11 0 -6 -8 -8 -18 -5 -21 7 -61 -32 -54 -53 2 -7 -3 -11 -14 -9 -11 2 -23 -7 -31 -22 -7 -14 -19 -24 -26 -22 -15 2 -35 -16 -36 -33 -1 -5 -5 -10 -10 -10 -5 0 -13 -3 -17 -7 -4 -5 -2 -8 5 -8 7 0 10 -4 6 -10 -3 -5 -12 -7 -19 -4 -18 7 -32 -16 -16 -26 7 -4 10 -12 6 -18 -13 -22 120 -32 142 -10 9 9 12 9 12 -1 0 -10 10 -11 37 -6 21 4 42 10 48 13 5 4 17 7 25 9 8 1 16 7 18 13 2 5 8 8 13 5 5 -4 18 3 30 14 12 11 26 18 31 15 15 -9 108 65 108 86 0 6 5 8 10 5 19 -12 165 154 166 188 1 13 21 55 46 93 71 109 132 218 202 364 51 107 136 302 136 315 0 1 -28 5 -62 8 -35 3 -77 9 -95 13 -31 6 -32 5 -72 -72 -45 -91 -67 -122 -76 -112 -4 4 16 49 44 100 l50 94 -124 42 c-69 23 -128 42 -132 42 -5 0 -28 -26 -53 -57z m-83 -777 c-4 -11 -1 -13 10 -9 11 4 14 2 11 -8 -2 -8 -14 -15 -26 -17 -16 -3 -22 2 -22 16 0 20 8 32 23 32 5 0 7 -7 4 -14z m-16 -100 c-14 -16 -51 -28 -51 -16 0 11 30 29 49 30 10 0 11 -3 2 -14z m-51 -76 c-11 -11 -22 -20 -24 -20 -3 0 -4 9 -3 20 1 14 8 20 24 20 l23 0 -20 -20z" />
        <path
            d="M5718 9603 c-10 -2 -18 -8 -19 -11 0 -4 -2 -18 -4 -32 -1 -14 -6 -81 -10 -150 -7 -128 -9 -153 -21 -325 -4 -55 -7 -105 -7 -112 0 -14 -27 -5 -27 9 0 16 29 467 35 539 l5 66 -88 -18 c-48 -10 -99 -18 -114 -19 -15 0 -30 -4 -33 -10 -3 -5 -13 -108 -21 -227 -15 -230 -19 -252 -34 -237 -6 6 -4 85 5 209 21 283 24 259 -30 252 -26 -2 -48 -6 -50 -9 -2 -2 -14 -125 -27 -272 -13 -160 -28 -274 -34 -281 -7 -6 -14 -20 -17 -31 -3 -10 -4 4 -2 31 3 28 7 82 10 120 3 39 8 90 10 115 2 25 6 79 10 120 11 142 15 183 21 192 3 5 -16 8 -46 6 l-52 -3 -69 -160 c-39 -88 -76 -176 -84 -195 -19 -48 -88 -447 -81 -466 3 -8 2 -13 -2 -10 -7 4 -82 -383 -88 -454 -1 -14 -8 -41 -17 -61 -26 -62 -50 -357 -45 -551 4 -148 8 -181 27 -230 34 -88 77 -106 121 -51 23 29 41 91 75 250 37 172 115 639 115 682 -1 31 4 76 10 91 1 3 3 10 5 15 1 6 3 12 4 15 3 7 10 40 15 75 2 17 8 49 11 73 6 32 4 42 -6 42 -9 0 -9 3 3 13 18 15 44 170 28 175 -16 6 -12 22 5 22 15 0 20 -52 17 -165 0 -22 2 -32 4 -22 6 19 13 21 34 7 13 -9 13 -11 0 -20 -8 -5 -15 -15 -15 -22 -1 -7 -6 -12 -13 -11 -16 4 -16 -74 1 -80 9 -4 9 -8 1 -14 -12 -8 -16 -64 -5 -60 3 1 6 -2 6 -8 0 -5 -3 -9 -8 -7 -8 2 2 -50 12 -58 3 -3 12 -15 18 -27 13 -23 2 -40 -17 -28 -6 3 -10 -5 -10 -19 0 -18 4 -24 15 -20 10 4 15 0 15 -11 0 -12 -5 -15 -16 -11 -15 6 -16 0 -9 -46 4 -29 7 -70 7 -90 -1 -21 3 -38 9 -38 6 0 7 -5 3 -12 -4 -7 -3 -8 4 -4 7 4 12 16 12 27 0 24 11 24 33 -1 21 -25 22 -41 2 -34 -8 4 -15 13 -15 22 0 20 -11 9 -15 -15 -1 -10 -8 -17 -14 -16 -6 2 -11 -6 -11 -17 0 -13 5 -18 15 -14 8 4 15 2 15 -4 0 -6 -5 -12 -11 -14 -16 -5 8 -78 24 -75 6 1 11 -5 12 -13 0 -13 29 -26 63 -29 6 -1 12 10 12 24 0 14 5 25 11 25 6 0 8 -9 4 -20 -8 -25 0 -25 24 -2 27 25 53 82 48 103 -3 10 1 20 8 23 19 7 102 382 91 412 -3 8 -2 14 3 14 7 0 58 282 63 356 1 16 5 -193 8 -464 4 -400 8 -494 19 -501 9 -6 10 -11 2 -15 -6 -4 -11 -25 -11 -46 0 -33 3 -38 18 -34 16 5 16 5 0 -8 -15 -13 -16 -16 -2 -30 14 -14 14 -17 -1 -32 -23 -23 -16 -72 10 -69 20 2 35 -12 35 -33 0 -6 -7 -11 -15 -11 -8 0 -12 4 -10 8 3 4 -2 9 -10 13 -19 7 -21 -44 -3 -62 10 -10 10 -15 -2 -22 -13 -9 -13 -11 0 -20 8 -5 19 -11 24 -13 5 -2 6 -9 2 -16 -7 -11 -10 -11 -17 0 -6 10 -9 7 -8 -11 1 -35 11 -55 29 -55 8 0 16 -8 18 -19 3 -13 0 -16 -9 -11 -7 5 -10 4 -6 -2 17 -27 51 -22 84 13 33 36 41 54 23 54 -5 0 -10 7 -10 16 0 10 6 14 15 10 21 -8 42 33 24 45 -11 7 -11 9 -1 9 18 0 31 39 52 164 32 189 43 403 31 614 -6 103 -13 331 -16 507 -3 176 -8 340 -11 365 -3 24 -25 112 -49 195 -23 82 -48 180 -56 218 -13 70 -18 74 -71 60z m-418 -1064 c0 -6 6 -9 13 -6 53 22 52 22 29 -1 -26 -26 -29 -26 -48 -8 -16 17 -18 26 -4 26 6 0 10 -5 10 -11z m-14 -55 c-5 -14 -4 -15 9 -4 9 7 18 10 22 6 9 -9 1 -14 -29 -20 -32 -5 -42 2 -27 21 16 18 32 16 25 -3z m44 -186 c0 -5 -4 -7 -9 -4 -5 3 -12 -1 -15 -10 -7 -17 -26 -10 -26 10 0 8 11 14 25 14 14 0 25 -5 25 -10z m87 -75 c-4 -3 -1 -13 5 -20 10 -12 8 -14 -8 -11 -25 4 -36 20 -21 30 15 9 33 10 24 1z m-135 -41 c-6 -2 -8 -10 -5 -18 3 -8 0 -14 -6 -14 -6 0 -11 5 -11 11 0 5 -4 7 -10 4 -6 -3 -7 1 -4 9 3 9 10 16 15 16 5 0 9 8 9 18 1 15 2 15 12 -2 8 -15 8 -21 0 -24z m78 -43 c0 -6 9 -9 20 -6 23 6 26 -3 8 -21 -16 -16 -28 -15 -28 3 0 8 -4 15 -10 15 -5 0 -10 -5 -10 -12 0 -6 -2 -9 -5 -6 -8 7 5 38 16 38 5 0 9 -5 9 -11z m-5 -189 c0 -3 4 -10 8 -16 4 -7 -3 -14 -18 -16 -14 -3 -25 -1 -25 4 0 6 -6 8 -13 5 -13 -5 -39 17 -31 26 8 7 44 -4 44 -14 0 -5 4 -9 9 -9 6 0 9 9 8 19 0 11 -6 17 -14 14 -7 -3 -13 -1 -13 5 0 28 43 11 45 -18z" />
        <path
            d="M1724 9565 c-10 -41 1 -157 19 -191 17 -33 67 -60 92 -50 27 10 17 69 -25 153 -22 44 -48 87 -59 97 -19 18 -20 17 -27 -9z" />
        <path d="M8883 9552 c-24 -11 -36 -28 -52 -69 -46 -119 -35 -170 29 -143 47 19 61 57 58 149 l-3 78 -32 -15z" />
        <path d="M9002 9482 c-28 -19 111 -108 153 -98 42 11 44 59 3 85 -26 16 -138 26 -156 13z" />
        <path d="M1513 9441 c-44 -21 -62 -53 -43 -76 15 -18 53 -19 83 -4 26 14 97 80 97 91 0 15 -95 7 -137 -11z" />
        <path d="M8958 9372 c-84 -127 -98 -218 -31 -210 47 6 67 47 71 153 3 59 1 95 -5 95 -6 0 -22 -17 -35 -38z" />
        <path d="M1655 9318 c12 -120 54 -189 105 -173 25 8 27 62 4 108 -23 44 -94 137 -106 137 -6 0 -7 -27 -3 -72z" />
        <path d="M9080 9306 c0 -15 67 -74 107 -95 62 -32 121 4 89 54 -17 26 -56 39 -143 49 -43 5 -53 4 -53 -8z" />
        <path d="M1456 9264 c-74 -27 -95 -64 -57 -98 29 -27 76 -7 141 59 l54 55 -49 -1 c-28 0 -68 -7 -89 -15z" />
        <path d="M9021 9171 c-52 -109 -63 -174 -34 -189 28 -15 64 6 85 48 21 41 24 160 5 204 l-12 29 -44 -92z" />
        <path
            d="M1586 9198 c-9 -36 -7 -105 5 -154 13 -50 60 -97 93 -92 28 4 33 56 11 111 -18 46 -86 157 -96 157 -4 0 -9 -10 -13 -22z" />
        <path d="M9150 9133 c0 -11 105 -114 140 -137 47 -31 80 -17 80 34 0 25 -63 77 -107 89 -68 18 -113 23 -113 14z" />
        <path
            d="M1432 9081 c-84 -29 -135 -89 -112 -132 14 -24 34 -24 75 1 33 20 125 124 125 141 0 14 -29 10 -88 -10z" />
        <path
            d="M9128 9059 c-31 -48 -68 -129 -77 -170 -13 -59 0 -89 39 -89 50 0 70 45 69 155 0 50 -4 98 -8 109 -7 17 -8 17 -23 -5z" />
        <path
            d="M1525 9007 c-10 -52 10 -175 33 -206 14 -19 28 -26 53 -26 32 0 34 2 37 39 4 44 -38 138 -87 196 l-29 35 -7 -38z" />
        <path d="M9237 8931 c79 -122 171 -173 209 -116 34 52 -16 96 -147 129 -85 21 -84 21 -62 -13z" />
        <path d="M1388 8896 c-134 -47 -174 -92 -127 -142 40 -42 88 -16 166 88 52 71 43 83 -39 54z" />
        <path
            d="M9211 8799 c-35 -47 -71 -131 -71 -165 0 -33 26 -64 53 -64 34 0 51 48 55 157 3 59 0 103 -5 103 -5 0 -19 -14 -32 -31z" />
        <path d="M1454 8777 c-3 -10 -1 -57 5 -105 15 -117 49 -163 96 -128 40 29 12 125 -60 211 -29 34 -35 37 -41 22z" />
        <path d="M7090 8725 c30 -31 40 -35 87 -35 45 0 53 3 53 19 0 19 -37 32 -134 45 l-39 5 33 -34z" />
        <path
            d="M9307 8728 c4 -12 32 -49 64 -81 61 -63 89 -71 116 -31 12 19 11 25 -13 54 -28 32 -83 62 -141 74 -29 7 -31 6 -26 -16z" />
        <path
            d="M7046 8703 c21 -89 69 -164 132 -204 52 -33 62 -35 62 -14 0 8 -5 14 -11 13 -6 -2 -21 24 -33 58 -18 52 -31 69 -89 118 -63 54 -67 55 -61 29z" />
        <path d="M1323 8674 c-53 -25 -103 -74 -103 -99 0 -20 39 -45 59 -38 26 10 62 45 92 92 49 76 38 87 -48 45z" />
        <path
            d="M2126 8654 c-60 -13 -112 -27 -115 -32 -3 -4 -19 -8 -36 -8 -16 1 -50 -3 -73 -7 -34 -6 -43 -11 -38 -23 3 -9 6 -28 6 -43 0 -19 7 -31 23 -39 17 -8 18 -11 5 -11 -18 -1 -18 -25 -3 -98 5 -23 25 -33 25 -13 0 6 5 10 11 10 6 0 1 -13 -11 -30 -17 -24 -19 -33 -10 -50 6 -11 15 -18 20 -15 5 3 12 0 15 -6 4 -6 -2 -13 -14 -16 -11 -3 -18 -10 -14 -16 3 -5 8 -26 10 -46 4 -43 10 -101 17 -155 3 -26 13 -46 32 -62 29 -26 28 -42 -3 -26 -18 10 -18 6 2 -128 11 -76 24 -142 29 -147 5 -4 6 -3 2 4 -3 6 -2 14 4 18 6 4 8 11 5 16 -4 5 5 9 19 9 14 0 26 -4 26 -10 0 -5 -8 -10 -17 -10 -10 0 -24 -12 -30 -27 -16 -34 -16 -53 -1 -53 6 0 8 -3 5 -7 -4 -3 0 -15 10 -25 15 -17 15 -18 0 -18 -18 0 -22 -11 -10 -24 4 -3 7 -21 7 -39 1 -20 6 -31 14 -30 16 4 16 -9 0 -25 -10 -10 -10 -15 1 -21 8 -5 10 -14 6 -21 -4 -7 -2 -16 6 -21 12 -8 12 -10 0 -18 -11 -7 -11 -14 2 -40 9 -17 11 -29 6 -26 -5 4 -9 -1 -9 -9 0 -10 6 -13 15 -10 18 7 21 -21 4 -32 -8 -4 -7 -9 2 -15 8 -5 9 -9 4 -9 -15 0 -5 -81 11 -87 10 -4 10 -9 2 -23 -12 -19 -4 -55 11 -46 5 3 12 -1 15 -10 9 -23 8 -24 -11 -17 -14 5 -15 1 -9 -27 3 -19 12 -38 19 -42 9 -6 9 -10 -3 -17 -8 -6 -11 -13 -7 -18 5 -4 12 -1 17 7 5 8 12 11 16 7 4 -4 -1 -16 -10 -26 -12 -14 -16 -29 -12 -48 3 -15 8 -46 12 -68 10 -71 13 -87 19 -93 3 -3 5 2 5 10 0 9 11 18 24 20 17 4 23 1 19 -9 -3 -7 -11 -13 -19 -13 -8 0 -14 -6 -14 -14 0 -8 -6 -16 -12 -19 -10 -3 -10 -9 -1 -25 6 -11 9 -29 6 -41 -3 -12 -2 -21 3 -20 20 3 28 -2 15 -10 -12 -8 -12 -24 3 -113 9 -56 19 -114 20 -128 6 -41 74 -294 91 -338 9 -22 15 -49 13 -59 -7 -30 -35 34 -72 164 l-34 116 -12 -74 c-15 -93 -17 -99 -30 -99 -15 0 -12 45 9 133 10 42 16 77 13 77 -4 0 -388 -216 -400 -226 -2 -1 49 -106 112 -233 l116 -231 111 84 c60 46 136 98 167 114 74 39 197 73 274 75 l61 2 23 -63 24 -62 -45 -22 c-24 -12 -47 -28 -50 -37 -6 -16 32 -229 45 -250 6 -11 14 -10 38 8 17 11 41 21 54 21 30 0 88 69 88 104 0 33 23 34 38 1 6 -14 18 -25 27 -25 20 0 19 40 -2 84 -16 34 -15 41 4 138 l21 103 -27 23 c-70 63 -149 75 -205 31 -17 -13 -26 -16 -26 -8 0 23 -121 914 -127 929 -2 8 -6 35 -8 60 -3 37 0 46 13 46 9 0 111 22 225 49 114 26 210 46 212 43 3 -3 -6 -265 -20 -583 -14 -318 -24 -579 -23 -580 2 -2 66 -8 144 -15 121 -10 145 -10 175 3 19 8 129 105 245 215 l212 200 -111 142 -110 142 -101 -102 -102 -101 -17 -152 c-16 -138 -27 -183 -40 -160 -6 10 28 297 37 311 5 9 46 351 46 388 0 22 -17 16 -25 -8 -4 -17 -8 -19 -12 -9 -3 9 5 23 20 35 23 19 26 29 30 103 3 46 1 80 -4 77 -5 -3 -9 2 -9 10 0 9 6 13 13 10 8 -3 14 2 14 11 0 8 -7 15 -14 15 -8 0 -11 5 -8 10 4 6 10 8 14 5 8 -5 21 50 21 92 0 20 -3 21 -26 13 -20 -8 -25 -7 -21 2 2 7 9 12 15 11 5 -1 13 9 16 23 4 14 10 22 15 19 5 -2 11 14 13 38 3 28 0 45 -9 50 -7 4 -13 13 -13 20 0 7 4 6 10 -3 8 -13 10 -13 14 0 10 28 13 90 5 90 -5 0 -9 5 -9 11 0 5 5 7 11 3 7 -4 9 0 5 14 -4 11 -2 23 4 27 17 10 11 32 -10 38 -11 3 -20 1 -20 -5 0 -5 -4 -6 -10 -3 -14 9 -13 -8 2 -23 9 -9 9 -12 0 -12 -6 0 -16 9 -22 19 -8 16 -6 21 10 26 11 3 20 11 20 17 0 6 9 8 20 5 11 -3 20 -1 20 4 0 5 -4 9 -10 9 -5 0 -10 10 -10 22 0 21 0 21 15 2 13 -18 14 -16 15 28 0 26 -5 50 -10 53 -6 4 -8 11 -4 16 3 5 10 7 15 4 5 -4 9 3 9 14 0 12 -5 21 -11 21 -6 0 -3 8 6 17 13 12 16 27 12 56 -3 22 0 48 6 60 9 15 9 21 0 24 -7 3 -13 11 -13 19 0 9 4 13 9 10 5 -3 11 7 14 22 3 15 1 29 -4 30 -5 2 -17 11 -26 20 -15 16 -15 17 2 20 9 2 22 -2 27 -10 6 -9 8 -6 6 12 -2 14 -9 24 -15 23 -10 -2 -10 3 -1 22 6 13 15 22 19 19 17 -10 9 39 -8 53 -17 13 -16 14 3 8 20 -5 22 -1 28 77 4 46 10 94 13 107 4 17 2 22 -6 17 -15 -10 -14 17 1 32 9 9 9 15 0 24 -17 17 -15 31 3 24 12 -4 15 3 15 29 0 18 -5 37 -10 40 -6 4 -8 11 -4 16 3 5 10 7 15 4 5 -4 9 8 9 24 0 17 -4 31 -10 31 -5 0 -10 7 -10 16 0 8 -4 12 -10 9 -5 -3 -10 -1 -10 4 0 14 13 14 27 0 8 -8 13 -7 18 1 4 7 1 16 -6 21 -12 8 -12 10 0 18 11 7 6 11 -20 15 -38 6 -169 23 -239 31 -25 2 -76 9 -113 16 -38 6 -71 8 -74 5 -5 -5 -62 -1228 -63 -1352 l0 -51 -143 -6 c-78 -3 -188 -13 -245 -23 -56 -9 -105 -14 -108 -12 -2 3 -25 158 -50 344 -25 186 -48 346 -51 354 -4 8 -5 19 -4 24 1 4 -21 174 -49 376 -27 202 -50 373 -50 379 0 13 8 14 -124 -15z m1239 -294 c4 -6 8 -29 10 -53 4 -34 2 -39 -8 -26 -7 9 -17 14 -24 12 -6 -2 -14 1 -18 6 -3 7 3 11 14 11 25 0 27 22 5 44 -13 14 -14 16 0 16 8 0 18 -5 21 -10z m-1323 -94 c12 -17 9 -43 -5 -49 -10 -4 -12 3 -9 24 4 24 1 29 -17 29 -12 0 -20 4 -16 10 6 10 36 2 47 -14z m1333 -61 c-3 -29 -12 -42 -22 -31 -4 4 -1 11 7 17 13 7 13 10 1 18 -7 5 -10 14 -7 20 12 18 24 3 21 -24z m-1321 -372 c-4 -15 -7 -33 -7 -40 0 -16 -23 -17 -33 -2 -4 7 1 16 10 21 9 5 16 18 16 28 0 11 5 20 10 20 6 0 8 -11 4 -27z m119 -524 c-4 -14 0 -27 12 -35 11 -8 15 -19 11 -30 -7 -19 -21 -11 -21 14 0 10 -7 16 -17 16 -22 -2 -23 19 -2 40 21 21 23 20 17 -5z m768 -113 c2 -2 3 -31 1 -63 l-4 -59 -191 -18 c-106 -9 -211 -19 -234 -23 -41 -5 -43 -4 -43 20 0 14 -4 28 -8 31 -14 9 -1 65 17 70 96 28 444 59 462 42z m-691 -96 c0 -5 -9 -10 -19 -10 -11 0 -21 -6 -24 -12 -2 -7 -8 -10 -12 -5 -9 8 23 36 43 37 6 0 12 -4 12 -10z m965 -170 c18 -34 19 -48 4 -33 -6 6 -19 9 -28 6 -12 -4 -13 -3 -2 5 8 6 11 18 6 31 -9 31 2 26 20 -9z m-31 -69 c3 -4 1 -13 -5 -21 -6 -10 -9 -11 -9 -2 0 6 -9 12 -21 12 -11 0 -18 4 -15 8 6 10 44 13 50 3z m-904 -133 c0 -10 -4 -18 -10 -18 -5 0 -10 6 -10 14 0 8 -12 17 -27 21 -20 5 -23 9 -13 15 19 12 60 -10 60 -32z m-80 -32 c0 -7 -7 -19 -15 -26 -12 -10 -15 -9 -15 7 0 11 3 23 7 26 11 12 23 8 23 -7z m495 -1018 c14 -21 14 -23 -2 -30 -36 -14 -73 -9 -73 10 0 43 49 56 75 20z m-45 -68 l-25 -20 30 -25 c16 -13 26 -27 23 -30 -3 -4 -21 7 -40 24 l-33 31 24 20 c13 11 28 20 35 20 6 0 0 -9 -14 -20z" />
        <path d="M7170 8657 c0 -2 14 -13 30 -25 l30 -23 0 26 c0 21 -5 25 -30 25 -16 0 -30 -1 -30 -3z" />
        <path
            d="M9277 8573 c-49 -67 -77 -130 -77 -175 0 -31 4 -39 24 -44 32 -8 62 10 81 46 19 36 30 166 18 199 -9 23 -10 22 -46 -26z" />
        <path d="M1395 8550 c-9 -35 12 -159 34 -195 32 -55 101 -59 109 -6 5 32 -40 118 -92 176 -43 49 -44 50 -51 25z" />
        <path
            d="M9390 8491 c11 -23 43 -65 69 -92 40 -41 54 -50 77 -47 24 2 30 8 32 34 5 55 -65 113 -171 139 l-29 8 22 -42z" />
        <path
            d="M1283 8454 c-56 -27 -123 -93 -123 -122 0 -11 9 -27 19 -36 17 -16 22 -16 48 -3 50 26 151 188 116 187 -5 -1 -31 -12 -60 -26z" />
        <path
            d="M9326 8365 c-46 -55 -79 -129 -71 -155 4 -13 15 -20 31 -20 53 0 84 36 98 113 7 40 -1 107 -14 107 -4 0 -24 -20 -44 -45z" />
        <path d="M1354 8336 c-15 -63 23 -162 72 -182 109 -45 84 74 -39 185 l-26 24 -7 -27z" />
        <path d="M9420 8339 c0 -14 56 -97 93 -136 32 -34 64 -42 85 -21 34 34 -11 94 -103 138 -70 33 -75 35 -75 19z" />
        <path
            d="M1264 8270 c-58 -33 -110 -81 -119 -110 -8 -27 12 -60 36 -60 12 0 33 13 48 29 31 33 94 147 89 161 -2 5 -26 -4 -54 -20z" />
        <path
            d="M6924 8202 c-85 -62 -135 -148 -136 -233 0 -72 21 -99 76 -99 48 0 96 27 130 73 18 24 21 43 21 120 0 51 -4 106 -9 122 l-8 30 -18 -40 c-18 -43 -20 -36 27 -152 3 -7 -2 -13 -10 -13 -9 0 -21 16 -28 35 -7 19 -16 35 -20 35 -4 0 -21 -41 -39 -90 -18 -50 -37 -93 -42 -96 -21 -13 -19 9 6 76 l26 70 -40 -20 c-44 -22 -60 -25 -60 -10 0 6 25 23 56 38 54 26 57 30 85 101 15 41 27 76 25 78 -1 2 -21 -10 -42 -25z" />
        <path d="M9371 8193 c-82 -100 -94 -193 -23 -193 29 0 50 46 61 138 12 91 2 104 -38 55z" />
        <path d="M9437 8193 c-8 -13 8 -113 29 -180 22 -68 67 -123 103 -123 90 0 58 118 -67 252 -33 34 -61 57 -65 51z" />
        <path d="M1340 8144 c0 -49 23 -137 44 -170 30 -44 76 -25 76 31 0 35 -41 103 -89 149 l-31 30 0 -40z" />
        <path
            d="M1255 8083 c-53 -68 -105 -166 -105 -200 0 -26 32 -63 56 -63 27 0 73 59 89 113 21 70 31 192 17 201 -6 4 -31 -18 -57 -51z" />
        <path
            d="M7240 7995 c0 -75 4 -99 24 -140 21 -41 24 -45 21 -20 -2 17 -7 70 -10 119 -3 53 -11 96 -20 109 -14 20 -15 14 -15 -68z" />
        <path
            d="M7066 7649 c-129 -68 -208 -238 -141 -304 26 -27 51 -30 104 -15 80 23 121 104 121 239 l-1 76 -20 -38 c-18 -33 -19 -44 -9 -97 6 -33 8 -65 5 -70 -11 -17 -25 0 -25 28 0 60 -16 52 -64 -33 -26 -47 -50 -85 -55 -85 -20 0 -17 16 14 68 18 32 32 59 30 60 -2 2 -20 -1 -40 -8 -25 -8 -40 -9 -47 -2 -12 12 -6 16 63 36 55 15 56 16 87 84 44 94 43 95 -22 61z" />
        <path
            d="M3979 6208 c-19 -52 -21 -63 -8 -70 8 -5 48 -29 90 -53 67 -39 77 -49 83 -79 7 -39 37 -63 81 -64 17 0 37 -2 45 -4 16 -3 22 23 21 87 -1 107 -17 125 -110 125 -45 0 -53 4 -113 60 l-66 60 -23 -62z" />
        <path
            d="M8590 6130 c-25 -16 -49 -31 -54 -33 -5 -2 14 -43 43 -92 49 -83 52 -92 46 -136 -7 -49 6 -89 27 -89 7 0 22 -10 34 -21 l23 -21 24 28 c14 16 33 44 42 64 10 19 22 43 27 54 8 15 2 26 -28 57 -21 22 -44 39 -50 39 -21 0 -42 39 -61 112 -10 37 -20 68 -23 67 -3 0 -25 -13 -50 -29z" />
        <path d="M4780 5957 c-99 -36 -92 -36 533 -37 l607 0 0 25 0 25 -552 0 c-418 -1 -562 -4 -588 -13z" />
        <path
            d="M5960 5935 c0 -16 6 -25 15 -25 9 0 29 -7 45 -15 27 -14 30 -14 30 0 0 8 4 15 9 15 15 0 23 -18 11 -25 -17 -11 0 -26 22 -19 15 4 19 2 16 -13 -1 -10 7 -32 20 -47 12 -16 22 -24 22 -17 0 6 5 11 10 11 12 0 13 -27 1 -32 -4 -1 4 -41 19 -88 16 -47 28 -79 29 -72 2 19 19 14 26 -7 3 -11 19 -24 35 -30 17 -5 30 -15 30 -21 0 -7 -5 -8 -12 -3 -7 4 -22 8 -33 8 -11 0 -20 6 -20 14 0 8 -6 16 -12 19 -17 5 -16 -5 6 -52 10 -23 24 -56 31 -74 8 -20 18 -31 26 -28 18 7 30 -14 14 -24 -10 -6 -6 -19 16 -53 15 -25 32 -43 38 -40 5 3 6 1 2 -5 -9 -14 15 -52 32 -52 8 0 12 -6 9 -14 -7 -17 33 -55 51 -49 6 3 12 0 12 -7 0 -6 -4 -8 -10 -5 -5 3 -10 3 -10 0 0 -8 32 -40 39 -40 3 0 5 -4 3 -9 -2 -5 9 -22 24 -37 20 -21 30 -26 35 -17 7 10 11 10 21 -1 10 -11 10 -14 0 -18 -13 -5 -9 -12 63 -96 27 -32 48 -47 65 -48 14 0 19 -3 13 -6 -22 -8 -15 -25 50 -134 41 -70 67 -104 76 -101 10 3 12 0 7 -13 -7 -20 11 -85 23 -85 5 0 7 11 6 25 -2 16 2 25 11 25 18 0 18 -34 0 -49 -15 -12 -11 -47 6 -57 6 -4 8 2 3 15 -5 15 -2 21 9 21 18 0 21 -22 7 -49 -12 -22 -3 -63 12 -54 7 4 8 0 3 -12 -3 -10 -2 -33 5 -52 8 -26 15 -32 29 -28 27 9 34 -11 10 -28 -16 -11 -19 -21 -14 -41 3 -15 13 -26 23 -26 12 0 13 -2 3 -9 -11 -6 -12 -23 -7 -67 4 -33 11 -67 15 -78 6 -17 8 -17 22 -3 17 18 30 13 21 -9 -3 -8 -14 -14 -24 -14 -15 0 -19 -7 -19 -35 0 -24 5 -35 15 -35 8 0 15 -4 15 -10 0 -5 -4 -10 -10 -10 -5 0 -10 -14 -10 -31 0 -22 5 -32 20 -36 11 -3 17 -9 14 -14 -3 -5 -9 -7 -14 -4 -15 9 -20 -12 -25 -102 -2 -53 0 -93 7 -100 8 -10 7 -13 -4 -13 -7 0 -14 -8 -14 -17 -2 -42 -49 -224 -81 -316 -54 -156 -142 -321 -241 -452 -63 -82 -223 -246 -302 -308 -88 -69 -93 -75 -35 -42 152 87 320 232 447 385 87 105 195 280 190 308 -2 6 1 12 6 12 10 0 51 86 77 159 8 23 10 41 5 41 -6 0 -10 5 -10 10 0 6 6 10 13 10 16 0 39 83 30 106 -4 12 -3 15 5 10 7 -4 12 -1 12 9 0 9 -4 14 -9 10 -5 -3 -12 -1 -15 4 -9 14 4 41 19 41 7 0 16 7 19 16 9 25 7 64 -4 64 -5 0 -10 5 -10 10 0 6 7 10 15 10 10 0 15 10 15 30 0 29 -14 37 -52 31 -12 -2 -9 14 4 27 7 7 22 12 33 12 19 0 22 6 24 49 1 40 -2 49 -15 47 -9 0 -19 5 -22 13 -3 10 1 12 17 8 16 -4 21 -1 21 13 0 10 -6 21 -12 24 -10 5 -10 7 0 12 17 8 16 45 -2 38 -17 -7 -27 19 -14 37 7 11 8 9 3 -6 -4 -15 -3 -17 5 -9 11 11 15 38 12 90 -2 24 -7 31 -19 30 -10 0 -20 -4 -23 -8 -9 -12 -50 3 -50 18 0 17 17 18 23 2 3 -7 6 -2 6 11 1 23 2 23 19 8 20 -19 47 -23 37 -7 -4 6 -10 8 -15 5 -5 -3 -11 -1 -15 4 -3 5 3 15 12 21 13 8 14 13 6 16 -8 3 -11 15 -8 27 3 12 -6 60 -19 107 -18 62 -24 76 -25 53 -1 -18 -6 -33 -12 -33 -6 0 -9 7 -5 15 3 8 1 15 -4 15 -5 0 -6 7 -3 17 4 11 3 14 -5 9 -19 -12 -52 4 -52 24 0 17 2 18 28 4 32 -16 52 -18 52 -4 0 6 -7 10 -15 10 -8 0 -15 5 -15 10 0 6 4 10 9 10 5 0 2 18 -6 40 -13 32 -20 39 -35 34 -10 -3 -18 -1 -18 5 0 6 -7 11 -15 11 -17 0 -19 9 -6 29 7 11 10 10 18 -4 8 -14 11 -14 15 -3 3 7 -4 32 -16 54 -21 39 -23 40 -44 26 -19 -13 -22 -13 -22 0 0 8 10 20 23 26 21 11 20 11 -6 5 -23 -4 -29 -2 -34 16 -3 11 -9 19 -13 16 -17 -10 -19 13 -3 26 13 11 17 11 20 2 3 -7 9 -13 13 -13 5 0 0 16 -12 36 -12 21 -26 33 -34 30 -17 -6 -36 27 -28 48 7 17 -43 69 -58 60 -16 -10 -54 42 -49 69 2 13 -26 37 -42 37 -10 0 -14 8 -13 25 2 16 -6 32 -22 47 -14 13 -22 17 -18 11 4 -7 2 -13 -3 -13 -6 0 -11 4 -11 9 0 5 -10 12 -22 16 -20 6 -20 8 -5 12 23 6 21 12 -13 53 -22 24 -30 29 -30 17 0 -26 -20 -21 -21 6 -1 12 -1 28 0 35 1 6 -3 12 -9 12 -6 0 -8 5 -5 10 3 6 -1 13 -9 16 -9 3 -16 15 -16 26 0 17 -5 19 -25 14 -15 -4 -25 -2 -25 4 0 6 -5 8 -10 5 -11 -7 -40 18 -40 34 0 6 7 11 15 11 8 0 15 -5 15 -12 0 -6 3 -8 7 -5 3 4 15 -1 26 -10 24 -21 22 -16 -23 76 -27 56 -38 70 -52 65 -20 -6 -26 20 -8 31 6 4 8 16 4 28 -9 31 -11 31 -29 13 -19 -19 -39 -21 -32 -3 2 6 10 11 16 10 6 -2 11 4 11 12 0 8 6 15 13 16 6 1 1 4 -12 8 -14 4 -27 13 -29 20 -3 10 1 12 15 9 17 -5 20 -2 15 16 -2 11 -14 29 -26 38 -17 14 -18 20 -7 27 9 6 11 14 4 26 -9 14 -11 15 -16 2 -3 -10 -14 -13 -31 -10 -37 7 -32 29 6 25 3 -1 9 5 12 13 7 18 -42 77 -56 68 -6 -3 -17 2 -24 11 -14 20 -34 14 -34 -10 0 -8 -5 -14 -11 -14 -5 0 -9 8 -8 18 3 37 -1 39 -91 41 -90 1 -90 1 -90 -24z m288 -141 c25 -17 21 -34 -10 -34 -14 0 -18 5 -14 15 3 9 0 15 -10 15 -8 0 -12 5 -9 10 8 14 17 13 43 -6z m-37 -44 c5 0 9 -4 9 -10 0 -5 -9 -10 -20 -10 -13 0 -20 7 -20 18 0 25 14 38 18 18 2 -9 8 -16 13 -16z m259 -380 c0 -9 -31 -30 -44 -30 -12 0 -6 28 7 33 20 9 37 8 37 -3z m178 -361 c0 -19 -4 -29 -11 -26 -7 2 -11 11 -9 20 2 11 -3 14 -18 10 -11 -3 -20 -1 -20 5 0 10 18 18 46 21 6 0 11 -13 12 -30z m158 -51 c4 -6 0 -16 -9 -23 -11 -8 -14 -19 -10 -36 6 -21 5 -23 -10 -10 -19 15 -23 41 -6 41 6 0 8 9 4 20 -7 22 18 29 31 8z m-6 -157 c0 -5 7 -17 17 -26 14 -14 14 -18 2 -26 -23 -14 -32 -10 -26 11 6 22 -8 28 -17 8 -3 -10 -1 25 3 40 2 7 21 1 21 -7z m251 -422 c-11 -10 -24 -27 -30 -36 -8 -14 -12 -15 -22 -6 -9 9 -5 19 20 43 18 16 37 27 43 24 5 -3 1 -14 -11 -25z m20 -299 c15 0 10 -17 -8 -24 -24 -9 -33 5 -20 34 8 21 11 22 14 8 3 -10 9 -18 14 -18z m-8 -302 c-3 -5 -11 -7 -19 -4 -10 4 -14 -3 -14 -22 0 -20 3 -23 10 -12 5 8 12 11 17 7 10 -11 -17 -27 -33 -20 -17 6 -29 44 -17 52 5 3 12 14 16 24 6 16 8 16 26 0 11 -9 18 -21 14 -25z" />
        <path
            d="M4636 5848 c-8 -13 -22 -52 -31 -88 -10 -36 -21 -74 -26 -85 -31 -73 -48 -127 -43 -140 4 -9 1 -15 -8 -15 -16 0 -39 -42 -34 -62 1 -7 1 -9 -2 -5 -2 5 -13 -5 -23 -23 -11 -17 -17 -35 -14 -41 4 -5 -1 -9 -9 -9 -9 0 -16 -4 -16 -8 0 -4 -20 -35 -44 -69 -25 -34 -42 -63 -40 -66 3 -3 -4 -11 -16 -17 -12 -7 -19 -18 -16 -26 3 -9 -1 -14 -14 -14 -22 0 -59 -49 -52 -69 3 -10 0 -12 -11 -8 -19 7 -80 -60 -70 -76 3 -6 2 -7 -4 -4 -6 4 -35 -28 -65 -71 -69 -96 -83 -122 -67 -122 7 0 9 -3 5 -7 -4 -5 -13 -8 -19 -8 -7 0 -12 -9 -12 -20 0 -15 6 -19 23 -17 12 2 22 -1 22 -6 0 -15 -43 -23 -52 -9 -10 16 -29 -10 -21 -30 3 -7 -2 -13 -11 -13 -20 0 -21 -29 -2 -36 8 -3 12 -12 10 -19 -8 -19 12 -27 26 -10 15 18 50 20 50 2 0 -16 -58 -39 -66 -26 -3 5 -10 7 -15 4 -5 -4 -9 3 -9 14 0 56 -48 5 -52 -56 -1 -15 -8 -32 -14 -38 -15 -13 -37 -82 -30 -94 4 -5 2 -11 -4 -13 -16 -5 -51 -181 -38 -189 8 -5 6 -12 -5 -24 -17 -17 -21 -53 -11 -93 6 -21 7 -21 19 -5 18 24 30 10 13 -16 -9 -14 -19 -19 -33 -15 -17 4 -17 3 -5 -6 11 -9 12 -13 3 -17 -7 -2 -13 -17 -13 -33 0 -16 6 -31 13 -33 9 -4 9 -8 -2 -15 -17 -12 -10 -163 14 -292 6 -29 8 -32 16 -17 6 10 14 15 19 12 5 -3 16 8 25 25 18 35 37 40 33 8 -4 -28 -38 -69 -50 -62 -5 3 -15 1 -22 -5 -11 -9 -10 -25 7 -89 10 -42 24 -80 30 -83 5 -4 7 -11 3 -17 -8 -13 20 -36 34 -27 5 3 10 -1 10 -10 0 -11 -5 -15 -15 -11 -17 6 -19 -2 -5 -24 8 -12 11 -13 19 -1 6 9 11 10 15 2 4 -6 0 -14 -8 -17 -9 -3 -16 -10 -16 -15 0 -22 75 -159 87 -159 9 0 13 -8 11 -22 -2 -13 2 -22 7 -21 6 1 12 -8 12 -19 2 -19 59 -115 89 -148 8 -8 34 -41 59 -72 25 -32 49 -57 53 -55 4 1 8 -2 10 -8 11 -39 243 -238 267 -229 9 4 15 0 15 -10 0 -10 6 -13 15 -10 9 4 15 0 15 -9 0 -16 61 -57 86 -57 8 0 14 -4 14 -10 0 -5 26 -23 58 -39 55 -28 60 -29 75 -13 16 15 17 14 17 -11 0 -20 5 -27 19 -27 11 0 23 -4 26 -10 3 -5 14 -10 24 -10 10 0 31 -6 46 -14 15 -8 34 -12 41 -9 8 3 14 1 14 -5 0 -5 12 -12 28 -14 15 -3 35 -8 44 -12 13 -6 16 -3 11 16 -5 22 -5 22 18 -4 27 -30 89 -48 89 -26 0 8 4 7 11 -4 13 -23 25 -23 50 1 21 20 12 36 -14 25 -8 -3 -18 -1 -22 5 -3 6 -3 11 2 12 29 3 48 9 51 18 6 17 32 13 32 -4 0 -8 -7 -15 -15 -15 -12 0 -14 -7 -9 -26 5 -18 3 -25 -4 -20 -6 3 -13 2 -16 -3 -9 -14 21 -19 82 -16 28 1 52 -1 52 -5 0 -4 18 -8 40 -8 22 0 40 3 40 9 0 5 -4 9 -10 9 -5 0 -10 5 -10 10 0 18 18 11 25 -10 7 -23 45 -27 45 -5 0 8 5 15 11 15 6 0 9 -7 5 -15 -7 -18 20 -21 27 -2 4 9 7 9 14 0 7 -10 38 -8 143 7 74 11 139 20 144 20 5 0 3 7 -4 15 -9 11 -10 19 -2 27 14 14 33 1 26 -17 -5 -13 -1 -13 34 -1 143 51 320 156 463 274 264 219 464 539 544 871 17 72 17 75 0 88 -18 12 -18 13 2 13 17 0 21 8 25 52 4 37 1 56 -9 66 -8 8 -11 17 -8 20 3 4 10 1 14 -7 6 -10 10 -9 15 4 10 27 7 85 -5 85 -5 0 -7 -4 -4 -10 3 -5 1 -10 -4 -10 -16 0 -13 20 4 26 17 7 22 109 6 119 -6 3 -6 17 1 35 8 24 7 36 -6 55 -9 14 -12 25 -6 25 20 0 11 50 -12 59 -18 6 -19 9 -5 14 10 4 17 11 17 17 0 6 -5 8 -11 4 -8 -4 -9 1 -4 15 12 39 -58 291 -81 291 -8 0 -12 12 -12 31 1 20 -6 37 -16 45 -10 7 -15 17 -12 22 9 15 -49 126 -78 147 -17 13 -24 26 -20 37 3 10 -4 26 -15 37 -12 12 -18 21 -15 21 4 0 1 7 -6 15 -7 8 -16 12 -21 9 -5 -3 -6 1 -3 9 6 17 -12 32 -21 18 -7 -12 -35 -3 -35 10 0 5 7 9 15 9 8 0 15 3 15 8 0 13 -150 177 -160 174 -6 -1 -10 3 -10 9 0 18 -103 149 -117 149 -7 0 -13 5 -13 11 0 5 5 7 12 3 7 -4 1 8 -12 27 -13 19 -30 38 -37 42 -7 5 -11 12 -8 18 11 16 -19 49 -35 38 -19 -11 -30 -11 -30 0 0 5 9 12 19 16 18 6 18 7 -2 56 -19 45 -23 48 -28 27 -6 -22 -6 -22 -14 6 -5 19 -4 31 2 33 10 4 -10 78 -54 201 -14 41 -89 129 -100 118 -3 -3 0 -12 6 -20 17 -20 4 -41 -15 -25 -8 7 -11 21 -8 34 4 17 0 24 -15 28 -11 2 -23 0 -26 -7 -3 -8 -7 -8 -11 2 -4 9 -42 12 -136 12 l-131 0 6 -32 c2 -18 65 -443 138 -945 l133 -911 100 -4 c82 -2 106 -7 128 -23 41 -31 62 -74 62 -127 0 -81 -58 -139 -146 -145 -45 -4 -59 0 -95 23 -50 33 -68 68 -78 144 -3 30 -9 63 -11 73 -5 16 -43 17 -624 17 l-620 0 -4 -22 c-3 -13 -9 -51 -15 -85 -12 -76 -32 -108 -84 -135 -107 -54 -231 21 -229 140 0 51 21 85 72 120 28 19 46 22 126 22 69 0 94 3 94 13 0 11 181 1261 215 1482 8 55 17 120 20 145 3 25 7 54 9 65 17 88 17 106 0 145 l-18 40 -103 0 c-95 0 -104 -2 -117 -22z m1294 -43 c0 -7 6 -15 13 -18 6 -2 9 -8 5 -12 -8 -9 -41 22 -44 41 -1 7 4 10 12 7 8 -3 14 -11 14 -18z m-77 -27 c-5 -9 -33 -11 -33 -3 0 3 6 14 12 25 12 18 13 19 19 2 4 -9 5 -20 2 -24z m-1193 -99 c0 -15 -41 -50 -53 -46 -10 3 -10 16 1 18 4 1 13 10 20 20 15 21 32 25 32 8z m1335 -29 c-2 -18 -30 -26 -40 -11 -3 6 -1 11 5 11 6 0 9 4 6 8 -2 4 4 8 14 8 10 0 17 -7 15 -16z m145 -150 c-12 -22 -25 -26 -35 -10 -9 15 4 30 26 30 17 0 18 -3 9 -20z m-1480 -19 c0 -5 7 -8 16 -7 24 2 28 -21 5 -27 -12 -3 -26 2 -35 12 -20 22 -20 31 -1 31 8 0 15 -4 15 -9z m-112 -73 c-2 -5 -6 -8 -9 -6 -3 2 -13 -5 -23 -14 -19 -20 -36 -23 -36 -8 0 6 5 10 10 10 6 0 10 6 10 14 0 8 11 14 25 14 14 0 24 -5 23 -10z m65 -27 c-4 -16 2 -22 26 -28 21 -6 28 -12 22 -21 -11 -18 -66 31 -58 52 9 23 16 20 10 -3z m1383 -12 c10 -17 -13 -36 -27 -22 -12 12 -4 33 11 33 5 0 12 -5 16 -11z m-1421 -40 c16 -29 16 -30 -4 -20 -25 14 -34 28 -26 41 9 15 13 13 30 -21z m1565 -109 c-13 -23 -19 -24 -43 -5 -18 13 -17 14 5 18 47 9 49 8 38 -13z m-1680 -85 c7 -9 10 -18 6 -22 -3 -3 -6 -1 -6 5 0 6 -7 9 -15 6 -9 -4 -15 0 -15 7 0 11 -2 11 -10 -1 -5 -8 -12 -11 -15 -8 -11 11 5 28 24 28 10 0 24 -7 31 -15z m-98 -117 c-22 -22 -39 -20 -29 4 2 8 15 14 28 15 l22 2 -21 -21z m91 -23 c3 -7 -3 -15 -13 -18 -21 -5 -30 0 -30 18 0 16 37 16 43 0z m-236 -29 c-3 -8 -1 -17 6 -19 9 -3 9 -8 1 -16 -17 -19 -41 14 -24 34 16 19 24 19 17 1z m-59 -33 c-8 -10 -7 -12 5 -8 16 7 33 -10 19 -19 -10 -6 -52 21 -52 34 0 5 9 8 19 7 15 -1 17 -4 9 -14z m2262 9 c0 -13 -41 -44 -48 -36 -4 4 -1 9 6 11 6 3 12 11 12 19 0 8 7 14 15 14 8 0 15 -3 15 -8z m-2205 -71 c3 -6 -4 -15 -15 -21 -15 -8 -19 -17 -15 -31 5 -15 2 -19 -14 -19 -12 0 -21 -4 -21 -10 0 -5 -4 -10 -10 -10 -18 0 -11 20 16 45 15 14 24 25 20 25 -9 0 17 29 26 30 4 0 9 -4 13 -9z m-98 -103 c-2 -7 -10 -12 -16 -10 -6 1 -11 -5 -11 -14 0 -8 -4 -12 -10 -9 -16 10 -12 33 8 38 30 8 34 7 29 -5z m-17 -68 c0 -5 7 -7 15 -4 8 4 15 1 15 -5 0 -6 -11 -11 -25 -11 -16 0 -25 6 -25 15 0 8 5 15 10 15 6 0 10 -4 10 -10z m2600 -44 c0 -8 6 -16 13 -19 7 -2 8 -8 3 -13 -5 -5 -11 -4 -13 4 -3 6 -11 12 -19 12 -8 0 -14 7 -14 15 0 8 7 15 15 15 8 0 15 -6 15 -14z m-2595 -63 c13 -34 15 -63 5 -63 -6 0 -8 5 -5 10 3 6 1 10 -5 10 -7 0 -10 6 -7 13 2 6 0 20 -5 30 -5 10 -5 17 1 17 5 0 12 -8 16 -17z m-58 -198 c-7 -14 -20 -25 -29 -25 -25 0 -23 21 2 27 11 3 20 12 20 20 0 8 4 12 9 9 5 -4 4 -17 -2 -31z m-117 -31 c0 -10 -6 -14 -14 -11 -8 3 -17 -1 -20 -10 -5 -12 -9 -13 -21 -3 -19 15 -20 34 -2 27 8 -3 20 -1 28 4 21 13 29 11 29 -7z m104 -40 c9 -22 -3 -32 -14 -14 -8 13 -10 13 -10 -1 0 -9 -7 -20 -16 -23 -10 -4 -14 -2 -10 6 3 7 9 21 12 31 8 22 30 22 38 1z m-128 -89 c-3 -8 -1 -15 4 -15 6 0 10 -4 10 -10 0 -12 -10 -13 -29 -1 -12 8 -12 12 -2 25 17 20 25 21 17 1z m87 -42 c11 4 13 0 10 -14 -6 -22 -14 -24 -32 -6 -11 10 -12 9 -6 -3 6 -11 5 -12 -4 -4 -6 6 -9 19 -5 28 5 13 9 14 14 5 5 -6 15 -9 23 -6z m-91 -18 c0 -8 1 -21 2 -27 1 -7 4 -15 8 -18 3 -3 0 -14 -8 -24 -7 -11 -17 -16 -21 -12 -4 4 -1 11 7 16 12 7 12 12 2 22 -14 14 -16 58 -2 58 6 0 11 -7 12 -15z m76 -63 c15 -15 16 -21 6 -30 -22 -20 -34 -13 -34 18 0 35 4 36 28 12z m-58 -77 c0 -9 -7 -15 -16 -13 -10 2 -19 -2 -21 -9 -3 -8 3 -11 16 -8 28 5 27 -12 -1 -21 -13 -4 -26 -12 -30 -18 -5 -7 -12 -4 -22 9 -10 14 -11 21 -3 23 7 1 21 13 32 27 23 28 45 32 45 10z m70 -146 c0 -10 5 -19 10 -19 6 0 10 -7 10 -15 0 -8 -7 -15 -16 -15 -9 0 -18 -9 -21 -20 -4 -16 -8 -18 -19 -9 -14 12 -9 33 6 24 13 -8 22 13 15 36 -6 19 -8 19 -19 3 -8 -11 -15 -13 -20 -6 -11 18 3 37 29 38 18 2 25 -3 25 -17z m-57 -88 c10 -16 13 -32 8 -35 -11 -7 -26 11 -35 42 -10 32 7 27 27 -7z m47 -194 c0 -14 -5 -17 -21 -12 -13 5 -25 2 -29 -6 -10 -15 -50 -23 -50 -10 0 14 41 41 52 35 4 -3 8 -1 8 5 0 5 9 9 20 8 12 -1 20 -8 20 -20z m107 -92 c-2 -19 -7 -38 -12 -42 -4 -5 -5 -2 -1 5 4 7 2 12 -5 12 -8 0 -9 3 0 13 6 8 8 17 5 20 -6 6 3 27 12 27 2 0 3 -16 1 -35z m-151 -11 c-5 -12 5 -18 25 -16 4 1 7 -10 7 -23 0 -19 -3 -22 -17 -13 -16 9 -41 53 -41 70 0 4 7 5 16 1 8 -3 13 -12 10 -19z m214 -21 c21 -18 27 -53 10 -53 -6 0 -10 8 -8 18 2 11 -3 16 -14 14 -12 -2 -16 4 -15 18 2 24 2 24 27 3z m-74 -46 c4 -4 2 -7 -4 -7 -7 0 -12 -4 -12 -10 0 -5 6 -10 13 -10 7 0 18 -9 24 -19 11 -17 10 -20 -9 -18 -11 1 -25 12 -31 24 -6 13 -14 23 -19 23 -4 0 -8 7 -8 15 0 15 32 16 46 2z m-45 -137 c5 0 9 -7 9 -15 0 -17 -16 -20 -25 -5 -4 6 -15 8 -26 5 -10 -4 -19 -2 -19 3 0 13 21 22 38 16 8 -2 18 -4 23 -4z m219 -150 c0 -5 -4 -10 -10 -10 -5 0 -10 -7 -10 -15 0 -9 -6 -12 -15 -9 -8 4 -15 10 -15 15 0 5 7 9 15 9 8 0 15 5 15 10 0 6 5 10 10 10 6 0 10 -4 10 -10z m-107 -51 c10 -11 15 -24 11 -27 -4 -4 -9 -1 -11 6 -3 6 -11 12 -19 12 -8 0 -14 7 -14 15 0 21 12 19 33 -6z m207 -105 c0 -10 -6 -14 -14 -11 -8 3 -17 1 -19 -6 -2 -7 -8 -8 -13 -4 -5 5 -1 15 10 23 26 18 36 18 36 -2z m130 -69 c0 -2 -5 -16 -10 -31 -8 -20 -14 -24 -22 -16 -16 16 -1 63 17 56 8 -4 15 -8 15 -9z m20 -190 c0 -14 -4 -25 -10 -25 -5 0 -10 4 -10 9 0 5 -3 16 -6 25 -4 11 -1 16 10 16 10 0 16 -9 16 -25z m250 19 c0 -3 -4 -14 -10 -24 -7 -13 -6 -21 5 -30 19 -16 19 -30 0 -30 -25 0 -39 39 -24 66 11 22 29 33 29 18z m217 -136 c-21 -7 -26 -15 -22 -29 8 -23 -1 -24 -21 -4 -15 15 -10 40 6 30 5 -3 11 -1 15 5 3 5 16 10 28 9 19 0 18 -2 -6 -11z m33 -19 c0 -8 5 -7 15 1 17 14 31 8 20 -10 -8 -13 -58 -7 -63 8 -2 7 3 12 12 12 9 0 16 -5 16 -11z m-218 -13 c13 -19 9 -27 -9 -18 -10 5 -24 7 -30 5 -13 -5 -18 9 -8 19 9 9 40 5 47 -6z m638 9 c0 -8 -34 -45 -42 -45 -4 0 -2 11 4 25 9 21 38 36 38 20z m230 -50 c0 -17 -35 -55 -50 -55 -5 0 -10 5 -10 10 0 6 9 10 20 10 11 0 19 3 19 8 -1 4 -1 15 0 25 1 21 21 23 21 2z m-516 -30 c-3 -18 -1 -23 10 -19 8 3 12 12 9 20 -3 8 1 14 11 14 20 0 21 -14 2 -30 -17 -13 -10 -39 13 -57 24 -17 7 -25 -30 -14 -19 5 -26 10 -17 10 25 1 11 30 -18 37 -27 7 -26 6 -18 28 3 9 10 13 15 10 5 -3 9 2 9 10 0 9 4 16 9 16 5 0 8 -11 5 -25z m-204 -14 c0 -16 -38 -52 -45 -41 -3 5 -1 10 6 10 7 0 9 3 6 6 -9 10 12 46 24 39 5 -4 9 -10 9 -14z m520 -11 c0 -10 -14 -14 -39 -11 -7 2 -10 -3 -6 -8 3 -6 3 -21 -1 -33 -6 -19 -7 -19 -16 -5 -5 10 -7 21 -3 26 3 5 1 12 -5 16 -22 13 -8 25 30 25 22 0 40 -4 40 -10z m474 1 c7 -10 -39 -43 -48 -34 -6 6 23 41 36 42 4 1 9 -3 12 -8z m-924 -10 c0 -5 -8 -11 -17 -15 -10 -3 -24 -9 -30 -12 -7 -3 -13 -1 -13 5 0 7 10 16 23 21 29 12 37 12 37 1z m360 -11 c0 -11 -7 -20 -15 -20 -8 0 -15 7 -15 15 0 18 -17 20 -23 3 -2 -7 -8 -9 -13 -5 -11 11 15 27 44 27 15 0 22 -6 22 -20z m130 14 c0 -4 -12 -17 -26 -29 -18 -16 -24 -27 -18 -36 18 -30 12 -40 -12 -18 -28 26 -31 39 -8 39 8 0 12 5 9 11 -4 6 2 13 14 16 12 3 21 9 21 14 0 5 5 9 10 9 6 0 10 -3 10 -6z m240 -40 c0 -10 -6 -14 -14 -11 -8 3 -17 1 -19 -6 -3 -9 -7 -9 -17 0 -11 10 -9 14 11 22 34 14 39 13 39 -5z m-147 -19 c3 -18 -1 -29 -14 -35 -24 -13 -31 1 -16 34 15 33 23 33 30 1z m211 -18 c-3 -9 -13 -17 -21 -17 -8 0 -12 3 -10 8 2 4 7 16 11 26 4 13 10 16 17 9 5 -5 7 -17 3 -26z" />
        <path
            d="M4950 5851 c0 -11 3 -21 8 -24 4 -2 2 -3 -4 -1 -10 2 -48 -224 -60 -364 -3 -26 -9 -63 -14 -82 -4 -19 -11 -60 -15 -90 -4 -30 -9 -71 -12 -90 -3 -19 -44 -302 -92 -627 l-87 -593 617 0 616 0 -4 23 c-10 60 -193 1324 -193 1335 0 7 -4 11 -9 7 -15 -9 -24 15 -11 30 9 11 4 63 -20 227 -17 117 -33 225 -36 241 l-6 27 -339 0 c-327 0 -339 -1 -339 -19z" />
        <path
            d="M7597 5833 l-57 -4 6 -67 c4 -37 10 -76 14 -87 5 -14 1 -36 -12 -64 -20 -45 -21 -82 -1 -89 7 -2 18 8 24 22 15 31 39 34 39 5 0 -12 14 -37 30 -56 17 -18 30 -37 30 -42 0 -5 10 -6 23 -4 13 3 37 -6 59 -21 l37 -25 10 32 c19 59 43 195 39 224 -2 21 -13 33 -45 51 -46 25 -50 36 -29 95 l14 37 -62 -2 c-33 -1 -87 -3 -119 -5z m167 -169 c9 -3 16 -17 16 -31 0 -22 -4 -24 -37 -21 -41 3 -51 18 -28 42 18 18 25 19 49 10z m23 -101 c4 -11 -4 -24 -23 -40 -42 -33 -53 -28 -18 8 27 28 28 31 12 43 -10 7 -18 16 -18 20 0 12 41 -15 47 -31z" />
        <path
            d="M6923 5728 l-51 -10 38 -80 c37 -76 38 -80 24 -113 -22 -52 -18 -100 9 -117 29 -19 94 -40 135 -44 29 -3 32 -1 32 24 0 16 5 33 11 39 18 18 -1 62 -37 84 -19 11 -36 30 -39 42 -3 12 -13 58 -23 102 -20 88 -19 88 -99 73z" />
        <path
            d="M1821 5025 c-51 -58 -88 -142 -58 -132 6 2 17 -9 24 -25 10 -23 18 -28 47 -28 l35 0 -6 -69 c-3 -40 -2 -71 4 -74 13 -8 61 151 73 244 16 124 17 119 -39 119 -43 0 -52 -4 -80 -35z" />
        <path
            d="M4443 3925 c-33 -14 -63 -59 -63 -95 0 -31 29 -76 57 -89 39 -18 98 -13 126 10 27 20 40 57 52 142 l6 47 -73 0 c-40 -1 -87 -7 -105 -15z" />
        <path
            d="M5964 3913 c3 -16 8 -50 12 -78 10 -71 46 -105 111 -105 91 1 138 73 97 151 -21 41 -68 59 -154 59 l-72 0 6 -27z" />
    </g>
    <g id="layer108" fill="#ecb489" stroke="none">
        <path d="M3078 9503 c4 -373 8 -408 10 -105 1 166 -1 302 -5 302 -5 0 -7 -89 -5 -197z" />
        <path d="M8923 9485 c0 -33 2 -45 4 -27 2 18 2 45 0 60 -2 15 -4 0 -4 -33z" />
        <path d="M9163 8950 c0 -36 2 -50 4 -32 2 17 2 47 0 65 -2 17 -4 3 -4 -33z" />
        <path d="M9253 8745 c0 -33 2 -45 4 -27 2 18 2 45 0 60 -2 15 -4 0 -4 -33z" />
        <path d="M4494 8715 c-19 -14 -19 -14 2 -15 12 0 27 7 34 15 17 20 -9 21 -36 0z" />
        <path
            d="M6404 8518 c1 -32 19 -48 31 -29 4 7 -1 9 -12 5 -13 -4 -11 0 7 16 l25 21 -24 -11 c-21 -11 -23 -10 -18 4 3 8 2 18 -2 20 -4 3 -8 -9 -7 -26z" />
        <path d="M6332 8508 c-14 -14 -16 -38 -2 -38 5 0 7 6 4 14 -3 8 0 13 8 13 7 -1 14 2 16 8 5 15 -12 17 -26 3z" />
        <path
            d="M3357 8329 c3 -10 0 -19 -6 -19 -6 0 -11 -5 -11 -11 0 -5 4 -8 9 -5 5 4 11 1 13 -6 3 -9 6 -9 12 0 4 7 2 12 -4 12 -7 0 -8 6 -1 19 8 14 7 20 -3 24 -10 4 -12 0 -9 -14z" />
        <path
            d="M5224 8296 c-3 -8 -4 -23 -1 -33 4 -14 5 -13 6 5 0 13 6 20 11 17 6 -3 10 -1 10 5 0 6 5 8 12 4 7 -4 8 -3 4 4 -10 17 -36 15 -42 -2z" />
        <path d="M7233 7985 c0 -33 2 -45 4 -27 2 18 2 45 0 60 -2 15 -4 0 -4 -33z" />
        <path d="M5643 7805 c0 -33 2 -49 4 -35 3 14 10 31 16 39 9 11 9 13 0 8 -7 -5 -13 2 -16 20 -2 16 -4 1 -4 -32z" />
        <path d="M4783 7660 c0 -47 2 -66 4 -42 2 23 2 61 0 85 -2 23 -4 4 -4 -43z" />
        <path d="M5653 7560 c0 -14 1 -18 4 -7 3 13 11 15 31 10 22 -5 24 -4 12 8 -22 24 -46 18 -47 -11z" />
        <path d="M2795 7194 c72 -8 153 -8 148 -1 -2 4 -43 6 -91 5 -48 0 -73 -3 -57 -4z" />
        <path
            d="M2225 6759 c-4 -6 2 -13 14 -16 12 -3 21 -13 21 -22 0 -14 2 -14 10 -1 13 20 13 33 0 25 -5 -3 -10 -2 -10 4 0 6 -7 7 -17 4 -11 -4 -14 -3 -9 5 4 7 5 12 2 12 -3 0 -8 -5 -11 -11z" />
        <path
            d="M4175 4850 c6 -9 1 -10 -16 -5 -18 4 -20 4 -10 -4 11 -7 12 -13 3 -24 -9 -10 -9 -14 1 -14 18 0 38 45 25 54 -7 4 -8 1 -3 -7z" />
        <path d="M7128 4023 c-1 -27 0 -64 3 -83 4 -24 7 -8 8 48 1 89 -5 110 -11 35z" />
        <path
            d="M7087 3657 c-14 -26 -16 -27 -12 -7 5 21 4 22 -5 7 -14 -21 -5 -38 16 -30 8 3 13 8 10 11 -3 2 -1 13 5 24 6 11 9 22 7 24 -3 2 -12 -11 -21 -29z" />
        <path
            d="M4123 3481 c-1 -14 3 -17 19 -13 18 4 20 2 16 -16 -4 -12 -2 -20 3 -16 15 9 10 28 -11 47 -25 21 -25 21 -27 -2z" />
        <path
            d="M4730 2745 c0 -8 -4 -15 -9 -15 -11 0 -6 -39 5 -49 4 -3 5 1 1 11 -3 9 1 24 8 35 17 22 19 33 5 33 -5 0 -10 -7 -10 -15z" />
    </g>
    <g id="layer109" fill="#ffd372" stroke="none">
        <path
            d="M2395 9896 c40 -19 73 -29 76 -24 3 5 9 2 13 -7 3 -10 12 -15 21 -11 8 3 15 1 15 -4 0 -6 5 -10 12 -10 6 0 30 -9 52 -20 67 -32 158 -52 168 -37 6 9 8 9 8 -1 0 -7 14 -19 32 -26 28 -12 34 -12 45 3 12 15 13 15 7 -1 -8 -22 24 -37 36 -17 7 11 10 11 15 -2 4 -10 17 -16 38 -15 l32 1 10 102 10 102 -113 0 c-102 1 -112 -1 -98 -15 22 -21 20 -27 -4 -14 -11 6 -20 15 -20 20 0 6 -18 10 -39 10 -35 0 -39 -3 -36 -21 3 -17 2 -19 -10 -9 -8 7 -12 16 -9 21 3 5 1 9 -5 9 -5 0 -12 -6 -14 -12 -4 -10 -6 -10 -6 0 -1 8 -20 12 -62 12 -51 0 -65 -4 -80 -22 -11 -11 -19 -17 -19 -12 0 6 5 15 12 22 9 9 -7 12 -72 11 l-85 -1 70 -32z m338 -22 c47 -2 57 -5 57 -15 0 -7 -11 -9 -29 -6 -17 4 -31 2 -33 -4 -6 -19 -38 3 -38 25 0 30 14 43 20 19 3 -10 13 -18 23 -19z" />
        <path
            d="M3272 9911 c-23 -9 -41 -19 -38 -21 2 -3 -7 -6 -21 -7 -14 0 -29 -7 -34 -14 -4 -8 -21 -15 -36 -16 -42 -3 -54 -28 -51 -106 3 -66 4 -68 28 -65 14 1 31 -2 39 -7 10 -5 16 -4 19 4 3 9 7 9 18 0 7 -6 21 -8 30 -5 9 4 22 2 29 -4 10 -8 13 -6 11 6 -2 25 21 28 27 4 5 -18 12 -21 44 -19 21 1 46 -2 56 -6 10 -4 24 -2 32 5 10 9 15 9 15 1 0 -15 27 -14 34 2 5 10 7 10 12 0 3 -7 12 -13 19 -13 7 0 16 6 18 13 4 8 8 9 14 1 10 -13 196 1 201 16 2 5 17 7 33 3 22 -4 29 -2 29 10 0 11 -6 13 -22 9 -14 -3 -19 -2 -14 6 8 14 46 16 46 3 0 -17 28 -19 76 -7 27 7 42 15 34 18 -8 2 1 5 20 5 19 -1 78 7 130 16 100 18 227 21 295 8 l40 -8 -95 -46 c-52 -26 -100 -50 -105 -55 -6 -5 -17 -9 -25 -9 -32 -1 -175 -44 -178 -54 -3 -6 -9 -6 -18 2 -10 8 -14 8 -14 1 0 -6 -7 -9 -15 -6 -27 11 -85 -6 -85 -24 -1 -16 -2 -16 -14 1 -10 13 -19 15 -36 9 -21 -8 -21 -9 -5 -25 9 -10 21 -15 26 -12 5 4 9 0 9 -7 0 -19 101 -75 190 -106 58 -19 95 -25 165 -26 95 -1 130 8 235 56 64 29 86 52 206 213 9 12 22 10 90 -16 169 -64 297 -91 459 -96 245 -9 398 19 785 142 158 50 291 88 294 83 2 -2 18 -30 36 -63 19 -33 60 -101 93 -151 56 -87 62 -94 126 -123 162 -74 307 -66 496 29 119 59 156 86 137 99 -8 4 -51 13 -97 20 -134 19 -244 50 -340 99 -110 55 -208 120 -200 133 8 13 134 11 214 -2 36 -7 95 -25 131 -42 36 -16 75 -29 86 -29 13 1 24 -6 26 -16 3 -10 39 -39 80 -65 114 -71 109 -72 101 17 l-6 76 77 0 76 0 0 44 0 43 -113 47 -113 46 -1720 0 c-1362 0 -1723 -3 -1733 -12 -11 -10 -13 -10 -7 0 12 21 -297 16 -352 -7z m468 -41 c0 -11 -7 -20 -15 -20 -15 0 -21 21 -8 33 12 13 23 7 23 -13z m-390 -105 c10 -12 9 -16 -6 -22 -11 -4 -24 -13 -30 -21 -12 -16 -38 -7 -28 9 3 6 18 15 32 20 21 8 23 12 12 19 -8 6 -10 10 -4 10 6 0 17 -7 24 -15z m256 -32 c-4 -22 -36 -30 -36 -9 0 8 8 17 18 19 9 3 18 5 19 6 1 0 0 -7 -1 -16z m-16 -40 c8 -7 -23 -21 -37 -16 -7 3 -13 12 -13 20 0 10 6 12 23 7 12 -3 24 -8 27 -11z" />
        <path
            d="M7420 9904 c0 -15 5 -55 12 -90 11 -63 12 -64 45 -64 18 0 33 -4 33 -9 0 -5 6 -8 13 -7 6 0 12 -3 12 -9 0 -5 -6 -9 -12 -9 -7 1 -13 -6 -13 -15 0 -35 29 -243 34 -248 3 -3 37 -11 75 -18 51 -9 72 -9 75 -1 2 7 9 5 17 -5 15 -17 59 -25 194 -34 94 -7 114 2 97 39 -8 19 -8 27 2 35 7 6 18 57 26 113 7 57 21 144 31 193 10 50 19 105 19 123 l0 32 -330 0 -330 0 0 -26z m370 -414 c0 -5 -5 -10 -11 -10 -6 0 -8 -7 -5 -17 4 -10 4 -14 0 -10 -4 4 -13 2 -21 -4 -10 -9 -13 -7 -13 10 0 12 6 21 15 21 8 0 15 5 15 10 0 6 5 10 10 10 6 0 10 -4 10 -10z" />
        <path
            d="M8380 9917 c-14 -6 -52 -23 -85 -38 -33 -15 -70 -30 -82 -34 -19 -5 -23 -13 -23 -51 l0 -44 110 0 110 0 0 -32 c0 -30 -10 -137 -25 -260 -5 -43 -4 -48 15 -48 11 0 20 5 20 11 0 7 11 9 28 6 34 -7 122 11 122 25 0 6 7 8 15 5 8 -4 17 -2 20 3 3 5 12 7 19 4 7 -3 16 2 19 10 4 9 14 16 22 16 9 0 14 -4 10 -10 -3 -5 7 -5 25 2 23 8 30 15 27 29 -3 12 0 16 9 12 8 -3 14 -10 14 -17 1 -6 10 0 20 13 11 13 20 18 20 12 0 -6 5 -11 11 -11 5 0 7 5 3 12 -4 7 -3 8 5 4 6 -4 23 -1 36 8 13 9 31 16 40 16 8 0 15 7 15 16 0 10 5 14 15 10 9 -3 18 1 22 10 3 8 11 13 18 10 7 -2 21 2 32 9 16 13 16 16 3 25 -8 5 -10 10 -4 10 5 0 14 -4 20 -10 6 -6 28 5 61 31 39 29 51 44 46 57 -6 14 -4 15 9 4 14 -11 23 -6 64 29 27 23 49 48 49 55 0 7 4 16 8 20 4 4 7 2 7 -5 0 -7 5 -9 10 -6 8 5 7 11 -1 21 -9 11 -8 14 5 14 9 0 16 5 16 12 0 6 3 8 7 5 7 -7 53 31 53 43 0 4 -34 8 -75 9 -63 1 -74 -1 -69 -14 3 -8 1 -15 -5 -15 -6 0 -11 7 -11 15 0 12 -13 15 -56 15 -34 0 -53 -4 -49 -10 3 -5 1 -10 -4 -10 -6 0 -11 5 -11 10 0 15 -647 12 -680 -3z m576 -203 c10 -8 5 -11 -21 -12 -19 -1 -35 3 -35 8 0 6 7 10 15 10 8 0 15 8 16 18 0 13 2 14 6 2 3 -8 11 -20 19 -26z m-35 -63 c-7 -12 -19 -21 -29 -21 -16 1 -16 2 1 14 9 7 17 21 17 32 0 13 3 15 11 7 8 -8 8 -17 0 -32z m-133 -23 c0 -27 -1 -30 -11 -18 -7 9 -20 14 -29 12 -10 -2 -18 1 -18 7 0 6 7 8 15 5 8 -4 17 1 21 10 10 26 21 18 22 -16z m-172 -30 c4 -7 3 -8 -4 -4 -7 4 -13 1 -13 -8 -1 -9 -3 -20 -4 -26 -1 -5 -3 -14 -4 -20 0 -5 -5 -10 -11 -10 -16 0 -12 42 7 62 19 21 20 21 29 6z m182 -17 c10 -6 6 -10 -15 -14 -32 -6 -38 -3 -28 12 7 13 25 14 43 2z m-238 -64 c0 -5 -7 -6 -16 -3 -13 5 -15 2 -11 -14 3 -11 1 -18 -4 -14 -5 3 -9 13 -9 22 0 15 -2 15 -10 2 -5 -8 -10 -10 -10 -4 0 6 3 14 6 17 10 9 54 4 54 -6z" />
        <path
            d="M5924 9025 c3 -27 8 -201 11 -385 10 -514 9 -502 48 -584 42 -89 78 -131 123 -146 29 -10 39 -9 59 4 14 9 28 28 31 42 12 47 -4 176 -45 364 -22 102 -47 237 -56 300 -14 97 -23 126 -55 185 -22 39 -58 116 -80 170 -39 96 -41 98 -36 50z" />
        <path
            d="M4920 8972 c-24 -42 -68 -113 -98 -157 -45 -67 -61 -102 -93 -210 -21 -72 -68 -209 -104 -304 -102 -271 -118 -356 -72 -386 37 -24 87 -4 144 59 57 62 114 163 120 215 3 20 38 220 79 445 40 226 72 411 71 413 -2 1 -23 -32 -47 -75z" />
        <path
            d="M2080 9007 c0 -26 41 -341 45 -345 2 -2 29 2 60 9 41 9 59 9 63 2 4 -6 52 -343 107 -748 l100 -737 30 7 c104 21 236 35 337 35 l116 0 6 63 c3 34 17 348 32 697 14 349 27 640 29 646 2 8 21 9 62 3 32 -5 75 -11 97 -14 l39 -6 -7 123 c-4 68 -9 158 -13 201 l-6 77 -181 -2 -181 -3 -66 -560 c-36 -308 -68 -568 -70 -578 -2 -11 -42 194 -88 455 -46 260 -93 521 -103 581 l-20 107 -194 0 c-153 0 -194 -3 -194 -13z" />
        <path
            d="M7525 7180 c-55 -10 -125 -25 -155 -33 -47 -12 -55 -18 -58 -41 -2 -17 1 -26 11 -26 7 0 14 -7 14 -15 0 -8 -6 -15 -14 -15 -17 0 -17 -27 0 -33 9 -4 9 -8 -2 -15 -9 -7 -10 -11 -2 -17 8 -4 9 -11 3 -18 -6 -7 -12 -38 -15 -69 -4 -44 -1 -58 10 -62 8 -3 11 -10 8 -16 -4 -6 -10 -8 -15 -5 -5 3 -8 -155 -7 -375 1 -247 -2 -381 -8 -382 -5 -2 -12 22 -15 52 l-5 55 -14 -32 c-7 -18 -17 -33 -22 -33 -16 0 -9 34 16 79 14 24 24 45 23 47 -8 7 -408 35 -445 31 -77 -8 -143 -82 -143 -160 0 -31 26 -122 49 -172 5 -11 24 -64 41 -118 26 -78 35 -97 48 -93 10 3 52 10 95 17 49 8 77 18 77 26 0 33 -24 173 -35 208 -18 57 -30 185 -17 185 12 0 19 -25 28 -107 3 -35 12 -67 18 -71 11 -8 329 -94 391 -106 17 -3 122 -2 235 3 113 4 209 4 214 0 6 -5 57 -9 115 -9 118 0 166 15 212 66 15 16 72 100 127 188 l101 158 -50 75 c-30 44 -47 79 -42 84 9 9 113 -130 113 -151 0 -10 90 -151 111 -174 6 -6 118 54 167 90 2 1 -29 78 -68 171 -82 194 -115 237 -192 248 -70 11 -116 -14 -208 -112 -89 -96 -82 -74 -101 -308 -10 -129 -19 -170 -32 -148 -6 10 20 350 28 364 12 18 70 683 61 704 -6 16 -108 51 -210 70 -106 20 -314 18 -441 -5z" />
        <path
            d="M2645 7179 c-33 -5 -88 -13 -122 -20 l-62 -11 6 -52 c3 -28 7 -53 9 -55 4 -4 360 25 427 35 l37 6 0 54 0 54 -117 -1 c-65 -1 -145 -5 -178 -10z" />
        <path
            d="M4917 7139 c-33 -20 -47 -64 -47 -154 l0 -85 450 0 450 0 0 75 c0 89 -16 127 -63 152 -29 16 -70 18 -402 20 -244 2 -376 -1 -388 -8z" />
        <path
            d="M2710 7007 c-118 -27 -217 -51 -219 -53 -4 -4 127 -988 135 -1012 3 -10 10 -8 30 7 42 33 98 28 167 -15 32 -20 60 -34 61 -33 5 7 48 1103 45 1129 l-4 25 -215 -48z" />
        <path
            d="M4434 6679 c-12 -20 10 -28 121 -43 61 -8 272 -38 470 -66 319 -45 577 -81 981 -136 117 -16 168 -14 148 6 -5 5 -43 14 -84 20 -41 6 -88 13 -105 16 -104 16 -1248 176 -1353 189 -70 8 -137 18 -149 20 -12 3 -25 0 -29 -6z" />
        <path
            d="M3482 6605 c-40 -18 -45 -9 90 -179 l103 -129 134 -74 c74 -40 138 -70 141 -66 4 4 26 56 48 115 l40 108 -237 120 c-130 66 -247 120 -261 120 -14 -1 -40 -7 -58 -15z" />
        <path
            d="M4434 6349 c-12 -20 10 -28 116 -43 260 -37 1320 -185 1365 -191 28 -3 89 -12 138 -19 72 -11 89 -11 98 0 18 22 95 9 -776 132 -313 45 -642 90 -730 102 -88 11 -170 22 -182 25 -12 3 -25 0 -29 -6z" />
        <path
            d="M1815 5869 c-29 -36 -57 -88 -73 -139 -10 -31 -85 -642 -79 -645 6 -4 281 -24 284 -21 2 2 15 124 28 272 l23 267 -74 149 c-41 81 -76 148 -78 148 -2 0 -16 -14 -31 -31z" />
        <path
            d="M4905 5848 c-2 -13 -11 -70 -19 -128 -8 -58 -60 -415 -116 -795 -55 -379 -107 -737 -115 -795 -24 -166 -12 -150 -108 -150 -66 0 -92 -5 -127 -22 -98 -51 -107 -168 -20 -242 26 -21 42 -26 86 -26 101 0 147 44 164 156 5 38 10 75 10 82 0 9 133 12 629 12 l629 0 11 -76 c19 -131 59 -174 163 -174 46 0 62 5 88 26 45 38 63 79 57 131 -10 93 -70 132 -204 133 -81 0 -81 0 -87 28 -7 33 -231 1562 -252 1717 -8 61 -17 118 -20 128 -6 20 -34 23 -34 3 0 -7 61 -429 135 -937 74 -508 135 -927 135 -931 0 -4 -279 -8 -620 -8 -341 0 -620 2 -620 4 0 7 250 1716 260 1781 14 83 13 105 -5 105 -8 0 -17 -10 -20 -22z m-290 -1980 c-14 -88 -26 -113 -67 -134 -77 -40 -168 14 -168 99 1 79 41 106 161 107 l86 0 -12 -72z m1528 61 c63 -32 77 -116 30 -169 -52 -58 -153 -48 -187 18 -8 15 -17 57 -21 95 l-7 67 81 0 c45 0 92 -5 104 -11z" />
    </g>
    <g id="layer110" fill="#fdd3a1" stroke="none">
        <path
            d="M2648 9933 c6 -2 10 -8 8 -12 -3 -4 1 -8 9 -8 8 0 12 4 9 9 -10 16 69 8 81 -9 9 -13 14 -13 20 -3 5 9 4 11 -3 6 -7 -4 -12 -3 -12 3 0 6 46 12 118 14 84 2 67 3 -63 4 -99 1 -174 -1 -167 -4z" />
        <path d="M3358 9933 c17 -2 47 -2 65 0 17 2 3 4 -33 4 -36 0 -50 -2 -32 -4z" />
        <path
            d="M3548 9933 c61 -3 81 -7 75 -16 -5 -9 -3 -9 8 0 11 9 71 13 190 16 101 1 63 3 -91 3 -146 0 -228 -2 -182 -3z" />
        <path d="M4773 9933 c422 -2 1112 -2 1535 0 422 1 76 2 -768 2 -844 0 -1190 -1 -767 -2z" />
        <path d="M7410 9923 c0 -13 3 -14 8 -6 6 10 89 13 338 16 l329 2 -337 3 c-316 2 -338 1 -338 -15z" />
        <path d="M8538 9933 c68 -2 176 -2 240 0 64 1 9 3 -123 3 -132 0 -185 -2 -117 -3z" />
        <path
            d="M8978 9933 c45 -2 82 -8 82 -13 0 -6 5 -10 11 -10 5 0 7 5 4 10 -4 6 15 10 49 10 46 0 56 -3 57 -17 0 -14 2 -15 6 -3 3 8 11 18 17 22 6 4 -61 7 -149 6 -88 -1 -123 -4 -77 -5z" />
        <path d="M9221 9936 c8 -8 129 -12 129 -4 0 4 -30 8 -67 8 -36 0 -64 -2 -62 -4z" />
        <path
            d="M2695 9880 c5 -27 27 -44 36 -28 4 6 13 7 20 3 8 -5 11 -4 6 1 -5 5 -19 9 -30 9 -12 0 -22 5 -22 12 0 6 -3 15 -7 19 -4 3 -5 -4 -3 -16z" />
        <path d="M7311 9778 c-1 -27 -2 -27 -78 -31 l-78 -3 78 -2 c82 -2 94 5 84 45 -3 12 -5 9 -6 -9z" />
        <path
            d="M9175 9791 c-3 -5 -1 -12 5 -16 6 -4 7 -12 3 -18 -3 -7 3 -3 15 7 23 20 30 32 12 21 -5 -3 -10 -1 -10 4 0 13 -17 14 -25 2z" />
        <path d="M8184 9765 c1 -19 8 -20 111 -20 l110 -1 -107 3 c-91 3 -107 6 -111 21 -3 12 -4 12 -3 -3z" />
        <path
            d="M8934 9732 c4 -19 1 -22 -15 -17 -10 4 -19 2 -19 -2 0 -5 16 -9 35 -10 28 0 33 2 21 11 -7 6 -17 18 -20 26 -3 8 -4 5 -2 -8z" />
        <path d="M8730 9627 c0 -5 8 -7 18 -5 9 1 22 0 27 -4 6 -3 15 0 22 7 9 10 4 12 -28 11 -21 0 -39 -5 -39 -9z" />
        <path d="M4410 9373 l-55 -58 58 55 c53 50 62 60 54 60 -1 0 -27 -26 -57 -57z" />
        <path
            d="M7307 7133 c-12 -12 -8 -153 4 -153 8 0 8 -4 0 -14 -7 -8 -11 -30 -8 -48 l4 -33 1 37 c1 20 7 40 12 43 8 5 8 11 0 20 -8 10 -7 14 2 18 10 4 10 7 1 14 -7 5 -11 18 -10 30 1 15 5 19 12 13 8 -7 12 -5 12 5 0 8 -7 15 -15 15 -10 0 -13 8 -10 30 5 32 5 33 -5 23z" />
        <path d="M5093 6893 c125 -2 329 -2 455 0 125 1 22 2 -228 2 -250 0 -353 -1 -227 -2z" />
        <path
            d="M3346 6491 c-55 -55 -104 -97 -109 -94 -6 4 -7 1 -2 -6 8 -13 38 13 152 131 31 32 60 55 66 51 6 -3 7 -1 3 5 -4 7 -8 12 -9 12 -1 0 -47 -45 -101 -99z" />
        <path
            d="M8154 6439 c-17 -19 -19 -19 -25 -2 -7 16 -8 16 -8 -2 0 -11 4 -29 9 -40 8 -19 9 -19 9 -1 1 11 11 30 23 43 12 13 19 23 16 23 -3 0 -13 -9 -24 -21z" />
        <path d="M7283 6115 c0 -33 2 -45 4 -27 2 18 2 45 0 60 -2 15 -4 0 -4 -33z" />
    </g>
    <g id="layer111" fill="#fdfbf9" stroke="none">
        <path d="M4202 9973 c1044 -2 2752 -2 3795 0 1044 1 190 2 -1897 2 -2087 0 -2941 -1 -1898 -2z" />
        <path
            d="M2460 9931 c23 -4 31 -9 23 -14 -7 -5 -13 -13 -13 -18 0 -6 7 -3 16 5 21 22 9 36 -29 35 l-32 -2 35 -6z" />
        <path d="M2538 9933 c18 -2 45 -2 60 0 15 2 0 4 -33 4 -33 0 -45 -2 -27 -4z" />
        <path
            d="M2320 9917 c1 -65 353 -2067 359 -2040 2 10 34 270 70 578 l66 560 33 3 c17 2 32 6 32 9 0 17 82 671 85 683 4 12 -3 15 -29 14 -24 -1 -37 3 -41 14 -5 13 -8 14 -15 3 -12 -20 -44 -5 -36 17 6 16 5 16 -7 1 -11 -15 -17 -15 -45 -3 -18 7 -32 19 -32 26 0 10 -2 10 -8 1 -10 -15 -101 5 -168 37 -22 11 -46 20 -52 20 -7 0 -12 5 -12 11 0 5 -5 7 -12 3 -6 -4 -17 1 -25 11 -7 11 -13 14 -13 7 0 -7 -31 3 -75 23 -45 20 -75 29 -75 22z" />
        <path
            d="M2699 9903 c0 -5 -2 -19 -5 -33 -2 -14 -1 -20 3 -15 9 12 48 13 59 3 4 -5 14 -8 23 -8 29 0 -6 22 -41 25 -24 2 -32 7 -30 19 2 9 0 16 -3 16 -3 0 -5 -3 -6 -7z" />
        <path
            d="M6526 9812 c-8 -13 82 -76 181 -126 40 -20 75 -36 78 -36 4 0 5 34 3 74 -4 89 3 85 -149 93 -71 4 -108 2 -113 -5z" />
        <path
            d="M6814 9729 c3 -34 6 -70 6 -79 0 -21 68 -42 210 -65 52 -9 105 -18 118 -20 16 -4 22 -1 22 12 -1 12 -28 34 -77 63 -42 25 -92 55 -112 68 -39 24 -156 82 -167 82 -4 0 -4 -28 0 -61z" />
        <path
            d="M7135 9519 c-51 -35 -167 -91 -225 -110 l-55 -17 3 -52 c1 -28 18 -129 37 -225 35 -181 60 -248 123 -322 23 -28 36 -34 97 -43 39 -5 81 -13 94 -16 23 -7 24 -6 18 37 -4 24 -16 207 -29 407 -12 199 -25 362 -28 362 -3 0 -18 -9 -35 -21z" />
        <path
            d="M7758 9483 c-10 -2 -18 -14 -18 -25 0 -16 3 -18 13 -9 8 6 18 7 22 3 5 -4 5 -1 0 7 -4 8 -2 17 6 22 15 9 6 10 -23 2z" />
        <path
            d="M6491 9417 c24 -28 94 -105 156 -169 62 -64 113 -124 113 -133 0 -29 -64 -46 -173 -46 -165 -2 -268 41 -385 160 l-53 54 20 -51 c70 -177 213 -412 339 -559 39 -44 68 -84 64 -89 -4 -4 -2 -4 4 -1 6 3 24 -7 39 -23 l28 -29 34 29 c19 17 55 41 82 54 41 21 52 33 75 85 60 134 77 243 53 331 -9 30 -25 114 -37 185 -12 72 -23 139 -25 151 -4 18 -10 20 -57 16 -75 -6 -161 13 -246 53 l-74 35 43 -53z" />
        <path
            d="M7540 9429 c0 -11 47 -421 105 -911 58 -491 105 -899 105 -907 0 -19 13 -6 17 17 1 9 54 402 118 872 63 470 116 864 118 875 3 18 -2 20 -47 19 -90 -4 -230 16 -245 34 -8 11 -15 13 -18 6 -4 -11 -15 -10 -125 10 -23 5 -28 2 -28 -15z" />
        <path
            d="M6964 8815 c48 -197 183 -530 270 -670 l38 -60 -6 65 c-3 36 -8 120 -12 187 l-7 123 -53 29 c-73 42 -126 118 -149 216 l-7 30 29 -25 c15 -13 4 0 -25 30 -28 30 -59 64 -68 75 l-15 20 5 -20z" />
        <path d="M5077 7183 c105 -2 281 -2 390 0 109 1 23 2 -192 2 -214 0 -304 -1 -198 -2z" />
        <path
            d="M4884 7136 c-59 -26 -74 -58 -74 -157 l0 -89 30 0 30 0 0 94 c0 83 3 97 25 130 13 20 23 36 22 36 -1 -1 -16 -7 -33 -14z" />
        <path d="M5813 6960 c0 -41 2 -58 4 -37 2 20 2 54 0 75 -2 20 -4 3 -4 -38z" />
        <path d="M4763 6955 c0 -38 2 -53 4 -32 2 20 2 52 0 70 -2 17 -4 1 -4 -38z" />
        <path
            d="M4723 6830 c-41 -25 -63 -68 -63 -123 0 -52 -18 -45 189 -73 94 -14 126 -15 129 -6 2 7 11 12 19 12 9 0 13 -6 10 -14 -5 -11 7 -16 46 -21 29 -4 234 -32 457 -64 l405 -56 3 129 c3 144 -4 172 -50 211 l-30 25 -541 0 c-520 0 -543 -1 -574 -20z" />
        <path
            d="M4660 6475 l0 -144 33 -6 c17 -3 291 -41 607 -85 316 -44 585 -81 598 -83 22 -4 22 -4 22 142 l0 147 -127 17 c-71 9 -353 48 -628 87 -275 38 -501 70 -502 70 -2 0 -3 -65 -3 -145z" />
        <path
            d="M4660 6106 c0 -181 1 -186 20 -186 12 0 40 10 63 23 42 22 43 22 610 25 l568 3 -3 72 -3 72 -331 46 c-182 25 -354 49 -382 53 -43 6 -52 4 -52 -9 0 -8 -7 -15 -15 -15 -8 0 -15 8 -15 18 0 16 -25 21 -202 45 -112 16 -215 30 -230 33 l-28 6 0 -186z" />
        <path
            d="M4569 5850 c-65 -34 -94 -79 -133 -205 -80 -254 -156 -379 -388 -639 -189 -213 -316 -467 -380 -759 -19 -89 -22 -131 -22 -322 0 -189 3 -234 22 -322 59 -271 173 -512 343 -719 226 -277 578 -492 922 -564 242 -51 477 -52 702 -4 39 9 78 17 89 19 10 3 21 7 25 10 5 6 -72 1 -161 -10 -23 -3 -38 0 -42 8 -5 9 -7 9 -12 0 -8 -19 -35 -16 -28 2 4 8 1 15 -5 15 -6 0 -11 -7 -11 -15 0 -22 -38 -18 -45 5 -7 21 -25 28 -25 10 0 -5 5 -10 10 -10 6 0 10 -4 10 -9 0 -6 -18 -9 -40 -9 -22 0 -40 4 -40 8 0 4 -24 6 -52 5 -61 -3 -91 2 -82 16 3 5 10 7 15 3 6 -3 9 6 7 23 -2 18 1 27 10 26 17 -4 15 14 -3 21 -8 3 -14 0 -12 -6 1 -7 -8 -13 -20 -14 -42 -3 -44 -4 -38 -15 4 -6 14 -8 22 -5 26 11 35 -5 14 -25 -25 -24 -37 -24 -50 -1 -7 11 -11 12 -11 4 0 -22 -62 -4 -89 26 -23 26 -23 26 -18 4 5 -19 2 -22 -11 -16 -9 4 -29 9 -44 12 -16 2 -28 9 -28 14 0 6 -6 8 -14 5 -7 -3 -26 1 -41 9 -15 8 -36 14 -46 14 -10 0 -21 5 -24 10 -3 6 -15 10 -26 10 -14 0 -19 7 -19 27 0 25 -1 26 -17 11 -15 -16 -20 -15 -75 13 -32 16 -58 34 -58 39 0 6 -6 10 -14 10 -25 0 -86 41 -86 57 0 9 -6 13 -15 9 -9 -3 -15 0 -15 10 0 10 -6 14 -15 10 -24 -9 -270 202 -270 232 0 4 -3 6 -7 5 -4 -2 -28 23 -53 55 -25 31 -51 64 -59 72 -30 33 -87 129 -89 148 0 11 -6 20 -12 19 -5 -1 -9 8 -7 21 2 14 -2 22 -11 22 -12 0 -87 137 -87 159 0 5 7 12 16 15 8 3 12 11 8 17 -4 8 -9 7 -15 -2 -8 -12 -11 -11 -19 1 -14 22 -12 30 5 24 10 -4 15 0 15 11 0 9 -5 13 -10 10 -14 -9 -42 14 -34 27 4 6 2 13 -3 17 -6 3 -20 41 -30 83 -17 64 -18 80 -7 89 7 6 17 8 22 5 11 -7 42 36 47 64 3 13 -1 17 -11 13 -8 -3 -14 -14 -14 -24 0 -10 -4 -20 -10 -20 -5 -1 -15 -2 -20 -3 -6 0 -15 -7 -20 -15 -13 -21 -25 51 -36 207 -6 75 -4 96 7 104 11 7 11 11 2 15 -7 2 -13 17 -13 33 0 16 6 31 13 33 9 4 8 8 -3 17 -12 9 -11 10 8 5 16 -5 22 -2 22 9 0 9 5 16 11 16 5 0 7 5 3 12 -5 8 -11 6 -19 -6 -11 -15 -13 -14 -19 6 -10 40 -6 76 11 93 11 12 13 19 5 24 -13 8 22 184 38 189 6 2 8 8 4 13 -7 12 15 81 30 94 6 6 13 23 14 38 4 62 52 112 52 55 0 -26 13 -15 15 12 1 10 -4 21 -12 24 -18 7 -16 36 3 36 9 0 14 6 11 13 -3 8 -1 20 4 28 7 11 11 11 17 1 6 -9 15 -10 33 -3 23 9 21 13 -11 15 -17 1 -21 41 -3 41 6 0 15 3 19 8 4 4 2 7 -5 7 -16 0 -2 26 67 122 30 43 59 75 65 71 6 -3 7 -2 4 4 -10 16 51 83 70 76 11 -4 14 -2 11 8 -7 20 30 69 52 69 13 0 17 5 14 14 -3 8 4 19 16 26 12 6 19 14 16 17 -2 3 15 32 40 66 24 34 44 65 44 69 0 4 7 8 16 8 8 0 13 4 9 9 -3 6 3 24 14 41 10 18 21 28 23 23 3 -4 3 -2 2 5 -5 20 18 62 34 62 9 0 12 6 8 15 -5 13 12 67 43 140 5 11 16 49 26 85 9 36 23 75 31 88 14 21 13 22 -8 22 -13 -1 -39 -9 -59 -20z" />
        <path d="M2632 5688 c-7 -7 -12 -20 -12 -30 0 -19 37 -24 73 -10 16 7 16 9 2 30 -18 24 -44 29 -63 10z" />
        <path d="M4632 5672 c-12 -12 -24 -22 -27 -22 -9 0 -7 -14 2 -17 14 -5 55 35 51 48 -3 9 -11 6 -26 -9z" />
        <path d="M7715 5654 c-23 -24 -13 -39 28 -42 33 -3 37 -1 37 21 0 37 -37 48 -65 21z" />
        <path
            d="M4500 5406 c0 -8 -6 -16 -12 -19 -7 -2 -10 -7 -7 -11 3 -3 14 -4 23 0 17 7 23 44 6 44 -5 0 -10 -6 -10 -14z" />
        <path
            d="M3905 4370 c-11 -4 -26 -5 -32 -3 -17 7 -16 -12 1 -26 11 -9 15 -8 20 4 3 9 10 14 15 10 5 -3 13 0 16 6 10 15 3 18 -20 9z" />
        <path
            d="M3847 4002 c-14 -3 -14 -7 -4 -23 6 -10 15 -19 20 -19 4 0 6 4 3 9 -3 5 8 11 24 15 17 3 30 9 30 14 0 8 -40 10 -73 4z" />
        <path
            d="M3940 3620 c0 -5 -8 -10 -19 -10 -22 0 -48 -27 -36 -38 4 -4 10 -1 12 6 3 6 9 10 14 6 5 -3 9 0 9 7 0 7 10 9 25 7 28 -6 27 -6 19 16 -7 18 -24 22 -24 6z" />
        <path d="M3983 3303 c-24 -9 -13 -19 22 -20 19 -1 35 3 35 8 0 5 -4 9 -9 9 -5 0 -15 2 -23 4 -7 3 -19 2 -25 -1z" />
        <path d="M4474 2744 c3 -9 6 -20 6 -25 0 -5 4 -9 9 -9 5 0 9 11 9 25 0 15 -6 25 -15 25 -10 0 -13 -6 -9 -16z" />
        <path
            d="M4910 2505 c0 -8 -5 -15 -11 -15 -5 0 -7 -4 -4 -10 3 -5 1 -10 -5 -10 -6 0 -8 -5 -5 -10 9 -15 45 28 38 46 -7 18 -13 18 -13 -1z" />
        <path
            d="M5390 2460 c-13 -8 -8 -25 9 -25 4 0 19 -13 34 -30 17 -20 25 -25 23 -13 -1 10 -11 25 -22 35 -12 10 -23 23 -25 30 -3 8 -9 9 -19 3z" />
    </g>

</svg>