<!DOCTYPE svg PUBLIC "-//W3C//DTD SVG 20010904//EN" "http://www.w3.org/TR/2001/REC-SVG-20010904/DTD/svg10.dtd">
<svg version="1.0" xmlns="http://www.w3.org/2000/svg" viewBox="1920 2690 6950 5930" preserveAspectRatio="xMidYMid meet">
    <g id="layer101" fill="#171717" stroke="none">
        <path
            d="M1920 8610 c0 -10 52 -13 187 -14 34 0 61 -4 60 -9 -1 -5 31 -23 71 -41 51 -21 95 -51 143 -95 l71 -64 20 21 c26 25 21 33 -65 99 -35 27 -56 50 -53 59 3 9 -6 15 -32 19 -20 4 -44 8 -52 9 -8 2 64 1 160 -2 96 -3 177 -6 179 -8 2 -2 7 -33 10 -69 4 -36 11 -69 17 -74 5 -5 72 -14 149 -20 236 -21 249 -22 273 -27 12 -2 22 -8 22 -12 -1 -16 -204 -268 -229 -283 -71 -44 -91 -90 -91 -204 l0 -84 53 -5 c315 -35 776 -91 912 -111 94 -14 184 -23 202 -20 39 7 88 46 109 88 15 27 15 58 -1 341 -9 171 -18 316 -20 321 -2 7 -37 8 -105 3 -57 -4 -104 -9 -106 -10 -1 -2 -14 -101 -28 -222 -14 -120 -26 -220 -28 -221 -2 -2 -95 16 -208 39 -185 39 -205 45 -202 62 2 10 19 71 38 134 72 241 68 226 55 272 -8 24 -28 57 -48 75 l-34 33 58 1 c186 4 498 -2 501 -9 1 -4 41 -6 87 -4 l85 4 11 -31 c6 -17 13 -31 15 -31 13 0 113 45 136 62 43 30 45 15 2 -17 -76 -58 -74 -39 -74 -687 0 -379 3 -578 10 -578 7 0 10 196 11 565 1 311 2 568 3 573 5 20 46 89 62 103 11 9 35 25 54 35 33 18 81 19 1064 22 1159 3 1103 6 1170 -68 20 -23 41 -52 46 -66 6 -16 10 -528 10 -1339 0 -1164 2 -1314 15 -1309 13 5 15 160 15 1308 0 893 -3 1313 -11 1340 -6 21 -29 58 -51 82 -33 36 -37 44 -22 44 11 0 91 1 179 1 l160 1 101 -42 101 -42 42 21 c30 16 40 27 38 42 -2 22 -15 22 446 19 50 0 57 -2 57 -20 0 -13 14 -27 41 -40 l40 -21 100 41 100 41 322 3 c177 2 384 4 460 5 84 0 137 5 137 11 0 7 -1165 10 -3475 10 -2310 0 -3475 -3 -3475 -10z m1242 -17 c-95 -2 -248 -2 -340 0 -92 1 -14 3 173 3 187 0 262 -2 167 -3z m951 0 c-29 -2 -78 -2 -110 0 -32 2 -8 3 52 3 61 0 87 -1 58 -3z" />
        <path
            d="M4404 8466 c-17 -8 -40 -26 -52 -41 -22 -28 -22 -28 -22 -601 0 -376 3 -574 10 -574 7 0 10 192 10 556 0 605 0 607 56 633 18 8 292 11 1000 11 l976 0 29 -29 29 -29 0 -1301 c0 -848 3 -1301 10 -1301 6 0 11 454 12 1298 3 1397 6 1334 -49 1369 -25 17 -91 18 -1003 20 -801 2 -980 0 -1006 -11z" />
        <path
            d="M6914 8403 c3 -21 15 -128 26 -238 37 -358 119 -1083 161 -1414 34 -281 38 -326 25 -333 -12 -7 -14 -43 -9 -248 l6 -240 -67 31 c-48 22 -74 29 -94 24 -22 -5 -301 -104 -309 -110 -4 -2 35 -77 45 -87 4 -4 53 0 108 10 71 13 106 16 122 9 17 -8 32 -6 58 6 23 11 60 17 110 17 63 0 158 17 255 46 13 3 18 -5 24 -33 3 -21 9 -49 12 -62 l6 -23 -80 7 -79 7 -37 -34 -38 -33 7 -97 7 -98 43 0 c23 0 46 -4 49 -10 4 -6 57 -10 126 -10 73 0 119 4 119 10 0 6 30 10 69 10 104 0 108 5 181 226 70 208 71 234 19 278 -17 14 -39 26 -50 26 -16 0 -18 5 -13 43 15 116 30 322 24 325 -4 1 -5 13 -3 25 2 12 30 436 63 942 33 506 62 953 66 993 l6 72 -136 0 c-102 0 -136 -3 -136 -12 -1 -7 -39 -328 -86 -713 -47 -385 -89 -736 -93 -780 -7 -86 -16 -77 -25 25 -3 30 -49 375 -103 765 l-98 710 -144 3 -143 3 6 -38z m269 10 c5 -16 181 -1334 209 -1561 13 -107 30 -103 41 9 11 119 179 1563 182 1567 1 1 56 1 121 0 l119 -3 -57 -860 c-32 -473 -62 -912 -67 -975 -6 -63 -10 -127 -10 -142 l-1 -27 -282 -3 -283 -3 -1 30 c-1 17 -7 62 -13 100 -27 158 -211 1784 -211 1860 l0 25 124 0 c110 0 125 -2 129 -17z" />
        <path
            d="M8387 8413 c-11 -19 74 -663 173 -1303 76 -488 71 -460 81 -460 12 0 16 -31 -41 328 -64 410 -154 1039 -179 1260 -19 168 -23 193 -34 175z" />
        <path
            d="M5360 8381 c-30 -32 -28 -65 6 -87 32 -22 72 -11 85 23 25 67 -43 115 -91 64z m61 -1 c22 -13 25 -52 5 -70 -40 -33 -91 23 -56 61 18 21 26 22 51 9z" />
        <path
            d="M4860 8335 l0 -55 55 0 55 0 0 55 0 55 -55 0 -55 0 0 -55z m90 5 l0 -40 -40 0 -40 0 0 40 0 40 40 0 40 0 0 -40z" />
        <path d="M5900 8365 l-24 -26 34 -32 35 -32 -30 32 -29 33 24 25 c13 14 21 25 18 25 -2 0 -15 -11 -28 -25z" />
        <path
            d="M8328 8310 c-67 -618 -163 -1778 -148 -1794 10 -10 16 36 30 234 19 268 79 974 105 1242 15 142 25 286 23 320 l-3 63 -7 -65z" />
        <path
            d="M8243 8328 c-28 -14 -85 -183 -218 -648 -104 -364 -133 -497 -119 -538 12 -33 53 -41 76 -15 74 81 212 539 243 800 9 79 13 153 10 164 -5 14 -3 19 4 15 6 -4 10 4 9 21 0 15 6 66 15 113 22 114 23 109 -20 88z m-59 -322 c-3 -15 -8 -25 -11 -23 -2 3 -1 17 3 31 3 15 8 25 11 23 2 -3 1 -17 -3 -31z m-25 -90 c-6 -26 -13 -45 -16 -43 -2 3 1 26 8 51 6 26 13 45 16 43 2 -3 -1 -26 -8 -51z m10 -70 c-6 -26 -13 -45 -16 -43 -2 3 1 26 8 51 6 26 13 45 16 43 2 -3 -1 -26 -8 -51z m-60 -120 c-6 -26 -13 -45 -16 -43 -2 3 1 26 8 51 6 26 13 45 16 43 2 -3 -1 -26 -8 -51z m9 -74 c-6 -29 -13 -50 -16 -47 -2 2 1 27 8 55 7 28 14 49 16 47 3 -2 -1 -27 -8 -55z m-37 -147 c-11 -38 -20 -64 -20 -57 -1 19 32 148 36 137 1 -6 -6 -41 -16 -80z m-40 -160 c-11 -38 -20 -64 -20 -57 -1 19 32 148 36 137 1 -6 -6 -41 -16 -80z m-47 -79 c-3 -21 -8 -35 -11 -32 -2 2 -1 20 3 40 3 21 8 35 11 32 2 -2 1 -20 -3 -40z m8 -68 c-12 -12 -32 -2 -31 15 0 9 2 9 6 0 7 -19 23 -16 24 5 0 11 2 13 6 4 3 -8 1 -18 -5 -24z" />
        <path
            d="M2367 8157 c-43 -219 -129 -611 -233 -1061 -52 -225 -94 -414 -94 -420 0 -70 80 255 224 904 102 464 149 701 139 711 -5 5 -20 -51 -36 -134z" />
        <path
            d="M2464 8218 c3 -35 9 -435 13 -890 5 -684 8 -828 20 -828 11 0 13 91 13 523 -1 404 -14 1154 -22 1245 -1 6 -8 12 -16 12 -12 0 -14 -11 -8 -62z" />
        <path
            d="M2544 8209 c4 -35 9 -147 12 -249 4 -167 9 -207 49 -406 66 -330 119 -474 174 -474 67 0 59 95 -60 660 -56 268 -111 506 -120 514 -2 3 -17 8 -33 12 l-29 7 7 -64z m124 -679 c0 -22 -1 -22 -8 5 -4 17 -8 41 -8 55 0 22 1 22 8 -5 4 -16 8 -41 8 -55z" />
        <path
            d="M3320 7611 c238 -188 356 -279 358 -276 2 2 -29 64 -67 138 l-71 134 -78 7 c-42 3 -97 9 -122 12 l-45 5 25 -20z" />
        <path
            d="M4055 7069 c-16 -5 -93 -27 -170 -49 -77 -22 -124 -38 -105 -36 129 17 251 18 321 1 l74 -17 -3 -121 c-3 -113 -5 -123 -31 -161 -75 -110 -190 -360 -246 -538 -14 -43 -25 -80 -25 -82 0 -2 48 -4 108 -5 59 0 123 -5 142 -9 l35 -8 3 -451 2 -451 -35 -21 c-21 -12 -44 -38 -57 -66 -20 -41 -21 -49 -10 -92 11 -40 11 -49 -2 -62 -14 -13 -16 -12 -24 9 -9 24 -9 24 -27 -10 -23 -46 -20 -44 -47 -26 -29 21 -48 20 -48 -1 0 -14 -3 -14 -22 4 -13 11 -34 26 -46 33 -21 10 -23 17 -17 48 21 120 36 142 100 142 38 0 43 3 48 26 2 14 0 27 -7 29 -60 16 -112 43 -149 75 -43 38 -45 39 -51 17 -11 -43 -6 -311 8 -369 24 -102 60 -137 153 -145 50 -4 65 -1 113 24 52 27 56 33 85 105 17 42 34 80 38 84 4 4 7 -107 7 -247 0 -225 3 -259 19 -295 23 -51 90 -108 144 -123 31 -9 319 -11 1088 -9 l1046 3 49 30 c30 19 60 49 79 79 l30 49 3 339 c3 296 1 338 -12 338 -13 0 -16 -45 -18 -343 l-3 -344 -27 -36 c-16 -19 -43 -46 -60 -59 l-33 -23 -1070 -3 -1071 -2 -46 29 c-29 19 -56 46 -70 73 l-23 43 -3 1258 -2 1257 27 -6 c16 -4 46 -12 68 -18 l40 -12 5 -1223 5 -1223 33 -29 32 -29 996 0 c980 0 996 0 1024 20 15 11 33 33 38 50 7 18 11 147 12 321 0 232 -2 290 -12 287 -10 -4 -14 -74 -18 -307 -5 -302 -5 -303 -28 -322 -13 -10 -38 -21 -55 -24 -18 -3 -463 -4 -989 -3 l-958 3 -24 25 c-15 16 -25 38 -26 60 -1 19 -2 564 -1 1211 l1 1176 24 -4 c20 -4 26 1 40 43 9 26 15 48 13 49 -1 1 -68 18 -148 38 -152 38 -183 42 -234 26z" />
        <path
            d="M4514 6970 c-48 -18 -54 -43 -54 -213 0 -137 2 -158 15 -153 8 3 15 1 15 -5 0 -5 -7 -12 -15 -15 -17 -7 -21 -74 -5 -74 6 0 10 -5 10 -11 0 -5 -4 -7 -10 -4 -6 4 -10 -32 -10 -100 0 -99 2 -107 25 -130 l24 -25 453 0 c340 1 457 4 469 13 37 28 39 50 39 362 l0 307 -32 29 c-24 23 -33 27 -39 17 -6 -9 -9 -10 -9 -1 0 9 -60 12 -247 12 -136 0 -241 -4 -234 -8 8 -6 3 -12 -17 -20 -43 -18 -102 -22 -141 -9 -26 8 -35 7 -43 -3 -8 -11 -9 -10 -4 3 8 25 -35 27 -57 3 -10 -11 -16 -15 -13 -8 8 15 -10 27 -19 13 -3 -5 -11 -10 -16 -10 -6 0 -7 5 -4 10 3 6 1 10 -4 10 -18 0 -25 2 -41 10 -8 4 -25 4 -36 0z m11 -27 c-10 -6 -14 -16 -11 -22 4 -5 2 -12 -3 -15 -14 -9 -23 11 -16 33 3 12 14 19 26 18 18 -1 19 -2 4 -14z m576 -23 c5 0 9 -4 9 -8 0 -14 -25 -10 -40 7 -13 13 -12 14 4 8 10 -4 22 -7 27 -7z m-567 -55 c-6 -15 -34 -29 -34 -16 0 5 7 12 16 15 8 3 12 11 8 17 -4 8 -3 9 4 5 6 -4 9 -13 6 -21z m169 5 c3 -11 2 -20 -3 -20 -4 0 -10 9 -13 20 -3 11 -2 20 3 20 4 0 10 -9 13 -20z m-82 -33 c-8 -8 -11 -7 -11 4 0 20 13 34 18 19 3 -7 -1 -17 -7 -23z m-91 -37 c-25 -25 -30 -25 -30 0 0 13 5 18 15 14 8 -4 15 -1 15 6 0 6 4 9 10 5 5 -3 1 -14 -10 -25z m478 -110 c39 -22 75 -47 82 -55 25 -30 3 -59 -83 -107 -46 -27 -87 -48 -92 -48 -5 0 -17 7 -27 17 -15 13 -18 32 -18 105 0 49 5 98 10 109 16 29 51 23 128 -21z m-364 -241 c-3 -6 -7 -9 -8 -7 -1 2 -8 12 -16 22 -14 18 -14 19 8 7 12 -7 20 -17 16 -22z m264 -132 c2 -12 -3 -17 -17 -17 -15 0 -21 6 -21 21 0 25 33 22 38 -4z m72 3 c0 -11 -6 -20 -14 -20 -18 0 -29 16 -21 30 11 18 35 11 35 -10z m78 -3 c2 -12 -3 -17 -17 -17 -15 0 -21 6 -21 21 0 25 33 22 38 -4z" />
        <path
            d="M3557 6880 c-33 -26 -62 -81 -70 -133 -8 -50 -25 -71 -43 -56 -20 17 -17 50 5 56 22 6 34 39 22 61 -16 28 -90 -120 -91 -182 0 -20 10 -38 37 -62 100 -91 252 -110 300 -37 16 23 16 26 1 37 -11 8 -14 17 -7 27 5 8 8 28 8 44 -1 29 -2 29 -13 -9 -11 -35 -17 -40 -59 -51 -37 -9 -47 -9 -51 1 -3 7 -24 18 -48 25 -24 6 -46 16 -50 23 -14 20 4 100 29 134 l24 33 30 -26 c26 -21 44 -28 79 -27 3 0 15 3 27 6 19 6 23 2 31 -26 9 -33 9 -33 19 24 20 113 -2 149 -95 156 -47 3 -62 0 -85 -18z m120 -85 c8 -22 -2 -28 -31 -21 -17 4 -23 11 -20 21 8 20 43 19 51 0z" />
        <path
            d="M3774 5670 c4 -19 13 -93 21 -164 8 -71 17 -131 20 -134 8 -8 7 12 -11 168 -9 80 -21 150 -26 155 -6 6 -7 -3 -4 -25z" />
        <path d="M3170 5675 c0 -3 13 -29 30 -58 36 -63 39 -55 5 13 -23 45 -35 60 -35 45z" />
        <path
            d="M7470 5336 c0 -14 5 -28 10 -31 6 -3 10 -19 10 -36 0 -34 -25 -40 -35 -9 -9 27 -25 25 -25 -2 -1 -29 -43 -78 -68 -78 -10 0 -27 -7 -38 -15 -27 -21 -31 -19 -44 19 -7 22 -16 33 -24 30 -32 -12 -47 -99 -25 -147 12 -27 47 -47 80 -47 34 0 182 69 207 96 32 36 30 109 -4 185 -28 62 -44 75 -44 35z" />
        <path
            d="M4946 3948 c-14 -123 -11 -118 -75 -118 -31 -1 -67 -7 -81 -15 -33 -19 -54 -19 -46 0 5 13 -15 15 -139 15 -80 0 -145 -4 -145 -8 0 -5 -20 -140 -45 -301 -25 -161 -43 -296 -40 -302 11 -17 35 -9 44 14 4 12 25 139 46 282 21 143 41 263 45 268 3 4 139 6 301 5 l294 -3 -61 -23 -62 -24 -7 -65 c-4 -41 -3 -69 3 -75 7 -7 46 2 122 28 l112 39 -5 63 c-5 60 -4 62 19 62 17 0 24 6 24 20 0 19 7 20 154 20 l154 0 6 -27 c2 -16 7 -59 11 -98 18 -221 39 -383 52 -408 14 -28 65 -57 99 -57 32 0 82 32 99 64 17 31 17 43 2 222 -9 104 -19 224 -22 267 -5 63 -12 88 -35 126 -53 86 -52 86 -461 89 l-356 3 -7 -63z" />
        <path
            d="M5575 3055 c3 -33 8 -79 11 -102 7 -48 -4 -55 -36 -23 -11 11 -20 33 -20 50 0 19 -5 30 -14 30 -18 0 -30 -68 -24 -134 2 -25 1 -46 -2 -46 -3 0 -31 9 -63 20 -72 25 -85 25 -89 -2 -4 -23 -4 -23 -15 2 -6 14 -15 34 -18 45 -6 17 -10 15 -26 -20 -25 -54 -25 -119 0 -144 23 -23 81 -41 129 -41 19 0 67 11 108 25 41 14 85 25 99 25 27 0 55 34 55 67 0 25 -62 223 -86 276 -15 32 -15 31 -9 -28z" />
    </g>
    <g id="layer102" fill="#f69e64" stroke="none">
        <path
            d="M4355 8591 c-68 -17 -107 -48 -141 -111 -18 -33 -19 -70 -22 -610 l-2 -575 64 -20 65 -21 3 567 c3 556 3 568 24 596 11 15 36 36 55 45 32 17 99 18 994 17 717 0 969 -3 995 -12 19 -7 44 -27 57 -46 l23 -34 0 -1296 0 -1296 65 3 65 4 0 1318 c0 814 -4 1328 -10 1344 -5 14 -26 43 -46 65 -66 74 -13 71 -1148 70 -556 -1 -1024 -4 -1041 -8z" />
        <path
            d="M6947 8293 c42 -404 129 -1177 168 -1493 25 -201 45 -368 45 -372 0 -5 126 -8 280 -8 l280 0 1 43 c0 23 2 49 3 57 2 8 6 71 10 140 11 206 105 1651 111 1708 l5 52 -114 0 -115 0 -6 -42 c-3 -24 -42 -349 -86 -723 -44 -374 -86 -725 -92 -779 -7 -55 -17 -101 -24 -103 -7 -3 -15 27 -22 84 -7 48 -16 108 -20 133 -5 25 -51 357 -102 738 l-93 692 -121 0 -121 0 13 -127z" />
        <path
            d="M4361 8148 c1 -35 6 -67 13 -71 8 -6 8 -10 -1 -14 -10 -4 -13 -96 -13 -416 l0 -412 56 -23 56 -23 20 26 c11 14 24 25 29 25 14 0 11 -22 -7 -41 -19 -21 -21 -19 104 -69 45 -18 82 -38 82 -45 0 -17 43 -31 151 -50 51 -9 95 -23 113 -36 27 -20 39 -21 227 -20 153 1 199 -2 199 -12 0 -9 2 -9 9 1 6 10 15 6 39 -17 l32 -29 0 -307 c0 -312 -2 -334 -39 -362 -12 -9 -129 -12 -469 -13 l-453 0 -24 25 c-23 23 -25 31 -25 130 0 68 4 104 10 100 6 -3 10 -1 10 4 0 6 -4 11 -10 11 -16 0 -12 67 5 74 8 3 15 10 15 15 0 6 -7 8 -15 5 -13 -5 -15 16 -15 154 l0 160 -25 4 c-14 3 -25 1 -25 -5 0 -5 -11 -7 -25 -5 l-25 5 0 -1203 c0 -1228 0 -1211 34 -1205 5 1 6 -5 3 -13 -4 -10 -1 -13 8 -9 8 3 12 9 9 14 -3 5 2 9 10 9 14 0 14 -3 4 -20 -7 -11 -19 -20 -27 -20 -25 0 2 -19 36 -26 29 -6 31 -4 27 17 l-6 24 19 -23 c18 -22 24 -23 146 -20 83 1 123 6 117 12 -6 6 -10 14 -10 18 0 14 15 9 38 -12 20 -19 33 -21 159 -18 130 3 138 4 138 23 1 22 12 45 23 45 4 0 13 -9 20 -21 12 -19 11 -19 -8 -9 -18 9 -20 8 -20 -15 0 -20 5 -25 24 -25 14 0 28 5 31 10 5 8 11 7 21 -1 12 -10 17 -9 27 1 9 9 9 11 0 6 -13 -7 -28 10 -14 18 4 3 16 -3 26 -14 21 -23 110 -26 132 -4 8 8 20 14 26 14 8 0 8 -3 -1 -9 -10 -6 -8 -10 9 -14 28 -7 39 1 19 13 -11 7 -11 10 -2 10 7 0 15 -7 18 -15 7 -18 31 -20 36 -3 4 10 10 10 32 0 32 -14 80 -16 71 -3 -3 5 -1 12 4 16 5 3 14 -3 20 -12 7 -12 10 -13 11 -4 0 9 4 10 13 3 7 -6 95 -11 219 -11 l206 -2 -5 23 c-3 17 -2 19 5 9 6 -8 17 -11 26 -8 8 3 18 2 21 -3 3 -4 -1 -11 -7 -13 -7 -3 49 -6 125 -6 124 -1 137 1 137 17 1 16 1 16 14 -1 16 -21 61 -15 70 10 3 8 10 12 15 8 25 -15 31 44 31 324 l0 291 -54 0 c-45 0 -54 -3 -59 -20 -6 -23 -27 -27 -27 -5 0 8 -7 15 -15 15 -8 0 -195 -16 -416 -36 -433 -38 -443 -38 -476 12 -9 14 -13 34 -9 48 3 13 2 26 -3 28 -5 2 -11 32 -14 68 -3 36 -6 66 -7 67 0 1 -16 3 -35 5 -20 2 -35 8 -35 13 0 6 15 11 35 13 21 2 35 9 35 17 0 7 3 21 7 31 4 12 3 15 -6 10 -8 -5 -12 -3 -10 5 1 8 1 26 0 42 -1 25 -4 27 -46 27 -25 0 -45 5 -45 10 0 6 23 10 50 10 38 0 50 4 50 15 0 8 -4 15 -10 15 -13 0 -13 106 0 130 6 11 16 17 24 14 8 -3 16 3 19 15 3 12 14 22 26 22 12 1 26 3 31 4 6 1 35 3 65 4 l55 1 0 36 c0 28 3 35 18 32 12 -2 16 -11 14 -32 l-4 -29 71 6 c44 4 69 2 66 -4 -4 -5 -1 -9 4 -9 6 0 11 4 11 8 0 10 7 12 90 16 36 2 72 7 80 10 9 4 25 5 35 4 11 -1 44 1 73 6 37 5 57 5 65 -3 6 -6 18 -11 27 -11 12 0 13 2 1 9 -9 6 -1 11 30 16 29 5 44 4 47 -4 2 -7 10 -6 25 4 25 18 109 20 139 4 18 -10 20 -9 15 5 -4 11 -1 16 12 16 10 0 25 8 35 18 15 17 16 113 16 1220 0 1132 -1 1202 -18 1203 -14 0 -14 2 3 9 13 6 -9 9 -68 8 -84 -1 -88 -2 -103 -27 l-15 -26 6 28 c4 22 2 27 -15 27 -11 0 -20 -6 -20 -12 0 -10 -2 -10 -8 -1 -12 18 -192 16 -192 -2 0 -7 10 -20 23 -29 18 -13 18 -15 2 -8 -11 5 -26 7 -33 5 -9 -4 -11 2 -6 21 5 20 2 26 -10 26 -10 0 -13 -6 -9 -17 6 -17 5 -17 -13 -1 -16 14 -47 16 -202 17 -117 0 -181 -3 -177 -9 3 -6 1 -10 -4 -10 -6 0 -11 5 -11 10 0 6 -7 10 -15 10 -8 0 -15 -4 -15 -10 0 -5 -5 -10 -11 -10 -5 0 -7 5 -4 10 4 6 -18 10 -59 10 -42 0 -66 -4 -70 -12 -5 -10 -7 -10 -12 -1 -8 18 -280 17 -288 0 -5 -9 -7 -9 -12 1 -3 6 -10 12 -15 12 -6 0 -7 -4 -4 -10 3 -5 2 -10 -4 -10 -5 0 -12 6 -15 13 -5 10 -7 10 -12 0 -3 -7 -13 -13 -22 -13 -15 0 -15 2 -2 10 11 7 2 10 -32 10 -27 0 -48 -4 -48 -10 0 -5 -5 -10 -11 -10 -5 0 -8 4 -4 9 8 14 -488 11 -497 -3 -5 -8 -8 -7 -8 2 0 6 -11 12 -25 12 -24 0 -25 -2 -24 -62z m489 37 c-7 -8 -17 -15 -22 -15 -6 0 -5 7 2 15 7 8 17 15 22 15 6 0 5 -7 -2 -15z m1001 -7 c1 -7 1 -16 1 -20 -1 -3 5 -12 13 -18 22 -18 20 -43 -2 -32 -10 5 -25 7 -33 4 -12 -4 -13 -2 -4 9 6 8 11 26 10 42 -2 26 13 40 15 15z m-1241 -17 c0 -11 -31 -24 -38 -16 -3 3 0 5 7 5 7 0 9 5 6 10 -3 6 1 10 9 10 9 0 16 -4 16 -9z m68 -9 c2 -7 -3 -12 -10 -12 -8 0 -15 7 -15 15 0 18 19 15 25 -3z m529 -7 c-2 -21 -37 -65 -50 -65 -3 0 -8 11 -11 25 -4 14 -11 23 -16 20 -6 -3 -10 -1 -10 4 0 16 18 13 27 -4 8 -13 11 -13 30 0 13 9 20 22 17 30 -4 8 -1 15 5 15 7 0 10 -11 8 -25z m153 15 c-8 -5 -11 -12 -8 -16 4 -4 20 1 35 11 l28 18 -17 -25 c-12 -19 -14 -28 -6 -36 7 -7 9 -14 6 -18 -4 -3 -21 8 -38 25 -32 30 -33 51 -2 51 14 0 15 -2 2 -10z m330 -11 c7 -11 10 -23 7 -25 -6 -6 -37 25 -37 37 0 17 19 9 30 -12z m408 9 c7 -7 12 -16 12 -20 0 -15 -15 -8 -28 12 -13 22 -3 27 16 8z m-851 -24 c-9 -9 -28 6 -21 18 4 6 10 6 17 -1 6 -6 8 -13 4 -17z m907 0 c9 -3 16 -12 16 -20 0 -17 -17 -18 -23 -1 -4 9 -8 8 -16 -3 -12 -18 -26 -7 -18 15 7 16 16 18 41 9z m-1606 -21 c16 -16 16 -16 -5 -11 -16 4 -23 0 -27 -15 -4 -18 -8 -19 -18 -9 -10 10 -10 15 2 22 8 5 11 10 7 10 -12 0 2 20 14 20 6 0 18 -8 27 -17z m386 2 c-4 -8 -10 -12 -15 -9 -14 8 -10 24 6 24 9 0 12 -6 9 -15z m-84 -4 c0 -12 -20 -25 -27 -18 -7 7 6 27 18 27 5 0 9 -4 9 -9z m120 2 c0 -5 -5 -15 -10 -23 -8 -12 -10 -11 -10 8 0 12 5 22 10 22 6 0 10 -3 10 -7z m114 -9 c9 -22 -3 -32 -14 -14 -12 19 -12 30 -1 30 5 0 12 -7 15 -16z m259 0 c26 -9 21 -24 -9 -24 -19 0 -25 4 -21 14 3 8 2 17 -4 20 -9 4 -1 2 34 -10z m335 5 c-2 -6 -7 -10 -12 -9 -5 1 -13 -4 -17 -12 -7 -10 -9 -9 -9 4 0 15 12 25 33 27 5 1 7 -4 5 -10z m-1038 -19 c6 -11 7 -20 2 -20 -5 0 -17 9 -27 20 -16 18 -16 20 -2 20 9 0 21 -9 27 -20z m405 11 c10 -17 -9 -20 -30 -5 -18 14 -18 14 2 14 12 0 24 -4 28 -9z m472 -8 c3 -7 -3 -9 -16 -6 -12 3 -21 10 -21 15 0 13 32 6 37 -9z m510 3 c-5 -16 -27 -19 -27 -3 0 7 7 14 15 14 9 0 14 -5 12 -11z m39 -17 c19 -38 9 -52 -36 -47 -43 4 -53 28 -12 28 26 0 29 3 24 25 -6 34 4 31 24 -6z m-1292 -1 c12 -17 18 -19 30 -9 11 9 16 9 22 0 4 -8 3 -9 -4 -5 -7 4 -12 2 -12 -3 0 -6 6 -11 13 -12 6 0 3 -4 -8 -9 -32 -14 -88 -11 -110 6 -14 11 -15 15 -5 14 39 -6 51 0 45 20 -8 27 10 26 29 -2z m1083 2 c6 -22 42 -28 44 -7 0 9 2 9 5 0 3 -7 12 -9 21 -6 13 5 15 2 11 -15 -3 -11 -1 -24 6 -27 6 -3 0 -3 -14 0 -14 2 -34 5 -45 5 -11 0 -25 4 -31 8 -16 10 -27 62 -13 62 6 0 13 -9 16 -20z m473 10 c0 -5 -7 -10 -15 -10 -8 0 -15 5 -15 10 0 6 7 10 15 10 8 0 15 -4 15 -10z m-1196 -15 c-5 -12 4 -15 50 -15 31 0 56 -4 56 -10 0 -5 -6 -10 -12 -10 -9 0 -8 -4 2 -11 11 -8 9 -9 -10 -4 -14 4 -27 7 -30 7 -23 0 -30 -4 -24 -13 4 -8 0 -8 -15 0 -30 17 -47 51 -30 62 19 12 19 11 13 -6z m579 -4 c-2 -6 2 -11 7 -11 6 0 10 8 10 18 1 16 1 16 11 0 5 -10 21 -18 34 -18 14 0 25 -4 25 -10 0 -5 -1 -10 -2 -10 -76 -12 -82 -11 -95 6 -17 23 -17 47 0 41 6 -2 11 -10 10 -16z m402 -10 c-9 -16 -25 -3 -18 15 4 10 9 12 15 6 6 -6 7 -15 3 -21z m155 19 c0 -5 -9 -14 -20 -20 -16 -8 -20 -8 -20 4 0 13 13 23 33 25 4 1 7 -3 7 -9z m-1394 -12 c-5 8 0 12 13 12 12 0 21 -4 21 -10 0 -5 11 -10 25 -10 18 0 25 -5 25 -19 0 -17 -5 -19 -37 -15 -21 3 -45 8 -53 11 -8 4 -18 5 -22 5 -10 -2 -10 22 -1 31 3 4 13 1 21 -6 13 -9 14 -9 8 1z m205 -8 c27 0 24 -18 -5 -26 -18 -4 -61 -2 -96 5 -13 3 28 21 48 21 12 0 22 6 23 13 0 10 2 10 6 0 2 -7 13 -13 24 -13z m419 10 c8 -5 16 -18 16 -29 1 -18 -3 -19 -40 -15 -76 11 -74 37 4 53 3 0 12 -4 20 -9z m870 1 c0 -5 -7 -11 -15 -15 -15 -5 -20 5 -8 17 9 10 23 9 23 -2z m-151 -17 c3 -2 0 -9 -6 -15 -16 -16 -77 -7 -81 12 -2 13 5 15 40 12 24 -3 45 -6 47 -9z m-1551 -6 c-3 -8 -21 -13 -43 -13 -22 0 -40 5 -42 13 -3 8 9 12 42 12 33 0 45 -4 43 -12z m719 -3 c0 -16 -59 -21 -91 -9 -32 12 -14 24 37 24 41 0 54 -4 54 -15z m273 5 c0 -23 -90 -26 -98 -2 -2 8 11 12 47 12 28 0 51 -4 51 -10z m-1120 -22 c0 -9 3 -8 10 2 5 8 12 11 16 8 4 -4 -7 -15 -25 -25 -17 -10 -34 -26 -37 -35 -3 -10 -10 -18 -15 -18 -14 0 -11 33 7 58 16 24 44 30 44 10z m1780 -57 c0 -11 -7 -21 -15 -24 -17 -7 -29 8 -20 23 4 6 0 21 -9 34 -8 13 -12 27 -8 31 10 9 52 -43 52 -64z m-800 -16 c0 -8 -6 -12 -14 -9 -8 3 -12 12 -9 20 6 17 23 9 23 -11z m700 11 c0 -8 -4 -18 -10 -21 -5 -3 -10 3 -10 14 0 12 5 21 10 21 6 0 10 -6 10 -14z m-1480 -6 c0 -5 -7 -10 -15 -10 -8 0 -15 5 -15 10 0 6 7 10 15 10 8 0 15 -4 15 -10z m190 3 c0 -5 -4 -14 -9 -21 -7 -11 -9 -11 -14 1 -3 8 -3 18 0 21 9 8 23 7 23 -1z m230 -38 c0 -8 -4 -16 -9 -19 -5 -3 -8 5 -7 18 1 25 16 26 16 1z m-662 -55 c-4 -60 -22 -71 -26 -16 -4 43 2 66 18 66 7 0 10 -19 8 -50z m1827 -11 c0 -31 -4 -44 -14 -44 -19 0 -30 44 -20 74 14 37 34 19 34 -30z m-905 1 c0 -5 -2 -10 -4 -10 -2 0 -12 -3 -22 -7 -16 -6 -17 -5 -4 10 17 19 30 22 30 7z m590 0 c0 -5 -7 -10 -15 -10 -8 0 -15 5 -15 10 0 6 7 10 15 10 8 0 15 -4 15 -10z m-1512 -141 c-2 -24 -7 -44 -13 -44 -12 0 -19 69 -10 93 11 29 26 -4 23 -49z m629 35 c-9 -9 -28 6 -21 18 4 6 10 6 17 -1 6 -6 8 -13 4 -17z m390 0 c-9 -9 -28 6 -21 18 4 6 10 6 17 -1 6 -6 8 -13 4 -17z m390 0 c-9 -9 -28 6 -21 18 4 6 10 6 17 -1 6 -6 8 -13 4 -17z m194 3 c-13 -13 -26 -3 -16 12 3 6 11 8 17 5 6 -4 6 -10 -1 -17z m227 -32 c4 -39 -11 -66 -27 -49 -4 5 -11 30 -14 56 -6 46 -6 47 16 39 16 -6 23 -18 25 -46z m-1688 -53 c0 -13 -12 -22 -22 -16 -10 6 -1 24 13 24 5 0 9 -4 9 -8z m191 -5 c-1 -12 -15 -9 -19 4 -3 6 1 10 8 8 6 -3 11 -8 11 -12z m390 0 c-1 -12 -15 -9 -19 4 -3 6 1 10 8 8 6 -3 11 -8 11 -12z m979 -2 c0 -8 -4 -15 -10 -15 -5 0 -10 7 -10 15 0 8 5 15 10 15 6 0 10 -7 10 -15z m-1702 -86 c-2 -24 -7 -44 -13 -44 -12 0 -19 69 -10 93 11 29 26 -4 23 -49z m1830 6 c4 -47 -13 -68 -33 -41 -13 17 -12 54 2 79 11 19 28 -2 31 -38z m-1588 -15 c0 -5 -7 -10 -15 -10 -8 0 -15 5 -15 10 0 6 7 10 15 10 8 0 15 -4 15 -10z m-226 -115 c11 -19 16 -38 12 -42 -9 -9 -42 26 -51 55 -11 36 18 27 39 -13z m1806 12 c0 -19 -47 -73 -56 -64 -5 4 -3 16 4 25 7 9 17 27 22 40 10 23 30 22 30 -1z m-310 3 c0 -5 -7 -10 -15 -10 -8 0 -15 5 -15 10 0 6 7 10 15 10 8 0 15 -4 15 -10z m-1345 -75 c0 -11 -59 -19 -82 -11 -8 3 -11 11 -8 16 8 14 90 9 90 -5z m143 3 c-5 -14 -61 -23 -85 -14 -27 11 -2 26 43 26 32 0 44 -4 42 -12z m142 -3 c0 -11 -12 -15 -44 -15 -43 0 -63 10 -49 24 3 3 26 6 50 6 32 0 43 -4 43 -15z m140 0 c0 -11 -12 -15 -44 -15 -43 0 -63 10 -49 24 3 3 26 6 50 6 32 0 43 -4 43 -15z m140 0 c0 -11 -12 -15 -45 -15 -33 0 -45 4 -45 15 0 11 12 15 45 15 33 0 45 -4 45 -15z m140 0 c0 -11 -12 -15 -45 -15 -33 0 -45 4 -45 15 0 11 12 15 45 15 33 0 45 -4 45 -15z m140 0 c0 -11 -12 -15 -45 -15 -33 0 -45 4 -45 15 0 11 12 15 45 15 33 0 45 -4 45 -15z m140 0 c0 -11 -12 -15 -45 -15 -33 0 -45 4 -45 15 0 11 12 15 45 15 33 0 45 -4 45 -15z m140 0 c0 -11 -12 -15 -45 -15 -33 0 -45 4 -45 15 0 11 12 15 45 15 33 0 45 -4 45 -15z m140 0 c0 -11 -12 -15 -45 -15 -33 0 -45 4 -45 15 0 11 12 15 45 15 33 0 45 -4 45 -15z m145 0 c0 -5 -21 -11 -47 -13 -39 -3 -48 0 -48 13 0 13 9 16 48 13 26 -2 47 -7 47 -13z m140 0 c0 -5 -21 -11 -47 -13 -39 -3 -48 0 -48 13 0 13 9 16 48 13 26 -2 47 -7 47 -13z m-1545 -155 c0 -23 -90 -26 -98 -2 -2 8 11 12 47 12 28 0 51 -4 51 -10z m138 -2 c-5 -16 -41 -22 -74 -14 -42 11 -26 26 27 26 36 0 49 -4 47 -12z m140 0 c-3 -8 -21 -13 -43 -13 -22 0 -40 5 -42 13 -3 8 9 12 42 12 33 0 45 -4 43 -12z m140 0 c-3 -8 -21 -13 -43 -13 -22 0 -40 5 -42 13 -3 8 9 12 42 12 33 0 45 -4 43 -12z m140 0 c-3 -8 -21 -13 -43 -13 -22 0 -40 5 -42 13 -3 8 9 12 42 12 33 0 45 -4 43 -12z m152 2 c0 -23 -90 -26 -98 -2 -2 8 11 12 47 12 28 0 51 -4 51 -10z m408 -2 c-3 -8 -21 -13 -43 -13 -22 0 -40 5 -42 13 -3 8 9 12 42 12 33 0 45 -4 43 -12z m140 0 c-3 -8 -21 -13 -43 -13 -22 0 -40 5 -42 13 -3 8 9 12 42 12 33 0 45 -4 43 -12z m142 2 c0 -23 -90 -26 -98 -2 -2 8 11 12 47 12 28 0 51 -4 51 -10z m140 0 c0 -23 -90 -26 -98 -2 -2 8 11 12 47 12 28 0 51 -4 51 -10z m-560 -11 c0 -16 -52 -69 -62 -63 -16 10 31 73 55 74 4 0 7 -5 7 -11z m632 -16 c23 -26 32 -63 16 -63 -13 0 -48 52 -48 71 0 14 16 10 32 -8z m-831 -41 c6 -48 -15 -62 -23 -14 -3 15 -9 35 -13 46 -6 14 -4 17 11 14 14 -2 21 -15 25 -46z m154 -97 c0 -30 -4 -41 -17 -43 -15 -3 -18 4 -18 43 0 39 3 46 18 43 13 -2 17 -13 17 -43z m711 11 c9 -37 1 -70 -18 -74 -15 -3 -18 4 -18 41 0 24 3 47 7 50 12 13 23 7 29 -17z m-861 -51 c0 -50 -18 -72 -30 -36 -9 28 5 93 19 88 6 -2 11 -25 11 -52z m151 -69 c9 -37 1 -70 -18 -74 -15 -3 -18 4 -18 41 0 24 3 47 7 50 12 13 23 7 29 -17z m710 -20 c9 -37 1 -70 -18 -74 -15 -3 -18 4 -18 41 0 24 3 47 7 50 12 13 23 7 29 -17z m-711 -136 c7 -43 2 -60 -21 -60 -10 0 -14 12 -14 43 0 69 24 81 35 17z m709 -14 c8 -39 -1 -66 -20 -66 -10 0 -14 14 -14 50 0 59 24 71 34 16z m-710 -120 c8 -39 -1 -66 -20 -66 -10 0 -14 14 -14 50 0 59 24 71 34 16z m714 -26 c1 -19 -2 -41 -7 -49 -15 -24 -31 -1 -31 45 0 38 3 45 18 42 12 -2 18 -14 20 -38z m-710 -120 c1 -19 -2 -41 -7 -49 -15 -24 -31 -1 -31 45 0 38 3 45 18 42 12 -2 18 -14 20 -38z m710 -20 c1 -19 -2 -41 -7 -49 -15 -24 -31 -1 -31 45 0 38 3 45 18 42 12 -2 18 -14 20 -38z m-708 -124 c0 -37 -14 -61 -29 -52 -12 8 -15 88 -4 99 12 13 33 -16 33 -47z m708 -25 c-2 -25 -8 -37 -20 -39 -15 -3 -18 4 -18 41 0 50 7 62 27 45 9 -7 13 -25 11 -47z m-710 -120 c-2 -25 -8 -37 -20 -39 -15 -3 -18 4 -18 41 0 50 7 62 27 45 9 -7 13 -25 11 -47z m708 15 c9 -37 1 -70 -18 -74 -15 -3 -18 4 -18 41 0 24 3 47 7 50 12 13 23 7 29 -17z m-1816 -67 c0 -37 -4 -49 -15 -49 -11 0 -15 12 -15 48 0 27 3 52 6 55 15 14 24 -7 24 -54z m958 -13 c3 -41 1 -47 -15 -44 -19 3 -30 55 -19 85 12 29 31 6 34 -41z m148 -40 c9 -37 1 -70 -18 -74 -15 -3 -18 4 -18 41 0 24 3 47 7 50 12 13 23 7 29 -17z m709 -36 c7 -43 2 -60 -21 -60 -10 0 -14 13 -14 50 0 63 25 70 35 10z m-1678 -6 c-9 -9 -28 6 -21 18 4 6 10 6 17 -1 6 -6 8 -13 4 -17z m194 3 c-13 -13 -26 -3 -16 12 3 6 11 8 17 5 6 -4 6 -10 -1 -17z m390 0 c-13 -13 -26 -3 -16 12 3 6 11 8 17 5 6 -4 6 -10 -1 -17z m-723 -48 c-2 -24 -7 -44 -13 -44 -12 0 -19 69 -10 93 11 29 26 -4 23 -49z m960 -13 c3 -41 1 -47 -15 -44 -19 3 -30 55 -19 85 12 29 31 6 34 -41z m-918 -31 c0 -8 -4 -15 -10 -15 -5 0 -10 7 -10 15 0 8 5 15 10 15 6 0 10 -7 10 -15z m390 0 c0 -8 -4 -15 -10 -15 -5 0 -10 7 -10 15 0 8 5 15 10 15 6 0 10 -7 10 -15z m390 0 c0 -8 -4 -15 -10 -15 -5 0 -10 7 -10 15 0 8 5 15 10 15 6 0 10 -7 10 -15z m285 -25 c7 -43 2 -60 -21 -60 -10 0 -14 13 -14 50 0 63 25 70 35 10z m709 -14 c8 -39 -1 -66 -20 -66 -10 0 -14 14 -14 50 0 59 24 71 34 16z m-1816 -57 c-2 -24 -7 -44 -13 -44 -12 0 -19 69 -10 93 11 29 26 -4 23 -49z m960 -13 c3 -41 1 -47 -15 -44 -10 2 -19 12 -22 23 -2 11 -8 23 -13 26 -12 8 22 51 37 46 5 -2 11 -25 13 -51z m-627 11 c-1 -12 -15 -9 -19 4 -3 6 1 10 8 8 6 -3 11 -8 11 -12z m390 0 c-1 -12 -15 -9 -19 4 -3 6 1 10 8 8 6 -3 11 -8 11 -12z m387 -56 c5 -35 -7 -71 -23 -71 -11 0 -15 13 -15 51 0 43 3 50 18 47 9 -2 18 -14 20 -27z m707 -35 c0 -57 -22 -58 -27 -1 -2 36 0 45 12 43 10 -2 15 -15 15 -42z m-1817 -47 c-2 -24 -7 -44 -13 -44 -12 0 -19 69 -10 93 11 29 26 -4 23 -49z m242 41 c0 -5 -7 -10 -15 -10 -8 0 -15 5 -15 10 0 6 7 10 15 10 8 0 15 -4 15 -10z m390 0 c0 -5 -7 -10 -15 -10 -8 0 -15 5 -15 10 0 6 7 10 15 10 8 0 15 -4 15 -10z m328 -54 c3 -41 1 -47 -15 -44 -19 3 -30 55 -19 85 12 29 31 6 34 -41z m-627 -49 c-13 -13 -26 -3 -16 12 3 6 11 8 17 5 6 -4 6 -10 -1 -17z m390 0 c-13 -13 -26 -3 -16 12 3 6 11 8 17 5 6 -4 6 -10 -1 -17z m-721 -73 c0 -32 -4 -44 -15 -44 -11 0 -15 11 -15 43 0 24 3 47 6 50 14 14 24 -6 24 -49z m40 -19 c0 -8 -4 -15 -10 -15 -5 0 -10 7 -10 15 0 8 5 15 10 15 6 0 10 -7 10 -15z m390 0 c0 -8 -4 -15 -10 -15 -5 0 -10 7 -10 15 0 8 5 15 10 15 6 0 10 -7 10 -15z m390 0 c0 -8 -4 -15 -10 -15 -5 0 -10 7 -10 15 0 8 5 15 10 15 6 0 10 -7 10 -15z m-817 -97 c2 -13 8 -31 12 -40 5 -13 3 -18 -8 -18 -18 0 -42 54 -33 75 8 21 22 12 29 -17z m137 4 c0 -13 -12 -22 -22 -16 -10 6 -1 24 13 24 5 0 9 -4 9 -8z m191 -5 c-1 -12 -15 -9 -19 4 -3 6 1 10 8 8 6 -3 11 -8 11 -12z m390 0 c-1 -12 -15 -9 -19 4 -3 6 1 10 8 8 6 -3 11 -8 11 -12z m-571 -77 c0 -5 -20 -10 -45 -10 -25 0 -45 5 -45 10 0 6 20 10 45 10 25 0 45 -4 45 -10z m140 0 c0 -5 -20 -10 -45 -10 -25 0 -45 5 -45 10 0 6 20 10 45 10 25 0 45 -4 45 -10z m140 0 c0 -5 -20 -10 -45 -10 -25 0 -45 5 -45 10 0 6 20 10 45 10 25 0 45 -4 45 -10z m140 0 c0 -5 -20 -10 -45 -10 -25 0 -45 5 -45 10 0 6 20 10 45 10 25 0 45 -4 45 -10z m140 0 c0 -5 -20 -10 -45 -10 -25 0 -45 5 -45 10 0 6 20 10 45 10 25 0 45 -4 45 -10z m-535 -155 c0 -5 -21 -11 -47 -13 -39 -3 -48 0 -48 13 0 13 9 16 48 13 26 -2 47 -7 47 -13z m140 0 c0 -5 -21 -11 -47 -13 -39 -3 -48 0 -48 13 0 13 9 16 48 13 26 -2 47 -7 47 -13z m140 0 c0 -5 -21 -11 -47 -13 -39 -3 -48 0 -48 13 0 13 9 16 48 13 26 -2 47 -7 47 -13z m140 0 c0 -5 -21 -11 -47 -13 -45 -3 -58 4 -41 22 11 10 88 3 88 -9z m140 0 c0 -11 -59 -19 -82 -11 -8 3 -11 11 -8 16 8 14 90 9 90 -5z m-708 -39 c-9 -9 -19 -25 -22 -36 -8 -27 -25 -25 -25 2 0 28 40 72 53 59 6 -6 4 -16 -6 -25z m-27 -146 c0 -38 -4 -50 -15 -50 -11 0 -15 12 -15 50 0 38 4 50 15 50 11 0 15 -12 15 -50z m0 -140 c0 -38 -4 -50 -15 -50 -11 0 -15 12 -15 50 0 38 4 50 15 50 11 0 15 -12 15 -50z m1825 -6 c0 -37 -4 -49 -15 -49 -16 0 -27 63 -16 92 12 31 31 6 31 -43z m-1825 -134 c0 -38 -4 -50 -15 -50 -11 0 -15 12 -15 50 0 38 4 50 15 50 11 0 15 -12 15 -50z m1828 -7 c-2 -35 -7 -48 -18 -48 -10 0 -16 12 -18 33 -4 43 3 62 23 62 13 0 15 -10 13 -47z m-1814 -124 c19 -43 16 -60 -8 -40 -17 14 -37 67 -29 75 12 11 18 5 37 -35z m1809 10 c3 -12 3 -18 0 -15 -3 3 -14 -6 -25 -19 -22 -28 -38 -32 -38 -10 0 8 4 15 8 15 5 0 14 11 20 25 14 31 28 32 35 4z m-1687 -59 c19 0 34 -4 34 -10 0 -5 -22 -10 -50 -10 -27 0 -50 2 -50 5 0 12 25 33 28 24 2 -5 19 -9 38 -9z m738 -4 c-4 -11 -19 -16 -50 -16 -24 0 -44 5 -44 10 0 6 20 10 45 10 28 0 45 5 45 12 0 6 2 9 5 6 3 -3 3 -13 -1 -22z m657 4 c31 0 48 -4 44 -10 -6 -9 -95 -15 -95 -6 0 2 -2 10 -3 18 -2 7 -2 10 0 6 3 -5 27 -8 54 -8z m-1221 -11 c0 -5 -22 -9 -50 -9 -61 0 -67 18 -7 22 47 3 57 1 57 -13z m280 0 c0 -5 -20 -9 -45 -9 -52 0 -61 17 -12 22 37 4 57 -1 57 -13z m140 0 c0 -5 -20 -9 -45 -9 -40 0 -54 7 -41 21 9 8 86 -3 86 -12z m280 0 c0 -5 -20 -9 -45 -9 -29 0 -45 4 -45 13 0 8 14 11 45 9 25 -2 45 -8 45 -13z m391 11 c16 0 29 -4 29 -10 0 -5 -20 -10 -45 -10 -35 0 -45 4 -45 16 0 11 5 14 16 10 9 -3 29 -6 45 -6z m-951 -10 c0 -5 -22 -10 -50 -10 -27 0 -50 5 -50 10 0 6 23 10 50 10 28 0 50 -4 50 -10z m710 0 c0 -5 -22 -10 -50 -10 -27 0 -50 5 -50 10 0 6 23 10 50 10 28 0 50 -4 50 -10z m130 0 c0 -5 -20 -10 -45 -10 -25 0 -45 5 -45 10 0 6 20 10 45 10 25 0 45 -4 45 -10z m430 0 c0 -5 -22 -10 -50 -10 -27 0 -50 5 -50 10 0 6 23 10 50 10 28 0 50 -4 50 -10z m-1196 -116 c9 -3 14 -10 11 -14 -6 -10 -45 -1 -45 11 0 10 12 11 34 3z m525 -17 c8 -10 7 -14 -4 -14 -8 0 -16 6 -19 14 -3 7 -2 13 3 13 5 0 14 -6 20 -13z m118 -9 c2 -16 0 -19 -6 -9 -6 8 -14 10 -22 5 -12 -6 -12 -5 0 9 18 23 26 21 28 -5z m190 4 c-10 -10 -17 -24 -17 -30 0 -7 -4 -12 -10 -12 -16 0 -12 22 8 41 23 24 40 24 19 1z m-97 -18 c0 -8 -7 -14 -16 -14 -8 0 -12 5 -9 10 3 6 -4 10 -17 10 -17 0 -19 3 -9 9 18 12 51 2 51 -15z m-780 -14 c0 -15 -5 -12 -26 11 -19 22 -19 22 4 10 12 -6 22 -16 22 -21z m1141 21 c4 7 11 10 15 7 3 -4 -1 -14 -10 -23 -9 -9 -16 -14 -16 -12 0 3 -2 11 -3 19 -2 7 -2 9 1 4 2 -4 8 -2 13 5z m146 -27 c-9 -9 -28 6 -21 18 4 6 10 6 17 -1 6 -6 8 -13 4 -17z" />
        <path
            d="M4192 5703 l3 -1258 23 -43 c14 -27 41 -54 70 -73 l46 -29 1071 2 1070 3 33 23 c17 13 44 40 60 59 l27 36 3 345 3 345 -32 -7 c-17 -3 -47 -6 -65 -6 l-34 0 0 -290 c0 -315 -4 -340 -53 -373 -24 -16 -101 -17 -1021 -17 l-996 0 -32 29 -33 29 -5 1223 -5 1223 -40 12 c-22 6 -52 14 -68 18 l-27 6 2 -1257z" />
        <path
            d="M4495 6939 c-7 -23 2 -42 17 -33 7 4 6 9 -2 14 -7 4 -9 13 -6 19 4 6 11 9 16 6 5 -3 11 -2 14 3 2 4 -4 8 -14 9 -11 1 -22 -7 -25 -18z" />
        <path d="M3626 6795 c-3 -10 3 -17 20 -21 29 -7 39 -1 31 21 -8 19 -43 20 -51 0z" />
        <path
            d="M4880 6711 c-5 -11 -10 -60 -10 -109 0 -73 3 -92 18 -105 10 -10 22 -17 27 -17 5 0 46 21 92 48 86 48 108 77 83 107 -20 25 -150 95 -176 95 -13 0 -28 -9 -34 -19z" />
        <path d="M4870 6321 c0 -15 6 -21 21 -21 25 0 22 33 -4 38 -12 2 -17 -3 -17 -17z" />
        <path d="M4945 6330 c-8 -14 3 -30 21 -30 8 0 14 9 14 20 0 21 -24 28 -35 10z" />
        <path d="M5020 6321 c0 -15 6 -21 21 -21 25 0 22 33 -4 38 -12 2 -17 -3 -17 -17z" />
        <path d="M6855 5800 l-30 -8 30 0 c17 0 39 3 50 8 l20 9 -20 -1 c-11 0 -33 -4 -50 -8z" />
        <path
            d="M6459 5546 c-2 -2 -44 -6 -94 -9 -145 -9 -299 -28 -308 -36 -18 -18 15 -18 208 0 110 10 210 18 223 19 30 0 29 30 -1 30 -13 0 -26 -2 -28 -4z" />
        <path
            d="M5605 5476 c-55 -25 -80 -62 -80 -119 0 -60 22 -97 73 -121 59 -29 111 -16 162 39 20 21 25 37 25 80 0 60 -25 97 -82 121 -40 17 -59 17 -98 0z" />
        <path
            d="M6447 5425 c-196 -18 -365 -36 -374 -39 -10 -4 -13 -10 -7 -15 9 -9 740 52 771 63 18 7 7 26 -15 25 -9 -1 -178 -16 -375 -34z" />
        <path d="M7307 5343 c-4 -3 -7 -15 -7 -25 0 -15 5 -17 28 -12 34 9 34 8 26 28 -6 16 -35 22 -47 9z" />
        <path
            d="M6460 5304 c-195 -18 -361 -33 -367 -33 -7 -1 -13 -8 -13 -16 0 -11 9 -13 43 -9 23 2 194 18 380 34 186 17 343 32 348 36 14 8 0 24 -19 23 -9 -1 -177 -16 -372 -35z" />
        <path d="M2657 5284 c-4 -4 -7 -11 -7 -16 0 -12 369 -5 373 7 2 11 -355 20 -366 9z" />
        <path d="M2650 5171 c0 -16 31 -21 135 -21 57 0 110 3 119 6 42 16 4 24 -119 24 -74 0 -135 -4 -135 -9z" />
        <path d="M2983 5168 c3 -10 45 -13 167 -13 122 0 164 3 168 13 3 9 -35 12 -168 12 -133 0 -171 -3 -167 -12z" />
        <path d="M2652 5068 c3 -9 24 -13 61 -13 79 0 77 19 -2 23 -48 2 -62 0 -59 -10z" />
        <path d="M2817 5074 c-19 -20 27 -24 254 -24 215 0 249 2 249 15 0 13 -34 15 -248 15 -137 0 -252 -3 -255 -6z" />
        <path d="M3896 5031 c-3 -5 5 -11 19 -13 20 -4 23 -3 14 8 -13 16 -25 18 -33 5z" />
        <path d="M2657 4974 c-19 -20 4 -24 124 -24 100 0 130 3 127 13 -5 13 -238 24 -251 11z" />
        <path d="M2950 4965 c0 -13 26 -15 186 -15 144 0 185 3 182 13 -4 9 -52 13 -186 15 -158 2 -182 0 -182 -13z" />
        <path d="M2653 4858 c2 -9 27 -13 77 -13 50 0 75 4 78 13 3 9 -17 12 -78 12 -61 0 -81 -3 -77 -12z" />
    </g>
    <g id="layer103" fill="#f8af6e" stroke="none">
        <path
            d="M2145 8500 c-4 -6 -3 -9 2 -8 4 1 21 -6 36 -16 15 -10 30 -16 33 -13 3 3 -4 8 -15 12 -13 4 -19 11 -15 18 4 7 4 9 -1 5 -4 -4 -14 -3 -21 3 -8 7 -14 7 -19 -1z" />
        <path
            d="M2311 8471 c-8 -5 -26 -7 -40 -4 -14 2 -22 1 -18 -3 4 -4 1 -14 -6 -23 -10 -14 -10 -14 4 -4 9 7 19 10 22 6 4 -3 13 0 21 6 8 7 19 10 24 7 5 -3 9 1 9 9 0 8 -1 15 -1 15 -1 0 -7 -4 -15 -9z" />
        <path d="M4913 8443 c263 -2 691 -2 950 0 260 1 45 2 -478 2 -522 0 -735 -1 -472 -2z" />
        <path d="M2365 8368 c1 -14 9 -22 23 -23 l22 -2 -22 24 c-26 28 -25 28 -23 1z" />
        <path d="M4874 8366 c-3 -8 -4 -27 -1 -43 3 -24 4 -23 6 9 1 35 3 37 39 41 l37 4 -38 1 c-24 1 -40 -3 -43 -12z" />
        <path
            d="M2500 8350 c0 -5 -8 -7 -17 -3 -14 4 -15 3 -7 -6 6 -6 18 -9 27 -5 18 7 23 24 7 24 -5 0 -10 -4 -10 -10z" />
        <path
            d="M2423 8294 c4 -4 2 -13 -4 -20 -7 -8 -6 -14 2 -20 8 -4 9 -3 5 4 -4 7 -1 12 8 12 21 0 20 16 -1 24 -10 4 -14 4 -10 0z" />
        <path d="M4883 8273 c15 -2 39 -2 55 0 15 2 2 4 -28 4 -30 0 -43 -2 -27 -4z" />
        <path d="M2348 8183 c-21 -5 -24 -23 -4 -23 8 0 16 7 20 15 3 8 4 14 3 14 -1 -1 -10 -3 -19 -6z" />
        <path d="M5186 8131 c-10 -11 -13 -21 -7 -25 10 -7 24 10 27 32 3 16 0 15 -20 -7z" />
        <path
            d="M5360 8135 c-10 -12 -9 -16 6 -22 11 -3 22 -11 26 -17 5 -8 8 -8 8 0 0 6 -7 17 -15 24 -8 7 -12 16 -9 21 9 15 -3 10 -16 -6z" />
        <path
            d="M4506 8099 c5 -19 4 -21 -5 -9 -7 9 -11 10 -11 3 0 -6 5 -15 10 -18 14 -9 25 24 12 37 -8 8 -9 4 -6 -13z" />
        <path d="M4615 8090 c20 -22 31 -20 22 5 -4 8 -14 15 -23 15 -16 0 -16 -2 1 -20z" />
        <path d="M6000 8093 c0 -7 4 -13 9 -13 5 0 11 6 14 13 3 8 -1 14 -9 14 -8 0 -14 -6 -14 -14z" />
        <path d="M5836 8094 c7 -3 9 -15 7 -27 -5 -17 -3 -20 7 -10 15 14 6 43 -12 42 -9 0 -9 -2 -2 -5z" />
        <path
            d="M2307 8078 c-6 -18 5 -42 23 -46 12 -3 12 0 -1 15 -9 10 -14 24 -12 31 3 6 3 12 0 12 -3 0 -7 -6 -10 -12z" />
        <path
            d="M5121 8081 c-17 -11 0 -46 32 -61 21 -10 21 -10 3 4 -10 8 -19 26 -20 40 0 14 -1 26 -1 26 0 0 -6 -4 -14 -9z" />
        <path d="M5690 8075 c0 -9 5 -15 11 -13 6 2 11 8 11 13 0 5 -5 11 -11 13 -6 2 -11 -4 -11 -13z" />
        <path d="M6097 8076 c-3 -8 -2 -18 3 -21 13 -8 24 15 12 27 -6 6 -11 4 -15 -6z" />
        <path d="M5430 8036 c0 -8 61 -12 66 -4 3 4 -11 8 -30 8 -20 0 -36 -2 -36 -4z" />
        <path
            d="M2305 8001 c3 -6 0 -13 -7 -18 -7 -4 -14 -18 -14 -30 -1 -13 3 -20 7 -17 5 3 9 14 9 24 0 10 7 23 16 28 15 8 15 10 0 15 -10 4 -14 3 -11 -2z" />
        <path d="M6203 7960 c-1 -11 2 -18 8 -15 11 7 12 35 1 35 -4 0 -8 -9 -9 -20z" />
        <path d="M5144 7924 c-1 -13 2 -21 7 -18 11 6 12 31 2 37 -5 3 -9 -6 -9 -19z" />
        <path d="M2553 7880 c0 -25 2 -35 4 -22 2 12 2 32 0 45 -2 12 -4 2 -4 -23z" />
        <path
            d="M2336 7886 c-4 -15 -5 -31 -1 -34 3 -3 5 1 5 10 0 8 10 20 23 27 12 6 14 9 5 7 -9 -3 -18 0 -21 7 -2 7 -7 -1 -11 -17z" />
        <path d="M6288 7883 c-2 -10 -1 -29 3 -43 5 -20 6 -16 7 18 0 45 -3 52 -10 25z" />
        <path d="M6323 7860 c0 -25 2 -35 4 -22 2 12 2 32 0 45 -2 12 -4 2 -4 -23z" />
        <path d="M6323 7720 c0 -25 2 -35 4 -22 2 12 2 32 0 45 -2 12 -4 2 -4 -23z" />
        <path d="M6293 7715 c0 -22 2 -30 4 -17 2 12 2 30 0 40 -3 9 -5 -1 -4 -23z" />
        <path d="M6294 7616 c-3 -8 -4 -21 -1 -28 3 -7 6 -3 6 10 2 39 20 24 24 -20 l4 -43 -1 44 c-1 45 -20 67 -32 37z" />
        <path d="M5603 7075 c0 -22 2 -30 4 -17 2 12 2 30 0 40 -3 9 -5 -1 -4 -23z" />
        <path
            d="M5440 7083 c5 -2 10 -24 10 -48 0 -24 -5 -46 -10 -48 -6 -3 -5 -4 2 -3 8 2 13 20 13 51 0 31 -5 49 -13 51 -7 1 -8 0 -2 -3z" />
        <path d="M6313 7055 c0 -22 2 -30 4 -17 2 12 2 30 0 40 -3 9 -5 -1 -4 -23z" />
        <path d="M5603 6935 c0 -22 2 -30 4 -17 2 12 2 30 0 40 -3 9 -5 -1 -4 -23z" />
        <path d="M6313 6915 c0 -22 2 -30 4 -17 2 12 2 30 0 40 -3 9 -5 -1 -4 -23z" />
        <path d="M6313 6645 c0 -22 2 -30 4 -17 2 12 2 30 0 40 -3 9 -5 -1 -4 -23z" />
        <path d="M5603 6525 c0 -22 2 -30 4 -17 2 12 2 30 0 40 -3 9 -5 -1 -4 -23z" />
        <path d="M6313 6505 c0 -22 2 -30 4 -17 2 12 2 30 0 40 -3 9 -5 -1 -4 -23z" />
        <path d="M5603 6385 c0 -22 2 -30 4 -17 2 12 2 30 0 40 -3 9 -5 -1 -4 -23z" />
        <path d="M6313 6365 c0 -22 2 -30 4 -17 2 12 2 30 0 40 -3 9 -5 -1 -4 -23z" />
        <path d="M5603 6245 c0 -22 2 -30 4 -17 2 12 2 30 0 40 -3 9 -5 -1 -4 -23z" />
        <path d="M6313 6225 c0 -22 2 -30 4 -17 2 12 2 30 0 40 -3 9 -5 -1 -4 -23z" />
        <path
            d="M5424 6217 c-3 -8 -4 -30 -1 -49 3 -30 4 -29 5 10 3 57 20 53 25 -5 l4 -48 -1 49 c-1 49 -20 74 -32 43z" />
        <path d="M5603 6105 c0 -22 2 -30 4 -17 2 12 2 30 0 40 -3 9 -5 -1 -4 -23z" />
        <path
            d="M5424 6077 c-3 -8 -4 -30 -1 -49 3 -30 4 -29 5 10 3 57 20 53 25 -5 l4 -48 -1 49 c-1 49 -20 74 -32 43z" />
        <path d="M5599 5952 c-3 -20 -2 -29 4 -23 5 5 7 19 5 32 -3 20 -5 19 -9 -9z" />
        <path
            d="M5424 5937 c-3 -8 -4 -30 -1 -49 3 -30 4 -29 5 10 3 57 20 53 25 -5 l4 -48 -1 49 c-1 49 -20 74 -32 43z" />
        <path d="M5603 5835 c0 -22 2 -30 4 -17 2 12 2 30 0 40 -3 9 -5 -1 -4 -23z" />
        <path d="M6313 5815 c0 -22 2 -30 4 -17 2 12 2 30 0 40 -3 9 -5 -1 -4 -23z" />
        <path d="M5424 5796 c-3 -8 -4 -29 -2 -48 3 -29 4 -27 8 15 5 48 3 58 -6 33z" />
        <path d="M5453 5755 c0 -27 2 -38 4 -22 2 15 2 37 0 50 -2 12 -4 0 -4 -28z" />
        <path d="M3919 5036 c10 -11 8 -15 -6 -19 -10 -3 -6 -4 9 -4 25 1 26 2 11 19 -19 21 -31 24 -14 4z" />
        <path
            d="M6294 4997 c-11 -29 0 -92 16 -92 11 0 15 12 15 49 0 49 -19 74 -31 43z m26 -42 c0 -25 -4 -45 -10 -45 -5 0 -10 20 -10 45 0 25 5 45 10 45 6 0 10 -20 10 -45z" />
        <path d="M6322 4818 c-2 -59 -21 -64 -24 -5 l-1 42 -4 -39 c-5 -42 10 -67 28 -49 5 5 9 30 6 54 l-4 44 -1 -47z" />
        <path
            d="M4381 4488 c13 -24 31 -23 47 2 10 17 10 20 -4 20 -8 0 -13 -4 -10 -9 3 -5 -1 -12 -10 -15 -11 -4 -15 -2 -11 7 3 8 -1 14 -8 14 -10 0 -11 -5 -4 -19z" />
        <path
            d="M5075 4496 c-14 -10 -15 -15 -5 -21 9 -5 11 -4 6 3 -9 15 -1 15 27 0 21 -11 21 -10 7 8 -8 10 -15 20 -15 21 -1 2 -10 -3 -20 -11z" />
        <path d="M5840 4490 c-14 -11 -20 -20 -14 -20 6 0 19 9 29 20 23 25 17 25 -15 0z" />
        <path
            d="M5709 4489 c-11 -8 -10 -9 6 -7 12 2 19 -2 18 -9 -2 -7 4 -13 12 -13 21 0 19 17 -3 29 -12 6 -23 6 -33 0z" />
        <path d="M6120 4479 c0 -5 -5 -7 -12 -3 -7 4 -8 3 -4 -4 4 -6 13 -9 21 -5 17 6 20 23 5 23 -5 0 -10 -5 -10 -11z" />
        <path
            d="M4731 4474 c-1 -6 6 -17 14 -24 13 -11 18 -11 28 0 9 10 9 11 0 6 -7 -4 -13 -2 -13 4 0 6 -4 9 -9 6 -5 -4 -12 0 -14 6 -4 8 -6 9 -6 2z" />
        <path
            d="M6000 4469 c0 -19 33 -36 38 -20 2 6 9 8 14 5 7 -4 8 -2 4 4 -4 6 -14 8 -22 5 -9 -3 -20 0 -25 8 -7 11 -9 11 -9 -2z" />
        <path d="M5330 4460 c-8 -5 -11 -12 -8 -16 4 -3 14 1 23 10 18 17 9 21 -15 6z" />
        <path d="M5578 4263 c57 -2 147 -2 200 0 53 1 7 3 -103 3 -110 0 -154 -2 -97 -3z" />
    </g>
    <g id="layer104" fill="#ffd272" stroke="none">
        <path
            d="M2315 8592 c2 -2 20 -6 40 -9 21 -3 69 -16 107 -29 51 -17 81 -22 114 -17 40 5 44 8 38 27 -4 12 -7 22 -8 22 0 1 -67 4 -148 6 -81 2 -145 2 -143 0z" />
        <path
            d="M3537 8593 c-4 -3 -43 -5 -87 -5 -44 1 -80 -1 -80 -5 0 -4 12 -20 27 -35 37 -39 47 -99 29 -178 -4 -19 -8 -41 -8 -47 -1 -7 -5 -13 -8 -13 -10 0 -30 -81 -24 -92 3 -4 0 -8 -5 -8 -6 0 -11 -11 -11 -24 0 -19 18 -38 78 -81 99 -73 162 -105 237 -121 33 -7 61 -11 63 -9 2 1 14 101 28 221 21 180 29 223 44 238 11 11 23 17 27 12 4 -4 1 -11 -7 -16 -13 -9 -13 -10 0 -9 20 1 58 17 42 18 -7 1 -10 6 -7 11 4 6 11 8 16 5 5 -4 9 1 9 9 0 9 -4 16 -9 16 -6 0 -3 12 5 28 19 36 18 68 -2 76 -21 8 -25 4 -27 -25 -1 -23 -27 -61 -27 -40 0 5 5 13 10 16 8 5 7 12 -1 22 -10 11 -10 16 -1 22 6 3 -18 8 -54 9 -46 1 -73 -3 -90 -15 -14 -8 -27 -13 -31 -9 -3 3 -1 6 5 6 7 0 12 4 12 9 0 14 -122 12 -139 -2 -12 -10 -14 -9 -8 6 7 18 5 21 -6 10z m-87 -43 c0 -5 -9 -10 -20 -10 -11 0 -20 5 -20 10 0 6 9 10 20 10 11 0 20 -4 20 -10z m295 -19 c3 -5 1 -12 -4 -15 -5 -4 -12 -2 -16 4 -4 6 -11 8 -16 5 -5 -4 -9 -1 -9 4 0 13 37 15 45 2z m-187 -13 c7 -7 12 -25 12 -42 0 -35 -12 -26 -28 22 -11 33 -5 41 16 20z m-54 -27 c3 -5 -1 -11 -9 -15 -15 -6 -29 7 -18 18 9 9 21 8 27 -3z m249 -4 c3 -7 -3 -13 -13 -13 -10 0 -16 6 -13 13 3 7 9 13 13 13 4 0 10 -6 13 -13z m-16 -80 c0 -17 -1 -25 -4 -17 -3 8 -11 18 -17 23 -8 5 -6 10 4 17 8 5 15 10 15 10 0 0 1 -15 2 -33z" />
        <path
            d="M7168 8594 c-8 -8 3 -87 14 -101 5 -7 7 -17 3 -24 -4 -6 -2 -15 4 -19 7 -4 15 -27 18 -51 8 -73 9 -74 59 -30 64 56 124 74 234 69 48 -1 92 0 96 5 4 4 15 7 25 7 19 0 43 33 33 43 -3 3 -3 11 2 18 4 7 9 28 10 48 1 20 -1 29 -6 22 -5 -9 -10 -10 -14 -2 -11 17 -83 14 -90 -4 -3 -8 -1 -15 3 -15 15 0 22 -33 9 -42 -32 -20 -55 9 -34 44 13 21 -1 38 -15 18 -8 -11 -12 -12 -16 -2 -6 15 -65 16 -81 0 -7 -7 -12 -8 -12 -2 0 14 -127 17 -135 3 -5 -7 -11 -6 -21 2 -8 7 -29 9 -49 6 -21 -3 -33 -2 -30 4 7 10 2 12 -7 3z m152 -29 c0 -9 -6 -12 -15 -9 -8 4 -12 10 -9 15 8 14 24 10 24 -6z m50 -5 c8 -5 11 -12 8 -16 -4 -3 -14 1 -23 10 -18 17 -9 21 15 6z m138 -20 c10 -17 10 -20 -4 -20 -8 0 -12 5 -9 10 3 6 1 10 -4 10 -6 0 -11 5 -11 10 0 17 14 11 28 -10z m-170 -69 c-15 -5 -19 4 -11 24 6 18 7 18 13 -1 4 -10 3 -21 -2 -23z" />
        <path
            d="M2050 8573 c0 -24 39 -63 57 -56 10 4 13 0 11 -12 -2 -9 6 -22 17 -29 11 -6 26 -19 33 -29 7 -9 17 -15 22 -12 4 3 15 -6 24 -20 10 -15 22 -22 31 -19 9 4 15 1 15 -8 0 -7 9 -19 20 -25 17 -11 19 -10 14 5 -3 11 -1 10 6 -3 6 -12 21 -25 33 -30 12 -6 23 -20 25 -32 4 -24 -13 -32 -21 -10 -3 6 -6 -3 -6 -22 -1 -27 2 -32 15 -27 14 5 15 4 4 -9 -7 -8 -16 -13 -20 -10 -5 3 -15 -26 -24 -64 -19 -85 -19 -82 -1 -75 8 4 15 1 15 -6 0 -6 -9 -14 -19 -17 -19 -5 -36 -53 -20 -53 5 0 9 -5 9 -11 0 -5 -4 -7 -10 -4 -5 3 -10 -2 -11 -12 -1 -26 -6 -50 -27 -133 -11 -41 -15 -76 -11 -78 14 -6 10 -24 -8 -37 -11 -8 -13 -14 -5 -19 7 -4 12 -2 12 4 0 7 8 9 19 5 14 -4 20 0 25 17 3 13 1 24 -4 26 -5 2 -3 10 5 19 13 13 13 16 -1 31 -15 14 -15 16 6 24 17 6 21 14 18 33 -3 13 -2 22 2 20 4 -3 11 14 14 38 4 26 3 43 -4 45 -5 2 -10 10 -10 18 0 7 6 11 14 8 10 -4 16 12 25 58 7 35 14 71 17 81 4 11 0 17 -10 17 -22 0 -20 17 3 23 14 3 21 18 26 58 9 69 10 70 45 57 32 -11 41 -28 14 -28 -8 0 -13 -4 -9 -9 3 -5 0 -13 -6 -16 -6 -4 -8 -18 -4 -32 3 -15 2 -22 -4 -19 -8 5 -21 -45 -26 -104 0 -9 -4 -20 -7 -25 -3 -6 -8 -27 -12 -47 -5 -29 -3 -39 11 -47 16 -10 16 -10 -3 -11 -18 0 -22 -6 -22 -34 0 -27 3 -34 17 -30 9 3 6 -1 -6 -7 -22 -12 -50 -89 -38 -108 3 -6 1 -11 -4 -11 -6 0 -11 -7 -11 -15 0 -8 5 -15 10 -15 6 0 10 -5 10 -11 0 -6 -6 -9 -14 -6 -15 6 -29 -57 -30 -135 -1 -20 -4 -34 -8 -32 -9 6 -9 5 -118 -471 -51 -220 -97 -406 -103 -413 -30 -38 -24 22 22 219 105 447 161 704 157 716 -3 7 0 13 6 13 7 0 6 5 -2 15 -10 12 -10 15 0 15 8 0 10 3 7 7 -4 3 -2 12 4 19 6 7 7 19 2 28 -7 12 -11 12 -31 -4 -13 -11 -22 -25 -21 -32 1 -7 -1 -20 -4 -28 -17 -38 -36 -145 -27 -148 14 -5 12 -22 -3 -22 -8 0 -27 -67 -55 -197 -80 -372 -109 -595 -82 -628 30 -36 82 52 145 245 33 104 89 320 100 388 2 15 11 58 20 97 8 38 13 75 11 82 -3 7 -2 13 3 13 14 0 20 64 7 72 -7 5 -4 12 9 23 14 12 16 18 8 21 -7 3 -13 10 -13 15 0 6 4 8 9 5 5 -3 12 1 15 10 8 20 8 25 -2 21 -4 -1 -7 3 -7 8 0 6 3 9 7 8 10 -4 21 43 14 56 -3 5 0 11 6 14 10 3 10 7 0 19 -10 13 -10 17 1 21 15 6 43 150 32 167 -3 5 -2 10 4 10 9 0 17 25 27 90 18 126 23 176 18 192 -3 10 -1 18 5 18 6 0 11 9 11 19 0 15 9 20 40 23 22 2 40 0 40 -5 0 -5 9 -7 20 -4 13 3 18 1 13 -6 -4 -7 0 -8 13 -3 10 4 45 9 77 12 33 2 104 20 160 39 55 19 108 35 118 35 9 0 19 4 21 9 2 6 21 6 45 2 31 -6 48 -4 60 5 16 12 16 15 3 24 -8 5 -37 10 -65 11 -27 0 -58 2 -67 4 -18 3 -211 20 -347 30 -81 6 -84 6 -112 -21 l-28 -27 -72 66 c-61 55 -75 64 -88 54 -9 -8 -12 -8 -8 -1 9 15 -10 30 -48 40 -17 4 -41 15 -55 24 -35 24 -130 26 -130 3z m131 -78 c7 0 42 -35 35 -35 -15 0 -75 38 -69 43 3 4 11 3 17 -1 6 -4 14 -7 17 -7z m149 -31 c0 -8 -5 -12 -10 -9 -6 4 -17 1 -25 -5 -8 -6 -19 -9 -25 -5 -5 3 -10 1 -10 -4 0 -6 -4 -11 -9 -11 -5 0 -7 8 -4 19 3 12 14 18 35 19 16 0 33 3 36 6 9 10 12 7 12 -10z m65 -98 l27 -25 -28 3 c-20 2 -28 9 -29 25 -2 26 -2 26 30 -3z m125 -15 c0 -9 -24 -21 -41 -21 -5 0 -9 5 -9 11 0 6 7 9 15 5 8 -3 15 -1 15 4 0 6 5 10 10 10 6 0 10 -4 10 -9z m-220 -396 c0 -14 -4 -25 -8 -25 -4 0 -9 11 -10 25 -1 14 3 25 8 25 6 0 10 -11 10 -25z m30 -260 c0 -8 -4 -15 -10 -15 -5 0 -10 7 -10 15 0 8 5 15 10 15 6 0 10 -7 10 -15z m-30 -254 c0 -5 -9 -11 -20 -14 -11 -3 -20 -1 -20 3 0 5 8 11 18 13 9 3 18 5 20 6 1 0 2 -3 2 -8z" />
        <path
            d="M6560 8556 c19 -18 39 -31 44 -28 5 3 6 1 3 -5 -3 -5 1 -29 9 -54 13 -36 15 -98 15 -342 -1 -269 0 -298 15 -304 36 -14 189 57 273 126 l34 28 -23 214 c-12 118 -26 227 -31 243 -9 28 -1 55 8 29 3 -9 31 -13 93 -13 l89 0 -1 30 c-1 26 -7 32 -62 54 -34 13 -62 20 -64 15 -2 -5 -8 -9 -13 -9 -4 0 -6 6 -3 14 8 22 -50 34 -161 34 -78 0 -104 -4 -119 -17 -18 -15 -19 -15 -13 2 5 13 1 17 -18 17 -14 0 -24 -5 -22 -11 1 -6 -4 -14 -12 -17 -9 -3 -12 0 -9 9 4 10 -5 15 -31 17 l-36 2 35 -34z m289 -9 c-28 -27 -35 -27 -19 2 6 12 18 21 27 21 13 0 11 -5 -8 -23z m-159 -8 c0 -6 -7 -8 -16 -5 -9 4 -23 1 -30 -5 -12 -10 -13 -9 -8 5 7 18 54 22 54 5z m38 -19 c-7 -11 -16 -16 -21 -11 -12 12 0 31 19 31 12 0 12 -3 2 -20z m175 -18 c-3 -12 -9 -22 -14 -22 -12 0 -11 7 3 30 15 24 19 21 11 -8z m132 -40 c-4 -4 -10 -2 -12 5 -2 7 -12 9 -21 6 -14 -6 -15 -5 -2 9 12 13 16 13 28 1 8 -8 11 -17 7 -21z m-204 -5 c-1 -12 -15 -9 -19 4 -3 6 1 10 8 8 6 -3 11 -8 11 -12z" />
        <path
            d="M7918 8578 c-30 -10 -36 -23 -15 -31 6 -2 9 -8 5 -12 -4 -4 -14 0 -23 9 -14 14 -21 13 -72 -9 -30 -14 -56 -25 -58 -25 -1 0 -2 -13 -2 -30 0 -31 11 -40 20 -17 4 9 8 9 15 -2 9 -12 13 -12 26 -2 10 8 16 9 16 3 0 -6 10 -12 23 -14 21 -3 22 -7 18 -75 l-3 -71 67 -7 c132 -14 337 21 352 61 3 8 9 12 13 9 5 -3 15 1 23 9 13 13 15 9 19 -36 3 -31 12 -56 22 -63 9 -7 16 -18 16 -25 0 -10 -3 -10 -16 1 -15 12 -16 5 -10 -76 3 -50 5 -108 6 -130 0 -32 3 -37 11 -22 5 9 14 17 20 17 5 0 2 -11 -7 -25 -11 -17 -15 -37 -11 -67 3 -24 8 -70 11 -103 8 -88 17 -135 25 -135 4 0 7 -24 7 -52 0 -75 14 -198 23 -198 4 0 6 -13 5 -30 -1 -20 3 -30 12 -30 8 0 11 -6 8 -15 -4 -8 -10 -12 -15 -9 -6 3 -8 -5 -5 -18 3 -12 8 -41 11 -63 4 -22 12 -43 18 -47 9 -6 9 -10 1 -15 -24 -16 67 -452 116 -556 76 -161 101 -16 60 338 -30 263 -32 275 -40 270 -5 -3 -6 13 -3 35 4 32 2 40 -10 40 -8 0 -18 7 -21 16 -9 22 3 32 14 14 8 -13 10 -13 10 1 0 33 -13 79 -22 79 -18 0 -38 -29 -38 -54 0 -14 4 -26 9 -26 5 0 9 -15 8 -32 -3 -53 14 -168 25 -168 5 0 7 -8 4 -18 -4 -10 12 -131 33 -268 38 -233 40 -289 12 -258 -5 5 -25 117 -45 249 -21 134 -44 253 -53 269 -11 20 -12 26 -3 21 10 -6 12 -1 8 21 -4 16 -12 70 -19 121 -7 51 -15 90 -18 88 -3 -2 -6 18 -6 43 0 26 -4 56 -9 67 -4 11 -9 51 -12 88 -4 76 -10 91 -30 83 -18 -7 -18 -1 1 17 19 19 10 107 -11 107 -8 0 -14 5 -14 10 0 6 4 10 9 10 5 0 8 17 6 38 -11 129 -16 166 -24 176 -5 6 -7 23 -5 39 2 17 -2 27 -10 27 -20 0 -40 27 -26 35 5 3 10 2 10 -3 0 -6 7 -13 16 -16 8 -3 13 -2 11 2 -3 4 -8 36 -11 72 -4 35 -12 67 -17 71 -6 3 -8 21 -4 42 6 29 4 36 -12 40 -16 4 -16 5 0 6 11 1 17 9 17 24 1 22 21 57 34 57 4 0 4 -10 1 -22 -6 -16 -4 -20 9 -15 8 3 18 2 21 -3 4 -6 -3 -10 -15 -10 -19 0 -21 -4 -15 -32 4 -18 13 -36 19 -40 8 -6 7 -8 -1 -8 -7 0 -13 -7 -13 -16 0 -8 4 -13 9 -9 6 3 8 -8 5 -27 -3 -18 -1 -69 6 -113 14 -102 49 -374 57 -443 5 -47 8 -52 26 -46 15 5 19 3 14 -9 -4 -11 -2 -14 9 -10 12 4 14 14 8 42 -4 20 -7 44 -6 54 0 9 -3 17 -7 17 -4 0 -5 16 -3 35 2 19 0 35 -5 35 -5 0 -8 13 -5 29 3 21 -2 37 -17 52 -23 25 -27 39 -10 39 5 0 7 -4 4 -10 -3 -5 -1 -10 4 -10 6 0 11 12 11 28 0 15 -4 23 -8 17 -4 -5 -14 -11 -22 -13 -11 -3 -11 1 3 16 18 20 22 68 8 91 -7 11 -11 10 -19 -5 -6 -11 -14 -15 -19 -10 -4 5 -2 11 5 13 6 3 12 14 12 24 0 11 -4 18 -9 14 -5 -3 -13 0 -17 6 -5 8 1 10 19 7 26 -5 26 -4 20 41 -6 48 -17 70 -30 57 -4 -4 -1 -12 7 -17 12 -9 12 -10 -3 -5 -10 3 -21 6 -23 6 -2 0 -4 12 -4 26 0 22 3 24 14 15 8 -7 17 -8 20 -3 8 14 -6 112 -15 106 -5 -3 -6 9 -3 25 4 18 2 37 -5 44 -6 8 -7 18 -3 22 4 5 1 5 -5 1 -7 -4 -13 -2 -13 3 0 6 5 11 11 11 5 0 7 5 3 11 -7 13 22 74 51 103 l20 21 -39 3 c-24 2 -42 -2 -47 -10 -7 -10 -11 -10 -17 -1 -13 20 -80 13 -85 -9 -3 -10 -11 -18 -17 -18 -7 0 -10 8 -7 20 4 16 0 20 -19 20 -16 0 -22 -4 -18 -14 4 -9 -3 -13 -21 -13 -18 0 -25 4 -21 13 7 18 -40 19 -48 2 -5 -10 -7 -10 -12 0 -7 14 -50 16 -59 2 -3 -5 -15 -10 -26 -10 -11 0 -17 5 -14 10 7 11 -37 14 -48 4 -3 -4 -2 -15 4 -26 6 -11 8 -22 5 -25 -6 -7 -36 22 -36 35 0 9 -24 23 -38 21 -4 0 -19 -5 -34 -11z m232 -5 c0 -17 -19 -37 -27 -29 -4 5 -2 11 5 13 6 3 10 9 6 14 -3 5 0 9 5 9 6 0 11 -3 11 -7z m306 -40 c-3 -8 -6 -17 -6 -19 0 -2 -4 -4 -9 -4 -5 0 -8 11 -7 24 0 15 6 22 14 18 7 -2 11 -11 8 -19z m-252 -10 c0 -15 -6 -29 -12 -31 -8 -2 -11 5 -8 20 3 12 5 26 5 31 1 4 5 7 9 7 4 0 7 -12 6 -27z m-216 -1 c2 -7 -2 -10 -12 -6 -9 3 -16 11 -16 16 0 13 23 5 28 -10z m-138 2 c0 -9 -32 -33 -44 -34 -5 0 -1 9 10 19 19 20 34 26 34 15z m522 -16 c-9 -9 -7 -15 6 -25 16 -14 16 -14 -1 -9 -10 3 -23 6 -28 6 -5 0 -4 9 3 20 7 11 17 20 22 20 6 0 5 -5 -2 -12z m-448 -13 c-4 -8 -10 -15 -15 -15 -5 0 -9 7 -9 15 0 8 7 15 15 15 9 0 12 -6 9 -15z m175 -38 c0 -9 -2 -9 -6 1 -2 6 -11 12 -19 12 -8 0 -14 5 -14 10 0 7 6 7 20 0 11 -6 20 -16 19 -23z m191 6 c0 -5 -5 -15 -10 -23 -8 -12 -10 -11 -10 8 0 12 5 22 10 22 6 0 10 -3 10 -7z m-30 -20 c0 -7 -9 -13 -20 -13 -11 0 -20 6 -20 13 0 7 9 13 20 13 11 0 20 -6 20 -13z m266 -659 c-5 -14 -9 -15 -19 -5 -9 9 -9 14 3 21 18 11 24 6 16 -16z m-66 -114 c0 -5 -7 -10 -15 -10 -8 0 -15 5 -15 10 0 6 7 10 15 10 8 0 15 -4 15 -10z m-1 -102 c-8 -14 -14 -17 -22 -9 -7 7 -6 15 3 25 17 22 32 9 19 -16z m41 -268 c8 -5 12 -12 9 -15 -8 -8 -39 5 -39 16 0 11 11 11 30 -1z" />
        <path
            d="M4193 8553 c-7 -2 -13 -13 -13 -24 0 -19 -24 -27 -34 -11 -7 11 -66 3 -66 -9 0 -5 -8 -8 -17 -7 -45 3 -53 -1 -48 -29 2 -16 7 -89 10 -163 10 -266 18 -381 26 -386 5 -3 31 -2 59 2 l51 7 0 241 c0 285 0 284 23 318 10 15 14 33 10 39 -4 7 -3 9 3 6 6 -4 16 0 23 8 10 12 10 15 -1 14 -8 0 -20 -3 -26 -6z m-83 -95 c-11 -12 -23 -18 -27 -13 -5 4 -2 10 5 12 6 3 10 8 8 12 -3 4 4 7 14 8 19 2 19 1 0 -19z m-41 -27 c7 -5 12 -14 10 -20 -3 -7 -11 -3 -21 9 -18 21 -13 26 11 11z m64 -46 c4 -8 1 -17 -5 -21 -7 -4 -8 -3 -4 4 4 7 2 12 -3 12 -6 0 -11 5 -11 10 0 15 17 12 23 -5z" />
        <path d="M4582 8048 c3 -8 21 -13 43 -13 22 0 40 5 42 13 3 8 -9 12 -42 12 -33 0 -45 -4 -43 -12z" />
        <path d="M4723 8048 c2 -8 20 -13 42 -13 22 0 40 5 43 13 2 8 -10 12 -43 12 -33 0 -45 -4 -42 -12z" />
        <path d="M4865 8050 c-3 -6 1 -13 9 -16 21 -8 86 4 86 16 0 13 -87 13 -95 0z" />
        <path d="M5002 8048 c5 -16 41 -22 74 -14 42 11 26 26 -27 26 -36 0 -49 -4 -47 -12z" />
        <path d="M5140 8051 c0 -9 70 -19 89 -13 28 9 6 22 -39 22 -27 0 -50 -4 -50 -9z" />
        <path d="M5280 8050 c0 -13 74 -23 78 -11 2 6 8 9 13 5 5 -3 9 0 9 6 0 6 -20 10 -50 9 -27 -1 -50 -5 -50 -9z" />
        <path d="M5460 8050 c0 -5 14 -10 30 -10 17 0 30 5 30 10 0 6 -13 10 -30 10 -16 0 -30 -4 -30 -10z" />
        <path d="M5586 8045 c6 -16 31 -19 58 -9 29 11 16 24 -24 24 -31 0 -38 -3 -34 -15z" />
        <path
            d="M5700 8051 c0 -16 51 -23 68 -9 12 10 14 10 8 1 -5 -9 -2 -11 8 -7 32 12 15 24 -34 24 -27 0 -50 -4 -50 -9z" />
        <path d="M5855 8048 c6 -16 65 -21 65 -7 0 6 5 7 10 4 6 -3 10 -1 10 4 0 6 -20 11 -45 11 -31 0 -43 -4 -40 -12z" />
        <path d="M5993 8048 c2 -8 20 -13 42 -13 22 0 40 5 43 13 2 8 -10 12 -43 12 -33 0 -45 -4 -42 -12z" />
        <path
            d="M6150 8050 c0 -6 -5 -8 -12 -4 -6 4 -8 3 -5 -3 8 -13 70 -11 77 2 3 6 -10 11 -27 13 -20 2 -33 -1 -33 -8z" />
        <path
            d="M4496 8018 c-18 -25 -21 -58 -7 -58 5 0 15 16 22 34 7 19 16 33 21 30 4 -3 8 0 8 5 0 19 -28 12 -44 -11z" />
        <path d="M6268 8033 c-8 -13 39 -86 46 -74 4 6 5 20 1 30 -7 23 -42 55 -47 44z" />
        <path d="M4472 7865 c-2 -34 1 -45 13 -45 11 0 15 12 15 45 0 31 -4 45 -13 45 -9 0 -14 -15 -15 -45z" />
        <path d="M6300 7860 c0 -27 5 -50 10 -50 6 0 10 23 10 50 0 28 -4 50 -10 50 -5 0 -10 -22 -10 -50z" />
        <path d="M4470 7725 c0 -33 4 -45 15 -45 11 0 15 12 15 45 0 33 -4 45 -15 45 -11 0 -15 -12 -15 -45z" />
        <path d="M6300 7720 c0 -27 5 -50 10 -50 6 0 10 23 10 50 0 28 -4 50 -10 50 -5 0 -10 -22 -10 -50z" />
        <path
            d="M8510 7623 c0 -18 4 -33 9 -33 5 0 9 -12 8 -27 -1 -16 0 -46 1 -68 l2 -40 25 27 c25 27 33 44 16 34 -4 -3 -17 1 -27 9 -18 14 -17 15 9 11 27 -5 28 -3 22 22 -4 15 -8 36 -9 47 0 11 -8 20 -16 20 -8 0 -20 7 -27 15 -10 13 -12 10 -13 -17z" />
        <path d="M4470 7585 c0 -33 4 -45 15 -45 11 0 15 12 15 45 0 33 -4 45 -15 45 -11 0 -15 -12 -15 -45z" />
        <path d="M6300 7575 c0 -25 5 -45 10 -45 6 0 10 20 10 45 0 25 -4 45 -10 45 -5 0 -10 -20 -10 -45z" />
        <path d="M4475 7468 c9 -29 42 -64 51 -55 10 10 -28 77 -44 77 -9 0 -11 -7 -7 -22z" />
        <path d="M6290 7468 c-5 -13 -15 -31 -22 -40 -7 -9 -9 -21 -4 -25 9 -9 56 45 56 64 0 23 -20 24 -30 1z" />
        <path d="M4575 7400 c-3 -5 0 -13 8 -16 23 -8 82 0 82 11 0 14 -82 19 -90 5z" />
        <path d="M4715 7400 c-3 -6 0 -13 8 -16 24 -9 80 0 85 14 5 15 -84 17 -93 2z" />
        <path d="M4857 7404 c-14 -14 6 -24 49 -24 32 0 44 4 44 15 0 11 -11 15 -43 15 -24 0 -47 -3 -50 -6z" />
        <path d="M4997 7404 c-14 -14 6 -24 49 -24 32 0 44 4 44 15 0 11 -11 15 -43 15 -24 0 -47 -3 -50 -6z" />
        <path d="M5140 7395 c0 -11 12 -15 45 -15 33 0 45 4 45 15 0 11 -12 15 -45 15 -33 0 -45 -4 -45 -15z" />
        <path d="M5280 7395 c0 -11 12 -15 45 -15 33 0 45 4 45 15 0 11 -12 15 -45 15 -33 0 -45 -4 -45 -15z" />
        <path d="M5420 7395 c0 -11 12 -15 45 -15 33 0 45 4 45 15 0 11 -12 15 -45 15 -33 0 -45 -4 -45 -15z" />
        <path d="M5560 7395 c0 -11 12 -15 45 -15 33 0 45 4 45 15 0 11 -12 15 -45 15 -33 0 -45 -4 -45 -15z" />
        <path d="M5700 7395 c0 -11 12 -15 45 -15 33 0 45 4 45 15 0 11 -12 15 -45 15 -33 0 -45 -4 -45 -15z" />
        <path d="M5840 7395 c0 -11 12 -15 45 -15 33 0 45 4 45 15 0 11 -12 15 -45 15 -33 0 -45 -4 -45 -15z" />
        <path d="M5980 7395 c0 -13 9 -16 48 -13 26 2 47 8 47 13 0 6 -21 11 -47 13 -39 3 -48 0 -48 -13z" />
        <path d="M6120 7395 c0 -13 9 -16 48 -13 26 2 47 8 47 13 0 6 -21 11 -47 13 -39 3 -48 0 -48 -13z" />
        <path d="M4572 7238 c5 -16 41 -22 74 -14 42 11 26 26 -27 26 -36 0 -49 -4 -47 -12z" />
        <path d="M4710 7240 c0 -23 90 -26 98 -2 2 8 -11 12 -47 12 -28 0 -51 -4 -51 -10z" />
        <path d="M4863 7238 c2 -8 20 -13 42 -13 22 0 40 5 43 13 2 8 -10 12 -43 12 -33 0 -45 -4 -42 -12z" />
        <path d="M5003 7238 c2 -8 20 -13 42 -13 22 0 40 5 43 13 2 8 -10 12 -43 12 -33 0 -45 -4 -42 -12z" />
        <path d="M5143 7238 c2 -8 20 -13 42 -13 22 0 40 5 43 13 2 8 -10 12 -43 12 -33 0 -45 -4 -42 -12z" />
        <path d="M5282 7238 c5 -16 41 -22 74 -14 42 11 26 26 -27 26 -36 0 -49 -4 -47 -12z" />
        <path d="M5703 7238 c2 -8 20 -13 42 -13 22 0 40 5 43 13 2 8 -10 12 -43 12 -33 0 -45 -4 -42 -12z" />
        <path d="M5843 7238 c2 -8 20 -13 42 -13 22 0 40 5 43 13 2 8 -10 12 -43 12 -33 0 -45 -4 -42 -12z" />
        <path d="M5972 7238 c5 -16 41 -22 74 -14 42 11 26 26 -27 26 -36 0 -49 -4 -47 -12z" />
        <path d="M6112 7238 c5 -16 41 -22 74 -14 42 11 26 26 -27 26 -36 0 -49 -4 -47 -12z" />
        <path d="M4496 7221 c-24 -27 -11 -48 15 -25 19 17 26 44 11 44 -5 0 -17 -9 -26 -19z" />
        <path d="M5619 7227 c-21 -16 -41 -55 -31 -61 5 -3 20 8 35 24 38 40 35 67 -4 37z" />
        <path d="M6250 7221 c0 -5 8 -23 18 -40 20 -37 47 -43 36 -8 -11 38 -54 76 -54 48z" />
        <path d="M5415 7204 c4 -11 10 -31 13 -46 7 -44 23 -32 20 14 -2 33 -8 44 -22 46 -15 3 -17 0 -11 -14z" />
        <path d="M5574 7106 c-9 -23 0 -69 14 -74 8 -2 12 10 12 42 0 44 -15 62 -26 32z" />
        <path d="M6284 7086 c-9 -23 0 -69 14 -74 8 -2 12 10 12 42 0 44 -15 62 -26 32z" />
        <path d="M5430 7035 c0 -25 5 -45 10 -45 6 0 10 20 10 45 0 25 -4 45 -10 45 -5 0 -10 -20 -10 -45z" />
        <path
            d="M4686 7035 c-27 -63 -26 -65 37 -85 54 -17 88 -18 155 -4 20 4 22 7 12 19 -11 13 -5 15 41 15 l54 1 -23 19 c-13 11 -40 22 -60 26 -72 12 -167 32 -184 39 -13 5 -21 -2 -32 -30z" />
        <path
            d="M4429 6973 c-5 -13 -9 -31 -9 -39 0 -23 41 -16 62 11 11 14 27 25 35 25 28 0 5 12 -37 20 -38 7 -42 6 -51 -17z" />
        <path d="M5574 6966 c-9 -23 0 -69 14 -74 8 -2 12 10 12 42 0 44 -15 62 -26 32z" />
        <path d="M6284 6946 c-9 -23 0 -69 14 -74 8 -2 12 10 12 42 0 44 -15 62 -26 32z" />
        <path
            d="M3479 6936 l-65 -11 23 -34 c44 -65 50 -134 12 -144 -22 -6 -25 -39 -5 -56 19 -16 34 5 45 62 11 59 39 107 79 132 21 13 31 27 29 40 -3 25 -28 27 -118 11z" />
        <path d="M5574 6826 c-9 -23 0 -69 14 -74 8 -2 12 10 12 42 0 44 -15 62 -26 32z" />
        <path d="M6285 6807 c-8 -32 -3 -72 10 -72 6 0 11 17 13 39 4 46 -14 72 -23 33z" />
        <path
            d="M3527 6758 c-25 -34 -43 -114 -29 -134 4 -7 26 -17 50 -23 24 -7 45 -18 48 -25 4 -10 14 -10 52 -1 50 13 54 20 65 111 6 53 -2 67 -34 56 -30 -11 -75 1 -105 28 l-22 21 -25 -33z" />
        <path d="M5576 6703 c-8 -8 -8 -56 0 -77 10 -27 24 -7 24 34 0 37 -10 56 -24 43z" />
        <path d="M6287 6683 c-9 -8 -9 -56 -1 -77 11 -28 24 -6 24 40 0 41 -7 53 -23 37z" />
        <path d="M5574 6556 c-9 -23 0 -69 14 -74 8 -2 12 10 12 42 0 44 -15 62 -26 32z" />
        <path d="M6284 6536 c-9 -23 0 -69 14 -74 8 -2 12 10 12 42 0 44 -15 62 -26 32z" />
        <path d="M5574 6416 c-9 -23 0 -69 14 -74 8 -2 12 10 12 42 0 44 -15 62 -26 32z" />
        <path d="M6284 6396 c-9 -23 0 -69 14 -74 8 -2 12 10 12 42 0 44 -15 62 -26 32z" />
        <path d="M5574 6276 c-9 -23 0 -69 14 -74 8 -2 12 10 12 42 0 44 -15 62 -26 32z" />
        <path d="M6284 6256 c-9 -23 0 -69 14 -74 8 -2 12 10 12 42 0 44 -15 62 -26 32z" />
        <path d="M4477 6233 c-4 -3 -7 -24 -7 -45 0 -27 4 -38 15 -38 11 0 15 12 15 45 0 42 -7 54 -23 38z" />
        <path d="M5430 6175 c0 -25 5 -45 10 -45 6 0 10 20 10 45 0 25 -4 45 -10 45 -5 0 -10 -20 -10 -45z" />
        <path d="M5574 6136 c-9 -23 0 -69 14 -74 8 -2 12 10 12 42 0 44 -15 62 -26 32z" />
        <path d="M6284 6116 c-8 -33 -2 -69 14 -74 8 -2 12 10 12 42 0 50 -16 70 -26 32z" />
        <path d="M4477 6093 c-4 -3 -7 -24 -7 -45 0 -27 4 -38 15 -38 11 0 15 12 15 45 0 42 -7 54 -23 38z" />
        <path d="M5430 6035 c0 -25 5 -45 10 -45 6 0 10 20 10 45 0 25 -4 45 -10 45 -5 0 -10 -20 -10 -45z" />
        <path d="M5575 5997 c-8 -32 -3 -72 10 -72 6 0 11 17 13 39 4 46 -14 72 -23 33z" />
        <path d="M6286 5993 c-8 -8 -8 -56 0 -77 10 -27 24 -7 24 34 0 37 -10 56 -24 43z" />
        <path d="M4470 5915 c0 -33 4 -45 15 -45 11 0 15 12 15 45 0 33 -4 45 -15 45 -11 0 -15 -12 -15 -45z" />
        <path d="M5430 5895 c0 -25 5 -45 10 -45 6 0 10 20 10 45 0 25 -4 45 -10 45 -5 0 -10 -20 -10 -45z" />
        <path d="M5577 5873 c-9 -8 -9 -56 -1 -77 11 -28 24 -6 24 40 0 41 -7 53 -23 37z" />
        <path
            d="M7265 5854 c-57 -15 -119 -24 -170 -24 -48 0 -90 -6 -105 -15 l-25 -13 25 -6 c14 -2 42 -8 62 -11 50 -8 66 -26 74 -86 7 -52 26 -63 32 -18 2 13 20 39 40 57 l36 34 79 -7 80 -7 -6 23 c-3 13 -9 41 -12 62 -4 20 -10 37 -14 36 -3 0 -46 -12 -96 -25z" />
        <path d="M6290 5815 c0 -25 5 -45 10 -45 6 0 10 20 10 45 0 25 -4 45 -10 45 -5 0 -10 -20 -10 -45z" />
        <path
            d="M6625 5820 c-14 -16 -31 -20 -77 -20 -32 0 -74 -6 -92 -14 -30 -13 -76 -62 -76 -83 0 -14 70 -9 79 6 7 11 9 11 13 0 4 -9 10 -4 18 13 15 32 59 48 136 48 28 0 53 3 57 6 8 8 -20 64 -32 64 -4 0 -16 -9 -26 -20z" />
        <path d="M4470 5775 c0 -33 4 -45 15 -45 11 0 15 12 15 45 0 33 -4 45 -15 45 -11 0 -15 -12 -15 -45z" />
        <path d="M5437 5803 c-11 -10 -8 -93 3 -93 6 0 10 23 10 50 0 51 -1 55 -13 43z" />
        <path d="M5577 5733 c-13 -13 -7 -53 8 -53 10 0 15 10 15 30 0 29 -9 38 -23 23z" />
        <path d="M4470 5635 c0 -33 4 -45 15 -45 11 0 15 12 15 45 0 33 -4 45 -15 45 -11 0 -15 -12 -15 -45z" />
        <path
            d="M3120 5640 c-17 -14 -41 -20 -78 -20 -40 0 -69 -8 -120 -34 -120 -61 -119 -85 3 -86 59 -1 66 -3 45 -12 -37 -15 -7 -22 37 -7 21 6 50 22 65 34 15 13 50 28 77 35 28 7 53 16 56 21 8 12 -33 89 -48 89 -6 0 -23 -9 -37 -20z" />
        <path d="M4474 5535 c-9 -21 15 -75 33 -75 11 0 13 5 8 18 -4 9 -10 27 -12 40 -7 29 -21 38 -29 17z" />
        <path
            d="M7296 5482 c7 -4 16 -24 22 -45 10 -37 10 -38 -25 -55 l-35 -17 6 -76 c6 -76 22 -139 34 -139 4 0 16 7 26 15 11 8 28 15 38 15 25 0 67 49 68 78 0 27 16 29 25 2 10 -31 35 -25 35 9 0 17 -4 33 -10 36 -12 7 -12 83 -1 143 l8 42 -101 0 c-55 0 -96 -4 -90 -8z m58 -148 c8 -20 8 -19 -26 -28 -23 -5 -28 -3 -28 12 0 10 3 22 7 25 12 13 41 7 47 -9z" />
        <path d="M4560 5440 c0 -5 20 -10 45 -10 25 0 45 5 45 10 0 6 -20 10 -45 10 -25 0 -45 -4 -45 -10z" />
        <path d="M4700 5440 c0 -5 20 -10 45 -10 25 0 45 5 45 10 0 6 -20 10 -45 10 -25 0 -45 -4 -45 -10z" />
        <path d="M4840 5440 c0 -5 20 -10 45 -10 25 0 45 5 45 10 0 6 -20 10 -45 10 -25 0 -45 -4 -45 -10z" />
        <path d="M4980 5440 c0 -5 20 -10 45 -10 25 0 45 5 45 10 0 6 -20 10 -45 10 -25 0 -45 -4 -45 -10z" />
        <path d="M5120 5440 c0 -5 20 -10 45 -10 25 0 45 5 45 10 0 6 -20 10 -45 10 -25 0 -45 -4 -45 -10z" />
        <path d="M5260 5440 c0 -5 18 -10 40 -10 22 0 40 5 40 10 0 6 -18 10 -40 10 -22 0 -40 -4 -40 -10z" />
        <path d="M4580 5285 c0 -13 9 -16 48 -13 26 2 47 8 47 13 0 6 -21 11 -47 13 -39 3 -48 0 -48 -13z" />
        <path d="M4720 5285 c0 -13 9 -16 48 -13 26 2 47 8 47 13 0 6 -21 11 -47 13 -39 3 -48 0 -48 -13z" />
        <path d="M4860 5285 c0 -13 9 -16 48 -13 26 2 47 8 47 13 0 6 -21 11 -47 13 -39 3 -48 0 -48 -13z" />
        <path d="M5007 5294 c-17 -18 -4 -25 41 -22 26 2 47 8 47 13 0 12 -77 19 -88 9z" />
        <path d="M5145 5290 c-3 -5 0 -13 8 -16 23 -8 82 0 82 11 0 14 -82 19 -90 5z" />
        <path d="M5287 5294 c-13 -13 5 -24 39 -24 24 0 34 5 34 15 0 10 -10 15 -33 15 -19 0 -37 -3 -40 -6z" />
        <path
            d="M4502 5257 c-22 -23 -30 -67 -13 -67 5 0 13 9 16 20 3 11 13 27 22 36 10 9 12 19 6 25 -6 6 -17 1 -31 -14z" />
        <path
            d="M3975 5141 c-3 -2 -5 -13 -5 -23 0 -15 -8 -18 -44 -18 -65 0 -80 -21 -101 -142 -6 -31 -4 -38 17 -48 12 -7 33 -22 46 -33 19 -18 22 -18 22 -4 0 21 19 22 48 1 27 -18 24 -20 47 26 18 34 18 34 27 10 8 -21 10 -22 24 -8 13 13 14 21 3 56 -14 47 -8 76 24 124 l24 35 -64 14 c-35 9 -66 13 -68 10z m-35 -129 c-6 -2 -23 -1 -38 3 -26 6 -26 7 -8 21 17 12 22 12 39 -3 11 -11 14 -19 7 -21z" />
        <path d="M4475 5138 c-9 -23 -2 -83 10 -83 14 0 19 75 6 88 -7 7 -12 5 -16 -5z" />
        <path d="M6300 5065 c0 -8 5 -15 10 -15 6 0 10 7 10 15 0 8 -4 15 -10 15 -5 0 -10 -7 -10 -15z" />
        <path d="M4475 4998 c-9 -23 -2 -83 10 -83 14 0 19 75 6 88 -7 7 -12 5 -16 -5z" />
        <path d="M6300 4955 c0 -25 5 -45 10 -45 6 0 10 20 10 45 0 25 -4 45 -10 45 -5 0 -10 -20 -10 -45z" />
        <path d="M4475 4858 c-9 -23 -2 -83 10 -83 14 0 19 75 6 88 -7 7 -12 5 -16 -5z" />
        <path d="M6300 4815 c0 -25 5 -45 10 -45 6 0 10 20 10 45 0 25 -4 45 -10 45 -5 0 -10 -20 -10 -45z" />
        <path d="M4477 4724 c-8 -8 12 -61 29 -75 24 -20 27 -3 8 40 -19 40 -25 46 -37 35z" />
        <path
            d="M6289 4698 c-7 -13 -17 -26 -23 -30 -8 -5 -8 -10 0 -18 8 -8 17 -4 33 16 22 28 28 54 11 54 -5 0 -15 -10 -21 -22z" />
        <path d="M4581 4642 c-28 -9 -6 -22 39 -22 28 0 50 4 50 9 0 9 -70 19 -89 13z" />
        <path d="M4753 4642 c-60 -4 -54 -22 7 -22 28 0 50 4 50 9 0 14 -10 16 -57 13z" />
        <path
            d="M5843 4635 c0 -11 11 -15 44 -15 24 0 43 5 43 10 0 6 -13 10 -29 10 -16 0 -36 2 -44 5 -8 4 -14 0 -14 -10z" />
        <path d="M4850 4630 c0 -5 23 -10 50 -10 28 0 50 5 50 10 0 6 -22 10 -50 10 -27 0 -50 -4 -50 -10z" />
        <path d="M5000 4630 c0 -7 19 -10 45 -9 25 2 45 6 45 11 0 4 -20 8 -45 8 -25 0 -45 -5 -45 -10z" />
        <path d="M5140 4630 c0 -5 20 -10 45 -10 25 0 45 5 45 10 0 6 -20 10 -45 10 -25 0 -45 -4 -45 -10z" />
        <path d="M5280 4630 c0 -7 19 -10 45 -9 25 2 45 6 45 11 0 4 -20 8 -45 8 -25 0 -45 -5 -45 -10z" />
        <path d="M5420 4630 c0 -5 20 -10 45 -10 25 0 45 5 45 10 0 6 -20 10 -45 10 -25 0 -45 -4 -45 -10z" />
        <path d="M5560 4630 c0 -5 20 -10 44 -10 25 0 48 5 51 10 4 6 -13 10 -44 10 -28 0 -51 -4 -51 -10z" />
        <path d="M5700 4628 c0 -4 20 -8 45 -8 25 0 45 5 45 10 0 6 -20 9 -45 8 -25 0 -45 -5 -45 -10z" />
        <path d="M5980 4630 c0 -5 20 -10 44 -10 25 0 48 5 51 10 4 6 -13 10 -44 10 -28 0 -51 -4 -51 -10z" />
        <path d="M6120 4630 c0 -5 23 -10 50 -10 28 0 50 5 50 10 0 6 -22 10 -50 10 -27 0 -50 -4 -50 -10z" />
        <path
            d="M4895 3913 c-27 -15 -56 -23 -90 -23 -44 0 -182 -26 -195 -37 -12 -11 31 -23 82 -23 47 0 56 -3 52 -15 -8 -19 13 -19 46 0 14 8 51 14 82 15 l57 0 6 44 c4 25 5 49 4 53 -2 5 -22 -1 -44 -14z" />
        <path
            d="M4696 3616 c86 -92 98 -95 192 -59 l77 30 3 42 c4 46 1 47 -56 27 -38 -14 -43 -13 -67 6 -28 22 -46 18 -25 -7 7 -8 9 -22 6 -31 -9 -24 -65 -12 -120 25 -70 49 -74 36 -10 -33z" />
        <path
            d="M5348 3334 c-16 -15 -7 -41 22 -70 25 -25 29 -37 30 -81 l0 -53 -34 0 c-53 0 -61 -18 -61 -144 0 -80 4 -118 15 -136 l15 -25 3 23 c4 27 17 27 89 2 32 -11 60 -20 63 -20 3 0 4 21 2 46 -6 66 6 134 24 134 9 0 14 -11 14 -30 0 -30 29 -70 51 -70 8 0 9 14 3 48 -4 26 -8 102 -9 169 -1 115 -2 124 -25 149 -14 14 -37 32 -52 40 -32 17 -140 30 -150 18z m52 -264 c0 -5 6 -10 14 -10 8 0 18 -4 21 -10 7 -11 -14 -4 -55 17 -25 13 -25 13 -2 13 12 0 22 -4 22 -10z m-33 -17 c-9 -2 -14 -9 -11 -15 4 -7 2 -8 -4 -4 -20 12 -13 26 11 25 17 -1 18 -2 4 -6z m0 -54 c-18 -10 -18 -12 3 -34 22 -23 22 -24 1 -18 -39 10 -36 63 4 63 6 -1 2 -5 -8 -11z" />
    </g>
    <g id="layer105" fill="#ffe9b7" stroke="none">
        <path d="M3686 8575 c-4 -13 -2 -14 14 -5 23 13 26 20 6 20 -8 0 -16 -7 -20 -15z" />
        <path d="M8238 8583 c-24 -6 -23 -19 2 -19 11 0 20 6 20 13 0 7 -1 12 -2 12 -2 -1 -11 -3 -20 -6z" />
        <path
            d="M2354 8569 c-3 -6 6 -22 22 -35 16 -14 50 -42 75 -64 27 -22 50 -35 55 -30 5 5 25 6 44 2 61 -14 70 -7 70 49 l0 50 -43 -6 c-33 -5 -64 0 -126 19 -95 30 -88 29 -97 15z" />
        <path
            d="M3910 8543 c0 -14 -7 -35 -17 -45 -9 -11 -11 -18 -5 -18 7 0 12 -7 12 -16 0 -8 -4 -13 -9 -9 -5 3 -12 1 -15 -4 -9 -14 37 -22 87 -15 42 6 46 9 49 38 3 27 7 31 33 30 41 -1 55 15 42 43 -9 21 -17 23 -94 23 l-83 0 0 -27z" />
        <path
            d="M7135 8529 c-46 -27 -54 -37 -48 -59 4 -16 13 -20 48 -20 31 0 45 5 49 17 4 9 2 19 -3 22 -5 3 -11 18 -13 32 l-3 26 -30 -18z" />
        <path
            d="M7663 8536 c4 -9 2 -18 -4 -21 -5 -4 -7 -17 -5 -30 3 -13 -1 -26 -7 -29 -7 -2 13 -5 44 -5 42 -1 58 3 63 14 9 25 -3 40 -51 64 -35 17 -44 19 -40 7z" />
        <path d="M2070 8527 c0 -2 15 -16 33 -33 l32 -29 -29 33 c-28 30 -36 37 -36 29z" />
        <path d="M3475 8490 c-3 -5 3 -10 15 -10 12 0 18 5 15 10 -3 6 -10 10 -15 10 -5 0 -12 -4 -15 -10z" />
        <path d="M4094 8473 c4 -7 2 -13 -4 -13 -6 0 -8 -5 -4 -11 4 -8 9 -8 17 0 8 8 7 14 -2 24 -11 10 -13 10 -7 0z" />
        <path d="M3723 8433 c-17 -6 -17 -20 0 -26 8 -3 13 3 13 14 0 11 0 19 -1 18 0 0 -6 -3 -12 -6z" />
        <path d="M4058 8420 c10 -12 18 -16 21 -9 2 6 -3 15 -10 20 -24 15 -29 10 -11 -11z" />
        <path
            d="M4385 8415 c-23 -22 -25 -32 -25 -115 0 -89 0 -90 25 -90 14 0 25 -6 25 -12 0 -9 3 -10 8 -2 9 14 505 17 497 3 -4 -5 -1 -9 4 -9 6 0 11 5 11 10 0 6 21 10 48 10 34 0 43 -3 32 -10 -13 -8 -13 -10 2 -10 9 0 19 6 22 13 5 10 7 10 12 0 3 -7 10 -13 15 -13 6 0 7 5 4 10 -3 6 -2 10 4 10 5 0 12 -6 15 -12 5 -10 7 -10 12 -1 8 17 280 18 288 0 5 -9 7 -9 12 1 4 8 28 12 70 12 41 0 63 -4 59 -10 -3 -5 -1 -10 4 -10 6 0 11 5 11 10 0 6 7 10 15 10 8 0 15 -4 15 -10 0 -5 5 -10 11 -10 5 0 7 4 4 10 -4 6 60 9 177 9 155 -1 186 -3 202 -17 18 -16 19 -16 13 1 -4 11 -1 17 9 17 12 0 15 -6 10 -26 -5 -19 -3 -25 6 -22 7 3 12 14 10 26 -3 19 2 20 89 21 64 1 95 -3 101 -12 6 -9 8 -9 8 1 0 6 9 12 20 12 17 0 19 -5 15 -27 l-6 -28 15 25 c16 28 13 27 114 29 l72 1 0 89 c0 80 -2 91 -25 115 l-24 26 -991 0 -991 0 -24 -25z m1038 -16 c46 -25 51 -76 10 -108 -30 -24 -58 -20 -85 11 -25 28 -22 55 7 83 27 28 37 30 68 14z m-455 -61 l-3 -63 -55 0 -55 0 -3 63 -3 62 61 0 61 0 -3 -62z m972 50 c0 -6 -7 -20 -17 -30 -15 -17 -15 -20 7 -43 36 -38 12 -54 -29 -20 -37 32 -39 50 -9 82 23 25 48 31 48 11z" />
        <path d="M5372 8368 c-18 -18 -14 -46 7 -58 37 -19 65 7 50 48 -9 24 -38 29 -57 10z" />
        <path d="M4880 8335 c0 -33 2 -35 35 -35 33 0 35 2 35 35 0 33 -2 35 -35 35 -33 0 -35 -2 -35 -35z" />
        <path
            d="M8285 8345 c-39 -180 -150 -1317 -161 -1640 -6 -204 4 -267 44 -273 18 -3 26 5 42 40 46 105 100 533 145 1168 9 124 19 232 22 240 3 8 5 20 3 25 -15 52 -15 92 2 109 10 11 15 22 12 25 -3 3 -12 -3 -20 -13 -13 -18 -14 -16 -15 30 -1 56 -8 147 -13 151 -8 8 -146 -1587 -146 -1686 0 -6 -7 -11 -15 -11 -11 0 -15 12 -15 48 0 135 136 1700 155 1787 3 16 -1 21 -16 21 -12 0 -21 -8 -24 -21z" />
        <path d="M8370 8295 c0 -8 5 -15 10 -15 6 0 10 7 10 15 0 8 -4 15 -10 15 -5 0 -10 -7 -10 -15z" />
        <path d="M7998 8283 c12 -2 32 -2 45 0 12 2 2 4 -23 4 -25 0 -35 -2 -22 -4z" />
        <path d="M8350 8271 c0 -5 7 -14 15 -21 12 -10 15 -10 15 3 0 8 -7 17 -15 21 -8 3 -15 2 -15 -3z" />
        <path
            d="M2493 8178 c4 -51 10 -450 13 -885 6 -701 5 -793 -8 -793 -13 0 -16 103 -21 838 -3 523 -9 846 -16 862 -9 24 -10 24 -11 -10 0 -19 -12 -96 -26 -170 -14 -74 -26 -142 -27 -150 -4 -34 15 -870 24 -1040 16 -290 39 -410 80 -410 28 0 47 47 60 151 13 106 6 960 -11 1349 -5 124 -11 253 -12 288 -2 58 -4 62 -26 62 l-25 0 6 -92z" />
        <path d="M4830 8185 c-7 -8 -8 -15 -2 -15 5 0 15 7 22 15 7 8 8 15 2 15 -5 0 -15 -7 -22 -15z" />
        <path d="M4585 8160 c3 -5 1 -10 -6 -10 -7 0 -10 -2 -7 -5 7 -8 38 5 38 16 0 5 -7 9 -16 9 -8 0 -12 -4 -9 -10z" />
        <path d="M5662 8159 c2 -7 10 -15 17 -17 8 -3 12 1 9 9 -2 7 -10 15 -17 17 -8 3 -12 -1 -9 -9z" />
        <path d="M5838 8143 c6 -2 10 -9 7 -14 -4 -5 1 -6 9 -3 20 8 11 24 -12 23 -11 0 -12 -2 -4 -6z" />
        <path
            d="M8468 8113 c6 -2 12 -10 12 -17 0 -7 7 -13 15 -13 8 0 15 2 15 4 0 10 -30 33 -42 32 -10 0 -10 -2 0 -6z" />
        <path d="M8514 7937 c-8 -9 -7 -16 1 -24 10 -9 13 -6 13 13 0 13 -1 24 -2 24 0 -1 -6 -6 -12 -13z" />
        <path
            d="M2763 7798 c2 -7 83 -164 179 -348 158 -304 181 -341 239 -401 84 -87 149 -113 264 -110 142 5 153 6 149 12 -2 3 43 16 99 27 56 12 175 42 265 68 l163 47 237 -63 c320 -85 294 -84 320 -15 20 52 27 85 19 85 -2 0 -75 29 -163 65 -87 36 -164 65 -169 65 -6 0 -27 9 -47 20 -88 47 -181 62 -415 69 l-222 6 -177 140 c-97 77 -186 148 -198 157 -20 17 -19 17 34 12 30 -3 86 -9 125 -14 80 -10 115 3 115 43 0 51 -6 52 -355 91 -181 20 -355 39 -385 42 -30 3 -61 7 -69 10 -8 2 -11 -1 -8 -8z" />
        <path
            d="M8560 7650 c0 -5 -7 -10 -15 -10 -8 0 -15 -5 -15 -10 0 -7 6 -7 20 0 18 10 28 30 15 30 -3 0 -5 -4 -5 -10z" />
        <path d="M8556 7484 c-4 -9 -4 -19 -1 -22 3 -3 5 0 5 6 0 7 7 9 18 5 15 -6 15 -5 3 10 -17 21 -17 21 -25 1z" />
        <path d="M8673 6735 c0 -38 2 -53 4 -32 2 20 2 52 0 70 -2 17 -4 1 -4 -38z" />
        <path
            d="M3827 6052 l-48 -3 4 -177 c3 -101 13 -244 26 -332 20 -149 21 -194 2 -174 -9 9 -41 247 -41 306 0 28 -12 45 -69 103 -129 130 -163 129 -391 -15 -63 -40 -116 -74 -118 -75 -6 -6 49 -105 58 -105 5 0 69 12 141 26 73 14 135 22 138 17 4 -4 52 -75 106 -158 55 -82 121 -171 146 -197 55 -55 140 -100 244 -129 64 -17 82 -19 106 -9 l29 12 0 448 0 448 -32 7 c-37 8 -228 13 -301 7z" />
        <path
            d="M6890 5789 c-102 -15 -189 -18 -192 -8 -2 5 -12 2 -23 -9 -11 -10 -29 -21 -39 -25 -17 -7 -17 -6 -5 9 13 16 10 17 -40 12 -29 -3 -57 -11 -62 -19 -5 -8 -9 -10 -9 -5 0 5 -11 -3 -23 -18 -19 -21 -34 -28 -70 -31 -34 -2 -47 1 -47 11 0 7 5 16 10 19 15 9 12 25 -5 25 -9 0 -12 -6 -8 -16 5 -14 3 -15 -15 -5 -30 16 -114 14 -139 -4 -15 -10 -23 -11 -25 -4 -3 8 -18 9 -47 4 -31 -5 -39 -10 -30 -16 11 -7 11 -9 -3 -9 -9 0 -20 5 -24 11 -4 8 -23 9 -58 3 -28 -4 -65 -7 -83 -6 -18 1 -34 -2 -37 -7 -3 -5 -26 -6 -51 -3 -39 4 -45 2 -39 -12 3 -9 2 -16 -4 -16 -5 0 -7 -12 -4 -26 l5 -27 -22 22 c-26 26 -27 38 -3 44 9 3 2 5 -15 4 -18 -1 -33 -5 -33 -9 0 -4 -5 -8 -11 -8 -5 0 -7 5 -3 11 4 8 -5 9 -32 6 -22 -4 -79 -9 -129 -12 -103 -7 -166 -14 -177 -21 -5 -3 -8 -12 -8 -21 0 -9 -6 -13 -15 -9 -8 3 -19 -3 -25 -14 -13 -24 -13 -130 0 -130 6 0 10 -7 10 -15 0 -8 -5 -15 -11 -15 -6 0 -8 -9 -4 -20 3 -11 7 -33 7 -50 1 -16 4 -28 7 -26 3 2 7 -46 8 -107 1 -64 6 -113 12 -115 6 -2 8 -16 4 -32 -4 -22 1 -35 20 -54 14 -14 36 -28 49 -31 17 -4 797 61 1203 101 28 2 147 13 265 23 l215 19 29 33 c29 32 29 33 22 128 -4 53 -9 137 -12 186 -7 128 -12 155 -28 149 -9 -4 -15 9 -20 43 -3 26 -10 54 -15 62 -8 12 -127 42 -156 39 -5 0 -35 -4 -65 -9z m-715 -105 c13 -5 14 -8 3 -15 -19 -13 -28 -11 -28 6 0 17 2 18 25 9z m-480 -52 c-7 -8 -35 7 -35 18 0 6 7 6 20 -2 10 -7 17 -14 15 -16z m75 -1 c0 -12 -20 -25 -27 -18 -7 7 6 27 18 27 5 0 9 -4 9 -9z m-250 -11 c0 -5 8 -10 18 -10 14 0 15 -2 2 -10 -9 -5 -19 -5 -27 2 -15 12 -17 28 -3 28 6 0 10 -4 10 -10z m750 -9 c0 -5 -7 -14 -15 -21 -16 -14 -18 -10 -9 14 6 17 24 22 24 7z m240 -76 c0 -9 -9 -15 -22 -15 -13 -1 -113 -9 -223 -19 -193 -18 -226 -18 -208 0 9 8 163 27 308 36 50 3 92 7 94 9 12 11 51 2 51 -11z m-1020 -9 c0 -8 -4 -17 -9 -21 -6 -3 -9 4 -8 15 1 23 17 28 17 6z m213 -50 c57 -24 82 -61 82 -121 0 -43 -5 -59 -25 -80 -51 -55 -103 -68 -162 -39 -51 24 -73 61 -73 121 0 57 25 94 80 119 39 17 58 17 98 0z m1142 -26 c3 -6 0 -13 -8 -16 -31 -11 -762 -72 -771 -63 -6 5 -3 11 7 15 12 4 593 61 749 73 9 0 20 -4 23 -9z m10 -119 c3 -5 1 -12 -4 -15 -5 -4 -162 -19 -348 -36 -186 -16 -357 -32 -380 -34 -34 -4 -43 -2 -43 9 0 8 6 15 13 16 6 0 172 15 367 33 195 19 363 34 372 35 9 0 19 -3 23 -8z" />
        <path
            d="M2569 5391 l-24 -19 0 -302 0 -302 24 -19 c22 -18 44 -19 405 -19 329 0 385 2 404 16 22 15 22 16 22 324 0 308 0 309 -22 324 -19 14 -75 16 -404 16 -361 0 -383 -1 -405 -19z m454 -116 c-4 -12 -373 -19 -373 -7 0 5 3 12 7 16 11 11 368 2 366 -9z m-103 -104 c0 -16 -31 -21 -135 -21 -57 0 -110 3 -119 6 -42 16 -4 24 119 24 74 0 135 -4 135 -9z m398 -3 c-4 -10 -46 -13 -168 -13 -122 0 -164 3 -167 13 -4 9 34 12 167 12 133 0 171 -3 168 -12z m-545 -103 c-4 -15 -115 -13 -121 3 -3 10 11 12 59 10 36 -2 63 -7 62 -13z m547 0 c0 -13 -34 -15 -249 -15 -227 0 -273 4 -254 24 3 3 118 6 255 6 214 0 248 -2 248 -15z m-412 -102 c3 -10 -27 -13 -127 -13 -120 0 -143 4 -124 24 13 13 246 2 251 -11z m410 0 c3 -10 -38 -13 -182 -13 -160 0 -186 2 -186 15 0 13 24 15 182 13 134 -2 182 -6 186 -15z m-510 -105 c-3 -9 -28 -13 -78 -13 -50 0 -75 4 -77 13 -4 9 16 12 77 12 61 0 81 -3 78 -12z" />
        <path
            d="M5315 4260 c-131 -4 -160 -8 -162 -20 -2 -8 3 -62 10 -120 l12 -105 260 -6 c143 -3 261 -6 262 -7 42 -32 84 -81 92 -105 11 -36 24 -143 43 -357 l12 -145 28 420 c15 231 27 426 25 433 -2 15 -291 21 -582 12z" />
        <path
            d="M5253 3815 c1 -11 -9 -24 -23 -32 -17 -8 -24 -20 -23 -35 17 -169 57 -454 65 -468 15 -24 51 -40 88 -40 27 0 30 -4 31 -32 2 -31 2 -31 6 -5 3 21 -3 34 -26 56 -59 56 -30 96 58 79 53 -10 131 -54 146 -83 8 -17 19 -19 58 -17 l49 3 -38 33 c-38 32 -38 33 -46 132 -4 54 -12 131 -17 169 -6 39 -10 104 -11 145 0 41 -4 81 -8 88 -6 9 -53 14 -159 19 -143 6 -151 5 -150 -12z" />
        <path d="M4640 3667 c0 -2 15 -16 33 -33 l32 -29 -29 33 c-28 30 -36 37 -36 29z" />
    </g>

</svg>