<!DOCTYPE svg PUBLIC "-//W3C//DTD SVG 20010904//EN" "http://www.w3.org/TR/2001/REC-SVG-20010904/DTD/svg10.dtd">
<svg version="1.0" xmlns="http://www.w3.org/2000/svg" width="1080px" height="1080px" viewBox="0 0 10800 10800" preserveAspectRatio="xMidYMid meet">
<g id="layer101" fill="#1c1b1a" stroke="none">
 <path d="M1923 8608 c3 -10 37 -13 125 -13 66 1 120 -3 119 -8 -1 -5 31 -23 71 -41 51 -21 95 -51 143 -95 l71 -64 20 21 c26 25 21 33 -65 99 -34 26 -56 51 -53 58 3 9 -8 16 -32 22 -25 6 16 8 123 5 88 -2 162 -6 164 -8 2 -2 6 -31 10 -66 4 -35 10 -68 13 -74 4 -6 74 -17 160 -24 84 -7 160 -14 168 -16 8 -1 33 -3 55 -3 22 -1 47 -6 55 -11 12 -8 11 -13 -11 -37 -14 -15 -62 -75 -106 -133 -45 -58 -92 -111 -106 -117 -60 -28 -97 -112 -97 -225 l0 -66 68 -7 c190 -19 758 -88 907 -110 94 -14 184 -23 202 -20 39 7 88 46 109 88 15 27 15 58 -1 341 -9 171 -18 316 -20 321 -2 7 -37 8 -105 3 -57 -4 -104 -9 -106 -10 -1 -2 -14 -101 -28 -222 -14 -120 -26 -220 -28 -221 -2 -2 -95 16 -208 39 -185 39 -205 45 -202 62 2 10 19 71 38 134 71 241 68 226 55 272 -7 23 -28 57 -46 75 l-33 33 57 1 c194 3 496 -2 499 -9 1 -4 41 -6 87 -4 l85 4 11 -31 c6 -17 13 -31 15 -31 13 0 113 45 136 62 43 30 45 15 2 -17 -20 -15 -46 -49 -58 -74 -21 -45 -21 -55 -21 -615 0 -447 3 -570 13 -573 9 -4 12 113 12 559 0 544 1 564 21 608 25 56 44 77 94 104 l40 21 1029 3 c1159 3 1103 6 1170 -68 20 -23 41 -52 46 -66 6 -16 10 -528 10 -1339 0 -1164 2 -1314 15 -1309 13 5 15 160 15 1308 0 893 -3 1313 -11 1340 -6 21 -29 58 -51 82 l-41 44 134 1 c74 0 154 1 179 1 31 0 77 -13 146 -42 l101 -42 42 22 c33 16 41 25 36 40 -8 24 18 26 298 22 197 -3 207 -4 207 -22 0 -13 14 -27 41 -40 l40 -21 100 41 100 41 449 0 c247 0 456 2 465 5 8 4 15 10 15 15 0 5 -1445 9 -3481 9 -2780 0 -3480 -3 -3476 -12z"/>
 <path d="M4404 8466 c-17 -8 -40 -26 -52 -41 -22 -28 -22 -28 -22 -601 0 -371 4 -575 10 -579 7 -4 10 184 10 555 0 612 0 613 56 639 18 8 292 11 1000 11 l976 0 29 -29 29 -29 0 -1302 c0 -1037 3 -1301 13 -1298 9 4 13 274 15 1300 l2 1295 -23 34 c-13 19 -38 39 -57 46 -54 18 -1943 17 -1986 -1z"/>
 <path d="M6910 8431 c0 -54 164 -1505 205 -1817 21 -161 23 -189 11 -196 -12 -7 -14 -47 -9 -248 l6 -240 -67 31 c-48 22 -74 29 -94 24 -22 -5 -301 -104 -309 -110 -4 -2 36 -78 46 -88 5 -5 45 -2 97 8 49 9 106 14 127 11 24 -4 48 -1 67 9 18 10 57 15 105 15 64 0 158 17 256 46 13 3 18 -5 24 -33 3 -21 9 -49 12 -62 l6 -23 -80 7 -79 7 -38 -34 -37 -33 8 -100 8 -100 60 -8 c33 -5 135 -6 228 -3 173 6 215 15 236 54 22 43 121 362 121 393 0 44 -23 77 -66 95 -38 16 -38 13 -24 139 6 50 13 162 15 250 3 88 32 569 65 1069 33 500 60 917 60 927 0 18 -10 19 -135 19 l-134 0 -6 -32 c-7 -44 -166 -1374 -174 -1463 -7 -74 -16 -65 -24 25 -3 25 -48 359 -101 743 -53 383 -96 704 -96 712 0 13 -24 15 -145 15 -84 0 -145 -4 -145 -9z m273 -33 c5 -26 161 -1185 208 -1546 16 -119 31 -102 47 54 7 71 50 442 95 824 l82 695 118 3 117 3 0 -33 c0 -18 -28 -438 -62 -933 -33 -495 -63 -933 -65 -972 l-5 -73 -277 0 -278 0 -12 68 c-22 130 -163 1347 -217 1875 l-6 67 125 0 125 0 5 -32z"/>
 <path d="M8386 8422 c-7 -12 2 -100 45 -432 53 -415 192 -1326 203 -1338 19 -18 14 34 -23 270 -94 599 -170 1142 -192 1368 -12 121 -20 153 -33 132z"/>
 <path d="M5359 8383 c-56 -59 23 -141 81 -83 25 25 25 51 3 79 -27 32 -57 34 -84 4z m75 -25 c16 -26 -4 -53 -40 -53 -23 0 -30 5 -32 23 -7 47 47 69 72 30z"/>
 <path d="M4854 8387 c-3 -8 -4 -34 -2 -58 l3 -44 58 -3 58 -3 -3 58 -3 58 -53 3 c-38 2 -54 -1 -58 -11z m96 -47 l0 -40 -40 0 -40 0 0 40 0 40 40 0 40 0 0 -40z"/>
 <path d="M5890 8365 l-24 -26 32 -31 c36 -37 57 -30 22 7 l-23 25 23 25 c17 18 20 25 8 25 -8 0 -25 -11 -38 -25z"/>
 <path d="M8327 8318 c-39 -297 -165 -1793 -152 -1806 14 -15 22 28 34 191 21 297 80 1001 107 1269 13 141 24 290 22 330 l-3 73 -8 -57z"/>
 <path d="M8239 8325 c-21 -11 -34 -40 -77 -172 -118 -363 -262 -895 -262 -971 0 -138 93 -90 159 81 85 223 136 441 176 752 20 149 38 282 41 298 7 30 1 33 -37 12z"/>
 <path d="M2366 8163 c-46 -233 -142 -669 -238 -1085 -79 -344 -94 -428 -74 -407 12 11 234 992 311 1368 47 231 51 261 36 261 -4 0 -20 -62 -35 -137z"/>
 <path d="M2464 8218 c3 -35 9 -435 13 -890 5 -727 8 -828 21 -828 13 0 14 91 9 788 -8 873 -12 992 -35 992 -12 0 -14 -11 -8 -62z"/>
 <path d="M2543 8194 c4 -44 9 -155 13 -249 12 -346 119 -809 199 -861 57 -37 83 26 65 156 -23 164 -199 1000 -214 1016 0 1 -16 5 -35 9 l-34 7 6 -78z"/>
 <path d="M3320 7611 c238 -188 356 -279 358 -276 2 2 -29 64 -67 138 l-71 134 -78 7 c-42 3 -97 9 -122 12 l-45 5 25 -20z"/>
 <path d="M4055 7069 c-16 -5 -93 -27 -170 -48 -149 -43 -145 -47 30 -31 82 8 113 7 173 -7 l72 -17 0 -118 0 -119 -57 -96 c-31 -53 -77 -144 -103 -202 -48 -108 -130 -332 -130 -355 0 -10 33 -14 133 -18 73 -2 138 -8 145 -12 9 -5 12 -119 12 -456 l0 -448 -35 -21 c-21 -12 -44 -38 -57 -66 -20 -41 -21 -49 -10 -92 11 -40 11 -49 -2 -62 -14 -13 -16 -12 -24 9 -9 24 -9 24 -27 -10 -23 -46 -20 -44 -47 -26 -29 21 -48 20 -48 -1 0 -14 -3 -14 -22 4 -13 11 -34 26 -46 33 -21 10 -23 17 -17 48 21 120 36 142 100 142 38 0 43 3 48 26 3 18 0 27 -12 31 -52 16 -121 52 -154 82 -21 19 -40 32 -42 29 -3 -3 -8 -65 -11 -139 -9 -221 26 -353 102 -385 71 -30 191 -8 236 43 10 10 28 48 42 83 l24 65 4 -245 c3 -233 4 -247 26 -293 28 -55 78 -100 131 -116 28 -8 330 -11 1087 -11 1001 0 1051 1 1089 19 49 23 99 74 119 123 23 54 24 698 1 698 -12 0 -15 -50 -17 -343 l-3 -344 -27 -36 c-16 -19 -43 -46 -60 -59 l-33 -23 -1070 -3 -1071 -2 -46 29 c-29 19 -56 46 -70 73 l-23 43 -3 1258 -2 1257 27 -6 c16 -4 46 -12 68 -18 l40 -12 5 -1223 5 -1223 33 -29 32 -29 996 0 c1106 0 1030 -5 1060 67 19 45 20 617 2 611 -10 -4 -14 -78 -18 -307 -5 -302 -5 -303 -28 -322 -13 -10 -38 -21 -55 -24 -18 -3 -463 -4 -989 -3 l-958 3 -24 25 c-15 16 -25 38 -26 60 -1 19 -2 564 -1 1211 l1 1176 24 -4 c20 -4 26 1 40 43 9 26 15 48 13 49 -1 1 -68 18 -148 38 -152 38 -183 42 -234 26z"/>
 <path d="M4514 6970 c-48 -18 -54 -43 -54 -213 0 -137 2 -158 15 -153 8 3 15 1 15 -5 0 -5 -7 -12 -15 -15 -17 -7 -21 -74 -5 -74 6 0 10 -5 10 -11 0 -5 -4 -7 -10 -4 -6 4 -10 -32 -10 -100 0 -99 2 -107 25 -130 l24 -25 453 0 c340 1 457 4 469 13 37 28 39 50 39 362 l0 307 -32 29 c-24 23 -33 27 -39 17 -6 -9 -9 -10 -9 -1 0 9 -60 12 -247 12 -136 0 -241 -4 -234 -8 8 -6 3 -12 -17 -20 -43 -18 -102 -22 -141 -9 -26 8 -35 7 -43 -3 -8 -11 -9 -10 -4 3 8 25 -35 27 -57 3 -10 -11 -16 -15 -13 -8 8 15 -10 27 -19 13 -3 -5 -11 -10 -16 -10 -6 0 -7 5 -4 10 3 6 1 10 -4 10 -18 0 -25 2 -41 10 -8 4 -25 4 -36 0z m11 -27 c-10 -6 -14 -16 -11 -22 4 -5 2 -12 -3 -15 -14 -9 -23 11 -16 33 3 12 14 19 26 18 18 -1 19 -2 4 -14z m9 -78 c-6 -15 -34 -29 -34 -16 0 5 7 12 16 15 8 3 12 11 8 17 -4 8 -3 9 4 5 6 -4 9 -13 6 -21z m474 -175 c39 -22 75 -47 82 -55 25 -30 3 -59 -83 -107 -46 -27 -87 -48 -92 -48 -5 0 -17 7 -27 17 -15 13 -18 32 -18 105 0 49 5 98 10 109 16 29 51 23 128 -21z m-100 -373 c2 -12 -3 -17 -17 -17 -15 0 -21 6 -21 21 0 25 33 22 38 -4z m72 3 c0 -11 -6 -20 -14 -20 -18 0 -29 16 -21 30 11 18 35 11 35 -10z m78 -3 c2 -12 -3 -17 -17 -17 -15 0 -21 6 -21 21 0 25 33 22 38 -4z"/>
 <path d="M3596 6900 c-55 -17 -97 -77 -109 -153 -8 -50 -25 -71 -43 -56 -20 17 -17 50 5 56 24 6 33 40 19 66 -9 18 -15 11 -49 -58 -38 -76 -50 -142 -31 -172 12 -19 104 -79 141 -91 50 -18 128 -15 162 5 32 19 49 61 30 72 -9 6 -9 15 -1 35 12 31 14 83 3 72 -5 -4 -13 -26 -18 -48 -10 -38 -14 -42 -57 -53 -38 -9 -48 -9 -52 1 -3 7 -24 18 -48 25 -24 6 -46 16 -50 23 -14 20 4 100 29 134 l24 33 30 -26 c26 -21 44 -28 79 -27 3 0 15 3 28 7 19 5 23 2 28 -24 9 -44 22 -29 29 33 13 100 -9 138 -85 150 -19 3 -48 1 -64 -4z m81 -105 c8 -22 -2 -28 -31 -21 -17 4 -23 11 -20 21 8 20 43 19 51 0z"/>
 <path d="M3774 5668 c3 -18 10 -78 16 -133 13 -122 21 -167 27 -161 8 8 -30 326 -39 326 -5 0 -7 -15 -4 -32z"/>
 <path d="M3168 5685 c-8 -8 51 -115 63 -115 8 0 -31 81 -56 118 -1 1 -4 0 -7 -3z"/>
 <path d="M7478 5364 c-11 -11 -10 -52 2 -59 6 -3 10 -19 10 -36 0 -34 -25 -40 -35 -9 -9 27 -25 25 -25 -2 -1 -29 -43 -78 -68 -78 -10 0 -27 -7 -38 -15 -28 -21 -32 -19 -46 26 l-12 41 -23 -26 c-18 -21 -23 -39 -23 -82 0 -69 29 -104 85 -104 48 0 172 54 210 91 26 26 30 36 30 82 -1 54 -53 186 -67 171z"/>
 <path d="M4946 3968 c-3 -24 -8 -64 -11 -90 l-6 -48 -57 0 c-31 -1 -68 -7 -82 -15 -32 -18 -54 -19 -47 -1 4 11 -22 15 -130 21 -92 4 -139 3 -146 -4 -10 -10 -97 -538 -97 -593 0 -23 4 -28 25 -28 17 0 26 7 30 23 5 20 85 541 85 552 0 3 134 5 298 4 175 0 289 -4 277 -9 -11 -5 -41 -16 -67 -26 l-48 -17 0 -66 c0 -36 4 -71 8 -78 6 -9 36 -2 117 27 60 22 111 40 113 40 3 0 2 29 0 65 -6 63 -5 65 18 65 17 0 24 6 24 20 0 19 7 20 154 20 l154 0 6 -27 c2 -16 7 -59 11 -98 18 -221 39 -383 52 -408 30 -58 130 -72 179 -26 24 22 48 85 39 100 -7 10 -23 170 -34 346 -10 142 -13 155 -40 201 -54 87 -53 87 -463 90 l-357 3 -5 -43z"/>
 <path d="M5575 3060 c2 -36 8 -84 11 -107 7 -48 -4 -55 -36 -23 -11 11 -20 33 -20 50 0 19 -5 30 -14 30 -18 0 -30 -68 -24 -134 2 -25 1 -46 -2 -46 -3 0 -31 9 -63 20 -73 26 -87 25 -87 -2 -1 -22 -1 -23 -15 -4 -8 11 -15 30 -15 42 0 62 -44 3 -56 -76 -17 -102 112 -151 263 -101 32 11 75 22 95 26 69 11 75 68 23 220 -19 55 -41 116 -50 135 l-16 35 6 -65z"/>
 </g>
<g id="layer102" fill="#966846" stroke="none">
 <path d="M3965 8574 c46 -7 123 -8 118 -1 -2 4 -34 6 -71 6 -37 -1 -58 -3 -47 -5z"/>
 <path d="M6978 8443 c39 -2 105 -2 145 0 39 1 7 3 -73 3 -80 0 -112 -2 -72 -3z"/>
 <path d="M7662 8443 c37 -2 100 -2 140 0 40 1 10 3 -67 3 -77 0 -110 -1 -73 -3z"/>
 <path d="M6993 8423 c37 -2 96 -2 130 0 34 2 4 3 -68 3 -71 0 -99 -1 -62 -3z"/>
 <path d="M7614 8415 c-3 -8 -4 -20 -1 -27 3 -7 6 -3 6 9 1 22 5 22 119 26 l117 3 -118 2 c-96 2 -119 -1 -123 -13z"/>
 <path d="M7843 8340 c0 -25 2 -35 4 -22 2 12 2 32 0 45 -2 12 -4 2 -4 -23z"/>
 <path d="M4355 7805 c0 -313 1 -440 2 -282 2 159 2 415 0 570 -1 155 -2 26 -2 -288z"/>
 <path d="M4322 7798 c-1 -301 1 -549 6 -551 6 -5 6 401 -1 903 -1 107 -3 -51 -5 -352z"/>
 <path d="M7833 8185 c0 -22 2 -30 4 -17 2 12 2 30 0 40 -3 9 -5 -1 -4 -23z"/>
 <path d="M7823 8035 c0 -22 2 -30 4 -17 2 12 2 30 0 40 -3 9 -5 -1 -4 -23z"/>
 <path d="M2552 7950 c0 -19 2 -27 5 -17 2 9 2 25 0 35 -3 9 -5 1 -5 -18z"/>
 <path d="M7813 7880 c0 -25 2 -35 4 -22 2 12 2 32 0 45 -2 12 -4 2 -4 -23z"/>
 <path d="M7803 7730 c0 -25 2 -35 4 -22 2 12 2 32 0 45 -2 12 -4 2 -4 -23z"/>
 <path d="M7793 7580 c0 -25 2 -35 4 -22 2 12 2 32 0 45 -2 12 -4 2 -4 -23z"/>
 <path d="M7783 7425 c0 -22 2 -30 4 -17 2 12 2 30 0 40 -3 9 -5 -1 -4 -23z"/>
 <path d="M7773 7275 c0 -22 2 -30 4 -17 2 12 2 30 0 40 -3 9 -5 -1 -4 -23z"/>
 <path d="M7763 7120 c0 -25 2 -35 4 -22 2 12 2 32 0 45 -2 12 -4 2 -4 -23z"/>
 <path d="M7753 6970 c0 -25 2 -35 4 -22 2 12 2 32 0 45 -2 12 -4 2 -4 -23z"/>
 <path d="M7743 6820 c0 -25 2 -35 4 -22 2 12 2 32 0 45 -2 12 -4 2 -4 -23z"/>
 <path d="M7733 6665 c0 -22 2 -30 4 -17 2 12 2 30 0 40 -3 9 -5 -1 -4 -23z"/>
 </g>
<g id="layer103" fill="#f69f64" stroke="none">
 <path d="M4355 8591 c-68 -17 -107 -48 -141 -111 -18 -33 -19 -73 -24 -613 -5 -543 -4 -577 12 -577 10 0 40 -8 67 -19 l50 -19 3 568 c3 557 3 569 24 597 11 15 36 36 55 45 32 17 99 18 994 17 717 0 969 -3 995 -12 19 -7 44 -27 57 -46 l23 -34 0 -1296 0 -1296 65 3 65 4 0 1318 c0 814 -4 1328 -10 1344 -5 14 -26 43 -46 65 -66 74 -13 71 -1148 70 -556 -1 -1024 -4 -1041 -8z"/>
 <path d="M2318 8474 c-3 -3 -20 -6 -36 -6 -21 -1 -32 -7 -35 -19 -3 -11 -1 -19 4 -19 5 0 9 5 9 11 0 5 5 7 10 4 6 -4 17 -1 25 5 8 6 19 9 25 5 5 -3 10 1 10 9 0 17 -3 20 -12 10z"/>
 <path d="M4912 8443 c267 -2 708 -2 980 0 271 1 52 2 -487 2 -539 0 -761 -1 -493 -2z"/>
 <path d="M6935 8393 c3 -16 21 -179 40 -363 45 -422 116 -1046 155 -1355 17 -131 30 -242 30 -246 0 -5 125 -9 278 -9 l279 0 6 103 c18 282 117 1790 121 1840 l6 57 -114 0 -114 0 -6 -37 c-4 -21 -42 -344 -86 -718 -110 -933 -104 -888 -118 -893 -6 -2 -12 2 -12 10 0 7 -7 58 -15 113 -27 180 -205 1494 -205 1510 0 13 -19 15 -125 15 l-124 0 4 -27z"/>
 <path d="M4874 8366 c-3 -8 -4 -27 -1 -43 3 -24 4 -23 6 9 1 35 3 37 39 41 l37 4 -38 1 c-24 1 -40 -3 -43 -12z"/>
 <path d="M4883 8273 c15 -2 39 -2 55 0 15 2 2 4 -28 4 -30 0 -43 -2 -27 -4z"/>
 <path d="M4360 8145 c0 -37 4 -65 10 -65 6 0 10 -5 10 -11 0 -5 -4 -7 -10 -4 -7 4 -10 -136 -10 -412 l0 -418 56 -23 56 -23 20 26 c11 14 24 25 29 25 14 0 11 -22 -7 -41 -19 -21 -21 -19 104 -69 45 -18 82 -38 82 -45 0 -17 43 -31 151 -50 51 -9 95 -23 113 -36 27 -20 39 -21 227 -20 153 1 199 -2 199 -12 0 -9 2 -9 9 1 6 10 15 6 39 -17 l32 -29 0 -307 c0 -312 -2 -334 -39 -362 -12 -9 -129 -12 -469 -13 l-453 0 -24 25 c-23 23 -25 31 -25 130 0 68 4 104 10 100 6 -3 10 -1 10 4 0 6 -4 11 -10 11 -16 0 -12 67 5 74 8 3 15 10 15 15 0 6 -7 8 -15 5 -13 -5 -15 16 -15 154 l0 160 -25 4 c-14 3 -25 1 -25 -5 0 -5 -11 -7 -25 -5 l-25 5 0 -1211 1 -1211 26 -25 26 -25 956 -3 c526 -1 971 0 990 3 18 4 44 17 57 30 l24 24 0 296 0 295 -54 0 c-45 0 -54 -3 -59 -20 -6 -23 -27 -27 -27 -5 0 8 -7 15 -15 15 -8 0 -195 -16 -416 -36 -433 -38 -443 -38 -476 12 -9 14 -13 34 -9 48 3 13 2 26 -3 28 -5 2 -11 32 -14 68 -3 36 -6 66 -7 67 0 1 -16 3 -35 5 -20 2 -35 8 -35 13 0 6 15 11 35 13 21 2 35 9 35 17 0 7 3 21 7 31 4 12 3 15 -6 10 -8 -5 -12 -3 -10 5 1 8 1 26 0 42 -1 25 -4 27 -46 27 -25 0 -45 5 -45 10 0 6 23 10 50 10 38 0 50 4 50 15 0 8 -4 15 -10 15 -13 0 -13 106 0 130 6 11 16 17 24 14 8 -3 16 3 19 15 3 12 14 22 26 22 12 1 26 3 31 4 6 1 34 3 64 4 54 1 55 2 58 33 4 43 28 50 28 7 l0 -32 70 6 c43 4 68 2 65 -4 -4 -5 -1 -9 4 -9 6 0 11 5 11 11 0 5 4 8 9 4 5 -3 12 -1 16 5 3 5 35 8 71 7 36 -2 68 1 70 5 3 4 19 7 37 6 18 -1 55 2 83 6 35 6 54 5 58 -3 4 -6 15 -11 24 -11 14 0 14 2 3 9 -9 6 -1 11 30 16 29 5 44 4 47 -4 2 -7 10 -6 25 4 25 18 109 20 139 4 18 -10 20 -9 15 5 -4 11 -1 16 12 16 10 0 25 8 34 18 16 17 17 116 17 1220 0 1138 -1 1202 -17 1203 -16 0 -15 2 2 9 13 6 -9 9 -68 8 -84 -1 -88 -2 -103 -27 l-15 -26 6 28 c4 22 2 27 -15 27 -11 0 -20 -6 -20 -12 0 -10 -2 -10 -8 -1 -12 18 -192 16 -192 -2 0 -7 10 -20 23 -29 18 -13 18 -15 2 -8 -11 5 -26 7 -33 5 -9 -4 -11 2 -6 21 5 20 2 26 -10 26 -10 0 -13 -6 -9 -17 6 -17 5 -17 -13 -1 -16 14 -47 16 -202 17 -117 0 -181 -3 -177 -9 3 -6 1 -10 -4 -10 -6 0 -11 5 -11 10 0 6 -7 10 -15 10 -8 0 -15 -4 -15 -10 0 -5 -5 -10 -11 -10 -5 0 -7 5 -4 10 4 6 -18 10 -59 10 -42 0 -66 -4 -70 -12 -5 -10 -7 -10 -12 -1 -8 18 -280 17 -288 0 -5 -9 -7 -9 -12 1 -3 6 -10 12 -15 12 -6 0 -7 -4 -4 -10 3 -5 2 -10 -4 -10 -5 0 -12 6 -15 13 -5 10 -7 10 -12 0 -3 -7 -13 -13 -22 -13 -15 0 -15 2 -2 10 11 7 2 10 -32 10 -27 0 -48 -4 -48 -10 0 -5 -5 -10 -11 -10 -5 0 -8 4 -4 9 8 14 -488 11 -497 -3 -5 -8 -8 -7 -8 2 0 6 -11 12 -25 12 -24 0 -25 -2 -25 -65z m490 40 c-7 -8 -17 -15 -22 -15 -6 0 -5 7 2 15 7 8 17 15 22 15 6 0 5 -7 -2 -15z m1001 -7 c1 -7 1 -16 1 -20 -1 -3 5 -12 13 -18 22 -18 18 -28 -8 -26 -21 1 -24 6 -23 38 1 35 14 55 17 26z m-1241 -17 c0 -11 -31 -24 -38 -16 -3 3 0 5 7 5 7 0 9 5 6 10 -3 6 1 10 9 10 9 0 16 -4 16 -9z m68 -9 c2 -7 -3 -12 -10 -12 -8 0 -15 7 -15 15 0 18 19 15 25 -3z m683 9 c-8 -5 -10 -14 -5 -22 7 -12 5 -12 -9 0 -19 15 -14 31 11 31 14 0 14 -2 3 -9z m329 -12 c11 -19 10 -20 -9 -9 -12 6 -21 15 -21 20 0 18 19 11 30 -11z m409 7 c7 -8 8 -17 3 -19 -4 -3 -13 3 -20 14 -14 22 0 26 17 5z m-1551 -43 c16 -16 16 -16 -1 -10 -10 4 -25 7 -33 7 -9 0 -12 5 -9 10 9 15 24 12 43 -7z m632 -8 c-25 -27 -34 -27 -24 -1 3 9 10 14 14 11 5 -3 11 -1 15 5 3 5 9 10 12 10 4 0 -4 -11 -17 -25z m170 -13 c0 -4 -9 -8 -20 -9 -11 -1 -20 2 -20 8 0 5 9 9 20 9 11 0 20 -4 20 -8z m710 -11 c0 -11 6 -21 13 -24 24 -9 -10 -29 -43 -25 -44 4 -53 28 -10 28 27 0 30 3 25 20 -4 11 -2 20 4 20 6 0 11 -9 11 -19z m-347 -8 c-1 -5 17 -10 39 -10 22 -1 43 -5 46 -8 11 -11 -19 -22 -55 -21 -31 1 -38 5 -44 29 -5 20 -4 27 4 24 7 -3 11 -9 10 -14z m-933 -3 c0 -5 7 -10 16 -10 9 0 14 -6 12 -12 -3 -8 -21 -13 -43 -13 -22 0 -40 5 -42 13 -3 6 2 12 11 12 9 0 16 5 16 10 0 6 7 10 15 10 8 0 15 -4 15 -10z m125 0 c-4 -6 6 -10 24 -10 22 0 29 -4 28 -18 -1 -14 -8 -17 -36 -14 -20 2 -43 6 -51 9 -8 4 -18 6 -22 5 -4 -1 -5 5 -1 14 3 8 12 13 19 10 7 -3 16 -1 19 4 4 6 11 10 16 10 6 0 7 -4 4 -10z m601 -10 c16 0 16 -2 8 -23 -3 -8 -13 -13 -22 -11 -59 11 -72 15 -72 24 0 6 11 10 24 10 14 0 28 5 32 12 6 9 9 9 12 0 2 -7 10 -12 18 -12z m420 -1 c8 1 9 -5 6 -28 -2 -8 -78 2 -88 12 -12 12 7 24 31 19 17 -3 25 0 25 9 0 12 2 12 9 1 4 -8 12 -13 17 -13z m-826 -10 c0 -14 -47 -22 -86 -14 -41 7 -39 14 8 24 38 8 78 3 78 -10z m-432 -1 c-3 -8 -21 -13 -43 -13 -22 0 -40 5 -42 13 -3 8 9 12 42 12 33 0 45 -4 43 -12z m572 2 c0 -5 -5 -10 -11 -10 -5 0 -7 -4 -4 -10 4 -6 -2 -7 -18 -1 -13 5 -30 5 -37 1 -17 -11 -30 -4 -30 16 0 10 13 14 50 14 28 0 50 -4 50 -10z m140 -5 c-13 -15 -56 -20 -84 -9 -33 13 -14 24 40 24 49 0 55 -2 44 -15z m280 5 c0 -23 -90 -26 -98 -2 -2 8 11 12 47 12 28 0 51 -4 51 -10z m558 -2 c-3 -8 -21 -13 -43 -13 -22 0 -40 5 -42 13 -3 8 9 12 42 12 33 0 45 -4 43 -12z m-1678 -23 c0 -9 -7 -18 -15 -21 -8 -3 -17 -14 -20 -25 -4 -10 -11 -19 -16 -19 -14 0 -11 33 7 58 17 25 44 29 44 7z m1780 -56 c0 -13 -7 -19 -21 -19 -15 0 -19 4 -15 16 4 9 0 27 -8 39 -8 13 -12 26 -8 30 10 10 52 -43 52 -66z m-1580 -9 c0 -5 -7 -10 -15 -10 -8 0 -15 5 -15 10 0 6 7 10 15 10 8 0 15 -4 15 -10z m-240 -96 c0 -32 -4 -44 -15 -44 -11 0 -15 11 -15 43 0 24 3 47 6 50 14 14 24 -6 24 -49z m1826 21 c7 -30 -2 -75 -16 -75 -5 0 -12 11 -16 25 -7 30 2 75 16 75 5 0 12 -11 16 -25z m-1826 -161 c0 -32 -4 -44 -15 -44 -11 0 -15 11 -15 43 0 24 3 47 6 50 14 14 24 -6 24 -49z m1826 21 c7 -30 -2 -75 -16 -75 -5 0 -12 11 -15 25 -3 14 -7 36 -10 50 -4 20 -1 25 15 25 13 0 22 -9 26 -25z m-1826 -160 c0 -33 -4 -45 -15 -45 -11 0 -15 12 -15 45 0 33 4 45 15 45 11 0 15 -12 15 -45z m1826 21 c13 -55 -10 -94 -33 -57 -9 15 -10 28 -2 50 13 37 26 40 35 7z m-1812 -151 c11 -19 16 -38 12 -42 -9 -9 -42 26 -51 55 -11 36 18 27 39 -13z m1806 12 c0 -19 -47 -73 -56 -64 -5 4 -3 16 4 25 7 9 17 27 22 40 10 23 30 22 30 -1z m-310 3 c0 -5 -7 -10 -15 -10 -8 0 -15 5 -15 10 0 6 7 10 15 10 8 0 15 -4 15 -10z m-1345 -75 c0 -11 -59 -19 -82 -11 -8 3 -11 11 -8 16 8 14 90 9 90 -5z m143 3 c-5 -14 -61 -23 -85 -14 -27 11 -2 26 43 26 32 0 44 -4 42 -12z m142 -3 c0 -11 -12 -15 -44 -15 -43 0 -63 10 -49 24 3 3 26 6 50 6 32 0 43 -4 43 -15z m140 0 c0 -11 -12 -15 -44 -15 -43 0 -63 10 -49 24 3 3 26 6 50 6 32 0 43 -4 43 -15z m140 0 c0 -11 -12 -15 -45 -15 -33 0 -45 4 -45 15 0 11 12 15 45 15 33 0 45 -4 45 -15z m140 0 c0 -11 -12 -15 -45 -15 -33 0 -45 4 -45 15 0 11 12 15 45 15 33 0 45 -4 45 -15z m140 0 c0 -11 -12 -15 -45 -15 -33 0 -45 4 -45 15 0 11 12 15 45 15 33 0 45 -4 45 -15z m140 0 c0 -11 -12 -15 -45 -15 -33 0 -45 4 -45 15 0 11 12 15 45 15 33 0 45 -4 45 -15z m140 0 c0 -11 -12 -15 -45 -15 -33 0 -45 4 -45 15 0 11 12 15 45 15 33 0 45 -4 45 -15z m140 0 c0 -11 -12 -15 -45 -15 -33 0 -45 4 -45 15 0 11 12 15 45 15 33 0 45 -4 45 -15z m145 0 c0 -5 -21 -11 -47 -13 -39 -3 -48 0 -48 13 0 13 9 16 48 13 26 -2 47 -7 47 -13z m140 0 c0 -5 -21 -11 -47 -13 -39 -3 -48 0 -48 13 0 13 9 16 48 13 26 -2 47 -7 47 -13z m-1545 -155 c0 -23 -90 -26 -98 -2 -2 8 11 12 47 12 28 0 51 -4 51 -10z m138 -2 c-5 -16 -41 -22 -74 -14 -42 11 -26 26 27 26 36 0 49 -4 47 -12z m140 0 c-3 -8 -21 -13 -43 -13 -22 0 -40 5 -42 13 -3 8 9 12 42 12 33 0 45 -4 43 -12z m140 0 c-3 -8 -21 -13 -43 -13 -22 0 -40 5 -42 13 -3 8 9 12 42 12 33 0 45 -4 43 -12z m140 0 c-3 -8 -21 -13 -43 -13 -22 0 -40 5 -42 13 -3 8 9 12 42 12 33 0 45 -4 43 -12z m152 2 c0 -23 -90 -26 -98 -2 -2 8 11 12 47 12 28 0 51 -4 51 -10z m408 -2 c-3 -8 -21 -13 -43 -13 -22 0 -40 5 -42 13 -3 8 9 12 42 12 33 0 45 -4 43 -12z m140 0 c-3 -8 -21 -13 -43 -13 -22 0 -40 5 -42 13 -3 8 9 12 42 12 33 0 45 -4 43 -12z m142 2 c0 -23 -90 -26 -98 -2 -2 8 11 12 47 12 28 0 51 -4 51 -10z m140 0 c0 -23 -90 -26 -98 -2 -2 8 11 12 47 12 28 0 51 -4 51 -10z m-560 -11 c0 -16 -52 -69 -62 -63 -16 10 31 73 55 74 4 0 7 -5 7 -11z m632 -16 c23 -26 32 -63 16 -63 -13 0 -48 52 -48 71 0 14 16 10 32 -8z m-834 -41 c3 -46 -13 -58 -20 -14 -3 15 -9 35 -13 46 -6 14 -4 17 11 14 14 -2 20 -13 22 -46z m152 -97 c0 -33 -4 -45 -15 -45 -11 0 -15 11 -15 38 0 21 3 42 7 45 16 16 23 4 23 -38z m710 -21 c0 -59 -24 -55 -28 4 -2 33 0 42 12 42 12 0 16 -11 16 -46z m-855 -19 c0 -22 -5 -40 -12 -42 -9 -3 -13 9 -13 42 0 33 4 45 13 43 7 -3 12 -21 12 -43z m145 -101 c0 -59 -24 -55 -28 4 -2 33 0 42 12 42 12 0 16 -11 16 -46z m710 -20 c0 -32 -4 -44 -12 -42 -14 5 -23 61 -14 85 11 27 26 2 26 -43z m-710 -120 c0 -32 -4 -44 -12 -42 -14 5 -23 61 -14 85 11 27 26 2 26 -43z m710 -15 c0 -36 -4 -49 -12 -47 -14 5 -23 61 -14 84 12 31 26 11 26 -37z m-710 -120 c0 -36 -4 -49 -12 -47 -14 5 -23 61 -14 84 12 31 26 11 26 -37z m708 -16 c-3 -55 -21 -65 -26 -15 -4 39 3 62 18 62 7 0 10 -18 8 -47z m-710 -120 c-3 -55 -21 -65 -26 -15 -4 39 3 62 18 62 7 0 10 -18 8 -47z m712 -18 c0 -33 -4 -45 -15 -45 -11 0 -15 11 -15 38 0 21 3 42 7 45 16 16 23 4 23 -38z m-710 -120 c0 -33 -4 -45 -15 -45 -11 0 -15 11 -15 38 0 21 3 42 7 45 16 16 23 4 23 -38z m710 -21 c0 -59 -24 -55 -28 4 -2 33 0 42 12 42 12 0 16 -11 16 -46z m-710 -120 c0 -59 -24 -55 -28 4 -2 33 0 42 12 42 12 0 16 -11 16 -46z m710 -20 c0 -32 -4 -44 -12 -42 -14 5 -23 61 -14 85 11 27 26 2 26 -43z m-1812 -31 c-2 -27 -7 -48 -13 -48 -5 0 -11 21 -13 48 -3 38 0 47 13 47 13 0 16 -9 13 -47z m957 -18 c0 -22 -5 -40 -12 -42 -9 -3 -13 9 -13 42 0 33 4 45 13 43 7 -3 12 -21 12 -43z m145 -71 c0 -32 -4 -44 -12 -42 -14 5 -23 61 -14 85 11 27 26 2 26 -43z m710 -20 c0 -32 -4 -44 -12 -42 -14 5 -23 61 -14 85 11 27 26 2 26 -43z m-1812 -31 c-2 -27 -7 -48 -13 -48 -5 0 -11 21 -13 48 -3 38 0 47 13 47 13 0 16 -9 13 -47z m960 -25 c-5 -51 -28 -47 -28 5 0 24 3 47 7 51 12 11 24 -22 21 -56z m-918 -23 c0 -8 -4 -15 -10 -15 -5 0 -10 7 -10 15 0 8 5 15 10 15 6 0 10 -7 10 -15z m390 0 c0 -8 -4 -15 -10 -15 -5 0 -10 7 -10 15 0 8 5 15 10 15 6 0 10 -7 10 -15z m670 -36 c0 -36 -4 -49 -12 -47 -14 5 -23 61 -14 84 12 31 26 11 26 -37z m710 -20 c0 -36 -4 -49 -12 -47 -14 5 -23 61 -14 84 12 31 26 11 26 -37z m-1810 -34 c0 -33 -4 -45 -15 -45 -11 0 -15 12 -15 45 0 33 4 45 15 45 11 0 15 -12 15 -45z m955 -15 c0 -26 -5 -45 -12 -47 -9 -3 -13 10 -13 47 0 37 4 50 13 48 7 -3 12 -22 12 -48z m145 -71 c0 -36 -4 -49 -12 -47 -14 5 -23 61 -14 84 12 31 26 11 26 -37z m710 -14 c0 -25 -4 -45 -10 -45 -5 0 -10 20 -10 45 0 25 5 45 10 45 6 0 10 -20 10 -45z m-1810 -40 c0 -33 -4 -45 -15 -45 -11 0 -15 12 -15 45 0 33 4 45 15 45 11 0 15 -12 15 -45z m240 35 c0 -5 -7 -10 -15 -10 -8 0 -15 5 -15 10 0 6 7 10 15 10 8 0 15 -4 15 -10z m715 -50 c0 -26 -5 -45 -12 -47 -9 -3 -13 10 -13 47 0 37 4 50 13 48 7 -3 12 -22 12 -48z m-955 -125 c0 -33 -4 -45 -15 -45 -11 0 -15 12 -15 45 0 33 4 45 15 45 11 0 15 -12 15 -45z m40 -20 c0 -8 -4 -15 -10 -15 -5 0 -10 7 -10 15 0 8 5 15 10 15 6 0 10 -7 10 -15z m390 0 c0 -8 -4 -15 -10 -15 -5 0 -10 7 -10 15 0 8 5 15 10 15 6 0 10 -7 10 -15z m-427 -97 c2 -13 8 -31 12 -40 5 -13 3 -18 -8 -18 -18 0 -42 54 -33 75 8 21 22 12 29 -17z m147 -78 c0 -5 -20 -10 -45 -10 -25 0 -45 5 -45 10 0 6 20 10 45 10 25 0 45 -4 45 -10z m140 0 c0 -5 -20 -10 -45 -10 -25 0 -45 5 -45 10 0 6 20 10 45 10 25 0 45 -4 45 -10z m140 0 c0 -5 -20 -10 -45 -10 -25 0 -45 5 -45 10 0 6 20 10 45 10 25 0 45 -4 45 -10z m140 0 c0 -5 -20 -10 -45 -10 -25 0 -45 5 -45 10 0 6 20 10 45 10 25 0 45 -4 45 -10z m140 0 c0 -5 -20 -10 -45 -10 -25 0 -45 5 -45 10 0 6 20 10 45 10 25 0 45 -4 45 -10z m-535 -155 c0 -5 -21 -11 -47 -13 -39 -3 -48 0 -48 13 0 13 9 16 48 13 26 -2 47 -7 47 -13z m140 0 c0 -5 -21 -11 -47 -13 -39 -3 -48 0 -48 13 0 13 9 16 48 13 26 -2 47 -7 47 -13z m140 0 c0 -5 -21 -11 -47 -13 -39 -3 -48 0 -48 13 0 13 9 16 48 13 26 -2 47 -7 47 -13z m140 0 c0 -5 -21 -11 -47 -13 -45 -3 -58 4 -41 22 11 10 88 3 88 -9z m140 0 c0 -11 -59 -19 -82 -11 -8 3 -11 11 -8 16 8 14 90 9 90 -5z m-708 -39 c-9 -9 -19 -25 -22 -36 -8 -27 -25 -25 -25 2 0 28 40 72 53 59 6 -6 4 -16 -6 -25z m-29 -143 c-2 -27 -7 -48 -13 -48 -5 0 -11 21 -13 48 -3 38 0 47 13 47 13 0 16 -9 13 -47z m0 -140 c-3 -55 -21 -65 -26 -15 -4 39 3 62 18 62 7 0 10 -18 8 -47z m1827 -9 c0 -28 -4 -39 -15 -39 -16 0 -26 45 -16 72 11 28 31 7 31 -33z m-1827 -140 c-2 -22 -7 -39 -13 -39 -12 0 -19 60 -10 83 10 28 27 -3 23 -44z m1827 0 c0 -28 -4 -39 -15 -39 -16 0 -26 45 -16 72 11 28 31 7 31 -33z m-1811 -125 c19 -43 16 -60 -8 -40 -17 14 -37 67 -29 75 12 11 18 5 37 -35z m1806 17 c0 -16 -38 -66 -51 -66 -5 0 -9 7 -9 15 0 8 4 15 8 15 5 0 14 11 20 25 12 27 32 34 32 11z m-1650 -77 c0 -5 -22 -9 -50 -9 -45 0 -67 13 -39 22 19 6 89 -4 89 -13z m140 0 c0 -5 -22 -9 -50 -9 -61 0 -67 18 -7 22 47 3 57 1 57 -13z m280 0 c0 -5 -20 -9 -45 -9 -52 0 -61 17 -12 22 37 4 57 -1 57 -13z m140 0 c0 -5 -20 -9 -45 -9 -40 0 -54 7 -41 21 9 8 86 -3 86 -12z m280 0 c0 -5 -20 -9 -45 -9 -29 0 -45 4 -45 13 0 8 14 11 45 9 25 -2 45 -8 45 -13z m391 11 c16 0 29 -4 29 -10 0 -5 -20 -10 -45 -10 -35 0 -45 4 -45 16 0 11 5 14 16 10 9 -3 29 -6 45 -6z m-951 -10 c0 -5 -22 -10 -50 -10 -27 0 -50 5 -50 10 0 6 23 10 50 10 28 0 50 -4 50 -10z m420 0 c0 -5 -20 -10 -45 -10 -25 0 -45 5 -45 10 0 6 20 10 45 10 25 0 45 -4 45 -10z m290 0 c0 -5 -22 -10 -50 -10 -27 0 -50 5 -50 10 0 6 23 10 50 10 28 0 50 -4 50 -10z m130 0 c0 -5 -20 -10 -45 -10 -25 0 -45 5 -45 10 0 6 20 10 45 10 25 0 45 -4 45 -10z m285 0 c-3 -5 -26 -10 -51 -10 -24 0 -44 5 -44 10 0 6 23 10 51 10 31 0 48 -4 44 -10z m145 0 c0 -5 -22 -10 -50 -10 -27 0 -50 5 -50 10 0 6 23 10 50 10 28 0 50 -4 50 -10z"/>
 <path d="M2280 7965 c0 -8 5 -15 10 -15 6 0 10 7 10 15 0 8 -4 15 -10 15 -5 0 -10 -7 -10 -15z"/>
 <path d="M2553 7880 c0 -25 2 -35 4 -22 2 12 2 32 0 45 -2 12 -4 2 -4 -23z"/>
 <path d="M4192 5703 l3 -1258 23 -43 c14 -27 41 -54 70 -73 l46 -29 1071 2 1070 3 33 23 c17 13 44 40 60 59 l27 36 3 345 3 345 -32 -7 c-17 -3 -47 -6 -65 -6 l-34 0 0 -290 c0 -315 -4 -340 -53 -373 -24 -16 -101 -17 -1021 -17 l-996 0 -32 29 -33 29 -5 1223 -5 1223 -40 12 c-22 6 -52 14 -68 18 l-27 6 2 -1257z"/>
 <path d="M4495 6939 c-7 -23 2 -42 17 -33 7 4 6 9 -2 14 -7 4 -9 13 -6 19 4 6 11 9 16 6 5 -3 11 -2 14 3 2 4 -4 8 -14 9 -11 1 -22 -7 -25 -18z"/>
 <path d="M3626 6795 c-3 -10 3 -17 20 -21 29 -7 39 -1 31 21 -8 19 -43 20 -51 0z"/>
 <path d="M4880 6711 c-5 -11 -10 -60 -10 -109 0 -73 3 -92 18 -105 10 -10 22 -17 27 -17 5 0 46 21 92 48 86 48 108 77 83 107 -20 25 -150 95 -176 95 -13 0 -28 -9 -34 -19z"/>
 <path d="M4870 6321 c0 -15 6 -21 21 -21 25 0 22 33 -4 38 -12 2 -17 -3 -17 -17z"/>
 <path d="M4945 6330 c-8 -14 3 -30 21 -30 8 0 14 9 14 20 0 21 -24 28 -35 10z"/>
 <path d="M5020 6321 c0 -15 6 -21 21 -21 25 0 22 33 -4 38 -12 2 -17 -3 -17 -17z"/>
 <path d="M6850 5800 c-33 -7 -31 -7 18 -9 29 0 52 3 52 9 0 11 -17 11 -70 0z"/>
 <path d="M5780 5674 c0 -3 10 -18 21 -32 12 -15 19 -20 15 -12 -3 8 -9 23 -12 33 -6 16 -24 25 -24 11z"/>
 <path d="M5500 5624 c0 -6 6 -17 14 -23 11 -9 16 -9 22 1 4 7 4 10 -1 6 -4 -4 -14 0 -21 10 -7 9 -14 12 -14 6z"/>
 <path d="M6459 5546 c-2 -2 -44 -6 -94 -9 -145 -9 -299 -28 -308 -36 -18 -18 15 -18 208 0 110 10 210 18 223 19 30 0 29 30 -1 30 -13 0 -26 -2 -28 -4z"/>
 <path d="M5605 5476 c-55 -25 -80 -62 -80 -119 0 -60 22 -97 73 -121 59 -29 111 -16 162 39 20 21 25 37 25 80 0 60 -25 97 -82 121 -40 17 -59 17 -98 0z"/>
 <path d="M6447 5425 c-196 -18 -365 -36 -374 -39 -10 -4 -13 -10 -7 -15 9 -9 740 52 771 63 18 7 7 26 -15 25 -9 -1 -178 -16 -375 -34z"/>
 <path d="M7307 5343 c-4 -3 -7 -15 -7 -25 0 -15 5 -17 28 -12 34 9 34 8 26 28 -6 16 -35 22 -47 9z"/>
 <path d="M6460 5304 c-195 -18 -361 -33 -367 -33 -7 -1 -13 -8 -13 -16 0 -11 9 -13 43 -9 23 2 194 18 380 34 186 17 343 32 348 36 14 8 0 24 -19 23 -9 -1 -177 -16 -372 -35z"/>
 <path d="M2657 5284 c-4 -4 -7 -11 -7 -16 0 -12 369 -5 373 7 2 11 -355 20 -366 9z"/>
 <path d="M2650 5171 c0 -16 31 -21 135 -21 57 0 110 3 119 6 42 16 4 24 -119 24 -74 0 -135 -4 -135 -9z"/>
 <path d="M2983 5168 c3 -10 45 -13 167 -13 122 0 164 3 168 13 3 9 -35 12 -168 12 -133 0 -171 -3 -167 -12z"/>
 <path d="M2652 5068 c3 -9 24 -13 61 -13 79 0 77 19 -2 23 -48 2 -62 0 -59 -10z"/>
 <path d="M2817 5074 c-19 -20 27 -24 254 -24 215 0 249 2 249 15 0 13 -34 15 -248 15 -137 0 -252 -3 -255 -6z"/>
 <path d="M3886 5031 c-3 -5 6 -12 20 -15 29 -8 39 -3 29 13 -8 13 -42 14 -49 2z"/>
 <path d="M2657 4974 c-19 -20 4 -24 124 -24 100 0 130 3 127 13 -5 13 -238 24 -251 11z"/>
 <path d="M2950 4965 c0 -13 26 -15 186 -15 144 0 185 3 182 13 -4 9 -52 13 -186 15 -158 2 -182 0 -182 -13z"/>
 <path d="M2653 4858 c2 -9 27 -13 77 -13 50 0 75 4 78 13 3 9 -17 12 -78 12 -61 0 -81 -3 -77 -12z"/>
 <path d="M5578 4263 c57 -2 147 -2 200 0 53 1 7 3 -103 3 -110 0 -154 -2 -97 -3z"/>
 </g>
<g id="layer104" fill="#fed172" stroke="none">
 <path d="M2292 8594 c2 -1 22 -5 46 -9 24 -3 77 -18 119 -32 58 -19 86 -23 120 -18 39 6 43 9 37 28 -3 12 -7 23 -8 23 0 1 -72 4 -159 6 -86 3 -156 4 -155 2z"/>
 <path d="M3447 8592 l-97 -3 27 -23 c21 -18 33 -22 50 -15 14 5 23 5 23 -1 0 -6 -9 -10 -20 -10 -24 0 -24 2 -4 -46 19 -46 15 -76 -26 -203 -16 -52 -30 -102 -30 -112 0 -20 126 -116 205 -157 44 -22 165 -56 173 -48 3 3 52 410 52 432 0 6 24 15 53 19 28 5 44 10 34 12 -9 3 -15 9 -11 14 3 5 10 7 15 4 5 -4 9 1 9 9 0 9 -5 16 -11 16 -5 0 -3 10 5 22 24 34 21 77 -6 83 -29 6 -311 11 -441 7z m58 -102 c3 -5 -3 -10 -15 -10 -12 0 -18 5 -15 10 3 6 10 10 15 10 5 0 12 -4 15 -10z m231 -69 c0 -11 -5 -17 -13 -14 -17 6 -17 20 0 26 6 3 12 6 12 6 1 1 1 -7 1 -18z"/>
 <path d="M2043 8575 c0 -16 129 -145 145 -145 5 0 12 -6 15 -13 2 -6 34 -30 71 -51 48 -28 65 -43 61 -55 -2 -9 -15 -65 -28 -124 -20 -88 -22 -107 -10 -103 9 4 13 1 10 -6 -2 -7 -9 -12 -15 -11 -10 2 -16 -14 -27 -85 -3 -19 -14 -72 -25 -118 -22 -95 -24 -118 -10 -109 6 3 10 1 10 -4 0 -6 -7 -11 -16 -11 -11 0 -14 -5 -10 -17 4 -9 3 -19 -2 -22 -16 -11 -56 -205 -44 -209 7 -2 12 -8 12 -13 0 -4 -7 -6 -15 -3 -10 4 -15 0 -16 -12 0 -11 -2 -26 -4 -34 -93 -368 -150 -759 -116 -793 31 -31 83 54 140 228 39 119 98 338 105 392 2 15 6 35 9 43 3 8 16 64 28 125 15 76 18 110 10 113 -15 5 -14 23 1 19 13 -2 36 84 40 155 2 25 5 44 8 41 3 -2 10 26 17 64 6 37 24 131 38 208 14 77 24 157 21 178 -2 20 0 37 5 37 5 0 9 9 9 19 0 18 6 19 50 16 27 -2 53 -6 58 -9 18 -11 171 17 268 49 71 24 121 35 162 35 41 0 63 5 72 15 7 9 10 19 6 22 -6 7 -278 35 -455 48 -46 3 -88 8 -93 12 -6 3 -25 -9 -43 -27 l-34 -33 -72 66 c-61 55 -75 64 -88 54 -9 -8 -12 -8 -8 -1 9 15 -10 30 -48 40 -17 4 -41 15 -55 24 -33 23 -137 27 -137 5z m287 -111 c0 -8 -5 -12 -10 -9 -6 4 -17 1 -25 -5 -8 -6 -19 -9 -25 -5 -5 3 -10 1 -10 -4 0 -6 -4 -11 -9 -11 -5 0 -7 8 -4 19 3 12 14 18 35 19 16 0 33 3 36 6 9 10 12 7 12 -10z m112 -182 c11 -13 10 -15 -4 -9 -10 3 -20 2 -23 -3 -4 -6 -1 -10 5 -10 6 0 4 -10 -6 -25 -10 -15 -12 -25 -5 -25 6 0 11 -5 11 -11 0 -5 -4 -8 -9 -4 -10 5 -18 -28 -23 -90 -2 -16 -6 -32 -9 -35 -3 -3 -9 -26 -13 -52 -5 -34 -4 -48 6 -51 7 -2 5 -3 -5 -1 -13 2 -17 -4 -16 -24 0 -15 -7 -53 -16 -86 -9 -32 -14 -65 -11 -72 3 -8 1 -14 -4 -14 -8 0 -19 -46 -35 -140 -6 -36 -8 -44 -17 -70 -4 -8 -47 -196 -98 -418 -111 -487 -107 -472 -127 -472 -11 0 -14 6 -9 23 10 38 203 880 210 915 4 21 2 32 -7 33 -9 0 -9 2 1 6 6 2 10 9 6 14 -3 5 -1 9 5 9 14 0 32 93 19 101 -5 4 -3 9 6 12 9 4 16 14 16 22 0 9 -4 13 -10 10 -5 -3 -10 1 -10 9 0 9 6 16 13 16 8 0 18 24 26 65 11 54 11 68 0 82 -12 15 -12 16 2 11 14 -6 19 7 32 75 11 60 12 84 3 90 -8 5 -6 10 6 17 10 6 19 29 23 58 4 26 8 52 10 59 5 15 40 6 57 -15z m-142 -317 c0 -8 -4 -15 -10 -15 -5 0 -10 7 -10 15 0 8 5 15 10 15 6 0 10 -7 10 -15z"/>
 <path d="M6557 8560 c68 -61 68 -61 71 -417 l3 -323 27 0 c76 1 292 130 292 175 0 20 -32 348 -44 445 -2 19 -2 29 1 23 3 -9 32 -13 93 -13 l89 0 -1 29 c-1 23 -8 33 -30 42 -25 10 -32 10 -40 -2 -8 -11 -9 -11 -5 2 6 20 -90 63 -119 53 -16 -5 -16 -4 -4 5 11 8 -16 11 -102 11 -101 0 -119 -2 -128 -17 -11 -17 -11 -17 -6 0 5 15 -2 17 -62 17 l-67 -1 32 -29z"/>
 <path d="M7168 8542 c3 -26 9 -50 15 -53 5 -4 6 -12 2 -18 -4 -7 -2 -18 5 -26 6 -7 14 -39 17 -69 l6 -55 49 44 c68 61 127 79 244 73 52 -3 94 -2 94 2 0 4 13 10 29 13 24 5 29 11 26 28 -3 13 -1 27 3 33 10 14 9 37 -2 55 -6 10 -5 12 2 7 7 -4 12 -2 12 3 0 7 -85 11 -254 11 l-254 0 6 -48z m378 22 c-4 -11 -2 -15 8 -11 8 3 17 -1 21 -10 6 -18 -11 -33 -35 -32 -8 0 -4 5 10 11 25 11 25 11 3 15 -13 3 -23 6 -23 8 0 9 13 35 17 35 3 0 2 -7 -1 -16z"/>
 <path d="M7923 8580 c-154 -61 -170 -70 -170 -100 0 -31 11 -40 20 -17 4 9 8 9 15 -2 9 -12 13 -12 26 -2 11 9 16 10 16 2 0 -6 9 -11 20 -11 18 0 20 -7 20 -74 l0 -73 31 -7 c17 -3 75 -6 129 -6 105 0 215 26 249 58 10 9 24 18 32 20 7 2 17 9 21 15 4 7 8 -14 8 -45 0 -48 3 -58 20 -63 11 -3 20 -13 20 -22 0 -15 -2 -15 -18 0 -19 17 -19 21 -8 -103 2 -19 4 -60 5 -90 1 -43 4 -51 12 -37 5 9 14 17 20 17 5 0 2 -11 -7 -25 -11 -17 -15 -37 -11 -67 3 -24 8 -74 12 -113 3 -38 15 -142 26 -230 11 -88 22 -180 25 -205 17 -147 69 -443 94 -545 36 -142 82 -245 110 -245 58 0 44 253 -50 875 -21 143 -50 348 -64 455 -14 107 -38 274 -52 371 l-27 176 32 46 c17 25 31 48 31 51 0 10 -562 5 -587 -4z m337 -8 c0 -4 -9 -8 -20 -8 -11 0 -20 4 -20 8 0 4 9 8 20 8 11 0 20 -4 20 -8z m60 -7 c0 -8 -4 -15 -10 -15 -5 0 -10 7 -10 15 0 8 5 15 10 15 6 0 10 -7 10 -15z m-296 -11 c8 -21 8 -24 -5 -24 -5 0 -7 5 -4 10 3 6 1 10 -4 10 -6 0 -11 5 -11 10 0 16 17 12 24 -6z m357 -71 c12 -15 12 -16 -4 -10 -10 4 -23 7 -28 7 -6 0 -7 5 -4 10 9 15 21 12 36 -7z m-126 -42 c-3 -6 -14 -11 -23 -11 -15 1 -15 2 2 15 21 16 32 13 21 -4z m160 -83 c4 -40 9 -84 10 -98 3 -36 15 -129 22 -174 4 -29 8 -35 15 -25 7 10 8 9 2 -6 -11 -32 -12 -23 28 -312 12 -89 24 -160 27 -158 4 2 6 -13 6 -33 1 -66 17 -182 26 -188 5 -3 7 -9 4 -14 -7 -11 17 -170 25 -165 3 2 5 -8 3 -23 -2 -15 14 -135 36 -267 24 -149 35 -244 29 -250 -6 -6 -12 -5 -17 3 -4 7 -25 127 -47 266 -21 140 -42 252 -45 250 -4 -2 -5 4 -3 13 3 10 -7 92 -21 183 -14 91 -28 183 -30 205 -4 35 -13 95 -31 215 -3 19 -10 37 -15 38 -5 2 -9 8 -9 13 0 6 5 7 10 4 6 -3 10 -1 10 4 0 6 -3 11 -8 11 -4 0 -6 18 -4 40 2 22 0 40 -4 40 -5 0 -10 25 -10 55 -1 30 -7 62 -14 70 -10 12 -10 15 1 15 11 0 11 2 1 8 -7 5 -10 16 -6 25 4 11 1 17 -9 17 -17 0 -40 24 -30 33 3 4 12 -1 19 -11 7 -9 15 -15 18 -12 9 9 -12 144 -23 148 -14 5 -14 39 0 44 15 5 -1 38 -20 39 -14 1 -14 2 2 6 10 3 17 14 17 27 0 23 7 36 20 36 4 0 11 -33 15 -72z"/>
 <path d="M4210 8562 c-14 -9 -26 -20 -28 -24 -2 -4 -11 -5 -20 -2 -13 5 -13 2 3 -12 l20 -17 -20 8 c-25 10 -78 7 -85 -4 -3 -5 -17 -7 -32 -6 -16 2 -30 0 -32 -4 -5 -7 25 -573 30 -579 1 -2 27 -1 58 3 l55 7 3 262 c3 281 3 278 64 364 19 26 17 27 -16 4z m-108 -114 c-6 -6 -15 -8 -19 -3 -5 4 -2 10 5 12 6 3 9 10 6 16 -5 8 -2 8 7 0 10 -10 10 -16 1 -25z m-33 -17 c7 -5 12 -14 10 -20 -3 -7 -11 -3 -21 9 -18 21 -13 26 11 11z"/>
 <path d="M5699 8084 c5 -3 7 -14 4 -24 -7 -25 40 -38 64 -19 11 10 14 10 9 2 -5 -9 -2 -11 8 -7 39 15 3 31 -57 24 -9 -1 -16 4 -15 11 2 6 -3 13 -10 15 -7 1 -8 0 -3 -2z"/>
 <path d="M4750 8069 c0 -5 -7 -9 -16 -9 -9 0 -14 -6 -11 -12 5 -16 79 -18 84 -3 2 6 -10 16 -27 22 -16 6 -30 7 -30 2z"/>
 <path d="M5900 8071 c0 -9 -8 -12 -25 -9 -14 3 -28 2 -30 -2 -8 -12 17 -27 53 -32 25 -4 32 -1 28 9 -4 9 -1 11 5 7 7 -4 10 -2 8 5 -3 7 -8 12 -13 11 -5 -1 -13 4 -17 12 -7 11 -9 11 -9 -1z"/>
 <path d="M4849 8053 c-7 -8 -8 -13 -3 -12 5 1 16 0 24 -4 8 -3 31 -7 51 -9 28 -3 35 0 36 14 1 14 -6 18 -30 19 -18 0 -40 2 -49 4 -9 2 -23 -3 -29 -12z"/>
 <path d="M4583 8048 c2 -8 20 -13 42 -13 22 0 40 5 43 13 2 8 -10 12 -43 12 -33 0 -45 -4 -42 -12z"/>
 <path d="M5002 8048 c5 -16 41 -22 74 -14 42 11 26 26 -27 26 -36 0 -49 -4 -47 -12z"/>
 <path d="M5144 8044 c3 -9 6 -18 6 -20 0 -3 10 1 23 7 24 13 25 13 46 -4 12 -9 13 -9 7 1 -4 6 -2 12 3 12 6 0 11 5 11 10 0 6 -23 10 -51 10 -43 0 -50 -3 -45 -16z"/>
 <path d="M5280 8051 c0 -22 82 -27 100 -6 11 13 5 15 -44 15 -31 0 -56 -4 -56 -9z"/>
 <path d="M5420 8048 c0 -7 14 -11 72 -22 14 -3 28 12 28 30 0 2 -22 3 -50 2 -27 -1 -50 -6 -50 -10z"/>
 <path d="M5562 8048 c5 -16 41 -22 74 -14 42 11 26 26 -27 26 -36 0 -49 -4 -47 -12z"/>
 <path d="M5993 8048 c2 -8 20 -13 42 -13 22 0 40 5 43 13 2 8 -10 12 -43 12 -33 0 -45 -4 -42 -12z"/>
 <path d="M6140 8051 c-12 -9 -12 -11 2 -16 23 -9 73 -2 73 10 0 13 -56 18 -75 6z"/>
 <path d="M4496 8018 c-17 -24 -21 -58 -8 -58 5 0 14 11 20 25 6 14 16 25 22 25 5 0 10 7 10 15 0 22 -27 18 -44 -7z"/>
 <path d="M6268 8034 c-7 -12 27 -66 36 -57 4 4 4 0 0 -10 -3 -10 -1 -17 5 -17 6 0 11 9 11 19 0 23 -44 78 -52 65z"/>
 <path d="M4476 7913 c-3 -3 -6 -26 -6 -50 0 -32 4 -43 15 -43 11 0 15 12 15 44 0 43 -10 63 -24 49z"/>
 <path d="M6294 7885 c-7 -30 2 -75 16 -75 5 0 12 11 16 25 7 30 -2 75 -16 75 -5 0 -12 -11 -16 -25z"/>
 <path d="M4476 7773 c-3 -3 -6 -26 -6 -50 0 -32 4 -43 15 -43 11 0 15 12 15 44 0 43 -10 63 -24 49z"/>
 <path d="M6294 7745 c-7 -30 2 -75 16 -75 5 0 12 11 16 25 7 30 -2 75 -16 75 -5 0 -12 -11 -16 -25z"/>
 <path d="M4470 7585 c0 -33 4 -45 15 -45 11 0 15 12 15 45 0 33 -4 45 -15 45 -11 0 -15 -12 -15 -45z"/>
 <path d="M6296 7613 c-5 -20 -1 -72 8 -80 11 -11 26 10 26 37 0 52 -23 81 -34 43z"/>
 <path d="M4475 7468 c9 -29 42 -64 51 -55 10 10 -28 77 -44 77 -9 0 -11 -7 -7 -22z"/>
 <path d="M6290 7468 c-5 -13 -15 -31 -22 -40 -7 -9 -9 -21 -4 -25 9 -9 56 45 56 64 0 23 -20 24 -30 1z"/>
 <path d="M4575 7400 c-3 -5 0 -13 8 -16 23 -8 82 0 82 11 0 14 -82 19 -90 5z"/>
 <path d="M4715 7400 c-3 -6 0 -13 8 -16 24 -9 80 0 85 14 5 15 -84 17 -93 2z"/>
 <path d="M4857 7404 c-14 -14 6 -24 49 -24 32 0 44 4 44 15 0 11 -11 15 -43 15 -24 0 -47 -3 -50 -6z"/>
 <path d="M4997 7404 c-14 -14 6 -24 49 -24 32 0 44 4 44 15 0 11 -11 15 -43 15 -24 0 -47 -3 -50 -6z"/>
 <path d="M5140 7395 c0 -11 12 -15 45 -15 33 0 45 4 45 15 0 11 -12 15 -45 15 -33 0 -45 -4 -45 -15z"/>
 <path d="M5280 7395 c0 -11 12 -15 45 -15 33 0 45 4 45 15 0 11 -12 15 -45 15 -33 0 -45 -4 -45 -15z"/>
 <path d="M5420 7395 c0 -11 12 -15 45 -15 33 0 45 4 45 15 0 11 -12 15 -45 15 -33 0 -45 -4 -45 -15z"/>
 <path d="M5560 7395 c0 -11 12 -15 45 -15 33 0 45 4 45 15 0 11 -12 15 -45 15 -33 0 -45 -4 -45 -15z"/>
 <path d="M5700 7395 c0 -11 12 -15 45 -15 33 0 45 4 45 15 0 11 -12 15 -45 15 -33 0 -45 -4 -45 -15z"/>
 <path d="M5840 7395 c0 -11 12 -15 45 -15 33 0 45 4 45 15 0 11 -12 15 -45 15 -33 0 -45 -4 -45 -15z"/>
 <path d="M5980 7395 c0 -13 9 -16 48 -13 26 2 47 8 47 13 0 6 -21 11 -47 13 -39 3 -48 0 -48 -13z"/>
 <path d="M6120 7395 c0 -13 9 -16 48 -13 26 2 47 8 47 13 0 6 -21 11 -47 13 -39 3 -48 0 -48 -13z"/>
 <path d="M4572 7238 c5 -16 41 -22 74 -14 42 11 26 26 -27 26 -36 0 -49 -4 -47 -12z"/>
 <path d="M4710 7240 c0 -23 90 -26 98 -2 2 8 -11 12 -47 12 -28 0 -51 -4 -51 -10z"/>
 <path d="M4863 7238 c2 -8 20 -13 42 -13 22 0 40 5 43 13 2 8 -10 12 -43 12 -33 0 -45 -4 -42 -12z"/>
 <path d="M5003 7238 c2 -8 20 -13 42 -13 22 0 40 5 43 13 2 8 -10 12 -43 12 -33 0 -45 -4 -42 -12z"/>
 <path d="M5143 7238 c2 -8 20 -13 42 -13 22 0 40 5 43 13 2 8 -10 12 -43 12 -33 0 -45 -4 -42 -12z"/>
 <path d="M5282 7238 c5 -16 41 -22 74 -14 42 11 26 26 -27 26 -36 0 -49 -4 -47 -12z"/>
 <path d="M5703 7238 c2 -8 20 -13 42 -13 22 0 40 5 43 13 2 8 -10 12 -43 12 -33 0 -45 -4 -42 -12z"/>
 <path d="M5843 7238 c2 -8 20 -13 42 -13 22 0 40 5 43 13 2 8 -10 12 -43 12 -33 0 -45 -4 -42 -12z"/>
 <path d="M5972 7238 c5 -16 41 -22 74 -14 42 11 26 26 -27 26 -36 0 -49 -4 -47 -12z"/>
 <path d="M6112 7238 c5 -16 41 -22 74 -14 42 11 26 26 -27 26 -36 0 -49 -4 -47 -12z"/>
 <path d="M4496 7221 c-24 -27 -11 -48 15 -25 19 17 26 44 11 44 -5 0 -17 -9 -26 -19z"/>
 <path d="M5619 7227 c-21 -16 -41 -55 -31 -61 5 -3 20 8 35 24 38 40 35 67 -4 37z"/>
 <path d="M6250 7221 c0 -5 8 -23 18 -40 20 -37 47 -43 36 -8 -11 38 -54 76 -54 48z"/>
 <path d="M5415 7204 c4 -11 10 -31 13 -46 7 -44 23 -32 20 14 -2 33 -8 44 -22 46 -15 3 -17 0 -11 -14z"/>
 <path d="M5577 7113 c-4 -3 -7 -24 -7 -45 0 -27 4 -38 15 -38 11 0 15 12 15 45 0 42 -7 54 -23 38z"/>
 <path d="M6282 7058 c4 -59 28 -63 28 -4 0 35 -4 46 -16 46 -12 0 -14 -9 -12 -42z"/>
 <path d="M5430 7035 c0 -33 4 -45 13 -42 7 2 12 20 12 42 0 22 -5 40 -12 43 -9 2 -13 -10 -13 -43z"/>
 <path d="M4686 7035 c-27 -63 -26 -65 37 -85 54 -17 88 -18 155 -4 20 4 22 7 12 19 -11 13 -5 15 41 15 l54 1 -23 19 c-13 11 -40 22 -60 26 -72 12 -167 32 -184 39 -13 5 -21 -2 -32 -30z"/>
 <path d="M4431 6979 c-6 -18 -11 -38 -11 -45 0 -23 41 -16 62 11 11 14 26 25 34 25 23 0 16 20 -8 21 -13 1 -27 1 -32 0 -4 -1 -14 3 -21 9 -10 8 -15 3 -24 -21z"/>
 <path d="M5572 6938 c4 -59 28 -63 28 -4 0 35 -4 46 -16 46 -12 0 -14 -9 -12 -42z"/>
 <path d="M6284 6957 c-9 -24 0 -80 14 -85 8 -2 12 10 12 42 0 45 -15 70 -26 43z"/>
 <path d="M3550 6949 c-14 -4 -44 -7 -67 -8 -68 -2 -76 -8 -53 -41 28 -39 50 -104 43 -128 -3 -11 -13 -22 -24 -25 -22 -6 -25 -39 -5 -56 19 -16 34 5 45 62 11 59 39 107 79 132 19 12 31 29 32 41 0 26 -16 33 -50 23z"/>
 <path d="M5574 6837 c-9 -24 0 -80 14 -85 8 -2 12 10 12 42 0 45 -15 70 -26 43z"/>
 <path d="M6284 6816 c-9 -23 0 -79 14 -84 8 -2 12 11 12 47 0 48 -14 68 -26 37z"/>
 <path d="M3527 6758 c-25 -34 -43 -114 -29 -134 4 -7 26 -17 50 -23 24 -7 45 -18 48 -25 4 -10 14 -10 52 -1 45 12 47 14 59 61 21 91 13 121 -28 106 -30 -11 -75 1 -105 28 l-22 21 -25 -33z"/>
 <path d="M5574 6696 c-9 -23 0 -79 14 -84 8 -2 12 11 12 47 0 48 -14 68 -26 37z"/>
 <path d="M6284 6676 c-8 -22 0 -81 11 -81 6 0 11 21 13 48 3 45 -12 65 -24 33z"/>
 <path d="M5574 6556 c-8 -22 0 -81 11 -81 6 0 11 21 13 48 3 45 -12 65 -24 33z"/>
 <path d="M6287 6543 c-4 -3 -7 -24 -7 -45 0 -27 4 -38 15 -38 11 0 15 12 15 45 0 42 -7 54 -23 38z"/>
 <path d="M5577 6423 c-4 -3 -7 -24 -7 -45 0 -27 4 -38 15 -38 11 0 15 12 15 45 0 42 -7 54 -23 38z"/>
 <path d="M6282 6368 c4 -59 28 -63 28 -4 0 35 -4 46 -16 46 -12 0 -14 -9 -12 -42z"/>
 <path d="M5572 6248 c4 -59 28 -63 28 -4 0 35 -4 46 -16 46 -12 0 -14 -9 -12 -42z"/>
 <path d="M6284 6267 c-9 -24 0 -80 14 -85 8 -2 12 10 12 42 0 45 -15 70 -26 43z"/>
 <path d="M4472 6193 c2 -27 8 -48 13 -48 6 0 11 21 13 48 3 38 0 47 -13 47 -13 0 -16 -9 -13 -47z"/>
 <path d="M5430 6175 c0 -33 4 -45 13 -42 7 2 12 20 12 42 0 22 -5 40 -12 43 -9 2 -13 -10 -13 -43z"/>
 <path d="M5574 6147 c-9 -24 0 -80 14 -85 8 -2 12 10 12 42 0 45 -15 70 -26 43z"/>
 <path d="M6284 6127 c-9 -24 0 -80 14 -85 8 -2 12 10 12 42 0 45 -15 70 -26 43z"/>
 <path d="M4472 6053 c2 -27 8 -48 13 -48 6 0 11 21 13 48 3 38 0 47 -13 47 -13 0 -16 -9 -13 -47z"/>
 <path d="M5437 6084 c-4 -4 -7 -27 -7 -51 0 -52 23 -56 28 -5 3 34 -9 67 -21 56z"/>
 <path d="M5574 6006 c-9 -23 0 -79 14 -84 8 -2 12 11 12 47 0 48 -14 68 -26 37z"/>
 <path d="M6284 5986 c-9 -23 0 -79 14 -84 8 -2 12 11 12 47 0 48 -14 68 -26 37z"/>
 <path d="M4470 5915 c0 -33 4 -45 15 -45 11 0 15 12 15 45 0 33 -4 45 -15 45 -11 0 -15 -12 -15 -45z"/>
 <path d="M5430 5900 c0 -37 4 -50 13 -47 7 2 12 21 12 47 0 26 -5 45 -12 48 -9 2 -13 -11 -13 -48z"/>
 <path d="M5574 5866 c-9 -23 0 -79 14 -84 8 -2 12 11 12 47 0 48 -14 68 -26 37z"/>
 <path d="M7265 5854 c-57 -15 -119 -24 -170 -24 -47 0 -90 -6 -104 -14 -29 -16 -21 -22 47 -31 65 -9 80 -23 88 -86 7 -52 26 -63 32 -18 2 13 20 39 40 57 l36 34 79 -7 80 -7 -6 23 c-3 13 -9 41 -12 62 -4 20 -10 37 -14 36 -3 0 -46 -12 -96 -25z"/>
 <path d="M6290 5815 c0 -25 5 -45 10 -45 6 0 10 20 10 45 0 25 -4 45 -10 45 -5 0 -10 -20 -10 -45z"/>
 <path d="M6621 5820 c-17 -15 -38 -20 -77 -20 -68 0 -115 -19 -143 -58 -30 -43 -27 -50 26 -47 36 3 51 10 70 31 12 15 23 23 23 18 0 -5 4 -2 9 5 7 10 33 16 78 19 37 2 72 7 76 12 10 9 -13 60 -27 60 -6 -1 -22 -10 -35 -20z"/>
 <path d="M4470 5775 c0 -33 4 -45 15 -45 11 0 15 12 15 45 0 33 -4 45 -15 45 -11 0 -15 -12 -15 -45z"/>
 <path d="M5430 5760 c0 -37 4 -50 13 -47 7 2 12 21 12 47 0 26 -5 45 -12 48 -9 2 -13 -11 -13 -48z"/>
 <path d="M5577 5733 c-13 -13 -7 -53 8 -53 10 0 15 10 15 30 0 29 -9 38 -23 23z"/>
 <path d="M4470 5635 c0 -33 4 -45 15 -45 11 0 15 12 15 45 0 33 -4 45 -15 45 -11 0 -15 -12 -15 -45z"/>
 <path d="M3131 5649 c-20 -12 -55 -21 -90 -23 -86 -4 -226 -83 -206 -115 3 -6 36 -11 73 -11 59 0 64 -1 46 -14 -55 -41 62 -15 124 27 21 14 61 32 89 42 l53 17 -27 46 c-15 26 -27 48 -28 49 0 1 -16 -7 -34 -18z"/>
 <path d="M4474 5535 c-9 -21 15 -75 33 -75 11 0 13 5 8 18 -4 9 -10 27 -12 40 -7 29 -21 38 -29 17z"/>
 <path d="M7298 5478 c6 -7 13 -29 17 -48 6 -33 4 -37 -27 -50 -30 -14 -33 -19 -32 -55 1 -47 21 -144 33 -164 7 -11 13 -11 32 3 13 9 32 16 42 16 24 0 66 49 67 78 0 27 16 29 25 2 3 -11 13 -20 21 -20 17 0 20 55 3 66 -10 6 -7 84 7 157 l6 27 -102 0 c-81 0 -100 -3 -92 -12z m56 -144 c8 -20 8 -19 -26 -28 -23 -5 -28 -3 -28 12 0 10 3 22 7 25 12 13 41 7 47 -9z"/>
 <path d="M4560 5440 c0 -5 20 -10 45 -10 25 0 45 5 45 10 0 6 -20 10 -45 10 -25 0 -45 -4 -45 -10z"/>
 <path d="M4700 5440 c0 -5 20 -10 45 -10 25 0 45 5 45 10 0 6 -20 10 -45 10 -25 0 -45 -4 -45 -10z"/>
 <path d="M4840 5440 c0 -5 20 -10 45 -10 25 0 45 5 45 10 0 6 -20 10 -45 10 -25 0 -45 -4 -45 -10z"/>
 <path d="M4980 5440 c0 -5 20 -10 45 -10 25 0 45 5 45 10 0 6 -20 10 -45 10 -25 0 -45 -4 -45 -10z"/>
 <path d="M5120 5440 c0 -5 20 -10 45 -10 25 0 45 5 45 10 0 6 -20 10 -45 10 -25 0 -45 -4 -45 -10z"/>
 <path d="M5260 5440 c0 -5 18 -10 40 -10 22 0 40 5 40 10 0 6 -18 10 -40 10 -22 0 -40 -4 -40 -10z"/>
 <path d="M4580 5285 c0 -13 9 -16 48 -13 26 2 47 8 47 13 0 6 -21 11 -47 13 -39 3 -48 0 -48 -13z"/>
 <path d="M4720 5285 c0 -13 9 -16 48 -13 26 2 47 8 47 13 0 6 -21 11 -47 13 -39 3 -48 0 -48 -13z"/>
 <path d="M4860 5285 c0 -13 9 -16 48 -13 26 2 47 8 47 13 0 6 -21 11 -47 13 -39 3 -48 0 -48 -13z"/>
 <path d="M5007 5294 c-17 -18 -4 -25 41 -22 26 2 47 8 47 13 0 12 -77 19 -88 9z"/>
 <path d="M5145 5290 c-3 -5 0 -13 8 -16 23 -8 82 0 82 11 0 14 -82 19 -90 5z"/>
 <path d="M5287 5294 c-13 -13 5 -24 39 -24 24 0 34 5 34 15 0 10 -10 15 -33 15 -19 0 -37 -3 -40 -6z"/>
 <path d="M4502 5257 c-22 -23 -30 -67 -13 -67 5 0 13 9 16 20 3 11 13 27 22 36 10 9 12 19 6 25 -6 6 -17 1 -31 -14z"/>
 <path d="M3977 5144 c-4 -4 -7 -16 -7 -26 0 -15 -8 -18 -44 -18 -65 0 -80 -21 -101 -142 -6 -31 -4 -38 17 -48 12 -7 33 -22 46 -33 19 -18 22 -18 22 -4 0 21 19 22 48 1 27 -18 24 -20 47 26 18 34 18 34 27 10 8 -21 10 -22 24 -8 13 13 14 21 3 56 -14 47 -8 76 25 125 l24 36 -46 10 c-26 5 -54 12 -63 16 -8 3 -18 2 -22 -1z m-42 -115 c10 -16 0 -21 -29 -13 -14 3 -23 10 -20 15 7 12 41 11 49 -2z"/>
 <path d="M4472 5103 c2 -27 8 -48 13 -48 6 0 11 21 13 48 3 38 0 47 -13 47 -13 0 -16 -9 -13 -47z"/>
 <path d="M6300 5064 c0 -17 22 -14 28 4 2 7 -3 12 -12 12 -9 0 -16 -7 -16 -16z"/>
 <path d="M4474 4996 c-8 -22 0 -81 11 -81 6 0 11 21 13 48 3 45 -12 65 -24 33z"/>
 <path d="M6294 4987 c-10 -27 0 -72 16 -72 11 0 15 11 15 39 0 40 -20 61 -31 33z"/>
 <path d="M4475 4858 c-9 -23 -2 -83 10 -83 14 0 19 75 6 88 -7 7 -12 5 -16 -5z"/>
 <path d="M6294 4847 c-10 -27 0 -72 16 -72 11 0 15 11 15 39 0 40 -20 61 -31 33z"/>
 <path d="M4477 4724 c-8 -8 12 -61 29 -75 24 -20 27 -3 8 40 -19 40 -25 46 -37 35z"/>
 <path d="M6288 4695 c-6 -14 -15 -25 -20 -25 -4 0 -8 -7 -8 -15 0 -8 4 -15 9 -15 13 0 51 50 51 66 0 23 -20 16 -32 -11z"/>
 <path d="M4581 4642 c-28 -9 -6 -22 39 -22 28 0 50 4 50 9 0 9 -70 19 -89 13z"/>
 <path d="M4753 4642 c-60 -4 -54 -22 7 -22 28 0 50 4 50 9 0 14 -10 16 -57 13z"/>
 <path d="M5033 4642 c-49 -5 -40 -22 12 -22 25 0 45 4 45 9 0 12 -20 17 -57 13z"/>
 <path d="M5144 4641 c-13 -14 1 -21 41 -21 25 0 45 4 45 9 0 9 -77 20 -86 12z"/>
 <path d="M5420 4633 c0 -9 16 -13 45 -13 25 0 45 4 45 9 0 5 -20 11 -45 13 -31 2 -45 -1 -45 -9z"/>
 <path d="M5840 4636 c0 -12 10 -16 45 -16 25 0 45 5 45 10 0 6 -13 10 -29 10 -16 0 -36 3 -45 6 -11 4 -16 1 -16 -10z"/>
 <path d="M4850 4630 c0 -5 23 -10 50 -10 28 0 50 5 50 10 0 6 -22 10 -50 10 -27 0 -50 -4 -50 -10z"/>
 <path d="M5280 4630 c0 -5 20 -10 45 -10 25 0 45 5 45 10 0 6 -20 10 -45 10 -25 0 -45 -4 -45 -10z"/>
 <path d="M5560 4630 c0 -5 23 -10 50 -10 28 0 50 5 50 10 0 6 -22 10 -50 10 -27 0 -50 -4 -50 -10z"/>
 <path d="M5700 4630 c0 -5 20 -10 45 -10 25 0 45 5 45 10 0 6 -20 10 -45 10 -25 0 -45 -4 -45 -10z"/>
 <path d="M5980 4630 c0 -5 20 -10 44 -10 25 0 48 5 51 10 4 6 -13 10 -44 10 -28 0 -51 -4 -51 -10z"/>
 <path d="M6120 4630 c0 -5 23 -10 50 -10 28 0 50 5 50 10 0 6 -22 10 -50 10 -27 0 -50 -4 -50 -10z"/>
 <path d="M4900 3920 c-19 -11 -56 -19 -81 -20 -43 0 -196 -34 -208 -46 -12 -12 27 -24 81 -24 47 0 56 -3 52 -15 -8 -19 13 -19 46 0 14 8 51 14 82 15 l57 0 6 44 c10 62 5 67 -35 46z"/>
 <path d="M4645 3680 c-11 -17 127 -150 155 -150 14 0 58 12 98 27 l72 28 0 46 0 47 -49 -15 c-47 -15 -50 -15 -78 5 -33 24 -48 20 -31 -8 6 -9 8 -25 4 -35 -9 -23 -46 -13 -113 30 -30 20 -55 30 -58 25z"/>
 <path d="M5362 3339 c-30 -11 -28 -44 4 -76 20 -20 27 -38 30 -80 l4 -53 -40 0 c-35 0 -42 -4 -51 -27 -15 -38 -6 -221 12 -253 l14 -25 3 23 c4 27 17 27 89 2 32 -11 60 -20 63 -20 3 0 4 21 2 46 -6 66 6 134 24 134 9 0 14 -11 14 -30 0 -30 29 -70 51 -70 8 0 9 14 3 48 -4 26 -8 105 -8 175 -1 124 -2 129 -26 148 -60 47 -146 73 -188 58z m5 -340 c-18 -10 -18 -12 3 -34 21 -23 22 -24 2 -18 -35 9 -33 64 3 63 5 0 2 -5 -8 -11z"/>
 </g>
<g id="layer105" fill="#fde6b4" stroke="none">
 <path d="M2354 8568 c-4 -6 5 -21 22 -35 16 -14 50 -42 75 -63 27 -23 50 -35 55 -30 5 5 25 6 44 2 61 -14 70 -7 70 49 l0 50 -44 -6 c-33 -5 -62 -1 -121 19 -88 30 -91 30 -101 14z"/>
 <path d="M7536 8564 c-8 -22 -8 -22 17 -27 22 -4 22 -4 -3 -15 -14 -6 -18 -11 -10 -11 24 -1 41 14 35 32 -4 9 -13 13 -21 10 -10 -4 -12 0 -8 11 3 9 4 16 1 16 -3 0 -8 -7 -11 -16z"/>
 <path d="M8220 8572 c0 -4 9 -8 20 -8 11 0 20 4 20 8 0 4 -9 8 -20 8 -11 0 -20 -4 -20 -8z"/>
 <path d="M8300 8565 c0 -8 5 -15 10 -15 6 0 10 7 10 15 0 8 -4 15 -10 15 -5 0 -10 -7 -10 -15z"/>
 <path d="M3910 8547 c0 -12 -7 -33 -16 -45 -8 -12 -10 -22 -5 -22 6 0 11 -7 11 -16 0 -8 -4 -13 -9 -9 -5 3 -12 1 -16 -4 -7 -12 50 -24 96 -19 30 3 35 7 39 38 4 31 8 35 35 34 41 -1 55 15 42 43 -9 21 -17 23 -94 23 -80 0 -83 -1 -83 -23z"/>
 <path d="M7135 8529 c-46 -27 -54 -37 -48 -59 4 -16 13 -20 48 -20 31 0 45 5 49 17 4 9 2 19 -3 22 -5 3 -11 18 -13 32 l-3 26 -30 -18z"/>
 <path d="M7663 8536 c4 -9 2 -18 -4 -21 -5 -4 -7 -17 -5 -30 3 -13 -1 -26 -7 -29 -7 -2 13 -5 44 -5 42 -1 58 3 63 14 9 25 -3 40 -51 64 -35 17 -44 19 -40 7z"/>
 <path d="M3475 8490 c-3 -5 3 -10 15 -10 12 0 18 5 15 10 -3 6 -10 10 -15 10 -5 0 -12 -4 -15 -10z"/>
 <path d="M8345 8490 c-3 -5 -2 -10 4 -10 5 0 18 -3 28 -7 16 -6 16 -5 4 10 -15 19 -27 22 -36 7z"/>
 <path d="M4094 8473 c3 -6 0 -13 -6 -16 -7 -2 -10 -8 -5 -12 4 -5 13 -3 19 3 9 9 9 15 -1 25 -9 8 -12 8 -7 0z"/>
 <path d="M8234 8445 c-17 -13 -17 -14 -2 -15 9 0 20 5 23 11 11 17 0 20 -21 4z"/>
 <path d="M3723 8433 c-17 -6 -17 -20 0 -26 8 -3 13 3 13 14 0 11 0 19 -1 18 0 0 -6 -3 -12 -6z"/>
 <path d="M4058 8420 c10 -12 18 -16 21 -9 2 6 -3 15 -10 20 -24 15 -29 10 -11 -11z"/>
 <path d="M4385 8415 c-23 -22 -25 -32 -25 -115 0 -89 0 -90 25 -90 14 0 25 -6 25 -12 0 -9 3 -10 8 -2 9 14 505 17 497 3 -4 -5 -1 -9 4 -9 6 0 11 5 11 10 0 6 21 10 48 10 34 0 43 -3 32 -10 -13 -8 -13 -10 2 -10 9 0 19 6 22 13 5 10 7 10 12 0 3 -7 10 -13 15 -13 6 0 7 5 4 10 -3 6 -2 10 4 10 5 0 12 -6 15 -12 5 -10 7 -10 12 -1 8 17 280 18 288 0 5 -9 7 -9 12 1 4 8 28 12 70 12 41 0 63 -4 59 -10 -3 -5 -1 -10 4 -10 6 0 11 5 11 10 0 6 7 10 15 10 8 0 15 -4 15 -10 0 -5 5 -10 11 -10 5 0 7 4 4 10 -4 6 60 9 177 9 155 -1 186 -3 202 -17 18 -16 19 -16 13 1 -4 11 -1 17 9 17 12 0 15 -6 10 -26 -5 -19 -3 -25 6 -21 7 2 22 0 33 -5 16 -7 16 -5 -2 8 -13 9 -23 22 -23 29 0 18 180 20 192 2 6 -9 8 -9 8 1 0 6 9 12 20 12 17 0 19 -5 15 -27 l-6 -28 15 25 c16 28 13 27 114 29 l72 1 0 89 c0 80 -2 91 -25 115 l-24 26 -991 0 -991 0 -24 -25z m1038 -16 c29 -16 37 -28 37 -60 0 -56 -77 -83 -112 -39 -25 30 -23 56 7 85 27 28 37 30 68 14z m-455 -61 l-3 -63 -55 0 -55 0 -3 63 -3 62 61 0 61 0 -3 -62z m972 55 c0 -4 -10 -17 -22 -30 l-22 -23 29 -30 c20 -21 24 -30 14 -30 -9 0 -28 14 -44 30 l-29 30 29 30 c28 29 45 38 45 23z"/>
 <path d="M5372 8368 c-28 -28 -1 -75 37 -63 25 8 34 31 21 56 -12 21 -40 25 -58 7z"/>
 <path d="M4880 8335 c0 -33 2 -35 35 -35 33 0 35 2 35 35 0 33 -2 35 -35 35 -33 0 -35 -2 -35 -35z"/>
 <path d="M8285 8345 c-31 -140 -110 -897 -151 -1430 -17 -229 -15 -426 5 -463 17 -31 52 -25 70 12 41 86 93 483 130 981 12 154 26 316 31 360 12 89 12 84 4 143 -4 30 -2 49 10 67 9 14 12 25 7 25 -6 0 -15 -8 -20 -17 -8 -14 -11 -6 -12 37 -4 149 -12 184 -22 98 -16 -133 -79 -853 -107 -1223 -18 -225 -36 -414 -41 -419 -5 -5 -12 -7 -15 -3 -14 14 124 1663 152 1824 5 28 3 32 -15 30 -13 -1 -24 -10 -26 -22z"/>
 <path d="M8370 8300 c0 -11 5 -20 10 -20 6 0 10 9 10 20 0 11 -4 20 -10 20 -5 0 -10 -9 -10 -20z"/>
 <path d="M8356 8259 c12 -13 20 -16 22 -9 3 7 -2 16 -9 21 -25 16 -32 9 -13 -12z"/>
 <path d="M2493 8178 c4 -51 10 -450 13 -885 6 -701 5 -793 -8 -793 -13 0 -16 103 -21 838 -3 523 -9 846 -16 862 l-10 25 0 -30 c-1 -16 -12 -92 -24 -167 -23 -132 -24 -154 -21 -580 4 -574 22 -879 57 -987 10 -28 17 -36 37 -36 65 0 74 109 66 780 -3 297 -11 648 -17 780 -7 132 -12 250 -12 263 1 17 -5 22 -24 22 l-26 0 6 -92z"/>
 <path d="M4830 8185 c-7 -8 -8 -15 -2 -15 5 0 15 7 22 15 7 8 8 15 2 15 -5 0 -15 -7 -22 -15z"/>
 <path d="M5834 8151 c-1 -35 1 -38 17 -28 10 6 15 16 11 22 -7 10 -8 15 -11 35 0 6 -4 10 -8 10 -5 0 -8 -18 -9 -39z"/>
 <path d="M4585 8160 c3 -5 1 -10 -6 -10 -7 0 -10 -2 -7 -5 7 -8 38 5 38 16 0 5 -7 9 -16 9 -8 0 -12 -4 -9 -10z"/>
 <path d="M5660 8160 c0 -5 9 -14 21 -20 19 -11 20 -10 9 9 -11 22 -30 29 -30 11z"/>
 <path d="M6082 8151 c7 -11 16 -17 20 -15 5 3 2 12 -6 20 -21 20 -28 17 -14 -5z"/>
 <path d="M8365 8151 c-6 -10 21 -34 33 -29 4 1 0 11 -10 20 -9 10 -20 13 -23 9z"/>
 <path d="M2764 7793 c3 -7 72 -140 153 -295 82 -156 162 -309 178 -342 80 -157 222 -235 392 -214 43 5 87 11 98 13 11 3 45 9 75 14 70 12 98 19 300 76 l165 46 260 -69 c208 -55 262 -66 271 -56 15 18 49 122 42 129 -14 15 -456 186 -513 200 -48 11 -123 15 -273 15 -199 0 -209 1 -239 23 -34 24 -350 273 -371 292 -9 8 20 8 110 -1 106 -11 126 -11 146 2 12 8 22 25 22 37 0 53 -2 53 -390 96 -468 52 -432 50 -426 34z"/>
 <path d="M3822 6053 l-43 -4 4 -182 c3 -156 12 -248 42 -459 4 -28 2 -38 -8 -38 -10 0 -18 43 -32 168 l-18 167 -55 62 c-69 78 -124 107 -192 101 -49 -5 -56 -8 -247 -131 l-93 -59 25 -36 c14 -20 25 -42 25 -49 0 -18 19 -17 166 13 121 25 129 25 139 9 29 -49 164 -247 202 -297 53 -70 88 -98 173 -137 98 -46 185 -66 221 -51 l29 12 0 448 0 448 -32 7 c-39 8 -244 13 -306 8z"/>
 <path d="M6870 5789 c-109 -13 -170 -15 -173 -6 -1 4 -11 0 -22 -11 -11 -10 -29 -21 -39 -25 -17 -7 -17 -6 -5 9 13 16 10 17 -40 12 -29 -3 -57 -11 -62 -19 -5 -8 -9 -10 -9 -5 0 5 -11 -3 -23 -18 -19 -21 -34 -28 -70 -31 -34 -2 -47 1 -47 11 0 7 5 16 10 19 15 9 12 25 -5 25 -9 0 -12 -6 -8 -16 5 -14 3 -15 -15 -5 -30 16 -114 14 -139 -4 -15 -10 -23 -11 -25 -4 -3 8 -18 9 -47 4 -31 -5 -39 -10 -30 -16 11 -7 11 -9 -3 -9 -9 0 -20 5 -24 11 -4 8 -23 9 -58 3 -28 -4 -65 -7 -83 -6 -18 1 -34 -2 -37 -6 -2 -4 -34 -7 -70 -5 -36 1 -68 -2 -71 -7 -4 -6 -11 -8 -16 -5 -5 4 -9 1 -9 -4 0 -6 -5 -11 -11 -11 -5 0 -7 5 -3 11 4 8 -5 9 -32 6 -22 -4 -79 -9 -129 -12 -103 -7 -166 -14 -177 -21 -5 -3 -8 -12 -8 -21 0 -9 -6 -13 -15 -9 -8 3 -19 -3 -25 -14 -13 -24 -13 -130 0 -130 6 0 10 -7 10 -15 0 -8 -5 -15 -11 -15 -6 0 -8 -9 -4 -20 3 -11 7 -33 7 -50 1 -16 4 -28 7 -26 3 2 7 -46 8 -107 1 -64 6 -113 12 -115 6 -2 8 -16 4 -32 -4 -22 1 -35 20 -54 14 -14 36 -28 49 -31 20 -5 442 30 1414 119 160 14 268 29 281 37 44 27 47 45 34 241 -15 229 -18 249 -35 242 -9 -4 -15 9 -20 43 -3 26 -10 54 -15 62 -8 12 -127 42 -156 39 -5 0 -44 -5 -85 -9z m-695 -105 c13 -5 14 -8 3 -15 -19 -13 -28 -11 -28 6 0 17 2 18 25 9z m-371 -21 c3 -10 9 -25 12 -33 4 -8 -3 -3 -15 12 -23 28 -26 38 -12 38 5 0 11 -8 15 -17z m-109 -31 c-7 -8 -35 7 -35 18 0 6 7 6 20 -2 10 -7 17 -14 15 -16z m-175 -17 c0 -9 6 -12 18 -9 14 5 14 4 2 -4 -10 -8 -18 -8 -27 0 -15 12 -17 28 -3 28 6 0 10 -7 10 -15z m990 -80 c0 -9 -9 -15 -22 -15 -13 -1 -113 -9 -223 -19 -193 -18 -226 -18 -208 0 9 8 163 27 308 36 50 3 92 7 94 9 12 11 51 2 51 -11z m-807 -59 c57 -24 82 -61 82 -121 0 -43 -5 -59 -25 -80 -51 -55 -103 -68 -162 -39 -51 24 -73 61 -73 121 0 57 25 94 80 119 39 17 58 17 98 0z m1142 -26 c3 -6 0 -13 -8 -16 -31 -11 -762 -72 -771 -63 -6 5 -3 11 7 15 12 4 593 61 749 73 9 0 20 -4 23 -9z m10 -119 c3 -5 1 -12 -4 -15 -5 -4 -162 -19 -348 -36 -186 -16 -357 -32 -380 -34 -34 -4 -43 -2 -43 9 0 8 6 15 13 16 6 0 172 15 367 33 195 19 363 34 372 35 9 0 19 -3 23 -8z"/>
 <path d="M2564 5389 c-18 -19 -19 -42 -22 -303 -2 -154 0 -291 3 -303 13 -54 5 -53 423 -53 335 0 391 2 410 16 22 15 22 16 22 324 0 308 0 309 -22 324 -19 14 -75 16 -409 16 -380 0 -386 0 -405 -21z m459 -114 c-4 -12 -373 -19 -373 -7 0 5 3 12 7 16 11 11 368 2 366 -9z m-103 -104 c0 -16 -31 -21 -135 -21 -57 0 -110 3 -119 6 -42 16 -4 24 119 24 74 0 135 -4 135 -9z m398 -3 c-4 -10 -46 -13 -168 -13 -122 0 -164 3 -167 13 -4 9 34 12 167 12 133 0 171 -3 168 -12z m-545 -103 c-4 -15 -115 -13 -121 3 -3 10 11 12 59 10 36 -2 63 -7 62 -13z m547 0 c0 -13 -34 -15 -249 -15 -227 0 -273 4 -254 24 3 3 118 6 255 6 214 0 248 -2 248 -15z m-412 -102 c3 -10 -27 -13 -127 -13 -120 0 -143 4 -124 24 13 13 246 2 251 -11z m410 0 c3 -10 -38 -13 -182 -13 -160 0 -186 2 -186 15 0 13 24 15 182 13 134 -2 182 -6 186 -15z m-510 -105 c-3 -9 -28 -13 -78 -13 -50 0 -75 4 -77 13 -4 9 16 12 77 12 61 0 81 -3 78 -12z"/>
 <path d="M5320 4262 c-85 -1 -158 -6 -163 -11 -5 -5 -3 -61 4 -125 l13 -116 240 0 c270 0 300 -6 349 -71 33 -46 34 -50 52 -244 23 -263 26 -289 28 -292 2 -1 13 161 26 360 12 199 25 394 28 432 l6 70 -214 0 c-118 0 -284 -1 -369 -3z"/>
 <path d="M5254 3813 c1 -13 -7 -19 -27 -21 -25 -3 -27 -6 -22 -40 3 -20 16 -131 30 -247 15 -120 32 -219 40 -231 12 -19 53 -34 92 -34 11 0 10 6 -6 26 -44 55 -14 88 66 73 54 -10 90 -29 132 -68 29 -27 40 -31 90 -31 l56 1 -32 14 c-49 21 -66 57 -74 154 -13 159 -30 356 -35 389 l-5 32 -153 0 c-140 0 -154 -2 -152 -17z"/>
 </g>
<g id="layer106" fill="#ffffff" stroke="none">
 <path d="M0 5400 l0 -5400 5400 0 5400 0 0 5400 0 5400 -5400 0 -5400 0 0 -5400z m8880 3211 c0 -17 -34 -21 -198 -21 l-167 0 -34 -52 -34 -52 27 -175 c14 -97 38 -264 52 -371 14 -107 43 -312 64 -455 56 -372 81 -582 83 -709 2 -129 -5 -166 -33 -166 -49 0 -119 228 -169 555 -33 210 -31 196 -61 455 -12 102 -25 199 -29 215 -9 35 -9 31 -41 -390 -38 -500 -91 -897 -131 -981 -18 -37 -53 -43 -70 -12 -36 65 -19 378 65 1253 6 54 -7 44 -19 -15 -14 -74 -98 -357 -127 -432 -34 -85 -88 -158 -118 -158 -48 0 -52 78 -11 245 38 156 188 676 241 834 23 68 39 125 37 128 -3 2 -24 -1 -48 -7 -26 -7 -93 -11 -169 -8 l-125 3 -61 -935 c-34 -514 -60 -940 -57 -946 2 -7 -3 -86 -11 -177 -9 -90 -16 -169 -16 -176 0 -6 15 -17 34 -25 43 -18 66 -51 66 -95 0 -31 -98 -350 -121 -393 -15 -29 -50 -42 -127 -48 -39 -4 -75 -10 -78 -13 -4 -3 -9 -27 -12 -52 -4 -37 1 -59 29 -118 45 -99 47 -164 4 -206 -38 -37 -162 -91 -210 -91 -56 0 -85 35 -85 104 0 43 5 60 24 83 22 26 23 32 14 80 -13 64 -7 81 33 95 29 10 30 13 24 47 -9 50 -23 61 -89 70 l-58 8 6 -31 c3 -17 8 -83 12 -146 l7 -115 -27 -27 c-32 -31 -40 -33 -296 -53 -107 -9 -205 -18 -217 -21 l-23 -4 0 -331 c0 -364 -1 -373 -63 -438 -65 -68 -80 -71 -389 -71 -231 0 -278 -2 -278 -14 0 -8 -11 -186 -25 -397 -13 -211 -27 -420 -29 -464 -8 -127 -40 -155 -178 -155 l-87 0 -7 -46 c-4 -26 -2 -60 4 -78 6 -17 29 -83 51 -146 59 -165 54 -223 -17 -235 -20 -4 -63 -15 -95 -26 -106 -35 -216 -20 -252 35 -21 31 -15 88 15 147 15 28 20 58 20 113 0 107 9 126 61 126 l42 0 -7 38 c-3 20 -6 47 -6 60 0 13 -4 20 -10 17 -21 -13 -91 6 -105 29 -9 13 -24 96 -36 201 -12 99 -23 182 -25 184 -2 2 -54 -15 -117 -38 -63 -22 -121 -41 -129 -41 -8 0 -42 -11 -76 -25 -94 -38 -106 -36 -185 45 -37 38 -65 74 -62 80 3 5 28 -5 58 -25 67 -43 104 -53 113 -30 4 10 2 26 -4 35 -17 28 -2 32 30 8 28 -20 33 -20 77 -6 40 12 46 18 49 45 3 27 9 33 50 48 26 9 54 20 62 23 8 4 -115 8 -274 10 -159 1 -290 1 -292 -1 -2 -2 -22 -122 -44 -268 -50 -329 -45 -309 -75 -309 -20 0 -25 5 -25 25 0 43 80 559 91 584 9 23 13 23 90 19 44 -3 74 -1 67 3 -7 4 -10 10 -7 13 12 12 164 46 206 46 24 0 61 9 83 20 31 16 40 27 46 55 l6 35 110 0 111 0 -9 83 c-4 45 -8 100 -8 122 l-1 40 160 5 c88 3 -91 7 -399 8 -384 1 -571 6 -597 13 -53 16 -103 61 -131 116 -22 46 -23 60 -26 293 l-4 245 -24 -65 c-14 -35 -32 -73 -42 -83 -45 -51 -165 -73 -236 -43 -18 7 -43 30 -55 50 -42 68 -61 252 -43 418 8 67 8 68 -29 115 -32 43 -169 245 -194 288 -10 16 -19 15 -150 -11 -77 -15 -143 -32 -147 -38 -4 -6 -10 -8 -13 -4 -11 10 -107 -22 -147 -48 -62 -43 -180 -69 -124 -28 18 13 13 14 -46 14 -37 0 -70 5 -73 11 -21 33 120 111 208 115 46 2 67 9 95 31 20 15 42 28 49 29 6 1 31 15 55 32 140 95 233 145 279 150 66 6 123 -24 188 -98 29 -33 57 -60 62 -60 5 0 9 71 9 169 l0 170 40 3 40 3 46 135 c57 168 124 318 197 443 l57 96 0 119 0 118 -69 17 c-57 13 -88 15 -178 7 -59 -5 -146 -12 -193 -15 -113 -8 -122 -11 -118 -42 3 -22 9 -26 46 -28 58 -5 90 -27 98 -70 6 -35 -10 -173 -27 -229 -6 -20 -6 -32 2 -37 19 -11 2 -53 -30 -72 -34 -20 -112 -23 -162 -5 -37 12 -129 72 -141 91 -19 30 -7 96 32 175 22 44 40 85 40 90 0 5 -13 27 -29 49 -23 32 -37 41 -71 47 -102 16 -209 102 -265 212 -16 33 -101 195 -187 360 -156 298 -158 302 -158 365 0 110 37 195 97 222 14 6 65 63 114 127 l89 115 -54 3 c-41 2 -80 -6 -161 -33 -59 -19 -133 -38 -166 -42 -41 -4 -59 -10 -59 -20 0 -8 13 -67 29 -131 29 -115 96 -425 145 -672 51 -259 55 -349 14 -371 -67 -36 -137 138 -203 503 -15 78 -28 144 -30 147 -2 2 -2 -237 2 -530 7 -664 -3 -774 -67 -774 -20 0 -27 8 -37 36 -35 109 -53 418 -56 986 -1 243 -4 439 -7 436 -3 -2 -5 -8 -6 -11 -8 -79 -18 -121 -27 -115 -5 3 -7 1 -4 -4 9 -14 -20 -183 -33 -198 -6 -7 -7 -14 -4 -18 5 -5 -31 -206 -43 -237 -3 -8 -7 -28 -9 -43 -7 -54 -66 -273 -105 -392 -57 -174 -109 -259 -140 -228 -30 30 2 290 76 618 20 88 38 174 41 190 3 17 10 32 15 33 5 2 6 8 3 13 -7 12 36 202 48 210 5 3 6 13 2 22 -3 9 -2 17 4 17 6 0 8 8 6 18 -3 9 4 57 16 106 11 50 23 106 26 125 3 20 7 44 10 53 3 10 8 30 10 45 8 43 44 206 49 224 4 12 -13 27 -61 55 -37 21 -69 45 -71 51 -3 7 -10 13 -15 13 -15 0 -147 131 -145 143 1 6 -20 12 -48 14 -60 5 -75 9 -75 23 0 7 1096 10 3480 10 2035 0 3480 -4 3480 -9z m-5502 -3217 c22 -15 22 -16 22 -324 0 -308 0 -309 -22 -324 -19 -14 -75 -16 -410 -16 -418 0 -410 -1 -423 53 -3 12 -5 149 -3 303 3 261 4 284 22 303 19 21 25 21 405 21 334 0 390 -2 409 -16z"/>
 <path d="M7353 8424 c-55 -20 -133 -89 -133 -118 0 -12 39 -305 86 -651 47 -347 88 -648 90 -670 11 -84 18 -93 24 -30 4 33 44 376 90 762 46 386 80 706 76 710 -15 15 -189 13 -233 -3z"/>
 <path d="M3347 8113 c-8 -27 -11 -51 -8 -54 8 -9 232 -51 238 -46 3 3 -6 11 -19 17 -12 7 -60 39 -105 71 -45 33 -84 59 -87 59 -2 0 -11 -21 -19 -47z"/>
 <path d="M6890 7928 c-70 -51 -192 -108 -234 -108 l-26 0 0 -995 c0 -888 2 -994 15 -989 9 4 13 14 10 23 -4 13 23 26 138 68 197 72 186 70 263 34 l67 -31 -6 240 c-5 201 -3 241 9 248 12 6 11 27 -6 142 -21 145 -93 757 -138 1166 l-27 250 -65 -48z"/>
 <path d="M4078 7923 c-27 -4 -28 -6 -28 -69 0 -38 -6 -77 -15 -93 -19 -38 -68 -78 -104 -86 -24 -5 -172 11 -348 39 -19 3 -21 0 -13 -15 16 -29 11 -57 -11 -73 -21 -14 -20 -16 53 -160 50 -100 79 -147 93 -151 11 -2 118 -6 238 -7 l217 -3 0 313 0 312 -27 -1 c-16 -1 -40 -4 -55 -6z"/>
 </g>

</svg>