<!DOCTYPE svg PUBLIC "-//W3C//DTD SVG 20010904//EN" "http://www.w3.org/TR/2001/REC-SVG-20010904/DTD/svg10.dtd">
<svg version="1.0" xmlns="http://www.w3.org/2000/svg" width="1080px" height="1080px" viewBox="0 0 10800 10800" preserveAspectRatio="xMidYMid meet">
<g id="layer101" fill="#1f1e1c" stroke="none">
<path d="M0 5400 l0 -5400 5400 0 5400 0 0 5400 0 5400 -5400 0 -5400 0 0 -5400z"/>
</g>
<g id="layer102" fill="#996f47" stroke="none">
<path d="M0 5400 l0 -5400 5400 0 5400 0 0 5400 0 5400 -5400 0 -5400 0 0 -5400z m7876 3617 c7 -7 44 -739 42 -837 -2 -101 -10 16 -27 408 -10 227 -21 416 -25 419 -9 10 -281 17 -303 9 -15 -6 -15 -8 -1 -22 8 -9 44 -27 79 -40 35 -14 51 -22 34 -19 -16 4 -54 17 -82 30 -51 23 -67 47 -40 59 19 8 314 2 323 -7z m-127 -96 c16 -9 15 -28 -16 -328 -40 -379 -37 -477 14 -489 13 -4 22 -8 19 -11 -2 -2 -23 1 -45 8 -68 20 -68 22 -78 -291 -8 -216 -10 -242 -10 -120 0 85 2 214 6 285 l6 130 30 10 30 10 -9 71 c-7 56 -2 134 23 370 17 164 31 309 31 322 0 14 -8 26 -22 32 -13 5 -17 9 -10 9 7 1 21 -3 31 -8z m-4436 -182 l36 -79 296 0 c162 0 295 2 295 4 0 2 -13 33 -30 68 -16 34 -30 68 -30 74 0 23 30 23 44 1 8 -12 186 -392 397 -844 222 -477 387 -819 392 -814 5 5 8 253 8 562 -2 497 0 556 15 577 l16 23 16 -32 c30 -59 105 -59 139 -1 l16 27 32 -32 c39 -39 92 -44 142 -13 36 21 47 52 41 105 -2 19 0 35 4 35 19 0 58 54 58 81 0 25 5 28 48 38 189 40 439 36 645 -10 40 -9 47 -14 47 -35 0 -25 40 -74 59 -74 7 0 7 -9 0 -27 -25 -66 29 -133 108 -133 39 0 50 5 79 36 19 19 34 29 34 21 0 -19 40 -54 73 -62 15 -4 27 -11 27 -16 0 -23 21 -5 40 34 l20 42 -1 -225 -1 -225 137 -3 c133 -2 140 -2 176 22 l38 25 32 -37 c33 -38 129 -180 129 -191 0 -3 -18 -18 -39 -34 -37 -25 -39 -29 -28 -56 8 -22 20 -31 51 -39 l41 -11 -41 5 c-41 5 -41 5 -47 -32 -4 -20 -17 -48 -29 -62 l-23 -25 35 6 c104 17 106 17 60 4 -25 -8 -75 -17 -111 -21 -80 -8 -110 9 -111 61 -1 27 -4 31 -18 23 -14 -8 -28 1 -68 44 -27 29 -62 76 -77 106 l-27 53 38 38 37 38 -44 11 c-24 6 -56 15 -71 20 -21 7 -30 4 -44 -11 -28 -31 -35 -22 -32 39 2 39 7 56 16 54 19 -3 14 16 -7 27 -26 14 -38 -3 -46 -64 -7 -53 6 -105 26 -105 7 0 20 7 29 15 16 14 18 12 23 -37 5 -40 10 -434 7 -547 0 -28 -10 -4 -16 40 -3 24 -8 45 -9 47 -7 8 -248 53 -369 69 -183 25 -706 25 -881 0 -151 -21 -337 -56 -353 -66 -7 -4 -18 -38 -25 -77 -15 -78 -18 -67 86 -287 29 -62 111 -237 183 -391 l129 -279 7 49 c18 132 28 299 28 492 l0 212 25 0 25 0 0 -202 c0 -210 -11 -375 -35 -537 -12 -82 -12 -98 1 -122 18 -37 18 -38 -11 -49 -14 -5 -25 -17 -25 -27 0 -15 -49 -234 -75 -334 -6 -24 -4 -26 55 -37 139 -26 229 -96 278 -216 16 -39 37 -93 47 -121 33 -90 107 -135 171 -103 40 19 60 59 83 166 26 120 50 171 101 221 48 46 119 76 223 92 39 7 73 13 75 14 1 1 -25 75 -58 164 -101 269 -129 434 -137 803 -6 283 -2 328 27 328 18 0 19 -11 18 -237 0 -364 33 -595 116 -824 94 -258 86 -243 139 -251 162 -23 323 -117 411 -241 85 -119 115 -218 96 -313 -10 -47 -21 -65 -63 -109 -82 -83 -151 -93 -225 -30 -53 46 -89 118 -202 404 -111 280 -96 263 -218 241 -124 -21 -206 -84 -236 -180 -8 -25 -22 -80 -31 -122 -26 -123 -76 -180 -159 -180 -53 0 -111 27 -138 63 -10 13 -34 67 -53 119 -46 123 -77 174 -128 211 -49 35 -132 61 -183 57 l-36 -3 -49 -150 c-123 -376 -268 -566 -400 -526 -52 16 -114 79 -147 150 -37 79 -38 202 -3 276 30 61 127 158 204 204 78 46 208 89 294 97 l72 7 40 166 c63 263 66 287 41 344 l-21 47 -309 0 -310 0 9 -22 c5 -13 26 -59 46 -102 25 -56 33 -82 25 -90 -21 -21 -41 10 -116 173 -41 91 -76 166 -77 168 -4 3 -106 -131 -141 -186 -16 -26 -51 -84 -78 -131 -26 -47 -48 -81 -48 -76 0 21 175 316 200 336 3 3 18 21 32 40 l27 35 -20 44 c-24 54 -24 51 6 51 19 0 28 -8 36 -27 l10 -28 29 35 c16 19 30 38 30 41 0 4 7 9 15 13 20 7 9 -14 -34 -67 l-30 -39 24 -55 c14 -31 25 -57 25 -59 0 -2 140 -4 311 -4 177 0 309 4 307 9 -1 5 -28 63 -58 130 l-55 121 -193 0 c-156 0 -199 -3 -223 -16 -39 -20 -49 -15 -76 33 l-23 40 36 19 c29 16 36 17 43 5 7 -10 19 6 47 60 49 95 65 131 61 136 -2 2 -97 2 -210 1 l-206 -3 51 -112 51 -113 41 0 c54 0 35 -16 -29 -24 l-50 -6 -158 347 c-87 192 -161 354 -165 361 -5 7 -17 -18 -31 -68 -13 -44 -26 -79 -28 -76 -2 2 7 43 21 91 l24 87 -50 111 c-28 62 -54 116 -58 120 -4 5 -13 -8 -20 -30 -9 -27 -236 -395 -266 -432 -2 -2 -9 10 -15 28 -19 54 -97 210 -128 255 -43 63 -91 105 -132 117 -67 21 -108 -16 -233 -208 -37 -56 -87 -143 -112 -194 l-46 -91 33 -34 c18 -19 38 -34 44 -34 5 0 61 54 123 120 63 66 117 120 121 120 9 0 65 -199 58 -206 -2 -2 -14 35 -27 83 -31 121 -31 121 -66 76 -50 -67 -196 -213 -212 -213 -9 0 -28 -12 -44 -27 l-28 -26 -85 57 c-89 59 -165 122 -165 137 0 17 60 9 147 -20 48 -17 88 -29 89 -28 0 1 24 47 53 102 110 208 245 386 303 400 42 11 110 -28 159 -88 23 -29 69 -109 103 -178 l61 -126 114 174 c62 96 124 201 137 234 l24 59 -284 623 c-276 603 -297 658 -251 641 7 -3 29 -41 48 -85z m4640 -700 c13 -1 16 -3 7 -5 -9 -3 -33 2 -55 11 -25 10 -30 13 -12 10 26 -5 27 -4 29 37 l2 43 3 -47 c4 -41 7 -48 26 -49z m617 48 c66 -33 98 -165 108 -442 l7 -189 70 -16 c120 -28 175 -50 175 -70 0 -10 -7 -21 -16 -24 -9 -3 -89 -6 -179 -6 l-163 0 -26 108 c-25 108 -56 297 -56 346 0 31 -9 32 -61 5 -32 -16 -39 -24 -33 -37 4 -9 8 -33 8 -52 1 -33 -4 -38 -214 -188 -118 -84 -224 -158 -235 -164 -46 -25 12 20 221 170 232 166 239 174 210 230 -16 30 -138 178 -165 200 -14 11 -14 11 2 6 12 -4 28 2 45 18 63 59 182 117 242 117 19 1 46 -5 60 -12z m-773 -4 c-4 -3 -10 -3 -14 0 -3 4 0 7 7 7 7 0 10 -3 7 -7z m30 -10 c-4 -3 -10 -3 -14 0 -3 4 0 7 7 7 7 0 10 -3 7 -7z m30 -10 c-4 -3 -10 -3 -14 0 -3 4 0 7 7 7 7 0 10 -3 7 -7z m156 -40 c-7 -2 -19 -2 -25 0 -7 3 -2 5 12 5 14 0 19 -2 13 -5z m60 -10 c-7 -2 -21 -2 -30 0 -10 3 -4 5 12 5 17 0 24 -2 18 -5z m76 -14 c48 -17 32 -20 -19 -4 -25 7 -38 14 -29 14 9 1 30 -4 48 -10z m-1752 -896 c-3 -10 -5 -4 -5 12 0 17 2 24 5 18 2 -7 2 -21 0 -30z m2352 18 c24 -15 4 -40 -56 -68 -32 -15 -60 -29 -62 -30 -3 -2 4 -9 14 -17 12 -8 16 -19 12 -30 -6 -14 -14 -16 -39 -11 -57 11 -140 36 -136 40 2 2 28 -2 58 -10 30 -8 68 -15 85 -15 l29 0 -21 22 -22 22 70 34 c39 18 68 39 66 45 -6 18 -123 20 -201 4 -37 -8 -63 -10 -59 -6 22 22 233 38 262 20z m-4934 -211 c-29 -102 -54 -179 -54 -172 -1 19 102 377 106 366 1 -5 -22 -92 -52 -194z m2592 148 c-3 -8 -6 -5 -6 6 -1 11 2 17 5 13 3 -3 4 -12 1 -19z m10 -50 c-3 -8 -6 -5 -6 6 -1 11 2 17 5 13 3 -3 4 -12 1 -19z m10 -35 c-4 -3 -7 0 -7 7 0 7 3 10 7 7 3 -4 3 -10 0 -14z m31 -88 c0 -5 -6 4 -13 20 -8 17 -14 37 -14 45 0 8 7 -1 14 -20 7 -19 13 -39 13 -45z m-3118 -120 l78 -120 7 -129 c8 -142 13 -135 -59 -84 -22 16 -47 46 -57 67 -9 21 -42 65 -73 97 -31 32 -59 70 -63 82 -8 32 22 71 79 102 l46 25 -27 38 c-15 22 -27 51 -28 65 l-2 27 10 -25 c5 -14 45 -79 89 -145z m4076 116 c-15 -16 -22 -17 -47 -7 -26 9 -36 8 -67 -10 -46 -27 -84 -105 -64 -132 24 -33 52 -77 55 -87 2 -5 16 -1 32 9 16 10 48 19 72 20 48 1 63 15 63 57 0 14 11 40 25 59 14 19 25 30 25 25 0 -4 10 0 23 11 l22 19 -18 -21 c-16 -19 -16 -24 -2 -57 8 -20 15 -53 15 -73 l0 -36 33 32 c30 29 36 31 92 28 l60 -3 0 43 0 43 60 25 c33 14 65 27 71 30 17 8 54 -45 54 -75 0 -18 -13 -40 -41 -66 -57 -55 -71 -93 -63 -164 8 -76 -4 -86 -89 -77 -92 9 -131 -5 -174 -65 -43 -60 -101 -93 -148 -85 -65 12 -115 76 -115 144 0 23 -6 32 -29 41 -64 27 -129 127 -116 180 4 14 24 46 46 71 22 25 55 63 74 85 31 37 37 40 83 40 28 0 54 3 58 8 17 16 26 6 10 -12z m-949 -28 c-4 -3 -7 0 -7 7 0 7 3 10 7 7 3 -4 3 -10 0 -14z m32 -68 c0 -5 -6 1 -14 15 -8 14 -14 30 -14 35 0 6 6 -1 14 -15 8 -14 14 -29 14 -35z m25 -52 c9 -18 14 -33 12 -33 -6 0 -36 55 -36 66 0 11 5 3 24 -33z m41 -73 c9 -16 13 -30 11 -30 -3 0 -12 14 -21 30 -9 17 -13 30 -11 30 3 0 12 -13 21 -30z m-3735 -5 c55 -35 51 -43 -5 -11 l-45 27 0 -27 c0 -26 -1 -27 -45 -21 -25 4 -57 10 -72 13 l-28 7 35 -38 c19 -21 58 -48 85 -61 28 -13 43 -24 35 -24 -41 0 -160 91 -160 122 0 10 60 5 118 -9 16 -4 23 -1 22 8 -7 46 5 49 60 14z m998 -5 c48 -35 89 -92 98 -138 6 -29 4 -33 -22 -42 -16 -6 -33 -11 -39 -11 -5 0 -28 49 -51 110 -23 61 -39 111 -34 111 4 0 26 -13 48 -30z m2787 -72 c16 -24 22 -38 14 -31 -15 12 -53 73 -46 73 2 0 17 -19 32 -42z m208 -247 c365 -390 529 -971 417 -1482 -118 -543 -507 -977 -1041 -1164 -132 -46 -308 -83 -424 -89 l-90 -5 75 10 c347 45 573 125 820 290 123 82 324 282 407 404 130 193 217 407 254 626 28 162 23 440 -9 589 -72 333 -215 606 -446 849 -44 48 -96 107 -115 131 -28 37 -25 36 15 -10 27 -30 89 -97 137 -149z m-3986 183 c-3 -3 -12 -4 -19 -1 -8 3 -5 6 6 6 11 1 17 -2 13 -5z m560 -346 l72 -67 53 6 c29 3 61 10 72 15 23 12 32 0 46 -65 15 -69 13 -88 -11 -113 -25 -27 -20 -51 13 -56 16 -2 31 -18 48 -51 18 -34 29 -45 40 -40 8 3 36 8 61 11 41 3 47 7 57 35 6 18 9 58 7 91 -5 69 -31 106 -77 106 -29 0 -29 0 -26 57 3 56 4 57 35 60 28 4 36 -1 62 -38 40 -55 46 -95 31 -196 -10 -61 -10 -96 -3 -128 10 -44 9 -46 -18 -65 -136 -97 -352 -50 -423 92 -23 45 -25 59 -19 122 7 84 -5 116 -64 165 -73 62 -82 72 -88 101 -4 16 -3 39 0 51 l7 21 26 -24 c15 -12 59 -53 99 -90z m664 -265 c-11 -21 -20 -35 -21 -31 0 12 33 78 38 74 2 -2 -6 -21 -17 -43z m-32 -82 c-6 -18 -13 -30 -15 -28 -2 2 1 18 7 36 6 18 13 30 15 28 2 -2 -1 -18 -7 -36z m-22 -58 c-4 -3 -7 0 -7 7 0 7 3 10 7 7 3 -4 3 -10 0 -14z m-10 -30 c-4 -3 -7 0 -7 7 0 7 3 10 7 7 3 -4 3 -10 0 -14z m-10 -30 c-4 -3 -7 0 -7 7 0 7 3 10 7 7 3 -4 3 -10 0 -14z m-13 -47 c-3 -15 -8 -25 -11 -23 -2 3 -1 17 3 31 3 15 8 25 11 23 2 -3 1 -17 -3 -31z m-20 -80 c-3 -21 -8 -35 -11 -32 -2 2 -1 20 3 40 3 21 8 35 11 32 2 -2 1 -20 -3 -40z m-17 -78 c-3 -7 -5 -2 -5 12 0 14 2 19 5 13 2 -7 2 -19 0 -25z m-10 -65 c-3 -10 -5 -4 -5 12 0 17 2 24 5 18 2 -7 2 -21 0 -30z m-10 -85 c-2 -13 -4 -3 -4 22 0 25 2 35 4 23 2 -13 2 -33 0 -45z m-10 -220 c-2 -35 -3 -7 -3 62 0 69 1 97 3 63 2 -35 2 -91 0 -125z m16 -158 c4 -56 3 -65 -3 -35 -9 40 -13 122 -6 114 2 -2 6 -38 9 -79z m2290 28 c103 -19 177 -37 177 -43 0 -6 -9 -21 -20 -33 -22 -24 -59 -28 -123 -13 -21 5 -55 7 -76 4 -37 -5 -38 -6 -50 -65 -7 -33 -14 -58 -17 -55 -3 2 0 26 7 51 6 26 8 50 5 54 -4 4 -35 12 -69 18 l-62 10 -58 -115 c-31 -64 -55 -109 -53 -101 12 41 97 222 109 235 8 8 18 30 21 50 4 19 12 35 19 35 7 0 92 -14 190 -32z m-2276 -140 c-3 -7 -5 -2 -5 12 0 14 2 19 5 13 2 -7 2 -19 0 -25z m77 -251 c117 -306 340 -575 621 -747 140 -86 361 -176 520 -211 33 -7 51 -15 40 -16 -29 -5 -240 60 -353 108 -350 149 -607 388 -772 719 -53 105 -115 276 -124 345 -4 22 5 2 18 -45 14 -47 36 -115 50 -153z m2083 151 c-3 -8 -6 -5 -6 6 -1 11 2 17 5 13 3 -3 4 -12 1 -19z m-10 -40 c-3 -8 -6 -5 -6 6 -1 11 2 17 5 13 3 -3 4 -12 1 -19z m-10 -40 c-3 -8 -6 -5 -6 6 -1 11 2 17 5 13 3 -3 4 -12 1 -19z m-265 -122 l-57 -127 -267 -221 -267 -220 -4 -137 -3 -136 -1 140 -2 140 268 219 267 219 58 129 c32 71 60 127 62 125 2 -2 -22 -61 -54 -131z m255 82 c-3 -8 -6 -5 -6 6 -1 11 2 17 5 13 3 -3 4 -12 1 -19z m682 -105 c67 -69 120 -131 118 -137 -6 -18 -53 -24 -83 -10 -16 8 -51 29 -77 49 l-49 35 -106 -138 c-58 -75 -149 -193 -202 -262 l-97 -125 -288 -138 c-158 -76 -289 -136 -291 -134 -2 2 126 66 285 142 l288 139 180 235 c99 130 186 245 193 257 12 19 8 28 -37 87 l-49 65 -170 -196 c-222 -258 -254 -292 -273 -291 -11 0 -10 3 5 9 11 4 114 117 228 249 114 133 213 241 219 241 7 1 26 12 42 25 17 14 33 25 37 25 3 0 61 -57 127 -127z m-3721 82 c62 -52 47 -160 -28 -197 -19 -10 -42 -32 -52 -50 -9 -18 -29 -46 -44 -63 l-26 -30 24 35 c14 19 33 50 42 67 9 19 31 39 50 47 32 13 66 65 66 101 0 25 -28 73 -49 85 -12 6 -134 10 -323 10 l-304 0 -32 -29 c-17 -17 -32 -35 -32 -40 0 -8 -100 -11 -314 -11 -303 0 -314 -1 -340 -21 -15 -11 -35 -38 -46 -60 -37 -72 -21 -150 43 -206 22 -19 40 -47 47 -72 12 -46 59 -104 105 -133 16 -10 25 -18 19 -18 -29 0 -97 64 -120 113 -13 29 -24 58 -24 64 0 7 -11 20 -25 29 -95 62 -98 228 -6 293 28 20 41 21 334 21 l304 0 45 45 45 45 306 0 305 0 30 -25z m3029 -17 c-3 -8 -6 -5 -6 6 -1 11 2 17 5 13 3 -3 4 -12 1 -19z m-10 -40 c-3 -8 -6 -5 -6 6 -1 11 2 17 5 13 3 -3 4 -12 1 -19z m-10 -40 c-3 -8 -6 -5 -6 6 -1 11 2 17 5 13 3 -3 4 -12 1 -19z m-10 -40 c-3 -8 -6 -5 -6 6 -1 11 2 17 5 13 3 -3 4 -12 1 -19z m-10 -40 c-3 -8 -6 -5 -6 6 -1 11 2 17 5 13 3 -3 4 -12 1 -19z m-10 -40 c-3 -8 -6 -5 -6 6 -1 11 2 17 5 13 3 -3 4 -12 1 -19z m-10 -40 c-3 -8 -6 -5 -6 6 -1 11 2 17 5 13 3 -3 4 -12 1 -19z m-21 -63 c-9 -14 -73 -83 -142 -155 -70 -71 -120 -130 -113 -131 14 0 -17 -17 -35 -18 -4 -1 60 71 143 159 83 87 151 167 152 177 0 11 3 13 6 5 3 -7 -2 -24 -11 -37z m-3106 -20 c0 -7 -63 -45 -75 -45 -5 0 8 11 30 24 47 28 45 27 45 21z m-103 -51 c-3 -3 -12 -4 -19 -1 -8 3 -5 6 6 6 11 1 17 -2 13 -5z m-60 -41 c-4 -3 -7 0 -7 7 0 7 3 10 7 7 3 -4 3 -10 0 -14z m-25 -60 c-31 -60 -90 -121 -146 -153 -28 -17 -55 -30 -61 -29 -5 0 11 11 36 24 58 30 141 114 164 166 10 22 20 37 22 35 3 -2 -5 -21 -15 -43z m3373 -23 c-11 -5 -27 -9 -35 -9 -9 0 -8 4 5 9 11 5 27 9 35 9 9 0 8 -4 -5 -9z m-3946 -59 c67 -65 146 -102 241 -112 l75 -8 -75 3 c-92 3 -166 35 -243 106 l-52 48 -50 -29 c-40 -23 -61 -29 -105 -27 l-55 1 60 6 c57 6 117 29 130 51 11 17 22 11 74 -39z m3861 34 c-19 -7 -42 -13 -50 -13 -8 0 1 6 20 13 19 7 42 13 50 13 8 0 -1 -6 -20 -13z m-85 -25 c-11 -5 -27 -9 -35 -9 -9 0 -8 4 5 9 11 5 27 9 35 9 9 0 8 -4 -5 -9z m-58 -17 c-4 -3 -10 -3 -14 0 -3 4 0 7 7 7 7 0 10 -3 7 -7z m-42 -13 c-11 -5 -27 -9 -35 -9 -9 0 -8 4 5 9 11 5 27 9 35 9 9 0 8 -4 -5 -9z m-3328 -87 c-4 -3 -10 -3 -14 0 -3 4 0 7 7 7 7 0 10 -3 7 -7z m6669 -338 c81 -62 61 -195 -36 -235 -20 -8 -39 -28 -52 -54 -26 -54 -93 -122 -143 -148 -22 -11 -67 -23 -102 -26 -41 -3 -64 -9 -67 -19 -2 -7 -3 -5 -2 4 1 15 14 19 69 25 106 10 189 70 238 172 15 29 31 46 59 57 50 22 75 61 75 119 0 49 -24 91 -63 109 -15 7 -144 11 -366 11 -341 0 -343 0 -377 -23 -19 -12 -43 -39 -54 -60 l-20 -37 -363 0 c-356 0 -365 0 -394 -22 -37 -25 -78 -110 -78 -158 0 -51 31 -111 77 -151 28 -23 42 -45 47 -70 8 -47 52 -111 96 -144 76 -56 161 -56 253 -1 l55 33 54 -54 c33 -34 81 -68 128 -91 70 -35 80 -37 170 -37 85 0 101 3 154 29 78 38 166 127 205 207 17 35 31 58 31 50 0 -27 -65 -133 -111 -180 -27 -28 -78 -64 -116 -83 -63 -31 -74 -33 -168 -33 -93 0 -105 2 -167 33 -37 18 -93 58 -125 88 -46 44 -61 53 -73 44 -75 -53 -156 -71 -235 -49 -58 16 -137 100 -155 164 -10 36 -24 60 -53 84 -98 85 -103 216 -12 307 l44 44 365 0 365 0 17 35 c15 33 50 65 84 78 8 3 172 6 364 6 l349 1 33 -25z m-4213 -502 c-36 -12 -67 -43 -200 -199 -107 -126 -163 -184 -177 -184 -56 0 -162 -88 -136 -114 8 -8 69 3 112 19 12 5 14 0 11 -22 -4 -24 6 -17 74 54 100 105 386 343 410 342 16 0 16 -1 -2 -9 -38 -16 -370 -303 -415 -358 -51 -63 -69 -73 -77 -43 -6 25 -2 24 -59 10 -33 -9 -48 -9 -58 1 -39 32 44 110 144 135 16 4 76 67 175 185 105 125 159 181 180 188 49 16 64 12 18 -5z m928 -86 c36 -32 54 -60 78 -121 17 -44 29 -81 27 -83 -2 -2 -19 34 -37 80 -28 68 -43 92 -82 125 -27 23 -45 42 -40 42 4 0 29 -19 54 -43z m-481 -78 c0 -46 -17 -96 -36 -103 -22 -8 -17 -36 11 -62 17 -16 25 -34 25 -56 l0 -33 82 1 83 1 8 39 c25 126 17 179 -29 190 -13 3 -29 13 -35 21 -11 12 -8 12 17 2 68 -30 83 -69 66 -172 -7 -49 -7 -68 4 -89 17 -33 18 -78 1 -99 -7 -9 -28 -26 -47 -38 -62 -38 -121 -25 -187 42 -23 23 -60 57 -82 75 -47 39 -58 76 -41 138 14 49 72 114 119 134 27 11 29 16 25 44 -4 24 -3 27 5 16 6 -8 11 -31 11 -51z m101 34 c-12 -20 -14 -14 -5 12 4 9 9 14 11 11 3 -2 0 -13 -6 -23z m423 -279 c59 -104 117 -215 128 -247 21 -59 38 -67 38 -17 l0 28 55 -19 c67 -23 95 -24 95 -3 0 25 -66 82 -110 95 -38 12 -40 14 -89 137 -28 69 -49 127 -47 129 2 2 25 -51 52 -118 l48 -121 51 -23 c51 -22 105 -74 105 -101 0 -29 -28 -29 -127 1 -19 6 -23 3 -23 -13 0 -11 -6 -25 -14 -31 -12 -10 -17 -7 -29 16 -8 15 -18 39 -22 53 -17 57 -227 412 -268 451 l-42 42 45 -35 c36 -28 67 -74 154 -224z"/>
<path d="M6300 8029 c0 -27 2 -30 15 -19 8 7 15 21 15 31 0 11 -7 19 -15 19 -10 0 -15 -10 -15 -31z"/>
<path d="M3650 8012 c0 -5 22 -57 50 -118 l50 -109 67 0 67 0 38 100 c21 55 41 108 44 118 5 16 -7 17 -155 17 -89 0 -161 -4 -161 -8z"/>
<path d="M3963 7963 c-23 -55 -63 -167 -63 -176 0 -4 32 -7 72 -5 l72 3 17 55 c36 120 36 118 -16 140 -26 11 -51 20 -56 20 -6 0 -17 -17 -26 -37z"/>
<path d="M4096 7928 c-3 -18 -6 -36 -6 -40 -1 -4 -7 -26 -15 -49 -8 -23 -15 -45 -15 -50 0 -5 66 -9 146 -9 l145 0 -7 23 c-3 12 -22 52 -40 90 l-34 67 -84 0 -84 0 -6 -32z"/>
<path d="M3780 7726 c0 -10 40 -96 44 -96 3 0 9 15 14 33 6 17 13 40 17 50 6 14 1 17 -34 17 -23 0 -41 -2 -41 -4z"/>
<path d="M3852 7671 l-23 -59 32 -71 c32 -71 32 -72 68 -69 l36 3 32 120 c18 66 33 123 33 128 0 4 -35 7 -78 7 l-77 0 -23 -59z"/>
<path d="M4027 7668 c-10 -35 -19 -72 -21 -84 -3 -11 -10 -40 -17 -62 -7 -23 -10 -44 -7 -47 3 -3 120 -4 260 -3 l255 3 -57 125 -58 125 -169 3 -168 2 -18 -62z"/>
<path d="M6733 7549 c-34 -23 -65 -50 -69 -61 -9 -30 14 -75 42 -81 26 -5 42 7 24 18 -19 12 -10 24 30 45 28 14 38 25 33 36 -3 8 0 26 7 40 25 45 -1 46 -67 3z"/>
<path d="M6800 7521 c0 -11 5 -23 10 -26 6 -4 10 5 10 19 0 14 -4 26 -10 26 -5 0 -10 -9 -10 -19z"/>
<path d="M6762 7461 c-28 -14 -31 -19 -19 -29 18 -15 44 -6 57 19 19 35 11 37 -38 10z"/>
<path d="M4054 7123 c4 -10 30 -71 59 -135 l52 -117 236 -1 237 0 15 38 c8 20 20 63 27 94 12 52 11 62 -5 98 l-18 40 -305 0 c-285 0 -304 -1 -298 -17z"/>
<path d="M4679 6950 l-26 -80 63 0 c35 0 64 1 64 3 0 1 -17 37 -38 79 l-37 78 -26 -80z"/>
<path d="M4456 6605 c-19 -14 -19 -15 7 -15 17 0 27 5 27 15 0 19 -9 19 -34 0z"/>
<path d="M4545 6600 c-19 -8 -19 -9 3 -9 12 -1 22 4 22 9 0 6 -1 10 -2 9 -2 0 -12 -4 -23 -9z"/>
<path d="M4475 6530 c-7 -12 2 -12 30 0 19 8 19 9 -2 9 -12 1 -25 -3 -28 -9z"/>
<path d="M6190 5646 c0 -15 185 -466 213 -519 16 -32 46 -72 65 -88 29 -26 41 -30 69 -26 49 8 97 48 123 102 31 65 25 138 -21 228 -61 124 -164 218 -295 271 -60 24 -154 44 -154 32z"/>
<path d="M4857 5604 c-139 -33 -312 -156 -363 -257 -70 -138 22 -367 148 -367 61 0 152 108 223 264 35 78 117 299 129 349 6 26 5 27 -36 26 -24 0 -69 -7 -101 -15z"/>
<path d="M8394 8051 c-44 -22 -94 -55 -111 -73 l-33 -34 39 -46 c21 -26 50 -61 65 -79 l28 -32 55 27 c30 15 56 26 57 24 2 -2 8 -52 14 -113 12 -106 37 -243 61 -332 l12 -43 157 0 c86 0 163 4 171 9 30 19 12 27 -195 80 l-41 11 -6 182 c-6 188 -26 338 -52 388 -41 80 -105 89 -221 31z"/>
</g>
<g id="layer103" fill="#f39e63" stroke="none">
<path d="M0 5400 l0 -5400 5400 0 5400 0 0 5400 0 5400 -5400 0 -5400 0 0 -5400z m7881 3622 c3 -4 14 -194 24 -422 9 -228 20 -446 24 -485 l6 -69 110 -22 c61 -12 130 -31 154 -43 l42 -22 41 36 c58 53 172 105 229 105 118 0 154 -97 166 -442 l6 -197 71 -17 c116 -28 176 -53 176 -74 0 -10 -7 -21 -16 -24 -9 -3 -89 -6 -179 -6 l-164 0 -10 38 c-22 79 -50 232 -62 332 -6 58 -13 106 -14 108 -1 1 -23 -6 -47 -17 l-46 -19 11 -40 c6 -21 8 -46 4 -54 -7 -19 -456 -340 -469 -336 -5 2 97 79 226 172 130 92 236 174 236 182 0 43 -146 231 -202 260 -17 9 -83 27 -147 40 -92 20 -293 76 -357 101 -6 2 -19 -3 -28 -12 -14 -14 -16 -50 -16 -285 0 -193 -3 -271 -12 -276 -15 -10 -2 554 14 573 6 7 19 13 30 13 19 0 19 5 13 83 -5 61 1 157 25 376 17 162 30 303 28 313 -2 15 -21 26 -73 42 -96 31 -137 53 -133 74 2 9 14 20 28 24 29 9 302 0 311 -10z m-4568 -283 l36 -79 296 0 c162 0 295 2 295 4 0 2 -13 33 -30 68 -16 34 -30 68 -30 74 0 23 30 23 44 1 8 -12 186 -392 397 -844 222 -477 387 -819 392 -814 5 5 8 253 8 562 -2 497 0 556 15 577 l16 23 16 -32 c30 -59 105 -59 139 -1 l16 27 32 -32 c39 -39 92 -44 142 -13 36 21 47 52 41 105 -2 19 0 35 4 35 19 0 58 54 58 81 0 25 5 28 48 38 189 40 439 36 645 -10 40 -9 47 -14 47 -35 0 -25 40 -74 59 -74 7 0 7 -9 0 -27 -25 -66 29 -133 108 -133 39 0 50 5 79 36 19 19 34 29 34 21 0 -19 40 -54 73 -62 15 -4 27 -11 27 -16 0 -23 21 -5 39 34 l20 42 -1 -225 0 -225 137 -3 c133 -2 140 -2 176 22 l38 25 32 -37 c33 -38 129 -180 129 -191 0 -3 -18 -19 -40 -34 -36 -25 -38 -30 -28 -52 7 -17 25 -29 50 -35 50 -14 49 -24 -2 -15 l-40 7 0 -35 c0 -20 -9 -46 -22 -63 -17 -20 -18 -26 -7 -22 9 4 38 9 65 12 l49 6 -40 -14 c-22 -7 -72 -16 -111 -19 -85 -8 -115 7 -116 60 -1 27 -4 31 -18 23 -14 -8 -28 1 -68 44 -27 29 -62 76 -77 106 l-27 53 38 38 37 38 -44 11 c-24 6 -56 15 -71 20 -21 7 -30 4 -44 -11 -28 -31 -35 -22 -32 39 2 39 7 56 16 54 19 -3 14 16 -7 27 -26 14 -38 -3 -46 -64 -7 -53 6 -105 26 -105 7 0 20 7 29 15 16 14 18 12 23 -37 4 -29 7 -161 7 -293 2 -268 10 -337 65 -502 67 -202 157 -348 324 -528 181 -195 298 -374 380 -582 289 -730 40 -1532 -605 -1946 -234 -151 -533 -251 -782 -262 l-97 -4 110 14 c311 40 548 124 771 273 355 238 585 578 675 1002 30 139 33 444 6 587 -67 356 -209 628 -477 918 -223 241 -344 494 -385 810 -4 28 -8 51 -10 53 -7 8 -248 53 -369 69 -183 25 -706 25 -881 0 -150 -21 -337 -56 -353 -66 -6 -4 -18 -39 -25 -78 l-13 -71 205 -442 206 -443 7 49 c18 131 28 299 28 492 l0 212 25 0 25 0 0 -202 c0 -210 -11 -375 -35 -537 -12 -82 -12 -98 1 -122 18 -37 18 -38 -11 -49 -14 -5 -25 -17 -25 -27 0 -15 -49 -234 -75 -334 -6 -24 -4 -26 55 -37 139 -26 229 -96 278 -216 16 -39 37 -93 47 -121 33 -90 107 -135 171 -103 40 19 60 59 83 166 26 120 50 171 101 221 48 46 119 76 223 92 39 7 73 13 75 14 1 1 -25 75 -58 164 -101 269 -129 434 -137 803 -6 283 -2 328 27 328 18 0 19 -11 18 -237 0 -364 33 -595 116 -824 94 -258 86 -243 139 -251 162 -23 323 -117 411 -241 85 -119 115 -218 96 -313 -10 -47 -21 -65 -63 -109 -82 -83 -151 -93 -225 -30 -53 46 -89 118 -202 404 -111 280 -96 263 -218 241 -124 -21 -206 -84 -236 -180 -8 -25 -22 -80 -31 -122 -26 -123 -76 -180 -159 -180 -53 0 -111 27 -138 63 -10 13 -34 67 -53 119 -46 123 -77 174 -128 211 -48 35 -132 61 -182 57 l-36 -3 -50 -150 c-125 -378 -268 -565 -400 -526 -52 16 -114 79 -147 150 -37 79 -38 202 -3 276 30 61 127 158 204 204 78 46 208 89 294 97 l72 7 40 166 c63 263 66 287 41 344 l-21 47 -309 0 -310 0 9 -22 c5 -13 26 -59 46 -102 25 -56 33 -82 25 -90 -21 -21 -41 10 -116 173 -41 91 -76 166 -77 168 -5 4 -101 -127 -150 -202 -112 -175 -208 -412 -252 -625 -13 -63 -24 -104 -24 -91 -1 38 48 248 81 340 61 177 203 435 304 555 33 38 33 39 18 75 -9 20 -18 42 -21 49 -3 8 4 12 21 12 20 0 29 -7 37 -27 l11 -28 19 25 c11 14 31 38 45 54 29 34 29 31 3 68 -21 28 -21 30 -3 43 30 23 56 28 64 14 5 -8 21 13 46 62 49 95 65 131 61 136 -2 2 -97 2 -210 1 l-206 -3 51 -112 51 -113 56 -1 c63 -1 43 -11 -44 -22 l-50 -7 -158 347 c-87 192 -161 354 -166 361 -4 8 -38 -95 -87 -264 -43 -152 -80 -270 -82 -261 -3 13 86 338 141 517 14 44 14 45 -36 155 -27 60 -53 114 -57 118 -4 4 -16 -16 -27 -45 -20 -54 -250 -418 -264 -418 -4 0 -13 17 -20 38 -21 67 -106 227 -148 280 -46 58 -85 82 -133 82 -27 0 -43 -9 -75 -42 -52 -55 -165 -225 -233 -351 l-53 -98 34 -35 c18 -19 39 -33 45 -32 6 2 62 58 124 126 63 67 117 122 121 122 9 0 7 6 50 -155 30 -110 39 -130 110 -236 l78 -116 7 -132 c4 -72 4 -131 0 -131 -21 0 -102 76 -117 109 -9 21 -42 65 -73 97 -31 32 -59 70 -63 82 -8 32 22 71 79 102 l46 25 -28 40 c-15 22 -28 44 -27 48 0 15 -56 222 -62 229 -4 4 -57 -46 -120 -112 -62 -66 -120 -120 -129 -120 -9 0 -28 -12 -44 -27 l-28 -26 -85 57 c-89 59 -165 122 -165 137 0 17 60 9 147 -20 48 -17 88 -29 89 -28 1 1 23 44 49 96 61 118 183 302 238 358 24 26 54 45 73 49 77 14 168 -76 253 -251 27 -55 51 -109 55 -119 4 -12 10 -16 16 -10 29 30 227 349 246 398 l23 58 -283 622 c-276 602 -297 657 -251 640 7 -3 29 -41 48 -85z m5442 -1634 c0 -14 -17 -29 -62 -52 -52 -26 -60 -33 -48 -43 19 -16 19 -39 1 -46 -16 -6 -146 24 -160 37 -15 13 12 11 68 -6 27 -8 61 -15 75 -15 l26 1 -22 18 c-13 11 -23 22 -23 25 0 3 29 19 65 35 69 32 80 46 40 53 -27 6 -176 -7 -212 -18 -14 -4 -23 -2 -23 4 0 16 95 30 190 28 78 -1 85 -3 85 -21z m-1339 -224 c-13 -14 -26 -17 -59 -14 -36 4 -48 1 -75 -22 -17 -14 -37 -44 -43 -65 -11 -36 -10 -41 14 -69 14 -17 28 -40 32 -51 8 -24 14 -25 44 -4 13 9 43 17 67 18 48 1 64 15 64 55 0 32 36 83 67 98 24 12 25 11 9 -6 -15 -16 -15 -21 -1 -54 8 -20 15 -53 15 -73 l0 -36 33 32 c30 29 36 31 92 28 l60 -3 0 43 0 43 60 25 c33 14 65 27 71 30 17 8 54 -45 54 -75 0 -18 -13 -40 -41 -66 -57 -55 -71 -93 -63 -164 8 -76 -4 -86 -89 -77 -92 9 -131 -5 -174 -65 -43 -60 -101 -93 -148 -85 -65 12 -115 76 -115 144 0 23 -6 32 -29 41 -65 27 -128 126 -116 180 3 15 24 45 45 66 22 22 40 44 40 51 0 6 19 28 41 49 38 34 46 37 85 32 30 -3 47 0 55 9 7 8 14 12 17 9 3 -3 -2 -13 -12 -24z m-4585 -227 c50 -31 44 -45 -6 -15 -45 26 -45 26 -45 -5 0 -19 -4 -24 -17 -20 -10 3 -40 8 -68 12 l-50 7 24 -27 c27 -29 115 -76 142 -76 10 0 21 -5 25 -11 10 -17 -52 -1 -107 27 -45 22 -99 75 -99 96 0 10 68 5 111 -8 12 -3 19 3 23 21 8 31 16 31 67 -1z m997 -4 c48 -35 89 -92 98 -138 6 -30 4 -33 -31 -48 -20 -8 -38 -14 -40 -12 -1 2 -9 23 -17 48 -9 25 -27 75 -41 113 -15 37 -22 67 -18 67 4 0 27 -13 49 -30z m-503 -410 c11 -12 49 -48 85 -80 l65 -57 55 7 c30 4 62 10 71 14 20 9 35 -27 45 -105 6 -43 4 -53 -16 -74 -26 -28 -21 -52 12 -57 16 -2 31 -18 48 -51 18 -34 29 -45 40 -40 8 3 36 8 62 11 46 4 48 5 55 40 4 21 7 61 6 90 0 63 -29 102 -75 102 -27 0 -28 1 -28 55 0 56 3 61 44 67 25 4 83 -70 92 -119 4 -20 1 -74 -6 -120 -10 -61 -10 -96 -3 -128 10 -44 9 -46 -18 -65 -136 -97 -352 -50 -423 92 -23 45 -25 59 -19 122 7 84 -5 116 -64 165 -21 18 -48 41 -60 52 -39 35 -43 131 -5 110 10 -5 26 -19 37 -31z m592 -892 c-2 -13 -4 -3 -4 22 0 25 2 35 4 23 2 -13 2 -33 0 -45z m-10 -225 c-2 -37 -3 -9 -3 62 0 72 1 102 3 68 2 -34 2 -93 0 -130z m33 -244 c104 -556 477 -982 1027 -1172 54 -19 132 -42 173 -53 41 -10 67 -20 58 -22 -9 -2 -61 8 -115 23 -590 157 -1015 590 -1143 1167 -11 48 -22 117 -24 155 -2 37 -2 55 0 38 3 -16 13 -78 24 -136z m2278 119 c98 -19 172 -37 172 -43 0 -6 -10 -22 -22 -34 -19 -22 -26 -23 -82 -16 -74 9 -138 7 -146 -4 -3 -5 -38 -143 -79 -308 l-74 -298 -128 -134 c-71 -74 -127 -136 -125 -139 7 -6 381 109 392 121 6 7 82 95 170 197 189 221 234 270 246 270 5 0 25 12 45 27 l36 28 124 -129 c68 -71 122 -134 120 -140 -6 -18 -53 -24 -83 -10 -16 8 -51 29 -77 49 l-49 35 -92 -123 c-51 -67 -141 -185 -200 -262 l-108 -140 -295 -143 c-251 -121 -327 -153 -302 -128 3 3 135 68 294 144 l290 140 188 243 c103 134 190 249 193 256 5 10 -79 133 -91 133 -2 0 -96 -107 -209 -238 l-206 -238 -215 -63 c-119 -35 -219 -60 -222 -57 -4 3 52 66 123 138 71 73 138 143 148 155 17 20 156 538 160 593 1 23 -4 25 -64 35 l-65 10 -115 -251 -115 -251 -260 -214 -260 -215 -6 -132 c-3 -73 -9 -135 -13 -139 -3 -3 -6 56 -6 133 l0 139 268 221 267 221 65 144 c106 237 160 351 174 365 8 7 17 29 20 49 5 24 12 35 24 35 9 0 95 -14 190 -32z m-3187 -386 c61 -55 43 -164 -32 -196 -19 -8 -41 -31 -60 -64 -41 -72 -128 -132 -191 -132 -19 0 -29 -12 -52 -66 -37 -83 -107 -161 -182 -199 -53 -27 -69 -30 -149 -30 -77 0 -98 4 -148 27 -31 15 -81 50 -110 77 l-53 50 -38 -26 c-52 -38 -145 -44 -203 -14 -52 26 -98 81 -113 136 -7 26 -23 51 -41 64 -63 47 -88 154 -53 227 9 19 33 48 53 64 l36 30 307 0 c300 0 308 1 318 21 6 11 26 29 43 39 30 19 53 20 334 20 l303 0 31 -28z m6103 -1023 c41 -36 54 -83 37 -139 -12 -39 -70 -100 -96 -100 -8 0 -24 -20 -36 -45 -42 -89 -132 -158 -221 -170 -73 -10 -88 -15 -88 -28 0 -7 -16 -45 -35 -85 -44 -92 -114 -163 -203 -205 -61 -29 -75 -32 -167 -32 -94 0 -105 2 -169 34 -39 19 -94 58 -125 88 -44 43 -59 52 -71 44 -123 -87 -244 -80 -333 19 -39 43 -67 95 -67 126 0 9 -19 33 -41 52 -102 88 -105 232 -5 320 l37 32 362 0 362 0 20 37 c11 21 35 48 54 60 34 23 36 23 392 23 l358 0 35 -31z m-4214 -497 c-41 -13 -61 -33 -200 -197 -132 -156 -160 -184 -190 -190 -19 -4 -46 -13 -61 -21 -29 -14 -69 -60 -69 -77 0 -9 37 -6 104 9 25 6 28 5 21 -15 -11 -37 13 -23 52 29 32 43 329 303 402 352 29 20 51 23 51 8 0 -5 -7 -10 -16 -10 -23 0 -351 -278 -419 -355 -31 -36 -61 -65 -67 -65 -5 0 -12 9 -15 21 -4 15 -11 19 -27 15 -100 -29 -131 -3 -72 62 25 29 88 62 116 62 13 0 68 57 175 183 128 150 163 185 198 198 23 9 46 14 52 11 5 -3 -11 -12 -35 -20z m1051 -332 l86 -212 44 -20 c82 -36 136 -108 92 -125 -15 -6 -71 5 -115 22 -13 5 -18 2 -18 -11 0 -11 -4 -25 -9 -33 -14 -22 -35 0 -50 50 -22 73 -227 423 -272 464 -52 46 -45 56 9 13 29 -24 70 -86 154 -233 63 -110 120 -220 128 -245 14 -45 14 -45 20 -15 6 33 10 34 90 12 32 -9 59 -11 64 -6 15 14 -43 69 -99 94 l-50 23 -84 208 c-78 195 -87 212 -132 254 -66 60 -63 74 3 18 51 -44 55 -52 139 -258z m-611 181 c0 -57 -16 -107 -36 -115 -22 -8 -17 -36 11 -62 17 -16 25 -34 25 -56 l0 -33 82 1 83 1 7 39 c19 110 2 194 -41 194 -9 0 -22 5 -29 12 -14 14 -16 68 -2 68 6 0 10 -13 10 -30 0 -23 5 -31 25 -36 58 -14 77 -81 56 -190 -5 -29 -4 -49 5 -65 17 -30 17 -79 1 -100 -7 -9 -28 -26 -47 -38 -62 -38 -121 -25 -187 42 -23 23 -60 57 -82 75 -47 39 -58 76 -41 138 14 49 72 114 119 134 27 11 29 15 24 47 -4 26 -3 34 5 29 7 -4 12 -29 12 -55z"/>
<path d="M7577 9014 c-36 -11 -9 -30 91 -64 85 -29 102 -38 101 -55 0 -11 -15 -158 -33 -327 -26 -253 -30 -320 -22 -381 l9 -74 99 -31 99 -30 -5 27 c-7 30 -21 285 -37 661 -6 146 -12 266 -13 267 -4 4 -274 11 -289 7z"/>
<path d="M8475 8081 c-70 -18 -215 -107 -215 -133 0 -5 27 -43 61 -83 l61 -74 49 24 c26 14 53 25 58 25 5 0 12 -21 16 -47 17 -140 37 -262 56 -348 l23 -96 157 3 c189 4 218 16 113 47 -38 11 -96 26 -129 33 l-60 13 -1 105 c-4 250 -23 411 -59 480 -9 18 -31 38 -50 46 -37 15 -37 15 -80 5z"/>
<path d="M6172 8199 c2 -18 9 -34 16 -37 10 -3 13 5 10 29 -2 18 -9 34 -16 37 -10 3 -13 -5 -10 -29z"/>
<path d="M6307 8053 c-10 -9 -9 -43 2 -43 13 0 23 32 13 42 -5 5 -11 5 -15 1z"/>
<path d="M6210 7991 c0 -26 10 -51 21 -51 5 0 9 16 9 35 0 24 -5 35 -15 35 -8 0 -15 -9 -15 -19z"/>
<path d="M3977 7993 c-7 -12 -77 -200 -77 -207 0 -4 32 -6 72 -4 l72 3 16 65 c9 36 20 75 24 88 6 19 2 25 -39 42 -51 22 -62 24 -68 13z"/>
<path d="M3852 7671 l-23 -59 32 -71 c32 -71 33 -72 67 -69 l34 3 28 110 c15 61 31 118 35 128 6 15 -1 17 -71 17 l-79 0 -23 -59z"/>
<path d="M6800 7530 c0 -5 5 -10 10 -10 6 0 10 5 10 10 0 6 -4 10 -10 10 -5 0 -10 -4 -10 -10z"/>
<path d="M6773 7463 c-18 -9 -33 -20 -33 -24 0 -16 21 -20 36 -8 13 11 39 50 32 48 -2 0 -18 -8 -35 -16z"/>
<path d="M3920 7413 c0 -5 4 -14 9 -21 6 -10 10 -9 14 7 3 14 0 21 -9 21 -8 0 -14 -3 -14 -7z"/>
<path d="M4466 6605 c-19 -15 -19 -15 2 -15 13 0 22 6 22 15 0 18 0 18 -24 0z"/>
<path d="M4543 6593 c4 -3 10 -3 14 0 3 4 0 7 -7 7 -7 0 -10 -3 -7 -7z"/>
<path d="M4483 6533 c4 -3 10 -3 14 0 3 4 0 7 -7 7 -7 0 -10 -3 -7 -7z"/>
<path d="M6190 5646 c0 -15 185 -466 213 -519 16 -32 46 -72 65 -88 29 -26 41 -30 69 -26 49 8 97 48 123 103 30 62 23 140 -22 231 -60 120 -164 214 -294 267 -60 24 -154 44 -154 32z"/>
<path d="M4857 5604 c-139 -33 -312 -156 -363 -257 -70 -138 22 -367 148 -367 90 0 214 197 318 509 22 67 40 123 40 126 0 10 -85 3 -143 -11z"/>
</g>
<g id="layer104" fill="#c5b89c" stroke="none">
<path d="M0 5400 l0 -5400 5400 0 5400 0 0 5400 0 5400 -5400 0 -5400 0 0 -5400z m7855 3631 l30 -6 12 -280 c12 -306 33 -688 37 -692 1 -2 49 -12 107 -24 57 -11 126 -32 152 -45 l49 -24 43 38 c62 55 170 105 227 106 36 1 52 -4 73 -24 62 -58 83 -151 92 -421 l6 -195 71 -18 c119 -31 176 -55 176 -76 0 -10 -7 -21 -16 -24 -9 -3 -89 -6 -179 -6 l-164 0 -10 38 c-22 79 -50 232 -62 332 -6 58 -13 106 -14 108 -1 1 -23 -6 -47 -17 l-46 -19 11 -40 c6 -21 8 -46 4 -54 -4 -13 -450 -338 -462 -338 -2 0 -39 26 -82 58 -98 74 -209 136 -224 126 -16 -10 -3 554 13 573 6 7 19 13 30 13 19 0 19 5 13 83 -5 61 1 157 25 377 17 162 29 305 27 317 -2 12 1 25 7 28 6 2 1 2 -12 -1 -42 -10 -202 54 -202 81 0 8 8 19 18 24 18 11 248 13 297 2z m-4542 -292 l36 -79 296 0 c162 0 295 2 295 4 0 2 -13 33 -30 68 -16 34 -30 68 -30 74 0 23 30 23 44 1 8 -12 186 -392 397 -844 222 -477 387 -819 392 -814 5 5 8 253 8 562 -2 497 0 556 15 577 l16 23 16 -32 c30 -59 105 -59 139 -1 l16 27 32 -32 c39 -39 92 -44 142 -13 36 21 47 52 41 105 -2 19 0 35 4 35 19 0 58 54 58 81 0 25 5 28 48 38 189 40 439 36 645 -10 40 -9 47 -14 47 -35 0 -25 40 -74 59 -74 7 0 7 -9 0 -27 -25 -66 29 -133 108 -133 39 0 50 5 79 36 19 19 34 29 34 21 0 -18 38 -53 68 -62 17 -5 27 -2 37 12 7 10 17 14 21 10 4 -4 14 3 21 15 11 19 13 -13 12 -202 l-1 -225 137 -3 c133 -2 140 -2 176 22 l38 25 32 -37 c33 -38 129 -180 129 -191 0 -3 -18 -19 -40 -34 -36 -25 -38 -30 -28 -52 7 -17 25 -29 50 -36 l39 -10 -2 -54 -2 -54 -46 -10 c-25 -5 -73 -12 -107 -16 -74 -7 -105 11 -106 62 -1 27 -4 31 -18 23 -14 -8 -28 1 -68 44 -27 29 -62 76 -77 106 l-27 53 38 38 37 38 -44 11 c-24 6 -56 15 -71 20 -21 7 -30 4 -44 -11 -28 -31 -35 -22 -32 39 2 39 7 56 16 54 19 -3 14 16 -7 27 -26 14 -38 -3 -46 -64 -7 -53 6 -105 26 -105 7 0 20 7 29 15 16 14 18 12 23 -37 4 -29 7 -161 7 -293 2 -268 10 -337 65 -502 67 -202 157 -348 324 -528 181 -195 298 -374 380 -582 289 -730 40 -1532 -605 -1946 -234 -151 -533 -251 -782 -262 l-97 -4 110 14 c311 40 548 124 771 273 355 238 585 578 675 1002 30 139 33 444 6 587 -67 356 -209 628 -477 918 -223 241 -344 494 -385 810 -4 28 -8 51 -10 53 -7 8 -248 53 -369 69 -183 25 -706 25 -881 0 -150 -21 -337 -56 -353 -66 -6 -4 -18 -39 -25 -78 l-13 -71 205 -442 206 -443 7 49 c18 131 28 299 28 492 l0 212 25 0 25 0 0 -202 c0 -210 -11 -375 -35 -537 -12 -82 -12 -98 1 -122 18 -37 18 -38 -11 -49 -14 -5 -25 -17 -25 -27 0 -15 -49 -234 -75 -334 -6 -24 -4 -26 55 -37 139 -26 229 -96 278 -216 16 -39 37 -93 47 -121 33 -90 107 -135 171 -103 40 19 60 59 83 166 26 120 50 171 101 221 48 46 119 76 223 92 39 7 73 13 75 14 1 1 -25 75 -58 164 -101 269 -129 434 -137 803 -6 283 -2 328 27 328 18 0 19 -11 18 -237 0 -364 33 -595 116 -824 94 -258 86 -243 139 -251 103 -14 229 -69 315 -137 101 -80 192 -241 195 -346 2 -70 -20 -207 -45 -272 -40 -109 -127 -193 -206 -201 -68 -6 -123 21 -209 102 -73 69 -116 85 -127 49 -2 -10 -37 -148 -77 -308 l-73 -290 -128 -134 c-70 -74 -126 -136 -124 -139 7 -6 381 109 392 121 6 7 82 95 170 197 189 221 234 270 246 270 5 0 25 12 45 27 l36 28 124 -129 c68 -71 122 -134 120 -140 -6 -18 -53 -24 -83 -10 -16 8 -51 29 -77 49 l-49 35 -92 -123 c-51 -67 -141 -185 -200 -262 l-108 -140 -295 -143 c-163 -78 -299 -140 -302 -137 -3 4 0 10 7 14 27 17 -123 63 -246 76 -91 10 -200 -3 -205 -23 -3 -10 -5 46 -6 123 l-1 140 268 221 267 221 65 144 c106 237 160 351 174 365 8 7 17 29 20 50 l7 36 53 -6 53 -7 -56 113 c-90 180 -132 339 -111 419 9 32 18 43 46 55 31 13 42 13 96 -1 34 -8 62 -14 63 -13 1 2 -4 18 -11 36 -12 27 -19 32 -47 32 -58 0 -150 -21 -198 -46 -86 -43 -118 -99 -154 -266 -26 -123 -76 -180 -159 -180 -53 0 -111 27 -138 63 -10 13 -34 67 -53 119 -46 123 -77 174 -128 211 -76 55 -217 78 -225 37 -3 -14 3 -18 27 -18 36 0 67 -27 77 -66 19 -75 -20 -231 -96 -389 -62 -127 -117 -211 -194 -293 -135 -144 -236 -166 -338 -74 -52 47 -82 95 -108 171 -22 67 -26 164 -9 208 6 15 15 62 19 104 4 46 16 95 30 125 29 60 126 157 203 203 78 46 208 89 294 97 l72 7 40 166 c63 263 66 287 41 344 l-21 47 -309 0 -310 0 9 -22 c5 -13 26 -59 46 -102 25 -56 33 -82 25 -90 -21 -21 -41 10 -116 173 -41 91 -76 166 -77 168 -5 4 -101 -127 -150 -202 -112 -175 -208 -412 -252 -625 -13 -63 -24 -104 -24 -91 -1 38 48 248 81 340 61 177 203 435 304 555 33 38 33 39 18 75 -9 20 -18 42 -21 49 -3 8 4 12 21 12 20 0 29 -7 37 -27 l11 -28 19 25 c11 14 31 38 45 54 l24 29 -20 34 c-20 34 -20 36 -3 49 29 22 55 27 63 13 5 -8 21 13 46 62 49 95 65 131 61 136 -2 2 -97 2 -210 1 l-206 -3 51 -112 51 -113 56 -1 c63 -1 43 -11 -44 -22 l-50 -7 -158 347 c-87 192 -161 354 -166 361 -4 8 -38 -94 -86 -261 l-78 -274 -64 -2 c-81 -3 -165 -25 -228 -60 l-50 -29 4 -126 c2 -69 0 -126 -3 -126 -21 0 -102 76 -117 109 -9 21 -42 65 -73 97 -31 32 -59 70 -63 82 -8 32 22 71 79 102 l46 25 -28 40 c-15 22 -28 44 -27 48 0 15 -56 222 -62 229 -4 4 -57 -46 -120 -112 -62 -66 -120 -120 -129 -120 -9 0 -28 -12 -44 -27 l-28 -26 -85 57 c-89 59 -165 122 -165 137 0 17 60 9 147 -20 48 -17 88 -29 89 -28 1 1 23 44 49 96 61 118 183 302 238 358 24 26 54 45 73 49 77 14 168 -76 253 -251 27 -55 51 -109 55 -119 4 -12 10 -16 16 -10 29 30 227 349 246 398 l23 58 -283 622 c-276 602 -297 657 -251 640 7 -3 29 -41 48 -85z m5442 -1634 c0 -14 -17 -29 -62 -51 -55 -28 -60 -33 -46 -47 19 -19 10 -47 -14 -46 -10 0 -47 8 -83 18 l-65 17 -3 56 -3 56 53 10 c29 6 91 9 138 8 78 -1 85 -3 85 -21z m-1227 -187 c13 -17 19 -85 8 -95 -5 -5 -6 -2 -1 7 5 8 4 12 0 7 -15 -13 -14 -36 1 -72 8 -19 14 -51 14 -71 l0 -36 33 32 c30 29 36 31 92 28 l60 -3 0 43 0 43 60 25 c33 14 65 27 71 30 17 8 54 -45 54 -75 0 -18 -13 -40 -41 -66 -57 -55 -71 -93 -63 -164 8 -76 -4 -86 -89 -77 -92 9 -131 -5 -174 -65 -43 -60 -101 -93 -148 -85 -65 12 -115 76 -115 144 0 23 -6 32 -29 41 -65 27 -128 126 -116 180 3 15 24 45 45 66 22 22 40 44 40 51 0 6 19 28 41 49 37 33 46 37 83 33 34 -4 48 0 72 18 32 26 85 32 102 12z m-4698 -263 c45 -28 46 -33 24 -99 -16 -45 -17 -47 -48 -40 -73 16 -176 89 -176 126 0 10 68 5 111 -8 12 -3 19 3 23 21 8 31 16 31 66 0z m998 -5 c48 -35 89 -92 98 -138 6 -30 4 -33 -31 -48 -20 -8 -38 -14 -40 -12 -1 2 -9 23 -17 48 -9 25 -27 75 -41 113 -15 37 -22 67 -18 67 4 0 27 -13 49 -30z m-445 -464 c86 -80 88 -81 135 -78 52 3 98 18 123 39 16 13 32 15 109 12 19 0 41 1 49 3 20 4 79 -76 87 -119 4 -20 1 -74 -6 -120 -10 -61 -10 -96 -3 -128 10 -44 9 -46 -18 -65 -136 -97 -352 -50 -423 92 -23 45 -25 59 -19 122 7 84 -5 116 -64 165 -73 62 -82 72 -88 101 -8 37 2 73 18 63 7 -4 51 -43 100 -87z m534 -838 c-2 -13 -4 -3 -4 22 0 25 2 35 4 23 2 -13 2 -33 0 -45z m-10 -225 c-2 -37 -3 -9 -3 62 0 72 1 102 3 68 2 -34 2 -93 0 -130z m33 -244 c104 -556 477 -982 1027 -1172 54 -19 132 -42 173 -53 41 -10 67 -20 58 -22 -9 -2 -61 8 -115 23 -590 157 -1015 590 -1143 1167 -11 48 -22 117 -24 155 -2 37 -2 55 0 38 3 -16 13 -78 24 -136z m-909 -267 c61 -55 43 -164 -32 -196 -19 -8 -41 -31 -60 -64 -41 -72 -128 -132 -191 -132 -19 0 -29 -12 -52 -66 -37 -83 -107 -161 -182 -199 -53 -27 -69 -30 -149 -30 -77 0 -98 4 -148 27 -31 15 -81 50 -110 77 l-53 50 -38 -26 c-52 -38 -145 -44 -203 -14 -52 26 -98 81 -113 136 -7 26 -23 51 -41 64 -63 47 -88 154 -53 227 9 19 33 48 53 64 l36 30 307 0 c300 0 308 1 318 21 6 11 26 29 43 39 30 19 53 20 334 20 l303 0 31 -28z m6103 -1023 c41 -36 54 -83 37 -139 -12 -39 -70 -100 -96 -100 -8 0 -24 -20 -36 -45 -42 -89 -132 -158 -221 -170 -73 -10 -88 -15 -88 -28 0 -7 -16 -45 -35 -85 -44 -92 -114 -163 -203 -205 -61 -29 -75 -32 -167 -32 -94 0 -105 2 -169 34 -39 19 -94 58 -125 88 -44 43 -59 52 -71 44 -123 -87 -244 -80 -333 19 -39 43 -67 95 -67 126 0 9 -19 33 -41 52 -102 88 -105 232 -5 320 l37 32 362 0 362 0 20 37 c11 21 35 48 54 60 34 23 36 23 392 23 l358 0 35 -31z m-4133 -542 c34 -71 33 -67 13 -67 -23 0 -351 -278 -419 -355 -31 -36 -61 -65 -67 -65 -5 0 -12 9 -15 21 -4 15 -11 19 -27 15 -100 -29 -131 -3 -72 62 25 29 88 62 116 62 13 0 68 57 175 183 128 149 163 185 198 198 23 9 48 14 55 11 7 -2 27 -32 43 -65z m970 -287 l86 -212 44 -20 c82 -36 136 -108 92 -125 -15 -6 -71 5 -115 22 -13 5 -18 2 -18 -11 0 -11 -4 -25 -9 -33 -14 -22 -35 0 -50 50 -22 72 -227 423 -271 463 -45 41 -48 46 -20 39 12 -3 20 0 20 7 0 7 16 28 36 47 28 26 34 37 25 46 -6 6 -11 15 -11 20 0 5 24 -11 52 -35 51 -44 55 -52 139 -258z m-520 250 c13 -8 19 -21 19 -45 0 -29 4 -36 25 -41 58 -14 77 -81 56 -190 -5 -29 -4 -49 5 -65 17 -30 17 -79 1 -100 -7 -9 -28 -26 -47 -38 -62 -38 -121 -25 -187 42 -23 23 -60 57 -82 75 -47 39 -58 76 -41 138 14 49 72 114 119 134 26 10 29 16 24 41 -4 22 -1 34 13 44 22 17 68 19 95 5z"/>
<path d="M7574 8986 c11 -9 24 -16 30 -16 12 0 7 5 -24 19 -24 11 -24 11 -6 -3z"/>
<path d="M7623 8963 c4 -3 10 -3 14 0 3 4 0 7 -7 7 -7 0 -10 -3 -7 -7z"/>
<path d="M7653 8953 c4 -3 10 -3 14 0 3 4 0 7 -7 7 -7 0 -10 -3 -7 -7z"/>
<path d="M7683 8943 c4 -3 10 -3 14 0 3 4 0 7 -7 7 -7 0 -10 -3 -7 -7z"/>
<path d="M7713 8933 c4 -3 10 -3 14 0 3 4 0 7 -7 7 -7 0 -10 -3 -7 -7z"/>
<path d="M3650 8012 c0 -5 22 -57 50 -118 l50 -109 66 0 67 0 43 115 c24 63 44 116 44 118 0 1 -72 2 -160 2 -88 0 -160 -4 -160 -8z"/>
<path d="M4205 8010 c28 -12 45 -12 45 0 0 6 -15 10 -32 9 -28 0 -30 -2 -13 -9z"/>
<path d="M4016 7623 c-16 -60 -31 -118 -33 -130 l-5 -23 261 0 260 0 -35 78 c-20 42 -47 101 -60 130 l-24 52 -168 0 -168 0 -28 -107z"/>
<path d="M6733 7549 c-69 -45 -81 -66 -63 -110 10 -23 19 -29 42 -29 26 0 29 2 18 15 -16 19 -2 38 40 55 19 8 27 17 23 27 -3 8 0 25 7 39 25 45 -1 46 -67 3z"/>
<path d="M4054 7123 c4 -10 30 -71 59 -135 l52 -117 236 -1 c272 0 241 -13 275 117 17 69 17 72 -1 112 l-18 41 -305 0 c-285 0 -304 -1 -298 -17z"/>
<path d="M4583 6715 c-50 -101 -51 -105 -27 -99 18 5 24 2 24 -10 0 -14 20 -16 165 -16 l164 0 -35 78 c-20 42 -44 94 -53 114 l-16 38 -85 0 -85 0 -52 -105z"/>
<path d="M4520 6525 c-14 -8 -32 -14 -40 -15 -18 0 -96 -105 -92 -123 2 -7 13 -33 24 -59 l20 -48 310 0 c176 0 308 4 306 9 -1 5 -28 63 -58 130 l-55 121 -195 0 c-150 -1 -201 -4 -220 -15z"/>
<path d="M6190 5646 c0 -3 7 -23 16 -44 13 -35 23 -42 82 -66 149 -58 306 -173 358 -262 14 -24 27 -44 29 -44 9 0 -16 75 -41 125 -57 113 -163 208 -290 259 -58 24 -154 44 -154 32z"/>
<path d="M2364 4602 c-12 -10 -26 -28 -33 -40 -12 -22 -12 -22 -318 -22 -296 0 -307 -1 -341 -22 -91 -56 -94 -196 -5 -266 23 -19 38 -43 48 -77 15 -55 70 -116 118 -134 65 -25 168 -3 206 43 12 14 19 10 64 -34 28 -28 80 -65 116 -83 58 -29 75 -32 151 -32 73 0 92 4 136 27 91 48 169 147 200 256 2 6 18 12 36 12 72 1 159 63 195 139 12 27 30 44 54 55 67 30 84 116 33 171 l-23 25 -308 0 c-279 -1 -310 -2 -329 -18z"/>
<path d="M8359 3585 c-29 -16 -59 -56 -59 -80 0 -13 -44 -15 -371 -15 l-372 0 -42 -43 c-42 -41 -65 -94 -65 -147 1 -41 35 -104 77 -141 28 -24 43 -48 53 -82 25 -93 131 -178 219 -177 37 1 96 24 139 54 l38 26 62 -61 c39 -38 88 -72 130 -92 60 -28 77 -32 157 -32 78 0 98 4 149 28 115 54 195 143 232 260 l18 57 46 0 c104 0 206 65 254 161 19 38 35 56 67 72 80 41 99 130 42 198 l-25 29 -361 0 c-293 -1 -367 -4 -388 -15z"/>
</g>
<g id="layer105" fill="#ffd372" stroke="none">
<path d="M0 5400 l0 -5400 5400 0 5400 0 0 5400 0 5400 -5400 0 -5400 0 0 -5400z m7879 3625 c5 -6 14 -125 20 -265 21 -489 33 -695 41 -703 4 -5 58 -19 120 -32 61 -13 126 -32 143 -43 l32 -18 50 39 c28 22 76 52 109 68 124 59 190 46 231 -44 14 -29 29 -76 34 -103 16 -82 34 -342 28 -404 l-5 -57 57 -13 c96 -21 178 -49 191 -66 11 -12 10 -18 -4 -32 -14 -14 -42 -17 -164 -20 -82 -2 -158 1 -173 6 -22 9 -28 22 -48 109 -12 54 -29 150 -38 213 -8 63 -17 125 -19 137 l-4 23 -44 -22 -44 -21 16 -33 c10 -23 13 -39 6 -53 -5 -11 -114 -95 -243 -186 -187 -133 -236 -163 -243 -151 -22 38 -268 194 -288 181 -7 -4 -10 84 -10 270 0 275 0 276 23 299 13 13 29 25 36 27 9 3 10 18 3 64 -8 48 -3 125 24 385 19 178 34 325 34 326 0 1 -37 13 -82 27 -119 38 -155 69 -110 97 22 13 307 9 321 -5z m-4566 -286 l36 -79 296 0 c162 0 295 2 295 4 0 2 -13 33 -30 68 -16 34 -30 68 -30 74 0 23 30 23 44 1 8 -12 186 -392 397 -844 222 -477 387 -819 392 -814 5 5 8 254 8 566 -2 509 0 559 15 576 16 18 17 17 33 -13 29 -58 105 -58 138 0 l16 27 32 -32 c39 -39 92 -44 142 -13 36 21 47 52 41 105 -2 19 0 35 4 35 19 0 58 54 58 81 0 25 5 28 48 38 189 40 439 36 645 -10 40 -9 47 -14 47 -35 0 -25 40 -74 59 -74 7 0 7 -9 0 -27 -25 -66 29 -133 108 -133 39 0 50 5 79 36 19 19 34 29 34 21 0 -18 38 -53 68 -62 17 -5 27 -2 37 12 7 10 17 14 21 10 4 -4 14 3 21 15 11 19 13 -13 12 -202 l-1 -225 137 -3 c133 -2 140 -2 176 22 l38 25 32 -37 c33 -38 129 -180 129 -191 0 -3 -18 -19 -40 -34 -35 -25 -38 -30 -28 -52 7 -15 23 -27 47 -32 36 -9 36 -9 39 -65 l3 -57 -38 -11 c-21 -6 -72 -13 -114 -16 -65 -4 -77 -2 -93 15 -9 10 -18 33 -18 50 -1 25 -4 29 -18 21 -14 -8 -28 1 -68 44 -27 29 -62 76 -77 106 l-27 53 38 38 37 38 -44 11 c-24 6 -56 15 -71 20 -21 7 -30 4 -44 -11 -28 -31 -35 -22 -32 39 2 39 7 56 16 54 19 -3 14 16 -7 27 -26 14 -38 -3 -46 -64 -11 -82 21 -131 56 -88 12 14 15 11 21 -28 3 -24 7 -150 7 -280 1 -261 13 -363 62 -512 66 -202 169 -372 328 -542 263 -280 412 -565 478 -918 24 -130 24 -437 0 -567 -54 -285 -185 -550 -380 -770 -280 -315 -666 -501 -1131 -546 -56 -5 -68 -4 -64 7 3 10 33 16 99 21 411 31 828 239 1091 542 491 567 517 1385 63 2021 -35 50 -111 141 -169 203 -217 232 -335 468 -383 761 l-18 111 -66 14 c-115 27 -300 54 -447 67 -178 15 -592 6 -747 -15 -139 -20 -328 -55 -343 -64 -6 -4 -14 -23 -17 -42 -3 -19 -10 -51 -14 -71 -7 -32 9 -71 198 -478 l206 -444 7 49 c18 131 28 299 28 492 l0 212 25 0 25 0 0 -202 c0 -210 -11 -375 -35 -537 -12 -82 -12 -98 1 -122 18 -37 18 -38 -11 -49 -14 -5 -25 -17 -25 -27 0 -15 -49 -234 -75 -334 -6 -24 -4 -26 55 -37 139 -26 229 -96 278 -216 16 -39 37 -93 47 -121 33 -90 107 -135 171 -103 40 19 60 59 83 166 26 120 50 171 101 221 48 46 119 76 223 92 39 7 73 13 75 14 1 1 -25 75 -58 164 -101 269 -129 434 -137 803 -6 283 -2 328 27 328 18 0 19 -11 18 -237 0 -364 33 -595 116 -824 94 -258 86 -243 139 -251 103 -14 229 -69 315 -137 101 -80 192 -241 195 -346 2 -70 -20 -207 -45 -272 -40 -109 -127 -193 -206 -201 -68 -6 -123 21 -209 102 -73 69 -116 85 -127 49 -2 -10 -37 -148 -77 -308 l-73 -290 -128 -134 c-70 -74 -126 -136 -124 -138 4 -5 380 107 387 115 274 322 408 472 421 472 5 0 25 12 45 27 l36 28 124 -129 c68 -71 122 -134 120 -140 -6 -18 -53 -24 -83 -10 -16 8 -51 29 -77 49 l-48 34 -127 -167 c-70 -92 -160 -211 -200 -263 l-74 -96 -295 -142 c-163 -78 -298 -139 -301 -136 -4 3 -1 10 6 14 28 17 -122 63 -245 76 -91 9 -193 -2 -193 -20 0 -8 -4 -17 -10 -20 -6 -4 -10 44 -10 138 l0 144 268 220 267 221 59 133 c96 215 166 360 180 375 8 7 17 29 20 50 l7 36 53 -6 53 -7 -56 113 c-90 180 -132 339 -111 419 9 32 18 43 46 55 31 13 42 13 96 -1 34 -8 62 -14 63 -13 1 2 -4 18 -11 36 -12 27 -19 32 -47 32 -58 0 -150 -21 -198 -46 -86 -43 -118 -99 -154 -266 -26 -123 -76 -180 -159 -180 -53 0 -111 27 -138 63 -10 13 -34 67 -53 119 -46 123 -77 174 -128 211 -76 55 -217 78 -225 37 -3 -14 3 -18 27 -18 36 0 67 -27 77 -66 19 -75 -20 -231 -96 -389 -62 -127 -117 -211 -194 -293 -135 -144 -236 -166 -338 -74 -52 47 -82 95 -108 171 -22 67 -26 164 -9 208 6 15 15 62 19 104 4 46 16 95 30 125 29 60 126 157 203 203 78 46 208 89 294 97 l72 7 40 166 c63 263 66 287 41 344 l-21 47 -309 0 -310 0 9 -22 c5 -13 26 -59 46 -102 25 -56 33 -82 25 -90 -20 -20 -40 7 -96 129 -30 66 -65 142 -77 168 l-23 49 -63 -89 c-136 -191 -241 -400 -296 -591 -162 -563 -43 -1133 323 -1550 113 -129 302 -266 485 -352 106 -50 294 -115 366 -126 38 -6 59 -19 49 -30 -3 -2 -61 11 -129 30 -302 83 -523 210 -729 416 -220 220 -354 469 -422 786 -20 96 -23 136 -23 334 0 196 3 239 23 330 65 298 192 580 353 782 l57 72 -15 36 c-8 19 -17 40 -19 46 -3 6 6 14 20 16 21 4 27 0 36 -26 l11 -31 20 25 c11 14 31 38 45 54 l24 29 -20 34 c-20 34 -20 36 -3 49 29 22 55 27 63 13 5 -8 26 24 60 90 28 57 49 105 47 107 -2 3 -97 3 -210 2 l-206 -3 51 -112 51 -113 56 -1 c63 -1 43 -11 -44 -22 l-50 -7 -158 347 c-87 192 -161 353 -165 360 -4 7 -35 -86 -72 -215 -35 -125 -70 -248 -78 -274 l-14 -48 -62 0 c-77 0 -166 -23 -230 -58 l-48 -28 1 -133 2 -134 -52 42 c-30 23 -60 59 -70 80 -9 21 -42 65 -73 97 -31 32 -59 70 -63 82 -8 32 22 71 79 102 l46 25 -29 40 c-15 22 -28 44 -29 49 0 5 -14 60 -32 123 l-31 115 -114 -121 c-63 -67 -122 -121 -131 -121 -9 0 -28 -12 -44 -27 l-28 -26 -85 57 c-89 59 -165 122 -165 137 0 17 60 9 147 -21 63 -21 89 -26 92 -17 11 33 98 190 148 266 118 181 167 231 228 231 74 0 155 -88 239 -262 l63 -127 104 161 c112 173 134 210 154 267 13 37 12 39 -270 656 -275 601 -296 656 -250 639 7 -3 29 -41 48 -85z m5438 -1615 c25 -15 6 -43 -48 -70 -32 -16 -60 -30 -62 -31 -2 -2 2 -9 9 -18 17 -21 5 -45 -22 -45 -32 0 -146 33 -147 43 -1 4 -1 29 -1 56 l0 50 53 10 c99 20 191 22 218 5z m-1223 -206 c15 -19 18 -84 4 -100 -10 -12 -9 -23 3 -51 8 -20 15 -53 15 -73 l0 -36 33 32 c30 29 36 31 92 28 l60 -3 -2 48 c-1 38 2 47 15 47 10 0 42 12 72 26 l55 25 22 -26 c35 -40 30 -74 -18 -120 -57 -55 -71 -93 -63 -164 8 -76 -4 -86 -89 -77 -92 9 -131 -5 -174 -65 -43 -60 -101 -93 -148 -85 -65 12 -115 76 -115 144 0 23 -6 32 -29 41 -65 27 -128 126 -116 181 3 15 22 42 41 61 20 19 41 48 49 65 20 49 68 77 119 72 34 -4 48 0 72 18 32 26 85 32 102 12z m-4697 -260 c44 -24 46 -34 23 -101 -12 -37 -21 -47 -37 -47 -61 0 -197 99 -184 133 4 12 15 13 49 6 65 -12 75 -11 81 11 7 26 20 25 68 -2z m997 -8 c50 -36 91 -95 98 -141 6 -32 4 -35 -31 -48 -20 -7 -38 -11 -39 -9 -2 1 -19 46 -39 98 -19 52 -38 103 -42 113 -10 25 6 21 53 -13z m-452 -457 c93 -86 95 -87 142 -85 49 3 97 17 122 37 23 19 60 25 86 15 15 -6 34 -6 52 1 25 10 30 7 60 -27 50 -58 58 -97 42 -212 -9 -70 -10 -107 -2 -134 10 -35 9 -39 -18 -58 -137 -97 -353 -50 -424 92 -23 45 -25 59 -19 122 7 84 -5 116 -64 165 -73 62 -82 72 -88 101 -6 28 1 70 11 70 3 0 48 -39 100 -87z m-340 -1587 c29 -29 34 -41 34 -80 0 -36 -6 -52 -30 -80 -17 -18 -41 -37 -54 -40 -15 -4 -26 -16 -30 -32 -4 -14 -31 -50 -59 -79 -48 -48 -76 -63 -147 -79 -19 -4 -33 -22 -57 -73 -115 -247 -404 -301 -594 -111 -27 27 -51 43 -54 38 -10 -16 -77 -48 -116 -55 -52 -10 -114 11 -160 52 -41 37 -79 99 -79 128 0 8 -20 34 -44 58 -87 83 -84 194 9 276 l36 31 307 0 c298 0 308 1 320 20 7 11 27 29 45 40 30 19 51 20 336 20 l303 0 34 -34z m6102 -1017 c71 -69 47 -198 -42 -230 -24 -9 -39 -24 -54 -54 -47 -98 -128 -158 -237 -178 l-66 -12 -24 -59 c-60 -147 -173 -244 -324 -278 -112 -25 -247 22 -354 122 l-61 57 -48 -30 c-89 -55 -193 -52 -272 8 -39 30 -96 117 -96 148 0 10 -22 40 -49 67 -58 58 -75 101 -69 179 4 63 35 117 89 157 l33 24 358 0 357 0 16 29 c8 16 29 41 47 55 l33 26 366 0 365 0 32 -31z m-4141 -535 c37 -69 38 -74 19 -74 -20 0 -380 -307 -434 -370 -51 -59 -82 -66 -73 -17 1 5 -9 5 -21 1 -13 -5 -41 -9 -63 -9 -57 0 -58 25 -3 80 31 30 58 47 90 55 43 11 56 24 201 195 134 156 161 184 194 193 21 5 43 9 48 8 6 -1 24 -29 42 -62z m865 -56 c19 -17 51 -84 113 -240 66 -166 91 -218 104 -218 27 0 110 -59 126 -91 29 -55 -20 -67 -118 -30 -23 9 -26 8 -29 -17 -6 -51 -34 -38 -58 25 -12 32 -69 141 -126 243 -76 133 -119 197 -152 228 -43 40 -45 43 -19 38 17 -4 27 -2 27 5 0 6 16 27 36 46 28 26 34 37 25 46 -6 6 -11 15 -11 20 0 8 32 -13 82 -55z m-411 12 c13 -7 19 -21 19 -45 0 -29 4 -34 29 -40 45 -10 61 -43 60 -122 0 -37 -4 -77 -8 -88 -5 -12 -3 -30 5 -47 17 -33 17 -78 1 -99 -7 -9 -28 -26 -47 -38 -62 -38 -121 -25 -187 42 -23 23 -60 57 -82 75 -47 39 -58 76 -41 138 14 49 72 114 119 134 26 10 29 16 24 41 -4 22 -1 34 13 44 22 17 68 19 95 5z"/>
<path d="M4679 6949 l-26 -79 63 0 63 0 -35 77 c-19 42 -36 78 -37 79 -1 1 -14 -33 -28 -77z"/>
<path d="M4584 6715 c-49 -99 -50 -104 -28 -99 18 5 24 2 24 -10 0 -14 20 -16 165 -16 l164 0 -35 78 c-20 42 -44 94 -53 114 l-16 38 -85 0 -85 0 -51 -105z"/>
<path d="M4537 6534 c-3 -3 -21 -11 -40 -18 -23 -8 -49 -30 -75 -65 l-40 -53 26 -59 25 -59 309 0 c176 0 308 4 306 9 -1 5 -28 63 -58 130 l-55 121 -196 0 c-108 0 -198 -3 -202 -6z"/>
<path d="M6190 5646 c0 -3 7 -23 16 -44 13 -35 23 -42 82 -66 146 -57 297 -166 354 -255 41 -65 38 -19 -4 66 -60 120 -164 214 -294 267 -58 24 -154 44 -154 32z"/>
<path d="M4857 5604 c-139 -33 -312 -156 -363 -255 -34 -68 -30 -79 14 -37 93 90 228 167 387 223 90 32 90 32 100 63 6 20 3 22 -37 21 -24 0 -69 -7 -101 -15z"/>
<path d="M2364 4602 c-12 -10 -26 -28 -33 -40 -12 -22 -12 -22 -321 -22 l-308 0 -33 -27 c-44 -38 -73 -105 -64 -152 9 -48 40 -97 75 -117 20 -12 30 -28 34 -53 8 -51 39 -96 85 -126 70 -47 146 -44 224 10 l35 23 38 -40 c86 -87 208 -137 307 -124 107 15 215 96 266 199 16 34 32 70 35 80 4 11 15 17 33 17 39 0 122 42 155 76 15 16 34 46 43 66 10 26 26 42 49 52 45 19 66 52 66 102 0 30 -7 48 -25 68 l-24 26 -308 0 c-279 -1 -310 -2 -329 -18z"/>
<path d="M8358 3585 c-14 -8 -34 -33 -45 -55 l-18 -39 -369 -1 -370 0 -42 -46 c-50 -53 -67 -111 -52 -177 10 -48 49 -104 83 -119 16 -7 27 -27 39 -69 29 -105 109 -168 214 -169 56 0 127 27 157 60 16 18 19 17 74 -39 166 -170 392 -183 555 -31 64 60 105 124 126 196 l12 41 65 6 c111 11 209 84 245 182 9 25 22 37 53 49 80 31 105 137 46 197 l-29 29 -359 0 c-293 -1 -363 -3 -385 -15z"/>
</g>
<g id="layer106" fill="#ffffff" stroke="none">
<path d="M0 5400 l0 -5400 5400 0 5400 0 0 5400 0 5400 -5400 0 -5400 0 0 -5400z m7879 3625 c5 -6 14 -125 20 -265 21 -489 33 -695 41 -703 4 -5 58 -19 120 -32 61 -13 126 -32 143 -43 l32 -18 50 39 c28 22 76 52 109 68 124 59 190 46 231 -44 14 -29 29 -76 34 -103 16 -82 34 -342 28 -404 l-5 -57 57 -13 c96 -21 178 -49 191 -66 11 -12 10 -18 -4 -32 -14 -14 -42 -17 -164 -20 -82 -2 -158 1 -173 6 -22 9 -28 22 -48 109 -12 54 -29 150 -38 213 -8 63 -17 125 -19 137 l-4 23 -45 -22 -44 -21 15 -30 c9 -16 13 -39 10 -51 -3 -13 -92 -83 -251 -195 l-246 -174 -39 -81 c-22 -45 -42 -104 -46 -133 l-7 -53 58 20 c145 50 314 68 470 49 133 -15 137 -15 250 -1 102 14 148 6 153 -25 2 -16 -10 -26 -55 -49 -32 -16 -60 -30 -62 -31 -2 -2 2 -9 9 -18 17 -21 5 -45 -22 -45 -13 0 -55 9 -93 20 -58 17 -100 20 -246 20 l-176 0 -109 -65 c-60 -36 -113 -66 -119 -68 -5 -2 1 -16 13 -32 34 -42 29 -75 -19 -120 -57 -55 -71 -93 -63 -164 8 -76 -4 -86 -89 -77 -92 9 -131 -5 -174 -65 -43 -60 -101 -93 -148 -85 -65 12 -115 76 -115 144 0 23 -6 32 -29 41 -65 27 -128 126 -116 181 3 15 22 42 41 61 20 19 41 48 49 65 20 49 68 77 120 71 35 -3 48 0 61 14 16 18 15 21 -19 58 -48 53 -57 74 -106 229 l-42 133 -73 35 c-40 19 -110 42 -154 52 -71 14 -88 15 -144 3 -35 -8 -93 -16 -129 -18 -75 -4 -100 12 -101 66 -1 25 -4 29 -18 21 -14 -8 -28 1 -68 44 -27 29 -62 76 -77 106 l-27 53 38 38 37 38 -44 11 c-24 6 -56 15 -71 20 -21 7 -30 4 -44 -11 -28 -31 -35 -22 -32 39 2 39 7 56 16 54 19 -3 14 16 -7 27 -26 14 -38 -3 -46 -64 -11 -82 21 -131 56 -88 12 14 15 11 21 -28 3 -24 7 -142 7 -261 l1 -217 31 -78 c85 -217 191 -368 377 -540 207 -191 275 -264 345 -370 202 -303 313 -743 279 -1110 -28 -304 -109 -528 -278 -764 -117 -165 -350 -370 -604 -535 -220 -141 -493 -231 -791 -260 l-66 -6 -7 -57 c-3 -31 -9 -119 -12 -196 l-6 -140 78 -75 c44 -42 95 -89 116 -105 32 -26 47 -57 123 -247 66 -166 91 -218 104 -218 27 0 110 -59 126 -91 29 -55 -20 -67 -118 -30 -23 9 -26 8 -29 -17 -6 -51 -34 -38 -58 25 -38 102 -237 439 -278 471 -29 23 -214 92 -246 92 -3 0 -6 -13 -6 -29 0 -24 5 -31 29 -36 45 -10 61 -43 60 -122 0 -37 -4 -77 -8 -88 -5 -12 -3 -30 5 -47 17 -33 17 -78 1 -99 -7 -9 -28 -26 -47 -38 -62 -38 -121 -25 -187 42 -23 23 -60 57 -82 75 -47 39 -58 76 -41 138 14 50 72 114 120 134 20 8 29 18 26 27 -4 8 -6 21 -6 29 0 11 -26 14 -143 14 -78 0 -156 -4 -174 -9 -38 -11 -368 -288 -436 -366 -56 -64 -87 -72 -78 -22 1 5 -9 5 -21 1 -13 -5 -41 -9 -63 -9 -57 0 -58 25 -3 80 31 30 58 47 90 55 43 11 56 24 200 193 155 182 155 182 219 203 51 17 247 99 256 108 4 3 23 390 19 393 -1 2 -59 18 -127 37 -302 83 -523 210 -729 416 -220 220 -354 469 -422 786 -20 96 -23 136 -23 334 0 196 3 239 23 330 65 298 192 580 353 782 l57 72 -14 36 c-8 19 -19 39 -23 43 -5 5 -47 -3 -93 -16 -82 -24 -92 -30 -218 -137 -73 -61 -144 -116 -157 -121 l-23 -9 34 -45 c45 -58 51 -95 36 -208 -9 -66 -10 -102 -2 -129 10 -36 9 -39 -18 -58 -137 -97 -353 -50 -424 92 -22 45 -25 59 -20 127 6 69 4 79 -18 111 -13 19 -42 48 -65 65 -51 37 -77 85 -69 129 10 55 -44 96 -240 182 -93 41 -182 74 -199 74 -43 0 -124 41 -164 83 -45 48 -38 68 21 56 63 -12 78 -11 78 6 0 29 29 27 84 -4 31 -18 128 -53 225 -81 132 -37 180 -56 211 -80 26 -21 40 -27 40 -18 0 22 -54 98 -99 141 -23 21 -44 50 -47 64 -9 33 20 71 78 103 l46 25 -29 40 c-15 22 -28 44 -29 49 0 5 -14 60 -32 123 l-31 115 -114 -121 c-63 -67 -122 -121 -131 -121 -9 0 -28 -12 -44 -27 l-28 -26 -85 57 c-89 59 -165 122 -165 137 0 17 60 9 147 -21 63 -21 89 -26 92 -17 11 33 98 190 148 266 118 181 167 231 228 231 74 0 155 -88 239 -262 l63 -127 104 161 c112 173 134 210 154 267 13 37 12 39 -270 656 -275 601 -296 656 -250 639 7 -3 29 -41 48 -85 l36 -79 296 0 c162 0 295 2 295 4 0 2 -13 33 -30 68 -16 34 -30 68 -30 74 0 23 30 23 44 1 8 -12 186 -392 397 -844 211 -453 387 -819 391 -815 12 12 12 56 10 608 l-2 511 -55 -5 c-50 -4 -57 -2 -84 26 -19 18 -33 45 -37 68 -5 31 -13 42 -37 54 -58 28 -61 101 -6 142 24 18 50 20 333 25 l306 6 34 -36 34 -36 83 16 c161 30 472 19 627 -23 15 -5 22 -2 22 8 0 9 12 27 26 42 l27 26 216 -1 c119 -1 263 -4 319 -8 93 -5 106 -8 123 -30 43 -53 29 -108 -34 -139 -19 -9 -27 -21 -27 -38 0 -91 -108 -138 -179 -78 l-31 26 -1 -221 c-1 -122 -2 -227 -3 -233 -1 -10 34 -14 138 -16 134 -2 141 -2 177 22 l38 25 32 -37 c33 -38 129 -180 129 -191 0 -3 -18 -19 -40 -34 -35 -25 -38 -30 -28 -52 14 -30 43 -37 149 -36 101 2 209 -18 285 -53 58 -27 152 -109 185 -163 11 -18 24 -33 27 -33 13 0 90 124 126 202 l36 76 0 256 c0 255 0 257 23 280 13 13 29 25 36 27 9 3 10 18 3 64 -8 48 -3 125 24 385 19 178 34 325 34 326 0 1 -37 13 -82 27 -119 38 -155 69 -110 97 22 13 307 9 321 -5z m1205 -446 c37 -43 34 -84 -7 -123 -29 -27 -33 -36 -29 -70 8 -69 -38 -116 -114 -116 -28 0 -44 8 -70 34 -34 34 -34 34 -46 13 -22 -42 -71 -60 -110 -40 -16 7 -28 17 -28 21 0 4 -4 13 -9 20 -6 11 -15 9 -42 -7 -60 -37 -126 -23 -159 31 -11 18 -20 45 -20 61 0 18 -5 27 -15 27 -9 0 -27 11 -40 25 -47 46 -24 125 40 144 17 5 163 10 327 10 l296 1 26 -31z m-6389 -11 c27 -12 55 -54 55 -82 0 -27 -22 -64 -45 -76 -21 -11 -23 -18 -18 -59 6 -58 -20 -96 -77 -111 -47 -13 -102 6 -120 39 -11 21 -12 21 -44 -14 -44 -46 -78 -46 -120 -2 l-31 33 -35 -24 c-27 -18 -43 -22 -70 -18 -46 7 -100 64 -100 106 0 20 -6 33 -17 37 -63 22 -82 90 -39 140 l24 28 174 5 c333 11 436 10 463 -2z m380 -3861 c38 -32 46 -107 16 -147 -11 -16 -21 -40 -21 -54 0 -31 -51 -92 -84 -100 -15 -4 -26 -16 -30 -32 -4 -14 -31 -50 -59 -79 -48 -48 -76 -63 -147 -79 -19 -4 -33 -22 -57 -73 -115 -247 -404 -301 -594 -111 -27 27 -51 43 -54 38 -10 -16 -77 -48 -116 -55 -52 -10 -114 11 -160 52 -41 37 -79 99 -79 128 0 8 -20 34 -44 58 -70 67 -82 152 -33 228 12 18 34 54 48 79 14 25 41 55 59 68 32 22 38 22 335 22 l303 0 40 40 40 40 305 0 c304 0 306 0 332 -23z m6093 -1013 c51 -35 68 -123 34 -179 -10 -16 -23 -49 -30 -72 -13 -43 -48 -79 -87 -89 -13 -3 -30 -23 -43 -49 -47 -98 -127 -158 -237 -178 l-66 -12 -24 -59 c-60 -147 -173 -244 -324 -278 -112 -25 -247 22 -354 122 l-61 57 -48 -30 c-89 -55 -193 -52 -272 8 -39 30 -96 117 -96 148 0 10 -22 40 -49 67 -58 58 -75 102 -69 179 5 62 53 153 119 223 l37 38 368 0 369 1 18 39 c10 21 32 48 50 59 31 20 46 21 387 21 306 0 359 -2 378 -16z"/>
<path d="M3385 8589 c4 -11 26 -63 51 -115 l43 -94 296 0 c293 0 296 0 290 20 -4 11 -27 63 -51 115 l-45 95 -295 0 c-294 0 -295 0 -289 -21z"/>
<path d="M3559 8203 l58 -128 301 -3 302 -2 -9 22 c-5 13 -32 71 -60 131 l-51 107 -299 0 -300 0 58 -127z"/>
<path d="M5320 8184 c-117 -9 -385 -46 -394 -55 -22 -21 12 -21 156 1 282 42 686 39 995 -7 103 -15 137 -14 120 3 -8 9 -80 21 -222 40 -116 15 -538 26 -655 18z"/>
<path d="M3650 8012 c0 -5 22 -57 50 -118 l50 -109 66 0 66 0 37 100 c21 55 41 108 46 118 7 16 -4 17 -154 17 -89 0 -161 -4 -161 -8z"/>
<path d="M4230 8010 c-13 -8 -12 -10 3 -10 9 0 17 5 17 10 0 12 -1 12 -20 0z"/>
<path d="M4088 7893 c-10 -38 -20 -78 -24 -90 l-6 -23 147 0 146 0 -7 23 c-3 12 -22 52 -40 90 l-34 67 -83 0 -83 0 -16 -67z"/>
<path d="M5275 7918 c-176 -14 -338 -41 -343 -57 -5 -15 -8 -15 203 16 55 8 210 17 345 20 251 6 397 -2 607 -34 104 -15 137 -14 120 4 -10 10 -233 41 -376 53 -145 12 -399 11 -556 -2z"/>
<path d="M3780 7726 c0 -2 9 -26 21 -53 l21 -48 19 50 c10 28 19 51 19 53 0 1 -18 2 -40 2 -22 0 -40 -2 -40 -4z"/>
<path d="M4016 7623 c-15 -60 -30 -118 -33 -130 l-5 -23 261 0 260 0 -35 78 c-20 42 -47 101 -60 130 l-24 52 -167 0 -168 0 -29 -107z"/>
<path d="M5315 7660 c-149 -13 -351 -41 -366 -51 -32 -20 10 -22 119 -6 229 33 352 40 597 34 132 -3 287 -13 345 -21 187 -27 210 -29 210 -18 0 15 -18 19 -195 42 -182 24 -549 34 -710 20z"/>
<path d="M6732 7548 c-68 -44 -80 -65 -62 -109 10 -23 19 -29 43 -29 24 0 28 3 19 12 -20 20 -14 33 23 51 29 14 35 22 35 47 0 16 5 30 10 30 12 0 13 27 2 34 -5 3 -36 -13 -70 -36z"/>
<path d="M3956 7404 c-12 -31 -5 -62 29 -138 l36 -76 304 0 305 0 -24 53 c-13 28 -36 79 -52 112 l-29 60 -282 3 c-249 2 -281 1 -287 -14z"/>
<path d="M3850 7013 c-41 -146 -80 -271 -86 -277 -18 -19 -2 -44 48 -75 55 -35 105 -99 114 -147 3 -19 7 -34 8 -34 2 0 34 11 72 24 38 13 105 30 149 36 44 7 84 16 88 20 7 6 -238 563 -302 687 l-16 33 -75 -267z"/>
<path d="M4812 7266 c-29 -8 -54 -15 -57 -17 -2 -3 -7 -20 -10 -39 -3 -19 -10 -51 -14 -70 -7 -30 -2 -49 29 -115 l36 -80 17 42 c17 44 53 177 66 249 9 49 12 49 -67 30z"/>
<path d="M4054 7123 c4 -10 30 -71 59 -135 l52 -117 237 -1 c261 0 237 -5 255 55 37 127 38 131 18 174 l-18 41 -305 0 c-285 0 -304 -1 -298 -17z"/>
<path d="M4679 6950 l-26 -80 58 0 c41 0 59 4 59 13 -1 6 -15 43 -33 80 l-32 68 -26 -81z"/>
<path d="M7536 6822 c-15 -17 -15 -22 -1 -55 8 -20 15 -53 15 -73 l0 -36 33 32 c31 30 35 32 90 26 66 -7 74 1 63 59 -7 34 -8 35 -54 35 -26 1 -65 7 -87 15 -22 8 -40 15 -41 15 0 0 -8 -8 -18 -18z"/>
<path d="M4204 6788 c7 -18 31 -70 51 -115 l38 -83 59 0 c43 0 70 6 99 23 33 18 41 20 48 8 7 -10 23 13 60 87 28 56 51 104 51 107 0 3 -95 5 -210 5 l-210 0 14 -32z"/>
<path d="M4584 6715 c-49 -99 -50 -104 -28 -99 18 5 24 2 24 -10 0 -36 28 -12 77 67 28 45 58 97 67 115 l17 32 -53 0 -53 0 -51 -105z"/>
<path d="M4537 6534 c-3 -3 -21 -11 -40 -18 -23 -8 -49 -30 -75 -65 -35 -47 -39 -57 -30 -77 6 -13 14 -24 17 -23 5 0 97 113 140 170 12 17 3 28 -12 13z"/>
<path d="M4380 6489 c-33 -13 -32 -12 -20 -45 l11 -29 29 35 c42 51 37 61 -20 39z"/>
<path d="M4281 6274 c-136 -192 -241 -401 -296 -592 -162 -563 -43 -1133 323 -1550 188 -214 520 -403 839 -476 l61 -14 5 24 c2 13 2 46 -1 73 -4 46 -7 51 -34 56 -16 4 -72 24 -125 46 -381 155 -656 409 -822 759 -105 222 -140 375 -148 637 -7 214 5 322 52 508 47 184 96 299 216 512 22 39 23 43 8 73 l-15 32 -63 -88z"/>
<path d="M6498 3855 c-48 -26 -187 -74 -286 -99 -117 -29 -210 -43 -357 -52 -132 -8 -165 -21 -165 -66 l0 -31 94 6 c121 8 274 40 400 84 103 36 284 121 327 154 29 22 24 24 -13 4z"/>
<path d="M3029 4513 c-18 -4 -64 -93 -48 -93 19 0 69 58 69 79 0 12 -1 20 -2 20 -2 -1 -10 -3 -19 -6z"/>
<path d="M1615 4438 c-27 -69 2 -157 65 -194 20 -12 30 -28 34 -53 8 -51 39 -96 85 -126 70 -47 146 -44 224 10 l35 23 38 -40 c86 -87 208 -137 307 -124 97 13 208 90 256 178 l25 43 -48 -43 c-142 -130 -340 -117 -488 31 l-42 43 -42 -29 c-49 -34 -122 -46 -177 -28 -53 18 -113 81 -130 138 -9 31 -29 63 -55 88 -24 25 -44 57 -51 83 -7 23 -13 42 -15 42 -2 0 -11 -19 -21 -42z"/>
<path d="M2906 4365 c-29 -23 -88 -45 -122 -45 -14 0 -24 -13 -35 -45 -15 -42 -15 -45 0 -45 52 1 149 68 178 123 19 38 14 40 -21 12z"/>
<path d="M9129 3458 c-23 -8 -67 -74 -56 -85 11 -10 57 23 73 53 21 39 18 44 -17 32z"/>
<path d="M7482 3407 c-20 -24 -30 -95 -20 -139 10 -49 49 -105 83 -120 16 -7 27 -27 39 -69 29 -105 109 -168 214 -169 56 0 127 27 157 60 16 18 19 17 74 -39 166 -170 393 -183 554 -31 34 32 71 73 81 92 20 33 20 33 -30 -11 -27 -24 -74 -56 -104 -70 -47 -22 -68 -26 -150 -26 -89 0 -100 3 -173 38 -51 25 -96 57 -130 92 l-53 53 -31 -24 c-73 -57 -159 -67 -239 -30 -64 30 -111 86 -131 157 -12 42 -23 60 -44 73 -37 22 -78 92 -81 139 -3 42 -2 41 -16 24z"/>
<path d="M9000 3299 c-47 -37 -100 -59 -159 -66 l-60 -6 -15 -45 -16 -45 53 7 c90 12 172 71 216 154 14 27 13 27 -19 1z"/>
</g>


</svg>