<!DOCTYPE svg PUBLIC "-//W3C//DTD SVG 20010904//EN" "http://www.w3.org/TR/2001/REC-SVG-20010904/DTD/svg10.dtd">
<svg version="1.0" xmlns="http://www.w3.org/2000/svg" width="1080px" height="1080px" viewBox="0 0 10800 10800" preserveAspectRatio="xMidYMid meet">
<g id="layer101" fill="#191918" stroke="none">
 <path d="M7380 8675 c7 -9 53 -28 102 -42 l89 -27 -5 -30 c-2 -17 -5 -31 -6 -31 -2 0 -4 -9 -5 -20 -1 -12 -10 -56 -19 -99 -10 -43 -16 -79 -14 -82 3 -2 12 31 22 74 10 42 20 84 23 92 3 8 7 22 8 30 7 54 14 60 76 60 58 0 59 -1 60 -27 0 -16 1 -84 1 -153 l0 -125 9 155 c5 97 4 159 -1 164 -6 6 -10 20 -10 33 0 12 -9 27 -19 33 -11 5 -86 10 -172 10 -135 0 -150 -2 -139 -15z"/>
 <path d="M8120 8611 c0 -16 9 -58 20 -93 l19 -63 -24 -22 c-13 -13 -28 -23 -34 -23 -5 0 -11 -4 -13 -10 -1 -5 -68 -57 -147 -115 -137 -99 -147 -109 -185 -178 l-41 -72 -6 45 c-3 25 -6 -13 -6 -85 0 -105 1 -116 6 -55 5 64 13 87 50 155 43 79 48 83 183 180 77 55 144 105 151 110 7 6 25 19 41 29 l30 19 33 -39 c18 -21 33 -42 33 -46 0 -4 -81 -83 -180 -175 -170 -159 -180 -170 -180 -205 0 -20 3 -39 8 -41 4 -3 72 -7 152 -8 l145 -3 -3 -480 -2 -480 -35 34 c-19 19 -72 57 -118 85 -126 78 -133 115 -41 215 70 75 73 111 14 169 -29 28 -40 47 -40 69 0 17 -3 37 -6 46 -11 30 -20 16 -16 -26 4 -37 3 -40 -14 -33 -11 4 -45 10 -77 13 l-59 5 6 32 c5 24 1 44 -15 72 -12 21 -25 52 -30 68 -6 25 -7 26 -8 7 -1 -12 8 -41 20 -64 26 -51 21 -114 -11 -138 -11 -8 -32 -49 -46 -90 -30 -85 -70 -149 -114 -180 l-29 -21 -6 38 c-4 21 -7 44 -8 52 -1 8 -8 16 -14 18 -9 3 -10 -3 -4 -24 28 -88 29 -86 -69 -131 -96 -44 -114 -67 -90 -113 12 -22 12 -22 -41 -15 -30 4 -75 10 -101 12 -26 2 -104 13 -175 25 -153 25 -313 36 -322 21 -4 -6 -64 -1 -171 14 -91 14 -172 23 -180 21 -19 -3 294 -48 369 -53 38 -2 50 0 36 6 -25 11 60 13 118 3 36 -5 39 -8 35 -34 -3 -16 -1 -29 4 -29 4 0 8 11 8 25 0 31 -5 31 195 -1 88 -14 180 -28 205 -31 34 -5 66 -22 135 -73 117 -87 145 -119 145 -172 0 -34 -6 -46 -36 -74 -19 -19 -40 -34 -45 -34 -5 0 -70 59 -144 131 -74 73 -135 129 -135 126 0 -3 -19 0 -42 9 -22 8 -43 12 -46 10 -2 -3 16 -10 40 -18 34 -10 70 -39 173 -140 l130 -128 -32 -28 c-44 -39 -49 -63 -18 -100 14 -17 34 -33 43 -36 14 -5 17 -16 16 -53 -1 -45 19 -201 30 -230 4 -9 30 -13 85 -13 102 0 180 27 213 73 21 30 23 42 23 177 l0 145 51 -2 c149 -5 294 -160 297 -318 0 -27 3 -40 5 -27 2 14 10 22 23 22 20 0 21 -5 21 -75 -1 -37 0 -38 6 -10 6 26 12 14 39 -85 17 -63 39 -158 48 -210 50 -297 146 -580 225 -659 35 -34 66 -39 109 -16 31 15 111 101 111 118 0 5 -13 -8 -29 -30 -55 -76 -113 -106 -157 -82 -77 41 -170 290 -240 638 -19 96 -50 228 -69 295 -19 66 -36 130 -36 141 -1 17 -2 18 -6 2 -9 -35 -36 -13 -48 38 -17 73 -47 125 -104 178 -53 50 -120 85 -175 94 -17 3 -37 8 -45 12 -19 11 31 48 83 61 22 5 61 16 86 24 l45 15 37 -36 c20 -20 35 -40 32 -45 -3 -4 0 -8 5 -8 6 0 11 -7 11 -15 0 -8 4 -15 9 -15 14 0 53 -126 60 -193 1 -5 6 -5 11 -2 6 4 7 23 4 45 -7 45 3 133 15 125 5 -2 11 -23 15 -45 3 -22 11 -40 16 -40 11 0 13 13 3 23 -3 4 -8 19 -9 33 -4 41 -13 56 -26 48 -8 -5 -9 -2 -4 12 9 22 9 22 7 52 0 13 -5 21 -9 18 -5 -3 -7 -18 -4 -34 2 -16 -1 -33 -7 -36 -6 -4 -11 -26 -12 -49 l-1 -42 -20 45 c-11 25 -26 48 -32 52 -6 4 -7 8 -3 8 5 0 2 7 -5 15 -14 15 -21 24 -55 68 l-21 28 24 42 c13 23 24 53 24 66 0 20 4 23 34 19 30 -3 34 -1 34 22 0 14 -3 29 -6 34 -3 5 -7 27 -9 49 -4 44 -10 60 -22 52 -5 -2 -1 -34 9 -70 18 -66 15 -80 -14 -69 -13 5 -16 24 -16 111 0 76 3 102 12 97 8 -5 9 0 3 17 -5 13 -10 157 -12 319 l-3 295 25 -54 c14 -29 25 -58 25 -64 0 -6 3 -8 6 -4 3 3 -6 35 -20 71 -29 73 -32 112 -12 160 17 41 24 46 84 56 l47 8 -43 1 c-36 1 -49 -4 -73 -28 -16 -16 -30 -38 -31 -48 -1 -10 -4 11 -7 47 l-6 65 -152 3 -153 3 0 37 c0 35 8 45 175 197 97 88 191 180 210 204 l34 43 -70 104 c-39 58 -80 109 -90 115 -17 8 -19 6 -19 -20z m-522 -2178 c17 -13 32 -32 32 -43 0 -17 -52 -70 -70 -70 -12 0 -20 39 -20 98 0 58 0 58 58 15z"/>
 <path d="M4533 8613 l1047 -3 0 -280 0 -280 -1047 -2 c-577 -1 -970 -4 -875 -5 l172 -3 0 -55 0 -55 -279 0 c-214 0 -281 3 -284 13 -3 7 -6 5 -6 -5 -1 -17 19 -18 284 -18 l285 0 0 -50 0 -50 1053 2 1052 3 -1047 2 -1048 3 0 105 0 105 875 0 875 0 0 290 0 290 -1052 -2 -1053 -3 1048 -2z"/>
 <path d="M3128 8581 c-59 -4 -109 -9 -111 -11 -22 -28 -35 -160 -16 -160 5 0 9 8 8 18 -5 50 -2 52 61 52 l59 0 16 -57 c27 -96 28 -91 9 32 l-6 40 91 29 c82 25 110 40 99 51 -9 9 -113 12 -210 6z"/>
 <path d="M2542 8483 c-16 -21 -51 -71 -77 -111 l-48 -72 27 -29 c16 -16 28 -33 28 -38 0 -4 43 -47 97 -94 53 -48 125 -114 161 -147 l65 -61 -152 -1 c-95 0 -153 -4 -153 -10 0 -5 -15 -10 -34 -10 -19 0 -49 -11 -71 -26 -32 -22 -42 -24 -63 -15 -19 9 -16 4 12 -22 20 -19 36 -39 36 -44 0 -5 -57 -20 -127 -34 -71 -13 -121 -25 -113 -27 9 -1 46 4 83 12 57 12 67 12 63 0 -13 -34 -148 -224 -159 -224 -18 0 -84 -91 -115 -159 -22 -46 -27 -72 -29 -146 -1 -49 1 -80 3 -69 3 13 21 29 45 39 21 10 37 20 35 22 -2 3 -18 -3 -35 -11 -16 -9 -33 -16 -37 -16 -4 0 -4 29 -1 66 6 85 51 177 114 235 26 23 81 95 124 159 77 117 90 130 135 130 27 0 32 -27 13 -77 -8 -21 -8 -25 2 -16 20 20 24 100 5 127 -9 14 -16 30 -16 36 0 17 63 50 97 50 l31 0 1 -297 2 -298 -58 58 c-59 58 -73 66 -73 45 0 -6 3 -8 7 -4 4 3 33 -19 65 -51 l58 -57 0 -119 c0 -72 -6 -145 -16 -188 l-16 -71 -86 84 c-48 46 -90 90 -93 97 -4 11 -8 8 -12 -10 -9 -31 -8 -49 1 -26 6 14 23 1 96 -72 l88 -89 -26 -141 c-14 -77 -31 -205 -37 -283 -11 -131 -28 -208 -47 -208 -4 0 -59 51 -121 114 l-114 115 22 76 c12 43 20 79 18 81 -2 2 -18 -46 -36 -107 -18 -61 -30 -113 -27 -116 2 -2 7 10 11 27 l7 32 75 -73 c41 -41 93 -96 115 -122 l41 -48 -39 -40 c-55 -56 -150 -101 -232 -109 -37 -4 -57 -8 -44 -9 14 -1 22 -7 22 -19 0 -10 -27 -126 -60 -258 -33 -131 -60 -256 -60 -276 0 -53 19 -136 42 -183 52 -103 161 -168 199 -117 11 14 11 15 -1 5 -53 -47 -156 29 -201 148 -34 90 -35 160 -4 279 15 58 44 174 64 259 l37 155 50 11 c113 25 224 108 264 196 10 24 20 36 22 28 3 -8 3 -2 1 13 -12 73 48 507 86 633 6 20 9 -55 9 -225 0 -243 -1 -258 -24 -326 -13 -40 -24 -83 -23 -96 0 -13 9 10 19 50 22 83 56 149 105 205 l33 38 49 -15 c26 -9 67 -21 90 -27 24 -5 55 -20 70 -33 l28 -24 -45 -11 c-77 -20 -127 -41 -169 -72 -43 -30 -105 -116 -115 -159 -4 -14 5 -1 20 29 51 103 148 172 261 187 50 6 52 5 59 -20 3 -14 2 -65 -3 -113 -4 -49 -6 -105 -2 -125 14 -89 80 -129 225 -136 103 -5 100 -7 109 74 2 21 7 57 9 79 l6 40 -12 -35 c-6 -19 -13 -37 -14 -38 -7 -10 -66 36 -71 56 -6 26 6 44 53 71 l34 20 1 -27 c0 -24 1 -24 8 -7 5 11 6 26 3 33 -2 7 14 29 37 48 52 45 53 71 4 114 l-36 32 51 50 c69 67 66 73 -4 9 -30 -28 -59 -51 -63 -51 -4 0 -24 16 -44 35 -29 28 -37 44 -37 71 0 51 28 84 139 168 82 63 105 75 147 79 27 3 135 20 239 38 105 17 229 32 277 33 49 0 88 5 88 10 0 14 -163 0 -374 -33 -110 -17 -215 -31 -233 -31 -31 0 -32 1 -21 25 18 39 -15 74 -103 111 -65 26 -74 33 -72 55 5 72 7 85 16 97 6 8 6 12 -1 12 -12 0 -22 -24 -23 -58 0 -15 -4 -35 -8 -46 -7 -17 -10 -16 -44 14 -45 39 -78 95 -102 170 -10 30 -31 70 -47 89 -25 28 -29 40 -25 70 8 55 13 72 23 79 8 6 11 14 15 40 1 4 1 16 0 27 -1 16 -3 17 -10 6 -5 -8 -7 -20 -4 -28 3 -7 -3 -25 -13 -41 -23 -34 -27 -48 -27 -93 -1 -37 -1 -37 -52 -42 -27 -3 -62 -9 -77 -13 -23 -5 -26 -4 -21 15 3 12 1 21 -6 21 -6 0 -11 -13 -11 -29 0 -21 -8 -36 -29 -50 -16 -11 -36 -36 -45 -56 -15 -32 -16 -38 -1 -68 8 -18 35 -51 59 -75 81 -78 68 -125 -56 -201 -141 -85 -181 -146 -158 -241 7 -27 21 -61 32 -75 20 -26 20 -26 1 -48 -25 -28 -40 -47 -57 -71 -11 -16 -13 98 -15 687 l-2 707 158 0 158 0 -60 58 c-33 31 -106 100 -163 154 -56 53 -102 100 -102 105 0 4 15 25 33 46 l32 38 135 -97 c74 -53 154 -111 178 -128 30 -21 59 -57 90 -111 38 -67 47 -91 52 -150 l7 -70 1 95 c1 53 -2 89 -7 82 -10 -16 -19 -6 -54 63 -30 59 -37 66 -187 175 -63 46 -119 90 -123 97 -4 7 -13 13 -18 13 -6 0 -17 7 -25 15 -8 8 -22 18 -30 23 -13 7 -13 17 5 82 12 41 21 83 21 92 0 29 -26 20 -58 -19z"/>
 <path d="M3676 8491 c-16 -6 -11 -16 46 -75 l64 -68 60 62 c32 34 60 65 62 70 7 18 -189 28 -232 11z"/>
 <path d="M3631 8466 c-15 -18 -11 -268 4 -273 6 -2 39 28 74 67 l63 71 -57 70 c-68 82 -69 83 -84 65z"/>
 <path d="M3861 8401 l-63 -71 63 -76 c61 -75 62 -76 75 -53 18 33 19 229 1 253 -12 16 -19 12 -76 -53z"/>
 <path d="M4087 8413 c-4 -3 -7 -10 -7 -15 0 -4 284 -8 630 -8 553 0 630 2 630 15 0 13 -76 15 -623 15 -343 0 -627 -3 -630 -7z"/>
 <path d="M3004 8225 c0 -77 2 -107 3 -67 2 40 2 103 0 140 -2 37 -3 4 -3 -73z"/>
 <path d="M4082 8333 c3 -17 39 -18 561 -21 552 -2 557 -2 557 18 0 20 -6 20 -561 20 -528 0 -560 -1 -557 -17z"/>
 <path d="M3171 8330 c0 -8 6 -37 13 -65 8 -27 15 -43 15 -35 0 8 -6 38 -13 65 -8 28 -15 43 -15 35z"/>
 <path d="M7501 8274 c-7 -30 -11 -57 -8 -60 2 -2 9 21 16 52 7 30 11 57 8 60 -2 2 -9 -21 -16 -52z"/>
 <path d="M3715 8244 l-66 -73 35 -6 c44 -9 212 -3 222 7 4 5 -23 39 -59 77 l-67 69 -65 -74z"/>
 <path d="M4085 8270 c-3 -5 -3 -14 0 -20 4 -6 225 -10 631 -10 617 0 624 0 624 20 0 20 -7 20 -624 20 -406 0 -627 -4 -631 -10z"/>
 <path d="M7476 8164 c-4 -20 -5 -38 -3 -40 3 -3 8 11 11 32 4 20 5 38 3 40 -3 3 -8 -11 -11 -32z"/>
 <path d="M3212 8155 c0 -11 4 -31 8 -45 6 -20 8 -21 8 -5 0 11 -4 31 -8 45 -6 20 -8 21 -8 5z"/>
 <path d="M7446 8034 c-4 -20 -5 -38 -3 -40 3 -3 8 11 11 32 4 20 5 38 3 40 -3 3 -8 -11 -11 -32z"/>
 <path d="M3242 8025 c0 -11 4 -31 8 -45 6 -20 8 -21 8 -5 0 11 -4 31 -8 45 -6 20 -8 21 -8 5z"/>
 <path d="M1670 7960 c78 -8 131 -25 180 -60 27 -19 32 -20 58 -6 27 14 30 13 52 -7 l24 -22 -18 22 c-18 22 -18 23 5 32 13 5 33 11 44 14 l20 5 -20 1 c-11 0 -46 -10 -79 -24 l-58 -24 -38 25 c-52 35 -123 54 -189 53 -54 -2 -54 -2 19 -9z"/>
 <path d="M1502 7933 c-39 -19 -112 -99 -112 -122 1 -9 7 -3 17 14 17 34 63 85 75 85 4 0 22 9 40 20 40 24 26 26 -20 3z"/>
 <path d="M2068 7943 c12 -2 30 -2 40 0 9 3 -1 5 -23 4 -22 0 -30 -2 -17 -4z"/>
 <path d="M2180 7925 c24 -8 46 -13 48 -11 5 5 -59 26 -77 25 -9 0 4 -7 29 -14z"/>
 <path d="M6675 7930 l-750 -5 753 -5 c597 -4 752 -2 752 8 0 6 -1 11 -2 10 -2 -2 -340 -5 -753 -8z"/>
 <path d="M2827 7910 c6 -8 13 -28 16 -45 l4 -30 2 31 c0 20 -6 37 -16 45 -16 12 -16 12 -6 -1z"/>
 <path d="M9253 7908 c15 -12 4 -26 -101 -131 l-118 -118 -155 26 c-208 35 -197 30 -162 68 l28 32 -35 -32 c-30 -28 -41 -32 -75 -28 l-40 5 35 -9 c19 -5 79 -17 133 -26 l97 -17 66 -95 c36 -52 63 -97 60 -100 -4 -4 -21 4 -39 17 -20 15 -27 17 -18 6 19 -22 85 -56 108 -55 17 0 17 1 1 7 -10 4 -49 53 -88 110 -78 112 -79 109 27 91 61 -11 64 -10 82 13 11 13 67 68 126 123 l107 99 32 -34 c17 -19 39 -46 49 -60 18 -25 18 -25 1 5 -23 41 -64 84 -96 101 -33 17 -48 18 -25 2z"/>
 <path d="M8799 7899 c23 -9 23 -10 5 -32 -18 -22 -18 -22 6 1 21 19 23 24 10 32 -8 5 -22 9 -30 9 -8 0 -4 -5 9 -10z"/>
 <path d="M8498 7874 c-27 -13 -48 -27 -48 -29 0 -5 99 42 109 51 13 11 -20 0 -61 -22z"/>
 <path d="M8365 7868 c50 -28 54 -36 34 -76 -11 -20 -19 -45 -19 -57 1 -33 35 -98 74 -138 34 -34 104 -78 123 -77 4 1 -12 12 -38 25 -57 30 -106 79 -130 130 -28 59 -25 85 9 86 23 2 24 2 5 6 -29 5 -29 13 -1 49 12 16 18 26 13 22 -4 -4 -21 4 -37 17 -16 14 -35 25 -41 25 -7 0 -3 -6 8 -12z"/>
 <path d="M1629 7779 c107 -111 112 -100 -54 -124 -60 -9 -122 -18 -136 -21 -23 -4 -36 6 -103 83 -42 48 -76 91 -76 95 0 4 21 9 48 11 l47 3 -51 2 c-103 4 -202 -77 -217 -178 -5 -31 -5 -32 5 -10 37 90 51 112 90 140 23 17 47 29 53 28 19 -5 165 -175 157 -183 -7 -7 86 2 121 11 9 3 17 3 17 0 0 -3 -23 -41 -51 -86 -42 -66 -55 -80 -77 -80 -14 0 -23 -3 -19 -6 3 -3 25 -3 48 1 25 4 37 10 29 15 -8 5 2 28 36 81 27 41 49 75 49 76 1 2 53 11 116 22 63 10 105 19 94 20 -11 0 -65 45 -120 99 l-100 97 94 -96z"/>
 <path d="M2029 7804 c28 -34 48 -64 44 -68 -3 -3 3 -6 15 -6 21 0 21 1 -7 28 -16 15 -46 45 -66 67 -21 22 -15 13 14 -21z"/>
 <path d="M8271 7850 c0 -8 4 -24 9 -35 5 -13 9 -14 9 -5 0 8 -4 24 -9 35 -5 13 -9 14 -9 5z"/>
 <path d="M7883 7785 c0 -38 2 -53 4 -32 2 20 2 52 0 70 -2 17 -4 1 -4 -38z"/>
 <path d="M7722 7770 c0 -19 2 -27 5 -17 2 9 2 25 0 35 -3 9 -5 1 -5 -18z"/>
 <path d="M9510 7789 c0 -18 -144 -177 -165 -182 -15 -3 -13 -5 8 -6 15 0 27 4 27 9 0 6 36 51 81 100 48 54 74 90 65 90 -9 0 -16 -5 -16 -11z"/>
 <path d="M8291 7780 c0 -8 4 -24 9 -35 5 -13 9 -14 9 -5 0 8 -4 24 -9 35 -5 13 -9 14 -9 5z"/>
 <path d="M9565 7778 c38 -21 78 -63 96 -103 10 -22 19 -34 19 -27 0 37 -91 142 -123 142 -6 0 -3 -6 8 -12z"/>
 <path d="M2833 7705 c0 -38 2 -53 4 -32 2 20 2 52 0 70 -2 17 -4 1 -4 -38z"/>
 <path d="M8460 7753 c8 -4 21 -13 28 -22 8 -9 10 -10 6 -2 -5 11 4 12 47 8 l54 -6 -60 14 c-63 15 -104 19 -75 8z"/>
 <path d="M1895 7705 c-36 -8 -49 -13 -32 -14 l27 -1 -69 -104 c-39 -58 -76 -106 -83 -109 -7 -2 -2 -2 12 0 24 4 123 63 107 63 -5 0 -22 -9 -39 -21 -16 -12 -32 -19 -35 -16 -3 3 24 48 59 99 62 89 67 94 114 105 66 15 14 14 -61 -2z"/>
 <path d="M2320 7632 c-19 -21 -46 -46 -60 -55 -14 -10 -18 -15 -10 -11 33 16 70 46 90 74 29 40 22 37 -20 -8z"/>
 <path d="M9095 7639 c22 -4 51 -8 65 -7 16 0 11 3 -15 9 -22 4 -51 8 -65 7 -16 0 -11 -3 15 -9z"/>
 <path d="M9205 7623 c17 -3 115 -138 115 -158 0 -3 -8 -5 -17 -6 -29 -2 28 -17 62 -17 l30 0 -27 7 c-19 4 -41 28 -78 84 -28 43 -48 82 -45 88 4 5 -9 8 -27 8 -19 -1 -24 -3 -13 -6z"/>
 <path d="M1091 7593 c-2 -39 78 -113 121 -113 7 0 -5 9 -28 19 -22 10 -51 31 -63 47 l-23 29 24 6 c22 7 22 7 1 8 -12 1 -24 7 -26 14 -3 6 -6 2 -6 -10z"/>
 <path d="M3261 7578 c1 -17 3 -18 6 -5 4 15 22 17 204 17 209 0 244 -6 268 -47 6 -10 11 -13 11 -7 0 6 -12 21 -26 35 -25 24 -28 24 -245 27 l-219 3 1 -23z"/>
 <path d="M3918 7584 c-32 -17 -59 -62 -57 -96 1 -20 2 -20 6 -3 10 48 28 77 54 90 23 12 87 15 339 15 333 0 360 -4 375 -51 4 -11 9 -18 12 -16 10 10 -18 47 -47 62 -43 22 -641 22 -682 -1z"/>
 <path d="M2812 7563 c-6 -2 -10 -9 -6 -14 3 -5 0 -9 -5 -9 -6 0 -10 -3 -10 -7 1 -5 0 -10 -1 -13 -1 -3 -3 -12 -5 -20 -2 -8 -6 -23 -10 -32 -4 -11 -3 -18 4 -18 6 0 12 5 12 10 2 11 5 25 9 38 1 4 2 10 1 15 0 4 4 7 10 7 5 0 7 5 4 10 -3 6 -2 10 3 10 5 0 9 7 9 15 0 8 -1 15 -1 14 -1 0 -7 -3 -14 -6z"/>
 <path d="M9649 7561 l24 -6 -27 -32 c-30 -35 -87 -61 -167 -74 l-54 -8 59 4 c73 5 155 43 179 84 23 38 22 41 -10 40 -27 -1 -27 -1 -4 -8z"/>
 <path d="M2396 7534 c-4 -14 -5 -28 -3 -31 3 -2 8 8 11 23 4 14 5 28 3 31 -3 2 -8 -8 -11 -23z"/>
 <path d="M8361 7540 c0 -8 4 -24 9 -35 5 -13 9 -14 9 -5 0 8 -4 24 -9 35 -5 13 -9 14 -9 5z"/>
 <path d="M8605 7519 l-20 -8 20 0 c11 -1 31 -7 45 -14 17 -8 54 -10 120 -6 l95 5 -100 2 c-66 1 -107 7 -120 16 -13 8 -27 10 -40 5z"/>
 <path d="M1968 7513 c23 -2 59 -2 80 0 20 2 1 4 -43 4 -44 0 -61 -2 -37 -4z"/>
 <path d="M2376 7464 c-4 -14 -5 -28 -3 -31 3 -2 8 8 11 23 4 14 5 28 3 31 -3 2 -8 -8 -11 -23z"/>
 <path d="M9216 7482 c-2 -4 3 -8 12 -8 9 -1 26 -4 37 -8 13 -5 11 -2 -5 8 -29 18 -37 19 -44 8z"/>
 <path d="M1293 7463 c9 -2 25 -2 35 0 9 3 1 5 -18 5 -19 0 -27 -2 -17 -5z"/>
 <path d="M3870 7453 c0 -17 51 -63 69 -62 11 0 10 3 -5 9 -12 4 -31 21 -43 36 -11 14 -21 22 -21 17z"/>
 <path d="M4627 7433 c-11 -13 -29 -28 -40 -33 -15 -6 -17 -9 -6 -9 15 -1 76 55 68 63 -2 2 -12 -7 -22 -21z"/>
 <path d="M9078 7443 c12 -2 32 -2 45 0 12 2 2 4 -23 4 -25 0 -35 -2 -22 -4z"/>
 <path d="M3231 7425 c-1 -11 -4 -31 -6 -45 l-6 -25 11 25 c6 13 9 33 7 45 -4 19 -4 19 -6 0z"/>
 <path d="M8313 7318 c-51 -50 -93 -96 -93 -102 0 -6 5 -4 10 4 5 8 10 11 10 5 0 -5 38 28 84 74 68 68 85 80 89 65 2 -11 4 -4 3 13 0 18 -3 33 -6 33 -3 0 -47 -41 -97 -92z m87 69 c0 -1 -37 -38 -82 -82 l-83 -80 80 83 c74 76 85 87 85 79z"/>
 <path d="M8213 7310 c0 -30 2 -43 4 -27 2 15 2 39 0 55 -2 15 -4 2 -4 -28z"/>
 <path d="M2285 7320 c-67 -33 -65 -34 13 -5 28 11 52 23 52 27 0 10 5 12 -65 -22z"/>
 <path d="M8424 7320 c3 -14 6 -29 7 -35 0 -5 3 -2 7 7 6 14 30 6 179 -59 153 -67 172 -78 176 -102 3 -20 4 -18 6 10 1 25 -3 36 -13 36 -20 0 -349 144 -359 157 -5 6 -6 0 -3 -14z"/>
 <path d="M2326 7294 c-4 -14 -5 -28 -3 -31 3 -2 8 8 11 23 4 14 5 28 3 31 -3 2 -8 -8 -11 -23z"/>
 <path d="M5270 7294 c85 -13 164 -23 175 -21 23 3 -280 48 -310 46 -11 -1 50 -12 135 -25z"/>
 <path d="M2135 7255 c-38 -18 -65 -33 -60 -33 6 -1 42 14 80 33 39 18 66 33 60 33 -5 1 -41 -14 -80 -33z"/>
 <path d="M5483 7263 c9 -2 25 -2 35 0 9 3 1 5 -18 5 -19 0 -27 -2 -17 -5z"/>
 <path d="M5541 7256 c7 -6 320 -49 325 -44 2 3 -65 14 -148 26 -153 22 -185 25 -177 18z"/>
 <path d="M2306 7224 c-4 -14 -5 -28 -3 -31 3 -2 8 8 11 23 4 14 5 28 3 31 -3 2 -8 -8 -11 -23z"/>
 <path d="M5893 7203 c9 -2 25 -2 35 0 9 3 1 5 -18 5 -19 0 -27 -2 -17 -5z"/>
 <path d="M5955 7195 c21 -8 377 -56 387 -53 6 2 -74 16 -178 31 -175 25 -234 31 -209 22z"/>
 <path d="M2286 7154 c-4 -14 -5 -28 -3 -31 3 -2 8 8 11 23 4 14 5 28 3 31 -3 2 -8 -8 -11 -23z"/>
 <path d="M1983 7040 c0 -47 2 -66 4 -42 2 23 2 61 0 85 -2 23 -4 4 -4 -43z"/>
 <path d="M8490 7083 c0 -12 -36 -55 -94 -111 -52 -50 -92 -93 -90 -95 2 -2 46 38 96 90 65 66 94 89 100 81 5 -8 6 0 2 17 -8 37 -14 45 -14 18z"/>
 <path d="M8783 7015 c0 -44 2 -61 4 -37 2 23 2 59 0 80 -2 20 -4 1 -4 -43z"/>
 <path d="M6827 7074 c7 -3 9 -13 6 -22 -6 -15 -5 -15 10 -3 24 19 21 31 -5 30 -13 0 -18 -3 -11 -5z"/>
 <path d="M8200 7051 c0 -12 5 -21 10 -21 6 0 10 6 10 14 0 8 -4 18 -10 21 -5 3 -10 -3 -10 -14z"/>
 <path d="M8273 7033 c1 -18 5 -33 10 -33 9 0 8 19 -3 45 -7 16 -8 14 -7 -12z"/>
 <path d="M2231 6964 c-12 -42 -20 -78 -18 -80 2 -2 14 30 26 72 12 42 20 78 18 80 -2 2 -14 -30 -26 -72z"/>
 <path d="M6853 7023 c9 -2 25 -2 35 0 9 3 1 5 -18 5 -19 0 -27 -2 -17 -5z"/>
 <path d="M6960 7022 c8 -5 26 -13 40 -16 17 -5 20 -4 10 2 -8 5 -26 13 -40 16 -17 5 -20 4 -10 -2z"/>
 <path d="M7085 6976 c17 -7 41 -16 55 -20 20 -5 19 -3 -5 8 -16 7 -41 16 -55 20 -20 5 -19 3 5 -8z"/>
 <path d="M8286 6975 c-3 -8 -1 -17 3 -20 5 -3 11 2 15 10 3 8 1 17 -3 20 -5 3 -11 -2 -15 -10z"/>
 <path d="M3860 6961 c0 -5 8 -15 18 -22 15 -13 16 -12 4 3 -10 13 -10 17 0 21 8 4 7 6 -4 6 -10 1 -18 -3 -18 -8z"/>
 <path d="M1966 6915 c-10 -42 -58 -113 -107 -160 -40 -39 -89 -124 -89 -155 0 -8 11 12 25 44 15 37 45 81 77 115 29 31 54 58 56 61 2 3 31 8 65 11 l62 6 -52 1 c-29 1 -53 4 -53 6 0 2 7 20 16 41 8 20 13 42 11 48 -2 7 -7 -2 -11 -18z"/>
 <path d="M2185 6859 c-11 -4 -14 -8 -7 -8 6 -1 12 -11 13 -23 0 -23 0 -23 10 1 13 32 8 40 -16 30z"/>
 <path d="M8270 6861 c0 -6 11 -11 25 -11 23 0 25 -3 21 -37 -2 -21 -1 -29 2 -18 5 18 6 18 13 -5 6 -16 6 -10 3 20 -7 53 -3 47 -37 55 -17 5 -27 3 -27 -4z"/>
 <path d="M8815 6842 c4 -13 14 -32 23 -41 10 -9 43 -45 75 -80 31 -34 57 -59 57 -56 0 4 -24 32 -54 63 -29 31 -66 75 -81 97 -18 26 -25 32 -20 17z"/>
 <path d="M2083 6843 c15 -2 39 -2 55 0 15 2 2 4 -28 4 -30 0 -43 -2 -27 -4z"/>
 <path d="M8561 6842 c0 -4 4 -16 8 -26 7 -19 8 -19 13 1 4 14 0 24 -8 27 -8 3 -14 2 -13 -2z"/>
 <path d="M8648 6823 c12 -2 30 -2 40 0 9 3 -1 5 -23 4 -22 0 -30 -2 -17 -4z"/>
 <path d="M8758 6813 c12 -2 30 -2 40 0 9 3 -1 5 -23 4 -22 0 -30 -2 -17 -4z"/>
 <path d="M3410 6765 c-24 -25 -42 -45 -39 -45 3 0 25 20 49 45 24 25 42 45 39 45 -3 0 -25 -20 -49 -45z"/>
 <path d="M2176 6774 c-4 -14 -5 -28 -3 -31 3 -2 8 8 11 23 4 14 5 28 3 31 -3 2 -8 -8 -11 -23z"/>
 <path d="M2156 6704 c-4 -14 -5 -28 -3 -31 3 -2 8 8 11 23 4 14 5 28 3 31 -3 2 -8 -8 -11 -23z"/>
 <path d="M1762 6550 c0 -19 2 -27 5 -17 2 9 2 25 0 35 -3 9 -5 1 -5 -18z"/>
 <path d="M8368 6548 c-3 -7 -2 -24 2 -38 l6 -25 6 27 c6 29 -6 60 -14 36z"/>
 <path d="M8661 6495 c-1 -11 -43 -62 -93 -115 l-93 -95 96 93 96 93 23 -82 c13 -45 25 -78 27 -73 1 5 -10 52 -27 104 -16 52 -29 86 -29 75z"/>
 <path d="M8383 6405 c0 -33 2 -45 4 -27 2 18 2 45 0 60 -2 15 -4 0 -4 -33z"/>
 <path d="M2066 6394 c-4 -14 -5 -28 -3 -31 3 -2 8 8 11 23 4 14 5 28 3 31 -3 2 -8 -8 -11 -23z"/>
 <path d="M2042 6313 c-6 -20 -7 -32 -2 -27 10 10 25 64 18 64 -3 0 -10 -16 -16 -37z"/>
 <path d="M1790 6296 c0 -11 40 -86 45 -86 3 0 -4 19 -16 43 -23 45 -29 54 -29 43z"/>
 <path d="M2433 6182 c-1 -113 11 -182 35 -190 7 -2 12 1 12 7 0 6 -4 11 -9 11 -10 0 -31 85 -31 125 0 20 5 25 25 25 20 0 25 5 24 23 -1 17 -2 18 -6 4 -3 -10 -12 -17 -21 -15 -13 2 -18 18 -23 63 -4 46 -5 33 -6 -53z"/>
 <path d="M8429 6232 c13 -25 83 -87 113 -101 22 -11 22 -11 -2 6 -49 35 -100 86 -100 99 0 8 -5 14 -10 14 -7 0 -7 -6 -1 -18z"/>
 <path d="M8211 6183 c0 -18 3 -33 8 -33 5 0 12 -8 14 -17 3 -10 5 -3 6 15 0 18 -3 31 -8 27 -5 -3 -12 5 -14 17 -3 17 -5 14 -6 -9z"/>
 <path d="M8911 6169 c-19 -23 -48 -50 -65 -60 -17 -10 -25 -19 -18 -19 15 0 99 76 113 102 15 27 7 22 -30 -23z"/>
 <path d="M1865 6172 c17 -19 39 -38 50 -44 11 -6 16 -7 10 -2 -5 5 -28 25 -50 44 l-40 35 30 -33z"/>
 <path d="M8253 6124 c-6 -13 -7 -24 -3 -24 9 0 25 39 18 45 -2 2 -8 -7 -15 -21z"/>
 <path d="M8735 6080 c-27 -4 -42 -8 -33 -8 9 -1 19 -10 21 -19 4 -17 5 -17 6 0 1 10 9 17 24 18 12 0 31 4 42 9 23 10 12 10 -60 0z"/>
 <path d="M2316 6054 c-4 -14 -5 -28 -3 -31 3 -2 8 8 11 23 4 14 5 28 3 31 -3 2 -8 -8 -11 -23z"/>
 <path d="M2500 6069 c0 -5 -5 -7 -12 -3 -8 5 -9 -6 -5 -41 4 -26 7 -434 7 -906 l0 -859 613 2 612 3 -608 2 -607 3 2 905 c2 498 2 905 1 905 -2 0 -3 -5 -3 -11z"/>
 <path d="M8451 6030 c0 -8 4 -24 9 -35 5 -13 9 -14 9 -5 0 8 -4 24 -9 35 -5 13 -9 14 -9 5z"/>
 <path d="M2286 5954 c-4 -14 -5 -28 -3 -31 3 -2 8 8 11 23 4 14 5 28 3 31 -3 2 -8 -8 -11 -23z"/>
 <path d="M4910 5917 c0 -14 5 -29 10 -32 7 -4 8 3 4 22 -9 38 -14 42 -14 10z"/>
 <path d="M8482 5930 c0 -8 6 -31 13 -50 7 -19 13 -28 13 -20 0 8 -6 31 -13 50 -7 19 -13 28 -13 20z"/>
 <path d="M8165 5823 c-4 -27 -11 -66 -15 -87 -5 -23 -5 -47 0 -55 7 -12 9 -10 10 12 0 16 4 26 10 22 7 -4 10 -257 10 -726 l0 -719 -716 0 c-643 0 -714 2 -700 15 8 9 18 16 20 16 3 0 17 11 32 24 15 14 31 22 37 18 5 -3 7 -1 4 4 -6 10 7 20 27 21 5 0 13 7 18 16 5 9 15 13 21 10 7 -4 9 -4 5 0 -4 5 182 142 412 307 230 164 421 303 425 309 3 5 18 11 33 11 17 1 21 3 10 6 -10 2 -18 7 -18 10 0 2 34 45 76 94 41 49 73 89 70 89 -2 0 -40 -42 -82 -92 -43 -51 -90 -104 -104 -118 -26 -26 -805 -582 -814 -582 -3 1 -19 -12 -37 -29 -17 -16 -34 -27 -37 -24 -3 3 -12 -4 -19 -15 -8 -11 -18 -18 -23 -15 -4 3 -10 -2 -14 -10 -3 -8 -12 -15 -20 -15 -7 0 -16 -7 -20 -15 -3 -8 -12 -15 -21 -15 -8 0 -15 -3 -15 -7 0 -5 -78 -6 -174 -3 l-175 5 -58 50 c-31 28 -60 49 -63 48 -3 0 -273 225 -600 500 -497 420 -595 507 -602 535 -7 27 -11 30 -22 20 -11 -11 -12 -14 -1 -16 7 -2 16 -13 19 -25 4 -12 26 -38 49 -57 237 -193 1246 -1047 1247 -1054 0 -5 -330 -8 -747 -6 -412 1 -875 -2 -1030 -6 -218 -5 -289 -4 -313 6 -16 7 -30 16 -30 21 0 31 306 474 378 547 9 10 24 28 33 42 l16 24 70 -32 c70 -32 103 -40 103 -23 0 14 -71 99 -127 154 -49 47 -50 47 -67 28 -10 -11 -42 -34 -72 -52 -29 -18 -56 -39 -59 -46 -6 -16 5 -11 52 23 l31 23 27 -34 26 -35 -23 -33 c-12 -17 -26 -36 -30 -42 -142 -181 -320 -444 -416 -615 -12 -23 -12 -23 2 -5 8 11 22 29 30 40 13 18 18 19 48 7 24 -10 103 -13 298 -13 l265 1 -120 -60 c-65 -33 -125 -58 -132 -55 -36 14 -45 15 -20 0 28 -16 31 -16 155 39 70 31 130 56 134 56 4 0 23 -10 43 -21 l36 -22 -43 -44 c-63 -66 -215 -182 -273 -209 -27 -13 -43 -24 -35 -24 37 0 135 67 301 206 78 66 95 75 180 100 l94 28 632 3 631 3 21 -26 c12 -15 21 -23 21 -19 0 5 -7 17 -16 26 -16 18 17 18 866 19 485 0 886 3 891 6 12 7 11 1604 -1 1604 -5 0 -12 -21 -15 -47z"/>
 <path d="M2202 5693 c-23 -70 -40 -128 -38 -131 2 -2 23 54 46 123 23 69 40 128 38 130 -2 2 -23 -53 -46 -122z"/>
 <path d="M8551 5714 c-1 -15 40 -136 45 -131 2 2 -7 35 -20 73 -14 38 -25 64 -25 58z"/>
 <path d="M8142 5630 c0 -19 2 -27 5 -17 2 9 2 25 0 35 -3 9 -5 1 -5 -18z"/>
 <path d="M8132 5560 c0 -19 2 -27 5 -17 2 9 2 25 0 35 -3 9 -5 1 -5 -18z"/>
 <path d="M8843 5515 c0 -33 2 -45 4 -27 2 18 2 45 0 60 -2 15 -4 0 -4 -33z"/>
 <path d="M2297 5508 c-9 -29 -15 -54 -13 -56 2 -2 12 20 21 48 9 28 15 53 13 55 -2 3 -12 -19 -21 -47z"/>
 <path d="M3910 5530 l-945 -5 942 -3 c887 -2 942 -3 946 -19 3 -11 5 -7 6 10 0 15 0 26 -1 25 -2 -2 -428 -5 -948 -8z"/>
 <path d="M8122 5495 c-3 -43 -22 -75 -107 -175 -42 -50 -74 -90 -71 -90 2 0 39 41 82 91 56 66 79 87 85 77 6 -9 9 -5 9 14 0 15 4 30 10 33 5 3 15 16 20 28 10 21 10 21 -4 4 -14 -18 -15 -17 -19 15 -4 33 -4 33 -5 3z"/>
 <path d="M2116 5444 c-9 -26 -14 -49 -12 -51 2 -2 11 17 20 43 9 26 14 49 12 51 -2 2 -11 -17 -20 -43z"/>
 <path d="M8636 5460 c3 -14 11 -32 16 -40 6 -10 7 -7 2 10 -3 14 -11 32 -16 40 -6 10 -7 7 -2 -10z"/>
 <path d="M4893 5443 c9 -2 25 -2 35 0 9 3 1 5 -18 5 -19 0 -27 -2 -17 -5z"/>
 <path d="M4963 5433 c9 -2 25 -2 35 0 9 3 1 5 -18 5 -19 0 -27 -2 -17 -5z"/>
 <path d="M2232 5345 c-12 -25 -20 -45 -17 -45 7 0 47 81 43 86 -3 2 -14 -17 -26 -41z"/>
 <path d="M3570 5230 l0 -50 350 0 350 0 0 50 0 50 -350 0 -350 0 0 -50z m690 0 l0 -40 -340 0 -340 0 0 40 0 40 340 0 340 0 0 -40z"/>
 <path d="M3570 5080 l0 -50 510 0 510 0 -7 48 c-8 60 -13 66 -13 15 0 -28 -5 -43 -16 -47 -9 -3 -232 -6 -496 -6 l-480 0 4 45 c2 25 0 45 -4 45 -5 0 -8 -22 -8 -50z"/>
 <path d="M8049 5012 c-3 -20 -2 -29 4 -23 5 5 7 19 5 32 -3 20 -5 19 -9 -9z"/>
 <path d="M7843 5013 c9 -2 25 -2 35 0 9 3 1 5 -18 5 -19 0 -27 -2 -17 -5z"/>
 <path d="M7913 5003 c9 -2 25 -2 35 0 9 3 1 5 -18 5 -19 0 -27 -2 -17 -5z"/>
 <path d="M4405 4869 c-81 -61 -129 -104 -65 -58 111 80 161 120 148 119 -2 0 -39 -28 -83 -61z"/>
 <path d="M4225 4736 c-38 -30 -155 -141 -260 -247 l-190 -194 210 206 c116 113 234 222 263 243 44 32 60 47 50 46 -2 0 -34 -25 -73 -54z"/>
 <path d="M3357 4682 c-11 -11 -33 -17 -60 -17 -36 0 -43 -3 -51 -27 -8 -22 -6 -32 9 -48 35 -38 85 -15 85 40 0 18 8 34 22 44 12 9 20 18 17 21 -3 2 -13 -3 -22 -13z m-32 -56 c0 -36 -27 -56 -52 -40 -40 25 -20 77 26 72 21 -2 26 -8 26 -32z"/>
 <path d="M4409 4205 c52 -25 95 -44 98 -42 3 4 -149 75 -177 83 -8 2 27 -16 79 -41z"/>
 <path d="M6670 4241 c0 -11 -85 -63 -120 -73 -20 -6 -32 -1 -62 29 -48 47 -49 36 -2 -17 34 -37 35 -42 21 -58 -40 -45 -29 -100 33 -169 41 -43 56 -103 27 -103 -20 0 -66 -53 -76 -86 -4 -16 -4 -42 0 -58 10 -36 53 -82 84 -90 19 -5 25 -14 28 -44 l4 -37 1 43 c2 34 6 42 21 42 30 0 79 47 90 85 16 59 -14 122 -68 144 -23 10 -30 21 -35 51 -4 27 -21 56 -51 90 -25 28 -45 60 -45 71 0 25 43 69 67 69 26 0 63 -28 73 -56 5 -13 16 -24 24 -24 43 0 14 80 -40 108 l-37 19 31 19 c18 10 32 22 32 26 0 4 7 8 15 8 8 0 15 5 15 10 0 6 -7 10 -15 10 -8 0 -15 -4 -15 -9z"/>
 <path d="M4250 4016 c42 -46 158 -97 231 -101 l64 -4 -63 9 c-72 10 -156 46 -215 92 -39 30 -40 30 -17 4z"/>
 <path d="M4430 3483 c0 -5 7 -17 15 -27 16 -21 20 -40 7 -32 -4 2 -5 -14 -3 -37 5 -42 5 -42 10 -10 l6 32 83 -74 c45 -41 86 -75 90 -75 4 0 -30 35 -76 76 -46 42 -92 94 -103 115 -18 37 -29 49 -29 32z"/>
 <path d="M4370 3456 c0 -9 53 -97 56 -93 5 4 -45 97 -52 97 -2 0 -4 -2 -4 -4z"/>
 <path d="M3633 3400 c-3 -11 -24 -28 -47 -38 -71 -32 -126 -113 -126 -188 0 -35 21 -87 50 -124 15 -19 30 -47 33 -62 17 -68 98 -118 169 -104 61 11 94 51 116 141 11 44 22 85 24 92 1 6 -1 13 -7 15 -5 1 -12 -13 -16 -32 -3 -19 -13 -48 -22 -65 -15 -28 -16 -28 -17 -7 -1 56 -64 152 -100 152 -40 0 -52 46 -20 75 23 21 19 48 -13 83 -18 19 -20 27 -10 52 7 19 8 30 1 30 -5 0 -12 -9 -15 -20z"/>
 <path d="M3781 3354 c-1 -28 4 -46 16 -55 9 -8 24 -27 35 -44 10 -16 18 -24 18 -16 0 8 -12 30 -27 50 -16 20 -31 52 -34 71 l-6 35 -2 -41z"/>
 <path d="M4708 3219 c42 -19 61 -33 56 -40 -4 -8 -3 -9 4 -5 7 4 12 12 12 17 0 11 -103 59 -123 58 -7 0 16 -14 51 -30z"/>
 <path d="M3853 3185 c0 -22 2 -30 4 -17 2 12 2 30 0 40 -3 9 -5 -1 -4 -23z"/>
 <path d="M4640 3177 c14 -16 34 -33 45 -39 21 -11 20 -10 -35 37 l-35 30 25 -28z"/>
 <path d="M4726 3162 c-3 -4 11 -17 31 -27 30 -16 32 -20 16 -26 -14 -6 -11 -8 13 -8 22 -1 230 -126 775 -467 409 -256 760 -476 780 -490 19 -13 39 -24 44 -24 16 0 -67 53 -1240 789 -214 134 -391 248 -393 253 -5 10 -19 10 -26 0z"/>
 <path d="M6508 2413 c78 -38 111 -128 73 -205 -25 -52 -68 -80 -136 -89 l-50 -6 43 -2 c96 -3 172 76 172 177 0 43 -5 58 -27 83 -29 32 -72 59 -95 59 -7 0 2 -8 20 -17z"/>
 </g>
<g id="layer102" fill="#595345" stroke="none">
 <path d="M3480 8330 c0 -192 3 -289 10 -285 6 4 10 110 10 285 0 175 -4 281 -10 285 -7 4 -10 -93 -10 -285z"/>
 <path d="M2990 8398 c0 -7 5 -20 10 -28 8 -12 10 -9 10 13 0 15 -4 27 -10 27 -5 0 -10 -6 -10 -12z"/>
 <path d="M3845 8390 c-4 -6 -10 -8 -15 -5 -4 3 -14 -3 -21 -13 -12 -15 -12 -16 2 -5 9 7 18 11 21 8 3 -3 11 1 18 10 7 8 10 15 7 15 -3 0 -9 -5 -12 -10z"/>
 <path d="M5590 8390 c0 -7 56 -10 168 -8 l167 3 -3 -274 c-2 -171 1 -278 7 -284 7 -7 10 90 11 281 l0 292 -175 0 c-115 0 -175 -4 -175 -10z"/>
 <path d="M7705 8215 c-4 -47 -5 -88 -2 -91 3 -3 8 33 12 81 4 47 5 88 2 91 -3 3 -8 -33 -12 -81z"/>
 <path d="M8160 8265 c-7 -8 -16 -13 -20 -10 -4 2 -20 -10 -36 -28 -24 -27 -25 -28 -3 -9 14 12 28 20 31 17 2 -3 15 6 28 20 13 14 21 25 18 25 -3 0 -11 -7 -18 -15z"/>
 <path d="M8030 8145 c-7 -8 -16 -13 -20 -10 -4 2 -22 -12 -41 -33 -31 -33 -31 -34 -3 -9 17 15 33 25 35 22 3 -3 16 6 29 20 13 14 21 25 18 25 -3 0 -11 -7 -18 -15z"/>
 <path d="M2604 8103 c16 -18 32 -31 35 -28 2 3 18 -7 35 -22 l31 -28 -29 32 c-16 18 -32 31 -35 28 -2 -3 -18 7 -35 22 l-31 28 29 -32z"/>
 <path d="M3002 8045 c0 -27 4 -61 8 -75 6 -20 8 -14 8 25 0 28 -4 61 -8 75 -6 20 -8 14 -8 -25z"/>
 <path d="M2901 8064 c6 -7 16 -11 21 -8 11 7 3 17 -18 20 -12 2 -13 -1 -3 -12z"/>
 <path d="M2734 7983 c16 -18 32 -30 37 -28 4 3 21 -12 39 -33 25 -29 27 -30 11 -6 -22 34 -51 61 -51 48 0 -4 -15 5 -32 22 l-33 29 29 -32z"/>
 <path d="M7871 7908 c0 -13 4 -32 9 -43 7 -16 9 -13 9 17 1 20 -3 40 -9 43 -6 3 -10 -4 -9 -17z"/>
 <path d="M8646 7922 c-2 -4 15 -7 39 -7 24 0 41 3 38 8 -6 9 -70 9 -77 -1z"/>
 <path d="M1438 7892 c-13 -15 -21 -49 -10 -37 4 4 7 12 7 18 0 7 5 12 12 12 7 0 17 5 23 11 8 8 6 11 -5 11 -8 0 -21 -7 -27 -15z"/>
 <path d="M1495 7900 c3 -5 16 -15 28 -21 22 -12 22 -12 3 10 -19 21 -43 30 -31 11z"/>
 <path d="M2837 7827 c-4 -10 -7 -28 -7 -40 1 -20 2 -20 11 -4 6 10 9 28 7 40 -3 20 -4 20 -11 4z"/>
 <path d="M9088 7721 c-35 -36 -45 -49 -22 -28 22 20 43 35 45 32 3 -2 20 10 38 28 20 22 26 34 17 34 -8 0 -43 -30 -78 -66z"/>
 <path d="M1303 7754 c9 -11 14 -23 11 -26 -3 -3 -1 -8 4 -12 18 -11 8 25 -12 41 -21 18 -21 18 -3 -3z"/>
 <path d="M1680 7737 c0 -2 15 -16 33 -33 l32 -29 -29 33 c-28 30 -36 37 -36 29z"/>
 <path d="M1375 7671 c21 -24 21 -26 2 -51 -9 -12 -9 -13 3 -3 21 19 20 40 -3 60 l-22 18 20 -24z"/>
 <path d="M1083 7623 c-1 -33 1 -35 9 -17 6 14 7 28 1 38 -7 12 -9 7 -10 -21z"/>
 <path d="M2826 7612 c-5 -18 -5 -36 -2 -39 7 -7 19 43 13 59 -2 7 -7 -2 -11 -20z"/>
 <path d="M8243 7560 c0 -17 4 -30 9 -30 4 0 8 11 8 24 0 14 -4 27 -8 30 -5 3 -9 -8 -9 -24z"/>
 <path d="M8656 7501 c-6 -9 17 -32 44 -45 8 -4 2 4 -14 17 -20 18 -24 26 -15 30 9 3 10 6 2 6 -6 1 -14 -3 -17 -8z"/>
 <path d="M9375 7440 c-14 -6 1 -9 49 -9 38 -1 67 1 65 3 -10 9 -96 14 -114 6z"/>
 <path d="M2369 7421 c11 -7 10 -11 -5 -20 -11 -6 -14 -11 -7 -11 6 0 15 5 19 11 4 7 28 -10 63 -43 l56 -53 -60 63 c-33 34 -64 62 -70 62 -5 0 -4 -4 4 -9z"/>
 <path d="M3945 7390 c-4 -7 103 -10 315 -10 212 0 319 3 315 10 -4 6 -120 10 -315 10 -195 0 -311 -4 -315 -10z"/>
 <path d="M8310 7303 l-85 -88 88 85 c81 79 92 90 84 90 -1 0 -41 -39 -87 -87z"/>
 <path d="M8410 6994 c-41 -42 -84 -80 -95 -84 -14 -6 -15 -9 -5 -9 9 -1 53 37 100 84 47 47 82 85 80 85 -3 0 -39 -34 -80 -76z"/>
 <path d="M3785 6965 c-3 -8 -7 -22 -10 -31 -3 -8 -1 -13 4 -10 5 3 11 17 13 31 6 27 0 34 -7 10z"/>
 <path d="M8705 6820 c3 -5 13 -10 21 -10 8 0 12 5 9 10 -3 6 -13 10 -21 10 -8 0 -12 -4 -9 -10z"/>
 <path d="M1865 6770 c-35 -36 -58 -79 -33 -64 5 3 7 9 3 12 -3 3 14 25 37 49 23 24 40 43 37 43 -3 0 -22 -18 -44 -40z"/>
 <path d="M8895 6750 c21 -22 41 -40 44 -40 3 0 -13 18 -34 40 -21 22 -41 40 -44 40 -3 0 13 -18 34 -40z"/>
 <path d="M3335 6699 c-38 -39 -32 -45 8 -10 18 15 42 51 34 51 -1 0 -21 -19 -42 -41z"/>
 <path d="M8094 6528 c-4 -7 -3 -10 1 -5 5 4 22 -5 39 -20 l31 -28 -29 33 c-34 37 -33 36 -42 20z"/>
 <path d="M1755 6501 c-3 -10 -1 -29 4 -42 9 -21 10 -19 10 19 1 45 -4 54 -14 23z"/>
 <path d="M9001 6500 c0 -8 4 -24 9 -35 5 -13 9 -14 9 -5 0 8 -4 24 -9 35 -5 13 -9 14 -9 5z"/>
 <path d="M2096 6488 c4 -5 9 -7 12 -3 3 3 33 -20 66 -52 l61 -58 -58 61 c-32 33 -64 61 -72 61 -8 0 -12 -4 -9 -9z"/>
 <path d="M8370 6475 c0 -8 5 -15 10 -15 6 0 10 7 10 15 0 8 -4 15 -10 15 -5 0 -10 -7 -10 -15z"/>
 <path d="M2382 6460 c0 -14 4 -36 8 -50 6 -20 8 -21 8 -5 0 11 -4 34 -8 50 -7 27 -8 27 -8 5z"/>
 <path d="M8274 6356 c3 -61 16 -71 16 -13 0 25 -4 48 -10 52 -5 3 -8 -13 -6 -39z"/>
 <path d="M2250 6335 c19 -19 36 -35 39 -35 3 0 -10 16 -29 35 -19 19 -36 35 -39 35 -3 0 10 -16 29 -35z"/>
 <path d="M8380 6339 c0 -5 -5 -7 -12 -3 -7 4 -8 3 -4 -4 4 -6 13 -9 21 -5 17 6 20 23 5 23 -5 0 -10 -5 -10 -11z"/>
 <path d="M8470 6281 c-19 -16 -32 -32 -29 -35 3 -3 21 10 39 29 41 43 36 45 -10 6z"/>
 <path d="M2437 6139 c3 -24 7 -46 9 -48 9 -10 3 65 -5 78 -6 10 -8 -1 -4 -30z"/>
 <path d="M2474 6032 c4 -37 2 -43 -12 -37 -14 5 -15 4 -4 -6 20 -21 31 2 21 46 l-8 40 3 -43z"/>
 <path d="M3583 5283 c9 -2 25 -2 35 0 9 3 1 5 -18 5 -19 0 -27 -2 -17 -5z"/>
 <path d="M4270 5230 l0 -50 -352 -3 -353 -2 358 -3 357 -2 0 55 c0 30 -2 55 -5 55 -3 0 -5 -22 -5 -50z"/>
 <path d="M3583 5230 c0 -25 2 -35 4 -22 2 12 2 32 0 45 -2 12 -4 2 -4 -23z"/>
 <path d="M7935 5224 l-30 -26 33 22 c17 12 32 23 32 26 0 7 -4 5 -35 -22z"/>
 <path d="M3575 5134 c6 -2 9 -24 7 -49 l-4 -45 488 2 489 3 -482 2 -483 3 0 35 0 35 495 2 494 3 4 -35 c3 -33 4 -32 5 8 l2 42 -512 -1 c-282 0 -508 -2 -503 -5z"/>
 <path d="M8020 4991 c0 -6 9 -9 19 -8 11 0 17 5 15 9 -7 11 -34 10 -34 -1z"/>
 <path d="M3985 4498 l-200 -203 203 200 c188 186 207 205 199 205 -1 0 -92 -91 -202 -202z"/>
 <path d="M4801 4096 c-10 -11 -9 -14 1 -12 14 2 23 15 15 22 -2 2 -10 -2 -16 -10z"/>
 <path d="M6605 2945 c0 -330 1 -464 2 -297 2 167 2 437 0 600 -1 163 -2 27 -2 -303z"/>
 <path d="M4526 3362 c-3 -5 5 -19 18 -31 13 -13 26 -18 30 -13 3 5 -5 19 -18 31 -13 13 -26 18 -30 13z"/>
 <path d="M6296 2210 c4 -14 13 -29 21 -33 7 -5 10 -14 7 -20 -4 -7 -4 -9 1 -5 4 4 15 2 24 -4 9 -7 4 1 -10 17 -15 17 -32 39 -38 50 -11 18 -11 18 -5 -5z"/>
 </g>
<g id="layer103" fill="#8a7544" stroke="none">
 <path d="M2993 8335 c0 -27 2 -38 4 -22 2 15 2 37 0 50 -2 12 -4 0 -4 -28z"/>
 <path d="M7703 8265 c0 -27 2 -38 4 -22 2 15 2 37 0 50 -2 12 -4 0 -4 -28z"/>
 <path d="M7713 8155 c0 -27 2 -38 4 -22 2 15 2 37 0 50 -2 12 -4 0 -4 -28z"/>
 <path d="M3013 8100 c0 -30 2 -43 4 -27 2 15 2 39 0 55 -2 15 -4 2 -4 -28z"/>
 <path d="M3002 7960 c0 -19 2 -27 5 -17 2 9 2 25 0 35 -3 9 -5 1 -5 -18z"/>
 <path d="M2068 7933 c12 -2 32 -2 45 0 12 2 2 4 -23 4 -25 0 -35 -2 -22 -4z"/>
 <path d="M8690 7920 c-35 -7 -35 -7 -5 -9 17 0 37 4 45 9 17 11 11 11 -40 0z"/>
 <path d="M2583 7913 c42 -2 112 -2 155 0 42 1 7 3 -78 3 -85 0 -120 -2 -77 -3z"/>
 <path d="M7948 7913 c34 -2 90 -2 125 0 34 2 6 3 -63 3 -69 0 -97 -1 -62 -3z"/>
 <path d="M3823 7870 c0 -25 2 -35 4 -22 2 12 2 32 0 45 -2 12 -4 2 -4 -23z"/>
 <path d="M1550 7845 c19 -19 36 -35 39 -35 3 0 -10 16 -29 35 -19 19 -36 35 -39 35 -3 0 10 -16 29 -35z"/>
 <path d="M4363 7813 c291 -2 763 -2 1050 0 287 1 50 2 -528 2 -577 0 -812 -1 -522 -2z"/>
 <path d="M2479 7778 c-2 -7 -2 -114 1 -238 l6 -225 2 238 c2 219 0 258 -9 225z"/>
 <path d="M9074 7688 l-29 -33 33 29 c30 28 37 36 29 36 -2 0 -16 -15 -33 -32z"/>
 <path d="M3378 7583 c57 -2 147 -2 200 0 53 1 7 3 -103 3 -110 0 -154 -2 -97 -3z"/>
 <path d="M8748 7483 c12 -2 30 -2 40 0 9 3 -1 5 -23 4 -22 0 -30 -2 -17 -4z"/>
 <path d="M1343 7453 c9 -2 25 -2 35 0 9 3 1 5 -18 5 -19 0 -27 -2 -17 -5z"/>
 <path d="M2425 7350 c27 -27 51 -50 54 -50 3 0 -17 23 -44 50 -27 28 -51 50 -54 50 -3 0 17 -22 44 -50z"/>
 <path d="M3235 7390 c-4 -7 72 -10 222 -10 151 0 223 4 213 10 -20 13 -427 13 -435 0z"/>
 <path d="M2484 7175 c0 -66 1 -92 3 -57 2 34 2 88 0 120 -2 31 -3 3 -3 -63z"/>
 <path d="M8803 7195 c0 -22 2 -30 4 -17 2 12 2 30 0 40 -3 9 -5 -1 -4 -23z"/>
 <path d="M6778 7113 c12 -2 30 -2 40 0 9 3 -1 5 -23 4 -22 0 -30 -2 -17 -4z"/>
 <path d="M6785 7090 c12 -5 14 -9 6 -9 -8 -1 -12 -3 -10 -6 3 -2 23 2 44 10 l40 14 -50 0 c-37 0 -45 -3 -30 -9z"/>
 <path d="M1992 7030 c0 -19 2 -27 5 -17 2 9 2 25 0 35 -3 9 -5 1 -5 -18z"/>
 <path d="M8772 7010 c0 -19 2 -27 5 -17 2 9 2 25 0 35 -3 9 -5 1 -5 -18z"/>
 <path d="M3913 7003 c9 -2 25 -2 35 0 9 3 1 5 -18 5 -19 0 -27 -2 -17 -5z"/>
 <path d="M2479 6953 c-2 -10 -2 -67 2 -128 l5 -110 2 128 c2 119 -1 150 -9 110z"/>
 <path d="M2478 6618 c-2 -7 -1 -38 3 -68 l6 -55 1 68 c2 64 -1 82 -10 55z"/>
 <path d="M9005 6482 c-3 -16 -2 -39 3 -53 8 -19 9 -14 9 29 -1 28 -2 52 -3 52 -1 0 -5 -13 -9 -28z"/>
 <path d="M2180 6405 c19 -19 36 -35 39 -35 3 0 -10 16 -29 35 -19 19 -36 35 -39 35 -3 0 10 -16 29 -35z"/>
 <path d="M8539 6343 l-34 -38 38 34 c34 33 42 41 34 41 -2 0 -19 -17 -38 -37z"/>
 <path d="M2444 6220 c1 -35 5 -45 19 -46 11 -1 12 0 3 3 -9 2 -16 21 -19 46 l-4 42 1 -45z"/>
 <path d="M2485 5130 c0 -476 1 -670 2 -433 2 238 2 628 0 865 -1 238 -2 44 -2 -432z"/>
 <path d="M8168 5000 l2 -720 -707 -3 -708 -2 710 0 710 0 3 714 c1 393 -1 718 -5 722 -5 5 -7 -316 -5 -711z"/>
 <path d="M1933 5535 c0 -22 2 -30 4 -17 2 12 2 30 0 40 -3 9 -5 -1 -4 -23z"/>
 <path d="M2969 5517 c4 -4 428 -6 942 -5 l934 3 -942 5 c-518 3 -939 2 -934 -3z"/>
 <path d="M2802 4273 c170 -2 446 -2 615 0 170 1 31 2 -307 2 -338 0 -477 -1 -308 -2z"/>
 <path d="M4267 4273 c-3 -5 65 -7 151 -5 289 4 319 8 85 10 -127 1 -234 -1 -236 -5z"/>
 <path d="M3793 3355 c0 -22 2 -30 4 -17 2 12 2 30 0 40 -3 9 -5 -1 -4 -23z"/>
 </g>
<g id="layer104" fill="#c0a05a" stroke="none">
 <path d="M4047 8623 c282 -2 744 -2 1025 0 282 1 52 2 -512 2 -564 0 -794 -1 -513 -2z"/>
 <path d="M4042 8603 c280 -2 736 -2 1015 0 280 1 51 2 -507 2 -558 0 -787 -1 -508 -2z"/>
 <path d="M5594 8520 c0 -52 1 -74 3 -47 2 26 2 68 0 95 -2 26 -3 4 -3 -48z"/>
 <path d="M3719 8402 c6 -12 16 -24 22 -28 8 -4 8 -1 0 14 -6 12 -16 24 -22 28 -8 4 -8 1 0 -14z"/>
 <path d="M3802 8351 c-8 -5 -12 -16 -10 -25 2 -12 6 -10 15 9 6 14 10 25 10 25 -1 0 -8 -4 -15 -9z"/>
 <path d="M3760 8315 c-7 -9 -11 -18 -8 -20 3 -3 11 1 18 10 7 9 11 18 8 20 -3 3 -11 -1 -18 -10z"/>
 <path d="M5572 8198 l-2 -138 -837 -3 -838 -2 838 -3 c681 -2 839 0 843 11 2 7 3 71 1 143 l-3 129 -2 -137z"/>
 <path d="M5594 8190 c0 -80 2 -112 3 -72 2 39 2 105 0 145 -1 39 -3 7 -3 -73z"/>
 <path d="M4323 8033 c236 -2 618 -2 850 0 232 1 40 2 -428 2 -467 0 -657 -1 -422 -2z"/>
 <path d="M1638 7973 c12 -2 30 -2 40 0 9 3 -1 5 -23 4 -22 0 -30 -2 -17 -4z"/>
 <path d="M1643 7953 c9 -2 25 -2 35 0 9 3 1 5 -18 5 -19 0 -27 -2 -17 -5z"/>
 <path d="M9098 7933 c12 -2 30 -2 40 0 9 3 -1 5 -23 4 -22 0 -30 -2 -17 -4z"/>
 <path d="M9205 7838 l-40 -43 43 40 c39 36 47 45 39 45 -2 0 -21 -19 -42 -42z"/>
 <path d="M1573 7844 c15 -17 25 -33 22 -35 -2 -3 26 -34 63 -70 36 -35 54 -50 39 -33 -15 17 -25 33 -22 35 2 3 -26 34 -63 70 -36 35 -54 50 -39 33z m67 -69 c19 -19 32 -35 29 -35 -3 0 -20 16 -39 35 -19 19 -32 35 -29 35 3 0 20 -16 39 -35z"/>
 <path d="M9220 7825 c-24 -25 -42 -45 -39 -45 3 0 25 20 49 45 24 25 42 45 39 45 -3 0 -25 -20 -49 -45z"/>
 <path d="M1260 7812 c0 -5 10 -17 23 -28 22 -19 22 -19 4 2 -9 11 -14 24 -10 27 3 4 1 7 -5 7 -7 0 -12 -4 -12 -8z"/>
 <path d="M2314 7608 l-29 -33 33 29 c17 17 32 31 32 33 0 8 -8 1 -36 -29z"/>
 <path d="M8305 7318 l-80 -83 83 80 c45 44 82 81 82 82 0 8 -11 -3 -85 -79z"/>
 <path d="M8222 7310 c0 -19 2 -27 5 -17 2 9 2 25 0 35 -3 9 -5 1 -5 -18z"/>
 <path d="M2271 7068 c3 -2 45 -41 94 -88 l90 -85 -85 88 c-46 48 -89 87 -94 87 -5 0 -7 -1 -5 -2z"/>
 <path d="M2377 7000 c40 -41 74 -72 75 -70 2 3 -30 36 -72 75 l-75 69 72 -74z"/>
 <path d="M8405 6968 l-80 -83 83 80 c45 44 82 81 82 82 0 8 -11 -3 -85 -79z"/>
 <path d="M3414 6778 c-19 -21 -21 -26 -5 -13 13 11 26 20 29 20 4 0 7 6 8 13 3 17 1 16 -32 -20z"/>
 <path d="M8635 6440 c-10 -11 -21 -18 -25 -15 -3 2 -38 -28 -76 -68 -55 -58 -58 -61 -11 -17 32 30 61 54 65 54 4 -1 24 13 45 32 20 19 33 34 29 34 -5 0 -17 -9 -27 -20z"/>
 <path d="M8368 6405 c-3 -14 -1 -25 3 -25 5 0 9 11 9 25 0 14 -2 25 -4 25 -2 0 -6 -11 -8 -25z"/>
 <path d="M2280 6325 c30 -30 57 -55 59 -55 3 0 -19 25 -49 55 -30 30 -57 55 -59 55 -3 0 19 -25 49 -55z"/>
 <path d="M8459 6187 c35 -37 59 -53 28 -19 -8 9 -16 22 -16 27 -1 6 -4 10 -8 10 -5 0 -15 4 -23 9 -8 5 1 -7 19 -27z"/>
 <path d="M3793 5283 c93 -2 241 -2 330 0 89 1 14 3 -168 3 -181 0 -254 -2 -162 -3z"/>
 <path d="M3788 5263 c90 -2 234 -2 320 0 86 1 13 3 -163 3 -176 0 -247 -2 -157 -3z"/>
 </g>
<g id="layer105" fill="#ccbe9d" stroke="none">
 <path d="M7723 8450 c0 -30 2 -43 4 -27 2 15 2 39 0 55 -2 15 -4 2 -4 -28z"/>
 <path d="M7703 8360 c0 -30 2 -43 4 -27 2 15 2 39 0 55 -2 15 -4 2 -4 -28z"/>
 <path d="M2993 8240 c0 -30 2 -43 4 -27 2 15 2 39 0 55 -2 15 -4 2 -4 -28z"/>
 <path d="M3013 8200 c0 -30 2 -43 4 -27 2 15 2 39 0 55 -2 15 -4 2 -4 -28z"/>
 <path d="M7713 8075 c0 -22 2 -30 4 -17 2 12 2 30 0 40 -3 9 -5 -1 -4 -23z"/>
 <path d="M3598 8053 c56 -2 148 -2 205 0 56 1 10 3 -103 3 -113 0 -159 -2 -102 -3z"/>
 <path d="M3573 8033 c48 -2 126 -2 175 0 48 1 8 3 -88 3 -96 0 -136 -2 -87 -3z"/>
 <path d="M3842 7933 l2 -108 3 102 4 102 27 4 c25 4 24 4 -5 6 l-33 1 2 -107z"/>
 <path d="M7693 7955 c0 -33 2 -45 4 -27 2 18 2 45 0 60 -2 15 -4 0 -4 -33z"/>
 <path d="M7713 7975 c0 -22 2 -30 4 -17 2 12 2 30 0 40 -3 9 -5 -1 -4 -23z"/>
 <path d="M3413 7913 c75 -2 199 -2 275 0 75 1 13 3 -138 3 -151 0 -213 -2 -137 -3z"/>
 <path d="M6343 7913 c196 -2 518 -2 715 0 196 1 35 2 -358 2 -393 0 -554 -1 -357 -2z"/>
 <path d="M2505 7385 c0 -291 1 -409 2 -262 2 148 2 386 0 530 -1 144 -2 24 -2 -268z"/>
 <path d="M3003 7825 c0 -27 2 -38 4 -22 2 15 2 37 0 50 -2 12 -4 0 -4 -28z"/>
 <path d="M3022 7820 c0 -19 2 -27 5 -17 2 9 2 25 0 35 -3 9 -5 1 -5 -18z"/>
 <path d="M3373 7603 c53 -2 141 -2 195 0 53 1 9 3 -98 3 -107 0 -151 -2 -97 -3z"/>
 <path d="M4113 7603 c81 -2 213 -2 295 0 81 1 14 3 -148 3 -162 0 -229 -2 -147 -3z"/>
 <path d="M4108 7583 c83 -2 221 -2 305 0 83 1 15 3 -153 3 -168 0 -236 -2 -152 -3z"/>
 <path d="M1968 7523 c18 -2 45 -2 60 0 15 2 0 4 -33 4 -33 0 -45 -2 -27 -4z"/>
 <path d="M1978 7503 c12 -2 32 -2 45 0 12 2 2 4 -23 4 -25 0 -35 -2 -22 -4z"/>
 <path d="M3870 6980 c0 -12 8 -12 35 0 18 8 17 9 -7 9 -16 1 -28 -3 -28 -9z"/>
 <path d="M1864 6748 l-29 -33 33 29 c17 17 32 31 32 33 0 8 -8 1 -36 -29z"/>
 <path d="M1846 6178 c3 -5 9 -7 12 -4 8 8 33 -15 27 -24 -3 -5 -1 -11 4 -14 13 -8 7 22 -7 36 -15 15 -44 20 -36 6z"/>
 <path d="M8713 6083 c9 -2 25 -2 35 0 9 3 1 5 -18 5 -19 0 -27 -2 -17 -5z"/>
 <path d="M3803 5023 c130 -2 344 -2 475 0 130 1 23 2 -238 2 -261 0 -368 -1 -237 -2z"/>
 <path d="M4080 4613 l-95 -98 98 95 c53 52 97 96 97 97 0 8 -12 -4 -100 -94z"/>
 <path d="M3845 4378 l-90 -93 93 90 c50 49 92 91 92 92 0 8 -12 -4 -95 -89z"/>
 <path d="M5513 4253 c164 -2 430 -2 590 0 161 1 27 2 -298 2 -324 0 -456 -1 -292 -2z"/>
 <path d="M4614 3198 c-4 -7 -3 -10 1 -5 5 4 20 -3 34 -15 l26 -23 -24 28 c-28 31 -28 31 -37 15z"/>
 </g>
<g id="layer106" fill="#ffd372" stroke="none">
 <path d="M3540 8645 c0 -13 120 -15 1019 -15 891 0 1020 -2 1031 -15 9 -10 11 -45 8 -115 -3 -91 -2 -100 14 -100 16 0 18 12 18 130 l0 130 -1045 0 c-922 0 -1045 -2 -1045 -15z"/>
 <path d="M4553 8602 l-1013 -2 0 -255 0 -255 175 0 c149 0 175 -2 175 -15 0 -13 100 -15 839 -15 l839 0 7 266 c4 148 3 269 -1 272 -5 4 -465 6 -1021 4z m-647 -115 c4 -4 -3 -19 -17 -34 -24 -26 -10 -23 23 4 14 13 18 12 27 -6 15 -28 13 -220 -2 -249 -13 -22 -13 -22 -55 23 -23 25 -42 50 -42 55 0 9 -32 30 -47 30 -4 0 21 -29 57 -65 35 -35 60 -68 56 -72 -10 -11 -178 -17 -223 -8 l-36 6 34 37 c19 20 44 48 54 61 l20 25 -32 -23 c-18 -12 -33 -28 -33 -34 -1 -16 -48 -49 -60 -42 -6 4 -10 60 -10 134 0 158 9 174 64 109 20 -24 33 -35 30 -25 -4 11 -18 31 -33 45 -24 24 -24 26 -6 33 24 10 221 7 231 -4z m1434 -82 c0 -13 -77 -15 -630 -15 -346 0 -630 4 -630 8 0 5 3 12 7 15 3 4 287 7 630 7 547 0 623 -2 623 -15z m-140 -75 c0 -20 -5 -20 -557 -18 -522 3 -558 4 -561 21 -3 16 29 17 557 17 555 0 561 0 561 -20z m140 -70 c0 -20 -7 -20 -624 -20 -406 0 -627 4 -631 10 -3 6 -3 15 0 20 4 6 225 10 631 10 617 0 624 0 624 -20z"/>
 <path d="M3826 8382 l-29 -37 36 34 c39 36 42 41 30 41 -5 0 -21 -17 -37 -38z"/>
 <path d="M5598 8231 c3 -83 2 -161 -2 -175 l-6 -26 -850 0 -850 0 0 -100 0 -100 1015 0 1015 0 0 245 0 245 -145 0 -145 0 0 30 c0 22 -5 30 -18 30 -17 0 -18 -11 -14 -149z"/>
 <path d="M5940 8125 l0 -195 25 0 25 0 0 195 0 195 -25 0 -25 0 0 -195z"/>
 <path d="M1693 8009 c-23 -4 -53 -14 -67 -21 -23 -12 -19 -13 46 -14 58 -2 82 -8 143 -38 73 -36 74 -36 109 -19 l35 16 -31 23 c-58 43 -162 66 -235 53z"/>
 <path d="M2128 7990 c-41 -7 -148 -38 -148 -43 0 -1 47 -2 104 -2 101 0 105 -1 183 -41 l79 -41 30 23 c16 13 42 26 58 30 l30 6 -39 21 c-81 41 -212 62 -297 47z"/>
 <path d="M8973 7989 c-29 -3 -78 -21 -109 -39 l-56 -31 -47 19 c-125 54 -293 48 -415 -15 l-40 -20 37 -12 c19 -7 46 -20 59 -31 24 -18 25 -18 106 22 112 56 198 63 308 24 l76 -28 61 33 c48 25 77 33 141 38 l81 6 -45 17 c-61 22 -96 26 -157 17z"/>
 <path d="M1565 7941 c-12 -5 -26 -16 -34 -24 -11 -14 3 -30 94 -119 59 -57 115 -104 125 -106 10 -2 82 8 161 22 79 15 147 26 152 26 8 0 -108 146 -124 156 -5 3 -20 -3 -34 -12 -23 -15 -27 -15 -43 -1 -46 40 -107 61 -192 64 -47 1 -94 -1 -105 -6z"/>
 <path d="M1988 7918 l-28 -13 66 -77 c36 -43 70 -78 77 -78 26 1 248 47 254 53 13 13 -39 55 -110 88 -60 28 -86 34 -152 36 -49 2 -91 -2 -107 -9z"/>
 <path d="M9020 7921 c-35 -11 -92 -41 -112 -58 -14 -13 -20 -12 -44 3 -30 20 -15 32 -121 -93 l-42 -50 122 -21 c67 -12 142 -24 167 -28 l45 -5 108 108 108 109 -22 20 c-17 15 -38 19 -103 21 -44 1 -92 -1 -106 -6z"/>
 <path d="M8190 7866 l0 -51 19 32 c11 17 29 34 41 38 27 9 21 15 -24 25 l-36 8 0 -52z"/>
 <path d="M5938 7863 l-3 -48 -1022 -3 -1023 -2 0 -30 0 -30 1050 0 1050 0 0 80 c0 78 -1 80 -24 80 -23 0 -25 -5 -28 -47z"/>
 <path d="M8585 7896 c-97 -31 -195 -98 -167 -115 6 -4 67 -18 134 -31 l122 -23 49 54 c26 30 57 66 68 81 l20 27 -38 10 c-50 14 -138 13 -188 -3z"/>
 <path d="M2426 7890 c-15 -5 -36 -16 -46 -25 -16 -15 -16 -17 2 -54 24 -48 17 -92 -22 -154 -35 -56 -82 -92 -156 -120 -54 -21 -60 -27 -91 -87 -34 -67 -53 -172 -35 -198 6 -9 37 1 130 42 68 29 124 55 127 57 10 10 145 495 145 521 0 30 -6 32 -54 18z"/>
 <path d="M1491 7873 c-7 -15 -17 -19 -36 -16 -14 3 -25 1 -25 -3 0 -5 -8 -19 -18 -32 -17 -22 -21 -22 -67 -12 -26 6 -55 8 -63 5 -15 -5 1 -28 90 -129 l43 -48 145 22 c80 12 146 23 147 24 1 1 -44 48 -101 105 -95 95 -105 102 -115 84z"/>
 <path d="M8280 7873 c0 -5 30 -109 66 -233 37 -124 71 -244 77 -267 l10 -42 126 -55 c69 -30 129 -52 134 -49 21 13 0 135 -34 202 -31 59 -38 67 -83 84 -110 40 -187 125 -194 213 -3 38 0 61 11 78 15 22 15 25 -1 39 -31 28 -112 50 -112 30z"/>
 <path d="M1325 7856 l-30 -13 30 -7 c17 -4 37 -9 46 -12 10 -3 20 5 27 21 11 23 10 25 -16 25 -15 -1 -40 -7 -57 -14z"/>
 <path d="M8235 7850 c-31 -34 -31 -113 -1 -193 29 -76 32 -116 11 -202 -8 -33 -15 -94 -15 -135 l0 -75 81 81 81 81 -61 212 c-34 116 -65 220 -69 231 l-8 21 -19 -21z"/>
 <path d="M9160 7761 l-105 -98 65 -11 c109 -19 240 -35 243 -31 2 2 36 42 77 88 l75 84 -73 -6 -72 -6 -16 31 c-12 24 -20 29 -41 25 -15 -3 -27 1 -30 9 -3 8 -8 14 -12 14 -3 0 -53 -45 -111 -99z"/>
 <path d="M9372 7824 c9 -19 17 -24 32 -20 12 3 37 6 56 7 l35 1 -40 19 c-22 10 -52 19 -67 19 -26 0 -27 -2 -16 -26z"/>
 <path d="M1226 7777 c-35 -52 -45 -121 -23 -151 13 -17 20 -18 101 -6 l87 12 -68 77 c-37 42 -70 80 -74 85 -4 4 -14 -3 -23 -17z"/>
 <path d="M2335 7770 c-25 -4 -43 -24 -103 -113 -68 -100 -72 -107 -47 -103 91 17 196 133 183 203 -2 15 -9 17 -33 13z"/>
 <path d="M9455 7695 c-37 -42 -66 -78 -63 -80 2 -3 39 -10 81 -16 91 -14 107 -6 107 50 0 39 -33 121 -48 121 -5 0 -40 -34 -77 -75z"/>
 <path d="M2090 7725 c-91 -19 -168 -34 -172 -34 -6 -1 -118 -158 -118 -166 0 -3 21 2 103 28 41 13 54 13 94 1 25 -8 66 -14 89 -14 43 0 44 1 92 73 69 104 95 147 85 146 -4 -1 -82 -16 -173 -34z"/>
 <path d="M8400 7734 c0 -77 105 -190 186 -199 20 -2 16 7 -34 85 -81 124 -83 127 -119 134 -30 5 -33 3 -33 -20z"/>
 <path d="M2427 7588 l-46 -163 49 -50 50 -50 0 213 c0 116 -1 212 -3 212 -2 0 -24 -73 -50 -162z"/>
 <path d="M8500 7733 c0 -2 32 -51 70 -108 l70 -105 44 0 c23 0 64 6 89 14 40 12 53 12 94 -1 99 -31 103 -32 96 -20 -27 46 -105 157 -111 158 -4 0 -85 15 -179 33 -95 18 -173 31 -173 29z"/>
 <path d="M1715 7661 l-160 -26 -38 -55 c-35 -51 -37 -55 -18 -58 11 -2 40 5 63 15 38 17 47 17 83 5 22 -7 58 -16 81 -19 l42 -5 49 73 c54 81 66 100 61 98 -2 -1 -75 -13 -163 -28z"/>
 <path d="M8191 7440 c-1 -247 0 -260 30 -412 31 -156 32 -156 60 -160 23 -4 28 -1 24 11 -2 9 -14 57 -25 106 -12 50 -33 126 -46 170 -30 95 -34 206 -10 305 21 89 20 127 -8 185 l-24 50 -1 -255z"/>
 <path d="M8898 7655 c4 -5 29 -43 57 -84 l49 -73 42 6 c23 3 60 11 82 19 33 11 44 12 65 1 13 -7 43 -17 65 -23 l41 -9 -36 57 c-19 31 -37 58 -39 60 -9 10 -332 56 -326 46z"/>
 <path d="M1372 7610 c-68 -10 -126 -21 -128 -23 -9 -9 57 -49 103 -63 72 -22 95 -18 119 19 11 17 29 44 38 60 14 20 15 27 5 26 -8 -1 -70 -10 -137 -19z"/>
 <path d="M9264 7584 c11 -16 29 -44 40 -61 30 -47 89 -43 184 13 56 33 51 36 -93 53 -55 7 -111 15 -125 18 l-24 6 18 -29z"/>
 <path d="M3255 7474 c-3 -26 -9 -53 -12 -60 -4 -12 33 -14 217 -14 139 0 229 4 242 11 24 13 50 72 42 93 -5 14 -38 16 -244 16 l-238 0 -7 -46z"/>
 <path d="M3992 7510 c-13 -6 -29 -25 -37 -45 -30 -69 -49 -65 306 -65 l321 0 29 29 c19 20 29 40 29 60 l0 31 -312 -1 c-172 0 -323 -4 -336 -9z"/>
 <path d="M4660 7486 c0 -25 -9 -45 -29 -68 l-29 -33 -326 -3 c-181 -2 -326 -7 -326 -12 0 -5 12 -18 26 -29 26 -20 38 -21 361 -21 l335 0 29 29 c47 48 36 130 -22 161 -17 10 -19 7 -19 -24z"/>
 <path d="M3762 7483 c-3 -34 -30 -74 -63 -90 -17 -9 -90 -13 -245 -13 l-222 0 -4 -30 -5 -30 275 0 274 0 29 29 c39 39 41 100 4 136 -31 32 -40 31 -43 -2z"/>
 <path d="M2332 7258 c-23 -79 -42 -149 -42 -156 0 -11 142 -153 159 -160 16 -6 31 106 31 227 l0 127 -53 52 -53 53 -42 -143z"/>
 <path d="M8317 7292 l-78 -78 36 -135 c20 -74 40 -142 43 -152 6 -14 22 -3 88 65 l82 83 -40 140 c-22 77 -43 143 -47 147 -4 4 -42 -27 -84 -70z"/>
 <path d="M2198 7268 l-116 -51 5 -72 c8 -105 -14 -167 -84 -240 -30 -31 -53 -58 -51 -60 6 -5 233 17 241 24 10 10 136 451 128 451 -3 -1 -58 -24 -123 -52z"/>
 <path d="M5126 7281 c-10 -46 -196 -1323 -197 -1350 0 -14 8 -55 19 -91 11 -36 21 -58 21 -49 1 25 201 1342 204 1346 2 1 145 -184 318 -412 172 -228 319 -413 325 -411 7 3 170 120 364 260 l352 256 18 -23 c9 -12 185 -249 390 -527 205 -278 380 -512 389 -521 15 -16 48 6 431 281 228 164 416 297 417 296 2 -1 -40 -231 -92 -511 -52 -280 -93 -510 -91 -512 2 -2 28 26 58 62 l55 65 22 153 c58 398 79 552 75 559 -3 4 0 36 7 72 13 77 -5 153 -52 222 -56 81 -154 142 -236 147 l-48 2 0 -145 c0 -135 -2 -147 -23 -177 -32 -46 -112 -73 -212 -73 -43 0 -81 4 -84 8 -11 19 -38 218 -33 248 5 26 2 34 -13 39 -11 3 -31 20 -45 37 -31 37 -27 61 18 101 l32 28 -127 122 -128 122 -162 58 c-129 45 -175 57 -222 57 -57 0 -58 1 -52 24 6 24 4 25 -62 31 -60 5 -1572 220 -1614 229 -12 3 -19 -4 -22 -23z"/>
 <path d="M8508 7072 l67 -229 120 -11 c66 -5 122 -9 123 -7 2 2 -21 29 -52 61 -69 71 -81 105 -81 220 l1 91 -111 48 c-60 26 -115 49 -121 52 -7 2 18 -99 54 -225z"/>
 <path d="M8191 6989 c-1 -91 1 -108 15 -113 26 -10 28 -1 14 61 -7 32 -16 81 -20 108 -6 41 -7 31 -9 -56z"/>
 <path d="M6940 7060 c0 -14 37 -31 163 -76 l162 -58 132 -128 c73 -70 137 -128 142 -128 5 0 26 15 45 34 30 28 36 40 36 74 0 53 -33 92 -152 176 -81 59 -93 64 -155 71 -38 4 -137 17 -220 29 -143 22 -153 22 -153 6z"/>
 <path d="M2197 6791 c-42 -148 -77 -275 -77 -283 0 -14 217 -235 223 -227 19 21 29 68 37 181 10 124 40 333 59 404 8 30 5 36 -73 113 -45 44 -84 81 -87 81 -2 0 -39 -121 -82 -269z"/>
 <path d="M8411 6966 l-83 -84 26 -141 c14 -77 31 -205 37 -284 11 -137 31 -221 47 -201 5 5 56 59 115 119 l106 111 -80 274 c-43 151 -80 278 -82 283 -1 4 -40 -30 -86 -77z"/>
 <path d="M3590 6940 c-96 -16 -192 -29 -213 -29 -31 -1 -56 -14 -137 -76 -112 -85 -140 -118 -140 -169 0 -27 8 -43 37 -71 20 -19 40 -35 45 -35 5 0 69 58 141 128 l132 128 163 59 c130 46 162 62 162 76 0 11 -3 18 -7 18 -5 -1 -87 -14 -183 -29z"/>
 <path d="M2448 6780 c-28 -147 -54 -358 -46 -380 2 -7 21 59 42 146 33 143 37 170 34 269 l-3 110 -27 -145z"/>
 <path d="M8180 6838 c0 -13 -11 -42 -24 -65 l-25 -43 44 -51 c24 -28 54 -76 66 -107 l23 -55 23 158 c12 87 21 160 19 163 -7 6 -79 21 -103 22 -17 0 -23 -6 -23 -22z"/>
 <path d="M2036 6828 c-88 -9 -101 -13 -122 -36 -58 -68 -77 -270 -36 -397 13 -38 39 -91 57 -117 36 -50 123 -108 162 -108 19 0 21 -3 13 -30 -8 -29 -7 -31 13 -24 58 17 110 46 151 84 25 24 46 46 46 51 0 11 -200 219 -210 219 -3 0 -19 -45 -35 -100 -16 -55 -32 -100 -37 -100 -4 0 -8 5 -8 11 0 9 139 499 155 547 5 14 -3 14 -149 0z"/>
 <path d="M8599 6759 c10 -35 46 -159 80 -275 63 -217 67 -234 53 -234 -5 0 -21 45 -37 100 -15 55 -30 100 -34 100 -3 0 -55 -49 -114 -108 l-108 -108 44 -42 c46 -41 109 -78 159 -93 26 -7 27 -6 21 22 -4 23 -2 29 11 29 31 0 113 48 146 86 18 21 41 57 52 81 24 55 48 165 48 223 0 72 -27 180 -55 220 -28 41 -19 38 -212 56 l-72 7 18 -64z"/>
 <path d="M8314 6712 c-9 -67 -8 -81 23 -200 l33 -127 -6 110 c-3 61 -13 151 -23 200 l-17 90 -10 -73z"/>
 <path d="M3337 6680 l-68 -60 656 0 655 0 0 60 0 60 -588 0 -588 0 -67 -60z"/>
 <path d="M8065 6704 c-22 -8 -59 -19 -81 -24 -23 -6 -54 -20 -69 -32 -31 -25 -24 -32 43 -42 128 -19 252 -145 278 -281 4 -22 12 -35 22 -35 13 0 14 13 9 93 -7 103 -23 158 -69 232 -33 52 -78 106 -87 104 -3 -1 -24 -8 -46 -15z"/>
 <path d="M2568 6571 c-70 -82 -118 -215 -118 -328 0 -47 4 -63 14 -63 8 0 16 15 20 38 22 133 142 255 272 277 71 12 76 15 63 31 -19 23 -47 35 -119 54 -36 9 -72 20 -81 24 -12 5 -26 -5 -51 -33z"/>
 <path d="M2446 6475 c-86 -358 -333 -1134 -356 -1120 -4 3 26 103 67 222 69 201 213 665 213 687 0 5 -16 -11 -34 -36 -43 -56 -114 -104 -186 -125 l-55 -17 -55 -180 c-51 -166 -55 -189 -55 -276 1 -75 6 -107 24 -153 27 -69 92 -153 140 -181 l34 -20 17 22 c47 57 132 317 174 527 14 72 33 164 42 206 10 47 15 100 12 140 -7 87 7 188 35 257 18 45 22 69 17 112 l-5 55 -29 -120z"/>
 <path d="M8286 6550 c-3 -17 -3 -88 0 -158 5 -105 12 -151 44 -267 22 -77 46 -182 55 -234 35 -210 127 -512 179 -592 26 -38 27 -39 54 -25 44 23 65 51 54 73 -59 110 -336 1022 -358 1176 -8 57 -19 68 -28 27z"/>
 <path d="M3270 6466 c0 -15 -14 -36 -37 -57 -34 -30 -38 -38 -39 -83 0 -28 -4 -70 -8 -93 l-8 -43 781 0 781 0 0 150 0 150 -735 0 -735 0 0 -24z"/>
 <path d="M8400 6257 c0 -35 263 -857 290 -906 10 -19 56 61 81 140 32 104 26 170 -37 385 l-56 191 -52 17 c-67 21 -151 79 -193 134 -18 24 -33 41 -33 39z"/>
 <path d="M8281 6162 c-1 -13 -7 -35 -15 -50 -11 -23 -11 -41 4 -128 50 -283 164 -619 235 -690 40 -40 47 -27 16 34 -61 122 -125 345 -170 594 -22 119 -68 279 -70 240z"/>
 <path d="M2986 6072 c-2 -4 12 -25 31 -47 20 -22 50 -57 68 -77 l32 -38 67 75 c37 41 64 79 61 85 -7 12 -251 14 -259 2z"/>
 <path d="M3469 6063 c6 -10 37 -47 71 -83 l60 -65 69 75 c38 41 67 78 64 83 -2 4 -65 7 -139 7 -125 0 -134 -1 -125 -17z"/>
 <path d="M3946 6072 c-2 -4 27 -41 65 -82 l70 -74 69 74 c47 51 65 77 57 82 -16 10 -254 10 -261 0z"/>
 <path d="M2946 6038 c-12 -17 -16 -49 -16 -141 0 -118 0 -119 29 -148 29 -29 30 -29 155 -29 77 0 127 4 131 11 4 5 -17 36 -47 67 -30 31 -59 66 -66 77 -10 19 -16 14 -86 -60 -41 -44 -75 -75 -75 -70 0 6 31 43 69 84 l69 74 -59 67 c-84 95 -85 95 -104 68z"/>
 <path d="M3197 5983 c-37 -41 -67 -79 -65 -83 2 -5 32 -41 67 -80 85 -95 91 -89 91 85 0 94 -4 136 -12 143 -10 8 -30 -9 -81 -65z"/>
 <path d="M3432 6048 c-15 -15 -16 -266 -2 -288 9 -12 24 0 85 64 84 91 85 70 -9 179 -54 62 -56 63 -74 45z"/>
 <path d="M3690 5998 c-82 -91 -84 -94 -63 -115 10 -10 40 -44 67 -76 27 -31 52 -57 56 -57 16 0 23 37 26 135 3 95 -8 176 -24 174 -4 0 -32 -28 -62 -61z"/>
 <path d="M3912 6048 c-17 -17 -17 -268 1 -292 12 -16 16 -14 49 26 20 23 52 60 72 82 28 30 32 41 23 52 -7 7 -37 42 -67 78 -30 36 -57 66 -60 66 -3 0 -11 -5 -18 -12z"/>
 <path d="M4185 6008 c-22 -24 -52 -58 -68 -75 l-29 -33 35 -37 c19 -21 50 -56 70 -78 51 -57 61 -42 65 98 3 106 -6 167 -26 167 -5 0 -26 -19 -47 -42z"/>
 <path d="M6275 6021 c-101 -46 -155 -130 -155 -241 0 -76 22 -130 71 -179 104 -104 274 -100 372 9 74 83 89 195 39 291 -62 118 -211 173 -327 120z"/>
 <path d="M2416 5928 c-39 -222 -110 -467 -171 -587 -27 -55 -19 -66 20 -27 51 51 129 245 186 464 29 113 38 202 19 202 -5 0 -15 12 -23 26 -12 24 -14 19 -31 -78z"/>
 <path d="M3526 5814 c-37 -41 -65 -78 -61 -82 9 -10 188 -15 231 -8 19 4 34 12 34 18 0 6 -30 41 -67 79 l-68 69 -69 -76z"/>
 <path d="M4006 5811 c-38 -39 -65 -74 -62 -80 9 -13 244 -15 265 -2 10 6 -3 26 -54 80 -37 39 -70 71 -74 71 -4 0 -37 -31 -75 -69z"/>
 <path d="M4886 5659 c-15 -105 -26 -192 -24 -194 6 -5 161 -25 165 -21 2 2 -1 22 -7 45 -10 37 -14 41 -51 47 -38 6 -39 8 -34 38 23 135 23 152 7 214 -9 34 -19 62 -22 62 -3 0 -18 -86 -34 -191z"/>
 <path d="M5034 5513 c4 -10 10 -30 13 -46 3 -15 9 -29 13 -32 9 -6 2673 -395 2697 -394 10 0 31 16 46 34 l28 34 -23 5 c-13 3 -633 96 -1378 206 -745 110 -1366 202 -1379 205 -20 5 -22 3 -17 -12z"/>
 <path d="M3115 5375 c-22 -8 -59 -34 -82 -58 -87 -92 -84 -216 8 -308 37 -38 57 -49 103 -60 49 -11 64 -10 110 4 60 19 121 72 143 125 17 42 19 125 3 167 -20 53 -61 96 -114 121 -58 27 -112 30 -171 9z"/>
 <path d="M8037 5324 c-31 -36 -58 -76 -60 -88 -3 -11 -11 -47 -17 -80 l-12 -59 -47 6 c-45 5 -49 4 -75 -29 -15 -20 -26 -37 -24 -38 8 -6 232 -35 237 -31 6 7 62 377 57 382 -2 2 -29 -26 -59 -63z"/>
 <path d="M3953 5293 l327 -3 0 -40 c0 -33 3 -40 20 -40 17 0 20 7 20 45 l0 45 -347 -2 -348 -3 328 -2z"/>
 <path d="M3630 5235 l0 -25 315 0 315 0 0 25 0 25 -315 0 -315 0 0 -25z"/>
 <path d="M3635 5150 c-4 -7 157 -10 474 -10 l481 0 0 -40 c0 -33 3 -40 20 -40 17 0 20 7 20 50 l0 50 -494 0 c-319 0 -497 -4 -501 -10z"/>
 <path d="M3630 5090 l0 -30 470 0 470 0 0 30 0 30 -470 0 -470 0 0 -30z"/>
 <path d="M2500 4645 l0 -185 713 0 713 0 29 30 28 29 -382 3 -383 3 -19 24 c-15 18 -19 39 -19 92 0 118 -43 109 543 109 357 0 504 3 520 12 12 6 39 24 61 40 l39 28 -921 0 -922 0 0 -185z"/>
 <path d="M4567 4790 l-28 -40 628 0 628 0 -45 40 -45 39 -555 0 -555 1 -28 -40z"/>
 <path d="M5740 4826 c0 -2 21 -20 47 -40 l46 -36 776 0 776 1 55 39 55 40 -878 0 c-482 0 -877 -2 -877 -4z"/>
 <path d="M7475 4792 l-49 -37 42 -6 c61 -8 75 -27 80 -104 4 -61 3 -66 -26 -95 l-30 -30 -196 0 c-195 0 -197 0 -236 -26 -22 -15 -40 -28 -40 -30 0 -2 259 -4 575 -4 l575 0 0 185 0 185 -322 -1 -323 0 -50 -37z m473 -64 c3 -16 -8 -18 -132 -18 -107 0 -136 3 -136 13 0 25 14 28 139 25 111 -3 126 -5 129 -20z m0 -75 c-3 -16 -17 -18 -133 -18 -116 0 -130 2 -133 18 -3 15 8 17 133 17 125 0 136 -2 133 -17z m-3 -73 c0 -12 -22 -15 -124 -18 -120 -3 -151 4 -136 27 4 8 48 11 133 9 105 -3 127 -6 127 -18z"/>
 <path d="M4356 4498 c-9 -12 -16 -26 -16 -30 0 -5 404 -8 897 -8 l897 0 -29 30 -29 30 -852 0 -853 0 -15 -22z"/>
 <path d="M6140 4490 l34 -30 401 0 400 0 38 25 c20 14 37 28 37 30 0 3 -213 5 -472 5 l-473 -1 35 -29z"/>
 <path d="M3680 4208 c-66 -99 -115 -217 -131 -312 -24 -142 4 -314 67 -423 23 -41 27 -43 70 -43 25 0 62 -9 84 -20 30 -15 719 -182 834 -202 10 -2 24 6 33 18 14 21 11 23 -94 75 -182 90 -443 250 -443 272 0 13 110 2 154 -17 19 -8 55 -33 79 -56 41 -37 47 -40 71 -29 32 15 32 21 0 89 -35 77 -83 131 -145 165 -49 27 -63 30 -146 30 -51 0 -93 1 -93 3 0 1 47 59 105 129 58 69 105 129 105 134 0 4 -20 33 -44 66 -96 127 -248 203 -405 203 l-47 0 -54 -82z"/>
 </g>
<g id="layer107" fill="#ffffff" stroke="none">
 <path d="M0 5400 l0 -5400 5400 0 5400 0 0 5400 0 5400 -5400 0 -5400 0 0 -5400z m7691 3280 c11 -6 19 -21 19 -35 0 -13 5 -27 10 -30 7 -5 9 -97 5 -283 l-6 -277 36 65 c35 61 49 74 221 199 101 74 184 134 184 135 0 1 -9 30 -20 64 -11 35 -20 77 -20 93 0 26 2 28 19 20 10 -6 51 -58 90 -115 l71 -105 -49 -59 c-27 -32 -119 -123 -205 -202 -149 -137 -156 -146 -156 -182 l0 -38 149 0 c83 0 152 -4 155 -9 4 -5 28 -12 55 -16 40 -5 57 -2 97 18 127 63 291 70 414 16 l44 -20 71 36 c61 31 80 36 140 36 59 0 85 -6 170 -41 55 -23 117 -54 137 -71 20 -16 48 -29 63 -29 14 0 42 -7 63 -16 20 -9 59 -22 85 -30 139 -43 204 -210 116 -300 -48 -50 -114 -69 -234 -68 -65 1 -115 7 -142 17 -39 15 -46 15 -80 1 -62 -26 -145 -21 -216 14 -58 28 -65 30 -122 20 -33 -5 -86 -8 -117 -6 l-57 4 31 -35 c39 -44 85 -142 94 -198 3 -25 1 -93 -6 -153 -9 -85 -9 -122 0 -167 16 -78 31 -104 102 -180 77 -83 108 -151 115 -251 14 -210 -79 -388 -225 -428 l-59 -17 14 -66 c8 -36 33 -136 55 -221 56 -220 58 -238 47 -315 -16 -117 -70 -205 -150 -246 -53 -26 -63 -25 -112 19 -23 21 -54 45 -68 54 -71 45 -205 426 -250 713 -7 44 -20 90 -29 101 -16 21 -17 16 -34 -104 -15 -111 -17 -219 -16 -929 l0 -803 -727 0 -727 0 -64 -42 -64 -42 37 -18 c53 -28 82 -108 39 -108 -8 0 -19 11 -24 24 -10 28 -47 56 -73 56 -24 0 -67 -44 -67 -69 0 -11 20 -43 45 -71 30 -34 47 -63 51 -90 5 -30 12 -41 35 -51 54 -22 84 -85 68 -144 -11 -38 -60 -85 -90 -85 -19 0 -19 -16 -19 -695 0 -761 3 -720 -60 -780 -29 -28 -37 -30 -103 -30 l-72 0 -778 488 c-547 344 -788 490 -813 493 -51 6 -120 42 -152 78 -28 32 -39 35 -408 120 -208 48 -389 90 -401 93 -21 5 -23 1 -23 -30 0 -24 8 -45 25 -63 44 -47 45 -113 6 -264 -25 -95 -57 -135 -119 -146 -71 -14 -152 36 -169 104 -3 15 -18 43 -33 62 -29 37 -50 89 -50 124 0 75 55 156 126 188 58 25 61 48 19 134 -101 205 -82 453 51 673 l51 86 -613 3 -614 2 0 813 -1 812 -29 -110 c-62 -239 -148 -441 -199 -473 -14 -8 -42 -30 -61 -48 -53 -49 -77 -51 -135 -12 -58 39 -96 92 -120 166 -30 96 -24 165 38 407 73 289 72 265 16 279 -66 17 -109 46 -151 101 -56 74 -83 169 -83 290 0 136 18 185 100 275 113 123 134 190 114 366 -10 90 -10 125 0 169 15 67 52 139 94 184 l32 33 -50 -6 c-27 -4 -83 -2 -123 4 -70 10 -75 9 -118 -16 -60 -35 -156 -44 -219 -19 -42 16 -49 16 -93 1 -143 -50 -332 -14 -389 73 -43 64 -22 162 48 228 34 32 191 93 239 93 12 0 40 16 62 35 23 19 57 40 77 46 20 6 63 23 96 36 42 18 78 25 120 25 64 0 153 -28 186 -58 18 -16 23 -15 101 11 134 44 275 37 391 -22 26 -13 53 -21 59 -17 5 4 75 6 154 5 79 -1 144 0 144 2 0 3 -69 69 -153 148 -85 79 -154 148 -154 152 -1 5 -14 22 -29 38 l-28 29 70 102 c105 154 132 159 96 20 -19 -73 -20 -87 -8 -94 60 -34 353 -259 365 -281 9 -16 26 -45 39 -65 l23 -37 -7 261 c-8 317 -2 359 55 369 54 8 278 11 286 3 15 -14 -8 -27 -96 -54 l-91 -29 7 -35 c3 -19 32 -145 64 -280 l57 -245 277 -3 277 -2 0 50 0 50 -172 2 -173 3 0 295 0 295 28 3 c15 2 27 9 27 18 0 12 144 14 1045 14 l1045 0 0 -130 0 -130 155 0 155 0 0 -40 c0 -36 3 -40 25 -40 l25 0 0 -195 0 -195 715 0 c393 0 715 3 715 8 0 4 32 147 71 317 39 171 74 319 76 330 4 19 -6 24 -85 48 -49 14 -95 33 -102 42 -11 13 4 15 139 15 86 0 161 -5 172 -10z"/>
 <path d="M3500 8330 l0 -270 195 0 c167 0 195 2 195 15 0 13 -26 15 -175 15 l-175 0 0 255 c0 248 -1 255 -20 255 -20 0 -20 -7 -20 -270z"/>
 <path d="M7586 8578 c-3 -13 -40 -173 -82 -356 l-76 -333 56 -307 c32 -169 60 -319 62 -335 l6 -27 29 21 c43 30 83 94 113 179 14 41 35 81 46 90 31 24 35 70 10 126 -12 27 -30 101 -40 164 -16 103 -17 148 -10 410 5 162 9 316 10 343 l0 47 -60 0 c-54 0 -60 -2 -64 -22z"/>
 <path d="M3015 8188 c3 -161 8 -309 10 -329 7 -57 -32 -294 -55 -332 -29 -46 -26 -90 9 -129 15 -18 36 -58 46 -88 24 -75 57 -131 102 -170 l38 -33 7 29 c4 16 32 167 63 337 l56 307 -71 313 c-40 171 -76 329 -81 350 l-10 37 -60 0 -60 0 6 -292z"/>
 <path d="M7981 8300 c-168 -125 -176 -133 -214 -203 -23 -40 -44 -94 -48 -122 -9 -65 23 -275 51 -330 15 -29 19 -50 15 -76 l-6 -36 58 -5 c32 -3 66 -9 76 -13 26 -11 22 45 -8 114 -21 48 -26 78 -33 211 -5 85 -6 160 -3 167 3 6 78 77 166 158 88 81 169 155 179 165 19 18 18 19 -13 59 -18 23 -36 41 -39 41 -4 -1 -85 -59 -181 -130z"/>
 <path d="M5630 8350 l0 -30 145 0 145 0 0 30 0 30 -145 0 -145 0 0 -30z"/>
 <path d="M2521 8281 c-17 -21 -31 -42 -31 -46 0 -4 24 -28 52 -53 29 -26 111 -101 182 -167 l129 -120 -7 -163 c-5 -135 -10 -171 -27 -203 -11 -22 -24 -60 -28 -85 l-9 -46 27 7 c14 3 49 9 76 12 l50 5 1 48 c0 26 7 59 16 72 20 30 48 196 48 283 0 62 -4 76 -45 151 -35 64 -57 91 -98 120 -28 21 -104 77 -167 124 -63 47 -120 89 -127 93 -7 4 -24 -9 -42 -32z"/>
 <path d="M3850 7930 c0 -93 1 -100 20 -100 19 0 20 7 20 100 0 93 -1 100 -20 100 -19 0 -20 -7 -20 -100z"/>
 <path d="M1461 7886 c-22 -23 -22 -23 -1 -29 14 -3 24 1 31 15 17 32 -4 42 -30 14z"/>
 <path d="M2509 7298 c-2 -337 -2 -647 1 -690 l5 -76 38 44 38 44 -19 25 c-11 14 -25 48 -32 75 -23 95 17 156 158 241 124 76 137 123 56 201 -24 24 -51 57 -59 75 -15 30 -14 36 1 68 9 20 29 44 44 55 23 16 28 29 33 80 3 33 14 79 26 103 18 37 21 64 23 202 l3 160 -156 3 -157 2 -3 -612z"/>
 <path d="M3280 7904 c0 -3 7 -32 15 -64 13 -52 13 -67 0 -137 -8 -43 -15 -81 -15 -85 0 -3 91 -8 203 -10 224 -3 248 -9 270 -69 6 -16 15 -29 20 -29 4 0 19 -11 32 -25 37 -36 35 -97 -4 -136 l-29 -29 -274 0 -273 0 -23 -107 c-12 -59 -19 -110 -14 -115 4 -4 38 -20 76 -35 83 -34 116 -69 98 -108 -9 -19 -9 -25 1 -25 7 0 130 18 275 40 273 42 327 46 352 30 21 -14 -1 -27 -62 -35 -40 -6 -47 -10 -38 -21 20 -23 1 -34 -61 -34 -81 0 -349 -95 -393 -140 l-31 -30 588 0 587 0 0 -60 0 -60 -653 0 -653 0 -36 -36 -37 -35 33 -30 34 -29 736 0 736 0 0 -150 0 -150 -779 0 -779 0 -7 -32 c-15 -75 -8 -71 -109 -66 -145 7 -211 47 -225 136 -4 20 -2 76 2 125 5 48 6 99 3 113 -7 25 -10 26 -53 20 -111 -15 -213 -91 -262 -195 l-26 -56 -3 -702 -3 -703 921 0 921 0 127 89 c70 50 141 101 158 115 l31 25 65 -67 c139 -143 142 -175 10 -112 -35 17 -67 30 -72 30 -4 0 -19 -18 -34 -40 l-26 -40 552 0 c304 0 548 4 543 8 -6 5 -151 127 -323 272 -172 144 -318 272 -324 285 -9 19 -23 24 -106 36 l-97 14 -3 33 -3 32 -940 0 c-619 0 -939 3 -939 10 0 7 322 10 945 10 639 0 945 3 945 10 0 20 262 1785 265 1789 2 2 362 -49 800 -113 638 -93 800 -114 817 -105 28 15 103 8 353 -31 311 -48 289 -47 275 -20 -24 45 -6 68 90 112 77 35 89 44 85 62 -2 12 -11 50 -19 86 -8 36 -36 183 -62 328 l-48 262 -708 0 -708 0 0 -80 0 -80 -1050 0 -1050 0 0 29 c0 26 -4 30 -32 33 -32 3 -33 5 -36 51 l-3 47 -270 0 c-148 0 -269 -3 -269 -6z m1289 -304 c21 -6 59 -35 98 -75 56 -58 63 -69 63 -106 0 -31 -6 -47 -29 -70 l-29 -29 -338 0 -337 0 -33 35 c-18 19 -37 35 -42 35 -30 0 -72 81 -64 127 5 32 57 81 90 86 58 9 589 7 621 -3z m-1324 -1530 c4 -6 -24 -44 -61 -86 l-68 -76 -32 39 c-17 21 -47 56 -67 78 -19 22 -33 43 -31 47 8 12 252 10 259 -2z m488 3 c3 -5 -26 -42 -64 -83 l-68 -75 -61 65 c-99 106 -102 100 54 100 74 0 137 -3 139 -7z m474 -1 c8 -5 -8 -30 -52 -77 -36 -38 -65 -74 -65 -79 0 -5 31 24 70 65 90 96 95 92 95 -81 0 -162 -8 -175 -68 -109 -23 25 -55 62 -72 82 -16 19 -62 71 -102 113 -39 43 -69 82 -67 86 7 10 245 10 261 0z m-1146 -114 l50 -57 -70 -73 c-39 -40 -71 -77 -71 -83 0 -13 86 73 113 112 26 39 42 41 58 11 6 -13 34 -46 61 -75 28 -28 47 -56 44 -62 -5 -7 -52 -11 -132 -11 -125 0 -126 0 -155 29 -29 29 -29 30 -29 148 0 93 4 124 16 142 l16 22 25 -23 c14 -13 47 -49 74 -80z m229 -53 c0 -174 -5 -179 -94 -84 -36 40 -66 76 -66 81 0 6 30 43 68 83 49 53 70 70 80 63 8 -8 12 -49 12 -143z m236 73 c38 -45 99 -114 137 -154 37 -40 67 -77 67 -83 0 -6 -15 -13 -34 -17 -44 -8 -222 -2 -232 8 -4 5 18 34 48 65 30 32 61 69 68 83 7 14 -21 -11 -63 -55 -63 -65 -79 -77 -87 -65 -14 22 -13 273 2 288 7 7 15 12 18 12 4 0 37 -37 76 -82z m243 45 c11 -42 8 -228 -4 -255 -4 -10 -11 -18 -15 -18 -4 0 -29 26 -56 58 -27 31 -57 63 -66 70 -10 7 -18 18 -18 24 0 12 130 156 142 157 4 1 12 -16 17 -36z m225 -33 c31 -36 61 -71 67 -78 7 -9 0 -22 -27 -50 -20 -20 -52 -57 -72 -80 -33 -40 -37 -42 -49 -26 -18 24 -18 275 -1 292 17 17 19 15 82 -58z m161 -181 c51 -54 64 -74 54 -80 -21 -13 -256 -11 -265 2 -6 10 122 149 137 149 4 0 37 -32 74 -71z m-869 -443 c53 -25 94 -68 114 -121 16 -42 14 -125 -3 -167 -22 -53 -83 -106 -143 -125 -46 -14 -61 -15 -110 -4 -46 11 -66 22 -103 60 -92 92 -95 216 -8 308 71 74 162 92 253 49z m1034 -111 c0 -38 -3 -45 -20 -45 -13 0 -20 -7 -20 -20 0 -20 -7 -20 -355 -20 l-355 0 0 59 0 60 33 4 c17 2 186 5 375 5 l342 2 0 -45z m310 -145 c0 -43 -3 -50 -20 -50 -11 0 -20 -6 -20 -14 0 -22 -92 -26 -571 -26 l-449 0 0 60 c0 60 0 60 29 60 17 0 33 5 36 10 4 6 182 10 501 10 l494 0 0 -50z"/>
 <path d="M3905 7555 c-36 -35 -35 -97 2 -131 l27 -25 13 44 c7 25 20 51 29 58 14 11 86 15 343 19 l326 5 -27 28 -27 27 -331 0 -331 0 -24 -25z"/>
 <path d="M3590 5230 l0 -40 335 0 c217 0 335 4 335 10 0 6 -112 10 -315 10 l-315 0 0 30 c0 23 -4 30 -20 30 -17 0 -20 -7 -20 -40z"/>
 <path d="M3590 5085 l0 -35 493 2 492 3 -472 2 -473 3 0 30 c0 23 -4 30 -20 30 -16 0 -20 -7 -20 -35z"/>
 <path d="M7895 7799 c4 -75 13 -125 26 -155 11 -24 23 -68 26 -97 5 -43 13 -58 45 -89 57 -57 54 -93 -16 -168 -92 -100 -85 -137 41 -215 46 -28 99 -66 118 -85 l35 -34 0 477 0 477 -141 0 -142 0 8 -111z"/>
 <path d="M9277 7874 c-13 -14 13 -42 33 -37 20 5 20 7 4 24 -18 20 -27 23 -37 13z"/>
 <path d="M1176 7768 c-43 -35 -75 -97 -76 -145 0 -31 0 -31 43 -26 66 7 70 10 56 34 -14 28 -4 95 21 137 26 42 7 42 -44 0z"/>
 <path d="M9556 7733 c26 -50 31 -112 13 -130 -13 -13 2 -18 70 -26 l33 -4 -4 48 c-6 55 -36 105 -83 137 -47 33 -55 27 -29 -25z"/>
 <path d="M1170 7583 c-63 -7 -66 -11 -35 -43 35 -36 99 -59 191 -67 66 -5 114 5 114 25 0 4 -28 13 -62 19 -39 8 -78 24 -105 42 -24 17 -49 30 -56 29 -7 0 -28 -3 -47 -5z"/>
 <path d="M3268 7550 l-5 -30 239 0 c139 0 238 4 238 9 0 5 -12 19 -26 30 -25 20 -39 21 -234 21 l-208 0 -4 -30z"/>
 <path d="M1918 7557 c-52 -20 -28 -27 90 -26 104 1 111 2 57 9 -33 5 -73 13 -88 19 -16 6 -29 11 -30 10 -1 -1 -14 -6 -29 -12z"/>
 <path d="M9481 7534 c-33 -20 -74 -36 -103 -40 -50 -7 -56 -12 -36 -32 23 -23 189 -7 250 24 35 18 70 56 61 65 -5 4 -33 9 -63 12 -50 5 -60 2 -109 -29z"/>
 <path d="M1565 7538 c-22 -9 -49 -18 -61 -18 -11 0 -29 -9 -39 -20 -17 -19 -17 -19 11 -11 16 5 37 12 47 16 9 4 35 0 57 -9 57 -23 152 -21 174 3 16 17 15 18 -28 24 -24 4 -61 12 -83 20 -34 12 -43 11 -78 -5z"/>
 <path d="M8775 7535 c-22 -8 -62 -15 -90 -16 -47 -2 -46 -2 18 -8 38 -3 96 -4 130 -1 l62 6 -39 17 c-21 9 -39 17 -40 16 0 -1 -19 -7 -41 -14z"/>
 <path d="M9149 7530 c-7 -5 -41 -14 -76 -21 -35 -7 -63 -16 -63 -20 0 -31 115 -39 180 -13 22 9 48 13 57 9 10 -4 31 -11 47 -16 28 -8 28 -8 11 11 -10 11 -28 20 -39 20 -12 0 -40 9 -62 19 -25 11 -47 16 -55 11z"/>
 <path d="M2088 7478 c-21 -23 -50 -65 -63 -93 -26 -52 -52 -171 -41 -182 4 -4 25 2 47 13 l41 20 3 72 c1 62 7 83 38 142 20 39 31 70 25 70 -6 0 -28 -19 -50 -42z"/>
 <path d="M8658 7429 c30 -59 37 -82 39 -142 2 -76 6 -82 72 -102 24 -7 24 -7 18 49 -7 69 -51 165 -102 224 -57 66 -69 53 -27 -29z"/>
 <path d="M2027 7193 l-39 -16 7 -91 c4 -63 1 -109 -8 -148 -13 -54 -13 -56 3 -45 75 53 120 195 94 295 -7 26 -7 26 -57 5z"/>
 <path d="M8685 7145 c-9 -53 0 -135 19 -179 12 -29 84 -111 91 -104 2 2 -3 28 -11 58 -11 40 -13 80 -9 146 l7 91 -29 11 c-15 5 -36 13 -45 17 -14 5 -18 -2 -23 -40z"/>
 <path d="M5167 7113 c-2 -15 -49 -322 -103 -681 l-98 -654 29 -114 c16 -63 33 -120 36 -126 5 -7 570 -95 1371 -214 750 -111 1378 -205 1396 -208 31 -5 37 0 103 77 39 45 75 91 80 102 9 19 201 1037 196 1041 -1 1 -189 -132 -417 -296 -383 -275 -416 -297 -431 -281 -9 9 -184 243 -389 521 -205 278 -381 515 -390 527 l-18 23 -353 -257 c-194 -141 -358 -256 -365 -257 -6 -1 -150 181 -319 404 -169 223 -311 409 -315 413 -4 5 -10 -4 -13 -20z m1285 -1083 c97 -27 178 -135 178 -237 0 -80 -18 -128 -67 -183 -122 -136 -349 -101 -424 65 -27 59 -25 157 5 220 52 114 181 170 308 135z"/>
 <path d="M6848 7083 c26 -5 28 -18 5 -32 -14 -8 -9 -10 25 -11 35 0 42 3 42 19 0 22 -20 32 -63 30 -24 -1 -26 -3 -9 -6z"/>
 <path d="M3813 6973 c-7 -2 -13 -13 -13 -24 0 -16 7 -19 42 -19 39 0 41 1 22 15 -16 13 -17 16 -4 25 12 8 10 10 -10 9 -14 0 -31 -3 -37 -6z"/>
 <path d="M1853 6727 c-72 -75 -100 -207 -73 -347 31 -163 132 -271 255 -272 62 -1 71 4 77 37 4 20 1 25 -16 25 -38 0 -125 59 -161 108 -53 74 -80 168 -78 282 1 54 8 116 17 145 8 27 14 50 12 52 -1 1 -16 -12 -33 -30z"/>
 <path d="M8885 6735 c16 -48 35 -154 35 -195 0 -58 -24 -168 -48 -223 -11 -24 -34 -60 -52 -81 -33 -37 -115 -86 -145 -86 -16 0 -20 -27 -6 -49 6 -10 27 -12 77 -9 82 4 128 31 179 102 52 73 70 144 70 271 0 98 -3 116 -26 165 -27 56 -97 143 -84 105z"/>
 <path d="M7540 6418 c0 -59 8 -98 20 -98 18 0 70 53 70 70 0 11 -15 30 -32 43 -58 43 -58 43 -58 -15z"/>
 <path d="M3138 6334 c-45 -28 -51 -39 -44 -67 4 -19 51 -57 69 -57 9 0 19 82 15 116 l-3 31 -37 -23z"/>
 <path d="M8236 6244 c-9 -25 -7 -64 4 -64 6 0 11 -10 11 -22 1 -19 3 -17 9 7 13 52 11 95 -4 95 -8 0 -17 -7 -20 -16z"/>
 <path d="M2451 6118 c1 -24 5 -56 9 -73 8 -30 8 -30 9 -3 0 14 6 28 12 30 17 6 1 88 -17 88 -10 0 -14 -12 -13 -42z"/>
 <path d="M2074 6082 c-18 -12 -134 -490 -134 -553 0 -117 63 -244 141 -284 38 -20 51 -19 83 6 l28 22 -38 21 c-51 28 -117 111 -145 183 -18 46 -23 78 -24 153 0 87 4 109 53 268 52 170 58 198 36 184z"/>
 <path d="M8680 6063 c0 -4 25 -91 55 -193 61 -204 68 -272 39 -371 -31 -103 -93 -192 -157 -225 -28 -15 -28 -16 -11 -35 39 -43 117 -12 172 70 77 116 76 202 -6 521 -45 177 -64 236 -76 238 -9 2 -16 0 -16 -5z"/>
 <path d="M4946 5648 c-4 -35 -10 -72 -12 -84 -5 -18 0 -22 32 -27 21 -4 39 -5 41 -4 4 5 -39 161 -47 170 -4 5 -10 -20 -14 -55z"/>
 <path d="M8151 5593 c-7 -53 -14 -101 -15 -107 -2 -6 -1 -8 1 -3 3 4 11 7 19 7 11 0 14 20 14 100 0 55 -1 100 -3 100 -2 0 -9 -43 -16 -97z"/>
 <path d="M8146 5457 c-14 -21 -28 -89 -52 -248 -17 -121 -35 -223 -38 -226 -3 -3 -65 2 -138 12 l-133 18 -123 -89 -123 -89 312 -3 c172 -1 314 -1 316 1 2 2 2 150 1 328 -3 323 -3 324 -22 296z"/>
 <path d="M5072 5396 c2 -7 151 -138 331 -290 l329 -276 882 0 883 0 127 91 c70 50 125 93 123 95 -4 4 -2648 394 -2670 394 -5 0 -7 -6 -5 -14z"/>
 <path d="M7917 5183 c-60 -71 -60 -83 0 -83 31 0 32 2 43 58 6 31 14 65 16 75 3 9 3 17 1 17 -2 0 -29 -30 -60 -67z"/>
 <path d="M4385 4839 c-166 -124 -234 -183 -398 -347 l-197 -197 72 -12 c126 -21 227 -83 334 -203 75 -84 189 -143 286 -148 58 -4 76 0 121 22 49 24 251 180 290 223 17 20 17 21 -18 42 -20 11 -40 21 -44 21 -5 0 -64 -26 -131 -59 -117 -56 -125 -58 -154 -45 -17 7 -96 42 -176 78 -160 73 -144 72 -193 5 -16 -22 -18 -22 -14 -3 2 11 53 99 113 195 91 147 150 228 347 485 18 23 18 24 -9 59 -14 19 -27 35 -28 34 0 0 -91 -68 -201 -150z"/>
 <path d="M3728 4750 c-592 -6 -548 3 -548 -109 0 -53 4 -74 19 -92 l19 -24 383 -3 382 -3 101 99 c56 54 115 108 131 120 17 12 28 20 25 19 -3 -1 -233 -4 -512 -7z m-358 -75 c-13 -14 -24 -37 -25 -51 -1 -33 -38 -64 -66 -57 -11 3 -27 17 -36 30 -15 22 -15 26 4 51 15 20 29 27 54 27 19 0 43 5 54 12 33 20 40 15 15 -12z"/>
 <path d="M3272 4651 c-8 -4 -12 -19 -10 -32 4 -33 53 -40 63 -9 11 36 -22 61 -53 41z"/>
 <path d="M4451 4638 l-83 -113 420 -3 c231 -1 613 -1 848 0 l428 3 -132 113 -133 112 -633 0 -632 0 -83 -112z"/>
 <path d="M5867 4717 c21 -18 82 -70 136 -115 l98 -82 475 0 c338 0 482 3 497 11 20 11 228 157 286 201 23 17 0 18 -753 18 l-776 0 37 -33z"/>
 <path d="M7275 4649 c-77 -55 -147 -107 -155 -115 -12 -12 10 -14 179 -14 l193 0 30 30 c29 29 30 34 26 97 -5 80 -26 103 -92 102 -36 0 -59 -13 -181 -100z"/>
 <path d="M7687 4744 c-4 -4 -7 -13 -7 -21 0 -10 29 -13 136 -13 124 0 135 2 132 18 -3 15 -18 17 -129 20 -69 1 -128 -1 -132 -4z"/>
 <path d="M7682 4653 c3 -16 17 -18 133 -18 116 0 130 2 133 18 3 15 -8 17 -133 17 -125 0 -136 -2 -133 -17z"/>
 <path d="M7685 4589 c-15 -23 16 -30 136 -27 102 3 124 6 124 18 0 12 -22 15 -127 18 -85 2 -129 -1 -133 -9z"/>
 <path d="M2500 4370 l0 -90 625 2 625 3 87 88 88 87 -713 0 -712 0 0 -90z"/>
 <path d="M4286 4387 c-49 -78 -53 -92 -33 -100 25 -9 2098 -7 2092 2 -3 6 -50 46 -105 90 l-99 81 -905 0 -905 0 -45 -73z"/>
 <path d="M6214 4427 c22 -18 69 -58 105 -89 l66 -58 171 0 170 0 55 40 c30 22 59 43 64 47 6 5 23 17 40 27 16 11 34 23 40 28 5 5 19 15 30 23 17 13 -30 14 -380 14 l-400 0 39 -32z"/>
 <path d="M6980 4439 c-14 -11 -33 -26 -42 -34 -9 -7 -29 -22 -45 -32 -15 -9 -30 -20 -33 -23 -3 -3 -24 -18 -47 -34 -24 -16 -43 -30 -43 -32 0 -2 315 -4 700 -4 l700 0 0 90 0 90 -582 0 c-570 -1 -584 -1 -608 -21z"/>
 <path d="M4331 4255 c3 -2 56 -27 119 -55 131 -59 114 -60 272 15 l93 44 -244 1 c-134 0 -242 -2 -240 -5z"/>
 <path d="M5130 4251 c-9 -5 -54 -19 -100 -31 -79 -20 -90 -26 -160 -89 -87 -78 -212 -177 -251 -197 -99 -51 -238 -26 -354 62 l-31 23 -104 -126 c-58 -70 -106 -129 -107 -133 -2 -3 39 -5 90 -5 83 0 97 -3 146 -30 60 -33 109 -88 143 -160 13 -28 35 -68 49 -90 14 -22 28 -45 30 -51 11 -29 170 -159 224 -184 73 -33 92 -52 70 -70 -14 -11 -12 -15 12 -30 16 -10 362 -227 770 -482 565 -355 739 -459 732 -441 -38 101 48 222 158 223 55 0 89 -14 124 -51 l29 -31 0 626 0 626 -24 6 c-55 14 -100 92 -85 148 9 33 56 86 76 86 29 0 14 60 -27 103 -63 69 -73 124 -32 170 18 20 15 24 -79 99 l-34 28 -566 0 c-311 0 -593 2 -625 5 -32 3 -66 1 -74 -4z"/>
 <path d="M6471 4211 c68 -62 88 -60 192 26 l29 23 -138 0 -138 0 55 -49z"/>
 <path d="M4100 3573 c0 -13 189 -139 289 -193 l24 -12 -21 35 c-12 19 -22 41 -22 50 0 20 -74 85 -116 103 -44 18 -154 30 -154 17z"/>
 <path d="M4401 3471 c-16 -10 -5 -47 27 -88 17 -23 17 -22 16 20 -1 43 -11 77 -23 77 -3 0 -12 -4 -20 -9z"/>
 <path d="M3650 3401 c-14 -28 -13 -46 6 -62 31 -25 37 -60 14 -84 -31 -33 -20 -75 20 -75 36 0 99 -96 100 -152 1 -19 4 -17 21 14 28 54 37 174 15 217 -9 17 -24 35 -32 38 -9 3 -14 20 -14 50 0 41 -2 45 -35 59 -48 20 -82 18 -95 -5z"/>
 <path d="M4463 3373 c2 -28 42 -60 107 -85 21 -8 19 -3 -15 32 -22 23 -52 50 -67 61 l-27 20 2 -28z"/>
 <path d="M4636 3223 c-8 -20 27 -59 76 -84 51 -26 59 -24 23 6 -28 23 -29 24 -8 25 23 0 39 15 25 24 -4 2 -31 14 -59 25 -46 18 -52 18 -57 4z"/>
 <path d="M6370 2401 c-131 -69 -80 -275 68 -275 90 0 152 61 152 149 0 110 -121 179 -220 126z"/>
 </g>

</svg>