<!DOCTYPE svg PUBLIC "-//W3C//DTD SVG 20010904//EN" "http://www.w3.org/TR/2001/REC-SVG-20010904/DTD/svg10.dtd">
<svg version="1.0" xmlns="http://www.w3.org/2000/svg" width="1080px" height="1080px" viewBox="0 0 10800 10800" preserveAspectRatio="xMidYMid meet">
<g id="layer101" fill="#1a1918" stroke="none">
 <path d="M7408 9040 c4 -50 4 -50 -32 -65 -43 -18 -41 -34 4 -27 27 4 30 2 30 -24 0 -16 14 -1153 30 -2528 16 -1374 27 -2502 24 -2507 -3 -5 -237 -9 -525 -9 l-519 0 0 2595 c0 1723 -3 2595 -10 2595 -7 0 -10 -708 -10 -2105 l0 -2105 -530 0 -530 0 -2 2113 c-3 2016 -3 2040 -5 525 l-3 -1588 -555 0 -555 0 -2 1588 c-2 1272 -3 1377 -5 530 l-3 -1058 -515 0 -515 0 0 248 c0 219 2 258 21 328 11 43 22 115 24 159 l4 80 -10 -80 c-5 -44 -15 -102 -23 -130 -13 -44 -14 41 -15 723 -1 507 -4 772 -11 772 -7 0 -10 -186 -10 -537 l0 -536 -387 7 c-214 3 -456 7 -540 7 l-151 1 -1 314 -1 314 28 1 c15 0 36 5 47 10 14 6 5 7 -28 3 l-47 -6 0 181 c0 137 3 182 13 185 6 2 30 9 52 15 22 7 87 16 145 20 95 7 98 8 35 9 -38 1 -109 -4 -157 -12 l-88 -13 0 24 c0 12 -4 23 -10 23 -5 0 -10 -11 -10 -24 0 -19 -8 -27 -37 -36 -21 -6 -52 -18 -70 -26 -17 -8 -34 -14 -38 -14 -22 0 -181 -79 -249 -124 -259 -169 -433 -407 -511 -700 -14 -49 -27 -116 -29 -150 -5 -61 -5 -61 8 14 15 83 46 201 55 212 5 6 680 68 739 68 20 0 4 -25 -114 -180 -75 -99 -141 -183 -148 -187 -6 -4 -45 -10 -86 -14 l-75 -7 73 2 c39 0 72 -1 72 -3 0 -5 -90 -117 -214 -266 -55 -66 -107 -129 -115 -140 l-16 -20 24 20 c13 11 93 106 179 210 85 105 157 189 160 188 3 -1 51 -92 109 -203 l104 -201 -43 -19 c-63 -27 -211 -69 -303 -84 -44 -8 -68 -14 -54 -15 42 -2 181 27 266 55 177 58 365 167 506 294 37 34 67 60 68 58 0 -2 2 -12 3 -23 2 -11 6 -38 10 -61 l7 -41 -140 -121 c-77 -67 -142 -122 -145 -122 -4 0 -6 9 -6 20 0 11 -4 20 -10 20 -13 0 -14 4 16 -86 45 -136 120 -271 241 -433 12 -16 7 -58 -14 -111 -3 -8 -7 -25 -9 -37 -1 -12 -11 -39 -21 -60 -16 -34 -18 -69 -18 -363 0 -309 1 -329 22 -396 23 -71 98 -189 128 -200 24 -10 20 -87 -6 -110 -51 -46 -64 -125 -29 -181 25 -41 53 -59 140 -89 60 -21 76 -23 110 -14 54 14 66 40 46 94 -8 23 -15 70 -14 106 1 78 -12 113 -49 137 -15 10 -31 22 -35 28 -12 16 -9 68 6 87 7 10 32 87 56 172 l43 155 40 -34 c22 -19 43 -33 46 -30 4 2 12 0 18 -3 9 -5 6 -20 -8 -52 -31 -70 -24 -85 39 -86 30 -1 74 -7 98 -14 45 -13 129 -9 145 7 5 5 5 23 -1 44 -6 20 -12 50 -14 68 -3 27 -1 31 16 25 10 -3 25 0 33 6 8 6 19 9 25 5 5 -3 10 -1 10 4 0 6 5 11 10 11 22 0 93 56 120 94 63 93 82 234 42 313 -33 64 -76 108 -137 138 -30 16 -55 31 -55 34 0 6 -59 35 -72 36 -3 0 -9 2 -12 5 -2 3 -37 4 -76 3 -61 -1 -80 -7 -135 -38 l-65 -36 34 76 c19 41 32 75 29 75 -3 0 0 7 7 15 7 8 9 15 5 15 -4 0 -2 6 4 13 6 8 9 16 6 18 -2 3 31 44 74 91 42 48 100 119 128 160 53 77 143 247 143 270 0 7 -20 -29 -45 -80 l-44 -93 -121 61 c-103 52 -120 64 -120 84 0 26 -65 418 -76 454 -4 14 -2 22 6 22 14 0 115 -54 249 -132 46 -27 85 -47 87 -45 2 2 -41 30 -97 63 -55 32 -122 72 -149 88 l-50 30 33 15 c31 16 29 16 -82 19 -62 1 -116 0 -120 -3 -3 -4 -7 -106 -9 -228 -3 -207 -8 -247 -32 -247 -4 0 -11 12 -15 28 -5 15 -10 32 -11 37 -2 6 -5 17 -6 25 -2 8 -6 20 -9 25 -4 6 -21 61 -39 124 l-33 113 69 64 c82 75 78 84 -9 14 -43 -35 -63 -46 -69 -37 -17 27 -7 43 42 60 28 10 50 22 50 27 0 11 -123 13 -192 4 -41 -6 -44 -8 -40 -33 7 -52 -178 -214 -359 -315 l-67 -37 -106 207 c-59 114 -106 212 -104 218 5 17 269 366 278 366 11 0 100 -209 107 -253 3 -20 11 -37 18 -37 7 0 27 -36 46 -80 18 -44 34 -78 36 -76 3 2 -10 37 -27 76 -16 40 -29 74 -27 76 1 2 216 -1 477 -6 261 -5 497 -9 523 -10 l48 0 -1 -287 c-1 -159 -1 -388 -1 -510 l1 -223 525 0 525 0 0 -530 0 -530 560 0 560 0 0 -525 0 -525 538 -2 537 -3 3 -488 2 -487 535 0 535 0 0 98 c0 77 -35 3145 -53 4669 -2 171 -1 316 2 322 14 22 281 77 451 92 130 12 335 7 430 -10 30 -6 74 -13 97 -16 112 -16 301 -79 438 -148 179 -89 438 -299 554 -448 l21 -27 -48 -12 c-77 -20 -113 -28 -680 -160 -350 -81 -353 -82 -379 -63 -14 10 -33 23 -41 28 -22 14 -20 13 -181 133 -79 59 -163 120 -185 136 l-40 30 29 7 c17 4 93 17 170 29 77 11 183 27 235 36 52 8 133 21 180 28 47 7 94 17 105 24 l20 11 -20 2 c-11 1 -24 0 -30 -1 -5 -1 -22 -4 -37 -6 -16 -2 -58 -9 -95 -15 -38 -6 -80 -13 -95 -15 -16 -2 -58 -9 -95 -15 -38 -6 -78 -13 -91 -14 -12 -2 -86 -13 -162 -25 l-140 -23 -33 27 c-97 78 -219 167 -224 163 -10 -10 10 -29 101 -97 154 -116 140 -99 132 -166 -4 -32 -26 -171 -48 -309 -22 -137 -43 -264 -45 -282 -5 -32 -5 -32 -72 -35 -36 -2 -65 -7 -63 -12 1 -5 30 -8 63 -7 l61 3 -6 -59 c-8 -68 8 -53 18 17 l6 45 118 -2 c97 -2 209 -11 337 -28 11 -1 39 -7 61 -14 l41 -11 -4 -59 c-3 -36 0 -62 6 -66 7 -4 11 4 12 19 1 14 3 31 4 36 1 6 3 22 4 36 1 22 5 25 29 23 15 -2 33 -7 40 -12 6 -5 12 -7 12 -4 0 21 359 -130 368 -154 2 -5 8 -7 13 -3 5 3 9 1 9 -3 0 -5 21 -20 46 -33 l45 -25 -6 -75 c-6 -81 8 -81 20 0 4 25 8 47 10 49 7 6 127 -85 180 -136 83 -79 237 -262 230 -273 -3 -5 -31 -10 -62 -10 -48 0 -54 -2 -43 -15 10 -12 26 -14 74 -9 l62 6 29 -43 c16 -24 44 -72 62 -106 l34 -63 -38 -2 c-21 -1 -72 -2 -113 -3 -41 0 -239 -5 -440 -10 -201 -6 -401 -9 -445 -8 l-80 3 -48 52 c-72 78 -163 180 -187 208 -12 14 -31 36 -43 50 -12 14 -42 49 -66 78 l-44 53 69 -5 c38 -3 110 -8 159 -10 50 -3 184 -11 298 -17 114 -6 211 -9 214 -5 18 18 -20 22 -422 40 -71 4 -175 9 -230 12 l-100 5 -40 43 c-22 23 -55 61 -73 84 -19 22 -43 51 -54 64 -11 13 -32 38 -46 57 -15 19 -31 39 -37 45 -58 65 -87 109 -75 116 10 6 8 14 -9 35 -11 15 -21 24 -22 19 0 -5 -2 -17 -4 -27 -2 -9 1 -14 6 -11 6 3 7 -4 4 -18 -5 -20 12 -47 98 -154 57 -71 132 -159 165 -197 l62 -67 -16 -38 c-9 -20 -22 -55 -29 -77 -23 -73 -247 -640 -257 -652 -6 -7 -7 -13 -4 -13 4 0 2 -10 -5 -21 -9 -17 -13 -19 -20 -8 -23 36 7 -62 34 -111 102 -187 312 -395 539 -536 367 -228 853 -328 1305 -269 166 22 160 20 168 68 4 23 9 51 12 62 31 149 20 642 -17 730 -5 11 -14 45 -21 75 -17 77 -80 262 -116 340 -17 36 -53 103 -81 150 -53 89 -53 100 0 100 15 0 37 4 50 9 13 5 50 15 83 22 33 7 65 15 70 19 6 4 61 24 123 44 l112 38 0 94 c0 51 -4 113 -10 136 -5 24 -21 102 -34 173 -30 155 -81 312 -148 455 -42 90 -126 244 -150 275 -4 6 -28 37 -53 71 -76 104 -262 285 -367 357 -53 37 -101 67 -107 67 -6 0 -11 5 -11 10 0 6 -7 10 -15 10 -8 0 -15 4 -15 10 0 5 -3 9 -7 8 -5 -1 -51 19 -103 44 -106 51 -204 88 -318 119 -158 43 -214 50 -427 54 -195 2 -255 -2 -430 -30 -43 -7 -184 -41 -209 -51 -13 -5 -16 3 -16 45 0 36 -4 51 -13 51 -10 0 -13 -13 -9 -50z m-5340 -280 l-3 -115 -85 -17 c-72 -15 -76 -16 -25 -11 118 12 110 16 113 -56 4 -79 -4 -100 -63 -182 l-47 -65 -380 -32 c-210 -18 -382 -31 -383 -30 -2 2 13 39 33 83 100 223 288 428 505 549 77 43 206 95 272 110 l50 12 8 -66 c4 -36 6 -117 5 -180z m5815 -303 c239 -177 313 -232 315 -239 2 -4 10 -8 18 -8 8 0 14 -3 14 -7 0 -5 21 -21 46 -38 l46 -30 -6 -113 c-4 -62 -11 -124 -16 -138 -6 -14 -10 -43 -10 -65 0 -45 1 -45 -101 -24 -88 18 -251 31 -367 31 l-83 -1 5 50 c4 39 66 424 93 578 6 33 6 33 46 4z m-5813 -187 c0 -88 -3 -160 -7 -160 -5 0 -28 45 -51 100 l-44 99 42 60 c24 34 47 61 51 61 5 0 9 -72 9 -160z m7432 25 c55 -77 174 -300 180 -339 3 -16 -11 -22 -85 -42 -49 -13 -93 -21 -98 -18 -5 3 -9 0 -9 -7 0 -6 -8 -9 -20 -6 -11 3 -20 2 -20 -2 0 -7 -134 -42 -170 -46 -9 0 -21 -5 -28 -9 -7 -4 -16 -5 -19 -2 -3 3 -12 1 -19 -4 -6 -6 -16 -10 -20 -9 -5 1 -16 0 -24 -4 -22 -8 -121 -35 -150 -40 -14 -3 -42 -8 -63 -12 -31 -6 -44 -3 -67 14 -16 11 -34 21 -40 21 -5 0 -10 5 -10 10 0 6 -7 10 -15 10 -8 0 -15 5 -15 10 0 6 -7 10 -15 10 -8 0 -15 5 -15 10 0 6 -7 10 -15 10 -8 0 -15 5 -15 10 0 6 -7 10 -15 10 -8 0 -15 5 -15 10 0 6 -7 10 -15 10 -8 0 -15 5 -15 10 0 6 -5 10 -11 10 -6 0 -17 6 -24 13 -34 29 -45 37 -55 37 -6 0 -13 7 -16 15 -4 8 -10 12 -15 9 -5 -3 -12 2 -15 10 -3 9 -10 16 -16 16 -9 0 -86 50 -118 77 -8 7 -23 19 -34 26 -20 14 1 21 239 77 219 51 254 60 320 74 39 9 93 23 120 31 77 23 348 84 365 82 8 -1 41 -38 72 -82z m-1072 -247 c0 -5 5 -6 10 -3 6 3 13 -1 16 -9 3 -9 10 -13 15 -10 5 3 12 -2 15 -10 3 -9 10 -13 15 -10 5 3 12 -2 15 -10 3 -9 12 -16 20 -16 8 0 14 -4 14 -10 0 -5 7 -10 15 -10 8 0 15 -4 15 -10 0 -5 7 -10 15 -10 8 0 15 -4 15 -10 0 -5 6 -10 14 -10 8 0 16 -4 18 -9 2 -4 63 -48 136 -96 101 -67 131 -92 127 -105 -3 -9 -7 -37 -10 -61 -6 -59 -16 -119 -20 -119 -9 0 -81 45 -87 55 -4 5 -8 6 -8 2 0 -5 -25 5 -55 22 -66 38 -187 87 -316 131 l-97 32 5 47 c3 25 5 53 5 61 0 27 19 205 23 218 3 9 16 5 45 -14 22 -15 40 -31 40 -36z m1294 -205 c43 -133 95 -370 96 -438 0 -11 3 -59 6 -106 6 -85 6 -87 -17 -94 -13 -4 -48 -19 -77 -32 -50 -23 -252 -79 -317 -88 -16 -3 -40 -7 -51 -10 -16 -4 -29 4 -50 33 -51 67 -68 85 -181 202 -62 63 -139 133 -172 155 l-61 40 6 63 c3 35 11 82 17 104 l12 40 25 -19 c29 -22 212 -138 385 -243 66 -41 122 -77 125 -81 3 -4 17 -13 30 -18 14 -6 42 -22 62 -36 20 -13 40 -21 43 -15 6 9 -76 70 -94 70 -6 0 -11 5 -11 10 0 6 -3 9 -8 8 -4 -2 -52 25 -107 60 -55 34 -109 68 -120 75 -11 6 -22 14 -25 18 -3 3 -65 42 -137 88 -73 45 -135 87 -138 91 -3 5 7 12 22 16 15 3 35 8 43 12 8 3 20 6 25 7 6 0 16 4 23 8 6 5 16 6 21 2 5 -3 13 0 16 6 4 5 13 8 21 5 7 -3 16 -1 20 5 3 6 12 8 20 5 7 -3 16 -1 20 5 3 6 12 8 20 5 7 -3 16 -1 20 5 3 6 12 8 20 5 7 -3 16 -1 20 5 3 6 12 8 20 5 7 -3 16 -1 20 5 3 6 12 8 20 5 7 -3 16 -1 20 5 3 6 12 8 20 5 7 -3 16 -1 20 5 3 6 12 8 20 5 7 -3 16 -1 20 5 3 6 12 8 20 5 7 -3 16 -1 20 5 3 6 12 8 20 5 8 -3 14 0 14 5 0 6 9 9 20 6 11 -3 20 -1 20 5 0 6 9 8 20 5 11 -3 20 -1 20 5 0 6 9 8 20 5 11 -3 20 -1 20 3 0 8 21 14 57 19 6 0 23 -34 37 -76z m-7270 -100 c30 -94 91 -303 105 -358 5 -22 19 -71 30 -109 23 -79 26 -66 -63 -305 -26 -68 -45 -129 -43 -135 2 -6 16 23 32 64 15 41 47 125 71 187 l44 111 0 312 0 311 48 -3 47 -3 18 -70 c28 -114 65 -350 77 -503 17 -217 -7 -346 -96 -524 -29 -58 -53 -92 -70 -101 -25 -13 -31 -11 -93 24 -65 38 -197 79 -253 79 -27 0 -29 2 -24 33 2 17 5 32 6 32 1 0 3 11 5 25 2 14 25 115 50 225 l47 200 -26 265 c-35 347 -36 320 18 320 l44 0 26 -77z m-110 -145 c15 -108 37 -349 34 -362 -3 -15 -154 -146 -168 -146 -11 0 -107 188 -131 258 -17 49 -17 58 -5 71 34 33 252 220 258 220 4 1 9 -18 12 -41z m265 -260 l-1 -63 -13 50 c-10 35 -11 53 -3 62 17 21 18 17 17 -49z m336 -70 c77 -39 104 -57 100 -67 -11 -28 -119 -173 -172 -229 l-53 -57 7 65 c5 36 7 127 5 203 -1 75 0 137 3 137 3 0 52 -24 110 -52z m5015 -58 c15 -27 193 -234 292 -338 54 -57 77 -88 74 -100 -60 -197 -87 -282 -145 -467 -61 -190 -74 -242 -57 -224 2 2 36 105 75 229 75 234 143 442 148 449 2 3 33 -29 70 -70 37 -41 142 -150 234 -244 l168 -170 -89 -238 c-49 -131 -93 -244 -97 -250 -4 -7 -8 -15 -9 -19 -1 -5 -3 -10 -4 -13 -1 -3 -3 -8 -4 -12 -1 -5 -10 -29 -20 -54 l-18 -47 -79 29 c-302 110 -586 317 -787 574 -4 6 -29 43 -54 84 l-47 73 15 37 c9 20 17 43 19 51 2 13 217 566 271 698 19 47 28 52 44 22z m-5616 -132 c-14 -62 -29 -117 -31 -121 -3 -5 -25 19 -50 53 -52 69 -56 56 42 139 33 27 61 48 63 46 2 -1 -9 -54 -24 -117z m7095 -278 c37 0 39 -2 64 -62 44 -105 86 -237 103 -326 8 -46 14 -86 11 -88 -5 -5 -182 -14 -627 -29 l-156 -6 -129 133 c-165 170 -306 322 -316 341 -8 13 10 16 124 21 184 8 859 23 875 19 8 -2 31 -3 51 -3z m-6424 -100 l50 -21 -52 4 c-40 3 -53 1 -53 -9 0 -10 -14 -14 -45 -14 -34 0 -47 5 -55 19 -15 29 -14 30 43 34 28 2 54 4 57 5 3 1 28 -7 55 -18z m131 -68 c77 -40 133 -130 134 -215 0 -57 -18 -137 -32 -137 -5 0 -6 -4 -3 -10 3 -5 1 -10 -5 -10 -6 0 -8 -4 -5 -10 3 -5 1 -10 -5 -10 -6 0 -9 -4 -6 -8 3 -5 -8 -24 -25 -43 -17 -19 -27 -27 -24 -19 4 8 -3 4 -14 -10 -11 -14 -21 -21 -21 -17 0 5 -7 1 -16 -7 -8 -9 -19 -14 -24 -11 -5 3 -10 0 -12 -7 -4 -12 -65 -13 -178 -2 -36 3 -83 1 -103 -4 -23 -6 -39 -7 -43 -1 -3 5 -10 7 -15 3 -15 -9 -96 77 -115 122 -20 48 -21 132 -1 171 17 32 65 78 179 171 72 58 80 62 128 62 30 0 57 6 65 14 18 17 86 7 141 -22z m6485 -364 c0 -13 3 -32 5 -43 11 -47 15 -337 5 -415 -15 -122 -30 -222 -34 -226 -8 -9 -111 -23 -238 -34 -218 -19 -463 4 -702 66 -34 9 -63 17 -65 19 -2 1 4 19 12 39 8 20 13 36 10 36 -3 0 1 10 8 23 6 12 13 31 15 42 2 10 7 22 11 25 4 3 8 12 10 20 8 39 154 415 166 427 4 4 89 -74 189 -173 286 -282 377 -367 384 -360 4 3 -119 130 -273 281 l-279 274 75 2 c41 1 147 5 235 9 88 3 229 7 313 8 151 2 152 2 153 -20z m-6669 -178 c21 -6 37 -14 36 -18 -1 -4 4 -27 11 -51 7 -23 10 -49 7 -56 -9 -24 -71 -28 -126 -10 -28 9 -71 15 -98 13 -45 -3 -47 -2 -44 21 3 34 41 91 66 101 29 12 104 12 148 0z m-458 -296 c10 -4 16 -18 16 -40 0 -28 5 -36 35 -50 20 -9 41 -26 47 -38 11 -19 12 -161 2 -178 -2 -3 -24 2 -48 13 -24 10 -67 22 -96 26 -67 10 -82 30 -57 74 11 21 17 52 17 97 0 87 27 118 84 96z"/>
 <path d="M2427 9052 l22 -7 -29 -47 c-17 -27 -27 -48 -23 -48 5 0 21 20 37 45 15 25 31 43 35 40 3 -4 14 -25 23 -48 9 -23 17 -37 17 -30 1 6 -8 32 -19 57 -17 42 -22 46 -52 45 -27 -1 -29 -2 -11 -7z"/>
 <path d="M2127 8553 c-21 -31 -36 -57 -34 -60 2 -2 21 21 42 52 21 30 36 57 34 59 -2 2 -21 -21 -42 -51z"/>
 <path d="M1113 7815 c1 -104 2 -108 4 -28 l4 92 47 4 47 3 -47 2 c-40 2 -47 5 -51 25 -2 12 -4 -32 -4 -98z"/>
 <path d="M1397 7903 c18 -2 50 -2 70 0 21 2 7 4 -32 4 -38 0 -55 -2 -38 -4z"/>
 <path d="M1268 7893 c17 -2 47 -2 65 0 17 2 3 4 -33 4 -36 0 -50 -2 -32 -4z"/>
 <path d="M3232 7820 c0 -19 2 -27 5 -17 2 9 2 25 0 35 -3 9 -5 1 -5 -18z"/>
 <path d="M1123 7645 c0 -22 2 -30 4 -17 2 12 2 30 0 40 -3 9 -5 -1 -4 -23z"/>
 <path d="M1161 7444 c-1 -6 4 -25 10 -43 l11 -31 136 2 137 2 -134 6 -134 5 -13 35 c-7 19 -13 30 -13 24z"/>
 <path d="M7597 6153 c-12 -12 -7 -22 8 -17 8 4 15 10 15 15 0 11 -14 12 -23 2z"/>
 <path d="M7707 5933 c17 -161 26 -260 27 -308 1 -37 -3 -42 -66 -90 -61 -46 -85 -72 -74 -82 2 -2 34 19 70 47 66 49 86 59 86 41 0 -4 16 -118 35 -252 19 -134 37 -261 40 -284 3 -22 7 -58 10 -80 7 -45 24 -28 -165 -156 -66 -44 -93 -69 -76 -69 2 0 60 36 128 80 l123 80 7 -32 c4 -18 18 -95 32 -171 58 -322 109 -567 118 -567 5 0 7 8 4 18 -14 47 -111 578 -121 663 -2 26 -8 54 -11 63 -3 9 -3 16 1 16 8 0 45 -20 59 -32 6 -4 77 -51 158 -102 216 -138 407 -266 413 -276 19 -31 -256 -444 -280 -422 -5 4 -5 2 -2 -4 4 -6 -8 -25 -26 -42 -17 -17 -50 -49 -71 -71 l-40 -39 -70 35 c-107 54 -273 159 -353 224 -40 33 -75 59 -78 59 -3 0 -5 -7 -5 -15 0 -16 117 -107 239 -184 83 -53 250 -141 268 -141 12 0 155 131 149 137 -2 3 23 39 57 81 34 43 86 115 116 162 30 47 65 101 77 120 27 41 114 225 119 252 2 10 7 24 12 31 4 6 8 17 9 22 1 6 11 42 23 80 57 191 87 428 76 601 -4 63 -11 114 -14 114 -4 0 -6 -71 -3 -157 4 -139 -7 -296 -22 -310 -4 -5 -500 326 -786 525 l-135 94 -7 61 c-22 202 -48 381 -56 389 -5 5 -3 -45 5 -109z m626 -751 c254 -171 347 -239 347 -253 0 -34 -52 -229 -61 -229 -5 0 -6 -7 -3 -15 4 -8 1 -15 -6 -15 -6 0 -8 -4 -5 -10 3 -5 0 -20 -7 -32 -7 -13 -13 -25 -13 -28 -2 -5 -7 -18 -42 -98 l-18 -42 -37 25 c-20 14 -42 25 -47 25 -6 0 -11 5 -11 10 0 6 -7 10 -15 10 -8 0 -15 5 -15 10 0 6 -7 10 -15 10 -8 0 -15 5 -15 10 0 6 -7 10 -15 10 -8 0 -15 5 -15 10 0 6 -7 10 -15 10 -8 0 -15 5 -15 10 0 6 -7 10 -15 10 -8 0 -15 5 -15 10 0 6 -7 10 -15 10 -8 0 -15 5 -15 11 0 5 -5 7 -10 4 -6 -3 -13 1 -16 9 -3 9 -10 13 -15 10 -5 -3 -12 2 -15 10 -3 9 -10 13 -15 10 -5 -3 -12 2 -15 10 -3 9 -10 13 -15 10 -5 -3 -12 2 -15 10 -3 9 -10 13 -15 10 -5 -3 -12 2 -15 10 -3 9 -10 14 -14 11 -5 -3 -13 2 -18 11 -5 9 -13 16 -18 16 -17 1 -54 21 -54 30 0 4 -7 8 -15 8 -8 0 -15 5 -15 10 0 6 -5 10 -10 10 -6 0 -29 14 -53 31 -34 24 -43 38 -49 72 -23 134 -78 502 -83 560 l-7 69 109 -73 c59 -40 264 -178 456 -307z"/>
 <path d="M5033 5783 c-18 -2 -33 -10 -33 -17 0 -14 -62 -168 -191 -480 -74 -179 -92 -205 -138 -209 -12 -1 -21 -5 -21 -10 0 -4 -4 -5 -10 -2 -5 3 -10 1 -10 -5 0 -6 -4 -8 -10 -5 -5 3 -10 1 -10 -6 0 -7 -3 -10 -6 -6 -4 3 -32 -7 -64 -23 l-58 -29 -6 31 c-3 17 -6 54 -6 84 0 29 -5 56 -11 59 -6 4 -8 13 -5 21 3 8 2 14 -2 14 -4 0 -16 16 -26 35 -20 36 -71 76 -121 95 -25 9 -475 91 -657 119 -26 4 -50 10 -54 13 -3 4 -12 36 -20 71 -20 85 -39 103 -59 54 -17 -40 -45 -193 -45 -243 0 -33 1 -34 40 -34 22 0 48 -4 58 -10 9 -5 135 -48 280 -95 l262 -86 1 -77 c0 -42 2 -185 5 -316 3 -161 1 -241 -6 -246 -7 -4 1 -77 23 -221 l34 -214 -34 -45 c-153 -205 -240 -446 -250 -690 -5 -126 -7 -137 -32 -170 -33 -44 -101 -153 -101 -162 0 -19 41 -5 82 26 l45 35 20 -26 c27 -37 50 -25 58 31 4 25 5 63 2 83 -3 26 11 98 46 232 l51 194 131 118 c99 90 137 119 158 119 25 0 27 -3 27 -40 0 -29 -5 -42 -20 -50 -40 -21 -53 -57 -57 -153 -2 -59 1 -95 9 -105 20 -23 56 -32 85 -21 23 8 30 6 47 -15 28 -32 57 -46 99 -46 39 0 96 35 113 69 15 29 1 77 -27 94 -15 10 -17 20 -12 68 3 32 2 66 -2 76 -5 10 -7 21 -7 26 1 4 -3 7 -9 7 -5 0 -8 4 -4 9 3 5 -4 12 -15 16 -11 3 -20 10 -20 15 0 4 -9 10 -20 13 -14 4 -20 14 -20 35 0 25 5 31 29 37 24 5 47 -5 137 -63 l109 -68 106 -179 c98 -164 107 -184 112 -242 9 -95 36 -132 57 -78 5 14 12 25 15 25 3 0 28 -11 55 -25 52 -26 90 -32 90 -15 0 24 -49 104 -99 162 -14 16 -39 73 -57 127 -67 204 -176 374 -341 530 l-102 97 -2 236 -1 237 156 152 c220 214 209 186 277 678 17 123 35 235 40 248 5 13 9 34 9 47 0 20 11 25 87 47 125 35 121 49 -14 47 -59 0 -123 -3 -140 -5z m44 -77 c4 -4 -49 -397 -82 -610 -21 -138 -53 -193 -195 -333 -66 -65 -126 -120 -133 -122 -6 -2 -16 -8 -22 -15 -40 -45 -89 -76 -120 -76 l-35 0 0 133 c0 74 -3 168 -6 210 l-7 76 119 56 c65 30 126 59 134 63 8 5 63 125 122 268 59 142 120 284 134 315 26 55 27 57 57 48 16 -5 32 -10 34 -13z m-1398 -280 c147 -15 591 -96 640 -117 52 -22 116 -83 106 -100 -4 -5 -1 -9 5 -9 7 0 10 -7 6 -15 -3 -8 -2 -15 3 -15 4 0 9 -30 10 -67 1 -36 4 -70 6 -74 3 -4 8 -113 11 -242 l5 -235 -53 -7 c-62 -8 -241 -43 -261 -51 -12 -4 -16 34 -21 228 -4 128 -9 272 -12 320 l-6 87 -142 47 c-112 37 -382 132 -393 139 -2 1 2 29 8 63 6 34 14 60 18 58 3 -2 35 -7 70 -10z m799 -1608 c5 -7 13 -28 17 -45 3 -18 10 -33 14 -33 5 0 23 -15 42 -32 33 -32 34 -34 31 -108 -2 -41 -7 -79 -11 -83 -5 -5 -22 -2 -38 6 -16 9 -58 21 -93 28 -36 7 -68 18 -72 24 -12 16 -9 43 7 59 11 10 15 36 15 90 0 66 3 77 22 90 27 19 52 20 66 4z m654 -521 c25 -29 53 -67 62 -85 15 -30 15 -32 0 -32 -10 0 -41 14 -71 30 -29 17 -55 30 -58 30 -3 0 -10 -12 -16 -27 -15 -40 -29 -12 -29 58 0 48 3 57 23 67 36 17 41 15 89 -41z m-1194 -217 c4 -77 -8 -92 -37 -51 l-22 30 -51 -39 c-29 -22 -54 -37 -56 -35 -7 7 35 73 79 125 34 40 45 47 62 41 19 -7 22 -17 25 -71z"/>
 <path d="M6532 3752 c-18 -12 11 -35 71 -57 l47 -18 -5 -136 c-2 -75 -10 -235 -16 -356 -7 -136 -9 -350 -5 -562 6 -306 5 -343 -9 -343 -13 0 -15 -30 -15 -235 0 -180 -3 -236 -12 -239 -120 -32 -238 -71 -258 -85 -34 -24 -37 -64 -8 -108 34 -51 192 -181 291 -238 l85 -50 -1 -61 c-1 -44 3 -68 17 -88 16 -25 22 -28 56 -22 30 5 41 2 56 -15 25 -28 67 -49 98 -49 17 0 38 16 70 52 25 29 46 59 46 66 0 8 -11 23 -24 33 -21 16 -24 27 -23 86 0 79 -17 120 -63 153 -24 17 -30 29 -28 48 3 23 9 28 47 34 58 10 108 45 207 143 89 89 114 132 114 197 -1 77 -77 206 -179 302 l-52 48 6 77 c3 42 6 86 5 99 0 12 11 156 25 320 17 202 25 369 25 523 0 124 3 267 6 316 l7 91 41 12 c59 17 100 40 90 50 -9 8 -127 15 -200 12 l-40 -2 -13 -92 c-15 -107 -109 -665 -115 -688 -3 -8 -5 -24 -7 -35 -2 -18 -12 32 -25 125 -66 473 -77 565 -78 647 0 33 -5 43 -21 47 -31 9 -198 7 -213 -2z m219 -109 c0 -10 3 -27 5 -38 12 -56 74 -542 70 -552 -3 -7 -1 -15 3 -17 5 -3 9 -25 9 -50 1 -24 6 -73 12 -107 5 -35 10 -122 10 -193 0 -71 2 -127 4 -125 2 2 5 63 7 134 2 72 7 150 11 175 5 25 9 60 10 78 1 18 5 35 10 38 4 3 6 9 3 14 -6 9 77 534 97 613 12 46 12 47 52 47 l39 0 -7 -357 c-5 -261 -14 -431 -32 -628 -14 -148 -28 -298 -31 -332 l-5 -63 -179 0 c-177 0 -179 0 -183 23 -3 12 -8 94 -11 182 -3 88 -8 222 -11 297 -5 113 18 714 31 818 2 14 4 33 4 43 1 13 10 17 41 17 31 0 40 -4 41 -17z m335 -1630 c7 -36 -9 -108 -26 -118 -6 -4 -10 29 -10 86 0 79 2 90 15 79 8 -7 17 -28 21 -47z m-396 -446 l74 -32 -3 -55 c-4 -92 -16 -92 -109 4 -118 121 -107 146 38 83z m174 -3 c11 -4 16 -19 16 -45 0 -34 4 -40 33 -52 55 -23 62 -40 59 -136 -3 -91 -8 -106 -23 -78 -6 9 -15 17 -22 17 -7 0 -19 5 -27 10 -13 9 -13 11 0 20 23 15 -6 38 -65 52 l-50 12 1 87 c1 109 19 136 78 113z m-40 -228 c6 -1 22 -6 36 -11 l25 -9 -25 -6 c-14 -4 -24 -13 -22 -20 2 -8 -3 -10 -13 -6 -9 3 -25 6 -36 6 -22 0 -34 22 -25 46 4 10 13 13 27 9 12 -4 27 -8 33 -9z"/>
 </g>
<g id="layer102" fill="#5f5747" stroke="none">
 <path d="M2359 9060 c24 -4 58 -3 75 1 22 5 9 7 -44 7 -65 0 -69 -1 -31 -8z"/>
 <path d="M4223 9005 c0 -38 2 -53 4 -32 2 20 2 52 0 70 -2 17 -4 1 -4 -38z"/>
 <path d="M2064 8785 c0 -77 2 -107 3 -67 2 40 2 103 0 140 -2 37 -3 4 -3 -73z"/>
 <path d="M7423 8810 c0 -41 2 -58 4 -37 2 20 2 54 0 75 -2 20 -4 3 -4 -38z"/>
 <path d="M1509 8744 c-16 -20 7 -25 25 -5 14 15 14 18 1 18 -8 0 -20 -6 -26 -13z"/>
 <path d="M1409 8648 c0 -2 -2 -11 -4 -21 -3 -15 -1 -16 11 -6 7 6 11 15 8 20 -5 9 -13 12 -15 7z"/>
 <path d="M2063 8550 c0 -41 2 -58 4 -37 2 20 2 54 0 75 -2 20 -4 3 -4 -38z"/>
 <path d="M7414 8425 c0 -60 1 -84 3 -52 2 32 2 81 0 110 -2 29 -3 3 -3 -58z"/>
 <path d="M2058 8270 c-2 -88 0 -160 5 -160 4 0 7 72 7 160 0 88 -2 160 -5 160 -2 0 -5 -72 -7 -160z"/>
 <path d="M1835 8300 c11 -5 27 -9 35 -9 9 0 8 4 -5 9 -11 5 -27 9 -35 9 -9 0 -8 -4 5 -9z"/>
 <path d="M1485 8270 c11 -5 27 -9 35 -9 9 0 8 4 -5 9 -11 5 -27 9 -35 9 -9 0 -8 -4 5 -9z"/>
 <path d="M1365 8260 c11 -5 27 -9 35 -9 9 0 8 4 -5 9 -11 5 -27 9 -35 9 -9 0 -8 -4 5 -9z"/>
 <path d="M7434 7985 c0 -60 1 -84 3 -52 2 32 2 81 0 110 -2 29 -3 3 -3 -58z"/>
 <path d="M2168 7993 c23 -2 61 -2 85 0 23 2 4 4 -43 4 -47 0 -66 -2 -42 -4z"/>
 <path d="M2793 7983 c20 -2 54 -2 75 0 20 2 3 4 -38 4 -41 0 -58 -2 -37 -4z"/>
 <path d="M1110 7948 c0 -7 5 -20 10 -28 8 -12 10 -11 10 7 0 12 -4 25 -10 28 -5 3 -10 0 -10 -7z"/>
 <path d="M1485 7910 c11 -5 27 -9 35 -9 13 -1 13 0 0 9 -8 5 -24 9 -35 9 l-20 0 20 -9z"/>
 <path d="M1350 7900 c8 -5 22 -10 30 -10 13 0 13 1 0 10 -8 5 -22 10 -30 10 -13 0 -13 -1 0 -10z"/>
 <path d="M1205 7890 c3 -5 15 -10 26 -10 11 0 17 5 14 10 -3 6 -15 10 -26 10 -11 0 -17 -4 -14 -10z"/>
 <path d="M3221 7823 c1 -21 5 -49 9 -63 5 -17 7 -6 6 37 0 35 -4 63 -8 63 -5 0 -8 -17 -7 -37z"/>
 <path d="M2225 7730 c-10 -11 -15 -20 -10 -20 4 0 1 -8 -6 -17 -13 -16 -12 -17 4 -4 9 8 15 16 12 19 -3 3 2 14 12 24 9 10 14 18 11 18 -3 0 -13 -9 -23 -20z"/>
 <path d="M1117 7704 c-4 -4 -7 -14 -7 -23 0 -11 3 -12 11 -4 6 6 10 16 7 23 -2 6 -7 8 -11 4z"/>
 <path d="M7424 7575 c0 -60 1 -84 3 -52 2 32 2 81 0 110 -2 29 -3 3 -3 -58z"/>
 <path d="M1321 7516 c-8 -10 -9 -16 -1 -21 5 -3 10 -5 11 -3 4 18 7 38 4 38 -1 0 -8 -6 -14 -14z"/>
 <path d="M2105 7450 c-4 -6 -9 -8 -13 -6 -4 2 -16 -2 -27 -10 -10 -8 -14 -14 -8 -14 7 0 15 5 18 10 4 6 10 8 15 5 4 -3 13 2 20 10 7 8 10 15 7 15 -3 0 -9 -5 -12 -10z"/>
 <path d="M1440 7380 c8 -5 22 -10 30 -10 13 0 13 1 0 10 -8 5 -22 10 -30 10 -13 0 -13 -1 0 -10z"/>
 <path d="M2376 7314 c-4 -14 -5 -28 -3 -31 3 -2 8 8 11 23 4 14 5 28 3 31 -3 2 -8 -8 -11 -23z"/>
 <path d="M7444 7125 c0 -60 1 -84 3 -52 2 32 2 81 0 110 -2 29 -3 3 -3 -58z"/>
 <path d="M2823 7115 c0 -33 2 -45 4 -27 2 18 2 45 0 60 -2 15 -4 0 -4 -33z"/>
 <path d="M2856 6961 c-24 -24 -32 -39 -23 -37 22 3 64 43 64 61 0 8 -1 15 -2 15 0 0 -18 -18 -39 -39z"/>
 <path d="M3438 6973 c145 -2 379 -2 520 0 141 1 23 2 -263 2 -286 0 -402 -1 -257 -2z"/>
 <path d="M4225 6380 c0 -261 1 -368 2 -237 2 130 2 344 0 475 -1 130 -2 23 -2 -238z"/>
 <path d="M9343 6823 c9 -2 25 -2 35 0 9 3 1 5 -18 5 -19 0 -27 -2 -17 -5z"/>
 <path d="M7434 6720 c0 -58 1 -81 3 -52 2 28 2 76 0 105 -2 28 -3 5 -3 -53z"/>
 <path d="M8893 6813 c9 -2 25 -2 35 0 9 3 1 5 -18 5 -19 0 -27 -2 -17 -5z"/>
 <path d="M8438 6803 c12 -2 32 -2 45 0 12 2 2 4 -23 4 -25 0 -35 -2 -22 -4z"/>
 <path d="M2918 6733 c12 -2 30 -2 40 0 9 3 -1 5 -23 4 -22 0 -30 -2 -17 -4z"/>
 <path d="M7454 6270 c0 -58 1 -81 3 -52 2 28 2 76 0 105 -2 28 -3 5 -3 -53z"/>
 <path d="M9642 6110 c0 -19 2 -27 5 -17 2 9 2 25 0 35 -3 9 -5 1 -5 -18z"/>
 <path d="M7444 5865 c0 -60 1 -84 3 -52 2 32 2 81 0 110 -2 29 -3 3 -3 -58z"/>
 <path d="M4488 5893 c155 -2 409 -2 565 0 155 1 28 2 -283 2 -311 0 -438 -1 -282 -2z"/>
 <path d="M9642 5870 c0 -19 2 -27 5 -17 2 9 2 25 0 35 -3 9 -5 1 -5 -18z"/>
 <path d="M9245 5850 c21 -22 41 -40 44 -40 3 0 -13 18 -34 40 -21 22 -41 40 -44 40 -3 0 13 -18 34 -40z"/>
 <path d="M2633 5585 c0 -27 2 -38 4 -22 2 15 2 37 0 50 -2 12 -4 0 -4 -28z"/>
 <path d="M7464 5415 c0 -60 1 -84 3 -52 2 32 2 81 0 110 -2 29 -3 3 -3 -58z"/>
 <path d="M7454 5015 c0 -60 1 -84 3 -52 2 32 2 81 0 110 -2 29 -3 3 -3 -58z"/>
 <path d="M4123 5030 c0 -30 2 -43 4 -27 2 15 2 39 0 55 -2 15 -4 2 -4 -28z"/>
 <path d="M4113 4850 c0 -30 2 -43 4 -27 2 15 2 39 0 55 -2 15 -4 2 -4 -28z"/>
 <path d="M4463 4850 c0 -25 2 -35 4 -22 2 12 2 32 0 45 -2 12 -4 2 -4 -23z"/>
 <path d="M4885 4830 c-10 -11 -21 -17 -25 -15 -4 3 -13 -2 -20 -10 -7 -8 -9 -15 -4 -15 4 0 -12 -20 -36 -45 -24 -25 -42 -45 -39 -45 2 0 38 34 79 75 41 41 72 75 69 75 -3 0 -14 -9 -24 -20z"/>
 <path d="M6405 4355 c0 -269 1 -378 2 -242 2 137 2 357 0 490 -1 133 -2 22 -2 -248z"/>
 <path d="M7474 4555 c0 -60 1 -84 3 -52 2 32 2 81 0 110 -2 29 -3 3 -3 -58z"/>
 <path d="M7464 4160 c0 -58 1 -81 3 -52 2 28 2 76 0 105 -2 28 -3 5 -3 -53z"/>
 <path d="M6678 3883 c144 -2 380 -2 525 0 144 1 26 2 -263 2 -289 0 -407 -1 -262 -2z"/>
 <path d="M7018 3753 c12 -2 32 -2 45 0 12 2 2 4 -23 4 -25 0 -35 -2 -22 -4z"/>
 <path d="M7143 3753 c9 -2 25 -2 35 0 9 3 1 5 -18 5 -19 0 -27 -2 -17 -5z"/>
 <path d="M7103 3480 c0 -47 2 -66 4 -42 2 23 2 61 0 85 -2 23 -4 4 -4 -43z"/>
 <path d="M7083 3235 c0 -44 2 -61 4 -37 2 23 2 59 0 80 -2 20 -4 1 -4 -43z"/>
 <path d="M6642 3230 c0 -19 2 -27 5 -17 2 9 2 25 0 35 -3 9 -5 1 -5 -18z"/>
 <path d="M6622 3120 c0 -19 2 -27 5 -17 2 9 2 25 0 35 -3 9 -5 1 -5 -18z"/>
 <path d="M6613 2880 c0 -36 2 -50 4 -32 2 17 2 47 0 65 -2 17 -4 3 -4 -33z"/>
 <path d="M6874 2675 c0 -66 1 -92 3 -57 2 34 2 88 0 120 -2 31 -3 3 -3 -63z"/>
 <path d="M6632 2710 c0 -19 2 -27 5 -17 2 9 2 25 0 35 -3 9 -5 1 -5 -18z"/>
 <path d="M6622 2600 c0 -19 2 -27 5 -17 2 9 2 25 0 35 -3 9 -5 1 -5 -18z"/>
 <path d="M6992 1340 c0 -19 2 -27 5 -17 2 9 2 25 0 35 -3 9 -5 1 -5 -18z"/>
 </g>
<g id="layer103" fill="#8d7745" stroke="none">
 <path d="M5325 7430 c0 -839 1 -1182 2 -763 2 420 2 1106 0 1525 -1 420 -2 77 -2 -762z"/>
 <path d="M5345 7365 c0 -874 1 -1231 2 -792 2 439 2 1155 0 1590 -1 436 -2 77 -2 -798z"/>
 <path d="M4225 7895 c0 -577 1 -812 2 -522 2 291 2 763 0 1050 -1 287 -2 50 -2 -528z"/>
 <path d="M7414 8235 c0 -49 1 -71 3 -48 2 23 2 64 0 90 -2 26 -3 8 -3 -42z"/>
 <path d="M7434 8175 c0 -49 1 -71 3 -48 2 23 2 64 0 90 -2 26 -3 8 -3 -42z"/>
 <path d="M2657 7983 c18 -2 50 -2 70 0 21 2 7 4 -32 4 -38 0 -55 -2 -38 -4z"/>
 <path d="M7424 7385 c0 -49 1 -71 3 -48 2 23 2 64 0 90 -2 26 -3 8 -3 -42z"/>
 <path d="M7444 7320 c0 -52 1 -74 3 -47 2 26 2 68 0 95 -2 26 -3 4 -3 -48z"/>
 <path d="M1298 7363 c12 -2 30 -2 40 0 9 3 -1 5 -23 4 -22 0 -30 -2 -17 -4z"/>
 <path d="M7434 6530 c0 -52 1 -74 3 -47 2 26 2 68 0 95 -2 26 -3 4 -3 -48z"/>
 <path d="M7454 6460 c0 -52 1 -74 3 -47 2 26 2 68 0 95 -2 26 -3 4 -3 -48z"/>
 <path d="M7444 5675 c0 -49 1 -71 3 -48 2 23 2 64 0 90 -2 26 -3 8 -3 -42z"/>
 <path d="M7464 5605 c0 -49 1 -71 3 -48 2 23 2 64 0 90 -2 26 -3 8 -3 -42z"/>
 <path d="M7454 4825 c0 -49 1 -71 3 -48 2 23 2 64 0 90 -2 26 -3 8 -3 -42z"/>
 <path d="M5613 4863 c148 -2 386 -2 530 0 144 1 24 2 -268 2 -291 0 -409 -1 -262 -2z"/>
 <path d="M5603 4843 c147 -2 387 -2 535 0 147 1 26 2 -268 2 -294 0 -415 -1 -267 -2z"/>
 <path d="M7474 4745 c0 -49 1 -71 3 -48 2 23 2 64 0 90 -2 26 -3 8 -3 -42z"/>
 <path d="M7464 3975 c0 -49 1 -71 3 -48 2 23 2 64 0 90 -2 26 -3 8 -3 -42z"/>
 <path d="M7483 3920 c0 -30 2 -43 4 -27 2 15 2 39 0 55 -2 15 -4 2 -4 -28z"/>
 <path d="M7083 3380 c0 -41 2 -58 4 -37 2 20 2 54 0 75 -2 20 -4 3 -4 -38z"/>
 <path d="M7103 3330 c0 -41 2 -58 4 -37 2 20 2 54 0 75 -2 20 -4 3 -4 -38z"/>
 <path d="M6612 2790 c0 -19 2 -27 5 -17 2 9 2 25 0 35 -3 9 -5 1 -5 -18z"/>
 <path d="M6632 2770 c0 -19 2 -27 5 -17 2 9 2 25 0 35 -3 9 -5 1 -5 -18z"/>
 </g>
<g id="layer104" fill="#be9e58" stroke="none">
 <path d="M4205 7960 c0 -542 1 -763 2 -492 2 270 2 714 0 985 -1 270 -2 49 -2 -493z"/>
 <path d="M7403 8835 c0 -27 2 -38 4 -22 2 15 2 37 0 50 -2 12 -4 0 -4 -28z"/>
 <path d="M7434 8365 c0 -60 1 -84 3 -52 2 32 2 81 0 110 -2 29 -3 3 -3 -58z"/>
 <path d="M7414 8045 c0 -60 1 -84 3 -52 2 32 2 81 0 110 -2 29 -3 3 -3 -58z"/>
 <path d="M2173 8013 c15 -2 39 -2 55 0 15 2 2 4 -28 4 -30 0 -43 -2 -27 -4z"/>
 <path d="M2527 7983 c18 -2 50 -2 70 0 21 2 7 4 -32 4 -38 0 -55 -2 -38 -4z"/>
 <path d="M7444 7515 c0 -60 1 -84 3 -52 2 32 2 81 0 110 -2 29 -3 3 -3 -58z"/>
 <path d="M1233 7363 c9 -2 25 -2 35 0 9 3 1 5 -18 5 -19 0 -27 -2 -17 -5z"/>
 <path d="M1363 7363 c9 -2 25 -2 35 0 9 3 1 5 -18 5 -19 0 -27 -2 -17 -5z"/>
 <path d="M7424 7195 c0 -60 1 -84 3 -52 2 32 2 81 0 110 -2 29 -3 3 -3 -58z"/>
 <path d="M3739 6953 l460 -3 4 -50 4 -50 -1 52 -1 53 -463 0 -462 0 459 -2z"/>
 <path d="M7454 6655 c0 -60 1 -84 3 -52 2 32 2 81 0 110 -2 29 -3 3 -3 -58z"/>
 <path d="M7434 6335 c0 -60 1 -84 3 -52 2 32 2 81 0 110 -2 29 -3 3 -3 -58z"/>
 <path d="M4578 5913 c139 -2 364 -2 500 0 136 1 22 2 -253 2 -275 0 -386 -1 -247 -2z"/>
 <path d="M7464 5795 c0 -60 1 -84 3 -52 2 32 2 81 0 110 -2 29 -3 3 -3 -58z"/>
 <path d="M5323 5835 c0 -33 2 -45 4 -27 2 18 2 45 0 60 -2 15 -4 0 -4 -33z"/>
 <path d="M9360 5775 c19 -19 36 -35 39 -35 3 0 -10 16 -29 35 -19 19 -36 35 -39 35 -3 0 10 -16 29 -35z"/>
 <path d="M7444 5485 c0 -60 1 -84 3 -52 2 32 2 81 0 110 -2 29 -3 3 -3 -58z"/>
 <path d="M7474 4935 c0 -60 1 -84 3 -52 2 32 2 81 0 110 -2 29 -3 3 -3 -58z"/>
 <path d="M7454 4635 c0 -60 1 -84 3 -52 2 32 2 81 0 110 -2 29 -3 3 -3 -58z"/>
 <path d="M7484 4075 c0 -60 1 -84 3 -52 2 32 2 81 0 110 -2 29 -3 3 -3 -58z"/>
 <path d="M6758 3863 c133 -2 351 -2 485 0 133 1 24 2 -243 2 -267 0 -376 -1 -242 -2z"/>
 </g>
<g id="layer105" fill="#c8bda3" stroke="none">
 <path d="M5343 9015 c0 -38 2 -53 4 -32 2 20 2 52 0 70 -2 17 -4 1 -4 -38z"/>
 <path d="M4203 9005 c0 -38 2 -53 4 -32 2 20 2 52 0 70 -2 17 -4 1 -4 -38z"/>
 <path d="M5323 9010 c0 -36 2 -50 4 -32 2 17 2 47 0 65 -2 17 -4 3 -4 -33z"/>
 <path d="M1465 8678 l-40 -43 43 40 c23 21 42 40 42 42 0 8 -9 0 -45 -39z"/>
 <path d="M1103 7815 c0 -27 2 -38 4 -22 2 15 2 37 0 50 -2 12 -4 0 -4 -28z"/>
 <path d="M3198 6953 c18 -2 45 -2 60 0 15 2 0 4 -33 4 -33 0 -45 -2 -27 -4z"/>
 <path d="M4205 6375 c0 -264 1 -371 2 -237 2 134 2 350 0 480 -1 130 -2 21 -2 -243z"/>
 <path d="M3273 6415 c0 -22 2 -30 4 -17 2 12 2 30 0 40 -3 9 -5 -1 -4 -23z"/>
 <path d="M9643 5990 c0 -47 2 -66 4 -42 2 23 2 61 0 85 -2 23 -4 4 -4 -43z"/>
 <path d="M4253 5913 c15 -2 39 -2 55 0 15 2 2 4 -28 4 -30 0 -43 -2 -27 -4z"/>
 <path d="M5322 5318 c-1 -257 1 -469 6 -471 6 -5 6 351 -1 773 -1 91 -4 -45 -5 -302z"/>
 <path d="M5345 5325 c0 -253 1 -355 2 -227 2 128 2 335 0 460 -1 125 -2 20 -2 -233z"/>
 <path d="M8702 5300 c0 -19 2 -27 5 -17 2 9 2 25 0 35 -3 9 -5 1 -5 -18z"/>
 <path d="M8703 5165 c0 -22 2 -30 4 -17 2 12 2 30 0 40 -3 9 -5 -1 -4 -23z"/>
 <path d="M4103 5060 c0 -30 2 -43 4 -27 2 15 2 39 0 55 -2 15 -4 2 -4 -28z"/>
 <path d="M6438 3863 c18 -2 45 -2 60 0 15 2 0 4 -33 4 -33 0 -45 -2 -27 -4z"/>
 <path d="M7083 3515 c0 -38 2 -53 4 -32 2 20 2 52 0 70 -2 17 -4 1 -4 -38z"/>
 <path d="M6662 3540 c0 -19 2 -27 5 -17 2 9 2 25 0 35 -3 9 -5 1 -5 -18z"/>
 <path d="M7103 3185 c0 -44 2 -61 4 -37 2 23 2 59 0 80 -2 20 -4 1 -4 -43z"/>
 <path d="M6632 2830 c0 -19 2 -27 5 -17 2 9 2 25 0 35 -3 9 -5 1 -5 -18z"/>
 <path d="M6854 2680 c0 -63 1 -89 3 -57 2 31 2 83 0 115 -2 31 -3 5 -3 -58z"/>
 <path d="M6612 2730 c0 -19 2 -27 5 -17 2 9 2 25 0 35 -3 9 -5 1 -5 -18z"/>
 </g>
<g id="layer106" fill="#ffd372" stroke="none">
 <path d="M2257 8959 c-38 -5 -92 -15 -120 -22 l-52 -13 -3 -136 -3 -135 43 8 c58 11 58 11 58 -5 0 -9 -18 -16 -50 -20 l-50 -7 0 -67 0 -66 48 68 c30 43 48 62 50 52 2 -9 -19 -48 -47 -88 l-51 -72 0 -192 c0 -119 4 -202 11 -217 11 -23 16 -25 137 -31 70 -3 308 -9 530 -12 l402 -7 0 477 0 477 -330 -3 c-257 -2 -331 0 -335 10 -6 18 -72 15 -79 -3 -3 -8 -12 -15 -20 -15 -10 0 -13 6 -10 15 7 17 -18 18 -129 4z"/>
 <path d="M3181 8248 c1 -619 3 -696 15 -643 7 33 16 106 20 163 10 146 28 132 21 -15 -4 -79 -14 -151 -31 -216 -20 -76 -26 -120 -25 -200 l1 -102 25 55 c14 30 36 87 49 125 l22 70 1 -252 1 -253 460 0 460 0 0 985 0 985 -510 0 -510 0 1 -702z"/>
 <path d="M4230 7895 l0 -1055 45 0 45 0 0 -460 0 -460 500 0 500 0 0 1515 0 1515 -545 0 -545 0 0 -1055z"/>
 <path d="M5350 7365 l0 -1585 45 0 45 0 0 -455 0 -455 480 0 480 0 0 2040 0 2040 -525 0 -525 0 0 -1585z"/>
 <path d="M6427 8944 c-4 -4 -7 -954 -7 -2111 l0 -2103 50 0 50 0 0 -420 0 -420 470 0 470 0 0 127 c0 69 -11 1078 -25 2242 -13 1164 -26 2244 -27 2401 l-3 285 -485 3 c-267 2 -489 0 -493 -4z"/>
 <path d="M7430 8878 c0 -40 14 -1182 30 -2537 16 -1356 27 -2468 24 -2473 -3 -4 -221 -8 -485 -8 l-479 0 0 -50 0 -50 103 -1 c56 -1 294 -3 530 -5 l427 -3 0 120 c0 65 2 119 4 119 3 0 47 -27 98 -60 51 -33 137 -83 192 -111 l98 -51 39 38 c21 21 39 41 39 44 0 3 -26 17 -58 32 -130 61 -412 255 -412 283 0 8 2 15 5 15 3 0 38 -26 78 -59 78 -63 245 -169 347 -221 l64 -32 29 33 c126 148 256 347 321 491 38 83 37 87 -23 118 -13 7 -136 86 -273 176 -136 90 -251 164 -254 164 -3 0 -3 -7 0 -15 3 -9 26 -127 51 -263 24 -136 55 -300 68 -365 15 -74 21 -120 15 -123 -6 -4 -13 -2 -17 4 -9 14 -86 408 -120 614 l-26 158 -133 -91 c-106 -72 -132 -86 -132 -71 0 14 37 43 130 103 126 81 131 85 126 114 -19 124 -77 531 -82 578 -3 31 -9 57 -14 57 -5 0 -39 -23 -75 -50 -37 -28 -71 -47 -77 -44 -12 8 -13 7 91 87 60 46 63 50 58 85 -21 159 -47 382 -47 407 0 25 2 27 14 15 13 -14 56 -336 56 -421 0 -36 2 -38 153 -137 83 -54 272 -181 420 -280 l267 -181 -1 142 c0 78 -6 179 -13 225 -10 67 -10 82 1 78 34 -14 260 -56 353 -67 128 -14 431 -6 544 15 43 8 80 16 82 19 5 5 23 101 20 105 -2 1 -56 -4 -120 -13 -450 -59 -937 42 -1304 269 -227 141 -437 349 -539 536 -28 50 -57 147 -34 110 8 -12 11 -11 16 5 11 33 281 727 299 767 l16 38 -61 67 c-58 63 -247 294 -262 319 -4 6 -9 36 -13 65 l-6 54 27 -39 c21 -29 24 -40 15 -46 -9 -6 33 -64 144 -198 87 -105 163 -195 169 -200 7 -6 180 -19 384 -29 205 -11 376 -23 380 -26 3 -4 4 -10 0 -13 -3 -3 -169 3 -369 14 -200 11 -364 19 -365 18 -2 -2 97 -117 246 -285 l136 -153 434 7 c238 4 465 10 503 14 l68 6 -26 38 c-14 21 -24 40 -22 42 2 2 25 7 51 12 l47 8 -31 54 -31 54 -59 -6 c-59 -7 -89 -2 -89 14 0 5 24 9 54 9 30 0 58 5 61 10 7 12 -143 187 -241 281 -65 62 -162 135 -169 127 -1 -1 -6 -30 -10 -63 -7 -67 -10 -74 -27 -57 -8 8 -8 23 1 56 21 86 21 86 -91 148 -57 31 -134 70 -173 86 -85 36 -273 98 -278 92 -4 -4 -11 -53 -17 -117 0 -2 -7 -3 -16 -3 -12 0 -14 8 -9 48 4 26 9 55 11 64 3 10 -2 19 -14 22 -66 21 -211 38 -364 43 l-178 6 -1 -34 c-1 -48 -12 -82 -28 -87 -11 -4 -12 4 -6 34 18 95 23 86 -45 83 -33 -1 -60 2 -60 7 0 5 27 10 59 12 65 3 66 4 76 77 4 22 24 153 47 290 22 138 43 265 46 284 5 38 14 29 -134 141 -91 68 -111 87 -101 97 5 4 127 -85 225 -164 l32 -26 163 26 c89 15 223 36 297 47 74 12 168 28 209 36 40 8 77 14 82 14 11 0 12 -30 2 -30 -11 0 -179 -26 -293 -44 -52 -9 -158 -25 -235 -36 -77 -12 -153 -25 -170 -29 l-29 -7 49 -34 c28 -19 131 -94 229 -168 98 -74 184 -136 190 -138 7 -3 153 29 326 70 388 91 620 147 640 153 20 7 -128 144 -245 228 -108 77 -308 182 -425 223 -113 39 -282 78 -404 93 -121 15 -404 7 -531 -15 -118 -20 -115 -21 -115 14 l0 30 -75 0 -75 0 0 -72z m195 -2719 c7 -10 -21 -38 -37 -39 -12 0 -9 25 4 38 15 15 25 15 33 1z"/>
 <path d="M1960 8886 c-293 -113 -515 -302 -655 -558 l-37 -68 44 5 c41 5 621 55 637 55 4 0 31 33 59 74 52 74 52 75 52 150 0 60 -3 76 -15 76 -8 0 -84 -11 -169 -25 -166 -27 -196 -29 -196 -17 0 4 75 20 168 36 92 15 177 30 190 33 21 5 22 8 22 139 0 74 -3 134 -7 134 -5 -1 -46 -16 -93 -34z"/>
 <path d="M7835 8428 c-7 -61 -81 -517 -91 -565 l-6 -33 65 0 c98 0 313 -20 390 -36 38 -8 74 -14 81 -14 12 0 24 83 42 300 l5 55 -88 60 c-105 72 -284 204 -298 220 -12 14 -82 65 -88 65 -3 0 -8 -24 -12 -52z"/>
 <path d="M2016 8366 l-39 -56 39 -93 39 -92 3 78 c2 43 2 110 0 149 l-3 71 -39 -57z"/>
 <path d="M9265 8339 c-38 -10 -142 -35 -230 -55 -404 -90 -668 -155 -662 -161 2 -2 51 -36 110 -76 58 -39 177 -121 264 -181 87 -60 165 -110 173 -113 8 -2 119 23 245 57 127 33 280 72 340 87 61 14 112 27 114 29 13 11 -182 317 -252 395 l-32 36 -70 -18z"/>
 <path d="M1600 8268 c-210 -19 -338 -34 -343 -42 -26 -41 -96 -310 -83 -323 8 -9 480 29 493 39 7 5 67 82 134 171 67 89 127 168 132 175 5 6 8 11 6 11 -2 -1 -155 -15 -339 -31z"/>
 <path d="M1818 8101 l-134 -178 103 -207 103 -206 68 34 c93 47 200 125 289 209 63 60 74 75 71 98 -4 25 -1 27 40 33 69 9 192 7 192 -4 0 -5 -22 -17 -50 -27 -49 -17 -59 -33 -42 -60 6 -9 26 2 69 37 85 69 92 62 12 -13 l-67 -62 51 -175 c27 -96 51 -177 53 -179 2 -2 10 2 18 8 12 10 15 55 18 236 2 123 6 226 9 230 4 3 58 4 120 3 111 -3 113 -3 82 -19 l-33 -15 150 -85 c82 -46 150 -90 150 -97 0 -14 -39 6 -219 115 -113 69 -137 76 -127 41 16 -53 57 -261 71 -362 9 -61 16 -111 18 -112 22 -18 219 -114 226 -110 5 3 28 50 52 103 l44 98 3 267 3 266 -53 6 c-69 7 -988 19 -988 13 0 -3 14 -35 30 -72 34 -75 34 -75 20 -75 -6 0 -26 34 -45 75 -21 47 -40 75 -49 75 -12 0 -16 10 -16 36 0 34 -87 253 -101 254 -3 0 -67 -80 -141 -179z"/>
 <path d="M8348 8103 c-3 -4 -6 -28 -6 -53 -3 -53 -21 -226 -27 -257 -4 -19 1 -24 37 -33 150 -37 359 -126 466 -196 29 -20 55 -34 57 -32 3 2 7 29 11 59 3 29 10 72 14 94 5 22 6 43 2 46 -4 4 -115 79 -247 168 -132 88 -254 172 -272 186 -17 15 -33 22 -35 18z"/>
 <path d="M1385 7892 c-124 -9 -213 -20 -217 -26 -24 -35 5 -443 33 -471 13 -13 208 -10 319 6 84 11 241 53 312 84 l38 15 -101 201 c-55 111 -104 198 -108 193 -4 -5 -25 -31 -47 -59 -22 -27 -96 -116 -163 -197 -110 -133 -142 -164 -141 -140 0 4 66 86 146 182 80 96 155 187 166 203 l19 27 -23 -1 c-13 -1 -117 -9 -233 -17z"/>
 <path d="M9305 7814 c-181 -46 -334 -83 -340 -84 -19 -1 38 -40 283 -191 306 -189 364 -228 357 -239 -8 -14 -397 223 -634 386 -19 13 -36 22 -37 21 -2 -1 -5 -16 -8 -32 -3 -17 -10 -61 -17 -98 -6 -37 -10 -69 -8 -71 2 -1 33 -23 69 -48 73 -51 263 -242 329 -330 34 -45 48 -57 65 -53 134 28 257 62 344 93 l105 37 -6 77 c-11 133 -91 432 -154 575 l-18 40 -330 -83z"/>
 <path d="M2250 7724 c-36 -36 -105 -92 -155 -125 -231 -155 -483 -232 -761 -233 l-131 -1 10 -37 9 -38 144 0 c235 0 442 50 641 156 66 35 103 49 105 42 3 -7 51 28 111 81 113 99 112 97 99 178 l-7 43 -65 -66z"/>
 <path d="M2223 7542 c-56 -48 -102 -92 -102 -99 -2 -22 51 -178 85 -251 l34 -74 37 31 c21 17 51 42 67 55 l30 25 -19 200 c-10 111 -21 201 -24 201 -3 0 -52 -40 -108 -88z"/>
 <path d="M2591 7386 c-9 -11 -8 -22 3 -48 l14 -33 1 48 c1 51 -1 54 -18 33z"/>
 <path d="M3132 7328 c-48 -116 -147 -261 -256 -376 -42 -43 -67 -81 -82 -120 -12 -31 -25 -66 -30 -77 -23 -56 205 162 293 280 95 126 104 151 101 256 l-3 92 -23 -55z"/>
 <path d="M2838 7169 c2 -82 -1 -171 -6 -197 l-10 -47 52 57 c75 82 170 218 160 228 -5 4 -52 31 -104 59 l-95 50 3 -150z"/>
 <path d="M7919 7193 c-12 -39 -265 -690 -293 -755 l-16 -36 49 -74 c191 -291 498 -532 838 -656 l82 -30 17 51 c20 62 163 437 198 522 l25 60 -158 160 c-87 88 -191 196 -230 240 -40 44 -76 81 -81 83 -4 2 -10 -12 -14 -30 -11 -55 -204 -653 -210 -651 -4 1 -10 3 -15 5 -4 2 16 80 46 173 64 201 159 493 168 517 5 12 -16 40 -72 100 -100 104 -278 310 -293 338 -16 29 -27 25 -41 -17z"/>
 <path d="M2307 7143 c-25 -21 -46 -42 -46 -48 -1 -5 12 -29 28 -53 l28 -43 22 87 c12 47 20 88 18 91 -3 2 -25 -13 -50 -34z"/>
 <path d="M9734 7150 c-39 -16 -108 -39 -155 -50 -46 -11 -98 -25 -115 -30 -17 -6 -41 -10 -55 -10 -47 0 -50 -12 -17 -65 17 -28 32 -51 33 -53 6 -7 193 47 293 84 l102 38 0 58 c0 32 -3 58 -7 57 -5 0 -40 -13 -79 -29z"/>
 <path d="M3280 6895 l0 -55 460 0 460 0 0 55 0 55 -460 0 -460 0 0 -55z"/>
 <path d="M8687 6790 c-164 -4 -300 -10 -303 -13 -6 -6 154 -183 336 -369 l115 -118 290 10 c160 6 322 13 361 16 l72 6 -10 36 c-26 101 -66 209 -119 320 l-58 122 -193 -2 c-106 -1 -327 -4 -491 -8z"/>
 <path d="M9165 6280 c-88 -4 -194 -8 -235 -9 l-75 -1 165 -163 c91 -90 218 -212 282 -273 90 -83 116 -112 109 -123 -7 -11 -73 48 -289 263 -154 153 -285 275 -290 272 -5 -3 -13 -18 -16 -33 -7 -27 -129 -355 -188 -502 -16 -40 -27 -75 -26 -76 2 -2 31 -10 65 -19 237 -62 485 -85 697 -66 200 17 215 20 229 44 20 37 16 449 -7 584 l-18 112 -122 -2 c-66 -1 -193 -5 -281 -8z"/>
 <path d="M4320 5834 l0 -56 500 3 500 4 0 53 0 52 -500 0 -500 0 0 -56z"/>
 <path d="M7773 5519 c4 -24 26 -176 50 -338 l43 -294 125 -76 c68 -43 202 -130 298 -194 96 -64 178 -114 182 -111 28 17 125 407 117 471 -3 24 -49 59 -364 273 -199 135 -383 260 -409 279 l-48 34 6 -44z"/>
 <path d="M5442 4788 l3 -53 478 -3 477 -2 0 55 0 55 -481 0 -480 0 3 -52z"/>
 </g>
<g id="layer107" fill="#ffffff" stroke="none">
 <path d="M0 5400 l0 -5400 5400 0 5400 0 0 5400 0 5400 -5400 0 -5400 0 0 -5400z m7430 3639 c0 -45 2 -50 18 -44 45 17 230 56 342 71 166 22 446 15 607 -15 237 -45 455 -136 660 -277 420 -290 683 -722 773 -1274 25 -153 27 -305 5 -314 -11 -4 -15 -21 -15 -64 l0 -58 -102 -38 c-56 -20 -142 -48 -191 -61 -49 -13 -91 -26 -93 -27 -1 -2 21 -53 51 -113 88 -178 140 -353 170 -573 32 -229 4 -692 -42 -692 -16 0 -29 -29 -38 -82 -5 -35 -8 -37 -58 -47 -214 -43 -500 -41 -757 5 l-35 6 4 -160 c6 -314 -56 -576 -211 -886 -119 -237 -383 -566 -443 -551 -14 3 -33 -8 -61 -36 l-42 -41 -98 51 c-55 28 -141 78 -192 111 -51 33 -95 60 -98 60 -2 0 -4 -54 -4 -120 l0 -120 -171 0 c-106 0 -168 -4 -164 -10 7 -11 -33 -33 -91 -50 l-41 -12 -6 -362 c-5 -336 -21 -602 -58 -952 l-12 -111 53 -49 c103 -96 179 -225 180 -302 0 -65 -25 -108 -114 -197 -99 -98 -149 -133 -207 -143 -38 -6 -44 -11 -47 -35 -3 -22 3 -31 31 -47 51 -30 71 -79 64 -157 -4 -58 -3 -65 19 -82 13 -10 24 -25 24 -33 0 -7 -21 -37 -46 -66 -32 -36 -53 -52 -70 -52 -31 0 -73 21 -98 49 -15 17 -26 20 -56 15 -34 -6 -40 -3 -56 22 -14 20 -18 44 -17 88 l1 61 -85 50 c-99 57 -257 187 -291 238 -29 44 -26 84 8 108 20 14 138 53 258 85 9 3 12 59 12 239 0 202 2 235 15 235 19 0 19 44 4 360 -10 199 -10 289 5 585 9 193 19 373 22 401 l6 51 -49 18 c-74 27 -83 39 -83 106 l0 58 -57 3 -58 3 -3 432 -2 433 -478 2 -477 3 -3 52 -3 52 -57 3 -57 3 -3 468 c-2 454 -3 467 -22 467 -10 0 -21 -4 -24 -9 -4 -5 -44 -19 -89 -31 l-84 -22 -17 -117 c-10 -64 -31 -212 -47 -329 -32 -236 -40 -275 -75 -345 -29 -56 -134 -169 -258 -278 l-88 -77 1 -238 2 -238 102 -97 c165 -156 282 -339 344 -539 22 -69 37 -97 81 -149 62 -73 86 -120 70 -139 -15 -18 -30 -15 -92 17 -40 21 -56 26 -56 16 0 -7 -7 -21 -16 -30 -28 -28 -46 2 -52 87 -4 73 -6 77 -111 253 l-106 179 -109 68 c-90 58 -113 68 -137 63 -24 -5 -29 -12 -29 -36 0 -21 6 -32 23 -38 60 -24 85 -81 73 -169 -5 -39 -3 -49 13 -59 28 -17 42 -65 27 -94 -17 -34 -74 -69 -113 -69 -42 0 -71 14 -99 46 -17 21 -24 23 -47 15 -29 -11 -65 -2 -85 21 -15 19 -10 184 7 216 6 12 23 29 36 38 20 13 25 25 25 55 0 36 -2 39 -27 39 -21 0 -59 -29 -158 -119 l-131 -118 -49 -184 c-44 -164 -49 -193 -46 -272 3 -114 -16 -144 -60 -93 l-21 25 -50 -35 c-56 -38 -66 -41 -74 -20 -7 19 8 47 71 131 l52 70 6 135 c10 244 97 485 250 690 l34 45 -34 214 c-24 155 -30 217 -22 222 11 7 8 281 -7 534 l-6 100 -265 90 c-145 49 -266 92 -269 97 -3 4 -25 8 -50 8 -43 0 -44 0 -44 34 0 50 28 203 45 243 21 49 39 31 59 -54 16 -70 26 -83 66 -83 14 0 134 -18 267 -40 413 -68 439 -75 506 -149 40 -44 57 -93 57 -162 0 -26 3 -60 6 -77 l6 -30 112 54 c61 30 116 54 121 54 6 0 37 64 69 143 33 78 95 225 138 326 43 102 78 190 78 198 0 10 -64 13 -340 13 l-340 0 0 55 0 54 -57 3 -58 3 -3 473 -2 472 -460 0 -460 0 0 55 0 54 -57 3 -58 3 -5 114 -5 115 -39 -64 c-59 -96 -181 -236 -274 -314 -47 -40 -93 -88 -104 -109 l-19 -39 66 37 c88 50 167 58 243 25 29 -12 52 -26 52 -30 0 -4 20 -15 45 -24 54 -21 123 -86 150 -141 48 -101 21 -252 -61 -344 -51 -56 -98 -85 -158 -96 -36 -7 -38 -9 -31 -39 4 -17 9 -48 12 -68 5 -35 4 -37 -33 -47 -52 -15 -74 -14 -125 5 -28 10 -60 13 -86 10 -31 -4 -46 -1 -58 10 -17 18 -14 36 16 97 19 37 19 37 -1 37 -11 0 -37 16 -58 35 l-39 34 -43 -155 c-24 -85 -49 -162 -56 -172 -15 -19 -18 -71 -6 -87 4 -6 19 -18 34 -28 45 -28 61 -71 56 -146 -3 -43 0 -78 10 -100 19 -48 4 -77 -47 -91 -35 -9 -51 -7 -111 14 -87 30 -115 48 -140 89 -35 56 -22 135 29 181 26 23 30 100 6 110 -30 11 -105 129 -128 200 -21 68 -22 87 -22 401 0 294 2 333 18 360 9 17 17 38 17 48 0 10 7 47 16 82 l16 64 -44 58 c-87 113 -168 265 -208 388 -13 39 -24 71 -25 73 -2 2 -29 -10 -61 -26 -166 -83 -386 -132 -599 -132 l-144 0 -7 36 c-4 23 -13 38 -24 41 -39 10 -83 249 -82 448 0 360 112 637 356 881 154 154 308 247 509 309 78 24 87 29 87 51 0 13 5 24 10 24 6 0 10 -11 10 -24 l0 -24 63 14 c34 7 122 17 195 20 l132 7 27 -61 26 -62 319 0 318 0 0 65 c0 37 4 65 10 65 6 0 10 -28 10 -65 l0 -65 510 0 509 0 3 62 c2 38 8 63 16 66 9 3 12 -14 12 -62 l0 -66 545 0 544 0 3 62 c2 38 8 63 16 66 9 3 12 -14 12 -62 l0 -66 525 0 525 0 0 65 c0 37 4 65 10 65 6 0 10 -28 10 -65 l0 -65 448 1 c401 0 452 2 492 18 l45 17 -1 52 c-1 38 2 52 12 52 10 0 14 -14 14 -51z"/>
 <path d="M7850 9050 c-141 -14 -420 -74 -420 -91 0 -5 34 -9 75 -9 l75 0 0 -30 c0 -35 -3 -34 115 -14 127 22 410 30 531 15 223 -27 420 -87 614 -187 148 -76 270 -161 392 -274 l89 -82 50 12 c59 14 66 1 -81 154 -244 253 -571 423 -947 491 -104 19 -372 27 -493 15z"/>
 <path d="M2217 9035 c-60 -7 -115 -16 -123 -19 -18 -7 -20 -86 -1 -86 6 0 44 6 82 14 39 8 105 18 147 21 74 7 79 9 98 40 11 18 20 35 20 39 0 9 -103 5 -223 -9z"/>
 <path d="M2447 9006 c-23 -34 -22 -36 13 -36 33 0 35 4 16 38 l-13 24 -16 -26z"/>
 <path d="M1970 8981 c-357 -122 -618 -359 -753 -683 l-16 -38 34 0 c31 0 36 5 70 68 143 261 380 460 678 567 l77 28 0 43 c0 24 -1 44 -2 44 -2 0 -41 -13 -88 -29z"/>
 <path d="M9382 8370 c-18 -4 -35 -10 -37 -12 -3 -2 14 -26 37 -54 56 -67 146 -203 197 -296 42 -76 58 -89 89 -69 11 6 9 20 -11 67 -57 134 -200 368 -227 371 -8 0 -30 -2 -48 -7z"/>
 <path d="M1208 8233 c-35 -9 -103 -344 -70 -343 20 1 31 22 46 95 13 69 45 173 71 238 7 17 -7 21 -47 10z"/>
 <path d="M9652 7902 c-9 -6 -2 -34 29 -118 52 -136 117 -394 125 -496 4 -43 11 -78 17 -78 18 0 -12 269 -48 427 -9 37 -30 114 -47 171 -31 102 -42 115 -76 94z"/>
 <path d="M1120 7838 c0 -111 51 -441 65 -426 2 2 -3 48 -11 103 -9 60 -14 150 -12 227 3 127 3 128 -19 128 -19 0 -23 -5 -23 -32z"/>
 <path d="M2344 7773 c4 -27 18 -157 31 -291 l25 -243 -56 -237 c-31 -130 -59 -247 -61 -259 -5 -20 -1 -23 24 -23 57 0 189 -41 254 -79 62 -35 68 -37 93 -24 48 25 130 221 156 373 21 122 5 329 -45 620 -39 219 -33 204 -88 208 l-47 3 0 -312 0 -313 -67 -183 c-39 -103 -73 -183 -80 -183 -7 0 -13 2 -13 4 0 2 31 87 70 188 l70 185 -21 69 c-11 38 -24 83 -29 99 -5 17 -31 107 -59 200 -28 94 -56 187 -61 208 -10 36 -12 37 -56 37 l-46 0 6 -47z"/>
 <path d="M2078 7484 c-30 -16 -32 -21 -20 -42 6 -9 14 -6 31 12 30 32 24 49 -11 30z"/>
 <path d="M3260 7433 c-6 -27 -27 -84 -46 -127 -33 -76 -34 -84 -34 -203 l0 -123 50 0 50 0 0 250 c0 138 -2 250 -4 250 -2 0 -9 -21 -16 -47z"/>
 <path d="M2090 7425 l-24 -25 19 -53 c20 -57 95 -211 117 -240 12 -17 16 -17 27 -4 10 13 7 25 -15 68 -14 29 -43 104 -63 166 l-38 113 -23 -25z"/>
 <path d="M2242 7088 c-18 -18 -15 -26 27 -79 52 -66 65 -39 18 37 -26 40 -37 50 -45 42z"/>
 <path d="M9323 6923 c-29 -5 -29 -5 3 -53 26 -38 29 -40 81 -40 l54 0 -27 50 c-28 52 -40 57 -111 43z"/>
 <path d="M4230 6380 l0 -460 45 0 45 0 0 460 0 460 -45 0 -45 0 0 -460z"/>
 <path d="M9430 6678 c48 -101 81 -192 126 -345 4 -16 64 -17 64 -2 0 5 -13 63 -30 128 -25 102 -47 166 -102 314 -10 25 -15 27 -64 27 l-53 0 59 -122z"/>
 <path d="M2850 6704 c0 -3 5 -14 10 -25 13 -24 100 -28 100 -5 0 10 12 13 48 10 l47 -4 -30 15 c-29 13 -175 22 -175 9z"/>
 <path d="M3000 6650 c0 -5 -25 -10 -56 -10 -53 0 -59 -2 -132 -62 -172 -140 -193 -168 -194 -252 -1 -65 21 -116 70 -167 l39 -41 168 -3 c150 -3 173 -1 209 16 64 30 103 71 136 140 24 52 30 77 30 132 0 37 -6 82 -14 101 -21 51 -76 107 -131 132 -51 24 -125 32 -125 14z"/>
 <path d="M9570 6278 c0 -7 7 -53 16 -103 20 -116 28 -385 16 -500 -5 -49 -7 -92 -6 -94 8 -9 13 6 19 54 4 28 11 79 16 115 10 76 12 338 2 458 l-6 82 -28 0 c-17 0 -29 -5 -29 -12z"/>
 <path d="M2812 6090 c-13 -5 -32 -29 -42 -52 -29 -63 -27 -72 15 -65 20 3 60 -1 91 -9 58 -15 102 -18 127 -8 12 4 12 13 1 61 -7 31 -17 60 -23 66 -13 13 -141 19 -169 7z"/>
 <path d="M2437 5782 c-12 -13 -17 -37 -17 -84 0 -45 -6 -76 -17 -97 -25 -44 -10 -64 57 -74 29 -4 72 -16 96 -26 23 -11 45 -17 48 -13 3 3 6 43 6 89 0 90 -11 113 -65 133 -20 8 -25 17 -25 44 0 48 -50 65 -83 28z"/>
 <path d="M5350 5325 l0 -455 45 0 45 0 0 455 0 455 -45 0 -45 0 0 -455z"/>
 <path d="M4993 5683 c-10 -25 -70 -169 -133 -321 l-115 -276 -130 -56 -130 -57 0 -51 c1 -29 2 -124 3 -212 l2 -160 35 0 c39 0 69 23 293 235 71 67 136 158 152 213 6 20 24 136 41 257 16 121 36 258 45 305 8 47 18 100 21 118 3 17 4 32 2 32 -2 0 -18 4 -36 9 -31 9 -32 8 -50 -36z"/>
 <path d="M8586 5398 c7 -46 13 -147 13 -225 l1 -142 44 -30 44 -31 7 73 c10 88 9 334 0 376 -5 26 -13 32 -48 41 -23 6 -49 13 -57 16 -14 4 -15 -5 -4 -78z"/>
 <path d="M3591 5376 c-6 -33 -10 -60 -8 -61 1 -1 121 -42 267 -90 146 -48 268 -90 272 -94 4 -3 10 -149 14 -324 6 -263 10 -317 21 -313 20 8 199 43 261 51 l52 7 0 51 c0 29 -5 157 -10 286 -10 254 -21 313 -69 364 -50 55 -89 66 -446 126 l-344 57 -10 -60z"/>
 <path d="M8590 4969 c0 -76 -66 -343 -114 -459 -4 -10 3 -21 22 -33 l29 -17 31 78 c47 121 80 220 101 312 23 93 21 98 -38 133 l-31 18 0 -32z"/>
 <path d="M6420 4310 l0 -420 50 0 50 0 0 420 0 420 -50 0 -50 0 0 -420z"/>
 <path d="M8417 4378 c-59 -127 -142 -257 -249 -395 -49 -63 -88 -116 -85 -119 4 -5 79 74 157 165 105 123 278 390 265 411 -3 5 -15 15 -25 20 -18 9 -24 1 -63 -82z"/>
 <path d="M4412 3814 c-19 -13 -22 -24 -22 -90 0 -54 -4 -80 -15 -90 -16 -16 -19 -43 -7 -59 4 -6 36 -17 72 -24 35 -7 77 -19 92 -27 16 -8 33 -12 38 -9 6 3 10 40 10 82 0 76 0 76 -40 114 -21 21 -42 50 -46 66 -13 55 -40 67 -82 37z"/>
 <path d="M6764 3725 c-3 -14 -3 -37 0 -51 10 -38 96 -694 96 -728 0 -41 7 -29 15 24 13 89 105 636 114 680 6 25 10 57 11 73 l0 27 -115 0 c-114 0 -115 0 -121 -25z"/>
 <path d="M6670 3618 c-1 -24 -9 -200 -18 -393 -11 -224 -15 -404 -11 -500 4 -82 7 -209 8 -282 0 -72 4 -138 7 -147 5 -14 31 -16 183 -16 l177 0 32 408 c23 297 33 484 35 690 l2 282 -37 0 c-21 0 -38 -3 -38 -7 0 -16 -100 -630 -115 -706 -9 -48 -15 -135 -15 -232 0 -84 -4 -156 -9 -160 -17 -10 -22 32 -20 177 1 79 -4 175 -10 213 -19 121 -91 673 -91 700 0 11 -11 15 -40 15 l-40 0 0 -42z"/>
 <path d="M5043 3338 c-24 -12 -29 -49 -13 -113 l7 -30 11 28 12 28 54 -30 c66 -38 92 -41 75 -8 -23 42 -100 137 -112 136 -7 0 -22 -5 -34 -11z"/>
 <path d="M3844 3097 c-76 -102 -80 -124 -14 -67 43 36 49 37 76 3 l22 -28 7 57 c9 68 4 83 -25 91 -17 4 -30 -6 -66 -56z"/>
 <path d="M7051 1982 c3 -95 11 -107 30 -43 13 45 5 103 -17 122 -14 11 -15 3 -13 -79z"/>
 <path d="M6570 1584 c0 -9 37 -54 82 -100 93 -96 105 -96 109 -4 l3 55 -74 32 c-84 37 -120 42 -120 17z"/>
 <path d="M6799 1554 c-8 -10 -13 -47 -13 -103 l-1 -87 50 -12 c52 -13 91 -40 68 -49 -22 -8 -15 -21 17 -32 17 -5 30 -15 30 -20 0 -6 5 -11 10 -11 6 0 10 35 10 84 0 90 -10 115 -60 139 -19 10 -26 22 -28 52 -2 22 -9 43 -15 47 -20 13 -54 9 -68 -8z"/>
 <path d="M6764 1336 c-9 -24 3 -46 25 -46 11 0 27 -3 36 -6 10 -4 15 -2 13 6 -2 7 8 16 22 20 23 6 22 8 -18 19 -24 7 -50 15 -58 18 -7 3 -17 -2 -20 -11z"/>
 </g>

</svg>