<!DOCTYPE svg PUBLIC "-//W3C//DTD SVG 20010904//EN" "http://www.w3.org/TR/2001/REC-SVG-20010904/DTD/svg10.dtd">
<svg version="1.0" xmlns="http://www.w3.org/2000/svg" viewBox="0 0 10800 10800" preserveAspectRatio="xMidYMid meet">
    <g id="layer101" fill="#181817" stroke="none">
        <path
            d="M7409 9080 c0 -8 0 -34 1 -56 1 -41 0 -42 -46 -60 -51 -19 -44 -33 8 -15 17 6 33 10 34 8 2 -2 15 -962 28 -2133 14 -1171 28 -2312 32 -2536 l6 -408 -526 0 -526 0 0 2595 c0 1723 -3 2595 -10 2595 -7 0 -10 -708 -10 -2105 l0 -2105 -530 0 -530 0 -2 2113 c-3 2016 -3 2040 -5 525 l-3 -1588 -555 0 -555 0 -2 1588 c-2 1272 -3 1377 -5 530 l-3 -1058 -515 0 -515 0 0 248 c0 218 3 259 20 328 12 43 23 115 25 159 l4 80 -10 -80 c-5 -44 -15 -102 -23 -130 -13 -44 -14 41 -15 723 -1 507 -4 772 -11 772 -7 0 -10 -186 -10 -537 l0 -536 -387 7 c-214 3 -456 7 -540 7 l-151 1 -1 314 -1 314 28 1 c15 0 36 5 47 10 14 6 5 7 -27 3 l-48 -6 0 181 c0 137 3 182 13 185 6 2 30 9 52 15 22 7 87 16 145 20 95 7 98 8 35 9 -38 1 -109 -4 -157 -12 l-88 -13 0 24 c0 14 -4 21 -10 18 -5 -3 -10 -15 -10 -25 0 -13 -12 -22 -37 -30 -21 -6 -52 -18 -70 -26 -17 -8 -34 -14 -38 -14 -22 0 -181 -79 -249 -124 -259 -169 -433 -407 -511 -700 -14 -49 -27 -116 -29 -150 -5 -61 -5 -61 8 14 15 83 46 201 55 212 3 4 101 15 216 25 116 10 200 19 187 21 -12 2 -106 -4 -208 -13 -103 -9 -188 -15 -189 -13 -8 8 74 172 122 244 155 238 432 439 690 499 l51 12 7 -91 c3 -50 5 -131 3 -181 l-3 -90 -55 -12 -55 -13 57 6 58 5 0 -79 c0 -75 -2 -83 -37 -133 -76 -113 -54 -102 -246 -121 -95 -9 -131 -15 -82 -12 50 2 126 7 169 11 l79 6 -137 -182 c-76 -99 -143 -184 -150 -188 -6 -4 -45 -10 -86 -14 l-75 -7 73 2 c39 0 72 -1 72 -3 0 -5 -90 -117 -214 -266 -55 -66 -104 -127 -110 -136 -30 -43 81 84 200 229 73 89 136 163 140 163 4 0 53 -90 111 -201 l104 -201 -43 -19 c-63 -27 -211 -69 -303 -84 -44 -8 -68 -14 -54 -15 42 -2 182 27 267 55 181 60 364 167 505 294 37 34 67 60 68 58 0 -2 2 -12 3 -23 2 -11 6 -38 10 -61 l7 -41 -140 -121 c-77 -67 -142 -122 -145 -122 -4 0 -6 9 -6 20 0 11 -4 20 -10 20 -13 0 -14 4 16 -86 45 -136 120 -271 241 -433 12 -16 6 -59 -14 -111 -3 -8 -7 -22 -8 -30 -3 -29 -18 -65 -28 -72 -16 -10 -15 -627 1 -703 16 -80 62 -171 111 -220 50 -50 56 -103 17 -144 -14 -15 -30 -47 -37 -72 -11 -42 -10 -50 10 -92 19 -40 32 -51 87 -78 79 -39 153 -49 190 -24 23 15 25 21 19 58 -3 23 -8 76 -10 117 -3 90 -15 123 -52 147 -15 10 -31 22 -35 28 -11 14 -10 69 1 81 8 8 101 312 101 330 0 3 19 -10 41 -30 23 -19 45 -34 48 -31 4 2 12 0 18 -3 9 -5 6 -20 -8 -52 -31 -70 -24 -85 39 -86 30 -1 74 -7 98 -14 45 -13 129 -9 145 7 5 5 5 23 -1 43 -5 19 -12 50 -15 68 -5 30 -4 33 15 27 12 -4 27 -1 35 5 8 6 19 9 25 5 5 -3 10 -1 10 4 0 6 5 11 10 11 22 0 93 56 120 94 63 93 82 234 42 313 -33 64 -76 108 -137 138 -30 16 -55 31 -55 34 0 7 -40 25 -80 37 -14 4 -53 7 -86 7 -52 -1 -72 -7 -127 -37 l-65 -37 29 71 c15 39 34 89 41 111 8 27 38 70 89 126 43 47 100 117 127 156 53 76 142 246 142 269 0 7 -20 -29 -45 -80 l-44 -93 -121 61 c-103 52 -120 64 -120 84 0 26 -65 418 -76 454 -4 14 -2 22 6 22 14 0 115 -54 249 -132 46 -27 85 -47 87 -45 2 2 -41 30 -97 63 -55 32 -122 72 -149 88 l-50 30 33 15 c31 16 29 16 -82 19 -62 1 -116 0 -120 -3 -3 -4 -7 -106 -9 -228 -3 -207 -8 -247 -32 -247 -4 0 -11 12 -15 28 -14 47 -15 52 -18 65 -1 6 -5 17 -8 22 -4 6 -21 61 -39 124 l-33 113 69 64 c82 75 78 84 -9 14 -43 -35 -63 -46 -69 -37 -17 27 -7 43 42 60 28 10 50 22 50 27 0 11 -123 13 -192 4 -41 -6 -44 -8 -40 -33 7 -54 -208 -239 -380 -327 l-48 -24 -46 92 c-26 51 -73 144 -106 206 -33 61 -58 118 -56 125 4 17 269 367 278 367 11 0 99 -206 106 -250 4 -22 12 -40 19 -40 6 0 17 -10 24 -22 l11 -23 -6 23 -5 22 263 -5 c145 -3 381 -8 526 -11 l263 -6 -1 -287 c-1 -157 -1 -386 -1 -508 l1 -223 525 0 525 0 0 -530 0 -530 560 0 560 0 0 -525 0 -525 540 0 540 0 0 -490 0 -490 535 0 535 0 0 93 c0 74 -38 3391 -53 4669 -2 174 -1 321 2 326 14 23 281 78 451 93 130 12 335 7 430 -10 30 -6 74 -13 97 -16 112 -16 301 -79 438 -148 178 -89 438 -299 554 -448 l20 -26 -77 -20 c-42 -12 -129 -33 -192 -47 -63 -14 -272 -62 -463 -107 -345 -80 -348 -81 -374 -62 -14 10 -33 23 -41 28 -22 14 -20 13 -181 133 -79 59 -163 120 -185 136 l-40 30 29 7 c17 4 93 17 170 29 77 11 183 27 235 36 52 8 133 21 180 28 47 7 94 17 105 24 l20 11 -20 2 c-11 1 -24 0 -30 -1 -5 -1 -22 -4 -37 -6 -16 -2 -58 -9 -95 -15 -38 -6 -80 -13 -95 -15 -16 -2 -58 -9 -95 -15 -38 -6 -78 -13 -91 -14 -12 -2 -86 -13 -162 -25 l-140 -23 -33 27 c-97 78 -219 167 -224 163 -10 -10 10 -29 101 -97 154 -116 140 -99 132 -166 -4 -32 -26 -171 -48 -309 -22 -137 -43 -264 -45 -282 -5 -32 -5 -32 -72 -35 -36 -2 -65 -7 -63 -12 1 -5 30 -8 64 -7 l61 3 -6 -59 c-8 -67 7 -53 17 17 l6 45 118 -2 c97 -2 209 -11 337 -28 11 -1 39 -7 61 -14 l41 -11 -4 -59 c-3 -36 0 -62 6 -66 7 -4 11 4 12 19 1 14 3 31 4 36 1 6 3 22 4 36 1 22 5 25 29 23 15 -2 33 -7 40 -12 6 -5 12 -7 12 -4 0 21 359 -130 368 -154 2 -5 8 -7 13 -3 5 3 9 1 9 -4 0 -5 18 -17 40 -27 48 -21 54 -38 45 -118 -7 -72 9 -59 19 16 4 26 11 47 15 47 12 0 131 -92 181 -141 80 -77 231 -259 225 -269 -3 -5 -31 -10 -62 -10 -48 0 -54 -2 -43 -15 10 -12 26 -14 74 -9 l61 6 36 -53 c19 -30 48 -78 63 -106 l27 -53 -38 -2 c-21 -1 -72 -2 -113 -3 -41 0 -239 -5 -440 -10 -201 -6 -401 -9 -445 -8 l-80 3 -48 52 c-72 78 -163 180 -187 208 -12 14 -31 36 -43 50 -12 14 -42 49 -66 78 l-44 53 69 -5 c38 -3 110 -8 159 -10 50 -3 184 -11 298 -17 114 -6 211 -9 214 -5 18 18 -20 22 -422 40 -71 4 -175 9 -230 12 l-100 5 -40 43 c-22 23 -55 61 -73 84 -19 22 -43 51 -54 64 -11 13 -32 38 -46 57 -15 19 -31 39 -37 45 -60 67 -87 109 -74 116 11 7 10 13 -6 29 -19 22 -27 21 -31 -4 -1 -8 2 -12 7 -9 6 3 7 -4 4 -18 -5 -20 12 -47 98 -154 57 -71 132 -159 165 -197 l62 -67 -16 -38 c-9 -20 -22 -55 -29 -77 -24 -76 -246 -639 -257 -652 -6 -7 -7 -13 -4 -13 4 0 2 -10 -5 -21 -9 -17 -13 -19 -20 -8 -23 36 7 -62 34 -111 102 -187 312 -395 539 -536 366 -227 854 -328 1302 -269 164 22 161 20 176 102 18 107 24 187 25 333 0 230 -8 312 -51 490 -3 14 -7 32 -8 40 -2 8 -8 28 -15 43 -6 16 -9 32 -6 37 3 5 2 10 -2 12 -5 1 -19 35 -32 73 -34 99 -80 196 -139 295 -53 89 -53 100 0 100 15 0 37 4 50 9 13 5 50 15 83 22 33 7 65 16 70 19 6 4 48 20 95 35 148 48 141 42 139 143 -1 48 -5 107 -10 132 -5 25 -20 104 -33 175 -30 155 -81 312 -148 455 -44 93 -133 257 -148 270 -3 3 -18 24 -33 47 -36 56 -228 258 -303 319 -198 161 -433 276 -704 344 -155 39 -237 48 -420 48 -201 -1 -396 -25 -545 -68 -38 -11 -71 -20 -72 -20 -2 0 -3 17 -3 38 0 38 -18 84 -21 52z m474 -623 c165 -121 313 -233 315 -239 2 -4 10 -8 18 -8 8 0 14 -3 14 -7 0 -5 21 -21 46 -38 l46 -30 -6 -113 c-4 -62 -11 -124 -16 -138 -6 -14 -10 -44 -10 -66 l0 -40 -46 7 c-25 3 -56 9 -67 11 -65 15 -177 25 -300 27 l-138 2 5 50 c4 40 69 444 93 578 6 33 6 33 46 4z m-5813 -187 c0 -88 -3 -160 -7 -160 -5 0 -28 45 -51 100 l-44 99 42 60 c24 34 47 61 51 61 5 0 9 -72 9 -160z m7432 25 c55 -77 174 -300 180 -339 3 -16 -11 -22 -85 -42 -49 -13 -93 -21 -98 -18 -5 3 -9 0 -9 -7 0 -6 -8 -9 -20 -6 -11 3 -20 2 -20 -2 0 -7 -134 -42 -170 -46 -9 0 -21 -5 -28 -9 -7 -4 -16 -5 -19 -2 -3 3 -12 1 -19 -4 -6 -6 -16 -10 -20 -9 -5 1 -16 -1 -24 -4 -21 -9 -120 -36 -150 -41 -14 -2 -42 -7 -63 -11 -31 -6 -44 -3 -67 14 -16 11 -34 21 -40 21 -5 0 -10 5 -10 10 0 6 -7 10 -15 10 -8 0 -15 5 -15 10 0 6 -7 10 -15 10 -8 0 -15 5 -15 10 0 6 -7 10 -15 10 -8 0 -15 5 -15 10 0 6 -7 10 -15 10 -8 0 -15 5 -15 10 0 6 -7 10 -15 10 -8 0 -15 5 -15 10 0 6 -5 10 -11 10 -6 0 -17 6 -24 13 -34 29 -45 37 -55 37 -6 0 -13 7 -16 15 -4 8 -10 13 -14 10 -5 -3 -13 2 -18 11 -5 9 -13 16 -18 16 -9 0 -84 50 -114 75 -8 7 -23 19 -34 26 -16 12 -9 16 65 35 120 30 392 94 504 118 39 8 79 19 90 24 11 5 90 25 175 44 85 19 164 37 175 39 39 9 50 1 107 -78z m-1072 -247 c0 -5 5 -6 10 -3 6 3 13 -1 16 -9 3 -9 10 -13 15 -10 5 3 12 -2 15 -10 3 -9 10 -13 15 -10 5 3 12 -2 15 -10 3 -9 10 -13 15 -10 5 3 12 -2 15 -10 3 -9 12 -16 20 -16 8 0 14 -4 14 -10 0 -5 7 -10 15 -10 8 0 15 -4 15 -10 0 -5 6 -10 14 -10 8 0 16 -4 18 -9 2 -4 62 -47 134 -95 l131 -87 -5 -57 c-2 -31 -8 -61 -13 -66 -5 -6 -9 -25 -9 -43 0 -18 -2 -33 -4 -33 -10 0 -81 45 -88 55 -4 5 -8 6 -8 2 0 -5 -25 5 -55 22 -66 38 -187 87 -316 131 l-97 32 5 47 c3 25 5 53 5 61 0 27 19 205 23 218 3 9 16 5 45 -14 22 -15 40 -31 40 -36z m1294 -205 c65 -199 98 -384 100 -562 1 -71 0 -75 -24 -81 -14 -4 -47 -17 -73 -29 -46 -21 -250 -77 -312 -86 -16 -3 -40 -7 -51 -10 -16 -4 -29 4 -50 33 -49 64 -66 84 -169 191 -55 57 -133 128 -173 158 l-73 54 5 42 c13 100 15 113 23 135 9 23 9 23 33 5 29 -22 213 -138 385 -243 66 -41 122 -77 125 -81 3 -4 17 -13 30 -18 14 -6 42 -22 62 -36 20 -13 40 -21 43 -15 6 9 -76 70 -94 70 -6 0 -11 5 -11 10 0 6 -3 9 -8 8 -4 -2 -52 25 -107 60 -55 34 -109 68 -120 75 -11 6 -22 14 -25 18 -3 3 -65 42 -137 88 -73 45 -135 87 -138 91 -3 5 7 12 22 16 15 3 35 8 43 12 8 3 20 6 25 7 6 0 16 4 23 8 6 5 16 6 21 2 5 -3 13 0 16 6 4 5 13 8 21 5 7 -3 16 -1 20 5 3 6 12 8 20 5 7 -3 16 -1 20 5 3 6 12 8 20 5 7 -3 16 -1 20 5 3 6 12 8 20 5 7 -3 16 -1 20 5 3 6 12 8 20 5 7 -3 16 -1 20 5 3 6 12 8 20 5 7 -3 16 -1 20 5 3 6 12 8 20 5 7 -3 16 -1 20 5 3 6 12 8 20 5 7 -3 16 -1 20 5 3 6 12 8 20 5 8 -3 14 0 14 5 0 6 9 9 20 6 11 -3 20 -1 20 5 0 6 9 8 20 5 11 -3 20 -1 20 5 0 6 9 8 20 5 11 -3 20 -1 20 5 0 6 9 8 20 5 11 -3 20 -1 20 3 0 8 21 14 57 19 6 0 23 -34 37 -76z m-7270 -100 c35 -109 98 -321 107 -363 4 -19 16 -66 28 -104 24 -79 26 -66 -63 -305 -26 -68 -45 -129 -43 -135 2 -6 16 23 32 64 15 41 47 125 71 187 l44 111 0 312 0 311 48 -3 47 -3 18 -70 c56 -223 95 -592 77 -727 -21 -153 -112 -373 -167 -402 -24 -12 -31 -10 -92 25 -65 38 -197 79 -253 79 -27 0 -29 2 -24 33 2 17 5 32 6 32 1 0 3 11 5 25 2 14 25 115 51 225 l47 200 -27 265 c-35 347 -36 320 18 320 l44 0 26 -77z m-110 -145 c15 -108 37 -349 34 -362 -3 -15 -154 -146 -168 -146 -11 0 -107 188 -131 258 -16 45 -17 58 -7 68 40 39 254 223 260 224 4 0 9 -19 12 -42z m265 -260 l-1 -63 -13 50 c-10 35 -11 53 -3 62 17 21 18 17 17 -49z m336 -70 c77 -39 104 -57 100 -67 -11 -28 -119 -173 -172 -229 l-53 -57 7 65 c5 36 7 127 5 203 -1 75 0 137 3 137 3 0 52 -24 110 -52z m5021 -65 c22 -36 251 -298 294 -338 70 -66 72 -71 46 -161 -23 -75 -183 -585 -193 -611 -3 -7 -1 -13 4 -13 5 0 25 51 45 113 20 61 69 213 109 337 40 124 74 227 76 229 2 3 33 -29 70 -70 37 -41 142 -150 234 -244 l168 -170 -89 -237 c-48 -130 -92 -242 -96 -250 -5 -7 -9 -16 -10 -20 -1 -5 -3 -10 -4 -13 -1 -3 -3 -8 -4 -12 -1 -5 -10 -29 -20 -54 l-18 -47 -79 29 c-159 58 -365 173 -494 277 -78 62 -229 211 -260 256 -11 15 -25 33 -30 40 -6 6 -32 44 -57 85 l-47 73 15 37 c9 20 17 43 19 52 3 17 245 640 272 702 9 20 20 37 24 37 4 0 15 -12 25 -27z m-5622 -125 c-14 -62 -29 -117 -31 -121 -3 -5 -25 19 -50 53 -52 69 -56 56 42 139 33 27 61 48 63 46 2 -1 -9 -54 -24 -117z m7090 -278 l43 0 32 -75 c17 -41 33 -85 35 -97 3 -13 5 -24 7 -25 1 -2 3 -7 4 -13 1 -5 4 -12 5 -15 1 -3 3 -8 5 -12 1 -5 7 -21 13 -36 7 -15 11 -31 11 -35 -1 -4 0 -9 1 -12 1 -3 3 -12 5 -20 1 -8 8 -41 15 -73 6 -32 10 -60 8 -63 -6 -5 -192 -14 -628 -29 l-156 -6 -129 133 c-165 170 -306 322 -316 341 -8 13 10 16 124 21 186 8 849 23 865 19 8 -2 33 -3 56 -3z m-6419 -100 l50 -21 -52 4 c-40 3 -53 1 -53 -9 0 -10 -14 -14 -45 -14 -34 0 -47 5 -55 19 -15 29 -14 30 43 34 28 2 54 4 57 5 3 1 28 -7 55 -18z m131 -68 c77 -40 133 -130 134 -215 0 -57 -18 -137 -32 -137 -5 0 -6 -4 -3 -10 3 -5 1 -10 -5 -10 -6 0 -8 -4 -5 -10 3 -5 1 -10 -5 -10 -6 0 -9 -4 -6 -8 3 -5 -8 -24 -25 -43 -17 -19 -27 -27 -24 -19 4 8 -3 4 -14 -10 -11 -14 -21 -21 -21 -17 0 5 -7 1 -16 -7 -8 -9 -19 -14 -24 -11 -5 3 -10 0 -12 -7 -4 -12 -65 -13 -178 -2 -36 3 -83 1 -103 -4 -23 -6 -39 -7 -43 -1 -3 5 -10 7 -15 3 -15 -9 -96 77 -115 122 -20 48 -21 132 -1 171 17 32 65 78 179 171 72 58 80 62 128 62 30 0 57 6 65 14 18 17 86 7 141 -22z m6481 -346 c1 -1 6 -33 10 -72 17 -152 1 -547 -25 -615 -6 -14 -16 -26 -24 -26 -7 0 -53 -5 -103 -11 -293 -35 -535 -19 -818 54 -34 9 -63 17 -65 19 -2 1 4 19 12 39 8 20 13 36 10 36 -3 0 1 10 8 23 6 12 13 31 15 42 2 10 7 22 11 25 4 3 8 12 10 20 4 21 111 307 133 357 11 23 19 46 19 52 0 36 40 6 204 -156 284 -281 376 -366 383 -359 4 3 -119 129 -273 280 l-279 274 190 7 c105 4 262 10 350 14 134 6 221 5 232 -3z m-6665 -196 c21 -6 37 -14 36 -18 -1 -4 4 -27 11 -51 7 -23 10 -49 7 -56 -9 -24 -71 -28 -126 -10 -28 9 -71 15 -98 13 -45 -3 -47 -2 -44 21 3 34 41 91 66 101 29 12 104 12 148 0z m-458 -296 c10 -4 16 -18 16 -40 0 -28 5 -36 35 -50 20 -9 41 -26 47 -38 11 -19 12 -161 2 -178 -2 -3 -24 2 -48 13 -24 10 -67 22 -96 26 -67 10 -82 30 -57 74 11 21 17 52 17 97 0 87 27 118 84 96z" />
        <path
            d="M2427 9052 l22 -7 -29 -47 c-17 -27 -27 -48 -23 -48 5 0 21 20 37 45 15 25 31 43 35 40 3 -4 14 -25 23 -48 9 -23 17 -37 17 -30 1 6 -8 32 -19 57 -17 42 -22 46 -52 45 -27 -1 -29 -2 -11 -7z" />
        <path d="M1913 8613 c9 -2 23 -2 30 0 6 3 -1 5 -18 5 -16 0 -22 -2 -12 -5z" />
        <path d="M1853 8603 c9 -2 23 -2 30 0 6 3 -1 5 -18 5 -16 0 -22 -2 -12 -5z" />
        <path d="M2127 8553 c-21 -31 -36 -57 -34 -60 2 -2 21 21 42 52 21 30 36 57 34 59 -2 2 -21 -21 -42 -51z" />
        <path d="M1793 8593 c9 -2 23 -2 30 0 6 3 -1 5 -18 5 -16 0 -22 -2 -12 -5z" />
        <path d="M1733 8583 c9 -2 23 -2 30 0 6 3 -1 5 -18 5 -16 0 -22 -2 -12 -5z" />
        <path d="M1693 8573 c4 -3 10 -3 14 0 3 4 0 7 -7 7 -7 0 -10 -3 -7 -7z" />
        <path d="M2121 7945 c0 -5 8 -26 19 -45 11 -19 19 -30 19 -25 0 6 -8 26 -19 45 -11 19 -19 31 -19 25z" />
        <path d="M1113 7815 c1 -104 2 -108 4 -28 l4 92 47 4 47 3 -47 2 c-40 2 -47 5 -51 25 -2 12 -4 -32 -4 -98z" />
        <path d="M1398 7903 c17 -2 47 -2 65 0 17 2 3 4 -33 4 -36 0 -50 -2 -32 -4z" />
        <path d="M1268 7893 c18 -2 45 -2 60 0 15 2 0 4 -33 4 -33 0 -45 -2 -27 -4z" />
        <path d="M2160 7850 c0 -7 3 -10 7 -7 3 4 3 10 0 14 -4 3 -7 0 -7 -7z" />
        <path d="M3232 7820 c0 -19 2 -27 5 -17 2 9 2 25 0 35 -3 9 -5 1 -5 -18z" />
        <path d="M1123 7645 c0 -22 2 -30 4 -17 2 12 2 30 0 40 -3 9 -5 -1 -4 -23z" />
        <path d="M1132 7570 c0 -14 2 -19 5 -12 2 6 2 18 0 25 -3 6 -5 1 -5 -13z" />
        <path d="M1142 7520 c0 -14 2 -19 5 -12 2 6 2 18 0 25 -3 6 -5 1 -5 -13z" />
        <path d="M1151 7474 c0 -11 3 -14 6 -6 3 7 2 16 -1 19 -3 4 -6 -2 -5 -13z" />
        <path d="M1161 7444 c-1 -6 4 -25 10 -43 l11 -31 136 2 137 2 -134 6 -134 5 -13 35 c-7 19 -13 30 -13 24z" />
        <path d="M7597 6153 c-12 -12 -7 -22 8 -17 8 4 15 10 15 15 0 11 -14 12 -23 2z" />
        <path
            d="M7707 5933 c19 -174 25 -242 27 -297 l1 -50 -67 -50 c-61 -47 -85 -73 -74 -83 2 -2 34 19 70 47 66 49 86 59 86 41 0 -4 16 -118 36 -252 19 -134 37 -262 39 -284 3 -22 7 -58 10 -80 7 -45 24 -28 -165 -156 -66 -44 -93 -69 -76 -69 2 0 60 36 128 80 l123 80 7 -32 c4 -18 18 -95 32 -171 58 -322 109 -567 118 -567 5 0 7 8 4 18 -14 46 -115 601 -121 665 -2 20 -7 46 -10 57 -3 11 -3 20 0 20 8 0 45 -20 59 -32 6 -4 70 -46 141 -91 197 -125 424 -277 430 -287 13 -22 -154 -296 -230 -376 -19 -20 -35 -39 -35 -41 0 -6 -75 -87 -119 -130 l-34 -32 -70 36 c-108 54 -274 159 -354 224 -40 33 -75 59 -78 59 -3 0 -5 -7 -5 -15 0 -28 248 -200 398 -274 119 -60 106 -62 206 38 48 48 93 97 99 108 7 11 37 55 67 97 89 124 137 204 196 325 31 63 57 119 58 125 2 6 17 56 34 111 66 209 98 444 87 631 -4 63 -11 114 -14 114 -4 0 -6 -71 -3 -157 4 -139 -7 -296 -22 -310 -4 -5 -555 363 -801 535 l-120 84 -7 61 c-23 203 -48 381 -56 389 -5 5 -3 -45 5 -109z m576 -717 c315 -213 397 -273 397 -290 0 -30 -55 -236 -76 -282 -9 -21 -18 -41 -19 -44 -2 -5 -11 -27 -42 -98 l-18 -42 -37 25 c-20 14 -42 25 -47 25 -6 0 -11 5 -11 10 0 6 -7 10 -15 10 -8 0 -15 5 -15 10 0 6 -7 10 -15 10 -8 0 -15 5 -15 10 0 6 -7 10 -15 10 -8 0 -15 5 -15 10 0 6 -7 10 -15 10 -8 0 -15 5 -15 10 0 6 -7 10 -15 10 -8 0 -15 5 -15 10 0 6 -7 10 -15 10 -8 0 -15 5 -15 11 0 5 -5 7 -10 4 -6 -3 -13 1 -16 9 -3 9 -10 13 -15 10 -5 -3 -12 2 -15 10 -3 9 -10 13 -15 10 -5 -3 -12 2 -15 10 -3 9 -10 13 -15 10 -5 -3 -12 2 -15 10 -3 9 -10 13 -15 10 -5 -3 -12 2 -15 10 -3 9 -10 14 -14 11 -5 -3 -13 2 -18 11 -5 9 -13 16 -18 16 -17 1 -54 21 -54 30 0 4 -7 8 -15 8 -8 0 -15 5 -15 10 0 6 -5 10 -10 10 -6 0 -29 14 -53 31 -34 24 -43 38 -49 72 -23 134 -78 502 -83 560 l-7 68 59 -38 c32 -21 237 -159 456 -307z" />
        <path
            d="M5033 5783 c-18 -2 -33 -10 -33 -17 0 -14 -65 -178 -183 -461 l-83 -200 -45 -22 c-24 -11 -47 -19 -51 -16 -5 2 -8 -1 -8 -7 0 -6 -4 -8 -10 -5 -5 3 -10 1 -10 -6 0 -7 -3 -10 -6 -6 -4 3 -32 -7 -64 -23 l-58 -29 -6 31 c-3 17 -6 50 -6 73 0 23 -7 58 -15 78 -8 19 -11 37 -8 41 4 3 1 6 -6 6 -7 0 -10 4 -7 9 3 5 -1 12 -10 15 -9 4 -14 9 -11 12 7 8 -56 52 -101 71 -28 11 -200 43 -670 123 -23 4 -44 9 -46 11 -2 2 -13 36 -25 76 -12 40 -26 75 -31 78 -18 11 -47 -100 -65 -247 l-6 -58 40 0 c23 0 49 -4 59 -10 9 -5 135 -48 280 -95 l262 -86 1 -77 c0 -42 2 -186 5 -319 4 -180 2 -243 -7 -243 -7 0 -9 -9 -6 -22 4 -13 20 -112 37 -220 l30 -197 -49 -66 c-28 -36 -72 -110 -99 -163 -89 -174 -130 -328 -139 -521 l-6 -114 -63 -94 c-35 -51 -64 -98 -64 -103 0 -20 39 -9 82 24 l45 35 20 -26 c27 -38 50 -25 59 32 3 25 4 64 1 85 -7 52 84 415 110 440 10 10 69 63 132 119 88 78 120 101 142 101 27 0 29 -3 29 -40 0 -31 -5 -43 -24 -55 -32 -21 -43 -54 -50 -149 -6 -72 -4 -82 16 -103 22 -24 62 -30 87 -14 10 7 20 2 34 -16 47 -59 132 -65 187 -13 37 35 39 75 6 112 -22 23 -24 32 -19 81 3 31 3 62 1 69 -3 7 -7 18 -8 23 -5 15 -53 60 -72 68 -23 8 -24 62 -2 71 31 12 49 5 154 -61 l108 -66 103 -175 c95 -161 104 -181 111 -245 12 -102 37 -137 58 -82 5 14 12 25 15 25 3 0 28 -11 55 -25 52 -26 90 -32 90 -15 0 24 -49 104 -100 163 -13 15 -41 74 -61 130 -83 235 -211 425 -380 565 l-69 57 1 237 1 237 46 42 c127 113 272 264 294 307 40 73 46 101 83 371 19 140 42 293 51 341 l17 87 88 27 c49 14 89 31 89 36 0 10 -177 12 -247 3z m44 -77 c4 -4 -49 -397 -82 -610 -16 -107 -60 -202 -110 -240 -19 -15 -34 -32 -32 -38 1 -7 -9 -17 -23 -24 -14 -7 -56 -44 -92 -81 -107 -111 -175 -163 -214 -163 l-34 0 0 133 c0 74 -3 168 -6 210 l-7 76 119 56 c65 30 126 59 134 63 8 5 63 125 122 268 59 142 120 284 134 315 26 55 27 57 57 48 16 -5 32 -10 34 -13z m-1398 -280 c145 -15 591 -96 639 -116 43 -19 119 -80 98 -80 -4 0 0 -7 8 -16 9 -8 14 -19 11 -24 -3 -5 -1 -11 3 -14 5 -3 10 -35 11 -72 1 -37 4 -71 6 -75 3 -4 8 -113 11 -242 l5 -235 -53 -7 c-62 -8 -241 -43 -261 -51 -12 -4 -16 34 -21 228 -4 128 -9 272 -12 320 l-6 87 -142 47 c-112 37 -382 132 -393 139 -2 1 2 29 8 63 6 34 14 60 18 58 3 -2 35 -7 70 -10z m799 -1608 c5 -7 13 -28 17 -45 3 -18 10 -33 14 -33 5 0 23 -15 42 -32 33 -32 34 -34 31 -108 -2 -41 -7 -79 -11 -83 -5 -5 -22 -2 -38 6 -16 9 -58 21 -93 28 -36 7 -68 18 -72 24 -12 16 -9 43 7 59 11 10 15 36 15 90 0 66 3 77 22 90 27 19 52 20 66 4z m87 -108 c3 -5 4 -10 1 -10 -3 0 -8 5 -11 10 -3 6 -4 10 -1 10 3 0 8 -4 11 -10z m567 -413 c25 -29 53 -67 62 -85 15 -30 15 -32 0 -32 -10 0 -41 14 -71 30 -29 17 -55 30 -58 30 -3 0 -10 -12 -16 -27 -15 -40 -29 -12 -29 58 0 48 3 57 23 67 36 17 41 15 89 -41z m-1194 -217 c4 -77 -8 -92 -37 -51 l-22 30 -51 -39 c-29 -22 -54 -38 -56 -36 -7 8 27 63 73 119 39 48 49 55 68 48 19 -7 22 -17 25 -71z" />
        <path
            d="M6531 3751 c-16 -11 10 -30 77 -57 l43 -17 -6 -141 c-3 -77 -10 -235 -16 -351 -7 -128 -9 -346 -5 -557 6 -281 4 -348 -6 -348 -10 0 -13 -50 -13 -236 l0 -237 -88 -23 c-111 -30 -197 -65 -210 -85 -20 -32 3 -73 84 -152 78 -75 221 -179 286 -206 29 -12 30 -15 25 -56 -11 -97 19 -147 77 -127 24 8 31 6 58 -23 18 -18 46 -36 63 -40 29 -6 37 -2 77 36 65 64 70 76 40 108 -21 22 -25 35 -25 91 1 76 -17 118 -62 150 -24 17 -30 29 -28 49 3 22 10 27 50 36 57 12 118 55 208 147 115 117 132 177 81 283 -34 72 -69 120 -144 202 -68 72 -65 46 -37 374 37 419 40 461 40 695 0 127 3 271 6 321 l7 90 54 18 c53 18 81 39 66 48 -10 6 -132 12 -189 9 l-40 -2 -13 -92 c-15 -107 -109 -665 -115 -688 -3 -8 -5 -24 -7 -35 -2 -18 -12 32 -25 125 -66 473 -77 565 -78 647 0 33 -5 43 -21 47 -32 9 -199 6 -214 -3z m220 -108 c0 -10 3 -27 5 -38 12 -56 74 -542 70 -552 -3 -7 -1 -15 3 -17 5 -3 9 -25 9 -50 1 -24 6 -73 12 -107 5 -35 10 -122 10 -193 0 -71 2 -127 4 -125 2 2 5 63 7 134 2 72 7 150 11 175 5 25 9 60 10 78 1 18 5 35 10 38 4 3 6 9 3 14 -6 9 77 534 97 613 11 46 13 47 50 47 l38 0 -1 -227 c-1 -285 -10 -460 -43 -828 -14 -159 -26 -298 -26 -307 0 -17 -15 -18 -180 -18 -178 0 -180 0 -184 23 -3 12 -8 94 -11 182 -3 88 -8 222 -11 297 -5 113 18 714 31 818 2 14 4 33 4 43 1 13 10 17 41 17 31 0 40 -4 41 -17z m335 -1630 c7 -36 -9 -108 -26 -118 -6 -4 -10 29 -10 86 0 79 2 90 15 79 8 -7 17 -28 21 -47z m-396 -446 l74 -32 -3 -55 c-4 -92 -16 -92 -109 4 -118 121 -107 146 38 83z m174 -3 c11 -4 16 -19 16 -45 0 -34 4 -40 33 -52 55 -23 62 -40 59 -136 -3 -91 -8 -106 -23 -78 -6 9 -15 17 -22 17 -7 0 -19 5 -27 10 -13 9 -13 11 0 20 23 15 -6 38 -65 52 l-50 12 1 87 c1 109 19 136 78 113z m-40 -228 c6 -1 22 -6 36 -11 l25 -9 -25 -6 c-14 -4 -24 -13 -22 -20 2 -8 -3 -10 -13 -6 -9 3 -25 6 -36 6 -22 0 -34 22 -25 46 4 10 13 13 27 9 12 -4 27 -8 33 -9z" />
    </g>
    <g id="layer102" fill="#544f45" stroke="none">
        <path d="M3163 9073 c4 -3 10 -3 14 0 3 4 0 7 -7 7 -7 0 -10 -3 -7 -7z" />
        <path d="M6403 9073 c4 -3 10 -3 14 0 3 4 0 7 -7 7 -7 0 -10 -3 -7 -7z" />
        <path d="M7898 9073 c7 -3 16 -2 19 1 4 3 -2 6 -13 5 -11 0 -14 -3 -6 -6z" />
        <path d="M2359 9060 c24 -4 58 -3 75 1 22 5 9 7 -44 7 -65 0 -69 -1 -31 -8z" />
        <path d="M4223 9005 c0 -38 2 -53 4 -32 2 20 2 52 0 70 -2 17 -4 1 -4 -38z" />
        <path d="M2213 9053 c4 -3 10 -3 14 0 3 4 0 7 -7 7 -7 0 -10 -3 -7 -7z" />
        <path d="M2157 9039 c7 -7 15 -10 18 -7 3 3 -2 9 -12 12 -14 6 -15 5 -6 -5z" />
        <path d="M2243 9043 c4 -3 10 -3 14 0 3 4 0 7 -7 7 -7 0 -10 -3 -7 -7z" />
        <path d="M2484 8998 c-4 -7 -3 -8 4 -4 12 7 16 16 8 16 -3 0 -8 -5 -12 -12z" />
        <path d="M8493 9003 c4 -3 10 -3 14 0 3 4 0 7 -7 7 -7 0 -10 -3 -7 -7z" />
        <path d="M1955 8990 c3 -5 8 -10 11 -10 3 0 2 5 -1 10 -3 6 -8 10 -11 10 -3 0 -2 -4 1 -10z" />
        <path d="M2494 8978 c-4 -7 -3 -8 4 -4 7 4 12 9 12 12 0 8 -9 4 -16 -8z" />
        <path d="M2405 8970 c3 -5 8 -10 11 -10 3 0 2 5 -1 10 -3 6 -8 10 -11 10 -3 0 -2 -4 1 -10z" />
        <path d="M7393 8953 c4 -3 10 -3 14 0 3 4 0 7 -7 7 -7 0 -10 -3 -7 -7z" />
        <path d="M1805 8930 c3 -5 8 -10 11 -10 3 0 2 5 -1 10 -3 6 -8 10 -11 10 -3 0 -2 -4 1 -10z" />
        <path d="M2064 8785 c0 -77 2 -107 3 -67 2 40 2 103 0 140 -2 37 -3 4 -3 -73z" />
        <path d="M1725 8890 c3 -5 8 -10 11 -10 3 0 2 5 -1 10 -3 6 -8 10 -11 10 -3 0 -2 -4 1 -10z" />
        <path d="M1675 8860 c3 -5 8 -10 11 -10 3 0 2 5 -1 10 -3 6 -8 10 -11 10 -3 0 -2 -4 1 -10z" />
        <path d="M7423 8800 c0 -41 2 -58 4 -37 2 20 2 54 0 75 -2 20 -4 3 -4 -38z" />
        <path d="M1615 8820 c3 -5 8 -10 11 -10 3 0 2 5 -1 10 -3 6 -8 10 -11 10 -3 0 -2 -4 1 -10z" />
        <path d="M1575 8790 c3 -5 8 -10 11 -10 3 0 2 5 -1 10 -3 6 -8 10 -11 10 -3 0 -2 -4 1 -10z" />
        <path d="M1509 8744 c-7 -9 -6 -12 6 -10 22 3 40 23 20 23 -8 0 -20 -6 -26 -13z" />
        <path d="M1409 8648 c-5 -18 -6 -38 -1 -34 7 8 12 36 6 36 -2 0 -4 -1 -5 -2z" />
        <path d="M2015 8630 c3 -5 8 -10 11 -10 3 0 2 5 -1 10 -3 6 -8 10 -11 10 -3 0 -2 -4 1 -10z" />
        <path d="M1950 8620 c0 -5 5 -10 11 -10 5 0 7 5 4 10 -3 6 -8 10 -11 10 -2 0 -4 -4 -4 -10z" />
        <path d="M2063 8550 c0 -47 2 -66 4 -42 2 23 2 61 0 85 -2 23 -4 4 -4 -43z" />
        <path d="M1890 8610 c0 -7 3 -10 7 -7 3 4 3 10 0 14 -4 3 -7 0 -7 -7z" />
        <path d="M2170 8610 c0 -7 3 -10 7 -7 3 4 3 10 0 14 -4 3 -7 0 -7 -7z" />
        <path d="M1830 8600 c0 -7 3 -10 7 -7 3 4 3 10 0 14 -4 3 -7 0 -7 -7z" />
        <path d="M9265 8600 c3 -5 8 -10 11 -10 3 0 2 5 -1 10 -3 6 -8 10 -11 10 -3 0 -2 -4 1 -10z" />
        <path d="M1770 8590 c0 -7 3 -10 7 -7 3 4 3 10 0 14 -4 3 -7 0 -7 -7z" />
        <path d="M2155 8590 c3 -5 8 -10 11 -10 3 0 2 5 -1 10 -3 6 -8 10 -11 10 -3 0 -2 -4 1 -10z" />
        <path d="M1710 8580 c0 -7 3 -10 7 -7 3 4 3 10 0 14 -4 3 -7 0 -7 -7z" />
        <path d="M7413 8465 c0 -44 2 -61 4 -37 2 23 2 59 0 80 -2 20 -4 1 -4 -43z" />
        <path d="M1275 8450 c3 -5 8 -10 11 -10 3 0 2 5 -1 10 -3 6 -8 10 -11 10 -3 0 -2 -4 1 -10z" />
        <path d="M2058 8270 c-2 -88 0 -160 5 -160 4 0 7 72 7 160 0 88 -2 160 -5 160 -2 0 -5 -72 -7 -160z" />
        <path d="M1954 8318 c-4 -7 -3 -8 4 -4 12 7 16 16 8 16 -3 0 -8 -5 -12 -12z" />
        <path d="M1840 8300 c8 -5 20 -10 25 -10 6 0 3 5 -5 10 -8 5 -19 10 -25 10 -5 0 -3 -5 5 -10z" />
        <path d="M1720 8290 c8 -5 20 -10 25 -10 6 0 3 5 -5 10 -8 5 -19 10 -25 10 -5 0 -3 -5 5 -10z" />
        <path d="M1605 8280 c3 -5 11 -10 16 -10 6 0 7 5 4 10 -3 6 -11 10 -16 10 -6 0 -7 -4 -4 -10z" />
        <path d="M1490 8270 c8 -5 20 -10 25 -10 6 0 3 5 -5 10 -8 5 -19 10 -25 10 -5 0 -3 -5 5 -10z" />
        <path d="M1370 8260 c8 -5 20 -10 25 -10 6 0 3 5 -5 10 -8 5 -19 10 -25 10 -5 0 -3 -5 5 -10z" />
        <path d="M1238 8253 c7 -3 16 -2 19 1 4 3 -2 6 -13 5 -11 0 -14 -3 -6 -6z" />
        <path d="M1273 8243 c4 -3 10 -3 14 0 3 4 0 7 -7 7 -7 0 -10 -3 -7 -7z" />
        <path d="M1175 8230 c3 -5 8 -10 11 -10 3 0 2 5 -1 10 -3 6 -8 10 -11 10 -3 0 -2 -4 1 -10z" />
        <path d="M7790 8200 c0 -7 3 -10 7 -7 3 4 3 10 0 14 -4 3 -7 0 -7 -7z" />
        <path d="M1155 8160 c3 -5 8 -10 11 -10 3 0 2 5 -1 10 -3 6 -8 10 -11 10 -3 0 -2 -4 1 -10z" />
        <path d="M1145 8120 c3 -5 8 -10 11 -10 3 0 2 5 -1 10 -3 6 -8 10 -11 10 -3 0 -2 -4 1 -10z" />
        <path d="M1135 8080 c3 -5 8 -10 11 -10 3 0 2 5 -1 10 -3 6 -8 10 -11 10 -3 0 -2 -4 1 -10z" />
        <path d="M2062 8025 c0 -16 2 -22 5 -12 2 9 2 23 0 30 -3 6 -5 -1 -5 -18z" />
        <path d="M1125 8020 c3 -5 8 -10 11 -10 3 0 2 5 -1 10 -3 6 -8 10 -11 10 -3 0 -2 -4 1 -10z" />
        <path d="M2084 8018 c-4 -7 -3 -8 4 -4 7 4 12 9 12 12 0 8 -9 4 -16 -8z" />
        <path d="M7433 7945 c0 -44 2 -61 4 -37 2 23 2 59 0 80 -2 20 -4 1 -4 -43z" />
        <path d="M8310 8010 c0 -7 3 -10 7 -7 3 4 3 10 0 14 -4 3 -7 0 -7 -7z" />
        <path d="M2213 7993 c15 -2 39 -2 55 0 15 2 2 4 -28 4 -30 0 -43 -2 -27 -4z" />
        <path d="M2833 7983 c15 -2 37 -2 50 0 12 2 0 4 -28 4 -27 0 -38 -2 -22 -4z" />
        <path d="M1110 7946 c0 -8 5 -18 10 -21 6 -3 10 1 10 9 0 8 -4 18 -10 21 -5 3 -10 -1 -10 -9z" />
        <path d="M2113 7953 c4 -3 10 -3 14 0 3 4 0 7 -7 7 -7 0 -10 -3 -7 -7z" />
        <path d="M1620 7926 c0 -2 7 -7 16 -10 8 -3 12 -2 9 4 -6 10 -25 14 -25 6z" />
        <path d="M8320 7920 c0 -7 3 -10 7 -7 3 4 3 10 0 14 -4 3 -7 0 -7 -7z" />
        <path d="M1490 7910 c0 -5 7 -10 16 -10 8 0 12 5 9 10 -3 6 -10 10 -16 10 -5 0 -9 -4 -9 -10z" />
        <path d="M1350 7900 c0 -5 7 -10 16 -10 8 0 12 5 9 10 -3 6 -10 10 -16 10 -5 0 -9 -4 -9 -10z" />
        <path d="M1215 7890 c-3 -5 1 -10 9 -10 9 0 16 5 16 10 0 6 -4 10 -9 10 -6 0 -13 -4 -16 -10z" />
        <path d="M2153 7863 c4 -3 10 -3 14 0 3 4 0 7 -7 7 -7 0 -10 -3 -7 -7z" />
        <path d="M3221 7823 c0 -21 4 -47 9 -58 5 -13 7 -1 6 37 0 32 -4 58 -8 58 -5 0 -8 -17 -7 -37z" />
        <path d="M7748 7823 c6 -2 18 -2 25 0 6 3 1 5 -13 5 -14 0 -19 -2 -12 -5z" />
        <path d="M7863 7823 c9 -2 23 -2 30 0 6 3 -1 5 -18 5 -16 0 -22 -2 -12 -5z" />
        <path d="M1529 7768 c-5 -18 -6 -38 -1 -34 7 8 12 36 6 36 -2 0 -4 -1 -5 -2z" />
        <path d="M7700 7740 c0 -7 3 -10 7 -7 3 4 3 10 0 14 -4 3 -7 0 -7 -7z" />
        <path d="M2211 7716 c-8 -10 -9 -16 -1 -21 5 -3 10 -5 11 -3 4 18 7 38 4 38 -1 0 -8 -6 -14 -14z" />
        <path d="M2340 7720 c0 -7 3 -10 7 -7 3 4 3 10 0 14 -4 3 -7 0 -7 -7z" />
        <path d="M1110 7684 c0 -8 5 -12 10 -9 6 3 10 10 10 16 0 5 -4 9 -10 9 -5 0 -10 -7 -10 -16z" />
        <path d="M2330 7690 c0 -7 3 -10 7 -7 3 4 3 10 0 14 -4 3 -7 0 -7 -7z" />
        <path d="M1474 7678 c-4 -7 -3 -8 4 -4 12 7 16 16 8 16 -3 0 -8 -5 -12 -12z" />
        <path d="M7423 7615 c0 -44 2 -61 4 -37 2 23 2 59 0 80 -2 20 -4 1 -4 -43z" />
        <path d="M3216 7667 c3 -10 9 -15 12 -12 3 3 0 11 -7 18 -10 9 -11 8 -5 -6z" />
        <path d="M2760 7640 c0 -7 3 -10 7 -7 3 4 3 10 0 14 -4 3 -7 0 -7 -7z" />
        <path d="M2115 7630 c3 -5 8 -10 11 -10 3 0 2 5 -1 10 -3 6 -8 10 -11 10 -3 0 -2 -4 1 -10z" />
        <path d="M2284 7618 c-4 -7 -3 -8 4 -4 12 7 16 16 8 16 -3 0 -8 -5 -12 -12z" />
        <path d="M2350 7620 c0 -7 3 -10 7 -7 3 4 3 10 0 14 -4 3 -7 0 -7 -7z" />
        <path d="M8890 7620 c0 -7 3 -10 7 -7 3 4 3 10 0 14 -4 3 -7 0 -7 -7z" />
        <path d="M3205 7610 c3 -5 8 -10 11 -10 3 0 2 5 -1 10 -3 6 -8 10 -11 10 -3 0 -2 -4 1 -10z" />
        <path d="M1120 7600 c0 -5 5 -10 10 -10 6 0 10 5 10 10 0 6 -4 10 -10 10 -5 0 -10 -4 -10 -10z" />
        <path d="M2340 7590 c0 -7 3 -10 7 -7 3 4 3 10 0 14 -4 3 -7 0 -7 -7z" />
        <path d="M2254 7578 c-4 -7 -3 -8 4 -4 12 7 16 16 8 16 -3 0 -8 -5 -12 -12z" />
        <path d="M8900 7570 c0 -7 3 -10 7 -7 3 4 3 10 0 14 -4 3 -7 0 -7 -7z" />
        <path d="M1374 7558 c-4 -7 -3 -8 4 -4 7 4 12 9 12 12 0 8 -9 4 -16 -8z" />
        <path d="M9790 7560 c0 -7 3 -10 7 -7 3 4 3 10 0 14 -4 3 -7 0 -7 -7z" />
        <path d="M2790 7550 c0 -7 3 -10 7 -7 3 4 3 10 0 14 -4 3 -7 0 -7 -7z" />
        <path d="M1130 7539 c0 -5 5 -7 10 -4 6 3 10 8 10 11 0 2 -4 4 -10 4 -5 0 -10 -5 -10 -11z" />
        <path d="M1329 7528 c-5 -18 -6 -38 -1 -34 7 8 12 36 6 36 -2 0 -4 -1 -5 -2z" />
        <path d="M2360 7520 c0 -7 3 -10 7 -7 3 4 3 10 0 14 -4 3 -7 0 -7 -7z" />
        <path d="M2174 7508 c-4 -7 -3 -8 4 -4 7 4 12 9 12 12 0 8 -9 4 -16 -8z" />
        <path d="M1143 7493 c4 -3 10 -3 14 0 3 4 0 7 -7 7 -7 0 -10 -3 -7 -7z" />
        <path d="M2134 7488 c-4 -7 -3 -8 4 -4 12 7 16 16 8 16 -3 0 -8 -5 -12 -12z" />
        <path d="M2350 7490 c0 -7 3 -10 7 -7 3 4 3 10 0 14 -4 3 -7 0 -7 -7z" />
        <path d="M2800 7490 c0 -7 3 -10 7 -7 3 4 3 10 0 14 -4 3 -7 0 -7 -7z" />
        <path d="M2790 7460 c0 -7 3 -10 7 -7 3 4 3 10 0 14 -4 3 -7 0 -7 -7z" />
        <path d="M1153 7453 c4 -3 10 -3 14 0 3 4 0 7 -7 7 -7 0 -10 -3 -7 -7z" />
        <path d="M2094 7438 c-4 -7 -3 -8 4 -4 12 7 16 16 8 16 -3 0 -8 -5 -12 -12z" />
        <path d="M9810 7440 c0 -7 3 -10 7 -7 3 4 3 10 0 14 -4 3 -7 0 -7 -7z" />
        <path d="M9830 7440 c0 -7 3 -10 7 -7 3 4 3 10 0 14 -4 3 -7 0 -7 -7z" />
        <path d="M1705 7430 c3 -5 8 -10 11 -10 3 0 2 5 -1 10 -3 6 -8 10 -11 10 -3 0 -2 -4 1 -10z" />
        <path d="M2060 7430 c-9 -6 -10 -10 -3 -10 6 0 15 5 18 10 8 12 4 12 -15 0z" />
        <path d="M2371 7424 c0 -11 3 -14 6 -6 3 7 2 16 -1 19 -3 4 -6 -2 -5 -13z" />
        <path d="M1164 7418 c-4 -7 -3 -8 4 -4 12 7 16 16 8 16 -3 0 -8 -5 -12 -12z" />
        <path d="M3145 7400 c3 -5 8 -10 11 -10 3 0 2 5 -1 10 -3 6 -8 10 -11 10 -3 0 -2 -4 1 -10z" />
        <path d="M1174 7388 c-4 -7 -3 -8 4 -4 12 7 16 16 8 16 -3 0 -8 -5 -12 -12z" />
        <path d="M1525 7390 c3 -5 8 -10 11 -10 3 0 2 5 -1 10 -3 6 -8 10 -11 10 -3 0 -2 -4 1 -10z" />
        <path d="M2360 7390 c0 -7 3 -10 7 -7 3 4 3 10 0 14 -4 3 -7 0 -7 -7z" />
        <path d="M2800 7390 c0 -7 3 -10 7 -7 3 4 3 10 0 14 -4 3 -7 0 -7 -7z" />
        <path d="M1445 7380 c3 -5 11 -10 16 -10 6 0 7 5 4 10 -3 6 -11 10 -16 10 -6 0 -7 -4 -4 -10z" />
        <path d="M2825 7340 c3 -5 8 -10 11 -10 3 0 2 5 -1 10 -3 6 -8 10 -11 10 -3 0 -2 -4 1 -10z" />
        <path d="M9821 7334 c0 -11 3 -14 6 -6 3 7 2 16 -1 19 -3 4 -6 -2 -5 -13z" />
        <path d="M9841 7334 c0 -11 3 -14 6 -6 3 7 2 16 -1 19 -3 4 -6 -2 -5 -13z" />
        <path d="M2380 7330 c0 -7 3 -10 7 -7 3 4 3 10 0 14 -4 3 -7 0 -7 -7z" />
        <path d="M2370 7300 c0 -7 3 -10 7 -7 3 4 3 10 0 14 -4 3 -7 0 -7 -7z" />
        <path d="M2811 7294 c0 -11 3 -14 6 -6 3 7 2 16 -1 19 -3 4 -6 -2 -5 -13z" />
        <path d="M2832 7220 c0 -14 2 -19 5 -12 2 6 2 18 0 25 -3 6 -5 1 -5 -13z" />
        <path d="M2364 7218 c-4 -7 -3 -8 4 -4 12 7 16 16 8 16 -3 0 -8 -5 -12 -12z" />
        <path d="M3035 7180 c3 -5 8 -10 11 -10 3 0 2 5 -1 10 -3 6 -8 10 -11 10 -3 0 -2 -4 1 -10z" />
        <path d="M2295 7159 c-3 -4 2 -6 10 -5 21 3 28 13 10 13 -9 0 -18 -4 -20 -8z" />
        <path d="M2823 7115 c0 -33 2 -45 4 -27 2 18 2 45 0 60 -2 15 -4 0 -4 -33z" />
        <path d="M3015 7150 c3 -5 8 -10 11 -10 3 0 2 5 -1 10 -3 6 -8 10 -11 10 -3 0 -2 -4 1 -10z" />
        <path d="M7443 7085 c0 -44 2 -61 4 -37 2 23 2 59 0 80 -2 20 -4 1 -4 -43z" />
        <path d="M2174 7118 c-4 -7 -3 -8 4 -4 12 7 16 16 8 16 -3 0 -8 -5 -12 -12z" />
        <path d="M2355 7120 c3 -5 8 -10 11 -10 3 0 2 5 -1 10 -3 6 -8 10 -11 10 -3 0 -2 -4 1 -10z" />
        <path d="M2995 7120 c3 -5 8 -10 11 -10 3 0 2 5 -1 10 -3 6 -8 10 -11 10 -3 0 -2 -4 1 -10z" />
        <path d="M2236 7111 c-4 -5 -2 -12 3 -15 5 -4 12 -2 15 3 4 5 2 12 -3 15 -5 4 -12 2 -15 -3z" />
        <path d="M2346 7077 c3 -10 9 -15 12 -12 3 3 0 11 -7 18 -10 9 -11 8 -5 -6z" />
        <path d="M2831 7034 c0 -11 3 -14 6 -6 3 7 2 16 -1 19 -3 4 -6 -2 -5 -13z" />
        <path d="M2933 7035 c0 -8 4 -12 9 -9 5 3 6 10 3 15 -9 13 -12 11 -12 -6z" />
        <path
            d="M2870 6975 c-13 -14 -20 -25 -15 -25 5 0 -2 -12 -16 -27 -13 -16 -5 -11 17 10 22 21 41 44 41 52 0 19 1 19 -27 -10z m20 1 c0 -2 -8 -10 -17 -17 -16 -13 -17 -12 -4 4 13 16 21 21 21 13z" />
        <path d="M3438 6973 c145 -2 379 -2 520 0 141 1 23 2 -263 2 -286 0 -402 -1 -257 -2z" />
        <path d="M2299 6953 c-13 -16 -12 -17 4 -4 9 7 17 15 17 17 0 8 -8 3 -21 -13z" />
        <path d="M2300 6920 c0 -7 3 -10 7 -7 3 4 3 10 0 14 -4 3 -7 0 -7 -7z" />
        <path d="M4225 6380 c0 -261 1 -368 2 -237 2 130 2 344 0 475 -1 130 -2 23 -2 -238z" />
        <path d="M7433 6760 c0 -41 2 -58 4 -37 2 20 2 54 0 75 -2 20 -4 3 -4 -38z" />
        <path d="M9358 6823 c6 -2 18 -2 25 0 6 3 1 5 -13 5 -14 0 -19 -2 -12 -5z" />
        <path d="M8893 6813 c9 -2 25 -2 35 0 9 3 1 5 -18 5 -19 0 -27 -2 -17 -5z" />
        <path d="M8448 6803 c12 -2 30 -2 40 0 9 3 -1 5 -23 4 -22 0 -30 -2 -17 -4z" />
        <path d="M9363 6803 c4 -3 10 -3 14 0 3 4 0 7 -7 7 -7 0 -10 -3 -7 -7z" />
        <path d="M2913 6733 c9 -2 25 -2 35 0 9 3 1 5 -18 5 -19 0 -27 -2 -17 -5z" />
        <path d="M2233 6585 c0 -22 2 -30 4 -17 2 12 2 30 0 40 -3 9 -5 -1 -4 -23z" />
        <path d="M3291 6394 c0 -11 3 -14 6 -6 3 7 2 16 -1 19 -3 4 -6 -2 -5 -13z" />
        <path d="M3270 6360 c0 -7 3 -10 7 -7 3 4 3 10 0 14 -4 3 -7 0 -7 -7z" />
        <path d="M7453 6230 c0 -41 2 -58 4 -37 2 20 2 54 0 75 -2 20 -4 3 -4 -38z" />
        <path d="M9013 6293 c4 -3 10 -3 14 0 3 4 0 7 -7 7 -7 0 -10 -3 -7 -7z" />
        <path d="M9553 6293 c4 -3 10 -3 14 0 3 4 0 7 -7 7 -7 0 -10 -3 -7 -7z" />
        <path d="M3184 6178 l-19 -23 23 19 c12 11 22 21 22 23 0 8 -8 2 -26 -19z" />
        <path d="M2232 6130 c0 -14 2 -19 5 -12 2 6 2 18 0 25 -3 6 -5 1 -5 -13z" />
        <path d="M9642 6115 c0 -16 2 -22 5 -12 2 9 2 23 0 30 -3 6 -5 -1 -5 -18z" />
        <path d="M9662 6120 c0 -14 2 -19 5 -12 2 6 2 18 0 25 -3 6 -5 1 -5 -13z" />
        <path d="M2240 6040 c0 -7 3 -10 7 -7 3 4 3 10 0 14 -4 3 -7 0 -7 -7z" />
        <path d="M7690 6030 c0 -7 3 -10 7 -7 3 4 3 10 0 14 -4 3 -7 0 -7 -7z" />
        <path d="M7710 6010 c0 -7 3 -10 7 -7 3 4 3 10 0 14 -4 3 -7 0 -7 -7z" />
        <path d="M2740 5981 c0 -10 19 -25 25 -20 1 2 -3 10 -11 17 -8 7 -14 8 -14 3z" />
        <path d="M7443 5905 c0 -44 2 -61 4 -37 2 23 2 59 0 80 -2 20 -4 1 -4 -43z" />
        <path d="M7700 5930 c0 -7 3 -10 7 -7 3 4 3 10 0 14 -4 3 -7 0 -7 -7z" />
        <path d="M4488 5893 c155 -2 409 -2 565 0 155 1 28 2 -283 2 -311 0 -438 -1 -282 -2z" />
        <path d="M9230 5865 c13 -14 26 -25 28 -25 3 0 -5 11 -18 25 -13 14 -26 25 -28 25 -3 0 5 -11 18 -25z" />
        <path d="M9240 5887 c0 -2 15 -16 33 -33 l32 -29 -29 33 c-28 30 -36 37 -36 29z" />
        <path d="M9642 5865 c0 -16 2 -22 5 -12 2 9 2 23 0 30 -3 6 -5 -1 -5 -18z" />
        <path d="M9662 5850 c0 -14 2 -19 5 -12 2 6 2 18 0 25 -3 6 -5 1 -5 -13z" />
        <path d="M7710 5840 c0 -7 3 -10 7 -7 3 4 3 10 0 14 -4 3 -7 0 -7 -7z" />
        <path d="M2345 5810 c3 -5 8 -10 11 -10 3 0 2 5 -1 10 -3 6 -8 10 -11 10 -3 0 -2 -4 1 -10z" />
        <path d="M7740 5740 c0 -7 3 -10 7 -7 3 4 3 10 0 14 -4 3 -7 0 -7 -7z" />
        <path d="M9620 5670 c0 -7 3 -10 7 -7 3 4 3 10 0 14 -4 3 -7 0 -7 -7z" />
        <path d="M9640 5660 c0 -7 3 -10 7 -7 3 4 3 10 0 14 -4 3 -7 0 -7 -7z" />
        <path d="M2610 5630 c0 -7 3 -10 7 -7 3 4 3 10 0 14 -4 3 -7 0 -7 -7z" />
        <path d="M2633 5585 c0 -22 2 -30 4 -17 2 12 2 30 0 40 -3 9 -5 -1 -4 -23z" />
        <path d="M5060 5590 c0 -7 3 -10 7 -7 3 4 3 10 0 14 -4 3 -7 0 -7 -7z" />
        <path d="M5050 5530 c0 -7 3 -10 7 -7 3 4 3 10 0 14 -4 3 -7 0 -7 -7z" />
        <path d="M2330 5520 c0 -7 3 -10 7 -7 3 4 3 10 0 14 -4 3 -7 0 -7 -7z" />
        <path d="M5060 5500 c0 -7 3 -10 7 -7 3 4 3 10 0 14 -4 3 -7 0 -7 -7z" />
        <path d="M2355 5470 c3 -5 8 -10 11 -10 3 0 2 5 -1 10 -3 6 -8 10 -11 10 -3 0 -2 -4 1 -10z" />
        <path d="M5040 5460 c0 -7 3 -10 7 -7 3 4 3 10 0 14 -4 3 -7 0 -7 -7z" />
        <path d="M7463 5375 c0 -44 2 -61 4 -37 2 23 2 59 0 80 -2 20 -4 1 -4 -43z" />
        <path d="M3713 5433 c4 -3 10 -3 14 0 3 4 0 7 -7 7 -7 0 -10 -3 -7 -7z" />
        <path d="M5050 5430 c0 -7 3 -10 7 -7 3 4 3 10 0 14 -4 3 -7 0 -7 -7z" />
        <path d="M2634 5398 c-4 -7 -3 -8 4 -4 12 7 16 16 8 16 -3 0 -8 -5 -12 -12z" />
        <path d="M3813 5403 c4 -3 10 -3 14 0 3 4 0 7 -7 7 -7 0 -10 -3 -7 -7z" />
        <path d="M3903 5403 c4 -3 10 -3 14 0 3 4 0 7 -7 7 -7 0 -10 -3 -7 -7z" />
        <path d="M3963 5393 c4 -3 10 -3 14 0 3 4 0 7 -7 7 -7 0 -10 -3 -7 -7z" />
        <path d="M5030 5390 c0 -7 3 -10 7 -7 3 4 3 10 0 14 -4 3 -7 0 -7 -7z" />
        <path d="M4023 5383 c4 -3 10 -3 14 0 3 4 0 7 -7 7 -7 0 -10 -3 -7 -7z" />
        <path d="M3470 5370 c0 -7 3 -10 7 -7 3 4 3 10 0 14 -4 3 -7 0 -7 -7z" />
        <path d="M8702 5360 c0 -14 2 -19 5 -12 2 6 2 18 0 25 -3 6 -5 1 -5 -13z" />
        <path d="M5040 5360 c0 -7 3 -10 7 -7 3 4 3 10 0 14 -4 3 -7 0 -7 -7z" />
        <path d="M4113 5353 c4 -3 10 -3 14 0 3 4 0 7 -7 7 -7 0 -10 -3 -7 -7z" />
        <path d="M4180 5350 c-8 -5 -10 -10 -5 -10 6 0 17 5 25 10 8 5 11 10 5 10 -5 0 -17 -5 -25 -10z" />
        <path d="M8722 5340 c0 -14 2 -19 5 -12 2 6 2 18 0 25 -3 6 -5 1 -5 -13z" />
        <path d="M5020 5320 c0 -7 3 -10 7 -7 3 4 3 10 0 14 -4 3 -7 0 -7 -7z" />
        <path d="M4366 5292 c-3 -5 1 -9 9 -9 8 0 12 4 9 9 -3 4 -7 8 -9 8 -2 0 -6 -4 -9 -8z" />
        <path d="M7780 5280 c0 -7 3 -10 7 -7 3 4 3 10 0 14 -4 3 -7 0 -7 -7z" />
        <path d="M5010 5250 c0 -7 3 -10 7 -7 3 4 3 10 0 14 -4 3 -7 0 -7 -7z" />
        <path d="M4424 5218 c-4 -7 -3 -8 4 -4 12 7 16 16 8 16 -3 0 -8 -5 -12 -12z" />
        <path d="M5020 5210 c0 -7 3 -10 7 -7 3 4 3 10 0 14 -4 3 -7 0 -7 -7z" />
        <path d="M4434 5198 c-4 -7 -3 -8 4 -4 12 7 16 16 8 16 -3 0 -8 -5 -12 -12z" />
        <path d="M4445 5169 c-4 -6 -5 -12 -2 -15 2 -3 7 2 10 11 7 17 1 20 -8 4z" />
        <path d="M5000 5160 c0 -7 3 -10 7 -7 3 4 3 10 0 14 -4 3 -7 0 -7 -7z" />
        <path d="M8722 5130 c0 -14 2 -19 5 -12 2 6 2 18 0 25 -3 6 -5 1 -5 -13z" />
        <path d="M5010 5130 c0 -7 3 -10 7 -7 3 4 3 10 0 14 -4 3 -7 0 -7 -7z" />
        <path d="M7453 5055 c0 -44 2 -61 4 -37 2 23 2 59 0 80 -2 20 -4 1 -4 -43z" />
        <path d="M8702 5100 c0 -14 2 -19 5 -12 2 6 2 18 0 25 -3 6 -5 1 -5 -13z" />
        <path d="M4990 5090 c0 -7 3 -10 7 -7 3 4 3 10 0 14 -4 3 -7 0 -7 -7z" />
        <path d="M4695 5080 c3 -5 8 -10 11 -10 3 0 2 5 -1 10 -3 6 -8 10 -11 10 -3 0 -2 -4 1 -10z" />
        <path d="M4123 5030 c0 -30 2 -43 4 -27 2 15 2 39 0 55 -2 15 -4 2 -4 -28z" />
        <path d="M7830 5060 c0 -7 3 -10 7 -7 3 4 3 10 0 14 -4 3 -7 0 -7 -7z" />
        <path d="M8710 5040 c0 -7 3 -10 7 -7 3 4 3 10 0 14 -4 3 -7 0 -7 -7z" />
        <path d="M7820 5010 c0 -7 3 -10 7 -7 3 4 3 10 0 14 -4 3 -7 0 -7 -7z" />
        <path d="M8690 5010 c0 -7 3 -10 7 -7 3 4 3 10 0 14 -4 3 -7 0 -7 -7z" />
        <path d="M8690 4910 c0 -7 3 -10 7 -7 3 4 3 10 0 14 -4 3 -7 0 -7 -7z" />
        <path d="M4113 4855 c0 -27 2 -38 4 -22 2 15 2 37 0 50 -2 12 -4 0 -4 -28z" />
        <path d="M4463 4850 c0 -25 2 -35 4 -22 2 12 2 32 0 45 -2 12 -4 2 -4 -23z" />
        <path d="M8680 4860 c0 -7 3 -10 7 -7 3 4 3 10 0 14 -4 3 -7 0 -7 -7z" />
        <path d="M6405 4360 c0 -272 1 -384 2 -247 2 136 2 358 0 495 -1 136 -2 24 -2 -248z" />
        <path
            d="M4880 4825 c-7 -8 -16 -13 -20 -10 -4 3 -13 -2 -20 -10 -7 -8 -9 -15 -4 -15 4 0 -12 -21 -36 -47 -25 -27 -12 -17 28 22 39 38 72 71 72 72 0 7 -9 2 -20 -12z m-20 -19 c0 -3 -5 -8 -12 -12 -7 -4 -8 -3 -4 4 7 12 16 16 16 8z" />
        <path d="M7473 4515 c0 -44 2 -61 4 -37 2 23 2 59 0 80 -2 20 -4 1 -4 -43z" />
        <path d="M4612 4303 c-1 -116 1 -214 6 -216 4 -3 6 59 4 136 -4 265 -8 292 -10 80z" />
        <path d="M4110 4390 c0 -7 3 -10 7 -7 3 4 3 10 0 14 -4 3 -7 0 -7 -7z" />
        <path d="M4130 4260 c0 -7 3 -10 7 -7 3 4 3 10 0 14 -4 3 -7 0 -7 -7z" />
        <path d="M7463 4200 c0 -41 2 -58 4 -37 2 20 2 54 0 75 -2 20 -4 3 -4 -38z" />
        <path d="M8334 4148 c-4 -7 -3 -8 4 -4 7 4 12 9 12 12 0 8 -9 4 -16 -8z" />
        <path d="M4150 4130 c0 -7 3 -10 7 -7 3 4 3 10 0 14 -4 3 -7 0 -7 -7z" />
        <path d="M8274 4068 c-4 -7 -3 -8 4 -4 7 4 12 9 12 12 0 8 -9 4 -16 -8z" />
        <path d="M4154 4028 c-4 -7 -3 -8 4 -4 12 7 16 16 8 16 -3 0 -8 -5 -12 -12z" />
        <path d="M8224 4008 c-4 -7 -3 -8 4 -4 12 7 16 16 8 16 -3 0 -8 -5 -12 -12z" />
        <path d="M8129 3903 c-13 -16 -12 -17 4 -4 9 7 17 15 17 17 0 8 -8 3 -21 -13z" />
        <path d="M4815 3900 c3 -5 8 -10 11 -10 3 0 2 5 -1 10 -3 6 -8 10 -11 10 -3 0 -2 -4 1 -10z" />
        <path d="M6683 3883 c148 -2 386 -2 530 0 144 1 24 2 -268 2 -291 0 -409 -1 -262 -2z" />
        <path d="M4269 3753 c-13 -16 -12 -17 4 -4 9 7 17 15 17 17 0 8 -8 3 -21 -13z" />
        <path d="M6748 3753 c7 -3 16 -2 19 1 4 3 -2 6 -13 5 -11 0 -14 -3 -6 -6z" />
        <path d="M7018 3753 c12 -2 32 -2 45 0 12 2 2 4 -23 4 -25 0 -35 -2 -22 -4z" />
        <path d="M7148 3753 c12 -2 32 -2 45 0 12 2 2 4 -23 4 -25 0 -35 -2 -22 -4z" />
        <path d="M4555 3710 c3 -5 8 -10 11 -10 3 0 2 5 -1 10 -3 6 -8 10 -11 10 -3 0 -2 -4 1 -10z" />
        <path d="M4169 3663 c-13 -16 -12 -17 4 -4 16 13 21 21 13 21 -2 0 -10 -8 -17 -17z" />
        <path d="M4581 3644 c0 -11 3 -14 6 -6 3 7 2 16 -1 19 -3 4 -6 -2 -5 -13z" />
        <path d="M4069 3573 l-24 -28 28 24 c25 23 32 31 24 31 -2 0 -14 -12 -28 -27z" />
        <path d="M6770 3580 c0 -7 3 -10 7 -7 3 4 3 10 0 14 -4 3 -7 0 -7 -7z" />
        <path d="M6642 3535 c0 -16 2 -22 5 -12 2 9 2 23 0 30 -3 6 -5 -1 -5 -18z" />
        <path d="M7103 3485 c0 -44 2 -61 4 -37 2 23 2 59 0 80 -2 20 -4 1 -4 -43z" />
        <path d="M6776 3495 c-9 -26 -7 -32 5 -12 6 10 9 21 6 23 -2 3 -7 -2 -11 -11z" />
        <path d="M6652 3435 c0 -16 2 -22 5 -12 2 9 2 23 0 30 -3 6 -5 -1 -5 -18z" />
        <path d="M3890 3440 c0 -7 3 -10 7 -7 3 4 3 10 0 14 -4 3 -7 0 -7 -7z" />
        <path d="M4305 3440 c3 -5 8 -10 11 -10 3 0 2 5 -1 10 -3 6 -8 10 -11 10 -3 0 -2 -4 1 -10z" />
        <path d="M6786 3415 c-9 -26 -7 -32 5 -12 6 10 9 21 6 23 -2 3 -7 -2 -11 -11z" />
        <path d="M4435 3400 c3 -5 8 -10 11 -10 3 0 2 5 -1 10 -3 6 -8 10 -11 10 -3 0 -2 -4 1 -10z" />
        <path d="M6960 3400 c0 -7 3 -10 7 -7 3 4 3 10 0 14 -4 3 -7 0 -7 -7z" />
        <path d="M3880 3370 c0 -7 3 -10 7 -7 3 4 3 10 0 14 -4 3 -7 0 -7 -7z" />
        <path d="M6940 3370 c0 -7 3 -10 7 -7 3 4 3 10 0 14 -4 3 -7 0 -7 -7z" />
        <path d="M4493 3363 c4 -3 10 -3 14 0 3 4 0 7 -7 7 -7 0 -10 -3 -7 -7z" />
        <path d="M6800 3350 c0 -7 3 -10 7 -7 3 4 3 10 0 14 -4 3 -7 0 -7 -7z" />
        <path d="M6632 3325 c0 -16 2 -22 5 -12 2 9 2 23 0 30 -3 6 -5 -1 -5 -18z" />
        <path d="M6950 3340 c0 -7 3 -10 7 -7 3 4 3 10 0 14 -4 3 -7 0 -7 -7z" />
        <path d="M6790 3320 c0 -7 3 -10 7 -7 3 4 3 10 0 14 -4 3 -7 0 -7 -7z" />
        <path d="M6930 3310 c0 -7 3 -10 7 -7 3 4 3 10 0 14 -4 3 -7 0 -7 -7z" />
        <path d="M7083 3235 c0 -44 2 -61 4 -37 2 23 2 59 0 80 -2 20 -4 1 -4 -43z" />
        <path d="M6940 3280 c0 -7 3 -10 7 -7 3 4 3 10 0 14 -4 3 -7 0 -7 -7z" />
        <path d="M6806 3265 c-9 -26 -7 -32 5 -12 6 10 9 21 6 23 -2 3 -7 -2 -11 -11z" />
        <path d="M6642 3230 c0 -19 2 -27 5 -17 2 9 2 25 0 35 -3 9 -5 1 -5 -18z" />
        <path d="M6920 3250 c0 -7 3 -10 7 -7 3 4 3 10 0 14 -4 3 -7 0 -7 -7z" />
        <path d="M5020 3220 c0 -7 3 -10 7 -7 3 4 3 10 0 14 -4 3 -7 0 -7 -7z" />
        <path d="M6930 3220 c0 -7 3 -10 7 -7 3 4 3 10 0 14 -4 3 -7 0 -7 -7z" />
        <path d="M5104 3208 c-4 -7 -3 -8 4 -4 7 4 12 9 12 12 0 8 -9 4 -16 -8z" />
        <path d="M5124 3198 c-4 -7 -3 -8 4 -4 7 4 12 9 12 12 0 8 -9 4 -16 -8z" />
        <path d="M5144 3188 c-4 -7 -3 -8 4 -4 12 7 16 16 8 16 -3 0 -8 -5 -12 -12z" />
        <path d="M6816 3185 c-9 -26 -7 -32 5 -12 6 10 9 21 6 23 -2 3 -7 -2 -11 -11z" />
        <path d="M6910 3190 c0 -7 3 -10 7 -7 3 4 3 10 0 14 -4 3 -7 0 -7 -7z" />
        <path d="M5164 3178 c-4 -7 -3 -8 4 -4 7 4 12 9 12 12 0 8 -9 4 -16 -8z" />
        <path d="M6622 3120 c0 -19 2 -27 5 -17 2 9 2 25 0 35 -3 9 -5 1 -5 -18z" />
        <path d="M6830 3120 c0 -7 3 -10 7 -7 3 4 3 10 0 14 -4 3 -7 0 -7 -7z" />
        <path d="M6820 3090 c0 -7 3 -10 7 -7 3 4 3 10 0 14 -4 3 -7 0 -7 -7z" />
        <path d="M3805 3070 c3 -5 8 -10 11 -10 3 0 2 5 -1 10 -3 6 -8 10 -11 10 -3 0 -2 -4 1 -10z" />
        <path d="M3785 3040 c3 -5 8 -10 11 -10 3 0 2 5 -1 10 -3 6 -8 10 -11 10 -3 0 -2 -4 1 -10z" />
        <path d="M6632 3025 c0 -16 2 -22 5 -12 2 9 2 23 0 30 -3 6 -5 -1 -5 -18z" />
        <path d="M6836 3035 c-9 -26 -7 -32 5 -12 6 10 9 21 6 23 -2 3 -7 -2 -11 -11z" />
        <path d="M3834 3028 c-4 -7 -3 -8 4 -4 7 4 12 9 12 12 0 8 -9 4 -16 -8z" />
        <path d="M3875 3030 c3 -5 8 -10 11 -10 3 0 2 5 -1 10 -3 6 -8 10 -11 10 -3 0 -2 -4 1 -10z" />
        <path d="M3950 3030 c0 -7 3 -10 7 -7 3 4 3 10 0 14 -4 3 -7 0 -7 -7z" />
        <path d="M7091 2974 c0 -11 3 -14 6 -6 3 7 2 16 -1 19 -3 4 -6 -2 -5 -13z" />
        <path d="M6890 2970 c0 -7 3 -10 7 -7 3 4 3 10 0 14 -4 3 -7 0 -7 -7z" />
        <path d="M6613 2880 c0 -36 2 -50 4 -32 2 17 2 47 0 65 -2 17 -4 3 -4 -33z" />
        <path d="M7071 2924 c0 -11 3 -14 6 -6 3 7 2 16 -1 19 -3 4 -6 -2 -5 -13z" />
        <path d="M6874 2675 c0 -66 1 -92 3 -57 2 34 2 88 0 120 -2 31 -3 3 -3 -63z" />
        <path d="M6632 2710 c0 -19 2 -27 5 -17 2 9 2 25 0 35 -3 9 -5 1 -5 -18z" />
        <path d="M6622 2600 c0 -19 2 -27 5 -17 2 9 2 25 0 35 -3 9 -5 1 -5 -18z" />
        <path d="M6600 2023 c-3 -122 -2 -219 3 -214 4 4 6 104 5 222 l-3 214 -5 -222z" />
        <path d="M7135 2150 c3 -5 8 -10 11 -10 3 0 2 5 -1 10 -3 6 -8 10 -11 10 -3 0 -2 -4 1 -10z" />
        <path d="M7184 1738 l-19 -23 23 19 c12 11 22 21 22 23 0 8 -8 2 -26 -19z" />
        <path d="M7109 1663 c-13 -16 -12 -17 4 -4 16 13 21 21 13 21 -2 0 -10 -8 -17 -17z" />
        <path d="M6350 1576 c0 -2 8 -10 18 -17 15 -13 16 -12 3 4 -13 16 -21 21 -21 13z" />
        <path d="M6445 1490 c3 -5 8 -10 11 -10 3 0 2 5 -1 10 -3 6 -8 10 -11 10 -3 0 -2 -4 1 -10z" />
        <path d="M6964 1428 c-4 -7 -3 -8 4 -4 12 7 16 16 8 16 -3 0 -8 -5 -12 -12z" />
        <path d="M6992 1340 c0 -14 2 -19 5 -12 2 6 2 18 0 25 -3 6 -5 1 -5 -13z" />
        <path d="M6700 1320 c0 -7 3 -10 7 -7 3 4 3 10 0 14 -4 3 -7 0 -7 -7z" />
        <path d="M6800 1166 c0 -2 8 -10 18 -17 15 -13 16 -12 3 4 -13 16 -21 21 -21 13z" />
        <path d="M6969 1123 l-24 -28 28 24 c15 14 27 26 27 28 0 8 -8 1 -31 -24z" />
    </g>
    <g id="layer103" fill="#9c9c9c" stroke="none">
        <path d="M7400 9080 c0 -7 3 -10 7 -7 3 4 3 10 0 14 -4 3 -7 0 -7 -7z" />
        <path d="M7420 9080 c0 -7 3 -10 7 -7 3 4 3 10 0 14 -4 3 -7 0 -7 -7z" />
        <path d="M2303 9063 c4 -3 10 -3 14 0 3 4 0 7 -7 7 -7 0 -10 -3 -7 -7z" />
        <path d="M4203 9010 c0 -36 2 -50 4 -32 2 17 2 47 0 65 -2 17 -4 3 -4 -33z" />
        <path d="M5323 9010 c0 -36 2 -50 4 -32 2 17 2 47 0 65 -2 17 -4 3 -4 -33z" />
        <path d="M5343 9010 c0 -36 2 -50 4 -32 2 17 2 47 0 65 -2 17 -4 3 -4 -33z" />
        <path d="M2193 9053 c4 -3 10 -3 14 0 3 4 0 7 -7 7 -7 0 -10 -3 -7 -7z" />
        <path d="M2268 9043 c7 -3 16 -2 19 1 4 3 -2 6 -13 5 -11 0 -14 -3 -6 -6z" />
        <path d="M2188 9033 c7 -3 16 -2 19 1 4 3 -2 6 -13 5 -11 0 -14 -3 -6 -6z" />
        <path d="M7400 9000 c0 -7 3 -10 7 -7 3 4 3 10 0 14 -4 3 -7 0 -7 -7z" />
        <path d="M1534 8768 c-4 -7 -3 -8 4 -4 12 7 16 16 8 16 -3 0 -8 -5 -12 -12z" />
        <path d="M1465 8678 l-50 -53 53 50 c48 46 57 55 49 55 -1 0 -25 -24 -52 -52z" />
        <path d="M1384 8618 c-4 -7 -3 -8 4 -4 12 7 16 16 8 16 -3 0 -8 -5 -12 -12z" />
        <path d="M1374 8578 c-4 -7 -3 -8 4 -4 12 7 16 16 8 16 -3 0 -8 -5 -12 -12z" />
        <path d="M1344 8568 c-4 -7 -3 -8 4 -4 12 7 16 16 8 16 -3 0 -8 -5 -12 -12z" />
        <path d="M1344 8538 c-4 -7 -3 -8 4 -4 12 7 16 16 8 16 -3 0 -8 -5 -12 -12z" />
        <path d="M1208 8253 c7 -3 16 -2 19 1 4 3 -2 6 -13 5 -11 0 -14 -3 -6 -6z" />
        <path d="M1198 8233 c7 -3 16 -2 19 1 4 3 -2 6 -13 5 -11 0 -14 -3 -6 -6z" />
        <path d="M1140 8060 c0 -7 3 -10 7 -7 3 4 3 10 0 14 -4 3 -7 0 -7 -7z" />
        <path d="M1120 8040 c0 -7 3 -10 7 -7 3 4 3 10 0 14 -4 3 -7 0 -7 -7z" />
        <path d="M1130 8000 c0 -7 3 -10 7 -7 3 4 3 10 0 14 -4 3 -7 0 -7 -7z" />
        <path d="M1110 7970 c0 -7 3 -10 7 -7 3 4 3 10 0 14 -4 3 -7 0 -7 -7z" />
        <path d="M1121 7904 c0 -11 3 -14 6 -6 3 7 2 16 -1 19 -3 4 -6 -2 -5 -13z" />
        <path d="M1133 7873 c4 -3 10 -3 14 0 3 4 0 7 -7 7 -7 0 -10 -3 -7 -7z" />
        <path d="M2341 7744 c0 -11 3 -14 6 -6 3 7 2 16 -1 19 -3 4 -6 -2 -5 -13z" />
        <path d="M1122 7725 c0 -16 2 -22 5 -12 2 9 2 23 0 30 -3 6 -5 -1 -5 -18z" />
        <path d="M1110 7660 c0 -7 3 -10 7 -7 3 4 3 10 0 14 -4 3 -7 0 -7 -7z" />
        <path d="M2351 7644 c0 -11 3 -14 6 -6 3 7 2 16 -1 19 -3 4 -6 -2 -5 -13z" />
        <path d="M1131 7624 c0 -11 3 -14 6 -6 3 7 2 16 -1 19 -3 4 -6 -2 -5 -13z" />
        <path d="M9800 7630 c0 -7 3 -10 7 -7 3 4 3 10 0 14 -4 3 -7 0 -7 -7z" />
        <path d="M9780 7600 c0 -7 3 -10 7 -7 3 4 3 10 0 14 -4 3 -7 0 -7 -7z" />
        <path d="M1120 7580 c0 -7 3 -10 7 -7 3 4 3 10 0 14 -4 3 -7 0 -7 -7z" />
        <path d="M2770 7570 c0 -7 3 -10 7 -7 3 4 3 10 0 14 -4 3 -7 0 -7 -7z" />
        <path d="M1140 7560 c0 -7 3 -10 7 -7 3 4 3 10 0 14 -4 3 -7 0 -7 -7z" />
        <path d="M2500 7560 c0 -7 3 -10 7 -7 3 4 3 10 0 14 -4 3 -7 0 -7 -7z" />
        <path d="M2361 7544 c0 -11 3 -14 6 -6 3 7 2 16 -1 19 -3 4 -6 -2 -5 -13z" />
        <path d="M9820 7520 c0 -7 3 -10 7 -7 3 4 3 10 0 14 -4 3 -7 0 -7 -7z" />
        <path d="M1150 7510 c0 -7 3 -10 7 -7 3 4 3 10 0 14 -4 3 -7 0 -7 -7z" />
        <path d="M2780 7510 c0 -7 3 -10 7 -7 3 4 3 10 0 14 -4 3 -7 0 -7 -7z" />
        <path d="M9800 7490 c0 -7 3 -10 7 -7 3 4 3 10 0 14 -4 3 -7 0 -7 -7z" />
        <path d="M9830 7460 c0 -7 3 -10 7 -7 3 4 3 10 0 14 -4 3 -7 0 -7 -7z" />
        <path d="M2084 7448 c-4 -7 -3 -8 4 -4 12 7 16 16 8 16 -3 0 -8 -5 -12 -12z" />
        <path d="M2370 7450 c0 -7 3 -10 7 -7 3 4 3 10 0 14 -4 3 -7 0 -7 -7z" />
        <path d="M2790 7440 c0 -7 3 -10 7 -7 3 4 3 10 0 14 -4 3 -7 0 -7 -7z" />
        <path d="M2070 7415 c-7 -9 -11 -17 -9 -20 3 -2 10 5 17 15 14 24 10 26 -8 5z" />
        <path d="M9811 7414 c0 -11 3 -14 6 -6 3 7 2 16 -1 19 -3 4 -6 -2 -5 -13z" />
        <path d="M2800 7370 c0 -7 3 -10 7 -7 3 4 3 10 0 14 -4 3 -7 0 -7 -7z" />
        <path d="M2380 7350 c0 -7 3 -10 7 -7 3 4 3 10 0 14 -4 3 -7 0 -7 -7z" />
        <path d="M9822 7300 c0 -14 2 -19 5 -12 2 6 2 18 0 25 -3 6 -5 1 -5 -13z" />
        <path d="M2811 7264 c0 -11 3 -14 6 -6 3 7 2 16 -1 19 -3 4 -6 -2 -5 -13z" />
        <path d="M2392 7245 c0 -16 2 -22 5 -12 2 9 2 23 0 30 -3 6 -5 -1 -5 -18z" />
        <path d="M2360 7100 c0 -7 3 -10 7 -7 3 4 3 10 0 14 -4 3 -7 0 -7 -7z" />
        <path d="M2225 7079 c-4 -6 -5 -12 -2 -15 2 -3 7 2 10 11 7 17 1 20 -8 4z" />
        <path d="M2810 7000 c0 -7 3 -10 7 -7 3 4 3 10 0 14 -4 3 -7 0 -7 -7z" />
        <path d="M2275 6960 c3 -5 8 -10 11 -10 3 0 2 5 -1 10 -3 6 -8 10 -11 10 -3 0 -2 -4 1 -10z" />
        <path d="M2320 6930 c0 -7 3 -10 7 -7 3 4 3 10 0 14 -4 3 -7 0 -7 -7z" />
        <path d="M2290 6890 c0 -7 3 -10 7 -7 3 4 3 10 0 14 -4 3 -7 0 -7 -7z" />
        <path d="M2780 6870 c0 -7 3 -10 7 -7 3 4 3 10 0 14 -4 3 -7 0 -7 -7z" />
        <path d="M2470 6840 c0 -7 3 -10 7 -7 3 4 3 10 0 14 -4 3 -7 0 -7 -7z" />
        <path d="M4205 6370 c0 -261 1 -368 2 -237 2 130 2 344 0 475 -1 130 -2 23 -2 -238z" />
        <path d="M2953 6713 c4 -3 10 -3 14 0 3 4 0 7 -7 7 -7 0 -10 -3 -7 -7z" />
        <path d="M2232 6645 c0 -16 2 -22 5 -12 2 9 2 23 0 30 -3 6 -5 -1 -5 -18z" />
        <path d="M3215 6600 c10 -11 20 -20 23 -20 3 0 -3 9 -13 20 -10 11 -20 20 -23 20 -3 0 3 -9 13 -20z" />
        <path d="M3200 6585 c13 -14 26 -25 28 -25 3 0 -5 11 -18 25 -13 14 -26 25 -28 25 -3 0 5 -11 18 -25z" />
        <path d="M3290 6460 c0 -7 3 -10 7 -7 3 4 3 10 0 14 -4 3 -7 0 -7 -7z" />
        <path d="M3270 6450 c0 -7 3 -10 7 -7 3 4 3 10 0 14 -4 3 -7 0 -7 -7z" />
        <path d="M3270 6380 c0 -7 3 -10 7 -7 3 4 3 10 0 14 -4 3 -7 0 -7 -7z" />
        <path d="M3290 6370 c0 -7 3 -10 7 -7 3 4 3 10 0 14 -4 3 -7 0 -7 -7z" />
        <path d="M2222 6340 c0 -19 2 -27 5 -17 2 9 2 25 0 35 -3 9 -5 1 -5 -18z" />
        <path d="M9631 6204 c0 -11 3 -14 6 -6 3 7 2 16 -1 19 -3 4 -6 -2 -5 -13z" />
        <path d="M9661 6154 c0 -11 3 -14 6 -6 3 7 2 16 -1 19 -3 4 -6 -2 -5 -13z" />
        <path d="M2230 6100 c0 -7 3 -10 7 -7 3 4 3 10 0 14 -4 3 -7 0 -7 -7z" />
        <path d="M3023 6103 c4 -3 10 -3 14 0 3 4 0 7 -7 7 -7 0 -10 -3 -7 -7z" />
        <path d="M9643 6045 c0 -27 2 -38 4 -22 2 15 2 37 0 50 -2 12 -4 0 -4 -28z" />
        <path d="M2240 6020 c0 -7 3 -10 7 -7 3 4 3 10 0 14 -4 3 -7 0 -7 -7z" />
        <path d="M3000 6020 c0 -7 3 -10 7 -7 3 4 3 10 0 14 -4 3 -7 0 -7 -7z" />
        <path d="M3010 5980 c0 -7 3 -10 7 -7 3 4 3 10 0 14 -4 3 -7 0 -7 -7z" />
        <path d="M9643 5935 c0 -27 2 -38 4 -22 2 15 2 37 0 50 -2 12 -4 0 -4 -28z" />
        <path d="M2853 5943 c4 -3 10 -3 14 0 3 4 0 7 -7 7 -7 0 -10 -3 -7 -7z" />
        <path d="M2938 5943 c6 -2 18 -2 25 0 6 3 1 5 -13 5 -14 0 -19 -2 -12 -5z" />
        <path d="M2933 5923 c9 -2 25 -2 35 0 9 3 1 5 -18 5 -19 0 -27 -2 -17 -5z" />
        <path d="M2325 5830 c3 -5 8 -10 11 -10 3 0 2 5 -1 10 -3 6 -8 10 -11 10 -3 0 -2 -4 1 -10z" />
        <path d="M9661 5814 c0 -11 3 -14 6 -6 3 7 2 16 -1 19 -3 4 -6 -2 -5 -13z" />
        <path d="M5345 5323 l0 -458 48 -1 47 -1 -45 4 -45 4 -2 455 -3 454 0 -457z" />
        <path d="M9651 5714 c0 -11 3 -14 6 -6 3 7 2 16 -1 19 -3 4 -6 -2 -5 -13z" />
        <path d="M9620 5690 c0 -7 3 -10 7 -7 3 4 3 10 0 14 -4 3 -7 0 -7 -7z" />
        <path d="M5080 5610 c0 -7 3 -10 7 -7 3 4 3 10 0 14 -4 3 -7 0 -7 -7z" />
        <path d="M5070 5550 c0 -7 3 -10 7 -7 3 4 3 10 0 14 -4 3 -7 0 -7 -7z" />
        <path d="M9603 5553 c4 -3 10 -3 14 0 3 4 0 7 -7 7 -7 0 -10 -3 -7 -7z" />
        <path d="M3490 5520 c0 -7 3 -10 7 -7 3 4 3 10 0 14 -4 3 -7 0 -7 -7z" />
        <path d="M5040 5480 c0 -7 3 -10 7 -7 3 4 3 10 0 14 -4 3 -7 0 -7 -7z" />
        <path d="M5060 5480 c0 -7 3 -10 7 -7 3 4 3 10 0 14 -4 3 -7 0 -7 -7z" />
        <path d="M3480 5460 c0 -7 3 -10 7 -7 3 4 3 10 0 14 -4 3 -7 0 -7 -7z" />
        <path d="M8691 5434 c0 -11 3 -14 6 -6 3 7 2 16 -1 19 -3 4 -6 -2 -5 -13z" />
        <path d="M3733 5433 c4 -3 10 -3 14 0 3 4 0 7 -7 7 -7 0 -10 -3 -7 -7z" />
        <path d="M2650 5420 c0 -7 3 -10 7 -7 3 4 3 10 0 14 -4 3 -7 0 -7 -7z" />
        <path d="M3793 5423 c4 -3 10 -3 14 0 3 4 0 7 -7 7 -7 0 -10 -3 -7 -7z" />
        <path d="M3733 5413 c4 -3 10 -3 14 0 3 4 0 7 -7 7 -7 0 -10 -3 -7 -7z" />
        <path d="M3853 5413 c4 -3 10 -3 14 0 3 4 0 7 -7 7 -7 0 -10 -3 -7 -7z" />
        <path d="M5030 5410 c0 -7 3 -10 7 -7 3 4 3 10 0 14 -4 3 -7 0 -7 -7z" />
        <path d="M5050 5410 c0 -7 3 -10 7 -7 3 4 3 10 0 14 -4 3 -7 0 -7 -7z" />
        <path d="M3793 5403 c4 -3 10 -3 14 0 3 4 0 7 -7 7 -7 0 -10 -3 -7 -7z" />
        <path d="M3470 5390 c0 -7 3 -10 7 -7 3 4 3 10 0 14 -4 3 -7 0 -7 -7z" />
        <path d="M3863 5393 c4 -3 10 -3 14 0 3 4 0 7 -7 7 -7 0 -10 -3 -7 -7z" />
        <path d="M3923 5383 c4 -3 10 -3 14 0 3 4 0 7 -7 7 -7 0 -10 -3 -7 -7z" />
        <path d="M8721 5374 c0 -11 3 -14 6 -6 3 7 2 16 -1 19 -3 4 -6 -2 -5 -13z" />
        <path d="M2558 5373 c6 -2 18 -2 25 0 6 3 1 5 -13 5 -14 0 -19 -2 -12 -5z" />
        <path d="M3983 5373 c4 -3 10 -3 14 0 3 4 0 7 -7 7 -7 0 -10 -3 -7 -7z" />
        <path d="M4093 5373 c4 -3 10 -3 14 0 3 4 0 7 -7 7 -7 0 -10 -3 -7 -7z" />
        <path d="M4043 5363 c4 -3 10 -3 14 0 3 4 0 7 -7 7 -7 0 -10 -3 -7 -7z" />
        <path d="M4153 5363 c4 -3 10 -3 14 0 3 4 0 7 -7 7 -7 0 -10 -3 -7 -7z" />
        <path d="M5020 5340 c0 -7 3 -10 7 -7 3 4 3 10 0 14 -4 3 -7 0 -7 -7z" />
        <path d="M5040 5340 c0 -7 3 -10 7 -7 3 4 3 10 0 14 -4 3 -7 0 -7 -7z" />
        <path d="M4213 5333 c4 -3 10 -3 14 0 3 4 0 7 -7 7 -7 0 -10 -3 -7 -7z" />
        <path d="M8702 5320 c0 -14 2 -19 5 -12 2 6 2 18 0 25 -3 6 -5 1 -5 -13z" />
        <path d="M4385 5260 c10 -11 20 -20 23 -20 3 0 -3 9 -13 20 -10 11 -20 20 -23 20 -3 0 3 -9 13 -20z" />
        <path d="M5010 5270 c0 -7 3 -10 7 -7 3 4 3 10 0 14 -4 3 -7 0 -7 -7z" />
        <path d="M5031 5264 c0 -11 3 -14 6 -6 3 7 2 16 -1 19 -3 4 -6 -2 -5 -13z" />
        <path d="M5001 5184 c0 -11 3 -14 6 -6 3 7 2 16 -1 19 -3 4 -6 -2 -5 -13z" />
        <path d="M5021 5184 c0 -11 3 -14 6 -6 3 7 2 16 -1 19 -3 4 -6 -2 -5 -13z" />
        <path d="M8702 5145 c0 -16 2 -22 5 -12 2 9 2 23 0 30 -3 6 -5 -1 -5 -18z" />
        <path d="M4119 5108 c4 -28 6 -29 9 -9 2 13 0 27 -5 32 -6 6 -7 -3 -4 -23z" />
        <path d="M4990 5110 c0 -7 3 -10 7 -7 3 4 3 10 0 14 -4 3 -7 0 -7 -7z" />
        <path d="M5010 5110 c0 -7 3 -10 7 -7 3 4 3 10 0 14 -4 3 -7 0 -7 -7z" />
        <path d="M8721 5094 c0 -11 3 -14 6 -6 3 7 2 16 -1 19 -3 4 -6 -2 -5 -13z" />
        <path d="M4980 5050 c0 -7 3 -10 7 -7 3 4 3 10 0 14 -4 3 -7 0 -7 -7z" />
        <path d="M5000 5050 c0 -7 3 -10 7 -7 3 4 3 10 0 14 -4 3 -7 0 -7 -7z" />
        <path d="M8690 5030 c0 -7 3 -10 7 -7 3 4 3 10 0 14 -4 3 -7 0 -7 -7z" />
        <path d="M8710 5020 c0 -7 3 -10 7 -7 3 4 3 10 0 14 -4 3 -7 0 -7 -7z" />
        <path d="M8700 4950 c0 -7 3 -10 7 -7 3 4 3 10 0 14 -4 3 -7 0 -7 -7z" />
        <path d="M8670 4910 c0 -7 3 -10 7 -7 3 4 3 10 0 14 -4 3 -7 0 -7 -7z" />
        <path d="M4894 4868 c-4 -7 -3 -8 4 -4 12 7 16 16 8 16 -3 0 -8 -5 -12 -12z" />
        <path d="M4904 4848 c-4 -7 -3 -8 4 -4 12 7 16 16 8 16 -3 0 -8 -5 -12 -12z" />
        <path d="M5358 4843 c18 -2 45 -2 60 0 15 2 0 4 -33 4 -33 0 -45 -2 -27 -4z" />
        <path d="M4110 4370 c0 -7 3 -10 7 -7 3 4 3 10 0 14 -4 3 -7 0 -7 -7z" />
        <path d="M4120 4310 c0 -7 3 -10 7 -7 3 4 3 10 0 14 -4 3 -7 0 -7 -7z" />
        <path d="M4130 4240 c0 -7 3 -10 7 -7 3 4 3 10 0 14 -4 3 -7 0 -7 -7z" />
        <path d="M4140 4180 c0 -7 3 -10 7 -7 3 4 3 10 0 14 -4 3 -7 0 -7 -7z" />
        <path d="M4150 4110 c0 -7 3 -10 7 -7 3 4 3 10 0 14 -4 3 -7 0 -7 -7z" />
        <path d="M8294 4058 c-4 -7 -3 -8 4 -4 7 4 12 9 12 12 0 8 -9 4 -16 -8z" />
        <path d="M4160 4050 c0 -7 3 -10 7 -7 3 4 3 10 0 14 -4 3 -7 0 -7 -7z" />
        <path d="M4665 4050 c3 -5 8 -10 11 -10 3 0 2 5 -1 10 -3 6 -8 10 -11 10 -3 0 -2 -4 1 -10z" />
        <path d="M8254 4048 c-4 -7 -3 -8 4 -4 7 4 12 9 12 12 0 8 -9 4 -16 -8z" />
        <path d="M4735 3990 c10 -11 20 -20 23 -20 3 0 -3 9 -13 20 -10 11 -20 20 -23 20 -3 0 3 -9 13 -20z" />
        <path d="M8129 3873 l-34 -38 38 34 c34 33 42 41 34 41 -2 0 -19 -17 -38 -37z" />
        <path d="M4835 3880 c3 -5 8 -10 11 -10 3 0 2 5 -1 10 -3 6 -8 10 -11 10 -3 0 -2 -4 1 -10z" />
        <path d="M4543 3823 c9 -2 23 -2 30 0 6 3 -1 5 -18 5 -16 0 -22 -2 -12 -5z" />
        <path d="M4239 3723 c-13 -16 -12 -17 4 -4 16 13 21 21 13 21 -2 0 -10 -8 -17 -17z" />
        <path d="M6525 3730 c3 -5 8 -10 11 -10 3 0 2 5 -1 10 -3 6 -8 10 -11 10 -3 0 -2 -4 1 -10z" />
        <path d="M4144 3638 c-4 -7 -3 -8 4 -4 7 4 12 9 12 12 0 8 -9 4 -16 -8z" />
        <path d="M4292 3590 c0 -19 2 -27 5 -17 2 9 2 25 0 35 -3 9 -5 1 -5 -18z" />
        <path d="M6641 3574 c0 -11 3 -14 6 -6 3 7 2 16 -1 19 -3 4 -6 -2 -5 -13z" />
        <path d="M6661 3574 c0 -11 3 -14 6 -6 3 7 2 16 -1 19 -3 4 -6 -2 -5 -13z" />
        <path d="M6970 3570 c0 -7 3 -10 7 -7 3 4 3 10 0 14 -4 3 -7 0 -7 -7z" />
        <path d="M6990 3570 c0 -7 3 -10 7 -7 3 4 3 10 0 14 -4 3 -7 0 -7 -7z" />
        <path d="M6761 3534 c0 -11 3 -14 6 -6 3 7 2 16 -1 19 -3 4 -6 -2 -5 -13z" />
        <path d="M6780 3520 c0 -7 3 -10 7 -7 3 4 3 10 0 14 -4 3 -7 0 -7 -7z" />
        <path d="M6960 3510 c0 -7 3 -10 7 -7 3 4 3 10 0 14 -4 3 -7 0 -7 -7z" />
        <path d="M6980 3510 c0 -7 3 -10 7 -7 3 4 3 10 0 14 -4 3 -7 0 -7 -7z" />
        <path d="M3890 3460 c0 -7 3 -10 7 -7 3 4 3 10 0 14 -4 3 -7 0 -7 -7z" />
        <path d="M4650 3460 c0 -7 3 -10 7 -7 3 4 3 10 0 14 -4 3 -7 0 -7 -7z" />
        <path d="M6770 3460 c0 -7 3 -10 7 -7 3 4 3 10 0 14 -4 3 -7 0 -7 -7z" />
        <path d="M6950 3450 c0 -7 3 -10 7 -7 3 4 3 10 0 14 -4 3 -7 0 -7 -7z" />
        <path d="M6970 3450 c0 -7 3 -10 7 -7 3 4 3 10 0 14 -4 3 -7 0 -7 -7z" />
        <path d="M7083 3385 c0 -44 2 -61 4 -37 2 23 2 59 0 80 -2 20 -4 1 -4 -43z" />
        <path d="M4020 3440 c0 -7 3 -10 7 -7 3 4 3 10 0 14 -4 3 -7 0 -7 -7z" />
        <path d="M6790 3440 c0 -7 3 -10 7 -7 3 4 3 10 0 14 -4 3 -7 0 -7 -7z" />
        <path d="M4353 3413 c4 -3 10 -3 14 0 3 4 0 7 -7 7 -7 0 -10 -3 -7 -7z" />
        <path d="M6632 3380 c0 -19 2 -27 5 -17 2 9 2 25 0 35 -3 9 -5 1 -5 -18z" />
        <path d="M6652 3380 c0 -19 2 -27 5 -17 2 9 2 25 0 35 -3 9 -5 1 -5 -18z" />
        <path d="M7103 3330 c0 -47 2 -66 4 -42 2 23 2 61 0 85 -2 23 -4 4 -4 -43z" />
        <path d="M3880 3390 c0 -7 3 -10 7 -7 3 4 3 10 0 14 -4 3 -7 0 -7 -7z" />
        <path d="M6940 3390 c0 -7 3 -10 7 -7 3 4 3 10 0 14 -4 3 -7 0 -7 -7z" />
        <path d="M6780 3380 c0 -7 3 -10 7 -7 3 4 3 10 0 14 -4 3 -7 0 -7 -7z" />
        <path d="M6800 3370 c0 -7 3 -10 7 -7 3 4 3 10 0 14 -4 3 -7 0 -7 -7z" />
        <path d="M4563 3363 c4 -3 10 -3 14 0 3 4 0 7 -7 7 -7 0 -10 -3 -7 -7z" />
        <path d="M6930 3330 c0 -7 3 -10 7 -7 3 4 3 10 0 14 -4 3 -7 0 -7 -7z" />
        <path d="M6790 3300 c0 -7 3 -10 7 -7 3 4 3 10 0 14 -4 3 -7 0 -7 -7z" />
        <path d="M6810 3290 c0 -7 3 -10 7 -7 3 4 3 10 0 14 -4 3 -7 0 -7 -7z" />
        <path d="M3872 3265 c0 -16 2 -22 5 -12 2 9 2 23 0 30 -3 6 -5 -1 -5 -18z" />
        <path d="M6940 3260 c0 -7 3 -10 7 -7 3 4 3 10 0 14 -4 3 -7 0 -7 -7z" />
        <path d="M5000 3240 c0 -7 3 -10 7 -7 3 4 3 10 0 14 -4 3 -7 0 -7 -7z" />
        <path d="M5054 3238 c-4 -7 -3 -8 4 -4 7 4 12 9 12 12 0 8 -9 4 -16 -8z" />
        <path d="M6800 3230 c0 -7 3 -10 7 -7 3 4 3 10 0 14 -4 3 -7 0 -7 -7z" />
        <path d="M6820 3210 c0 -7 3 -10 7 -7 3 4 3 10 0 14 -4 3 -7 0 -7 -7z" />
        <path d="M6930 3200 c0 -7 3 -10 7 -7 3 4 3 10 0 14 -4 3 -7 0 -7 -7z" />
        <path d="M6622 3175 c0 -16 2 -22 5 -12 2 9 2 23 0 30 -3 6 -5 -1 -5 -18z" />
        <path d="M6642 3175 c0 -16 2 -22 5 -12 2 9 2 23 0 30 -3 6 -5 -1 -5 -18z" />
        <path d="M5188 3163 c7 -3 16 -2 19 1 4 3 -2 6 -13 5 -11 0 -14 -3 -6 -6z" />
        <path d="M6810 3150 c0 -7 3 -10 7 -7 3 4 3 10 0 14 -4 3 -7 0 -7 -7z" />
        <path d="M6830 3140 c0 -7 3 -10 7 -7 3 4 3 10 0 14 -4 3 -7 0 -7 -7z" />
        <path d="M6900 3140 c0 -7 3 -10 7 -7 3 4 3 10 0 14 -4 3 -7 0 -7 -7z" />
        <path d="M6920 3140 c0 -7 3 -10 7 -7 3 4 3 10 0 14 -4 3 -7 0 -7 -7z" />
        <path d="M6890 3080 c0 -7 3 -10 7 -7 3 4 3 10 0 14 -4 3 -7 0 -7 -7z" />
        <path d="M6910 3080 c0 -7 3 -10 7 -7 3 4 3 10 0 14 -4 3 -7 0 -7 -7z" />
        <path d="M6820 3070 c0 -7 3 -10 7 -7 3 4 3 10 0 14 -4 3 -7 0 -7 -7z" />
        <path d="M6840 3060 c0 -7 3 -10 7 -7 3 4 3 10 0 14 -4 3 -7 0 -7 -7z" />
        <path d="M3854 3048 c-4 -7 -3 -8 4 -4 7 4 12 9 12 12 0 8 -9 4 -16 -8z" />
        <path d="M3854 3018 c-4 -7 -3 -8 4 -4 12 7 16 16 8 16 -3 0 -8 -5 -12 -12z" />
        <path d="M6880 3020 c0 -7 3 -10 7 -7 3 4 3 10 0 14 -4 3 -7 0 -7 -7z" />
        <path d="M6900 3020 c0 -7 3 -10 7 -7 3 4 3 10 0 14 -4 3 -7 0 -7 -7z" />
        <path d="M3915 3010 c3 -5 8 -10 11 -10 3 0 2 5 -1 10 -3 6 -8 10 -11 10 -3 0 -2 -4 1 -10z" />
        <path d="M3814 2988 c-4 -7 -3 -8 4 -4 7 4 12 9 12 12 0 8 -9 4 -16 -8z" />
        <path d="M6632 2975 c0 -16 2 -22 5 -12 2 9 2 23 0 30 -3 6 -5 -1 -5 -18z" />
        <path d="M3923 2983 c4 -3 10 -3 14 0 3 4 0 7 -7 7 -7 0 -10 -3 -7 -7z" />
        <path d="M6612 2965 c0 -16 2 -22 5 -12 2 9 2 23 0 30 -3 6 -5 -1 -5 -18z" />
        <path d="M7072 2960 c0 -14 2 -19 5 -12 2 6 2 18 0 25 -3 6 -5 1 -5 -13z" />
        <path d="M7091 2944 c0 -11 3 -14 6 -6 3 7 2 16 -1 19 -3 4 -6 -2 -5 -13z" />
        <path d="M6613 2785 c0 -22 2 -30 4 -17 2 12 2 30 0 40 -3 9 -5 -1 -4 -23z" />
        <path d="M6632 2770 c0 -19 2 -27 5 -17 2 9 2 25 0 35 -3 9 -5 1 -5 -18z" />
        <path d="M7155 2130 c3 -5 8 -10 11 -10 3 0 2 5 -1 10 -3 6 -8 10 -11 10 -3 0 -2 -4 1 -10z" />
        <path d="M7272 1900 c0 -14 2 -19 5 -12 2 6 2 18 0 25 -3 6 -5 1 -5 -13z" />
        <path d="M7214 1768 c-4 -7 -3 -8 4 -4 12 7 16 16 8 16 -3 0 -8 -5 -12 -12z" />
        <path d="M7084 1638 c-4 -7 -3 -8 4 -4 12 7 16 16 8 16 -3 0 -8 -5 -12 -12z" />
        <path d="M6335 1590 c3 -5 8 -10 11 -10 3 0 2 5 -1 10 -3 6 -8 10 -11 10 -3 0 -2 -4 1 -10z" />
        <path d="M6963 1563 c4 -3 10 -3 14 0 3 4 0 7 -7 7 -7 0 -10 -3 -7 -7z" />
        <path d="M6380 1546 c0 -2 8 -10 18 -17 15 -13 16 -12 3 4 -13 16 -21 21 -21 13z" />
        <path d="M6945 1440 c3 -5 8 -10 11 -10 3 0 2 5 -1 10 -3 6 -8 10 -11 10 -3 0 -2 -4 1 -10z" />
        <path d="M6970 1380 c0 -7 3 -10 7 -7 3 4 3 10 0 14 -4 3 -7 0 -7 -7z" />
        <path d="M6991 1374 c0 -11 3 -14 6 -6 3 7 2 16 -1 19 -3 4 -6 -2 -5 -13z" />
        <path d="M6692 1245 c0 -16 2 -22 5 -12 2 9 2 23 0 30 -3 6 -5 -1 -5 -18z" />
        <path d="M7004 1158 c-4 -7 -3 -8 4 -4 12 7 16 16 8 16 -3 0 -8 -5 -12 -12z" />
    </g>
    <g id="layer104" fill="#c0a05b" stroke="none">
        <path d="M7430 8360 c0 -7 3 -10 7 -7 3 4 3 10 0 14 -4 3 -7 0 -7 -7z" />
        <path d="M7410 8050 c0 -7 3 -10 7 -7 3 4 3 10 0 14 -4 3 -7 0 -7 -7z" />
        <path d="M7440 7510 c0 -7 3 -10 7 -7 3 4 3 10 0 14 -4 3 -7 0 -7 -7z" />
        <path d="M7421 7194 c0 -11 3 -14 6 -6 3 7 2 16 -1 19 -3 4 -6 -2 -5 -13z" />
        <path d="M7450 6650 c0 -7 3 -10 7 -7 3 4 3 10 0 14 -4 3 -7 0 -7 -7z" />
        <path d="M7430 6340 c0 -7 3 -10 7 -7 3 4 3 10 0 14 -4 3 -7 0 -7 -7z" />
        <path d="M7460 5790 c0 -7 3 -10 7 -7 3 4 3 10 0 14 -4 3 -7 0 -7 -7z" />
        <path d="M7440 5490 c0 -7 3 -10 7 -7 3 4 3 10 0 14 -4 3 -7 0 -7 -7z" />
        <path d="M7471 4934 c0 -11 3 -14 6 -6 3 7 2 16 -1 19 -3 4 -6 -2 -5 -13z" />
        <path d="M7451 4634 c0 -11 3 -14 6 -6 3 7 2 16 -1 19 -3 4 -6 -2 -5 -13z" />
        <path d="M7481 4074 c0 -11 3 -14 6 -6 3 7 2 16 -1 19 -3 4 -6 -2 -5 -13z" />
        <path d="M7213 3753 c4 -3 10 -3 14 0 3 4 0 7 -7 7 -7 0 -10 -3 -7 -7z" />
    </g>
    <g id="layer105" fill="#fed272" stroke="none">
        <path
            d="M2295 8963 c-16 -1 -72 -11 -122 -20 l-93 -16 0 -139 0 -138 25 5 c14 3 37 7 51 10 18 4 25 2 22 -7 -3 -7 -24 -16 -48 -20 -23 -4 -45 -9 -47 -12 -2 -2 -3 -32 -1 -67 l3 -63 45 69 c28 44 46 63 48 53 2 -10 -20 -49 -47 -89 l-51 -72 0 -193 c0 -119 4 -202 11 -217 10 -23 17 -25 123 -31 61 -3 299 -9 529 -12 l417 -7 0 477 0 477 -330 -3 c-257 -2 -331 0 -335 10 -7 18 -74 15 -81 -3 -4 -8 -12 -15 -20 -15 -8 0 -11 6 -8 15 6 15 -15 17 -91 8z" />
        <path
            d="M3181 8248 c1 -620 3 -696 15 -648 8 30 17 103 20 163 4 60 11 107 17 107 18 0 0 -218 -27 -325 -20 -77 -26 -124 -26 -205 1 -71 4 -100 10 -89 19 32 73 174 77 204 3 16 7 32 9 34 2 2 4 -111 4 -252 l0 -257 460 0 460 0 0 985 0 985 -510 0 -510 0 1 -702z" />
        <path d="M4230 7895 l0 -1055 45 0 45 0 2 -462 3 -463 498 -3 497 -2 0 1520 0 1520 -545 0 -545 0 0 -1055z" />
        <path d="M5350 7365 l0 -1585 45 0 45 0 0 -455 0 -455 480 0 480 0 0 2040 0 2040 -525 0 -525 0 0 -1585z" />
        <path
            d="M6420 6841 l0 -2111 50 0 50 0 0 -420 0 -420 470 0 470 0 0 168 c0 92 -11 1128 -25 2302 -14 1174 -26 2236 -28 2360 l-2 225 -492 3 -493 3 0 -2110z" />
        <path
            d="M7430 8854 c0 -173 49 -4341 54 -4666 l6 -318 -485 0 -485 0 0 -57 0 -58 533 0 532 0 3 117 3 116 82 -54 c45 -30 131 -79 191 -110 l108 -56 39 38 c21 21 39 41 39 44 0 3 -26 17 -58 32 -130 61 -412 255 -412 283 0 8 2 15 5 15 3 0 38 -26 78 -59 95 -77 380 -251 411 -251 9 0 162 199 215 280 77 117 173 311 161 325 -5 6 -44 33 -87 60 -43 27 -169 109 -280 182 -111 73 -205 133 -208 133 -4 0 -4 -8 -1 -17 3 -10 30 -153 60 -318 31 -165 61 -328 67 -362 12 -60 7 -92 -10 -65 -8 14 -78 373 -119 615 l-27 157 -124 -85 c-69 -47 -128 -85 -133 -85 -31 0 10 36 123 110 125 82 130 86 125 115 -22 146 -77 532 -81 578 -4 31 -10 57 -15 57 -5 0 -39 -23 -75 -50 -37 -28 -71 -47 -77 -44 -12 8 -13 7 91 87 60 46 63 50 58 85 -23 173 -47 401 -45 417 l3 20 12 -20 c10 -18 36 -215 52 -387 l6 -67 418 -281 417 -280 -1 142 c0 79 -6 180 -13 226 -11 73 -10 82 4 77 49 -15 248 -56 325 -66 165 -21 619 2 651 34 8 7 25 99 20 104 -2 2 -56 -3 -120 -12 -450 -59 -937 42 -1304 269 -227 141 -437 349 -539 536 -28 50 -57 147 -34 110 8 -12 11 -11 17 5 10 31 281 726 298 767 l16 38 -61 67 c-58 63 -247 294 -262 319 -4 6 -9 36 -13 65 l-6 54 27 -39 c21 -29 24 -40 15 -46 -9 -6 33 -64 144 -198 87 -105 163 -195 169 -200 7 -6 180 -19 384 -29 205 -11 376 -23 380 -26 3 -4 4 -10 0 -13 -3 -3 -169 3 -369 14 -200 11 -364 19 -365 18 -2 -2 97 -117 246 -285 l136 -153 434 7 c238 4 465 10 503 14 l68 6 -25 37 c-14 20 -25 39 -25 42 0 3 23 8 50 12 28 4 50 9 50 12 0 3 -14 28 -32 55 l-32 49 -61 -6 c-49 -5 -65 -3 -75 9 -11 13 -5 15 43 15 31 0 59 5 62 10 7 11 -140 183 -237 276 -63 61 -155 134 -168 134 -4 0 -10 -28 -14 -62 -7 -66 -11 -77 -26 -62 -6 6 -6 32 2 74 l11 64 -29 23 c-52 41 -266 142 -389 183 -65 22 -124 40 -131 40 -7 0 -14 -25 -18 -60 -5 -43 -11 -60 -22 -60 -14 0 -14 32 2 107 3 15 -2 23 -15 28 -65 20 -210 37 -362 42 l-176 6 -7 -57 c-5 -40 -12 -56 -22 -56 -10 0 -13 6 -10 18 3 9 8 34 12 55 l7 39 -62 -3 c-33 -1 -62 2 -63 7 -2 5 24 10 57 12 33 2 63 6 67 10 3 4 9 27 12 52 3 25 27 175 53 334 l47 288 -25 19 c-13 11 -65 51 -115 89 -91 68 -111 87 -101 97 5 4 127 -85 225 -164 l32 -26 163 26 c89 15 223 36 297 47 74 12 168 28 209 36 40 8 77 14 82 14 11 0 12 -30 2 -30 -11 0 -179 -26 -293 -44 -52 -9 -158 -25 -235 -36 -227 -34 -225 -15 -14 -170 101 -74 206 -152 233 -172 28 -21 53 -38 57 -38 4 0 161 37 350 82 189 44 403 95 476 112 72 17 135 34 138 38 9 9 -152 153 -252 224 -106 76 -306 181 -423 222 -113 39 -282 78 -404 93 -121 15 -404 7 -531 -15 -118 -20 -115 -21 -115 14 l0 30 -75 0 -75 0 0 -96z m179 -2716 c-17 -14 -25 -16 -28 -7 -5 15 28 41 42 32 6 -4 0 -14 -14 -25z" />
        <path
            d="M1960 8886 c-293 -113 -515 -302 -655 -559 l-37 -68 48 6 c27 3 182 17 344 30 162 14 297 28 301 33 3 4 27 36 53 72 46 64 46 65 46 145 l0 82 -167 -28 c-178 -31 -223 -35 -207 -20 5 5 83 21 174 36 91 14 173 29 183 31 15 5 17 20 17 140 0 74 -3 134 -7 134 -5 -1 -46 -16 -93 -34z" />
        <path
            d="M7835 8428 c-4 -29 -27 -174 -51 -323 -24 -148 -44 -271 -44 -272 0 -2 29 -3 64 -3 98 0 312 -20 389 -36 38 -8 74 -14 81 -14 12 0 26 97 42 295 l5 60 -58 39 c-49 34 -174 126 -370 274 -23 17 -45 32 -47 32 -2 0 -7 -24 -11 -52z" />
        <path
            d="M2016 8369 c-36 -49 -38 -54 -27 -88 6 -20 25 -63 40 -96 l29 -60 1 148 c1 81 0 147 -2 147 -1 0 -20 -23 -41 -51z" />
        <path
            d="M9220 8329 c-63 -16 -167 -40 -230 -54 -368 -83 -622 -146 -616 -152 5 -6 218 -152 405 -278 l143 -98 42 10 c22 6 140 36 261 68 121 31 258 66 305 77 47 11 87 22 89 24 13 11 -182 318 -252 395 l-32 36 -115 -28z" />
        <path
            d="M1590 8268 c-214 -19 -327 -33 -332 -41 -28 -42 -97 -311 -84 -324 5 -5 489 25 492 30 0 1 59 79 131 172 148 194 149 195 131 194 -7 -1 -159 -15 -338 -31z" />
        <path
            d="M1818 8102 l-135 -178 104 -207 c56 -114 106 -207 109 -207 18 0 196 110 258 160 114 92 169 154 164 183 -4 23 -1 25 40 31 69 9 192 7 192 -4 0 -5 -22 -17 -50 -27 -49 -17 -59 -33 -42 -60 6 -9 26 2 69 37 86 69 92 62 11 -13 l-68 -62 44 -145 c24 -80 47 -160 51 -177 3 -18 10 -33 15 -33 24 0 29 39 32 247 2 122 6 224 9 228 4 3 58 4 120 3 111 -3 113 -3 82 -18 l-32 -16 144 -83 c80 -46 148 -87 151 -92 13 -22 -25 -3 -168 81 -83 50 -158 90 -166 90 -10 0 -12 -7 -8 -22 14 -49 55 -257 65 -333 23 -160 9 -139 131 -200 60 -30 112 -55 115 -55 8 0 60 109 84 175 20 56 21 75 19 315 l-3 255 -513 8 c-283 5 -516 6 -519 4 -2 -3 10 -35 27 -72 16 -38 28 -70 26 -73 -10 -9 -23 10 -51 77 -18 41 -37 72 -47 75 -13 3 -18 14 -18 38 0 31 -88 248 -101 248 -3 0 -67 -80 -141 -178z" />
        <path
            d="M8346 8099 c-2 -8 -9 -79 -16 -157 -6 -79 -14 -150 -16 -157 -4 -10 8 -17 38 -25 145 -36 373 -134 474 -202 23 -15 45 -28 48 -28 3 0 6 12 6 28 0 15 4 43 9 62 5 19 11 51 14 72 l5 36 -230 154 c-127 84 -236 158 -242 163 -6 6 -28 23 -48 39 -28 21 -39 25 -42 15z" />
        <path
            d="M1380 7892 c-122 -9 -208 -19 -213 -26 -11 -16 -1 -339 13 -413 12 -61 13 -63 49 -69 63 -13 309 13 432 45 103 27 209 64 209 74 0 2 -46 93 -101 201 -82 159 -104 195 -114 184 -6 -7 -71 -85 -142 -173 -181 -220 -190 -231 -198 -223 -4 4 64 93 151 198 88 105 163 198 167 206 9 16 28 17 -253 -4z" />
        <path
            d="M9305 7814 c-181 -46 -334 -83 -338 -84 -21 -1 22 -31 256 -176 340 -210 389 -243 382 -254 -8 -13 -445 253 -644 392 -14 10 -26 16 -29 14 -2 -2 -7 -30 -12 -62 -4 -33 -11 -75 -15 -95 -7 -36 -6 -37 67 -92 81 -60 261 -241 327 -329 34 -45 48 -57 65 -53 125 27 252 60 319 84 150 53 135 38 125 123 -17 151 -94 438 -155 574 l-18 41 -330 -83z" />
        <path
            d="M2255 7730 c-68 -70 -203 -163 -314 -220 -187 -93 -395 -143 -609 -144 -106 -1 -131 -4 -127 -14 3 -8 8 -24 11 -37 5 -19 14 -23 72 -28 227 -21 542 53 751 175 50 29 67 35 71 24 3 -9 39 16 113 81 101 89 107 96 106 131 -1 20 -4 50 -8 65 l-6 28 -60 -61z" />
        <path
            d="M2225 7544 c-55 -48 -102 -91 -104 -96 -5 -15 48 -176 85 -256 l33 -74 28 21 c16 11 47 37 70 58 l42 38 -19 170 c-11 94 -19 182 -20 198 0 15 -3 27 -8 27 -4 0 -52 -39 -107 -86z" />
        <path d="M2591 7386 c-8 -10 -7 -23 3 -52 l15 -39 0 53 c1 56 -1 59 -18 38z" />
        <path
            d="M3118 7301 c-51 -107 -142 -240 -230 -336 -60 -65 -79 -93 -101 -153 l-26 -73 35 28 c127 101 254 243 329 367 35 58 36 62 33 153 l-3 93 -37 -79z" />
        <path
            d="M2838 7176 c2 -77 0 -166 -6 -196 l-10 -55 58 63 c57 62 160 202 160 219 0 5 -46 32 -103 60 l-103 51 4 -142z" />
        <path
            d="M7925 7208 c-8 -25 -274 -710 -299 -770 l-16 -36 49 -74 c191 -291 498 -532 838 -656 l82 -30 12 36 c14 45 155 417 197 522 l31 75 -182 185 c-100 102 -204 211 -232 243 -49 57 -65 68 -65 44 0 -16 -199 -646 -210 -667 -8 -13 -10 -13 -15 2 -5 12 168 580 210 690 5 12 -16 40 -72 100 -100 104 -278 310 -293 338 -14 26 -27 25 -35 -2z" />
        <path
            d="M2303 7141 c-24 -21 -43 -43 -43 -47 0 -5 13 -29 29 -53 24 -36 30 -40 35 -25 6 22 36 153 36 160 0 11 -19 0 -57 -35z" />
        <path
            d="M9734 7150 c-39 -16 -108 -39 -155 -50 -46 -11 -98 -25 -115 -30 -17 -6 -41 -10 -55 -10 -47 0 -50 -12 -17 -65 17 -28 32 -52 33 -53 7 -7 175 40 283 79 l112 41 0 59 c0 32 -3 59 -7 58 -5 0 -40 -13 -79 -29z" />
        <path d="M3276 6910 c-4 -28 -4 -55 -1 -60 4 -6 180 -10 466 -10 l459 0 0 60 0 60 -459 0 -458 0 -7 -50z" />
        <path
            d="M8687 6790 c-164 -4 -300 -10 -303 -13 -6 -6 154 -183 336 -369 l115 -118 290 10 c160 6 322 13 361 16 l72 6 -10 36 c-26 101 -66 209 -119 320 l-58 122 -193 -2 c-106 -1 -327 -4 -491 -8z" />
        <path
            d="M9165 6280 c-88 -4 -194 -8 -235 -9 l-74 -1 69 -71 c39 -39 165 -161 280 -271 116 -110 209 -203 208 -206 -7 -24 -54 17 -297 258 -245 243 -296 285 -296 249 0 -10 -136 -378 -192 -518 -16 -40 -27 -75 -26 -76 2 -2 31 -10 65 -19 239 -62 484 -85 702 -66 146 13 218 23 229 35 4 3 7 113 7 243 0 185 -4 262 -19 350 l-18 112 -122 -2 c-66 -1 -193 -5 -281 -8z" />
        <path d="M4320 5834 l0 -56 505 3 505 4 0 53 0 52 -505 0 -505 0 0 -56z" />
        <path
            d="M7770 5548 c0 -7 18 -134 40 -283 23 -148 44 -293 47 -322 l6 -52 94 -61 c52 -33 96 -60 99 -60 2 0 95 -61 206 -135 111 -74 205 -132 209 -129 15 9 77 217 98 327 35 182 67 141 -287 379 -169 113 -353 238 -409 277 -57 40 -103 66 -103 59z" />
        <path d="M5440 4785 l0 -55 480 0 480 0 0 55 0 55 -480 0 -480 0 0 -55z" />
    </g>
    <g id="layer106" fill="#fdfdfc" stroke="none">
        <path d="M8038 9083 c17 -2 47 -2 65 0 17 2 3 4 -33 4 -36 0 -50 -2 -32 -4z" />
        <path d="M7848 9073 c6 -2 18 -2 25 0 6 3 1 5 -13 5 -14 0 -19 -2 -12 -5z" />
        <path d="M8233 9073 c9 -2 23 -2 30 0 6 3 -1 5 -18 5 -16 0 -22 -2 -12 -5z" />
        <path d="M7758 9063 c6 -2 18 -2 25 0 6 3 1 5 -13 5 -14 0 -19 -2 -12 -5z" />
        <path d="M8318 9063 c7 -3 16 -2 19 1 4 3 -2 6 -13 5 -11 0 -14 -3 -6 -6z" />
        <path d="M7402 9035 c0 -16 2 -22 5 -12 2 9 2 23 0 30 -3 6 -5 -1 -5 -18z" />
        <path d="M7693 9053 c4 -3 10 -3 14 0 3 4 0 7 -7 7 -7 0 -10 -3 -7 -7z" />
        <path
            d="M7850 9050 c-141 -14 -420 -74 -420 -91 0 -5 34 -9 75 -9 l75 0 0 -30 c0 -35 -3 -34 115 -14 127 22 410 30 531 15 223 -27 420 -87 614 -187 148 -76 270 -161 392 -274 l89 -82 49 12 50 12 -29 37 c-54 67 -225 228 -301 283 -223 162 -459 260 -755 314 -97 18 -368 26 -485 14z" />
        <path d="M2123 9043 c4 -3 10 -3 14 0 3 4 0 7 -7 7 -7 0 -10 -3 -7 -7z" />
        <path
            d="M2200 9034 c-52 -8 -101 -16 -107 -19 -8 -2 -13 -22 -13 -45 0 -46 -2 -45 95 -26 39 8 105 18 147 21 75 7 77 8 103 46 l25 39 -77 -1 c-43 -1 -121 -7 -173 -15z" />
        <path d="M7643 9043 c4 -3 10 -3 14 0 3 4 0 7 -7 7 -7 0 -10 -3 -7 -7z" />
        <path d="M8413 9043 c4 -3 10 -3 14 0 3 4 0 7 -7 7 -7 0 -10 -3 -7 -7z" />
        <path d="M7583 9033 c4 -3 10 -3 14 0 3 4 0 7 -7 7 -7 0 -10 -3 -7 -7z" />
        <path d="M2447 9006 c-23 -34 -22 -36 13 -36 33 0 35 4 16 38 l-13 24 -16 -26z" />
        <path d="M7543 9023 c4 -3 10 -3 14 0 3 4 0 7 -7 7 -7 0 -10 -3 -7 -7z" />
        <path
            d="M1970 8981 c-244 -80 -437 -214 -597 -414 -52 -64 -123 -186 -158 -269 l-15 -38 34 0 c32 0 37 5 71 68 143 261 380 460 678 567 l77 28 0 43 c0 24 -1 44 -2 44 -2 -1 -41 -13 -88 -29z" />
        <path d="M7473 9003 c4 -3 10 -3 14 0 3 4 0 7 -7 7 -7 0 -10 -3 -7 -7z" />
        <path d="M7433 8993 c4 -3 10 -3 14 0 3 4 0 7 -7 7 -7 0 -10 -3 -7 -7z" />
        <path d="M8985 8820 c3 -5 8 -10 11 -10 3 0 2 5 -1 10 -3 6 -8 10 -11 10 -3 0 -2 -4 1 -10z" />
        <path d="M9075 8760 c3 -5 8 -10 11 -10 3 0 2 5 -1 10 -3 6 -8 10 -11 10 -3 0 -2 -4 1 -10z" />
        <path d="M9105 8740 c3 -5 8 -10 11 -10 3 0 2 5 -1 10 -3 6 -8 10 -11 10 -3 0 -2 -4 1 -10z" />
        <path d="M1454 8698 l-29 -33 33 29 c30 28 37 36 29 36 -2 0 -16 -15 -33 -32z" />
        <path d="M9155 8700 c3 -5 8 -10 11 -10 3 0 2 5 -1 10 -3 6 -8 10 -11 10 -3 0 -2 -4 1 -10z" />
        <path d="M9205 8660 c3 -5 8 -10 11 -10 3 0 2 5 -1 10 -3 6 -8 10 -11 10 -3 0 -2 -4 1 -10z" />
        <path d="M9335 8530 c33 -33 62 -60 64 -60 3 0 -21 27 -54 60 -33 33 -62 60 -64 60 -3 0 21 -27 54 -60z" />
        <path d="M9435 8420 c3 -5 8 -10 11 -10 3 0 2 5 -1 10 -3 6 -8 10 -11 10 -3 0 -2 -4 1 -10z" />
        <path
            d="M9382 8370 c-18 -4 -35 -10 -37 -12 -3 -2 14 -26 37 -54 56 -67 146 -203 197 -296 42 -77 58 -89 90 -69 12 8 10 20 -13 73 -37 81 -137 260 -182 321 -36 49 -38 50 -92 37z" />
        <path d="M9495 8340 c3 -5 8 -10 11 -10 3 0 2 5 -1 10 -3 6 -8 10 -11 10 -3 0 -2 -4 1 -10z" />
        <path
            d="M1208 8233 c-20 -5 -39 -63 -63 -187 -21 -109 -20 -158 2 -154 13 2 22 24 35 88 15 69 49 183 75 248 5 12 -15 14 -49 5z" />
        <path d="M1110 7990 c0 -7 3 -10 7 -7 3 4 3 10 0 14 -4 3 -7 0 -7 -7z" />
        <path
            d="M9646 7901 c-3 -5 13 -57 36 -117 50 -132 115 -390 124 -491 4 -40 11 -76 15 -79 12 -7 11 7 -6 167 -16 157 -42 283 -87 427 -28 90 -34 102 -54 102 -13 0 -25 -4 -28 -9z" />
        <path d="M1103 7815 c0 -38 2 -53 4 -32 2 20 2 52 0 70 -2 17 -4 1 -4 -38z" />
        <path
            d="M1136 7872 c-17 -4 -18 -11 -12 -105 7 -111 33 -279 47 -311 7 -15 8 -9 3 19 -3 22 -8 121 -10 219 -3 99 -5 180 -7 181 -1 1 -10 -1 -21 -3z" />
        <path
            d="M2340 7808 c0 -7 13 -139 29 -293 l29 -279 -54 -231 c-30 -126 -57 -242 -61 -257 -5 -26 -3 -28 24 -28 57 0 189 -41 254 -79 62 -35 68 -37 93 -24 47 25 132 224 157 371 15 87 6 306 -21 477 -24 155 -58 334 -66 346 -3 5 -25 9 -50 9 l-44 0 0 -312 0 -312 -67 -183 c-39 -103 -73 -183 -80 -183 -7 0 -13 2 -13 4 0 2 31 87 70 188 l70 185 -21 69 c-11 38 -24 83 -29 99 -5 17 -31 107 -59 200 -28 94 -56 187 -61 208 -10 36 -12 37 -55 37 -30 0 -45 -4 -45 -12z" />
        <path d="M1110 7640 c0 -7 3 -10 7 -7 3 4 3 10 0 14 -4 3 -7 0 -7 -7z" />
        <path d="M2078 7484 c-27 -14 -37 -37 -20 -47 12 -8 54 31 50 47 -3 13 -7 13 -30 0z" />
        <path
            d="M3269 7473 c-1 -33 -7 -50 -45 -139 -37 -86 -38 -94 -42 -221 l-3 -133 50 0 51 0 0 255 c0 140 -2 255 -5 255 -3 0 -5 -8 -6 -17z" />
        <path
            d="M2091 7426 c-18 -19 -22 -31 -16 -53 8 -34 76 -182 112 -242 22 -38 27 -41 40 -28 13 13 11 21 -12 68 -15 29 -44 104 -64 166 l-38 113 -22 -24z" />
        <path d="M1181 7414 c0 -11 3 -14 6 -6 3 7 2 16 -1 19 -3 4 -6 -2 -5 -13z" />
        <path d="M2242 7088 c-18 -18 -16 -24 25 -78 30 -40 39 -47 46 -35 12 22 -55 129 -71 113z" />
        <path d="M3214 6953 c49 -4 55 -7 59 -29 4 -21 4 -21 3 3 -1 27 -3 28 -59 29 l-57 1 54 -4z" />
        <path d="M9323 6923 c-29 -5 -29 -5 3 -53 26 -38 29 -40 81 -40 l54 0 -27 50 c-28 52 -40 57 -111 43z" />
        <path d="M4230 6375 l0 -465 45 0 45 0 0 465 0 465 -45 0 -45 0 0 -465z" />
        <path
            d="M9430 6678 c48 -101 81 -192 126 -345 5 -18 64 -17 64 0 0 37 -71 280 -121 413 l-20 54 -54 0 -54 0 59 -122z" />
        <path d="M2799 6773 c-13 -16 -12 -17 4 -4 9 7 17 15 17 17 0 8 -8 3 -21 -13z" />
        <path d="M2260 6770 c0 -7 3 -10 7 -7 3 4 3 10 0 14 -4 3 -7 0 -7 -7z" />
        <path d="M2863 6733 c4 -3 10 -3 14 0 3 4 0 7 -7 7 -7 0 -10 -3 -7 -7z" />
        <path d="M2815 6720 c-3 -6 1 -7 9 -4 18 7 21 14 7 14 -6 0 -13 -4 -16 -10z" />
        <path d="M3013 6723 c4 -3 10 -3 14 0 3 4 0 7 -7 7 -7 0 -10 -3 -7 -7z" />
        <path d="M2232 6690 c0 -14 2 -19 5 -12 2 6 2 18 0 25 -3 6 -5 1 -5 -13z" />
        <path d="M2784 6698 c-4 -7 -3 -8 4 -4 12 7 16 16 8 16 -3 0 -8 -5 -12 -12z" />
        <path
            d="M2850 6704 c0 -3 5 -14 10 -25 13 -24 100 -28 100 -5 0 10 12 13 48 10 l47 -4 -30 15 c-29 13 -175 22 -175 9z" />
        <path
            d="M3000 6650 c0 -5 -25 -10 -56 -10 -53 0 -59 -2 -132 -62 -172 -140 -193 -168 -194 -252 -1 -65 21 -116 70 -167 l39 -41 168 -3 c154 -3 172 -2 213 18 25 11 58 33 73 48 38 37 78 119 90 185 20 110 -39 221 -146 270 -51 24 -125 32 -125 14z" />
        <path d="M2223 6420 c0 -30 2 -43 4 -27 2 15 2 39 0 55 -2 15 -4 2 -4 -28z" />
        <path d="M9630 6380 c0 -7 3 -10 7 -7 3 4 3 10 0 14 -4 3 -7 0 -7 -7z" />
        <path d="M3290 6350 c0 -7 3 -10 7 -7 3 4 3 10 0 14 -4 3 -7 0 -7 -7z" />
        <path d="M9640 6330 c0 -7 3 -10 7 -7 3 4 3 10 0 14 -4 3 -7 0 -7 -7z" />
        <path d="M2223 6265 c0 -27 2 -38 4 -22 2 15 2 37 0 50 -2 12 -4 0 -4 -28z" />
        <path
            d="M9570 6280 c0 -6 8 -54 17 -108 13 -74 17 -156 18 -345 0 -136 3 -233 7 -215 25 122 36 410 22 590 l-7 88 -28 0 c-16 0 -29 -5 -29 -10z" />
        <path d="M9650 6270 c0 -7 3 -10 7 -7 3 4 3 10 0 14 -4 3 -7 0 -7 -7z" />
        <path d="M3199 6163 l-24 -28 28 24 c25 23 32 31 24 31 -2 0 -14 -12 -28 -27z" />
        <path d="M9660 6180 c0 -7 3 -10 7 -7 3 4 3 10 0 14 -4 3 -7 0 -7 -7z" />
        <path d="M2670 6135 c13 -14 26 -25 28 -25 3 0 -5 11 -18 25 -13 14 -26 25 -28 25 -3 0 5 -11 18 -25z" />
        <path d="M2630 6090 c0 -7 3 -10 7 -7 3 4 3 10 0 14 -4 3 -7 0 -7 -7z" />
        <path
            d="M2812 6090 c-21 -9 -61 -79 -62 -107 0 -7 25 -13 68 -17 37 -2 86 -8 110 -11 23 -4 53 -4 66 -1 23 6 23 6 10 62 -7 31 -17 61 -23 67 -13 13 -141 19 -169 7z" />
        <path d="M2230 6080 c0 -7 3 -10 7 -7 3 4 3 10 0 14 -4 3 -7 0 -7 -7z" />
        <path d="M9672 5990 c0 -19 2 -27 5 -17 2 9 2 25 0 35 -3 9 -5 1 -5 -18z" />
        <path d="M2720 5990 c0 -7 3 -10 7 -7 3 4 3 10 0 14 -4 3 -7 0 -7 -7z" />
        <path d="M2748 5943 c6 -2 18 -2 25 0 6 3 1 5 -13 5 -14 0 -19 -2 -12 -5z" />
        <path d="M2560 5850 c0 -7 3 -10 7 -7 3 4 3 10 0 14 -4 3 -7 0 -7 -7z" />
        <path d="M2365 5790 c3 -5 8 -10 11 -10 3 0 2 5 -1 10 -3 6 -8 10 -11 10 -3 0 -2 -4 1 -10z" />
        <path
            d="M2437 5782 c-12 -13 -17 -37 -17 -84 0 -45 -6 -76 -17 -97 -25 -44 -10 -64 57 -74 29 -4 72 -16 96 -26 23 -11 45 -17 48 -13 3 3 6 43 6 89 0 90 -11 113 -65 133 -20 8 -25 17 -25 44 0 48 -50 65 -83 28z" />
        <path d="M9661 5784 c0 -11 3 -14 6 -6 3 7 2 16 -1 19 -3 4 -6 -2 -5 -13z" />
        <path d="M5325 5315 c0 -258 1 -366 2 -238 2 127 2 339 0 470 -1 131 -2 27 -2 -232z" />
        <path d="M5350 5325 l0 -455 45 0 45 0 0 455 0 455 -45 0 -45 0 0 -455z" />
        <path d="M2540 5760 c0 -7 3 -10 7 -7 3 4 3 10 0 14 -4 3 -7 0 -7 -7z" />
        <path
            d="M4993 5683 c-10 -25 -70 -169 -133 -321 l-115 -275 -130 -57 -130 -56 0 -52 c1 -29 2 -124 3 -212 l2 -160 34 0 c42 0 75 26 259 208 187 183 189 188 226 477 12 88 33 229 47 314 14 84 23 155 21 157 -2 3 -18 9 -35 13 -30 9 -31 8 -49 -36z" />
        <path d="M5100 5710 c0 -7 3 -10 7 -7 3 4 3 10 0 14 -4 3 -7 0 -7 -7z" />
        <path d="M2379 5673 c-13 -16 -12 -17 4 -4 9 7 17 15 17 17 0 8 -8 3 -21 -13z" />
        <path d="M3550 5600 c0 -7 3 -10 7 -7 3 4 3 10 0 14 -4 3 -7 0 -7 -7z" />
        <path d="M3570 5540 c0 -7 3 -10 7 -7 3 4 3 10 0 14 -4 3 -7 0 -7 -7z" />
        <path d="M5070 5530 c0 -7 3 -10 7 -7 3 4 3 10 0 14 -4 3 -7 0 -7 -7z" />
        <path d="M2631 5514 c0 -11 3 -14 6 -6 3 7 2 16 -1 19 -3 4 -6 -2 -5 -13z" />
        <path d="M3480 5480 c0 -7 3 -10 7 -7 3 4 3 10 0 14 -4 3 -7 0 -7 -7z" />
        <path
            d="M8586 5398 c7 -46 13 -147 13 -225 l1 -143 43 -31 42 -31 8 49 c11 63 13 348 4 395 -7 34 -12 39 -50 48 -23 6 -49 13 -57 16 -14 4 -15 -5 -4 -78z" />
        <path d="M3613 5453 c4 -3 10 -3 14 0 3 4 0 7 -7 7 -7 0 -10 -3 -7 -7z" />
        <path
            d="M3591 5376 c-6 -33 -10 -60 -8 -61 1 -1 121 -42 267 -90 146 -48 268 -90 272 -94 4 -3 10 -149 14 -324 6 -263 10 -317 21 -313 20 8 199 43 261 51 l52 7 0 51 c-1 156 -21 521 -30 560 -14 55 -59 111 -109 137 -43 21 -153 43 -493 98 l-237 38 -10 -60z" />
        <path d="M3470 5410 c0 -7 3 -10 7 -7 3 4 3 10 0 14 -4 3 -7 0 -7 -7z" />
        <path d="M3873 5413 c4 -3 10 -3 14 0 3 4 0 7 -7 7 -7 0 -10 -3 -7 -7z" />
        <path d="M3933 5403 c4 -3 10 -3 14 0 3 4 0 7 -7 7 -7 0 -10 -3 -7 -7z" />
        <path d="M8720 5400 c0 -7 3 -10 7 -7 3 4 3 10 0 14 -4 3 -7 0 -7 -7z" />
        <path d="M3993 5393 c4 -3 10 -3 14 0 3 4 0 7 -7 7 -7 0 -10 -3 -7 -7z" />
        <path d="M4053 5383 c4 -3 10 -3 14 0 3 4 0 7 -7 7 -7 0 -10 -3 -7 -7z" />
        <path d="M2533 5373 c4 -3 10 -3 14 0 3 4 0 7 -7 7 -7 0 -10 -3 -7 -7z" />
        <path d="M3460 5330 c0 -7 3 -10 7 -7 3 4 3 10 0 14 -4 3 -7 0 -7 -7z" />
        <path d="M5040 5320 c0 -7 3 -10 7 -7 3 4 3 10 0 14 -4 3 -7 0 -7 -7z" />
        <path d="M3520 5306 c0 -2 11 -6 25 -8 13 -3 22 -1 19 3 -5 9 -44 13 -44 5z" />
        <path d="M4395 5280 c3 -5 8 -10 11 -10 3 0 2 5 -1 10 -3 6 -8 10 -11 10 -3 0 -2 -4 1 -10z" />
        <path d="M4103 5050 c0 -30 2 -43 4 -27 2 15 2 39 0 55 -2 15 -4 2 -4 -28z" />
        <path d="M4472 5055 c0 -16 2 -22 5 -12 2 9 2 23 0 30 -3 6 -5 -1 -5 -18z" />
        <path d="M8710 5000 c0 -7 3 -10 7 -7 3 4 3 10 0 14 -4 3 -7 0 -7 -7z" />
        <path
            d="M8590 4969 c0 -76 -66 -343 -114 -459 -4 -10 3 -21 22 -33 l29 -17 33 83 c50 125 75 204 99 306 25 103 27 95 -41 136 l-28 16 0 -32z" />
        <path d="M6420 4310 l0 -420 50 0 50 0 0 420 0 420 -50 0 -50 0 0 -420z" />
        <path d="M4113 4660 c0 -30 2 -43 4 -27 2 15 2 39 0 55 -2 15 -4 2 -4 -28z" />
        <path d="M4680 4629 l-65 -61 68 57 c59 51 74 65 65 65 -2 0 -32 -28 -68 -61z" />
        <path d="M4103 4483 c4 -3 10 -3 14 0 3 4 0 7 -7 7 -7 0 -10 -3 -7 -7z" />
        <path
            d="M8406 4357 c-66 -134 -146 -258 -249 -387 -41 -52 -73 -97 -71 -99 7 -7 80 66 143 143 125 152 289 405 276 425 -3 6 -14 15 -25 21 -16 9 -25 -3 -74 -103z" />
        <path d="M4645 4070 c3 -5 8 -10 11 -10 3 0 2 5 -1 10 -3 6 -8 10 -11 10 -3 0 -2 -4 1 -10z" />
        <path d="M4705 4020 c3 -5 8 -10 11 -10 3 0 2 5 -1 10 -3 6 -8 10 -11 10 -3 0 -2 -4 1 -10z" />
        <path d="M4780 3945 c13 -14 26 -25 28 -25 3 0 -5 11 -18 25 -13 14 -26 25 -28 25 -3 0 5 -11 18 -25z" />
        <path d="M8184 3928 l-19 -23 23 19 c12 11 22 21 22 23 0 8 -8 2 -26 -19z" />
        <path d="M6438 3863 c18 -2 45 -2 60 0 15 2 0 4 -33 4 -33 0 -45 -2 -27 -4z" />
        <path d="M8083 3833 c4 -3 10 -3 14 0 3 4 0 7 -7 7 -7 0 -10 -3 -7 -7z" />
        <path
            d="M4412 3814 c-19 -13 -22 -24 -22 -90 0 -54 -4 -80 -15 -90 -16 -16 -19 -43 -7 -59 4 -6 36 -17 72 -24 35 -7 77 -19 92 -27 16 -8 33 -12 38 -9 6 3 10 40 10 82 0 76 0 76 -40 114 -21 21 -42 50 -46 66 -13 55 -40 67 -82 37z" />
        <path d="M4306 3782 c-2 -4 11 -6 30 -4 19 2 34 6 34 8 0 8 -59 4 -64 -4z" />
        <path d="M4510 3771 c0 -6 4 -13 10 -16 6 -3 7 1 4 9 -7 18 -14 21 -14 7z" />
        <path
            d="M6765 3730 c-4 -12 -2 -51 4 -88 6 -37 25 -173 42 -302 16 -129 32 -246 34 -260 3 -14 8 -55 11 -93 4 -37 8 -66 10 -65 1 2 5 19 8 38 45 282 100 610 111 667 8 40 15 84 15 98 l0 25 -114 0 c-107 0 -115 -1 -121 -20z" />
        <path d="M7233 3735 c0 -8 4 -15 9 -15 4 0 8 4 8 9 0 6 -4 12 -8 15 -5 3 -9 -1 -9 -9z" />
        <path d="M4565 3730 c3 -5 8 -10 11 -10 3 0 2 5 -1 10 -3 6 -8 10 -11 10 -3 0 -2 -4 1 -10z" />
        <path d="M4214 3698 c-4 -7 -3 -8 4 -4 7 4 12 9 12 12 0 8 -9 4 -16 -8z" />
        <path d="M4344 3698 c-4 -7 -3 -8 4 -4 7 4 12 9 12 12 0 8 -9 4 -16 -8z" />
        <path d="M7180 3700 c-9 -6 -10 -10 -3 -10 6 0 15 5 18 10 8 12 4 12 -15 0z" />
        <path d="M6593 3693 c4 -3 10 -3 14 0 3 4 0 7 -7 7 -7 0 -10 -3 -7 -7z" />
        <path d="M7143 3683 c4 -3 10 -3 14 0 3 4 0 7 -7 7 -7 0 -10 -3 -7 -7z" />
        <path d="M6642 3635 c0 -16 2 -22 5 -12 2 9 2 23 0 30 -3 6 -5 -1 -5 -18z" />
        <path
            d="M6670 3653 c0 -5 -9 -183 -20 -398 -15 -308 -18 -423 -10 -545 5 -85 10 -210 10 -277 0 -67 3 -128 6 -137 5 -14 31 -16 185 -16 122 0 179 3 179 11 0 6 13 176 29 377 19 241 31 475 35 680 l6 312 -40 0 c-22 0 -40 -2 -40 -4 0 -2 -22 -141 -49 -308 -27 -166 -52 -319 -55 -338 -3 -19 -10 -59 -16 -89 -5 -29 -10 -123 -10 -207 0 -96 -4 -154 -10 -154 -6 0 -10 48 -10 123 0 68 -7 173 -15 233 -9 60 -18 125 -20 144 -3 19 -21 157 -40 305 -19 149 -35 276 -35 283 0 7 -15 12 -40 12 -22 0 -40 -3 -40 -7z" />
        <path d="M4119 3613 c-13 -16 -12 -17 4 -4 16 13 21 21 13 21 -2 0 -10 -8 -17 -17z" />
        <path d="M4602 3550 c0 -14 2 -19 5 -12 2 6 2 18 0 25 -3 6 -5 1 -5 -13z" />
        <path d="M4044 3538 c-4 -7 -3 -8 4 -4 12 7 16 16 8 16 -3 0 -8 -5 -12 -12z" />
        <path d="M4620 3516 c0 -2 8 -10 18 -17 15 -13 16 -12 3 4 -13 16 -21 21 -21 13z" />
        <path d="M4034 3498 c-4 -7 -3 -8 4 -4 7 4 12 9 12 12 0 8 -9 4 -16 -8z" />
        <path d="M4280 3480 c0 -7 3 -10 7 -7 3 4 3 10 0 14 -4 3 -7 0 -7 -7z" />
        <path d="M4650 3440 c0 -7 3 -10 7 -7 3 4 3 10 0 14 -4 3 -7 0 -7 -7z" />
        <path d="M5070 3440 c0 -7 3 -10 7 -7 3 4 3 10 0 14 -4 3 -7 0 -7 -7z" />
        <path d="M6632 3430 c0 -14 2 -19 5 -12 2 6 2 18 0 25 -3 6 -5 1 -5 -13z" />
        <path d="M4403 3423 c4 -3 10 -3 14 0 3 4 0 7 -7 7 -7 0 -10 -3 -7 -7z" />
        <path d="M3880 3410 c0 -7 3 -10 7 -7 3 4 3 10 0 14 -4 3 -7 0 -7 -7z" />
        <path d="M4624 3398 l-19 -23 23 19 c12 11 22 21 22 23 0 8 -8 2 -26 -19z" />
        <path d="M4960 3391 c0 -6 4 -13 10 -16 6 -3 7 1 4 9 -7 18 -14 21 -14 7z" />
        <path d="M5105 3360 c10 -11 20 -20 23 -20 3 0 -3 9 -13 20 -10 11 -20 20 -23 20 -3 0 3 -9 13 -20z" />
        <path
            d="M5043 3338 c-19 -9 -23 -19 -22 -52 1 -23 4 -54 8 -71 l7 -30 11 33 12 32 67 -35 c37 -20 69 -33 72 -31 12 13 -101 167 -122 165 -6 0 -21 -5 -33 -11z" />
        <path d="M3871 3304 c0 -11 3 -14 6 -6 3 7 2 16 -1 19 -3 4 -6 -2 -5 -13z" />
        <path d="M4990 3310 c0 -7 3 -10 7 -7 3 4 3 10 0 14 -4 3 -7 0 -7 -7z" />
        <path d="M5155 3300 c3 -5 8 -10 11 -10 3 0 2 5 -1 10 -3 6 -8 10 -11 10 -3 0 -2 -4 1 -10z" />
        <path d="M3970 3250 c0 -7 3 -10 7 -7 3 4 3 10 0 14 -4 3 -7 0 -7 -7z" />
        <path d="M6622 3225 c0 -16 2 -22 5 -12 2 9 2 23 0 30 -3 6 -5 -1 -5 -18z" />
        <path d="M7103 3180 c0 -41 2 -58 4 -37 2 20 2 54 0 75 -2 20 -4 3 -4 -38z" />
        <path d="M3873 3205 c0 -22 2 -30 4 -17 2 12 2 30 0 40 -3 9 -5 -1 -4 -23z" />
        <path d="M3960 3210 c0 -7 3 -10 7 -7 3 4 3 10 0 14 -4 3 -7 0 -7 -7z" />
        <path d="M5217 3181 c-4 -17 -3 -21 5 -13 5 5 8 16 6 23 -3 8 -7 3 -11 -10z" />
        <path d="M3950 3170 c0 -7 3 -10 7 -7 3 4 3 10 0 14 -4 3 -7 0 -7 -7z" />
        <path d="M5044 3168 c-4 -7 -3 -8 4 -4 7 4 12 9 12 12 0 8 -9 4 -16 -8z" />
        <path
            d="M3872 3137 c-26 -30 -92 -130 -92 -141 0 -4 20 8 44 28 24 20 49 36 54 36 5 0 18 -12 27 -27 15 -23 19 -24 27 -9 5 9 8 39 6 67 -2 42 -7 53 -24 60 -16 6 -27 2 -42 -14z" />
        <path d="M3844 3138 c-4 -7 -3 -8 4 -4 12 7 16 16 8 16 -3 0 -8 -5 -12 -12z" />
        <path d="M3814 3098 c-4 -7 -3 -8 4 -4 7 4 12 9 12 12 0 8 -9 4 -16 -8z" />
        <path d="M6612 3015 c0 -16 2 -22 5 -12 2 9 2 23 0 30 -3 6 -5 -1 -5 -18z" />
        <path d="M7091 2914 c0 -11 3 -14 6 -6 3 7 2 16 -1 19 -3 4 -6 -2 -5 -13z" />
        <path d="M7082 2810 c0 -19 2 -27 5 -17 2 9 2 25 0 35 -3 9 -5 1 -5 -18z" />
        <path d="M6612 2720 c0 -19 2 -27 5 -17 2 9 2 25 0 35 -3 9 -5 1 -5 -18z" />
        <path d="M7073 2705 c0 -27 2 -38 4 -22 2 15 2 37 0 50 -2 12 -4 0 -4 -28z" />
        <path d="M7063 2585 c0 -27 2 -38 4 -22 2 15 2 37 0 50 -2 12 -4 0 -4 -28z" />
        <path d="M6623 2475 c0 -22 2 -30 4 -17 2 12 2 30 0 40 -3 9 -5 -1 -4 -23z" />
        <path d="M7053 2460 c0 -30 2 -43 4 -27 2 15 2 39 0 55 -2 15 -4 2 -4 -28z" />
        <path d="M7043 2340 c0 -30 2 -43 4 -27 2 15 2 39 0 55 -2 15 -4 2 -4 -28z" />
        <path d="M6608 2283 c7 -3 16 -2 19 1 4 3 -2 6 -13 5 -11 0 -14 -3 -6 -6z" />
        <path d="M7041 2264 c0 -11 3 -14 6 -6 3 7 2 16 -1 19 -3 4 -6 -2 -5 -13z" />
        <path d="M7105 2190 c3 -5 8 -10 11 -10 3 0 2 5 -1 10 -3 6 -8 10 -11 10 -3 0 -2 -4 1 -10z" />
        <path d="M7050 1981 c0 -97 10 -111 31 -42 13 45 5 103 -16 121 -13 11 -15 0 -15 -79z" />
        <path d="M7154 1698 c-4 -7 -3 -8 4 -4 7 4 12 9 12 12 0 8 -9 4 -16 -8z" />
        <path d="M6570 1584 c0 -9 37 -54 82 -100 93 -96 105 -96 109 -4 l3 55 -74 32 c-84 37 -120 42 -120 17z" />
        <path
            d="M6799 1554 c-8 -10 -13 -47 -13 -103 l-1 -87 50 -12 c52 -13 91 -40 68 -49 -22 -8 -15 -21 17 -32 17 -5 30 -15 30 -20 0 -6 5 -11 10 -11 6 0 10 34 10 83 0 91 -11 117 -61 142 -24 13 -29 22 -29 54 0 26 -5 41 -16 45 -27 10 -51 7 -65 -10z" />
        <path d="M6913 1553 c4 -3 10 -3 14 0 3 4 0 7 -7 7 -7 0 -10 -3 -7 -7z" />
        <path d="M6415 1510 c3 -5 8 -10 11 -10 3 0 2 5 -1 10 -3 6 -8 10 -11 10 -3 0 -2 -4 1 -10z" />
        <path d="M6900 1510 c0 -7 3 -10 7 -7 3 4 3 10 0 14 -4 3 -7 0 -7 -7z" />
        <path d="M6475 1460 c3 -5 8 -10 11 -10 3 0 2 5 -1 10 -3 6 -8 10 -11 10 -3 0 -2 -4 1 -10z" />
        <path
            d="M6764 1336 c-9 -24 3 -46 25 -46 11 0 27 -3 36 -6 10 -4 15 -2 13 6 -2 7 8 16 22 20 23 6 22 8 -18 19 -24 7 -50 15 -58 18 -7 3 -17 -2 -20 -11z" />
        <path d="M6691 1284 c0 -11 3 -14 6 -6 3 7 2 16 -1 19 -3 4 -6 -2 -5 -13z" />
        <path d="M6990 1280 c0 -7 3 -10 7 -7 3 4 3 10 0 14 -4 3 -7 0 -7 -7z" />
        <path d="M7040 1210 c0 -7 3 -10 7 -7 3 4 3 10 0 14 -4 3 -7 0 -7 -7z" />
        <path d="M6715 1160 c3 -5 8 -10 11 -10 3 0 2 5 -1 10 -3 6 -8 10 -11 10 -3 0 -2 -4 1 -10z" />
        <path d="M6825 1130 c3 -5 8 -10 11 -10 3 0 2 5 -1 10 -3 6 -8 10 -11 10 -3 0 -2 -4 1 -10z" />
        <path d="M6913 1083 c4 -3 10 -3 14 0 3 4 0 7 -7 7 -7 0 -10 -3 -7 -7z" />
    </g>

</svg>