<!DOCTYPE svg PUBLIC "-//W3C//DTD SVG 20010904//EN" "http://www.w3.org/TR/2001/REC-SVG-20010904/DTD/svg10.dtd">
<svg version="1.0" xmlns="http://www.w3.org/2000/svg" width="1200px" height="578px" viewBox="0 0 12000 5780" preserveAspectRatio="xMidYMid meet">
<g id="layer101" fill="#1b1b1b" stroke="none">
 <path d="M3400 5370 c0 -8 194 -14 413 -13 9 0 17 -4 17 -8 0 -4 13 -2 29 4 24 9 40 5 109 -22 80 -33 81 -33 111 -15 17 10 31 24 31 31 0 10 44 13 200 13 170 0 200 -2 200 -15 0 -30 83 -51 100 -25 3 4 27 14 54 23 45 15 152 17 1163 17 615 0 1121 -4 1131 -9 9 -5 40 -17 68 -28 46 -18 53 -18 82 -5 18 9 32 22 32 29 0 10 41 13 200 13 153 0 200 -3 200 -12 0 -7 13 -20 28 -29 27 -15 32 -14 98 12 l69 28 443 1 c288 0 442 3 442 10 0 7 -877 10 -2610 10 -1733 0 -2610 -3 -2610 -10z"/>
 <path d="M6998 5234 c-4 -3 -5 -47 -2 -97 9 -179 36 -562 40 -569 9 -14 -9 -8 -28 9 -11 10 -18 12 -18 4 0 -6 6 -14 14 -17 8 -3 12 -13 9 -23 -2 -10 2 -25 10 -32 10 -11 16 -51 21 -134 l7 -120 -20 33 c-12 18 -21 37 -21 42 0 6 -4 10 -8 10 -5 0 -14 10 -20 23 -11 22 -11 21 -9 -5 1 -15 4 -25 8 -22 11 6 18 -23 9 -32 -5 -5 -5 -15 1 -24 9 -13 10 -12 5 2 -3 10 -1 20 4 23 6 4 10 2 10 -3 0 -5 11 -25 24 -44 21 -32 24 -52 39 -297 8 -145 17 -264 19 -266 2 -2 22 2 43 9 105 36 281 39 381 6 19 -7 37 -10 38 -8 11 14 155 1286 162 1431 l5 107 -99 0 -99 0 -17 -107 c-9 -60 -28 -191 -41 -293 -14 -102 -36 -268 -50 -370 -14 -102 -35 -264 -48 -360 -13 -96 -26 -170 -29 -165 -3 6 -9 48 -12 95 -3 47 -23 236 -45 420 -22 184 -47 403 -56 485 -8 83 -18 164 -21 180 -2 17 -8 48 -12 70 l-7 40 -90 3 c-50 1 -94 0 -97 -4z m42 -710 c0 -8 -4 -12 -10 -9 -5 3 -10 13 -10 21 0 8 5 12 10 9 6 -3 10 -13 10 -21z"/>
 <path d="M6244 4775 c0 -66 1 -92 3 -57 2 34 2 88 0 120 -2 31 -3 3 -3 -63z"/>
 <path d="M4110 4834 l-55 -23 68 -1 c65 0 67 1 67 25 0 30 -8 30 -80 -1z"/>
 <path d="M4490 4830 l-45 -19 58 0 c51 -1 57 1 57 19 0 24 -11 24 -70 0z"/>
 <path d="M5614 3698 c-30 -14 -44 -50 -44 -109 0 -42 -3 -51 -22 -58 -36 -14 -58 -45 -64 -87 -4 -41 0 -37 10 8 4 15 16 37 28 48 21 19 34 20 354 20 l333 0 20 -26 c17 -22 21 -41 21 -110 0 -56 4 -84 11 -84 8 0 10 26 7 84 -5 92 -21 130 -64 146 -21 9 -24 15 -24 66 0 48 -4 59 -29 85 l-29 29 -244 -1 c-145 0 -252 -5 -264 -11z m527 -25 c16 -16 24 -38 27 -77 l4 -56 -296 0 -296 0 0 48 c0 52 19 88 54 102 11 5 126 8 253 7 224 -2 233 -3 254 -24z"/>
 <path d="M5484 3295 c0 -49 1 -71 3 -48 2 23 2 64 0 90 -2 26 -3 8 -3 -42z"/>
 <path d="M6250 3191 c0 -47 4 -81 10 -81 6 0 10 31 10 74 0 41 -4 78 -10 81 -6 4 -10 -23 -10 -74z"/>
 <path d="M5482 3068 c-2 -108 -3 -117 -23 -123 -49 -16 -88 -65 -110 -138 -41 -137 -85 -211 -225 -377 -167 -197 -254 -424 -254 -659 0 -111 13 -190 52 -310 97 -303 331 -536 646 -641 173 -57 419 -61 592 -8 198 61 385 191 514 358 145 187 225 469 198 694 -30 243 -107 405 -295 622 -79 91 -146 208 -176 311 -23 79 -55 124 -101 143 -28 12 -30 16 -30 66 0 29 -4 56 -10 59 -6 4 -10 -17 -10 -55 l0 -60 -377 2 -378 3 -6 115 -5 115 -2 -117z m850 -165 c25 -25 41 -55 61 -122 36 -114 94 -211 200 -335 110 -128 176 -239 223 -379 l39 -112 0 -185 c-1 -183 -1 -186 -34 -285 -86 -259 -245 -454 -473 -579 -168 -93 -389 -137 -571 -115 -249 30 -432 117 -601 284 -133 132 -234 315 -272 495 -18 85 -18 315 0 400 35 164 121 330 241 465 34 39 78 93 99 121 44 62 112 205 121 255 8 45 35 86 71 110 28 18 50 19 446 17 l417 -3 33 -32z"/>
 <path d="M4479 2932 c-36 -3 -37 -4 -48 -58 -7 -37 -7 -62 -1 -74 23 -43 3 -79 -28 -48 -9 9 -12 9 -12 -2 -1 -24 -32 -54 -71 -67 -19 -7 -38 -13 -41 -13 -3 0 -9 24 -14 53 -5 38 -9 45 -11 25 -2 -14 -15 -34 -29 -42 -32 -22 -35 -93 -4 -121 38 -35 197 0 244 54 14 15 21 43 26 104 4 45 14 96 23 114 18 34 22 70 10 75 -5 2 -24 2 -44 0z"/>
 <path d="M4175 2920 c-10 -17 5 -53 39 -88 30 -32 31 -32 36 -11 4 17 27 39 47 45 2 0 -3 15 -9 32 -12 30 -16 32 -60 32 -26 0 -50 -5 -53 -10z"/>
 <path d="M7186 2779 c-27 -61 -32 -114 -12 -144 20 -31 136 -85 182 -85 42 0 64 30 64 86 0 28 -6 46 -19 58 -18 17 -19 16 -26 -13 -8 -35 -12 -37 -43 -15 -12 8 -26 13 -31 10 -5 -4 -20 7 -34 23 -13 16 -33 29 -43 28 -20 -2 -21 5 -9 61 10 45 -8 40 -29 -9z"/>
 <path d="M6988 2382 c-37 -20 -68 -41 -68 -45 0 -8 124 57 145 75 21 18 -13 5 -77 -30z"/>
 <path d="M4715 2345 c55 -32 85 -42 85 -30 0 5 -129 65 -139 65 -3 0 21 -16 54 -35z"/>
 <path d="M6850 2305 c-14 -8 -19 -14 -10 -14 8 0 24 6 34 14 25 19 9 19 -24 0z"/>
 <path d="M4840 2285 c0 -2 18 -14 40 -25 22 -11 40 -17 40 -12 0 5 -16 16 -35 25 -38 18 -45 20 -45 12z"/>
 <path d="M6968 1723 c12 -2 32 -2 45 0 12 2 2 4 -23 4 -25 0 -35 -2 -22 -4z"/>
 <path d="M7070 1720 c14 -9 169 -15 159 -6 -2 2 -42 6 -89 9 -56 4 -80 3 -70 -3z"/>
 <path d="M4700 1690 c0 -12 67 -12 95 0 14 6 4 9 -37 9 -33 1 -58 -3 -58 -9z"/>
 <path d="M4540 1680 c-19 -6 -9 -8 37 -9 34 -1 65 4 68 9 7 12 -68 12 -105 0z"/>
 <path d="M4928 1152 c-16 -10 -28 -21 -28 -25 0 -5 14 0 30 10 17 9 30 21 30 25 0 10 1 10 -32 -10z"/>
 <path d="M6870 1146 c0 -7 153 -97 157 -92 2 2 -29 24 -68 50 -67 42 -89 53 -89 42z"/>
 <path d="M4785 1059 c-33 -21 -54 -39 -47 -39 13 0 122 68 122 76 0 9 -18 0 -75 -37z"/>
 <path d="M6401 810 c0 -8 6 -24 14 -34 19 -25 19 -9 0 24 -8 14 -14 19 -14 10z"/>
 <path d="M5351 787 c-16 -41 -13 -57 5 -24 8 16 13 34 11 40 -3 7 -10 -1 -16 -16z"/>
 <path d="M5883 660 c0 -41 2 -58 4 -37 2 20 2 54 0 75 -2 20 -4 3 -4 -38z"/>
 <path d="M6450 725 c0 -11 59 -120 75 -140 22 -27 17 -13 -28 73 -33 64 -47 84 -47 67z"/>
 <path d="M5281 641 c-17 -32 -31 -65 -31 -72 1 -8 17 17 36 55 19 37 33 70 31 72 -2 2 -18 -22 -36 -55z"/>
 <path d="M5883 480 c0 -41 2 -58 4 -37 2 20 2 54 0 75 -2 20 -4 3 -4 -38z"/>
 </g>
<g id="layer102" fill="#473b33" stroke="none">
 <path d="M6092 4930 c0 -19 2 -27 5 -17 2 9 2 25 0 35 -3 9 -5 1 -5 -18z"/>
 <path d="M5933 4905 c0 -22 2 -30 4 -17 2 12 2 30 0 40 -3 9 -5 -1 -4 -23z"/>
 <path d="M5852 4900 c0 -19 2 -27 5 -17 2 9 2 25 0 35 -3 9 -5 1 -5 -18z"/>
 <path d="M5676 4854 c-3 -8 -2 -13 3 -9 5 3 12 -1 14 -7 4 -8 6 -7 6 4 1 23 -15 32 -23 12z"/>
 <path d="M6254 4425 c0 -49 1 -71 3 -48 2 23 2 64 0 90 -2 26 -3 8 -3 -42z"/>
 <path d="M6728 4445 c2 -14 6 -25 8 -25 2 0 4 11 4 25 0 14 -4 25 -9 25 -4 0 -6 -11 -3 -25z"/>
 <path d="M7333 3733 c9 -2 25 -2 35 0 9 3 1 5 -18 5 -19 0 -27 -2 -17 -5z"/>
 <path d="M5688 2953 c106 -2 277 -2 380 0 103 1 16 2 -193 2 -209 0 -293 -1 -187 -2z"/>
 <path d="M7273 2923 c15 -2 39 -2 55 0 15 2 2 4 -28 4 -30 0 -43 -2 -27 -4z"/>
 <path d="M6569 2467 c29 -32 30 -32 27 -9 -2 9 -7 17 -12 17 -5 0 -16 4 -24 9 -8 5 -4 -3 9 -17z"/>
 <path d="M6581 1086 c-13 -13 -18 -26 -13 -30 5 -3 19 5 31 18 13 13 18 26 13 30 -5 3 -19 -5 -31 -18z"/>
 <path d="M5848 783 c12 -2 32 -2 45 0 12 2 2 4 -23 4 -25 0 -35 -2 -22 -4z"/>
 <path d="M5890 653 c-3 -40 -1 -68 3 -64 4 4 7 37 5 72 l-3 64 -5 -72z"/>
 <path d="M5893 480 c0 -41 2 -58 4 -37 2 20 2 54 0 75 -2 20 -4 3 -4 -38z"/>
 </g>
<g id="layer103" fill="#58483b" stroke="none">
 </g>
<g id="layer104" fill="#605b58" stroke="none">
 <path d="M3793 5273 c-13 -31 -19 -52 -14 -47 14 15 51 104 43 104 -4 0 -17 -26 -29 -57z"/>
 <path d="M6773 5220 c0 -25 2 -35 4 -22 2 12 2 32 0 45 -2 12 -4 2 -4 -23z"/>
 <path d="M3735 5131 c-10 -18 -36 -95 -28 -87 8 8 43 96 38 96 -2 0 -6 -4 -10 -9z"/>
 <path d="M8041 5135 c0 -5 6 -21 14 -35 8 -14 14 -20 14 -15 0 6 -6 21 -14 35 -8 14 -14 21 -14 15z"/>
 <path d="M8100 5016 c0 -12 29 -76 34 -76 3 0 -2 17 -11 38 -16 38 -23 50 -23 38z"/>
 <path d="M5715 4930 c-9 -16 -13 -30 -11 -30 3 0 12 14 21 30 9 17 13 30 11 30 -3 0 -12 -13 -21 -30z"/>
 <path d="M3649 4903 c-5 -14 -8 -30 -6 -36 1 -5 8 7 14 27 13 42 7 49 -8 9z"/>
 <path d="M6815 4875 c4 -11 9 -52 12 -92 3 -40 9 -71 12 -68 13 7 -4 142 -21 165 -8 12 -8 11 -3 -5z"/>
 <path d="M8192 4793 c13 -34 24 -60 27 -58 5 6 -29 97 -40 110 -5 5 1 -18 13 -52z"/>
 <path d="M5626 4765 c-9 -14 -13 -25 -8 -25 5 0 14 11 20 25 6 14 10 25 8 25 -2 0 -11 -11 -20 -25z"/>
 <path d="M6850 4700 c0 -14 15 -19 29 -11 9 6 7 10 -8 14 -12 3 -21 1 -21 -3z"/>
 <path d="M3575 4669 c-11 -30 -34 -143 -30 -147 2 -3 7 9 10 24 4 16 13 51 20 79 8 27 12 51 10 54 -3 2 -7 -2 -10 -10z"/>
 <path d="M6900 4663 c0 -5 11 -19 25 -31 14 -12 25 -19 25 -14 0 11 -50 56 -50 45z"/>
 <path d="M6242 4625 c-1 -22 3 -58 7 -80 l9 -40 0 40 c1 22 -3 58 -7 80 l-9 40 0 -40z"/>
 <path d="M5646 4608 c-3 -13 -5 -32 -5 -43 1 -11 5 -2 10 19 10 42 6 62 -5 24z"/>
 <path d="M6900 4551 c13 -24 13 -105 1 -149 -6 -18 -6 -30 -1 -27 5 3 12 26 16 51 4 30 9 41 15 33 4 -7 11 -11 14 -7 3 3 -1 13 -10 21 -8 9 -14 20 -13 24 4 16 -14 73 -23 73 -6 0 -6 -8 1 -19z"/>
 <path d="M8281 4550 c0 -8 6 -28 14 -45 17 -39 18 -21 0 25 -7 19 -14 28 -14 20z"/>
 <path d="M6988 4143 c-3 -54 -9 -107 -13 -118 -6 -20 -6 -20 6 0 12 18 27 215 17 215 -3 0 -8 -44 -10 -97z"/>
 <path d="M5763 3713 c65 -2 168 -2 230 0 62 1 9 3 -118 3 -126 0 -177 -2 -112 -3z"/>
 <path d="M5763 3693 c65 -2 168 -2 230 0 62 1 9 3 -118 3 -126 0 -177 -2 -112 -3z"/>
 <path d="M5563 3590 c0 -30 2 -43 4 -27 2 15 2 39 0 55 -2 15 -4 2 -4 -28z"/>
 <path d="M6163 3585 c0 -22 2 -30 4 -17 2 12 2 30 0 40 -3 9 -5 -1 -4 -23z"/>
 <path d="M6181 3583 c-1 -23 3 -44 7 -47 4 -2 6 12 4 32 -5 56 -10 62 -11 15z"/>
 <path d="M5494 3295 c0 -49 1 -71 3 -48 2 23 2 64 0 90 -2 26 -3 8 -3 -42z"/>
 <path d="M7553 3185 c0 -33 2 -45 4 -27 2 18 2 45 0 60 -2 15 -4 0 -4 -33z"/>
 <path d="M5494 3070 c0 -63 1 -89 3 -57 2 31 2 83 0 115 -2 31 -3 5 -3 -58z"/>
 <path d="M7057 3092 c7 -49 13 -54 13 -9 0 20 -4 38 -9 41 -5 3 -7 -11 -4 -32z"/>
 <path d="M7543 3075 c0 -22 2 -30 4 -17 2 12 2 30 0 40 -3 9 -5 -1 -4 -23z"/>
 <path d="M7190 2923 c0 -4 35 -10 78 -11 42 -2 75 -2 72 1 -10 9 -150 18 -150 10z"/>
 <path d="M7143 1723 c15 -2 37 -2 50 0 12 2 0 4 -28 4 -27 0 -38 -2 -22 -4z"/>
 </g>
<g id="layer105" fill="#97603e" stroke="none">
 </g>
<g id="layer106" fill="#98745c" stroke="none">
 <path d="M5861 5090 c0 -8 4 -24 9 -35 5 -13 9 -14 9 -5 0 8 -4 24 -9 35 -5 13 -9 14 -9 5z"/>
 <path d="M5932 5015 c0 -11 4 -33 8 -50 7 -27 8 -27 8 -5 0 14 -4 36 -8 50 -6 20 -8 21 -8 5z"/>
 <path d="M6090 5023 c0 -5 5 -15 10 -23 8 -12 10 -11 10 8 0 12 -4 22 -10 22 -5 0 -10 -3 -10 -7z"/>
 <path d="M5857 4965 c3 -22 7 -42 9 -44 8 -9 2 45 -6 64 -7 14 -8 8 -3 -20z"/>
 <path d="M6232 4870 c0 -19 2 -27 5 -17 2 9 2 25 0 35 -3 9 -5 1 -5 -18z"/>
 <path d="M6243 4530 c0 -25 2 -35 4 -22 2 12 2 32 0 45 -2 12 -4 2 -4 -23z"/>
 <path d="M5543 2933 c20 -2 54 -2 75 0 20 2 3 4 -38 4 -41 0 -58 -2 -37 -4z"/>
 <path d="M5773 2933 c59 -2 154 -2 210 0 56 1 8 3 -108 3 -115 0 -161 -2 -102 -3z"/>
 <path d="M6133 2933 c20 -2 54 -2 75 0 20 2 3 4 -38 4 -41 0 -58 -2 -37 -4z"/>
 <path d="M6190 855 c0 -8 5 -15 10 -15 6 0 10 7 10 15 0 8 -4 15 -10 15 -5 0 -10 -7 -10 -15z"/>
 </g>
<g id="layer107" fill="#c67c4f" stroke="none">
 <path d="M6092 5110 c0 -19 2 -27 5 -17 2 9 2 25 0 35 -3 9 -5 1 -5 -18z"/>
 <path d="M5933 5065 c0 -22 2 -30 4 -17 2 12 2 30 0 40 -3 9 -5 -1 -4 -23z"/>
 <path d="M7052 4170 c0 -19 2 -27 5 -17 2 9 2 25 0 35 -3 9 -5 1 -5 -18z"/>
 <path d="M4230 2946 c0 -2 13 -6 29 -8 17 -2 28 -1 25 4 -5 8 -54 12 -54 4z"/>
 </g>
<g id="layer108" fill="#ad9471" stroke="none">
 <path d="M4238 5353 c12 -2 30 -2 40 0 9 3 -1 5 -23 4 -22 0 -30 -2 -17 -4z"/>
 <path d="M4348 5353 c28 -2 76 -2 105 0 28 2 5 3 -53 3 -58 0 -81 -1 -52 -3z"/>
 <path d="M5258 5353 c309 -2 815 -2 1125 0 309 1 56 2 -563 2 -619 0 -872 -1 -562 -2z"/>
 <path d="M7238 5353 c56 -2 148 -2 205 0 56 1 10 3 -103 3 -113 0 -159 -2 -102 -3z"/>
 <path d="M7878 5353 c79 -2 205 -2 280 0 75 1 11 3 -143 3 -154 0 -216 -2 -137 -3z"/>
 <path d="M6232 4790 c0 -19 2 -27 5 -17 2 9 2 25 0 35 -3 9 -5 1 -5 -18z"/>
 <path d="M6253 4645 c0 -27 2 -38 4 -22 2 15 2 37 0 50 -2 12 -4 0 -4 -28z"/>
 <path d="M6243 4455 c0 -22 2 -30 4 -17 2 12 2 30 0 40 -3 9 -5 -1 -4 -23z"/>
 <path d="M7333 3723 c9 -2 25 -2 35 0 9 3 1 5 -18 5 -19 0 -27 -2 -17 -5z"/>
 <path d="M7558 3210 c2 -22 6 -40 8 -40 2 0 4 18 4 40 0 22 -3 40 -8 40 -4 0 -6 -18 -4 -40z"/>
 <path d="M7543 3150 c0 -25 2 -35 4 -22 2 12 2 32 0 45 -2 12 -4 2 -4 -23z"/>
 <path d="M7068 3095 c-1 -30 0 -55 5 -55 4 0 7 25 7 55 0 71 -7 71 -12 0z"/>
 <path d="M7277 2933 c18 -2 50 -2 70 0 21 2 7 4 -32 4 -38 0 -55 -2 -38 -4z"/>
 </g>
<g id="layer109" fill="#a3a2a1" stroke="none">
 <path d="M3498 5353 c57 -2 147 -2 200 0 53 1 7 3 -103 3 -110 0 -154 -2 -97 -3z"/>
 <path d="M8373 5353 c48 -2 125 -2 170 0 45 1 6 3 -88 3 -93 0 -130 -2 -82 -3z"/>
 <path d="M6760 5230 c0 -22 2 -40 4 -40 2 0 6 18 8 40 2 22 0 40 -4 40 -5 0 -8 -18 -8 -40z"/>
 <path d="M8186 4814 c-3 -9 -2 -23 2 -31 8 -13 10 -13 15 1 4 11 3 15 -4 10 -8 -4 -9 1 -4 15 7 24 0 29 -9 5z"/>
 <path d="M6821 4725 c0 -11 3 -26 8 -33 6 -10 10 -9 14 7 3 12 1 19 -3 16 -5 -3 -11 3 -13 12 -4 15 -5 15 -6 -2z"/>
 <path d="M6875 4680 c3 -5 1 -11 -5 -15 -5 -3 -10 -12 -10 -18 0 -7 4 -6 10 3 5 8 14 15 20 15 18 0 16 18 -3 21 -9 1 -15 -2 -12 -6z"/>
 <path d="M3500 4321 c0 -17 4 -32 8 -35 4 -2 6 11 4 30 -5 42 -12 45 -12 5z"/>
 <path d="M7003 4180 c0 -36 2 -50 4 -32 2 17 2 47 0 65 -2 17 -4 3 -4 -33z"/>
 <path d="M6981 4109 c0 -13 4 -33 9 -44 7 -14 8 -8 3 20 -7 46 -13 59 -12 24z"/>
 <path d="M5581 3588 c-1 -27 3 -48 7 -48 4 0 6 17 4 38 -5 58 -10 62 -11 10z"/>
 <path d="M5718 3513 c90 -2 234 -2 320 0 86 1 13 3 -163 3 -176 0 -247 -2 -157 -3z"/>
 <path d="M5472 3440 c0 -19 2 -27 5 -17 2 9 2 25 0 35 -3 9 -5 1 -5 -18z"/>
 <path d="M6268 3375 c-2 -47 0 -85 5 -85 4 0 7 38 7 85 0 47 -2 85 -4 85 -3 0 -6 -38 -8 -85z"/>
 <path d="M5474 3295 c0 -49 1 -71 3 -48 2 23 2 64 0 90 -2 26 -3 8 -3 -42z"/>
 <path d="M6274 3185 c0 -49 1 -71 3 -48 2 23 2 64 0 90 -2 26 -3 8 -3 -42z"/>
 <path d="M5470 3068 c-3 -64 -1 -114 3 -109 4 4 6 57 5 117 l-3 109 -5 -117z"/>
 <path d="M6273 3030 c0 -25 2 -35 4 -22 2 12 2 32 0 45 -2 12 -4 2 -4 -23z"/>
 <path d="M5134 2458 l-29 -33 33 29 c17 17 32 31 32 33 0 8 -8 1 -36 -29z"/>
 <path d="M5134 2418 l-29 -33 33 29 c17 17 32 31 32 33 0 8 -8 1 -36 -29z"/>
 <path d="M4690 2375 c14 -8 30 -14 35 -14 6 0 -1 6 -15 14 -14 8 -29 14 -35 14 -5 0 1 -6 15 -14z"/>
 <path d="M4863 1805 c0 -22 2 -30 4 -17 2 12 2 30 0 40 -3 9 -5 -1 -4 -23z"/>
 <path d="M4862 1730 c0 -19 2 -27 5 -17 2 9 2 25 0 35 -3 9 -5 1 -5 -18z"/>
 <path d="M7057 1733 c-4 -3 -7 -11 -7 -17 0 -7 3 -7 8 1 4 6 21 13 37 16 l30 4 -31 2 c-17 0 -34 -2 -37 -6z"/>
 <path d="M7113 1703 c15 -2 39 -2 55 0 15 2 2 4 -28 4 -30 0 -43 -2 -27 -4z"/>
 <path d="M4563 1663 c9 -2 25 -2 35 0 9 3 1 5 -18 5 -19 0 -27 -2 -17 -5z"/>
 <path d="M5140 1115 c19 -19 36 -35 39 -35 3 0 -10 16 -29 35 -19 19 -36 35 -39 35 -3 0 10 -16 29 -35z"/>
 <path d="M5160 1055 c30 -30 57 -55 59 -55 3 0 -19 25 -49 55 -30 30 -57 55 -59 55 -3 0 19 -25 49 -55z"/>
 <path d="M5823 763 c26 -2 68 -2 95 0 26 2 4 3 -48 3 -52 0 -74 -1 -47 -3z"/>
 <path d="M5874 727 c-3 -8 -4 -45 -2 -83 l3 -69 5 83 c5 82 4 94 -6 69z"/>
 <path d="M5873 475 c0 -44 2 -61 4 -37 2 23 2 59 0 80 -2 20 -4 1 -4 -43z"/>
 </g>
<g id="layer110" fill="#f89c61" stroke="none">
 <path d="M7108 5311 c-18 -10 -28 -24 -28 -38 0 -20 5 -23 35 -23 37 0 41 9 27 56 -7 19 -9 19 -34 5z"/>
 <path d="M4068 5307 l-28 -11 0 -243 0 -243 38 16 c20 9 52 21 70 27 39 13 39 10 8 186 -14 75 -30 169 -36 209 -7 39 -15 72 -18 71 -4 -1 -19 -6 -34 -12z"/>
 <path d="M4506 5313 c-11 -11 -6 -23 9 -23 8 0 15 -5 15 -11 0 -5 -4 -7 -10 -4 -5 3 -14 -4 -20 -17 -11 -27 -63 -428 -56 -435 3 -3 26 3 53 13 26 11 51 18 56 16 4 -1 7 86 7 194 0 146 -3 193 -12 188 -8 -5 -9 -2 -4 12 18 43 17 50 -7 61 -14 7 -28 9 -31 6z"/>
 <path d="M7536 5297 c-11 -40 -7 -47 25 -47 27 0 30 3 27 26 -4 36 -44 52 -52 21z"/>
 <path d="M3799 5240 c-8 -89 32 -164 69 -127 11 12 11 19 -1 48 -20 46 -66 99 -68 79z"/>
 <path d="M6357 5227 c-38 -12 -66 -25 -62 -29 6 -6 46 -110 62 -160 3 -10 0 -18 -6 -18 -6 0 -13 6 -16 13 -2 6 -16 46 -31 88 l-27 76 -45 -14 c-25 -7 -47 -14 -49 -16 -1 -2 9 -50 22 -108 25 -103 76 -247 121 -344 12 -27 26 -63 29 -79 7 -35 113 -149 132 -142 7 3 13 0 13 -7 0 -14 43 -31 101 -41 27 -5 39 -13 50 -38 8 -17 22 -36 31 -42 51 -31 133 97 112 178 -6 26 -7 26 -30 -19 -19 -35 -23 -53 -18 -85 4 -26 3 -40 -4 -40 -6 0 -12 12 -14 28 l-4 27 -11 -27 c-7 -14 -17 -29 -22 -33 -18 -11 -12 18 13 62 l24 42 -23 -9 c-19 -7 -23 -6 -18 6 3 8 15 17 27 20 22 5 52 42 42 51 -3 3 -22 -7 -42 -22 l-36 -27 -35 33 c-74 72 -171 218 -228 345 l-36 79 48 -46 c26 -26 64 -55 83 -65 47 -24 197 -32 224 -11 18 13 14 19 -73 112 -50 54 -91 102 -91 107 0 5 -4 6 -10 3 -10 -6 -78 91 -100 144 -14 36 -14 36 -103 8z m213 -679 c0 -19 -2 -20 -10 -8 -13 19 -13 30 0 30 6 0 10 -10 10 -22z"/>
 <path d="M3715 5215 c-41 -15 -78 -50 -72 -68 2 -6 11 -15 20 -21 13 -8 23 -4 48 19 32 31 65 85 52 85 -5 -1 -26 -7 -48 -15z"/>
 <path d="M8092 5177 c-17 -10 -20 -15 -10 -25 22 -22 48 -14 48 13 0 28 -5 30 -38 12z"/>
 <path d="M5465 5127 c-28 -29 -101 -99 -163 -157 -104 -96 -112 -106 -95 -118 13 -10 42 -13 103 -10 97 5 158 30 223 93 20 20 37 33 37 30 0 -20 -171 -267 -204 -294 -9 -7 -13 -18 -9 -25 3 -6 2 -8 -2 -3 -10 9 -76 -53 -69 -65 3 -4 -1 -8 -9 -8 -7 0 -23 -10 -34 -22 -12 -13 -33 -34 -47 -47 -32 -28 -33 -47 -3 -55 62 -17 173 14 244 69 56 43 127 123 128 144 0 9 26 59 57 113 73 122 162 314 154 333 -3 8 -16 15 -28 15 -13 0 -33 3 -45 6 -19 5 -26 -3 -53 -55 -17 -34 -35 -59 -40 -56 -6 3 3 31 20 64 l29 59 -65 21 c-35 11 -68 21 -72 21 -4 0 -30 -24 -57 -53z m-20 -527 c-11 -5 -29 -11 -40 -15 -13 -5 -15 -9 -7 -12 13 -5 7 -23 -9 -23 -6 0 -7 5 -4 10 3 6 2 10 -4 10 -5 0 -16 -12 -23 -27 -8 -16 -22 -28 -33 -29 -39 -2 -46 -4 -41 -13 3 -5 -3 -11 -14 -14 -11 -3 -20 -4 -20 -4 0 1 21 22 48 47 26 24 41 38 35 30 -7 -8 -13 -20 -13 -28 0 -11 3 -11 15 2 8 8 15 24 15 35 0 14 5 19 15 15 8 -4 15 -1 15 4 0 9 22 15 75 20 6 0 1 -3 -10 -8z"/>
 <path d="M6117 5108 c-4 -29 -9 -98 -12 -153 -8 -137 -15 -186 -25 -180 -5 3 -7 25 -4 48 3 23 8 105 12 182 l7 141 -66 -15 -67 -14 -6 -45 c-3 -25 -6 -66 -6 -92 0 -67 -11 -140 -21 -140 -8 0 -4 167 5 246 4 28 2 30 -24 26 l-27 -4 -13 -155 c-7 -85 -19 -171 -27 -191 -12 -35 -13 -32 -7 43 3 44 10 116 15 160 5 44 9 95 9 113 0 30 -2 33 -27 30 -23 -3 -31 -14 -62 -88 -20 -47 -40 -91 -45 -99 -9 -15 -38 -153 -61 -301 -23 -143 -55 -302 -65 -325 -16 -34 -33 -255 -27 -341 6 -80 24 -145 46 -158 19 -12 48 12 65 54 15 37 86 419 100 535 3 28 10 71 14 97 7 36 6 45 -5 41 -7 -3 -13 0 -13 6 0 6 6 11 14 11 14 0 32 111 21 130 -3 6 -1 10 4 10 10 0 17 -60 12 -98 -1 -7 2 -12 6 -11 25 4 36 -3 16 -11 -19 -8 -21 -16 -22 -90 0 -50 3 -79 9 -75 6 3 10 1 10 -4 0 -6 -3 -11 -7 -11 -5 0 -6 -22 -5 -50 2 -27 8 -50 12 -50 4 0 6 10 3 23 -3 12 -1 18 4 12 4 -5 16 -16 26 -24 15 -12 17 -11 17 3 0 9 -7 16 -15 16 -20 0 -19 16 1 24 24 9 24 9 24 -31 0 -20 3 -33 7 -30 11 12 13 66 3 72 -13 8 -13 35 1 35 5 0 7 -4 4 -10 -3 -5 -2 -10 3 -10 5 0 14 -11 20 -25 10 -21 9 -25 -4 -25 -11 0 -14 -5 -10 -17 9 -21 -13 -34 -36 -22 -12 6 -25 6 -38 -1 -17 -9 -19 -17 -14 -53 10 -65 21 -87 49 -97 35 -13 63 2 80 44 18 44 51 175 65 266 7 41 14 82 15 91 2 9 6 40 10 70 4 30 9 56 11 58 4 4 8 -553 5 -573 -1 -5 1 -16 4 -25 4 -9 8 -59 10 -113 2 -69 8 -103 20 -122 10 -14 21 -26 26 -26 19 0 48 40 42 56 -4 11 -3 15 5 10 11 -7 20 18 41 114 13 58 33 309 25 321 -3 5 -9 142 -15 306 -9 270 -12 304 -33 373 -13 41 -27 93 -31 115 -11 65 -15 75 -35 75 -14 0 -19 -11 -23 -52z m-351 -539 c3 -6 1 -16 -6 -22 -10 -9 -11 -9 -6 1 4 6 2 12 -3 12 -6 0 -11 5 -11 10 0 13 17 13 26 -1z m209 1 c-3 -5 -13 -10 -21 -10 -8 0 -14 -9 -14 -20 0 -25 -15 -26 -17 -1 -1 10 8 23 20 29 29 14 40 14 32 2z m-71 -25 c6 -17 -2 -45 -14 -45 -12 0 -31 26 -24 33 3 3 11 4 17 3 7 -2 9 -1 5 1 -11 6 -10 23 1 23 5 0 11 -7 15 -15z m44 -60 c-6 -14 -13 -23 -16 -21 -7 7 9 46 18 46 5 0 4 -11 -2 -25z m-48 -55 c8 -5 6 -9 -7 -12 -14 -4 -18 1 -20 20 -1 16 2 20 7 12 4 -7 13 -16 20 -20z m-12 -71 c-7 -4 -16 -3 -20 4 -11 18 2 29 18 16 12 -10 12 -14 2 -20z m287 -317 c3 -18 1 -20 -14 -10 -14 9 -16 14 -7 24 13 14 15 13 21 -14z"/>
 <path d="M3757 5143 c-4 -3 -7 -30 -7 -60 0 -40 5 -58 20 -73 23 -23 48 -26 56 -6 10 25 -55 154 -69 139z"/>
 <path d="M7996 5115 c-8 -9 -20 -34 -26 -57 -10 -33 -9 -43 3 -56 14 -13 18 -12 42 12 21 21 26 34 23 68 -3 46 -17 57 -42 33z"/>
 <path d="M8080 5081 c0 -12 46 -48 72 -57 13 -4 26 0 37 11 15 15 14 18 -8 36 -24 20 -101 27 -101 10z"/>
 <path d="M3609 5051 c-22 -18 -23 -21 -8 -36 14 -14 21 -15 40 -5 31 16 59 41 59 52 0 16 -68 8 -91 -11z"/>
 <path d="M8052 5015 c-42 -53 -52 -125 -18 -125 24 0 45 41 47 92 3 59 -3 66 -29 33z"/>
 <path d="M3710 4991 c0 -58 24 -111 50 -111 11 0 23 7 27 17 7 18 -29 93 -58 119 -18 17 -19 16 -19 -25z"/>
 <path d="M8130 4982 c0 -26 81 -78 106 -68 20 8 17 44 -5 55 -29 16 -101 25 -101 13z"/>
 <path d="M3596 4955 c-42 -15 -57 -31 -49 -52 12 -32 88 0 113 48 13 24 -6 25 -64 4z"/>
 <path d="M8089 4896 c-38 -88 -35 -126 11 -111 25 8 45 72 36 119 -9 48 -23 45 -47 -8z"/>
 <path d="M3667 4894 c-12 -70 18 -131 60 -122 25 5 19 50 -13 105 -33 56 -40 59 -47 17z"/>
 <path d="M8192 4848 c53 -69 119 -84 104 -25 -6 26 -65 57 -107 57 -21 0 -21 -1 3 -32z"/>
 <path d="M3563 4841 c-47 -22 -71 -55 -53 -76 16 -19 46 -7 80 32 28 32 39 63 23 63 -5 0 -27 -9 -50 -19z"/>
 <path d="M8152 4827 c-38 -45 -54 -140 -27 -151 29 -11 55 30 55 87 0 61 -11 85 -28 64z"/>
 <path d="M3637 4803 c-12 -11 -7 -87 6 -113 8 -17 21 -25 37 -25 36 0 37 34 4 95 -27 49 -34 56 -47 43z"/>
 <path d="M8220 4759 c0 -20 77 -89 98 -89 23 0 47 34 36 51 -9 16 -85 49 -111 49 -13 0 -23 -5 -23 -11z"/>
 <path d="M3522 4725 c-60 -28 -72 -47 -47 -75 16 -17 20 -18 45 -5 39 20 90 105 63 105 -5 0 -32 -11 -61 -25z"/>
 <path d="M8184 4635 c-14 -31 -23 -62 -20 -71 9 -24 38 -29 52 -9 17 22 19 135 3 135 -5 0 -22 -25 -35 -55z"/>
 <path d="M3590 4626 c0 -65 18 -108 44 -104 33 5 33 54 -1 106 -15 23 -31 42 -35 42 -5 0 -8 -20 -8 -44z"/>
 <path d="M6952 4631 c15 -13 33 -18 46 -14 31 8 27 19 -9 27 -55 11 -64 8 -37 -13z"/>
 <path d="M8270 4635 c0 -19 58 -85 75 -85 7 0 18 7 25 15 16 20 -9 50 -59 71 -41 17 -41 17 -41 -1z"/>
 <path d="M3505 4602 c-40 -25 -58 -49 -51 -67 14 -38 78 2 91 58 8 32 1 33 -40 9z"/>
 <path d="M6924 4604 c3 -9 6 -20 6 -24 0 -13 59 -79 81 -90 12 -7 20 -7 24 0 4 6 1 9 -6 8 -7 -2 -17 13 -23 33 -6 20 -25 48 -42 63 -36 30 -49 33 -40 10z"/>
 <path d="M3995 4593 c-33 -7 -82 -18 -109 -23 -27 -6 -50 -11 -51 -13 -5 -5 19 -137 25 -137 3 0 5 -14 4 -31 -4 -53 18 -173 35 -193 9 -11 10 -16 3 -12 -10 6 -12 -3 -11 -39 2 -25 6 -48 11 -51 4 -3 8 -21 8 -40 0 -26 3 -33 13 -28 8 6 8 3 -1 -9 -8 -9 -11 -21 -7 -27 4 -6 9 -30 11 -53 3 -23 9 -67 15 -97 16 -94 19 -114 20 -147 1 -18 5 -33 11 -33 5 0 7 -4 3 -9 -7 -12 16 -201 25 -201 3 0 5 -13 4 -30 -1 -16 2 -30 7 -30 4 0 6 -7 3 -15 -6 -15 14 -152 24 -170 4 -5 16 -48 28 -95 12 -47 25 -93 29 -102 4 -11 3 -18 -3 -18 -6 0 -21 32 -33 70 -24 74 -39 89 -39 41 0 -17 -5 -33 -11 -37 -9 -5 -10 9 -5 55 4 33 4 61 1 61 -12 0 -225 -125 -225 -132 0 -4 31 -68 69 -141 l68 -133 29 23 c117 96 212 142 309 146 27 2 31 -2 40 -37 9 -38 -1 -56 -38 -69 -6 -2 -5 -26 3 -70 16 -79 23 -93 41 -81 8 5 20 9 28 11 17 2 61 55 55 65 -2 4 0 9 6 13 6 3 13 -1 16 -9 7 -18 34 -22 34 -6 0 6 -7 21 -15 33 -11 18 -12 31 -5 57 5 18 8 36 5 38 -3 3 0 11 6 18 15 19 -3 46 -45 69 -31 17 -40 18 -68 7 -17 -6 -33 -10 -35 -8 -2 2 -6 27 -8 57 -7 68 -52 396 -65 470 -5 30 -10 60 -10 66 0 6 51 23 113 38 129 32 166 48 92 40 -223 -25 -215 -26 -215 30 0 20 7 24 63 34 35 6 101 11 146 11 l82 0 -5 -77 c-3 -43 -11 -186 -16 -318 -6 -132 -12 -271 -15 -310 l-3 -70 31 -1 c18 -1 58 -5 89 -9 71 -10 78 -6 231 140 l116 110 -66 83 c-36 45 -68 82 -72 82 -3 0 -30 -24 -58 -53 l-52 -53 -12 -94 c-15 -115 -34 -149 -25 -43 3 40 13 100 21 135 8 35 17 97 20 138 3 41 9 109 14 150 4 45 4 77 -2 81 -6 4 -6 8 0 10 6 2 13 19 16 38 6 29 5 32 -11 27 -15 -5 -15 -5 -1 6 18 15 33 113 43 278 1 20 5 40 8 45 3 6 5 29 4 53 -1 23 2 42 7 42 14 0 7 39 -10 50 -17 11 -17 11 1 6 15 -5 17 -2 13 14 -3 11 -1 23 4 26 5 3 9 11 8 17 -2 11 5 96 16 182 2 17 7 55 10 86 l7 56 -94 12 c-51 7 -112 14 -135 17 l-41 6 -6 -63 c-3 -35 -10 -174 -16 -309 -5 -135 -13 -296 -16 -358 l-6 -113 -47 1 c-49 1 -138 -5 -206 -15 l-41 -7 -32 219 c-17 120 -34 244 -37 275 -6 68 -53 390 -57 392 -2 1 -30 -4 -63 -11z m-81 -147 c-5 -14 -9 -15 -15 -5 -5 8 -3 17 4 21 15 9 19 4 11 -16z m822 -32 c-5 -14 -9 -14 -22 -3 -14 12 -14 14 3 20 23 8 27 4 19 -17z m-819 -21 c-4 -3 2 -12 13 -20 23 -16 26 -36 7 -52 -11 -8 -13 -4 -10 22 l4 32 -14 -25 c-15 -24 -15 -24 -12 10 3 41 3 40 12 40 3 0 3 -3 0 -7z m809 -13 c5 1 10 -3 12 -9 5 -14 -1 -14 -33 1 -18 8 -22 14 -13 19 7 4 15 3 19 -2 3 -6 10 -10 15 -9z m4 -60 c0 -22 -15 -27 -26 -8 -5 7 -3 8 6 3 10 -6 12 -4 7 8 -3 10 -2 17 3 17 6 0 10 -9 10 -20z m-26 -52 c-3 -4 -11 -5 -19 -2 -8 4 -12 10 -9 15 3 5 0 9 -5 9 -6 0 -11 5 -11 10 0 6 11 3 24 -7 13 -10 22 -21 20 -25z m-727 -64 c-3 -4 -2 -15 4 -25 7 -15 6 -17 -6 -13 -8 3 -12 10 -9 15 3 5 -1 9 -8 9 -9 0 -9 3 2 10 17 11 26 13 17 4z m717 -110 c8 -20 -14 -66 -34 -72 -10 -4 -10 0 4 13 11 12 16 28 14 47 -5 30 6 38 16 12z m-704 -64 c0 -13 -28 -25 -38 -16 -3 4 0 11 8 16 20 13 30 12 30 0z m700 -37 c-8 -3 -18 -11 -22 -17 -4 -6 -10 -7 -15 -3 -9 10 16 27 37 26 13 -1 13 -1 0 -6z m-694 -71 c-11 -10 -15 4 -8 28 l7 25 3 -23 c2 -13 1 -26 -2 -30z m647 -53 c5 -3 1 -9 -8 -12 -9 -4 -13 -3 -10 3 3 6 1 10 -5 10 -6 0 -8 5 -5 11 4 6 10 7 14 2 3 -4 10 -11 14 -14z m-607 -116 c-3 -3 -1 -12 5 -20 8 -9 8 -13 1 -13 -6 0 -14 9 -17 20 -3 11 -11 20 -16 20 -5 0 -9 10 -9 22 l0 22 21 -23 c12 -12 18 -25 15 -28z m34 -183 c0 -14 -9 -12 -26 4 -20 21 -17 28 6 16 11 -6 20 -15 20 -20z m534 -24 c-3 -7 2 -16 11 -20 9 -3 14 -10 10 -15 -8 -14 -35 -2 -35 16 0 8 -5 11 -12 8 -7 -4 -4 1 6 9 24 20 27 20 20 2z m-275 -730 c10 -11 8 -16 -9 -21 -24 -8 -46 7 -36 24 10 15 31 14 45 -3z m-15 -75 c3 -5 -1 -12 -10 -15 -20 -8 -29 -1 -19 13 8 13 22 14 29 2z"/>
 <path d="M7000 4591 c0 -5 7 -11 15 -15 9 -3 15 0 15 9 0 8 -7 15 -15 15 -8 0 -15 -4 -15 -9z"/>
 <path d="M8227 4518 c-16 -25 -27 -56 -27 -76 0 -30 2 -33 27 -30 21 2 31 12 41 40 14 36 10 108 -6 108 -4 0 -20 -19 -35 -42z"/>
 <path d="M3556 4518 c-13 -53 35 -145 69 -131 23 8 18 45 -14 95 -36 57 -47 64 -55 36z"/>
 <path d="M8310 4503 c0 -24 67 -93 90 -93 50 0 24 57 -40 90 -48 24 -50 24 -50 3z"/>
 <path d="M3483 4470 c-46 -20 -77 -59 -67 -84 10 -26 41 -19 67 17 29 38 50 77 45 82 -2 2 -22 -5 -45 -15z"/>
 <path d="M8260 4398 c-32 -44 -36 -81 -10 -86 31 -6 52 23 58 76 6 65 -7 67 -48 10z"/>
 <path d="M3530 4385 c0 -65 52 -123 80 -90 14 16 0 46 -38 88 -32 34 -42 34 -42 2z"/>
 <path d="M8346 4378 c33 -67 84 -100 97 -64 8 21 -19 54 -63 76 -52 26 -53 26 -34 -12z"/>
 <path d="M3448 4345 c-37 -25 -55 -56 -43 -75 18 -28 74 14 94 71 13 37 -1 38 -51 4z"/>
 <path d="M6832 4314 c-31 -25 -68 -81 -59 -90 2 -3 17 1 32 8 17 8 35 29 47 57 10 24 17 45 15 47 -1 2 -17 -8 -35 -22z"/>
 <path d="M8296 4309 c-29 -34 -41 -71 -32 -94 8 -22 33 -18 47 6 11 22 25 119 16 119 -3 0 -17 -14 -31 -31z"/>
 <path d="M6877 4298 c-3 -11 1 -37 10 -57 l17 -36 4 34 c7 63 -18 110 -31 59z"/>
 <path d="M8346 4311 c-17 -27 24 -155 54 -171 47 -25 67 29 31 85 -39 59 -78 99 -85 86z"/>
 <path d="M3524 4259 c12 -76 44 -107 69 -67 12 19 -23 82 -55 99 -20 11 -21 9 -14 -32z"/>
 <path d="M3455 4230 c-42 -57 -55 -109 -32 -129 26 -21 55 3 72 61 17 57 20 118 6 118 -5 0 -26 -22 -46 -50z"/>
 <path d="M6853 4225 c-6 -11 -16 -37 -22 -57 -7 -21 -17 -38 -23 -38 -9 0 -6 27 7 63 5 11 -2 14 -24 13 -26 -1 -31 -5 -31 -27 0 -14 6 -33 13 -44 18 -23 70 -15 104 17 23 21 31 48 15 48 -5 0 -13 10 -19 22 -10 22 -10 22 -20 3z"/>
 <path d="M7037 4223 c-11 -10 -7 -55 8 -93 13 -34 13 -33 8 30 -6 72 -7 73 -16 63z"/>
 <path d="M6914 3981 c-60 -37 -96 -108 -79 -160 9 -30 75 -29 110 2 23 20 25 24 13 49 -7 16 -15 28 -18 28 -3 0 -16 -20 -29 -45 -13 -25 -28 -45 -32 -45 -12 0 -11 7 6 40 15 29 15 30 -10 30 -35 0 -31 15 7 26 19 6 42 23 55 43 37 54 30 64 -23 32z"/>
 <path d="M6964 3955 c-3 -8 -2 -32 4 -52 l10 -38 1 53 c1 52 -5 65 -15 37z"/>
 <path d="M5096 3146 c-3 -13 -8 -31 -12 -39 -4 -10 10 -23 46 -43 32 -17 53 -36 56 -51 7 -27 32 -43 68 -43 25 0 26 3 26 55 0 60 -13 75 -68 75 -18 0 -37 10 -53 26 -39 42 -56 47 -63 20z"/>
 <path d="M7835 3083 c-17 -9 -32 -17 -34 -19 -2 -2 11 -26 29 -55 24 -39 30 -59 26 -81 -5 -23 0 -34 21 -54 14 -13 29 -24 32 -24 8 0 47 61 55 87 5 17 -1 28 -33 53 -26 22 -41 43 -45 66 -8 42 -14 46 -51 27z"/>
 <path d="M6280 2972 c0 -12 30 -27 45 -22 8 2 45 -40 45 -52 0 -4 7 -8 16 -8 11 0 14 -6 8 -22 l-6 -23 19 22 c13 15 23 19 34 12 12 -7 11 -9 -3 -9 -11 0 -15 -6 -11 -20 4 -16 2 -19 -11 -14 -11 4 -16 1 -16 -11 0 -11 5 -15 15 -11 8 3 15 1 15 -4 0 -6 -4 -10 -10 -10 -5 0 -10 -4 -10 -10 0 -5 3 -9 8 -7 4 1 19 -8 32 -21 14 -13 21 -23 15 -22 -5 2 -17 2 -24 1 -12 -1 -12 -4 -3 -13 7 -7 12 -21 13 -33 1 -17 2 -16 9 5 8 25 8 25 10 -5 l3 -30 7 35 c5 22 8 27 9 13 0 -12 4 -28 7 -37 4 -11 1 -16 -10 -16 -18 0 -20 -8 -7 -29 5 -7 13 -11 19 -7 6 3 8 -1 6 -11 -3 -11 9 -33 30 -57 20 -21 36 -42 36 -46 0 -5 14 -20 30 -33 17 -14 30 -30 30 -35 0 -5 7 -15 16 -22 12 -11 15 -11 12 0 -2 7 3 15 9 17 16 6 30 -27 15 -36 -15 -9 -2 -28 22 -32 11 -2 21 -11 23 -19 4 -13 3 -13 -6 0 -9 12 -11 12 -11 1 0 -19 39 -81 52 -81 6 0 6 6 -2 15 -10 12 -10 15 3 15 8 0 18 -7 21 -16 9 -22 8 -24 -10 -24 -13 0 -14 -3 0 -27 8 -16 20 -42 26 -60 8 -21 17 -30 26 -26 11 4 13 -2 8 -26 -4 -21 -3 -31 5 -31 7 0 10 -4 7 -9 -4 -5 -2 -19 2 -32 9 -23 9 -23 16 4 7 30 21 35 29 13 4 -11 1 -13 -10 -9 -11 4 -14 2 -11 -8 3 -8 12 -13 21 -11 11 2 15 -2 11 -11 -3 -8 -13 -14 -22 -13 -13 1 -16 -6 -15 -34 5 -61 14 -101 23 -95 13 8 40 -6 40 -21 0 -17 -17 -19 -22 -2 -7 21 -28 -3 -28 -33 0 -21 5 -29 18 -29 9 0 13 -4 7 -8 -13 -9 -18 -34 -20 -104 -1 -32 -4 -61 -8 -64 -11 -11 -8 -44 3 -44 6 0 10 -4 10 -10 0 -5 -7 -10 -16 -10 -12 0 -15 -7 -11 -27 3 -16 -1 -32 -10 -41 -8 -8 -12 -21 -9 -28 3 -8 1 -14 -4 -14 -6 0 -10 -5 -10 -11 0 -21 -78 -177 -118 -235 -43 -63 -142 -170 -207 -223 -54 -44 -14 -23 61 32 112 82 218 204 287 327 43 78 96 232 101 294 2 24 6 49 10 54 4 6 -3 16 -15 23 l-22 11 21 17 c19 14 22 25 21 91 -1 89 -27 246 -43 263 -6 7 -11 17 -11 22 -1 32 -17 85 -26 80 -5 -4 -9 3 -9 13 0 23 -30 84 -30 62 -1 -10 -7 -8 -21 9 -13 16 -16 27 -9 31 14 9 2 40 -16 40 -8 0 -14 7 -14 16 0 9 -10 29 -21 46 -17 23 -24 27 -30 16 -7 -10 -9 -10 -10 2 -1 8 -1 18 0 22 0 4 -8 10 -19 13 -10 3 -17 12 -14 18 5 15 -41 58 -52 49 -4 -4 -4 -1 0 6 9 16 -12 44 -27 35 -6 -3 -7 -1 -3 5 4 7 2 12 -5 12 -7 0 -9 3 -6 6 4 4 -2 19 -11 33 -10 14 -29 47 -43 74 -13 26 -28 47 -32 47 -5 0 -5 9 -2 20 4 13 1 22 -9 26 -9 3 -13 10 -10 15 3 5 -1 9 -8 9 -10 0 -11 2 0 8 13 9 7 42 -8 42 -5 0 -6 10 -3 21 5 18 3 20 -18 15 -13 -3 -18 -3 -11 0 6 3 12 12 12 19 0 17 -51 54 -67 48 -7 -3 -13 0 -13 6 0 13 -42 10 -52 -4 -5 -6 -8 -6 -8 2 0 6 -9 11 -20 10 -11 -1 -20 -7 -20 -15z m634 -1008 c9 -24 7 -27 -9 -10 -17 17 -19 26 -6 26 5 0 12 -7 15 -16z m11 -274 c3 -5 1 -10 -4 -10 -6 0 -11 -8 -11 -17 0 -14 -2 -15 -12 -4 -11 11 -10 14 0 18 6 3 10 9 6 14 -3 5 -1 9 5 9 5 0 13 -4 16 -10z"/>
 <path d="M5550 2970 c-10 -6 108 -10 343 -10 231 0 357 4 357 10 0 13 -679 13 -700 0z"/>
 <path d="M5480 2910 c-8 -14 -8 -20 0 -20 6 0 4 -7 -4 -16 -9 -8 -16 -21 -16 -28 0 -12 -23 -72 -53 -136 -6 -14 -24 -44 -39 -67 -27 -40 -24 -64 5 -47 8 5 7 2 -2 -10 -11 -13 -16 -14 -23 -4 -6 10 -14 6 -31 -17 -12 -16 -32 -38 -44 -49 -13 -11 -23 -23 -23 -27 0 -4 -15 -23 -34 -42 -46 -47 -98 -125 -92 -136 3 -5 -1 -12 -10 -15 -8 -3 -12 -10 -9 -16 3 -5 1 -10 -4 -10 -6 0 -11 -7 -11 -15 0 -8 -5 -15 -11 -15 -8 0 -8 -5 1 -15 10 -12 10 -15 -4 -15 -9 0 -18 -12 -22 -27 -4 -16 -10 -32 -14 -38 -25 -32 -63 -264 -41 -251 17 11 13 -10 -5 -25 -14 -11 -15 -29 -9 -124 4 -60 10 -114 15 -120 4 -5 11 -28 14 -50 14 -76 29 -116 43 -111 7 3 13 1 13 -4 0 -6 -4 -10 -9 -10 -6 0 -6 -12 0 -30 12 -33 19 -36 37 -18 7 7 12 8 12 4 0 -5 -8 -15 -17 -22 -12 -9 -14 -13 -5 -14 7 0 10 -4 7 -10 -3 -5 -2 -10 2 -10 5 0 15 -15 21 -34 7 -19 26 -49 41 -65 16 -17 27 -31 25 -31 -3 0 7 -16 22 -35 14 -19 30 -32 35 -29 5 3 9 -1 9 -9 0 -18 100 -111 142 -133 16 -8 38 -24 49 -35 10 -10 25 -19 33 -19 8 0 17 -6 20 -12 5 -10 7 -10 12 -1 8 18 25 16 18 -1 -6 -16 30 -41 45 -31 5 3 11 0 13 -5 5 -15 142 -62 146 -50 2 5 10 3 19 -5 8 -8 24 -15 36 -16 12 0 29 -2 37 -3 58 -12 120 -15 120 -6 0 5 5 10 11 10 5 0 7 -5 4 -10 -3 -6 3 -10 14 -10 12 0 21 6 21 14 0 8 5 18 11 22 7 4 9 0 5 -14 -6 -18 -3 -20 31 -19 28 2 39 7 41 20 3 16 -1 18 -27 12 -31 -6 -38 0 -23 20 9 14 55 17 47 4 -4 -5 6 -14 22 -20 26 -11 27 -12 8 -20 -14 -7 -8 -8 24 -5 43 4 65 21 97 73 7 10 15 15 20 10 4 -4 -3 -17 -16 -29 -61 -57 56 -14 182 68 81 52 216 182 269 259 45 66 119 219 108 223 -14 6 -10 22 5 22 16 0 29 52 14 61 -5 3 -2 9 7 13 14 5 16 14 11 48 -4 27 -3 44 5 48 6 4 13 35 15 69 4 53 2 61 -13 61 -16 1 -16 2 -2 13 22 17 19 91 -12 249 -7 32 -15 55 -20 52 -5 -3 -6 2 -2 11 3 10 2 20 -4 24 -5 3 -22 38 -37 76 -15 39 -34 74 -42 78 -8 5 -12 12 -9 18 4 5 -1 9 -9 9 -9 0 -16 9 -16 20 0 22 -34 44 -56 36 -8 -3 -14 1 -14 8 0 10 7 12 22 8 21 -5 20 -2 -10 35 -25 33 -37 40 -55 35 -18 -5 -20 -3 -10 9 10 12 8 20 -10 42 -12 16 -32 29 -44 30 -12 0 -19 5 -16 10 3 5 -1 13 -8 18 -9 6 -10 9 -2 9 7 0 17 -8 22 -17 6 -10 11 -13 11 -6 0 6 -8 18 -17 25 -10 7 -19 20 -21 28 -2 8 -7 17 -11 20 -4 3 -10 13 -14 23 -3 9 -14 17 -23 17 -12 0 -14 4 -7 13 7 8 6 22 -2 42 -11 25 -13 27 -18 10 -2 -11 -5 -4 -5 15 0 43 -36 147 -59 172 -17 19 -18 19 -25 1 -6 -16 -7 -16 -13 4 -8 26 -31 33 -119 33 l-68 0 6 -32 c3 -18 10 -73 16 -123 7 -49 27 -189 45 -310 19 -121 37 -245 40 -275 4 -30 18 -128 32 -217 l26 -163 55 0 c48 0 58 -4 88 -34 38 -38 42 -64 17 -106 -43 -73 -151 -62 -172 18 -5 20 -11 48 -13 62 l-3 25 -372 3 -373 2 -2 -22 c0 -13 -2 -34 -3 -48 -5 -61 -55 -98 -118 -86 -55 10 -85 58 -72 117 9 42 56 69 120 69 l50 0 33 223 c19 122 45 296 58 387 48 321 64 455 58 483 -5 26 -8 27 -69 27 -54 0 -66 -3 -75 -20z m97 -7 c3 -7 -3 -9 -16 -6 -12 3 -21 10 -21 15 0 13 32 6 37 -9z m683 -13 c7 -13 7 -20 1 -20 -6 0 -15 9 -21 20 -7 13 -7 20 -1 20 6 0 15 -9 21 -20z m75 -20 c-3 -4 1 -10 7 -13 7 -2 10 -8 6 -12 -11 -11 -28 4 -28 26 0 11 5 17 10 14 6 -4 8 -10 5 -15z m-749 -7 c-2 -10 -10 -19 -19 -21 -22 -4 -22 7 1 24 22 17 21 17 18 -3z m-46 -8 c0 -8 -4 -15 -9 -15 -5 0 -11 7 -15 15 -3 9 0 15 9 15 8 0 15 -7 15 -15z m-45 -54 c-3 -6 -14 -11 -23 -11 -15 1 -15 2 2 15 21 16 32 13 21 -4z m797 -6 c0 -5 -5 -11 -11 -13 -6 -2 -11 4 -11 13 0 9 5 15 11 13 6 -2 11 -8 11 -13z m-712 -40 c0 -8 -4 -15 -10 -15 -5 0 -10 7 -10 15 0 8 5 15 10 15 6 0 10 -7 10 -15z m-42 -54 c2 -1 -3 -8 -12 -16 -22 -23 -55 -20 -49 4 4 17 20 20 61 12z m32 -55 c0 -17 -27 -46 -43 -46 -6 0 -1 7 11 16 12 8 22 22 22 30 0 8 2 14 5 14 3 0 5 -6 5 -14z m-70 -32 c0 -12 -4 -12 -20 -2 -11 7 -20 16 -20 19 0 4 9 5 20 2 11 -3 20 -12 20 -19z m-50 -11 c0 -9 -3 -13 -7 -10 -3 4 -12 2 -19 -4 -8 -7 -14 -7 -19 1 -3 5 1 10 9 10 9 0 16 7 16 16 0 8 5 12 10 9 6 -3 10 -13 10 -22z m-10 -73 c0 -16 -4 -30 -9 -30 -5 0 -7 10 -4 21 5 19 3 20 -18 14 -21 -7 -22 -6 -10 9 22 26 41 20 41 -14z m937 3 c-3 -3 -11 -2 -17 2 -9 6 -9 10 1 16 14 8 27 -7 16 -18z m-982 -43 c19 -8 19 -9 -2 -9 -22 -1 -31 -15 -15 -24 4 -2 2 -2 -5 -1 -6 2 -14 -2 -17 -9 -3 -7 -2 1 1 17 4 20 3 27 -6 22 -6 -4 -11 -2 -11 3 0 13 27 13 55 1z m-95 -50 c0 -5 7 -7 15 -3 10 3 15 0 13 -8 -2 -10 5 -13 25 -11 29 4 37 -12 12 -22 -8 -3 -15 -1 -15 4 0 5 -6 7 -14 4 -8 -3 -24 4 -35 15 -23 23 -26 31 -11 31 6 0 10 -4 10 -10z m-25 -60 c4 -11 10 -18 15 -15 4 3 6 -4 3 -15 -6 -23 -21 -35 -31 -25 -3 3 0 10 8 15 12 7 12 12 -3 28 -19 21 -22 32 -8 32 5 0 13 -9 16 -20z m-35 4 c0 -3 -7 -12 -15 -20 -13 -14 -17 -14 -32 2 -16 16 -16 16 5 10 13 -5 22 -3 22 3 0 6 5 11 10 11 6 0 10 -3 10 -6z m87 -6 c-2 -7 0 -21 5 -30 6 -14 5 -16 -7 -12 -17 7 -21 54 -4 54 6 0 9 -6 6 -12z m1209 -16 c-8 -9 -19 -13 -22 -9 -10 9 16 38 28 31 6 -4 4 -13 -6 -22z m-1296 -32 c0 -5 -7 -10 -15 -10 -8 0 -15 5 -15 10 0 6 7 10 15 10 8 0 15 -4 15 -10z m-20 -30 c0 -5 -4 -10 -8 -10 -5 0 -17 -9 -29 -19 -13 -12 -25 -16 -34 -11 -11 7 -9 10 6 16 11 5 26 14 33 21 16 15 32 17 32 3z m1410 -12 c0 -9 4 -8 10 2 11 17 13 10 4 -14 -5 -13 -8 -13 -20 -1 -16 16 -18 25 -4 25 6 0 10 -6 10 -12z m-1418 -95 c-5 -10 -7 -25 -5 -33 3 -9 -1 -7 -11 5 -18 23 -21 45 -6 45 6 0 10 8 10 18 1 16 1 16 11 0 6 -11 6 -24 1 -35z m1509 28 c-11 -7 -11 -13 -1 -32 13 -23 12 -24 -7 -6 -11 9 -23 14 -26 10 -4 -3 -7 -1 -7 5 0 6 8 16 18 21 21 13 43 14 23 2z m-1581 -10 c0 -5 -9 -11 -21 -14 -16 -4 -18 -3 -8 9 13 16 29 19 29 5z m36 -45 c3 -8 1 -22 -4 -32 -8 -14 -10 -11 -14 15 -5 31 8 43 18 17z m-26 -41 c0 -8 -4 -15 -10 -15 -5 0 -10 7 -10 15 0 8 5 15 10 15 6 0 10 -7 10 -15z m-10 -62 c-1 -19 -19 -35 -30 -28 -10 6 -9 11 5 22 22 15 25 16 25 6z m1410 -23 c0 -5 -7 -10 -15 -10 -8 0 -15 5 -15 10 0 6 7 10 15 10 8 0 15 -4 15 -10z m158 -2 c-2 -6 -10 -14 -16 -16 -7 -2 -10 2 -6 12 7 18 28 22 22 4z m-1574 -33 c12 -9 17 -22 13 -34 -3 -11 -1 -22 4 -25 5 -2 4 -3 -3 -2 -7 2 -13 11 -13 22 1 23 -17 37 -27 21 -10 -16 -20 -3 -12 17 7 19 13 20 38 1z m-54 -14 c0 -5 -5 -11 -11 -13 -6 -2 -12 -26 -14 -53 -2 -31 -8 -51 -17 -53 -11 -3 -11 -2 1 6 9 7 10 12 2 16 -14 9 -8 70 9 91 14 17 30 20 30 6z m30 -71 c0 -13 -11 -13 -30 0 -12 8 -11 10 8 10 12 0 22 -4 22 -10z m64 -22 c16 -11 -6 -10 -23 1 -8 5 -10 14 -5 22 6 10 9 10 12 -1 3 -8 10 -18 16 -22z m-61 -40 c3 -10 2 -18 -3 -18 -6 0 -10 5 -10 10 0 6 -8 5 -20 -2 -20 -13 -26 -38 -13 -51 3 -4 12 -2 20 5 19 16 28 2 10 -16 -13 -14 -16 -14 -28 0 -7 8 -18 13 -24 10 -7 -2 -18 -1 -25 4 -16 10 -3 33 15 26 7 -2 12 3 11 12 0 9 5 16 12 15 6 -2 12 5 12 15 0 38 27 31 43 -10z m-9 -114 c4 -9 3 -20 0 -23 -4 -3 -9 -1 -11 6 -2 7 -11 9 -19 6 -8 -3 -14 1 -14 11 0 21 36 21 44 0z m-34 -56 c0 -5 -4 -8 -10 -8 -5 0 -10 10 -10 23 0 18 2 19 10 7 5 -8 10 -18 10 -22z m-33 -53 c-13 -13 -16 -13 -27 1 -11 12 -10 13 2 9 9 -4 18 1 23 12 5 12 9 14 12 6 3 -7 -2 -19 -10 -28z m97 -52 c4 -9 0 -23 -9 -32 -9 -9 -15 -11 -15 -4 0 6 6 13 13 16 9 3 9 7 -2 20 -7 10 -9 17 -3 17 5 0 13 -8 16 -17z m-44 -13 c0 -16 -4 -18 -24 -10 -13 5 -28 6 -32 2 -5 -4 -2 1 5 11 19 24 51 22 51 -3z m84 -24 c-3 -8 -14 -16 -25 -19 -24 -6 -24 -2 -1 21 19 21 34 19 26 -2z m22 -40 c24 -24 16 -38 -11 -20 -14 9 -22 20 -19 25 7 12 13 11 30 -5z m-17 -101 c3 -17 2 -17 -13 -3 -19 20 -21 31 -3 26 6 -3 14 -13 16 -23z m-1 -33 c13 -9 6 -42 -9 -42 -14 0 -11 20 4 20 7 0 4 7 -7 15 -21 16 -11 21 12 7z m74 -11 c-11 -7 -11 -9 1 -14 8 -3 19 -1 25 5 7 7 10 5 7 -8 -2 -11 -4 -22 -4 -26 -1 -4 -14 1 -30 10 -22 12 -27 20 -19 29 6 7 16 13 22 13 7 0 6 -4 -2 -9z m2 -56 c-4 -8 -13 -15 -20 -15 -12 0 -12 3 -2 15 17 19 29 19 22 0z m83 -20 c0 -8 -6 -16 -13 -19 -7 -3 -10 2 -7 15 6 22 20 26 20 4z m53 -56 c0 -11 -4 -17 -10 -14 -5 3 -10 13 -10 21 0 8 5 14 10 14 6 0 10 -9 10 -21z m-62 -8 c10 -6 8 -10 -10 -13 -12 -3 -32 -9 -43 -13 -16 -7 -15 -4 5 13 29 24 30 25 48 13z m131 -22 c-15 -9 -32 -2 -24 11 3 5 13 6 21 3 12 -4 13 -8 3 -14z m-65 -34 c3 -9 0 -15 -9 -15 -8 0 -15 7 -15 15 0 8 4 15 9 15 5 0 11 -7 15 -15z m166 -40 c0 -1 -10 -13 -22 -26 -16 -18 -19 -19 -15 -6 4 10 7 25 7 33 0 8 6 11 15 8 8 -4 15 -7 15 -9z m-90 -35 c-6 -11 -15 -20 -21 -20 -6 0 -6 7 1 20 6 11 15 20 21 20 6 0 6 -7 -1 -20z m26 -25 c1 -8 -2 -15 -7 -15 -5 0 -9 10 -9 22 0 23 12 17 16 -7z m56 -38 c-9 -18 -24 12 -16 34 l8 24 6 -25 c4 -14 5 -29 2 -33z m-102 -8 c0 -18 -2 -20 -15 -9 -13 11 -13 15 -3 21 18 12 18 12 18 -12z m183 14 c3 -5 1 -17 -3 -27 -7 -20 -12 -16 -23 17 -6 17 17 26 26 10z m102 -19 c15 -15 14 -18 -5 -31 -11 -8 -29 -11 -40 -8 -13 4 -20 2 -20 -6 0 -10 -3 -10 -12 -1 -17 17 9 34 32 22 19 -10 49 4 31 14 -11 7 -16 26 -7 26 3 0 12 -7 21 -16z m462 1 c-7 -7 -14 -9 -15 -4 -2 5 -8 7 -13 3 -5 -3 -9 -1 -9 4 0 5 11 10 24 10 19 0 22 -3 13 -13z m-397 -21 c0 -8 -4 -12 -10 -9 -5 3 -10 -1 -10 -9 0 -9 -4 -16 -10 -16 -16 0 -12 22 8 36 22 17 22 17 22 -2z m141 -27 c-15 -15 -14 -30 1 -21 7 5 9 2 5 -9 -4 -11 -2 -14 9 -10 9 3 14 -1 14 -13 0 -16 2 -17 10 -4 7 10 10 11 10 2 0 -7 -6 -15 -14 -18 -8 -3 -12 -12 -10 -19 4 -10 -1 -12 -15 -8 -12 3 -21 12 -21 20 0 8 -5 11 -10 8 -15 -9 -51 5 -44 17 3 5 14 8 24 5 14 -4 19 3 24 35 4 24 10 36 17 32 8 -4 8 -9 0 -17z m-366 3 c3 -5 -3 -10 -14 -10 -12 0 -21 5 -21 10 0 6 6 10 14 10 8 0 18 -4 21 -10z m652 -9 c-1 -12 -7 -17 -19 -13 -10 2 -15 8 -12 13 3 5 10 7 15 4 5 -4 9 -1 9 4 0 6 2 11 4 11 3 0 4 -8 3 -19z m-377 -10 c13 -25 13 -41 0 -41 -6 0 -10 6 -9 13 3 28 -2 35 -23 30 -19 -4 -20 -3 -8 6 21 15 28 14 40 -8z m60 9 c0 -5 -2 -10 -4 -10 -2 0 -12 -3 -22 -7 -16 -6 -17 -5 -4 10 17 19 30 22 30 7z m164 4 c21 -8 21 -40 0 -48 -18 -7 -50 19 -34 29 5 3 10 1 10 -4 0 -6 5 -11 10 -11 14 0 12 27 -2 33 -7 3 -10 6 -6 6 3 1 13 -2 22 -5z m112 -46 c-6 -4 -14 0 -18 10 -4 9 -7 13 -7 9 -1 -5 -6 -5 -11 -2 -6 4 -8 11 -5 16 4 5 17 1 30 -8 15 -12 19 -20 11 -25z m110 16 c2 -12 -1 -13 -12 -3 -7 6 -11 16 -8 21 7 11 17 3 20 -18z m-491 -14 c-3 -10 -1 -30 6 -42 12 -22 11 -22 -6 -8 -44 35 -53 48 -42 59 6 6 19 11 30 11 14 0 17 -5 12 -20z m335 -29 c0 -11 -31 -24 -39 -16 -3 3 1 10 9 15 19 12 30 12 30 1z m-287 -18 c-7 -2 -9 -12 -6 -21 4 -14 3 -15 -5 -2 -11 15 5 47 17 34 3 -4 1 -9 -6 -11z"/>
 <path d="M5673 2915 c4 -8 2 -17 -2 -19 -4 -3 -11 -38 -14 -78 -4 -40 -22 -170 -41 -288 -19 -118 -37 -244 -41 -280 -4 -36 -20 -145 -36 -243 -16 -97 -29 -182 -29 -187 0 -6 134 -10 366 -10 289 0 365 3 361 13 -2 6 -14 82 -26 167 -40 287 -92 613 -99 624 -3 6 -5 26 -3 44 1 19 -5 88 -15 153 l-19 119 -203 0 c-175 0 -203 -2 -199 -15z"/>
 <path d="M7222 2902 c-10 -7 -10 -20 -1 -61 8 -39 8 -56 0 -64 -12 -12 -15 -47 -5 -47 4 0 13 8 20 18 12 16 13 16 14 0 0 -21 43 -68 62 -68 8 0 19 -5 25 -11 6 -6 16 -9 21 -5 13 8 32 86 32 129 0 29 -4 36 -26 41 -24 6 -25 10 -20 41 l7 35 -58 0 c-32 0 -64 -4 -71 -8z m136 -115 c4 -18 -14 -22 -37 -8 -7 5 -10 14 -6 20 10 17 39 9 43 -12z m0 -57 c-1 -23 -5 -29 -15 -25 -8 3 -17 5 -19 5 -4 0 28 49 33 50 1 0 1 -14 1 -30z"/>
 <path d="M6832 2842 c-10 -7 -9 -16 3 -46 9 -21 14 -58 13 -89 l-3 -52 54 -18 c29 -10 55 -16 56 -15 1 2 5 18 8 36 6 27 2 37 -17 55 -15 14 -28 43 -35 80 -11 52 -15 57 -39 57 -15 0 -33 -4 -40 -8z"/>
 <path d="M3790 2404 l-29 -47 22 -23 c12 -13 28 -24 35 -24 7 0 12 -15 12 -40 0 -90 36 -8 49 112 6 51 5 57 -14 62 -37 10 -45 6 -75 -40z"/>
 <path d="M5362 1764 c-25 -17 -31 -71 -10 -92 16 -16 70 -15 92 1 17 13 39 91 28 102 -12 11 -89 4 -110 -11z"/>
 <path d="M6285 1733 c9 -59 19 -73 57 -73 46 0 68 17 68 50 0 45 -31 70 -86 70 l-46 0 7 -47z"/>
 </g>
<g id="layer111" fill="#f6b78c" stroke="none">
 <path d="M7590 5276 c0 -21 -5 -25 -37 -29 l-38 -4 43 -1 c40 -2 42 -1 42 28 0 17 -2 30 -5 30 -3 0 -5 -11 -5 -24z"/>
 <path d="M7098 5243 c12 -2 32 -2 45 0 12 2 2 4 -23 4 -25 0 -35 -2 -22 -4z"/>
 <path d="M5833 4765 c0 -22 2 -30 4 -17 2 12 2 30 0 40 -3 9 -5 -1 -4 -23z"/>
 <path d="M5818 4655 c2 -14 6 -25 8 -25 2 0 4 11 4 25 0 14 -4 25 -9 25 -4 0 -6 -11 -3 -25z"/>
 <path d="M5413 4603 c-18 -2 -33 -9 -33 -15 0 -5 -6 -8 -13 -5 -8 3 -14 -3 -14 -16 -1 -11 -8 -24 -15 -28 -7 -4 -9 -12 -4 -16 5 -4 11 -2 14 6 8 22 53 61 71 61 9 0 23 5 31 10 8 5 11 9 5 8 -5 -1 -25 -3 -42 -5z"/>
 <path d="M5871 4526 c5 -26 25 -31 33 -9 4 9 4 14 0 10 -4 -4 -14 -1 -22 5 -12 10 -14 9 -11 -6z"/>
 <path d="M5935 4489 c-10 -30 0 -33 13 -4 6 14 7 25 2 25 -5 0 -12 -9 -15 -21z"/>
 <path d="M4700 4380 c0 -4 9 -10 21 -13 12 -3 19 -1 17 5 -5 13 -38 20 -38 8z"/>
 <path d="M5867 4383 c-9 -14 8 -33 21 -24 10 6 10 10 -2 20 -8 7 -17 8 -19 4z"/>
 <path d="M5915 4370 c-4 -6 -1 -17 5 -25 6 -8 9 -22 6 -32 -3 -10 -1 -25 5 -33 8 -12 9 -10 4 8 -5 16 -2 22 9 22 13 0 14 4 4 25 -6 14 -15 25 -20 25 -5 0 -6 5 -3 10 3 6 4 10 1 10 -3 0 -8 -5 -11 -10z"/>
 <path d="M3930 4351 c0 -12 5 -21 10 -21 6 0 10 6 10 14 0 8 -4 18 -10 21 -5 3 -10 -3 -10 -14z"/>
 <path d="M5883 4333 c-18 -7 -16 -23 2 -23 8 0 15 -7 15 -16 0 -14 -2 -15 -17 -3 -10 8 -22 19 -26 24 -5 6 -7 1 -4 -12 3 -12 0 -25 -7 -28 -6 -3 0 -3 13 -1 13 3 31 1 40 -4 14 -7 16 -3 13 31 -4 39 -6 42 -29 32z"/>
 <path d="M4000 3798 c0 -17 29 -58 34 -49 4 6 -2 21 -13 33 -12 12 -21 19 -21 16z"/>
 <path d="M4596 3521 c-3 -5 1 -11 9 -15 9 -3 15 0 15 9 0 16 -16 20 -24 6z"/>
 <path d="M5738 2983 c94 -2 250 -2 345 0 94 1 17 3 -173 3 -190 0 -267 -2 -172 -3z"/>
 <path d="M5621 2918 c1 -7 5 -24 9 -38 8 -24 8 -24 9 7 1 17 -3 35 -9 38 -5 3 -10 0 -9 -7z"/>
 <path d="M5540 2910 c0 -5 7 -10 15 -10 8 0 15 5 15 10 0 6 -7 10 -15 10 -8 0 -15 -4 -15 -10z"/>
 <path d="M6238 2901 c8 -4 13 -12 12 -17 -1 -5 4 -10 10 -12 9 -3 9 1 1 17 -7 11 -17 21 -24 21 -8 0 -8 -3 1 -9z"/>
 <path d="M6320 2871 c0 -22 17 -37 28 -26 4 4 1 10 -6 12 -6 3 -10 9 -7 13 3 5 1 11 -5 15 -5 3 -10 -3 -10 -14z"/>
 <path d="M5568 2866 c-23 -17 -23 -28 -1 -24 9 2 17 11 19 21 3 20 4 20 -18 3z"/>
 <path d="M6406 2864 c-20 -20 -20 -23 1 -20 9 2 17 10 19 19 3 21 0 21 -20 1z"/>
 <path d="M5560 2755 c0 -8 5 -15 10 -15 6 0 10 7 10 15 0 8 -4 15 -10 15 -5 0 -10 -7 -10 -15z"/>
 <path d="M5642 2740 c0 -19 2 -27 5 -17 2 9 2 25 0 35 -3 9 -5 1 -5 -18z"/>
 <path d="M6422 2758 c2 -6 15 -12 28 -13 21 -2 22 -1 5 12 -23 16 -38 17 -33 1z"/>
 <path d="M6462 2690 c0 -19 2 -27 5 -17 2 9 2 25 0 35 -3 9 -5 1 -5 -18z"/>
 <path d="M5480 2699 c0 -5 8 -9 18 -10 14 0 14 -2 -3 -9 -13 -6 -15 -9 -5 -9 13 0 60 28 49 30 -42 6 -59 6 -59 -2z"/>
 <path d="M5560 2646 c0 -8 -10 -22 -22 -30 -12 -9 -17 -16 -11 -16 16 0 43 29 43 46 0 8 -2 14 -5 14 -3 0 -5 -6 -5 -14z"/>
 <path d="M5399 2543 c-12 -15 -12 -16 5 -10 12 5 22 3 27 -5 5 -8 8 -5 6 10 -2 26 -19 29 -38 5z"/>
 <path d="M6479 2541 c7 -5 11 -13 8 -18 -3 -5 3 -9 13 -10 17 -2 18 0 2 18 -9 10 -21 19 -27 19 -5 0 -4 -4 4 -9z"/>
 <path d="M5356 2464 c-4 -9 -4 -19 -1 -22 3 -3 5 0 5 6 0 6 8 9 18 6 10 -4 13 -2 7 3 -5 4 -13 12 -16 16 -4 4 -9 0 -13 -9z"/>
 <path d="M6655 2431 c-3 -6 -1 -11 5 -11 6 0 9 -4 6 -8 -3 -5 2 -9 10 -9 17 0 15 28 -3 34 -6 2 -14 -1 -18 -6z"/>
 <path d="M5306 2416 c4 -9 15 -13 31 -10 15 3 22 1 18 -6 -3 -6 0 -7 9 -4 26 10 18 27 -9 22 -14 -3 -28 -1 -31 3 -9 15 -24 10 -18 -5z"/>
 <path d="M6610 2356 c0 -6 11 -11 25 -11 14 0 25 3 25 6 0 4 -11 9 -25 11 -15 3 -25 1 -25 -6z"/>
 <path d="M5180 2281 c-8 -6 -17 -8 -21 -5 -4 2 -10 0 -14 -5 -7 -13 35 -5 49 9 12 12 6 13 -14 1z"/>
 <path d="M5200 2228 c0 -10 -4 -18 -10 -18 -14 0 -13 -13 3 -31 6 -8 11 -12 10 -10 -1 2 2 12 8 22 7 13 7 25 0 37 -10 16 -10 16 -11 0z"/>
 <path d="M5130 2125 c0 -8 5 -15 10 -15 6 0 10 7 10 15 0 8 -4 15 -10 15 -5 0 -10 -7 -10 -15z"/>
 <path d="M6192 2110 c0 -19 2 -27 5 -17 2 9 2 25 0 35 -3 9 -5 1 -5 -18z"/>
 <path d="M5115 2057 c-14 -11 -15 -16 -5 -22 11 -7 29 9 30 28 0 10 -3 9 -25 -6z"/>
 <path d="M5100 2010 c0 -9 39 -25 46 -18 2 3 -7 10 -21 16 -14 6 -25 7 -25 2z"/>
 <path d="M5046 1979 c-8 -12 -12 -28 -9 -35 8 -20 22 -7 18 16 -2 13 2 20 11 20 8 0 14 5 14 10 0 17 -18 11 -34 -11z"/>
 <path d="M5134 1963 c2 -9 8 -18 15 -19 6 -1 7 0 2 2 -6 3 -7 12 -4 20 3 8 1 14 -5 14 -6 0 -9 -8 -8 -17z"/>
 <path d="M5146 1921 c-5 -8 -3 -17 5 -22 17 -11 39 -12 23 -1 -6 4 -13 14 -16 22 -3 11 -6 11 -12 1z"/>
 <path d="M5076 1888 c-7 -21 -3 -48 5 -42 5 2 6 12 3 22 -2 9 1 7 7 -5 7 -13 16 -23 22 -23 5 0 5 6 -2 13 -6 8 -9 16 -7 18 2 2 -2 10 -10 17 -12 11 -15 11 -18 0z"/>
 <path d="M5050 1850 c0 -5 0 -13 1 -16 0 -4 -5 -11 -13 -15 -10 -7 -9 -9 3 -9 11 0 17 9 17 25 0 14 -2 25 -4 25 -2 0 -4 -4 -4 -10z"/>
 <path d="M6883 1770 c0 -16 2 -28 5 -25 8 8 11 55 3 55 -4 0 -8 -13 -8 -30z"/>
 <path d="M5063 1748 c2 -7 10 -12 16 -10 6 1 11 -2 11 -8 0 -5 -5 -10 -11 -10 -5 0 -7 -5 -4 -10 10 -16 36 16 29 34 -3 9 -15 16 -26 16 -11 0 -18 -5 -15 -12z"/>
 <path d="M5310 1671 c0 -10 39 -46 43 -40 2 2 -7 14 -20 26 -13 12 -23 19 -23 14z"/>
 <path d="M5400 1660 l-35 -7 32 -2 c17 0 35 4 38 9 3 6 5 9 3 9 -2 -1 -19 -5 -38 -9z"/>
 <path d="M6350 1660 l-35 -7 32 -2 c17 0 35 4 38 9 3 6 5 9 3 9 -2 -1 -19 -5 -38 -9z"/>
 <path d="M5383 1623 c9 -2 25 -2 35 0 9 3 1 5 -18 5 -19 0 -27 -2 -17 -5z"/>
 <path d="M6333 1623 c9 -2 25 -2 35 0 9 3 1 5 -18 5 -19 0 -27 -2 -17 -5z"/>
 <path d="M6820 1611 c0 -11 5 -23 10 -26 6 -4 10 5 10 19 0 14 -4 26 -10 26 -5 0 -10 -9 -10 -19z"/>
 <path d="M5146 1545 c-19 -15 -19 -15 1 -15 11 0 23 7 27 15 7 19 -3 19 -28 0z"/>
 <path d="M5166 1511 c-3 -4 6 -13 19 -19 28 -13 32 -8 11 14 -17 16 -23 17 -30 5z"/>
 <path d="M5150 1422 c0 -5 7 -13 16 -16 10 -4 14 -1 12 6 -5 15 -28 23 -28 10z"/>
 <path d="M5237 1363 c-12 -11 -8 -22 14 -34 15 -8 24 -8 32 0 8 8 4 11 -16 11 -28 0 -37 14 -14 23 6 3 7 6 1 6 -6 1 -14 -2 -17 -6z"/>
 <path d="M5317 1281 c-3 -13 0 -18 7 -15 7 3 13 11 13 19 0 22 -14 18 -20 -4z"/>
 <path d="M5289 1213 c-12 -15 -12 -16 4 -10 10 4 23 7 28 7 6 0 7 5 4 10 -9 15 -21 12 -36 -7z"/>
 <path d="M5533 1119 c2 -22 13 -25 20 -5 3 8 0 17 -8 20 -9 3 -13 -2 -12 -15z"/>
 <path d="M5455 1100 c-3 -5 -3 -10 2 -10 4 0 1 -5 -7 -10 -9 -6 -10 -10 -3 -10 7 0 17 9 23 20 11 20 -3 30 -15 10z"/>
 <path d="M5610 1025 c8 -10 7 -16 -7 -23 -10 -6 -15 -13 -12 -16 3 -3 14 2 25 12 11 10 26 17 34 15 8 -2 6 2 -5 9 -29 18 -49 20 -35 3z"/>
 <path d="M5926 963 c-6 -20 -3 -49 6 -59 4 -3 4 -12 1 -20 -3 -8 0 -14 7 -14 6 0 8 5 5 10 -6 9 7 14 27 11 4 0 4 7 1 16 -4 11 -8 13 -11 5 -6 -19 -21 -14 -18 6 2 9 -2 20 -7 24 -7 4 -6 12 2 22 8 10 9 16 3 16 -6 0 -13 -8 -16 -17z"/>
 <path d="M6070 944 c0 -11 -6 -14 -21 -9 -19 6 -20 5 -8 -8 10 -10 19 -12 32 -6 18 10 24 39 7 39 -5 0 -10 -7 -10 -16z"/>
 <path d="M5758 923 c-8 -11 -7 -12 7 -7 11 5 16 4 12 -3 -3 -5 0 -10 8 -10 8 0 12 4 9 9 -3 4 0 8 5 8 6 0 11 4 11 9 0 14 -39 9 -52 -6z"/>
 <path d="M6221 898 c-16 -26 -11 -30 12 -8 10 10 14 20 10 23 -5 3 -15 -3 -22 -15z"/>
 <path d="M6048 881 c-11 -4 -14 -11 -9 -19 6 -10 10 -10 21 3 15 19 11 25 -12 16z"/>
 </g>
<g id="layer112" fill="#ffd373" stroke="none">
 <path d="M4120 5346 c0 -2 21 -11 48 -21 26 -10 66 -26 89 -36 23 -11 49 -16 57 -13 9 3 16 2 16 -4 0 -8 32 -19 80 -28 8 -1 29 -5 46 -9 26 -6 32 -4 37 15 3 13 0 23 -9 27 -8 3 -14 10 -14 15 0 6 7 8 15 4 11 -4 15 2 15 24 l0 30 -190 0 c-104 0 -190 -2 -190 -4z m220 -16 c0 -12 64 -10 71 2 5 8 8 6 7 -8 -2 -18 -8 -22 -40 -21 -22 0 -45 8 -53 17 -13 15 -13 17 0 17 8 0 15 -3 15 -7z"/>
 <path d="M4675 5336 c-20 -15 -20 -15 0 -30 20 -15 20 -15 -2 -10 -12 4 -25 13 -29 22 -6 14 -8 13 -13 -7 -4 -14 -13 -27 -21 -29 -13 -5 -13 -3 -1 12 8 9 11 19 7 23 -3 3 -6 0 -6 -7 0 -7 -3 -10 -6 -7 -4 3 -14 2 -24 -3 -12 -7 -17 -22 -17 -55 0 -45 0 -45 36 -47 20 0 43 -2 51 -2 8 -1 18 3 22 9 5 6 8 6 8 -2 0 -15 255 -19 264 -4 3 5 15 7 26 4 11 -3 20 -1 20 3 0 5 10 9 23 10 12 0 57 8 99 17 84 18 203 23 213 8 6 -11 -82 -55 -145 -71 -25 -6 -52 -14 -60 -17 -8 -3 -35 -7 -60 -9 -65 -6 -75 -11 -60 -29 42 -50 188 -101 259 -90 47 8 151 47 151 57 0 5 19 32 43 61 42 52 44 53 73 41 175 -74 357 -81 604 -24 25 6 59 13 75 16 17 3 35 9 40 14 11 8 98 38 131 44 10 2 32 9 47 15 16 6 30 11 31 11 2 0 28 -40 57 -89 59 -98 88 -122 173 -141 64 -14 142 0 224 41 69 35 93 56 71 63 -8 2 -56 11 -108 21 -72 13 -112 28 -172 62 -90 50 -102 63 -62 64 91 3 117 -2 203 -38 8 -3 21 -5 28 -4 6 1 12 -3 12 -9 0 -10 87 -70 102 -70 4 0 8 20 8 45 l0 45 45 0 c40 0 45 2 45 23 0 21 -33 41 -110 66 -8 3 -524 7 -1145 8 -974 3 -1134 1 -1150 -11z m185 -76 c0 -5 -9 -7 -20 -5 -11 2 -20 -1 -20 -7 0 -6 -3 -8 -6 -5 -11 11 16 36 32 30 8 -3 14 -9 14 -13z m-110 0 c0 -6 -6 -10 -14 -10 -8 0 -22 -7 -31 -16 -20 -21 -30 -12 -15 13 13 20 60 30 60 13z m120 -30 c0 -5 -5 -10 -11 -10 -5 0 -7 -4 -4 -10 3 -5 1 -10 -4 -10 -13 0 -13 3 -5 24 7 18 24 22 24 6z"/>
 <path d="M7144 5313 c3 -21 5 -44 6 -50 0 -7 9 -13 19 -13 22 0 28 -19 37 -111 3 -35 9 -67 12 -71 11 -11 196 -40 233 -36 l33 3 18 110 c10 61 22 131 26 158 l9 47 -199 0 -200 0 6 -37z m233 -175 c5 14 23 17 23 3 0 -14 -31 -22 -45 -11 -6 5 -16 6 -20 2 -5 -4 -5 -1 -1 6 6 11 11 11 24 0 12 -10 16 -10 19 0z"/>
 <path d="M7680 5329 c-25 -10 -53 -21 -62 -25 -10 -4 -18 -17 -18 -30 0 -23 3 -24 64 -24 72 0 78 -6 64 -59 -7 -24 -6 -41 3 -58 10 -18 10 -26 2 -31 -6 -4 -15 -20 -18 -35 -8 -32 8 -36 38 -9 12 10 17 11 12 3 -7 -12 0 -13 35 -7 23 4 52 12 64 18 11 7 23 13 26 13 23 4 140 48 140 53 0 4 21 18 48 32 61 32 123 80 116 92 -3 5 -2 7 3 6 8 -3 83 66 83 76 0 3 -125 6 -277 5 -248 -1 -283 -3 -323 -20z m440 -50 c0 -6 -8 -8 -20 -4 -10 3 -30 1 -42 -5 -22 -11 -22 -10 -4 4 23 18 66 21 66 5z m-63 -65 c-3 -4 -14 -3 -24 0 -15 6 -15 8 -3 16 16 10 39 -4 27 -16z m-98 -41 c0 -10 -3 -13 -5 -6 -3 7 -13 9 -22 6 -15 -4 -15 -3 -2 6 22 15 30 14 29 -6z m-116 -41 c-6 -24 -11 -26 -33 -12 -13 8 -13 10 1 10 9 0 20 7 23 16 9 24 16 13 9 -14z"/>
 <path d="M6256 4755 c2 -44 6 -173 9 -287 5 -227 13 -261 71 -307 32 -25 47 -26 68 -5 23 22 20 66 -14 218 -16 74 -33 166 -36 205 -4 39 -10 71 -14 71 -6 0 -67 125 -83 170 -3 8 -4 -21 -1 -65z"/>
 <path d="M5660 4790 c-7 -17 -31 -56 -52 -87 -26 -36 -56 -103 -84 -183 -23 -69 -57 -163 -73 -210 -34 -96 -40 -155 -15 -164 25 -10 32 -8 68 25 46 40 78 93 87 143 4 23 18 111 33 197 14 87 33 190 41 229 17 79 15 98 -5 50z"/>
 <path d="M3963 4777 c3 -18 9 -66 13 -109 6 -76 6 -76 33 -72 14 3 31 6 38 9 7 2 14 -4 17 -13 5 -17 32 -201 41 -277 20 -173 20 -174 53 -397 15 -103 30 -190 34 -193 3 -4 32 -1 65 5 32 6 94 12 138 13 l80 2 17 350 c9 193 20 382 23 421 l6 71 52 -8 c28 -5 53 -7 55 -5 2 3 0 55 -3 118 l-7 114 -108 -1 -108 0 -6 -35 c-3 -19 -19 -159 -36 -310 -16 -151 -33 -291 -36 -310 -6 -33 -28 73 -116 577 l-13 73 -119 4 -118 5 5 -32z"/>
 <path d="M7275 3724 c-5 -1 -32 -5 -59 -9 -36 -5 -46 -9 -35 -17 10 -7 8 -8 -8 -3 -26 7 -103 -12 -103 -25 0 -5 5 -12 10 -15 7 -4 8 -11 1 -18 -5 -7 -9 -129 -8 -305 1 -160 -1 -292 -5 -292 -5 0 -8 12 -8 27 0 21 -3 24 -12 15 -22 -22 -29 -13 -13 18 8 16 15 33 15 38 0 10 -121 22 -228 24 -42 1 -57 -3 -78 -23 -47 -44 -48 -61 -7 -186 l38 -114 40 5 c22 3 48 5 59 5 17 1 18 7 12 63 -4 35 -11 67 -16 73 -13 16 -23 115 -12 115 6 0 14 -25 17 -55 8 -61 -3 -54 149 -95 72 -20 94 -21 218 -15 105 6 142 4 153 -5 19 -16 132 -8 162 11 22 13 143 191 151 221 2 10 -7 33 -22 52 -31 41 -35 68 -7 42 11 -10 34 -46 51 -79 56 -112 76 -124 130 -77 12 10 26 20 31 22 6 2 -12 53 -38 113 -42 94 -54 113 -84 129 -49 27 -83 15 -146 -49 l-51 -53 -7 -111 c-4 -61 -12 -114 -16 -117 -12 -7 -11 118 2 196 21 127 45 441 34 449 -27 20 -136 43 -213 45 -48 2 -91 2 -97 0z m-129 -179 c3 -19 -10 -19 -26 0 -9 11 -9 15 -1 15 7 0 9 6 5 13 -5 9 -4 9 6 0 8 -7 15 -20 16 -28z m44 -102 c0 -3 -7 -3 -15 1 -8 3 -15 1 -15 -4 0 -6 -6 -10 -13 -10 -8 0 -18 -10 -24 -22 -6 -15 -12 -18 -17 -10 -4 7 -2 12 4 12 6 0 8 5 5 10 -3 6 -1 10 5 10 6 0 8 5 4 12 -5 8 -2 9 9 5 9 -3 19 -2 22 3 5 9 35 3 35 -7z"/>
 <path d="M4275 3709 c-82 -12 -87 -15 -83 -46 l3 -28 85 3 c47 2 96 5 110 7 14 2 37 4 53 4 24 1 27 5 27 36 l0 35 -67 -1 c-38 -1 -95 -5 -128 -10z"/>
 <path d="M5639 3674 c-7 -9 -13 -39 -14 -68 l0 -51 268 -3 267 -2 0 45 c0 35 -6 52 -25 70 l-24 25 -229 0 c-199 0 -231 -2 -243 -16z"/>
 <path d="M4327 3606 l-128 -31 6 -30 c3 -16 17 -102 30 -190 22 -148 27 -192 40 -329 5 -56 10 -65 27 -48 18 18 70 14 103 -8 17 -11 32 -20 35 -20 3 0 6 28 6 63 3 117 14 422 20 525 4 56 2 101 -2 101 -5 -1 -67 -15 -137 -33z"/>
 <path d="M5364 3409 c-3 -5 -1 -9 3 -9 5 0 76 -11 158 -24 83 -14 179 -28 215 -31 36 -3 142 -18 235 -31 368 -55 428 -62 410 -45 -11 9 -207 42 -293 48 -30 2 -111 13 -180 24 -70 11 -140 21 -157 24 -16 2 -59 8 -95 15 -36 6 -92 13 -125 16 -33 3 -84 9 -113 13 -29 5 -55 4 -58 0z"/>
 <path d="M4795 3366 c-17 -12 -16 -16 28 -72 26 -32 57 -71 69 -85 27 -30 176 -114 186 -104 7 6 52 128 49 131 -25 17 -287 144 -298 144 -8 0 -24 -6 -34 -14z"/>
 <path d="M5360 3212 c0 -11 42 -22 90 -24 33 -1 266 -34 415 -58 66 -10 149 -22 185 -25 36 -3 125 -15 199 -26 73 -11 135 -18 138 -15 3 3 0 8 -8 10 -12 4 -222 37 -329 52 -19 3 -86 13 -149 24 -63 11 -117 18 -121 15 -3 -2 -80 7 -171 21 -247 38 -249 38 -249 26z"/>
 <path d="M3797 2918 c-14 -18 -29 -49 -35 -68 -10 -31 -36 -234 -44 -345 l-3 -40 75 -11 c41 -6 80 -9 86 -7 7 3 16 69 24 169 l13 164 -43 85 c-23 47 -44 85 -46 85 -1 0 -14 -15 -27 -32z"/>
 <path d="M5640 2904 c0 -27 -57 -420 -116 -799 -31 -197 -37 -238 -42 -282 -1 -8 -19 -13 -47 -13 -52 0 -99 -21 -115 -49 -30 -57 9 -131 69 -131 65 0 94 30 107 110 l7 40 373 0 373 0 7 -52 c9 -63 39 -98 84 -98 77 0 119 58 89 123 -15 34 -47 51 -108 57 -49 4 -55 8 -57 30 -2 14 -8 50 -13 80 -10 52 -57 364 -120 808 -26 178 -34 213 -45 201 -3 -2 18 -157 45 -344 74 -509 99 -685 104 -735 l5 -45 -368 3 -369 2 8 53 c5 28 20 131 34 227 14 96 41 283 60 415 65 444 63 425 48 425 -7 0 -13 -11 -13 -26z m-168 -1129 c11 -11 -10 -99 -28 -112 -44 -32 -114 0 -114 52 0 41 33 65 88 65 27 0 51 -2 54 -5z m925 -17 c28 -27 29 -57 3 -86 -39 -41 -132 -16 -114 31 3 8 1 24 -4 34 -16 31 -3 43 46 43 33 0 52 -6 69 -22z"/>
 </g>
<g id="layer113" fill="#fdd59f" stroke="none">
 <path d="M4717 5263 c-13 -13 -7 -21 13 -16 11 3 17 9 14 14 -6 11 -18 12 -27 2z"/>
 <path d="M7013 5243 c15 -2 37 -2 50 0 12 2 0 4 -28 4 -27 0 -38 -2 -22 -4z"/>
 <path d="M7627 5243 c18 -2 50 -2 70 0 21 2 7 4 -32 4 -38 0 -55 -2 -38 -4z"/>
 <path d="M4073 4803 c20 -2 54 -2 75 0 20 2 3 4 -38 4 -41 0 -58 -2 -37 -4z"/>
 <path d="M4468 4803 c17 -2 47 -2 65 0 17 2 3 4 -33 4 -36 0 -50 -2 -32 -4z"/>
 <path d="M6253 4730 c0 -25 2 -35 4 -22 2 12 2 32 0 45 -2 12 -4 2 -4 -23z"/>
 <path d="M6263 4380 c0 -25 2 -35 4 -22 2 12 2 32 0 45 -2 12 -4 2 -4 -23z"/>
 <path d="M5620 3548 c0 -5 123 -7 273 -6 271 2 240 6 -96 10 -97 2 -177 0 -177 -4z"/>
 <path d="M5953 3333 c9 -2 25 -2 35 0 9 3 1 5 -18 5 -19 0 -27 -2 -17 -5z"/>
 <path d="M5863 3323 c9 -2 25 -2 35 0 9 3 1 5 -18 5 -19 0 -27 -2 -17 -5z"/>
 <path d="M5593 3163 c9 -2 25 -2 35 0 9 3 1 5 -18 5 -19 0 -27 -2 -17 -5z"/>
 <path d="M6320 3086 c0 -2 15 -6 34 -8 19 -2 32 0 30 4 -5 8 -64 12 -64 4z"/>
 </g>
<g id="layer114" fill="#ffffff" stroke="none">
 <path d="M0 2890 l0 -2890 6000 0 6000 0 0 2890 0 2890 -6000 0 -6000 0 0 -2890z m8620 2475 c0 -13 -25 -15 -165 -15 l-166 0 -42 -42 c-22 -24 -45 -42 -50 -40 -5 1 -6 -2 -3 -7 3 -5 -10 -21 -29 -35 -26 -20 -35 -35 -35 -57 0 -32 -17 -38 -50 -17 -27 17 -35 4 -20 -32 11 -27 17 -30 55 -30 28 0 51 -7 66 -19 23 -19 23 -20 6 -38 -17 -17 -19 -17 -57 3 l-38 22 15 -33 c13 -28 22 -34 60 -39 57 -8 83 -22 83 -47 0 -30 -26 -34 -66 -10 -20 12 -38 21 -39 19 -1 -2 4 -18 11 -35 9 -22 21 -33 34 -33 41 0 100 -32 106 -57 13 -51 -28 -51 -84 0 l-22 21 11 -33 c6 -18 17 -34 23 -36 6 -1 30 -8 53 -14 22 -6 51 -19 63 -29 19 -16 21 -22 11 -40 -16 -31 -44 -27 -87 10 l-36 32 16 -38 c9 -21 16 -39 16 -41 0 -1 18 -8 40 -15 53 -18 88 -54 70 -75 -17 -20 -29 -19 -58 8 l-25 22 7 -34 c3 -19 7 -35 9 -35 49 -20 100 -51 112 -70 36 -54 -19 -63 -69 -11 l-34 35 10 -34 c8 -26 21 -39 50 -52 45 -20 79 -59 71 -80 -12 -32 -60 -6 -91 51 -11 19 -11 19 -12 -2 0 -12 20 -46 44 -76 24 -29 49 -63 55 -75 16 -29 14 -69 -4 -76 -38 -14 -66 24 -89 121 -8 32 -15 48 -15 35 -2 -37 -29 -92 -46 -92 -36 0 -31 60 10 108 15 18 25 42 24 58 l-1 29 -12 -33 c-13 -37 -39 -57 -62 -48 -24 9 -16 42 22 91 29 39 34 52 28 78 l-6 30 -17 -49 c-13 -41 -20 -50 -43 -52 -26 -3 -28 -1 -28 31 0 23 11 52 33 83 l33 49 -15 50 -15 50 -6 -57 c-6 -62 -19 -84 -45 -75 -29 12 -28 37 4 102 32 63 32 64 15 102 l-17 38 -7 -44 c-7 -45 -32 -74 -56 -64 -22 8 -17 64 11 119 17 33 23 57 19 74 -5 22 -8 19 -19 -24 -13 -50 -29 -68 -55 -63 -22 4 -16 59 13 118 21 43 23 55 14 80 -16 40 -27 36 -27 -10 0 -46 -29 -88 -53 -78 -10 4 -17 14 -17 24 0 19 31 86 52 115 10 14 9 23 -4 50 l-17 33 0 -38 c-1 -50 -44 -98 -68 -75 -14 15 -11 44 12 100 6 15 3 15 -29 6 -20 -6 -36 -15 -36 -19 0 -4 -8 -6 -17 -5 -10 2 -27 -3 -38 -10 -30 -19 -110 -31 -100 -14 4 7 -6 2 -24 -11 -17 -12 -31 -23 -31 -23 0 -15 -107 -949 -127 -1104 -27 -222 -27 -222 -7 -236 20 -14 20 -15 2 -217 -10 -111 -16 -204 -14 -206 2 -3 28 20 58 51 64 65 97 77 147 50 30 -16 42 -35 83 -128 41 -93 46 -110 33 -120 -24 -18 3 -90 48 -127 30 -24 36 -36 31 -52 -8 -26 -47 -87 -55 -87 -3 0 -18 11 -32 24 -21 20 -26 31 -21 54 4 21 -2 42 -27 83 -56 95 -102 159 -109 154 -4 -2 -37 -51 -74 -108 -37 -56 -77 -109 -88 -116 -11 -7 -61 -17 -110 -21 -50 -5 -92 -10 -94 -13 -2 -2 -7 -18 -10 -35 -6 -28 -3 -32 21 -38 27 -7 27 -8 22 -65 -4 -48 -2 -61 14 -75 13 -12 19 -31 19 -58 0 -56 -22 -86 -64 -86 -46 0 -162 54 -182 85 -22 33 -14 96 21 161 42 80 19 133 -60 134 -33 0 -145 27 -237 56 -20 6 -21 4 -14 -52 12 -105 38 -198 63 -221 18 -18 22 -28 16 -55 -3 -18 -7 -34 -8 -36 -1 -1 -27 5 -56 15 l-54 18 3 50 c4 68 -22 135 -52 135 -19 0 -26 15 -59 114 -41 123 -40 141 5 184 30 27 46 28 206 18 l122 -8 0 169 c1 222 5 311 13 319 4 4 2 13 -4 21 -8 9 -8 17 -1 26 7 8 7 69 0 197 -8 145 -14 194 -29 226 -12 25 -19 62 -19 98 0 31 -5 66 -11 78 -17 31 -2 33 16 1 15 -27 15 -23 9 82 -3 61 -11 112 -16 114 -33 12 -88 77 -103 120 -9 27 -25 57 -36 67 -16 15 -12 -5 25 -108 24 -69 54 -145 66 -169 27 -52 36 -207 19 -303 -6 -34 -13 -88 -15 -121 -5 -94 -13 -123 -41 -145 -36 -28 -99 -28 -108 1 -18 56 25 133 95 169 43 22 47 36 57 176 4 59 1 109 -7 145 -15 64 -40 129 -49 129 -3 0 -14 -26 -23 -57 -12 -42 -14 -62 -6 -77 17 -31 3 -125 -23 -152 -31 -33 -88 -43 -106 -19 -31 44 3 138 65 182 40 28 53 54 67 135 5 28 -1 65 -26 146 l-34 108 -24 -55 c-15 -37 -24 -78 -26 -121 -2 -76 -29 -138 -70 -160 -33 -17 -54 -6 -74 38 -11 25 -23 33 -50 38 -59 10 -101 27 -101 42 0 7 -5 10 -11 6 -12 -7 -90 64 -121 111 l-20 30 7 -65 c3 -36 20 -125 36 -197 16 -73 29 -148 29 -167 0 -35 -21 -66 -44 -66 -36 0 -106 91 -106 136 0 10 -2 15 -5 12 -3 -2 -10 -65 -16 -139 -14 -178 -41 -305 -61 -293 -8 5 -9 1 -5 -10 6 -16 -23 -56 -42 -56 -5 0 -16 12 -26 26 -12 19 -18 53 -20 122 -2 54 -6 104 -10 113 -3 9 -5 20 -4 25 3 17 -3 579 -6 564 -2 -8 -13 -76 -25 -150 -23 -143 -53 -273 -75 -326 -17 -42 -45 -57 -80 -44 -30 12 -42 39 -49 117 -3 32 -9 77 -12 101 -4 28 -3 42 5 42 6 0 11 5 11 11 0 5 -4 8 -10 4 -5 -3 -9 31 -9 88 0 183 -17 147 -47 -103 -14 -115 -86 -494 -100 -530 -30 -74 -71 -75 -96 -2 -14 43 -17 226 -5 352 l8 85 -29 -45 c-30 -48 -86 -100 -105 -100 -54 1 -48 54 30 275 84 235 83 229 31 174 -66 -69 -118 -105 -186 -128 -63 -21 -100 -25 -139 -15 -30 8 -29 27 3 55 14 13 35 34 47 47 11 12 27 22 35 22 9 0 12 3 8 7 -9 10 55 74 67 66 6 -3 7 -1 4 4 -4 6 0 17 9 24 31 26 204 274 204 293 0 3 -17 -11 -37 -30 -67 -62 -127 -87 -223 -92 -62 -3 -90 0 -103 10 -18 13 -12 21 82 107 103 95 124 123 71 96 -86 -44 -201 -38 -296 16 -91 52 -92 65 -4 73 25 2 52 6 60 9 8 3 35 11 60 17 63 16 151 60 145 71 -10 15 -129 10 -213 -8 -42 -9 -87 -17 -99 -17 -13 -1 -23 -5 -23 -9 0 -5 -8 -7 -17 -5 -10 1 -24 -1 -30 -5 -22 -14 -256 -9 -265 5 -5 8 -8 9 -8 2 0 -8 -18 -10 -55 -7 l-55 5 0 -196 0 -196 29 0 28 0 8 -119 c8 -135 -1 -123 108 -136 31 -4 57 -11 57 -15 0 -5 -7 -70 -16 -147 -8 -76 -16 -148 -16 -161 0 -12 -4 -25 -8 -27 -5 -3 -6 -14 -3 -25 4 -16 2 -19 -13 -14 -18 5 -18 5 -1 -6 17 -11 24 -50 9 -50 -5 0 -7 -17 -5 -37 1 -21 0 -45 -3 -53 -4 -8 -8 -31 -9 -50 -2 -19 -5 -60 -8 -90 -9 -115 -21 -175 -36 -188 -14 -11 -14 -11 1 -6 16 5 17 2 11 -27 -3 -19 -10 -36 -16 -38 -6 -2 -6 -6 0 -10 6 -4 6 -36 2 -81 -5 -41 -11 -104 -13 -140 -3 -36 -9 -85 -12 -110 l-7 -45 28 25 c14 14 46 44 71 67 68 66 74 66 237 -17 78 -40 143 -74 144 -75 2 -1 -2 -15 -9 -32 -10 -28 -9 -32 28 -66 25 -24 49 -37 67 -37 54 0 67 -15 67 -75 0 -52 -1 -55 -26 -55 -36 0 -61 16 -68 43 -4 17 -39 42 -134 95 -71 40 -133 72 -139 72 -5 0 -60 -48 -123 -107 -141 -135 -153 -143 -212 -143 -42 0 -48 -3 -48 -20 0 -12 -8 -35 -17 -53 -9 -18 -19 -69 -23 -114 -5 -61 -12 -89 -26 -104 -28 -32 -94 -58 -163 -65 -78 -9 -101 8 -101 72 0 35 5 47 25 60 39 26 35 81 -10 124 -19 19 -37 48 -41 66 l-6 32 -39 -13 c-41 -15 -107 -57 -175 -112 l-41 -33 -12 -142 c-7 -79 -14 -172 -17 -208 -6 -72 -33 -188 -46 -196 -4 -3 -8 15 -8 40 0 30 -4 46 -12 46 -7 0 -23 11 -35 24 l-22 23 29 46 29 46 -52 8 -52 8 3 40 c8 110 34 314 44 345 6 19 22 50 35 68 l26 34 -24 51 c-14 29 -20 52 -14 54 6 2 62 34 125 71 113 66 115 68 114 102 -4 100 -10 160 -16 160 -3 0 -5 14 -4 30 1 17 -1 30 -5 30 -7 0 -22 104 -23 167 -1 24 -4 43 -7 43 -4 0 -7 15 -8 33 -1 34 -3 46 -26 176 -8 47 -13 87 -10 89 2 3 0 13 -6 24 -8 14 -7 24 3 36 9 11 10 14 1 8 -10 -5 -13 2 -13 28 0 19 -4 37 -8 40 -5 3 -9 26 -11 51 -1 36 1 45 11 39 7 -4 6 1 -3 12 -17 20 -39 140 -35 193 1 17 -1 31 -5 31 -4 0 -10 25 -14 57 -4 31 -9 62 -12 69 -3 7 8 14 29 18 18 4 53 12 77 18 l43 11 -7 76 c-3 42 -9 91 -12 109 -5 32 -5 32 36 32 l41 0 -2 247 -3 247 -72 29 c-89 36 -117 32 -138 -19 -21 -50 -19 -60 14 -107 37 -54 45 -81 27 -96 -29 -24 -61 14 -68 84 l-3 30 -17 -31 c-17 -31 -17 -33 19 -102 35 -70 38 -102 8 -102 -27 0 -55 38 -55 76 0 40 -15 38 -25 -4 -5 -23 2 -40 30 -82 40 -59 42 -93 7 -98 -18 -3 -26 4 -37 32 -8 19 -15 48 -15 63 l-1 28 -14 -25 c-20 -35 -19 -42 15 -97 36 -59 43 -106 17 -111 -27 -5 -54 24 -62 66 -7 33 -8 35 -16 15 -6 -17 0 -36 27 -80 41 -68 43 -108 4 -108 -28 0 -49 33 -51 80 l-1 30 -13 -30 c-21 -45 -18 -65 16 -115 36 -53 37 -103 2 -108 -21 -3 -33 19 -46 83 -2 15 -7 9 -15 -20 -10 -34 -9 -42 7 -60 31 -33 61 -88 61 -111 0 -53 -64 -27 -74 31 -4 20 -11 33 -17 30 -18 -12 -9 -55 20 -87 42 -49 55 -77 41 -93 -6 -7 -20 -11 -31 -8 -19 5 -45 40 -41 56 1 4 -3 7 -8 7 -19 0 -10 -42 13 -60 13 -10 32 -34 42 -54 18 -34 19 -37 2 -53 -15 -15 -19 -16 -32 -2 -8 8 -21 35 -29 59 l-14 45 -1 -36 c-3 -97 -51 -178 -88 -148 -24 20 -9 74 37 135 22 29 40 63 40 76 0 21 -2 20 -21 -9 -33 -52 -91 -55 -74 -4 6 21 88 84 98 75 2 -3 8 11 11 32 4 20 5 39 2 42 -3 3 -6 -2 -6 -11 0 -9 -4 -17 -10 -17 -5 0 -10 -5 -10 -11 0 -15 -31 -38 -51 -39 -25 0 -32 29 -13 57 8 14 35 33 59 44 40 18 54 38 55 78 0 10 -7 8 -23 -7 -27 -26 -55 -28 -64 -6 -7 20 31 61 73 76 23 8 34 20 42 47 13 40 9 52 -7 22 -7 -11 -24 -27 -40 -36 -26 -13 -30 -13 -46 5 -10 11 -15 26 -11 35 6 16 99 65 124 65 6 0 12 1 12 3 0 1 4 18 10 36 l10 35 -33 -31 c-40 -38 -62 -46 -77 -27 -20 23 13 61 71 81 35 12 54 26 60 41 15 39 10 44 -17 23 -47 -37 -107 -16 -68 23 14 15 75 36 102 36 11 0 32 39 32 60 0 5 -16 0 -36 -12 -33 -19 -37 -20 -52 -4 -15 15 -15 17 0 33 10 9 37 19 60 22 37 5 45 11 60 41 27 55 22 68 -12 35 -24 -23 -34 -27 -47 -19 -9 6 -18 15 -20 21 -7 19 32 53 80 71 45 16 51 21 72 74 l23 58 -210 2 c-158 2 -212 6 -216 16 -3 9 524 12 2612 12 2319 0 2616 -2 2616 -15z m-2464 -1679 c30 -30 34 -40 34 -87 1 -50 3 -56 33 -74 45 -29 57 -59 57 -151 l0 -82 55 -7 c38 -4 55 -11 55 -21 0 -16 -8 -16 -67 -5 l-43 8 0 -83 c0 -92 -2 -89 74 -96 16 -2 32 -9 34 -17 4 -11 -6 -13 -52 -8 l-56 6 0 -40 c0 -37 2 -39 33 -41 17 0 40 -1 50 0 9 1 17 -3 17 -9 0 -6 6 -9 13 -6 16 6 67 -31 67 -48 0 -7 -6 -16 -12 -19 -7 -3 -2 -3 11 0 21 5 23 3 18 -15 -3 -11 -2 -21 3 -21 15 0 21 -33 8 -42 -11 -6 -10 -8 0 -8 7 0 11 -4 8 -9 -3 -5 1 -12 10 -15 10 -4 13 -13 9 -26 -3 -11 -3 -20 2 -20 4 0 19 -21 32 -47 14 -27 33 -60 43 -74 9 -14 15 -29 11 -33 -3 -3 -1 -6 6 -6 7 0 9 -5 5 -12 -4 -6 -3 -8 3 -5 15 9 36 -19 27 -35 -4 -7 -4 -10 0 -6 11 9 57 -34 52 -49 -3 -6 4 -15 14 -18 11 -3 19 -9 19 -13 -1 -4 -1 -14 0 -22 1 -12 3 -12 10 -2 6 11 13 7 30 -16 11 -17 21 -37 21 -46 0 -9 7 -16 15 -16 8 0 15 -3 15 -7 0 -5 4 -14 9 -22 7 -10 13 -11 31 -1 31 17 51 -3 21 -22 -22 -13 -28 -42 -11 -53 6 -3 10 -17 10 -31 0 -14 4 -23 9 -19 9 5 25 -48 26 -80 0 -5 5 -16 12 -22 12 -14 43 -180 42 -228 -1 -16 -1 -51 0 -77 1 -46 2 -48 31 -48 20 0 30 -5 30 -15 0 -10 -10 -15 -29 -15 -33 0 -41 -14 -47 -78 -5 -60 -59 -216 -101 -292 -108 -195 -268 -339 -513 -463 -357 -180 -757 -146 -1077 91 -181 135 -320 346 -374 572 -32 134 -32 326 0 460 40 167 125 323 252 465 89 100 140 184 187 309 50 131 60 148 106 170 l36 17 0 109 c0 120 5 112 -72 125 -62 10 -47 29 17 21 l55 -6 0 84 0 84 -52 9 c-29 4 -53 14 -56 22 -4 11 6 13 52 7 l56 -6 0 29 c0 33 39 86 70 96 17 5 20 16 20 65 0 54 2 60 35 89 l36 31 245 0 246 0 34 -34z m924 -1268 c0 -15 -129 -88 -155 -88 -31 0 -10 22 60 60 76 41 95 47 95 28z m-2334 -63 c66 -37 80 -50 65 -59 -11 -7 -161 72 -161 85 0 18 34 9 96 -26z m144 -75 c39 -20 53 -41 28 -40 -22 1 -81 34 -86 48 -5 17 13 15 58 -8z m2306 -550 c34 0 44 -4 44 -16 0 -14 -12 -16 -90 -12 -93 4 -107 9 -95 29 5 7 23 9 53 5 25 -3 64 -6 88 -6z m-2381 -30 c8 -13 -6 -17 -72 -24 -41 -4 -53 -2 -53 9 0 21 113 35 125 15z m-165 -14 c0 -15 -42 -26 -101 -26 -27 0 -39 4 -39 14 0 11 14 16 48 19 26 2 57 4 70 5 13 1 22 -4 22 -12z m300 -546 c-26 -20 -60 -26 -60 -11 0 5 15 18 32 30 42 26 66 10 28 -19z m2010 -27 c44 -27 80 -54 80 -60 0 -7 -4 -13 -8 -13 -16 0 -166 95 -170 108 -7 22 17 13 98 -35z m-2097 -18 c2 -11 -102 -84 -120 -84 -29 -2 -9 27 45 61 56 37 72 42 75 23z m1577 -327 c0 -28 -18 -21 -35 12 -21 40 -9 61 16 29 10 -13 19 -32 19 -41z m-1060 43 c0 -19 -31 -81 -40 -81 -15 0 -12 27 5 60 15 28 35 40 35 21z m520 -157 c0 -59 -3 -74 -15 -74 -12 0 -15 15 -15 73 0 41 3 77 6 80 16 16 24 -10 24 -79z m599 15 c42 -72 51 -104 29 -97 -31 10 -100 168 -74 168 2 0 23 -32 45 -71z m-1169 26 c0 -25 -71 -145 -86 -145 -20 0 -19 2 27 85 39 72 59 92 59 60z m570 -215 c0 -64 -3 -80 -15 -80 -12 0 -15 15 -15 73 0 41 3 77 7 80 17 18 23 0 23 -73z"/>
 <path d="M4110 5333 c0 -16 14 -109 31 -208 112 -660 172 -996 176 -991 7 6 11 43 43 326 40 360 39 350 61 350 11 0 19 6 19 13 0 6 11 100 25 207 14 107 25 196 25 196 0 2 -59 15 -85 19 -42 7 -75 19 -75 27 0 6 -7 7 -16 4 -8 -3 -34 2 -57 13 -23 10 -64 27 -92 37 l-50 19 45 6 45 6 -47 1 c-46 2 -48 1 -48 -25z"/>
 <path d="M4657 5338 c-9 -8 -13 -18 -9 -25 5 -8 11 -3 19 13 13 28 12 28 -10 12z"/>
 <path d="M4326 5331 c-3 -5 0 -14 8 -20 10 -9 15 -8 19 3 4 11 1 13 -10 9 -11 -4 -14 -2 -9 5 4 7 5 12 2 12 -3 0 -7 -4 -10 -9z"/>
 <path d="M6635 5280 l-30 -6 40 -25 c45 -29 101 -59 110 -59 3 0 5 19 3 43 -3 42 -3 42 -48 47 -25 3 -58 3 -75 0z"/>
 <path d="M6782 5219 l3 -44 65 -16 c86 -21 151 -29 144 -18 -6 11 -111 79 -121 79 -3 0 -14 6 -22 14 -9 8 -29 18 -44 21 -28 7 -28 7 -25 -36z"/>
 <path d="M7930 5179 c-13 -9 -13 -10 2 -6 9 3 19 1 22 -6 2 -7 5 -4 5 6 1 20 -7 21 -29 6z"/>
 <path d="M6940 5090 c-25 -17 -66 -37 -92 -46 -41 -13 -47 -19 -44 -37 3 -12 15 -71 27 -132 32 -168 61 -214 146 -231 l55 -11 -6 31 c-3 17 -11 127 -17 244 -7 116 -15 212 -18 211 -3 0 -26 -13 -51 -29z"/>
 <path d="M6570 5070 c0 -4 41 -51 91 -105 87 -93 91 -99 73 -112 -14 -11 -41 -14 -104 -11 -95 5 -134 20 -192 76 -21 20 -40 33 -43 31 -3 -3 17 -48 43 -100 52 -105 142 -235 201 -293 l39 -38 50 36 c35 26 55 50 70 84 32 77 34 125 9 261 l-23 124 -58 2 c-36 2 -75 12 -107 27 -27 14 -49 22 -49 18z"/>
 <path d="M7214 5028 c3 -18 15 -114 26 -213 11 -99 35 -313 55 -475 19 -162 36 -307 37 -322 1 -16 6 -28 9 -28 10 0 14 25 44 255 14 110 41 310 60 445 19 135 35 265 37 290 3 45 3 45 -32 48 -19 1 -76 9 -126 17 -121 20 -116 21 -110 -17z"/>
 <path d="M6947 4629 c7 -9 11 -18 8 -21 -3 -3 3 -11 12 -19 16 -12 17 -12 6 2 -7 9 -11 18 -8 21 3 3 -3 11 -12 19 -16 12 -17 12 -6 -2z"/>
 <path d="M6151 4051 c-10 -6 -9 -10 3 -14 8 -3 18 -2 21 3 8 13 -9 20 -24 11z"/>
 <path d="M4661 3991 c-9 -6 -10 -11 -2 -15 6 -4 11 -3 11 3 0 5 8 12 18 14 12 3 13 5 2 6 -8 0 -21 -3 -29 -8z"/>
 <path d="M4284 2819 c-10 -17 12 -32 36 -24 17 5 19 10 9 21 -14 17 -35 18 -45 3z"/>
 <path d="M7315 2799 c-8 -12 11 -29 33 -29 19 0 10 34 -10 38 -9 2 -19 -2 -23 -9z"/>
 <path d="M5616 3669 c-24 -19 -27 -27 -24 -70 4 -68 22 -66 29 3 4 32 12 65 19 73 18 21 7 19 -24 -6z"/>
 <path d="M5521 3484 c-12 -15 -21 -39 -21 -53 0 -26 3 -27 84 -40 47 -7 94 -10 105 -6 12 3 21 2 21 -3 0 -5 24 -12 53 -16 53 -6 381 -52 451 -63 l38 -6 -3 87 c-6 134 18 126 -379 126 l-329 0 -20 -26z"/>
 <path d="M5500 3296 c0 -77 11 -115 23 -84 4 10 7 10 14 0 6 -7 70 -21 159 -32 82 -11 187 -27 234 -34 146 -24 178 -26 183 -13 2 8 9 7 21 -6 10 -9 29 -17 44 -17 15 0 37 -3 50 -6 22 -6 22 -5 22 80 0 100 18 87 -164 111 -98 13 -121 14 -128 3 -6 -11 -10 -10 -17 1 -9 14 -173 43 -371 67 -30 3 -58 8 -62 11 -5 2 -8 -34 -8 -81z"/>
 <path d="M5500 3068 c0 -59 4 -108 9 -108 5 0 22 7 37 15 24 12 87 15 367 15 l338 0 -3 42 -3 42 -225 32 c-166 24 -227 29 -232 21 -6 -9 -10 -8 -17 2 -5 8 -56 19 -140 30 l-131 17 0 -108z"/>
 <path d="M5460 2923 c-39 -14 -71 -60 -96 -137 -38 -117 -86 -203 -165 -298 -38 -46 -90 -110 -115 -143 -140 -182 -217 -467 -185 -684 52 -357 248 -627 562 -776 130 -61 254 -88 404 -89 133 0 260 18 234 34 -7 5 -18 5 -24 0 -6 -5 -25 -8 -43 -8 -28 1 -32 4 -27 22 4 18 3 17 -7 -3 -11 -22 -15 -23 -83 -17 -38 4 -79 8 -90 11 -11 2 -30 4 -42 4 -12 1 -28 8 -36 16 -9 8 -17 10 -19 5 -4 -12 -141 35 -146 50 -2 5 -8 8 -13 5 -15 -10 -51 15 -45 31 7 17 -10 19 -18 2 -5 -10 -7 -10 -12 0 -3 6 -12 12 -20 12 -8 0 -23 9 -33 19 -11 11 -33 27 -49 35 -42 22 -142 115 -142 133 0 8 -4 12 -9 9 -10 -7 -102 113 -122 159 -8 17 -19 35 -25 40 -17 15 -45 95 -34 95 6 0 10 4 10 10 0 5 -6 7 -13 4 -13 -5 -37 53 -37 90 0 9 -4 16 -9 16 -5 0 -7 9 -4 20 3 11 1 26 -5 33 -6 6 -13 62 -17 122 -6 95 -5 113 9 124 18 15 22 36 5 25 -22 -13 16 217 40 251 4 6 13 29 21 53 7 23 17 42 22 42 4 0 8 7 8 15 0 8 5 15 11 15 5 0 7 5 4 10 -3 6 1 13 9 16 9 3 13 10 10 15 -6 11 46 89 92 136 19 19 34 38 34 42 0 4 10 16 23 27 12 11 32 33 44 49 17 23 25 27 31 17 7 -10 12 -9 23 4 9 12 10 15 2 10 -29 -17 -32 7 -5 47 15 23 33 53 39 67 30 64 53 124 53 136 0 7 7 20 16 28 8 9 11 16 6 16 -6 0 -8 9 -5 20 3 11 4 20 2 19 -2 0 -11 -3 -19 -6z"/>
 <path d="M5465 2800 c-3 -5 1 -10 9 -10 8 0 18 5 21 10 3 6 -1 10 -9 10 -8 0 -18 -4 -21 -10z"/>
 <path d="M5340 2492 c0 -4 9 -8 20 -9 11 -1 18 2 15 8 -7 11 -35 12 -35 1z"/>
 <path d="M5220 2379 c0 -6 -9 -8 -22 -3 -21 6 -21 6 -5 -11 10 -10 19 -16 20 -14 2 2 9 12 16 22 9 11 10 17 2 17 -6 0 -11 -5 -11 -11z"/>
 <path d="M6864 2028 c-10 -16 2 -18 21 -5 16 12 16 14 1 14 -9 0 -19 -4 -22 -9z"/>
 <path d="M5015 1821 c-3 -5 0 -13 7 -17 18 -11 48 -12 42 -2 -4 5 -13 7 -21 4 -11 -4 -13 -2 -9 9 6 16 -9 21 -19 6z"/>
 <path d="M5040 1575 c-10 -12 -8 -13 11 -10 13 3 27 -1 31 -8 6 -9 8 -9 8 0 0 21 -36 35 -50 18z"/>
 <path d="M5432 1031 c-10 -6 -10 -10 3 -21 13 -11 15 -9 15 9 0 24 0 24 -18 12z"/>
 <path d="M5795 880 c10 -11 20 -20 22 -20 2 0 -1 9 -7 20 -6 11 -16 20 -22 20 -6 0 -3 -9 7 -20z"/>
 <path d="M5842 877 c-8 -9 -8 -17 0 -27 8 -13 9 -12 5 2 -3 9 -1 19 6 21 7 2 9 7 6 11 -3 4 -11 1 -17 -7z"/>
 <path d="M6081 854 c6 -8 18 -14 26 -14 20 0 8 16 -17 23 -17 4 -19 3 -9 -9z"/>
 </g>

</svg>